<?xml version="1.0" encoding="utf-8"?>
<!-- Generator: Adobe Illustrator 18.0.0, SVG Export Plug-In . SVG Version: 6.00 Build 0)  -->
<!DOCTYPE svg PUBLIC "-//W3C//DTD SVG 1.1//EN" "http://www.w3.org/Graphics/SVG/1.1/DTD/svg11.dtd">
<svg version="1.1" xmlns="http://www.w3.org/2000/svg" xmlns:xlink="http://www.w3.org/1999/xlink" x="0px" y="0px"
	 viewBox="0 -48 800 531" enable-background="new 0 -48 800 531" xml:space="preserve">
<g id="_x30_">
	<g>
		<defs>
			<rect id="SVGID_1_" x="445.4" y="119.9" width="217.9" height="204.2"/>
		</defs>
		<clipPath id="SVGID_2_">
			<use xlink:href="#SVGID_1_"  overflow="visible"/>
		</clipPath>
		<path clip-path="url(#SVGID_2_)" fill="#616262" d="M519.5,311.3c0,7.1-1.3,12.8-2.9,12.8c-1.6,0-2.9-5.7-2.9-12.8
			c0-7.1,1.3-12.8,2.9-12.8C518.2,298.5,519.5,304.2,519.5,311.3"/>
		<path clip-path="url(#SVGID_2_)" fill="#616262" d="M649.1,311.3c0,7.1-1.3,12.8-2.9,12.8c-1.6,0-2.9-5.7-2.9-12.8
			c0-7.1,1.3-12.8,2.9-12.8C647.8,298.5,649.1,304.2,649.1,311.3"/>
		<path clip-path="url(#SVGID_2_)" fill="#616262" d="M640.5,307.6c0,5.2-1,9.4-2.1,9.4c-1.2,0-2.1-4.2-2.1-9.4c0-5.2,1-9.4,2.1-9.4
			C639.5,298.2,640.5,302.4,640.5,307.6"/>
		<path clip-path="url(#SVGID_2_)" fill="#616262" d="M527.3,307.6c0,5.2-1,9.4-2.1,9.4c-1.2,0-2.1-4.2-2.1-9.4c0-5.2,1-9.4,2.1-9.4
			C526.3,298.2,527.3,302.4,527.3,307.6"/>
	</g>
	<rect x="499.4" y="242.4" fill="#6CC2DE" width="163.9" height="65.2"/>
	<path fill="#112029" d="M499.4,278.9c0,3.4,0,6.8,0,10.1c-4.8,0-9.6,0-14.4,0c-0.6,0-0.6-0.3-0.6-0.7v-9.6c0-0.4,0.1-0.8-0.1-1.3
		c-0.1-1.6-0.9-2.3-2.4-2.6c-1-0.2-1.9-0.1-2.9,0c-1.3,0.2-2,0.9-2.2,2.2c-0.1,0.5-0.1,0.9-0.1,1.4c0,3.5,0,7,0,10.6h-14.9
		c0-3.4,0-6.9-0.1-10.3c0-0.3,0-0.6,0-0.9c0-11.4,0-22.9,0-34.3c0-1.2,0.2-2.1,1-3.1c3.7-5,4.9-10.7,4.9-16.8
		c0.9-0.2,1.9-0.6,2.9-0.4c-0.1,0.4,0.2,0.8,0.2,1.2c0.3,2.4,1.1,4.5,3.1,6.1c2.1,1.7,4.5,1.9,7,2c0.8,0,1.8-0.1,2.6-0.3
		c1.9-0.4,3.6-1.2,4.9-2.7c1.7-1.9,2.1-4.1,2.2-6.5c1,0.2,1.9,0.3,2.9,0.5c0,1,0.1,1.9,0.1,2.9c0.1,1.8,0.4,3.7,0.9,5.4
		c0.8,3.1,1.9,6.1,3.9,8.5c0.9,1.1,1.1,2.2,1.1,3.5c-0.1,7.3,0,14.6,0,21.9C499.4,270.2,499.4,274.6,499.4,278.9"/>
	<path fill="#E0B495" d="M508,191.8c-0.2,1.1-0.5,2.2-0.7,3.4c-0.8-0.8-1.2-1.7-1.7-2.6c-1.8-3.4-3.1-7.1-3.8-10.9
		c-0.3-1.7-0.5-3.4-0.5-5.1c0-0.5,0-0.7-0.6-0.5c-4.7,1.4-3.7-12.9-8.5-12c-3.9,0.7-18.6,2.4-22.5,2.9c-2.1,0.3-6.9,2.5-9,2.7
		c-2.1,0.2-2.3,8-4.4,8.1c-4.1,0.2-2.5,3.4,0,3.7c0.6,0.1,2.8,0.7,2.7,1.2c-0.7,3-1.6,5.8-2.8,8.6c-0.6,1.4-1.2,2.7-2.3,4
		c-0.4-1.2-0.6-2.3-0.7-3.4c-1.7,0-2.3,0.6-2.3,2.3c0,1.3,0.2,2.5,0.5,3.7c0.3,1.4,1,2.7,1,4.2c0,0.9,0.9,1.6,1.9,1.4
		c0.5-0.1,0.7,0.1,0.7,0.5c0,0.2,0.1,0.5,0.2,0.7c1.2,4.5,3.4,8.4,7,11.4c2.6,2.1,5.7,3.4,8.9,4.3c0.3,0.1,0.7,0,0.7,0.4
		c0.1,0.7,0.1,1.3,0,2c-0.1,0.4-0.7,0.1-1,0.4c-0.1,0.1-0.2,0.1-0.3,0.2c-0.1,0.4,0.2,0.8,0.2,1.2c0.3,2.4,1.1,4.5,3.1,6.1
		c2.1,1.7,4.5,1.9,7,2c0.8,0,1.8-0.1,2.6-0.3c1.9-0.4,3.6-1.2,4.9-2.7c1.7-1.9,2.1-4.1,2.2-6.5c-0.2-0.1-0.4-0.2-0.6-0.2
		c-0.6,0-0.7-0.2-0.7-0.8c0-1.6,0-1.6,1.4-2c0.2,0,0.3-0.1,0.5-0.1c4.5-1.3,8.4-3.7,11.3-7.5c1.9-2.6,3.1-5.5,3.8-8.6
		c0.1-0.4,0.2-0.5,0.6-0.5c1.2,0.2,2.1-0.5,2.1-1.8c0-0.8,0.2-1.5,0.4-2.2c0.6-1.7,1.1-3.5,1-5.3C510.3,192.8,509.7,191.6,508,191.8
		"/>
	<path fill="#2C2B24" d="M508,191.8c-0.2,1.1-0.5,2.2-0.7,3.4c-0.8-0.8-1.2-1.7-1.7-2.6c-1.8-3.4-3.1-7.1-3.8-10.9
		c-0.3-1.7-0.5-3.4-0.5-5.1c0-0.5,0-0.7-0.6-0.5c-4.7,1.4-4.1-10.1-9-9.2c-3.9,0.7-7.1,0.2-11,0.7c-2.1,0.3-6.3,1.2-8.4,1.4
		c-2.1,0.2-4.1,3.2-6.2,3.3c-0.8,0-2.9,0.1-3.7,0c-0.6-0.1-3.5,9.9-3.6,10.4c-0.7,3-1.6,5.8-2.8,8.6c-0.6,1.4-1.2,2.7-2.3,4
		c-0.4-1.2-2.9,0.1-3.1-1.1c-0.8-5.4-6.5-19.9-5.1-25.3c1.9-7.3,7.8-9.5,14.6-12.7c10.1-4.8,30.5-5.2,40.5,0
		c6.9,3.5,13.9,13.5,15.1,21c0.8,4.8-4.7,12.2-5.5,17C510.3,194.2,508,191.7,508,191.8"/>
	<path fill="#E0B495" d="M467.6,223.7c0,6.1-1.2,11.8-4.9,16.8c-0.7,1-1,1.9-1,3.1c0,11.4,0,22.9,0,34.3c0,0.3,0,0.6,0,0.9
		c-2.2,2.3-4.9,2.6-7.2,0.6c-1-0.8-1.6-1.9-1.6-3.2c-0.1-3.7,0-7.4,0.2-11c0.2-3.6,0.4-7.1,0.8-10.7c0.8-8.2,2.1-16.3,4.7-24.2
		c0.7-2.2,2-3.9,4-4.9C464.2,224.6,465.8,223.9,467.6,223.7"/>
	<path fill="#E0B495" d="M484.3,277.5c0.2,0.4,0.1,0.8,0.1,1.3v9.6c0,0.4-0.1,0.8,0.6,0.7c4.8,0,9.6,0,14.4,0c0,6.8,0,13.5,0,20.3
		c0,0.8,0,1.5,0,2.3c-0.3,0.1-0.6,0.2-1,0.3c-4.7,1-9.4,2-14,3c0-0.4-0.1-0.7-0.1-1.1c0-7.8,0-15.6,0-23.4c0-4,0-8,0-12
		C484.3,278,484.3,277.8,484.3,277.5"/>
	<path fill="#E0B495" d="M461.8,289.1h14.9c0,8.6,0,17.2,0,25.8c-2.9-0.6-5.9-1.2-8.8-1.9c-2-0.4-4.1-0.9-6.1-1.4v-21.5
		C461.8,289.7,461.8,289.4,461.8,289.1"/>
	<path fill="#2C3D52" d="M461.8,311.6c2,0.5,4.1,0.9,6.1,1.4c2.9,0.6,5.9,1.2,8.8,1.9c0.1,1.9,0.1,1.9-1.8,1.9c-5.1,0-10.3,0-15.4,0
		c-0.7,0-0.9-0.1-0.8-0.8C458.9,313.9,459.7,312.3,461.8,311.6"/>
	<path fill="#2C3D52" d="M484.4,314.9c4.7-1,9.3-2,14-3c0.3-0.1,0.7-0.2,1-0.3c2.1,0.8,2.9,2.5,3,4.6c0,0.4,0,0.6-0.5,0.6
		c-5.7,0-11.4,0-17,0c-0.4,0-0.6-0.1-0.5-0.5C484.4,315.8,484.4,315.3,484.4,314.9"/>
	<path fill="none" stroke="#1C1C1C" stroke-linecap="round" stroke-linejoin="round" stroke-miterlimit="10" d="M465.9,207.1
		c0,0,13,11.1,28.7,0"/>
	<path fill="#1F1F1F" d="M475.2,190.8c0,1.9-1.7,3.5-3.8,3.5c-2.1,0-3.8-1.6-3.8-3.5c0-1.9,1.7-3.5,3.8-3.5
		C473.5,187.3,475.2,188.9,475.2,190.8"/>
	<path fill="#1F1F1F" d="M492,190.8c0,1.9-1.7,3.5-3.8,3.5c-2.1,0-3.8-1.6-3.8-3.5c0-1.9,1.7-3.5,3.8-3.5
		C490.3,187.3,492,188.9,492,190.8"/>
	<path fill="#E0B495" d="M546.7,242.4c-4.2-1.2-8.4-2.4-12.5-3.5c-7-2-11-2.3-18-4.3c-1.3-0.4-3.9-0.8-6.6-0.7
		c-3.2,0-5.8,0.3-8.3,1.6c-1.6,0.9-1.4,6.3-3.2,6c-1-0.2-5.1-9.2-4.7-8.3c-1.3-3-1.6-7.1-0.5-9.2c0.5-1,5.4,2.4,6.5,2.3
		c5.3-0.4,10.5-0.1,15.8,0.5c4,0.5,8.1,1.1,12,1.8c2.5,0.5,5,1,7.5,1.6c3.6,0.9,7.3,1.7,10.8,2.7c2.2,0.6,3.7,2,3.9,4.3
		c0.3,2.2-0.7,3.9-2.7,5C546.8,242.2,546.8,242.3,546.7,242.4"/>
	<path fill="#4A6CA2" d="M452.8,242.9c0,0,7.4,2.2,8.9,4.4c0.1,0.2-0.4,22.1,0,17.9v0.4c0,0,19.1,5.8,37.6,0.2l0-24.8l14.7-2.7
		l-3.2-12.1c0,0-7.2-0.7-11.5-0.1c0,0-5-2.5-8.9-3c0,0-8.3,10.9-20,0.2c0,0-10.1,0.4-11.9,7L452.8,242.9z"/>
	<rect x="445.4" y="119.9" fill="none" width="217.9" height="204.2"/>
	<rect x="507.4" y="246.6" fill="#4B87A5" width="73" height="18.3"/>
	<g>
		<defs>
			<rect id="SVGID_3_" x="445.4" y="119.9" width="217.9" height="204.2"/>
		</defs>
		<clipPath id="SVGID_4_">
			<use xlink:href="#SVGID_3_"  overflow="visible"/>
		</clipPath>
		<path clip-path="url(#SVGID_4_)" fill="#FFFFFF" d="M546.5,255.8c0,1.5-1.2,2.6-2.6,2.6c-1.5,0-2.6-1.2-2.6-2.6
			c0-1.5,1.2-2.6,2.6-2.6C545.3,253.1,546.5,254.3,546.5,255.8"/>
	</g>
	<rect x="507.4" y="266.4" fill="#4B87A5" width="73" height="18.3"/>
	<g>
		<defs>
			<rect id="SVGID_5_" x="445.4" y="119.9" width="217.9" height="204.2"/>
		</defs>
		<clipPath id="SVGID_6_">
			<use xlink:href="#SVGID_5_"  overflow="visible"/>
		</clipPath>
		<path clip-path="url(#SVGID_6_)" fill="#FFFFFF" d="M546.5,275.6c0,1.5-1.2,2.6-2.6,2.6c-1.5,0-2.6-1.2-2.6-2.6
			c0-1.5,1.2-2.6,2.6-2.6C545.3,273,546.5,274.1,546.5,275.6"/>
	</g>
	<rect x="507.4" y="286.7" fill="#4B87A5" width="73" height="18.3"/>
	<g>
		<defs>
			<rect id="SVGID_7_" x="445.4" y="119.9" width="217.9" height="204.2"/>
		</defs>
		<clipPath id="SVGID_8_">
			<use xlink:href="#SVGID_7_"  overflow="visible"/>
		</clipPath>
		<path clip-path="url(#SVGID_8_)" fill="#FFFFFF" d="M546.5,295.8c0,1.5-1.2,2.6-2.6,2.6c-1.5,0-2.6-1.2-2.6-2.6
			c0-1.5,1.2-2.6,2.6-2.6C545.3,293.2,546.5,294.4,546.5,295.8"/>
	</g>
	<rect x="582.5" y="246.6" fill="#4B87A5" width="73" height="18.3"/>
	<g>
		<defs>
			<rect id="SVGID_9_" x="445.4" y="119.9" width="217.9" height="204.2"/>
		</defs>
		<clipPath id="SVGID_10_">
			<use xlink:href="#SVGID_9_"  overflow="visible"/>
		</clipPath>
		<path clip-path="url(#SVGID_10_)" fill="#FFFFFF" d="M621.6,255.8c0,1.5-1.2,2.6-2.6,2.6c-1.5,0-2.6-1.2-2.6-2.6
			c0-1.5,1.2-2.6,2.6-2.6C620.4,253.1,621.6,254.3,621.6,255.8"/>
	</g>
	<rect x="582.5" y="266.4" fill="#4B87A5" width="73" height="18.3"/>
	<g>
		<defs>
			<rect id="SVGID_11_" x="445.4" y="119.9" width="217.9" height="204.2"/>
		</defs>
		<clipPath id="SVGID_12_">
			<use xlink:href="#SVGID_11_"  overflow="visible"/>
		</clipPath>
		<path clip-path="url(#SVGID_12_)" fill="#FFFFFF" d="M621.6,275.6c0,1.5-1.2,2.6-2.6,2.6c-1.5,0-2.6-1.2-2.6-2.6
			c0-1.5,1.2-2.6,2.6-2.6C620.4,273,621.6,274.1,621.6,275.6"/>
	</g>
	<rect x="582.5" y="286.7" fill="#4B87A5" width="73" height="18.3"/>
	<g>
		<defs>
			<rect id="SVGID_13_" x="445.4" y="119.9" width="217.9" height="204.2"/>
		</defs>
		<clipPath id="SVGID_14_">
			<use xlink:href="#SVGID_13_"  overflow="visible"/>
		</clipPath>
		<path clip-path="url(#SVGID_14_)" fill="#FFFFFF" d="M621.6,295.8c0,1.5-1.2,2.6-2.6,2.6c-1.5,0-2.6-1.2-2.6-2.6
			c0-1.5,1.2-2.6,2.6-2.6C620.4,293.2,621.6,294.4,621.6,295.8"/>
		<path clip-path="url(#SVGID_14_)" fill="#EC2224" d="M547.6,173.6c0-0.1,0-0.1-0.1-0.1c-1.4-2.9-2.9-5.8-4.4-8.7
			c-0.9-1.7-1.8-3.3-2.6-5c-0.6-1.3-1.2-2.6-1.6-4c-0.5-1.7-0.7-3.4-0.4-5.2c0.1-0.7,0.2-1.4,0.4-2.1c0.2-0.8,0.5-1.6,0.8-2.4
			c1.3-3.2,4.2-5.3,7.7-5.5c0.9,0,1.7,0,2.6,0.3c1.7,0.4,3.1,1.2,4.3,2.4c0.8,0.9,1.5,1.8,2,2.9c0.4,0.8,0.6,1.7,0.8,2.6
			c0,0,0,0.1,0,0.1c0,0,0.1-0.1,0.1-0.1c1.1-0.9,2.4-1.5,3.8-1.9c1.5-0.4,3-0.5,4.4-0.1c0.8,0.2,1.5,0.5,2.2,0.8
			c1.2,0.6,2.3,1.5,3.1,2.7c1.3,1.8,1.8,3.7,1.6,5.9c-0.1,0.9-0.3,1.8-0.6,2.6c-0.3,0.7-0.5,1.3-0.9,1.9c-0.9,1.8-2.1,3.4-3.7,4.6
			c-1,0.7-2,1.3-3.1,1.8c-1.3,0.6-2.5,1.1-3.9,1.6c-2.1,0.8-4.1,1.5-6.2,2.2c-2.2,0.8-4.3,1.6-6.4,2.5
			C547.6,173.6,547.6,173.6,547.6,173.6"/>
		<path clip-path="url(#SVGID_14_)" fill="#EC2224" d="M526,183.5C526,183.5,526,183.5,526,183.5c-0.6-1.4-1.3-2.7-2-3.9
			c-0.4-0.7-0.8-1.5-1.1-2.2c-0.3-0.6-0.5-1.1-0.7-1.8c-0.2-0.8-0.3-1.5-0.2-2.3c0-0.3,0.1-0.6,0.2-0.9c0.1-0.4,0.2-0.7,0.4-1.1
			c0.6-1.4,1.9-2.4,3.4-2.4c0.4,0,0.8,0,1.2,0.1c0.7,0.2,1.4,0.5,1.9,1.1c0.4,0.4,0.7,0.8,0.9,1.3c0.2,0.4,0.3,0.8,0.4,1.2
			c0,0,0,0,0,0.1c0,0,0,0,0,0c0.5-0.4,1.1-0.7,1.7-0.8c0.7-0.2,1.3-0.2,2-0.1c0.3,0.1,0.7,0.2,1,0.4c0.6,0.3,1,0.7,1.4,1.2
			c0.6,0.8,0.8,1.7,0.7,2.6c0,0.4-0.1,0.8-0.3,1.2c-0.1,0.3-0.2,0.6-0.4,0.9c-0.4,0.8-0.9,1.5-1.7,2.1c-0.4,0.3-0.9,0.6-1.4,0.8
			c-0.6,0.3-1.1,0.5-1.7,0.7c-0.9,0.3-1.8,0.7-2.7,1C528,182.8,527,183.1,526,183.5C526.1,183.5,526.1,183.5,526,183.5"/>
		<path clip-path="url(#SVGID_14_)" fill="#EC2224" d="M511.8,146.2c0,0-0.1,0-0.1,0c-2.4-0.9-4.9-1.7-7.4-2.4
			c-1.4-0.4-2.9-0.9-4.3-1.4c-1.1-0.4-2.1-0.8-3.1-1.4c-1.2-0.7-2.3-1.6-3.2-2.7c-0.3-0.4-0.7-0.9-0.9-1.4c-0.3-0.6-0.6-1.2-0.9-1.8
			c-1.1-2.5-0.6-5.4,1.2-7.4c0.5-0.5,1-1,1.6-1.3c1.2-0.7,2.4-1.1,3.8-1.1c1,0,1.9,0.2,2.8,0.5c0.7,0.3,1.3,0.6,1.9,1
			c0,0,0,0,0.1,0.1c0,0,0-0.1,0-0.1c0.2-1.1,0.5-2.2,1.1-3.2c0.6-1.1,1.4-1.9,2.4-2.6c0.5-0.3,1.1-0.6,1.7-0.8
			c1.1-0.3,2.2-0.4,3.3-0.3c1.7,0.3,3.1,1.1,4.2,2.4c0.5,0.6,0.8,1.2,1.1,1.8c0.2,0.5,0.4,1,0.6,1.6c0.5,1.5,0.7,3.1,0.5,4.7
			c-0.1,0.9-0.4,1.9-0.7,2.8c-0.4,1.1-0.8,2.1-1.3,3.1c-0.7,1.6-1.5,3.2-2.2,4.8C513.3,142.8,512.5,144.5,511.8,146.2
			C511.8,146.2,511.8,146.2,511.8,146.2"/>
	</g>
	<rect x="461.8" y="287.3" fill="#112029" width="14.9" height="21.2"/>
	<rect x="484.4" y="288.3" fill="#112029" width="15" height="21"/>
	<line fill="#231F20" x1="126.6" y1="203.9" x2="126.6" y2="252.1"/>
	<g>
		<path fill="#231F20" d="M150,222.6v-14.2h4.1c0.8,0,1.5,0.1,2.1,0.2c0.6,0.2,1.1,0.4,1.5,0.7c0.4,0.3,0.7,0.7,0.9,1.1
			s0.3,1,0.3,1.5c0,0.4-0.1,0.7-0.2,1.1c-0.1,0.3-0.3,0.7-0.6,1s-0.5,0.5-0.9,0.8c-0.4,0.2-0.8,0.4-1.2,0.5c1.1,0.2,2,0.5,2.6,1.1
			c0.6,0.6,0.9,1.3,0.9,2.3c0,0.6-0.1,1.1-0.3,1.6s-0.5,0.9-0.9,1.2s-0.9,0.6-1.5,0.8c-0.6,0.2-1.3,0.3-2,0.3H150z M151,215.1h3.1
			c0.7,0,1.2-0.1,1.7-0.3c0.5-0.2,0.8-0.4,1.1-0.7c0.3-0.3,0.5-0.6,0.7-0.9c0.1-0.3,0.2-0.7,0.2-1.1c0-1-0.3-1.7-0.9-2.2
			c-0.6-0.5-1.5-0.7-2.8-0.7H151V215.1z M151,215.8v6h3.6c1.2,0,2.2-0.3,2.8-0.8c0.6-0.5,1-1.3,1-2.3c0-0.4-0.1-0.9-0.3-1.2
			c-0.2-0.4-0.4-0.7-0.7-0.9c-0.3-0.3-0.7-0.4-1.2-0.6c-0.5-0.1-1-0.2-1.6-0.2H151z"/>
		<path fill="#231F20" d="M162.3,222.6v-10h0.5c0.1,0,0.2,0,0.2,0.1s0.1,0.1,0.1,0.2l0.1,2.1c0.3-0.8,0.7-1.4,1.3-1.9
			c0.5-0.5,1.2-0.7,2-0.7c0.3,0,0.6,0,0.8,0.1s0.5,0.2,0.7,0.3l-0.1,0.7c0,0.1-0.1,0.2-0.2,0.2c0,0-0.1,0-0.2,0
			c-0.1,0-0.2-0.1-0.3-0.1c-0.1,0-0.2-0.1-0.4-0.1c-0.2,0-0.3,0-0.6,0c-0.8,0-1.4,0.2-1.9,0.7s-0.9,1.1-1.2,2v6.5H162.3z"/>
		<path fill="#231F20" d="M172,209.2c0,0.1,0,0.2-0.1,0.3s-0.1,0.2-0.2,0.3s-0.2,0.1-0.3,0.2c-0.1,0-0.2,0.1-0.3,0.1
			c-0.1,0-0.2,0-0.3-0.1c-0.1,0-0.2-0.1-0.3-0.2s-0.1-0.2-0.2-0.3s-0.1-0.2-0.1-0.3s0-0.2,0.1-0.3s0.1-0.2,0.2-0.3s0.2-0.1,0.3-0.2
			c0.1,0,0.2-0.1,0.3-0.1c0.1,0,0.2,0,0.3,0.1c0.1,0,0.2,0.1,0.3,0.2s0.1,0.2,0.2,0.3S172,209.1,172,209.2z M171.5,212.6v10h-1v-10
			H171.5z"/>
		<path fill="#231F20" d="M175.1,222.6v-10h0.5c0.2,0,0.3,0.1,0.3,0.3l0.1,1.5c0.5-0.6,1-1,1.6-1.4c0.6-0.4,1.3-0.5,2-0.5
			c0.5,0,1,0.1,1.4,0.3c0.4,0.2,0.8,0.4,1,0.8c0.3,0.3,0.5,0.7,0.6,1.2c0.1,0.5,0.2,1,0.2,1.6v6.4h-1v-6.4c0-0.9-0.2-1.7-0.6-2.2
			c-0.4-0.5-1.1-0.8-2-0.8c-0.7,0-1.3,0.2-1.8,0.5s-1.1,0.8-1.5,1.4v7.5H175.1z"/>
		<path fill="#231F20" d="M189.2,212.5c0.4,0,0.8,0.1,1.2,0.2c0.4,0.1,0.7,0.3,1,0.5h2.6v0.3c0,0.2-0.1,0.3-0.3,0.3l-1.5,0.1
			c0.2,0.3,0.3,0.5,0.4,0.9c0.1,0.3,0.2,0.7,0.2,1c0,0.5-0.1,0.9-0.3,1.3c-0.2,0.4-0.4,0.7-0.7,1s-0.7,0.5-1.1,0.6
			c-0.4,0.2-0.9,0.2-1.4,0.2c-0.6,0-1.1-0.1-1.6-0.3c-0.3,0.2-0.5,0.4-0.7,0.6c-0.2,0.2-0.2,0.4-0.2,0.6c0,0.3,0.1,0.5,0.3,0.7
			c0.2,0.2,0.5,0.3,0.8,0.3s0.7,0.1,1.1,0.1c0.4,0,0.9,0,1.3,0.1s0.9,0.1,1.3,0.1c0.4,0.1,0.8,0.2,1.1,0.3s0.6,0.4,0.8,0.6
			s0.3,0.6,0.3,1.1c0,0.4-0.1,0.8-0.3,1.2c-0.2,0.4-0.5,0.7-0.9,1s-0.9,0.5-1.4,0.7c-0.6,0.2-1.2,0.3-1.9,0.3
			c-0.7,0-1.3-0.1-1.8-0.2c-0.5-0.1-1-0.3-1.3-0.6s-0.6-0.5-0.8-0.8s-0.3-0.7-0.3-1c0-0.5,0.2-1,0.5-1.4c0.3-0.4,0.8-0.7,1.4-0.9
			c-0.3-0.1-0.6-0.3-0.8-0.5s-0.3-0.5-0.3-0.9c0-0.1,0-0.3,0.1-0.4c0.1-0.2,0.1-0.3,0.2-0.5c0.1-0.2,0.2-0.3,0.4-0.4
			s0.3-0.3,0.5-0.4c-0.5-0.3-0.8-0.6-1.1-1.1c-0.3-0.5-0.4-1-0.4-1.6c0-0.5,0.1-0.9,0.3-1.3c0.2-0.4,0.4-0.7,0.7-1
			c0.3-0.3,0.7-0.5,1.1-0.7C188.2,212.6,188.7,212.5,189.2,212.5z M192.9,223.3c0-0.3-0.1-0.6-0.2-0.8s-0.4-0.3-0.7-0.4
			c-0.3-0.1-0.6-0.2-0.9-0.2s-0.7-0.1-1.1-0.1s-0.8,0-1.2-0.1s-0.8-0.1-1.1-0.1c-0.3,0.1-0.5,0.2-0.7,0.3c-0.2,0.1-0.4,0.3-0.6,0.4
			c-0.2,0.2-0.3,0.3-0.4,0.5c-0.1,0.2-0.1,0.4-0.1,0.6c0,0.3,0.1,0.6,0.2,0.8s0.4,0.5,0.7,0.7c0.3,0.2,0.6,0.3,1.1,0.4
			s0.9,0.2,1.5,0.2c0.5,0,1-0.1,1.4-0.2c0.4-0.1,0.8-0.3,1.1-0.5c0.3-0.2,0.6-0.5,0.8-0.7C192.8,223.9,192.9,223.6,192.9,223.3z
			 M189.2,218.2c0.4,0,0.8-0.1,1.1-0.2c0.3-0.1,0.6-0.3,0.8-0.5c0.2-0.2,0.4-0.5,0.5-0.8c0.1-0.3,0.2-0.6,0.2-1s-0.1-0.7-0.2-1
			s-0.3-0.6-0.5-0.8c-0.2-0.2-0.5-0.4-0.8-0.5c-0.3-0.1-0.7-0.2-1.1-0.2s-0.8,0.1-1.1,0.2c-0.3,0.1-0.6,0.3-0.8,0.5
			c-0.2,0.2-0.4,0.5-0.5,0.8s-0.2,0.7-0.2,1s0.1,0.7,0.2,1c0.1,0.3,0.3,0.6,0.5,0.8s0.5,0.4,0.8,0.5S188.8,218.2,189.2,218.2z"/>
		<path fill="#231F20" d="M197.7,209.2c0,0.1,0,0.2-0.1,0.3s-0.1,0.2-0.2,0.3s-0.2,0.1-0.3,0.2c-0.1,0-0.2,0.1-0.3,0.1
			c-0.1,0-0.2,0-0.3-0.1c-0.1,0-0.2-0.1-0.3-0.2s-0.1-0.2-0.2-0.3s-0.1-0.2-0.1-0.3s0-0.2,0.1-0.3s0.1-0.2,0.2-0.3s0.2-0.1,0.3-0.2
			c0.1,0,0.2-0.1,0.3-0.1c0.1,0,0.2,0,0.3,0.1c0.1,0,0.2,0.1,0.3,0.2s0.1,0.2,0.2,0.3S197.7,209.1,197.7,209.2z M197.3,212.6v10h-1
			v-10H197.3z"/>
		<path fill="#231F20" d="M200.8,222.6v-10h0.5c0.2,0,0.3,0.1,0.3,0.3l0.1,1.5c0.5-0.6,1-1,1.6-1.4c0.6-0.4,1.3-0.5,2-0.5
			c0.5,0,1,0.1,1.4,0.3c0.4,0.2,0.8,0.4,1,0.8c0.3,0.3,0.5,0.7,0.6,1.2c0.1,0.5,0.2,1,0.2,1.6v6.4h-1v-6.4c0-0.9-0.2-1.7-0.6-2.2
			c-0.4-0.5-1.1-0.8-2-0.8c-0.7,0-1.3,0.2-1.8,0.5s-1.1,0.8-1.5,1.4v7.5H200.8z"/>
		<path fill="#231F20" d="M214.9,212.5c0.4,0,0.8,0.1,1.2,0.2c0.4,0.1,0.7,0.3,1,0.5h2.6v0.3c0,0.2-0.1,0.3-0.3,0.3l-1.5,0.1
			c0.2,0.3,0.3,0.5,0.4,0.9c0.1,0.3,0.2,0.7,0.2,1c0,0.5-0.1,0.9-0.3,1.3c-0.2,0.4-0.4,0.7-0.7,1s-0.7,0.5-1.1,0.6
			c-0.4,0.2-0.9,0.2-1.4,0.2c-0.6,0-1.1-0.1-1.6-0.3c-0.3,0.2-0.5,0.4-0.7,0.6c-0.2,0.2-0.2,0.4-0.2,0.6c0,0.3,0.1,0.5,0.3,0.7
			c0.2,0.2,0.5,0.3,0.8,0.3s0.7,0.1,1.1,0.1c0.4,0,0.9,0,1.3,0.1s0.9,0.1,1.3,0.1c0.4,0.1,0.8,0.2,1.1,0.3s0.6,0.4,0.8,0.6
			s0.3,0.6,0.3,1.1c0,0.4-0.1,0.8-0.3,1.2c-0.2,0.4-0.5,0.7-0.9,1s-0.9,0.5-1.4,0.7c-0.6,0.2-1.2,0.3-1.9,0.3
			c-0.7,0-1.3-0.1-1.8-0.2c-0.5-0.1-1-0.3-1.3-0.6s-0.6-0.5-0.8-0.8s-0.3-0.7-0.3-1c0-0.5,0.2-1,0.5-1.4c0.3-0.4,0.8-0.7,1.4-0.9
			c-0.3-0.1-0.6-0.3-0.8-0.5s-0.3-0.5-0.3-0.9c0-0.1,0-0.3,0.1-0.4c0.1-0.2,0.1-0.3,0.2-0.5c0.1-0.2,0.2-0.3,0.4-0.4
			s0.3-0.3,0.5-0.4c-0.5-0.3-0.8-0.6-1.1-1.1c-0.3-0.5-0.4-1-0.4-1.6c0-0.5,0.1-0.9,0.3-1.3c0.2-0.4,0.4-0.7,0.7-1
			c0.3-0.3,0.7-0.5,1.1-0.7C213.9,212.6,214.4,212.5,214.9,212.5z M218.6,223.3c0-0.3-0.1-0.6-0.2-0.8s-0.4-0.3-0.7-0.4
			c-0.3-0.1-0.6-0.2-0.9-0.2s-0.7-0.1-1.1-0.1s-0.8,0-1.2-0.1s-0.8-0.1-1.1-0.1c-0.3,0.1-0.5,0.2-0.7,0.3c-0.2,0.1-0.4,0.3-0.6,0.4
			c-0.2,0.2-0.3,0.3-0.4,0.5c-0.1,0.2-0.1,0.4-0.1,0.6c0,0.3,0.1,0.6,0.2,0.8s0.4,0.5,0.7,0.7c0.3,0.2,0.6,0.3,1.1,0.4
			s0.9,0.2,1.5,0.2c0.5,0,1-0.1,1.4-0.2c0.4-0.1,0.8-0.3,1.1-0.5c0.3-0.2,0.6-0.5,0.8-0.7C218.5,223.9,218.6,223.6,218.6,223.3z
			 M214.9,218.2c0.4,0,0.8-0.1,1.1-0.2c0.3-0.1,0.6-0.3,0.8-0.5c0.2-0.2,0.4-0.5,0.5-0.8c0.1-0.3,0.2-0.6,0.2-1s-0.1-0.7-0.2-1
			s-0.3-0.6-0.5-0.8c-0.2-0.2-0.5-0.4-0.8-0.5c-0.3-0.1-0.7-0.2-1.1-0.2s-0.8,0.1-1.1,0.2c-0.3,0.1-0.6,0.3-0.8,0.5
			c-0.2,0.2-0.4,0.5-0.5,0.8s-0.2,0.7-0.2,1s0.1,0.7,0.2,1c0.1,0.3,0.3,0.6,0.5,0.8s0.5,0.4,0.8,0.5S214.5,218.2,214.9,218.2z"/>
		<path fill="#231F20" d="M225.6,226.1v-13.5h0.5c0.1,0,0.2,0,0.2,0.1c0.1,0,0.1,0.1,0.1,0.2l0.1,1.5c0.4-0.6,1-1.1,1.5-1.4
			c0.6-0.4,1.3-0.5,2-0.5c1.2,0,2.2,0.4,2.9,1.3s1,2.1,1,3.8c0,0.7-0.1,1.4-0.3,2s-0.5,1.2-0.8,1.6c-0.4,0.5-0.8,0.8-1.4,1.1
			s-1.2,0.4-1.9,0.4c-0.7,0-1.3-0.1-1.8-0.4s-0.9-0.6-1.3-1.1v4.9H225.6z M229.8,213.2c-0.7,0-1.3,0.2-1.8,0.5s-1,0.8-1.4,1.4v5.2
			c0.4,0.6,0.8,1,1.3,1.2c0.5,0.2,1,0.4,1.6,0.4c0.6,0,1.1-0.1,1.5-0.3c0.4-0.2,0.8-0.5,1.1-0.9c0.3-0.4,0.5-0.9,0.7-1.4
			c0.2-0.5,0.2-1.1,0.2-1.8c0-1.5-0.3-2.6-0.8-3.3S230.8,213.2,229.8,213.2z"/>
		<path fill="#231F20" d="M240.1,212.5c0.6,0,1.1,0.1,1.6,0.3s0.9,0.5,1.2,0.8c0.4,0.4,0.6,0.8,0.8,1.4c0.2,0.5,0.3,1.2,0.3,1.9
			c0,0.1,0,0.2-0.1,0.3c0,0.1-0.1,0.1-0.2,0.1h-7.2v0.2c0,0.7,0.1,1.4,0.3,2c0.2,0.6,0.4,1,0.7,1.4c0.3,0.4,0.7,0.7,1.2,0.9
			c0.5,0.2,1,0.3,1.5,0.3c0.5,0,0.9-0.1,1.3-0.2s0.7-0.2,0.9-0.4c0.3-0.1,0.4-0.3,0.6-0.4c0.1-0.1,0.3-0.2,0.3-0.2
			c0.1,0,0.2,0,0.2,0.1l0.3,0.3c-0.2,0.2-0.4,0.4-0.6,0.6c-0.3,0.2-0.6,0.3-0.9,0.4c-0.3,0.1-0.7,0.2-1,0.3s-0.7,0.1-1.1,0.1
			c-0.7,0-1.3-0.1-1.9-0.4c-0.6-0.2-1-0.6-1.4-1c-0.4-0.5-0.7-1-0.9-1.7c-0.2-0.7-0.3-1.4-0.3-2.3c0-0.7,0.1-1.4,0.3-2
			c0.2-0.6,0.5-1.1,0.9-1.6c0.4-0.4,0.9-0.8,1.4-1C238.7,212.6,239.4,212.5,240.1,212.5z M240.1,213.2c-0.5,0-1,0.1-1.4,0.2
			c-0.4,0.2-0.8,0.4-1.1,0.7s-0.5,0.7-0.7,1.1s-0.3,0.9-0.4,1.4h6.6c0-0.5-0.1-1-0.2-1.4c-0.1-0.4-0.4-0.8-0.6-1.1
			c-0.3-0.3-0.6-0.5-1-0.7C241,213.3,240.6,213.2,240.1,213.2z"/>
		<path fill="#231F20" d="M250.4,212.5c0.7,0,1.4,0.1,1.9,0.4c0.6,0.2,1,0.6,1.4,1c0.4,0.4,0.7,1,0.9,1.6s0.3,1.3,0.3,2.1
			s-0.1,1.5-0.3,2.1c-0.2,0.6-0.5,1.2-0.9,1.6s-0.9,0.8-1.4,1c-0.6,0.2-1.2,0.4-1.9,0.4s-1.4-0.1-1.9-0.4s-1-0.6-1.4-1
			s-0.7-1-0.9-1.6c-0.2-0.6-0.3-1.3-0.3-2.1s0.1-1.5,0.3-2.1c0.2-0.6,0.5-1.2,0.9-1.6c0.4-0.4,0.9-0.8,1.4-1
			C249,212.6,249.7,212.5,250.4,212.5z M250.4,222c0.6,0,1.1-0.1,1.6-0.3c0.4-0.2,0.8-0.5,1.1-0.9s0.5-0.8,0.7-1.4
			c0.1-0.5,0.2-1.1,0.2-1.8c0-0.7-0.1-1.3-0.2-1.8c-0.1-0.5-0.4-1-0.7-1.4s-0.7-0.7-1.1-0.9c-0.4-0.2-1-0.3-1.6-0.3
			s-1.1,0.1-1.6,0.3c-0.4,0.2-0.8,0.5-1.1,0.9s-0.5,0.8-0.7,1.4c-0.2,0.5-0.2,1.1-0.2,1.8c0,0.7,0.1,1.3,0.2,1.8
			c0.1,0.5,0.4,1,0.7,1.4s0.7,0.7,1.1,0.9C249.3,221.9,249.8,222,250.4,222z"/>
		<path fill="#231F20" d="M257.4,226.1v-13.5h0.5c0.1,0,0.2,0,0.2,0.1c0.1,0,0.1,0.1,0.1,0.2l0.1,1.5c0.4-0.6,1-1.1,1.5-1.4
			c0.6-0.4,1.3-0.5,2-0.5c1.2,0,2.2,0.4,2.9,1.3s1,2.1,1,3.8c0,0.7-0.1,1.4-0.3,2s-0.5,1.2-0.8,1.6c-0.4,0.5-0.8,0.8-1.4,1.1
			s-1.2,0.4-1.9,0.4c-0.7,0-1.3-0.1-1.8-0.4s-0.9-0.6-1.3-1.1v4.9H257.4z M261.6,213.2c-0.7,0-1.3,0.2-1.8,0.5s-1,0.8-1.4,1.4v5.2
			c0.4,0.6,0.8,1,1.3,1.2c0.5,0.2,1,0.4,1.6,0.4c0.6,0,1.1-0.1,1.5-0.3c0.4-0.2,0.8-0.5,1.1-0.9c0.3-0.4,0.5-0.9,0.7-1.4
			c0.2-0.5,0.2-1.1,0.2-1.8c0-1.5-0.3-2.6-0.8-3.3S262.6,213.2,261.6,213.2z"/>
		<path fill="#231F20" d="M269.4,208v14.6h-1V208H269.4z"/>
		<path fill="#231F20" d="M276.7,212.5c0.6,0,1.1,0.1,1.6,0.3s0.9,0.5,1.2,0.8c0.4,0.4,0.6,0.8,0.8,1.4c0.2,0.5,0.3,1.2,0.3,1.9
			c0,0.1,0,0.2-0.1,0.3c0,0.1-0.1,0.1-0.2,0.1h-7.2v0.2c0,0.7,0.1,1.4,0.3,2c0.2,0.6,0.4,1,0.7,1.4c0.3,0.4,0.7,0.7,1.2,0.9
			c0.5,0.2,1,0.3,1.5,0.3c0.5,0,0.9-0.1,1.3-0.2s0.7-0.2,0.9-0.4c0.3-0.1,0.4-0.3,0.6-0.4c0.1-0.1,0.3-0.2,0.3-0.2
			c0.1,0,0.2,0,0.2,0.1l0.3,0.3c-0.2,0.2-0.4,0.4-0.6,0.6c-0.3,0.2-0.6,0.3-0.9,0.4c-0.3,0.1-0.7,0.2-1,0.3s-0.7,0.1-1.1,0.1
			c-0.7,0-1.3-0.1-1.9-0.4c-0.6-0.2-1-0.6-1.4-1c-0.4-0.5-0.7-1-0.9-1.7c-0.2-0.7-0.3-1.4-0.3-2.3c0-0.7,0.1-1.4,0.3-2
			c0.2-0.6,0.5-1.1,0.9-1.6c0.4-0.4,0.9-0.8,1.4-1C275.3,212.6,275.9,212.5,276.7,212.5z M276.7,213.2c-0.5,0-1,0.1-1.4,0.2
			c-0.4,0.2-0.8,0.4-1.1,0.7s-0.5,0.7-0.7,1.1s-0.3,0.9-0.4,1.4h6.6c0-0.5-0.1-1-0.2-1.4c-0.1-0.4-0.4-0.8-0.6-1.1
			c-0.3-0.3-0.6-0.5-1-0.7C277.5,213.3,277.1,213.2,276.7,213.2z"/>
		<path fill="#231F20" d="M295.2,214.7c-0.1,0.1-0.2,0.2-0.3,0.3s-0.2,0.1-0.4,0.1c-0.2,0-0.3,0-0.4-0.1c-0.1-0.1-0.3-0.2-0.4-0.2
			c-0.2-0.1-0.3-0.2-0.5-0.2c-0.2-0.1-0.5-0.1-0.8-0.1c-0.4,0-0.7,0.1-1,0.2c-0.3,0.1-0.5,0.3-0.7,0.6s-0.3,0.6-0.4,1
			c-0.1,0.4-0.1,0.8-0.1,1.3c0,1,0.2,1.8,0.6,2.3c0.4,0.5,0.9,0.8,1.6,0.8c0.4,0,0.6,0,0.9-0.1c0.2-0.1,0.4-0.2,0.5-0.3
			c0.1-0.1,0.3-0.2,0.4-0.3s0.3-0.1,0.5-0.1c0.2,0,0.4,0.1,0.6,0.3l0.9,1.1c-0.3,0.4-0.7,0.7-1,0.9s-0.7,0.4-1.1,0.5
			c-0.4,0.1-0.7,0.2-1.1,0.3c-0.4,0.1-0.7,0.1-1.1,0.1c-0.6,0-1.2-0.1-1.8-0.4c-0.6-0.2-1.1-0.6-1.5-1c-0.4-0.5-0.8-1-1-1.7
			c-0.3-0.7-0.4-1.4-0.4-2.3c0-0.7,0.1-1.4,0.3-2.1c0.2-0.7,0.6-1.2,1-1.7c0.4-0.5,1-0.9,1.6-1.1c0.6-0.3,1.4-0.4,2.2-0.4
			c0.8,0,1.5,0.1,2.1,0.4c0.6,0.3,1.2,0.6,1.7,1.1L295.2,214.7z"/>
		<path fill="#231F20" d="M300.6,207.6v15h-3.1v-15H300.6z"/>
		<path fill="#231F20" d="M307.8,212.1c0.8,0,1.5,0.1,2.2,0.4c0.6,0.2,1.2,0.6,1.7,1.1c0.5,0.5,0.8,1,1.1,1.7
			c0.3,0.7,0.4,1.4,0.4,2.2c0,0.8-0.1,1.6-0.4,2.2c-0.3,0.7-0.6,1.2-1.1,1.7c-0.5,0.5-1,0.8-1.7,1.1c-0.6,0.3-1.4,0.4-2.2,0.4
			c-0.8,0-1.5-0.1-2.2-0.4s-1.2-0.6-1.7-1.1c-0.5-0.5-0.8-1-1.1-1.7c-0.3-0.7-0.4-1.4-0.4-2.2c0-0.8,0.1-1.6,0.4-2.2
			c0.3-0.7,0.6-1.2,1.1-1.7s1-0.8,1.7-1.1C306.2,212.2,307,212.1,307.8,212.1z M307.8,220.5c0.7,0,1.2-0.3,1.6-0.8
			c0.3-0.5,0.5-1.3,0.5-2.3c0-1-0.2-1.8-0.5-2.3c-0.3-0.5-0.9-0.8-1.6-0.8c-0.7,0-1.3,0.3-1.6,0.8s-0.5,1.3-0.5,2.3
			c0,1,0.2,1.8,0.5,2.3S307,220.5,307.8,220.5z"/>
		<path fill="#231F20" d="M321.1,214.5c-0.1,0.1-0.2,0.2-0.3,0.3c-0.1,0.1-0.2,0.1-0.3,0.1c-0.1,0-0.3,0-0.4-0.1
			c-0.1-0.1-0.3-0.1-0.5-0.2c-0.2-0.1-0.4-0.1-0.6-0.2s-0.5-0.1-0.7-0.1c-0.4,0-0.7,0.1-0.9,0.2c-0.2,0.2-0.3,0.4-0.3,0.6
			c0,0.2,0.1,0.4,0.2,0.5s0.3,0.2,0.5,0.3c0.2,0.1,0.5,0.2,0.8,0.3c0.3,0.1,0.6,0.2,0.9,0.3c0.3,0.1,0.6,0.2,0.9,0.4
			c0.3,0.1,0.5,0.3,0.8,0.5c0.2,0.2,0.4,0.5,0.5,0.8c0.1,0.3,0.2,0.7,0.2,1.1c0,0.5-0.1,1-0.3,1.4c-0.2,0.4-0.5,0.8-0.8,1.1
			c-0.4,0.3-0.8,0.6-1.4,0.7c-0.5,0.2-1.2,0.3-1.9,0.3c-0.4,0-0.7,0-1.1-0.1c-0.4-0.1-0.7-0.2-1-0.3c-0.3-0.1-0.6-0.2-0.9-0.4
			c-0.3-0.2-0.5-0.3-0.7-0.5l0.7-1.1c0.1-0.1,0.2-0.2,0.3-0.3s0.3-0.1,0.5-0.1c0.2,0,0.3,0,0.5,0.1s0.3,0.2,0.5,0.3
			c0.2,0.1,0.4,0.2,0.6,0.3c0.2,0.1,0.5,0.1,0.8,0.1c0.2,0,0.4,0,0.6-0.1c0.2-0.1,0.3-0.1,0.4-0.2c0.1-0.1,0.2-0.2,0.2-0.3
			s0.1-0.2,0.1-0.3c0-0.2-0.1-0.4-0.2-0.5c-0.1-0.1-0.3-0.2-0.6-0.3c-0.2-0.1-0.5-0.2-0.8-0.3c-0.3-0.1-0.6-0.2-0.9-0.3
			c-0.3-0.1-0.6-0.2-0.9-0.4s-0.5-0.3-0.8-0.6c-0.2-0.2-0.4-0.5-0.6-0.8c-0.1-0.3-0.2-0.7-0.2-1.2c0-0.4,0.1-0.9,0.3-1.3
			c0.2-0.4,0.4-0.7,0.8-1c0.3-0.3,0.8-0.5,1.3-0.7c0.5-0.2,1.1-0.3,1.8-0.3c0.4,0,0.7,0,1.1,0.1s0.7,0.2,1,0.3
			c0.3,0.1,0.6,0.3,0.8,0.4s0.5,0.3,0.7,0.5L321.1,214.5z"/>
		<path fill="#231F20" d="M328,212.1c0.7,0,1.3,0.1,1.9,0.3s1.1,0.5,1.5,0.9c0.4,0.4,0.7,0.9,1,1.5c0.2,0.6,0.3,1.3,0.3,2
			c0,0.2,0,0.4,0,0.6c0,0.1-0.1,0.3-0.1,0.4s-0.1,0.1-0.2,0.2c-0.1,0-0.2,0.1-0.3,0.1h-6c0.1,0.9,0.4,1.5,0.8,1.9
			c0.4,0.4,1,0.6,1.7,0.6c0.4,0,0.7,0,0.9-0.1c0.3-0.1,0.5-0.2,0.7-0.3c0.2-0.1,0.4-0.2,0.6-0.3c0.2-0.1,0.3-0.1,0.5-0.1
			c0.2,0,0.4,0.1,0.6,0.3l0.9,1.1c-0.3,0.4-0.7,0.7-1,0.9s-0.8,0.4-1.1,0.5s-0.8,0.2-1.2,0.3c-0.4,0.1-0.8,0.1-1.1,0.1
			c-0.7,0-1.4-0.1-2-0.4c-0.6-0.2-1.2-0.6-1.7-1.1c-0.5-0.5-0.9-1-1.1-1.7c-0.3-0.7-0.4-1.5-0.4-2.4c0-0.7,0.1-1.4,0.4-2
			c0.2-0.6,0.6-1.2,1-1.6s1-0.8,1.6-1.1C326.5,212.2,327.2,212.1,328,212.1z M328.1,214.2c-0.6,0-1.1,0.2-1.4,0.5s-0.6,0.8-0.7,1.5
			h3.9c0-0.2,0-0.5-0.1-0.7c-0.1-0.2-0.2-0.4-0.3-0.6c-0.1-0.2-0.3-0.3-0.6-0.4C328.7,214.3,328.4,214.2,328.1,214.2z"/>
		<path fill="#231F20" d="M334.5,222.6v-10.4h1.8c0.2,0,0.3,0,0.4,0c0.1,0,0.2,0.1,0.3,0.1s0.1,0.1,0.2,0.2c0,0.1,0.1,0.2,0.1,0.3
			l0.2,1c0.4-0.6,0.8-1.1,1.3-1.4c0.5-0.3,1-0.5,1.6-0.5c0.5,0,0.9,0.1,1.1,0.3l-0.4,2.3c0,0.1-0.1,0.2-0.2,0.3
			c-0.1,0.1-0.2,0.1-0.3,0.1c-0.1,0-0.2,0-0.4,0c-0.2,0-0.3,0-0.6,0c-0.8,0-1.5,0.4-1.9,1.3v6.4H334.5z"/>
		<path fill="#231F20" d="M152.2,246.8c-0.7,0-1.2-0.2-1.6-0.6c-0.4-0.4-0.6-1-0.6-1.7v-6.8h-1.4c-0.1,0-0.1,0-0.2-0.1
			c0,0-0.1-0.1-0.1-0.2v-0.4l1.7-0.1l0.2-3.6c0-0.1,0-0.1,0.1-0.2c0,0,0.1-0.1,0.2-0.1h0.4v3.8h3.1v0.7H151v6.8c0,0.3,0,0.5,0.1,0.7
			c0.1,0.2,0.2,0.4,0.3,0.5s0.3,0.2,0.4,0.3c0.2,0.1,0.3,0.1,0.5,0.1c0.2,0,0.4,0,0.6-0.1s0.3-0.1,0.5-0.2s0.2-0.2,0.3-0.2
			c0.1-0.1,0.1-0.1,0.2-0.1c0.1,0,0.1,0,0.2,0.1l0.3,0.4c-0.3,0.3-0.6,0.5-1,0.7C153,246.7,152.6,246.8,152.2,246.8z"/>
		<path fill="#231F20" d="M160.4,236.5c0.7,0,1.4,0.1,1.9,0.4c0.6,0.2,1,0.6,1.4,1c0.4,0.4,0.7,1,0.9,1.6s0.3,1.3,0.3,2.1
			s-0.1,1.5-0.3,2.1c-0.2,0.6-0.5,1.2-0.9,1.6s-0.9,0.8-1.4,1c-0.6,0.2-1.2,0.4-1.9,0.4s-1.4-0.1-1.9-0.4s-1-0.6-1.4-1
			s-0.7-1-0.9-1.6c-0.2-0.6-0.3-1.3-0.3-2.1s0.1-1.5,0.3-2.1c0.2-0.6,0.5-1.2,0.9-1.6c0.4-0.4,0.9-0.8,1.4-1
			C159.1,236.7,159.7,236.5,160.4,236.5z M160.4,246c0.6,0,1.1-0.1,1.6-0.3c0.4-0.2,0.8-0.5,1.1-0.9s0.5-0.8,0.7-1.4
			c0.1-0.5,0.2-1.1,0.2-1.8c0-0.7-0.1-1.3-0.2-1.8c-0.1-0.5-0.4-1-0.7-1.4s-0.7-0.7-1.1-0.9c-0.4-0.2-1-0.3-1.6-0.3
			s-1.1,0.1-1.6,0.3c-0.4,0.2-0.8,0.5-1.1,0.9s-0.5,0.8-0.7,1.4c-0.2,0.5-0.2,1.1-0.2,1.8c0,0.7,0.1,1.3,0.2,1.8
			c0.1,0.5,0.4,1,0.7,1.4s0.7,0.7,1.1,0.9C159.3,245.9,159.8,246,160.4,246z"/>
		<path fill="#231F20" d="M174.1,246.8c-0.7,0-1.2-0.2-1.6-0.6c-0.4-0.4-0.6-1-0.6-1.7v-6.8h-1.4c-0.1,0-0.1,0-0.2-0.1
			c0,0-0.1-0.1-0.1-0.2v-0.4l1.7-0.1l0.2-3.6c0-0.1,0-0.1,0.1-0.2c0,0,0.1-0.1,0.2-0.1h0.4v3.8h3.1v0.7h-3.1v6.8
			c0,0.3,0,0.5,0.1,0.7c0.1,0.2,0.2,0.4,0.3,0.5s0.3,0.2,0.4,0.3c0.2,0.1,0.3,0.1,0.5,0.1c0.2,0,0.4,0,0.6-0.1s0.3-0.1,0.5-0.2
			s0.2-0.2,0.3-0.2c0.1-0.1,0.1-0.1,0.2-0.1c0.1,0,0.1,0,0.2,0.1l0.3,0.4c-0.3,0.3-0.6,0.5-1,0.7
			C174.9,246.7,174.5,246.8,174.1,246.8z"/>
		<path fill="#231F20" d="M178.5,246.7v-14.6h1v6.3c0.5-0.6,1-1,1.6-1.4c0.6-0.3,1.3-0.5,2-0.5c0.5,0,1,0.1,1.4,0.3
			c0.4,0.2,0.8,0.4,1,0.8c0.3,0.3,0.5,0.7,0.6,1.2c0.1,0.5,0.2,1,0.2,1.6v6.4h-1v-6.4c0-0.9-0.2-1.7-0.6-2.2c-0.4-0.5-1.1-0.8-2-0.8
			c-0.7,0-1.3,0.2-1.8,0.5s-1.1,0.8-1.5,1.4v7.5H178.5z"/>
		<path fill="#231F20" d="M193.1,236.5c0.6,0,1.1,0.1,1.6,0.3s0.9,0.5,1.2,0.8c0.4,0.4,0.6,0.8,0.8,1.4c0.2,0.5,0.3,1.2,0.3,1.9
			c0,0.1,0,0.2-0.1,0.3c0,0.1-0.1,0.1-0.2,0.1h-7.2v0.2c0,0.7,0.1,1.4,0.3,2c0.2,0.6,0.4,1,0.7,1.4c0.3,0.4,0.7,0.7,1.2,0.9
			c0.5,0.2,1,0.3,1.5,0.3c0.5,0,0.9-0.1,1.3-0.2s0.7-0.2,0.9-0.4c0.3-0.1,0.4-0.3,0.6-0.4c0.1-0.1,0.3-0.2,0.3-0.2
			c0.1,0,0.2,0,0.2,0.1l0.3,0.3c-0.2,0.2-0.4,0.4-0.6,0.6c-0.3,0.2-0.6,0.3-0.9,0.4c-0.3,0.1-0.7,0.2-1,0.3s-0.7,0.1-1.1,0.1
			c-0.7,0-1.3-0.1-1.9-0.4c-0.6-0.2-1-0.6-1.4-1c-0.4-0.5-0.7-1-0.9-1.7c-0.2-0.7-0.3-1.4-0.3-2.3c0-0.7,0.1-1.4,0.3-2
			c0.2-0.6,0.5-1.1,0.9-1.6c0.4-0.4,0.9-0.8,1.4-1C191.8,236.7,192.4,236.5,193.1,236.5z M193.1,237.2c-0.5,0-1,0.1-1.4,0.2
			c-0.4,0.2-0.8,0.4-1.1,0.7s-0.5,0.7-0.7,1.1s-0.3,0.9-0.4,1.4h6.6c0-0.5-0.1-1-0.2-1.4c-0.1-0.4-0.4-0.8-0.6-1.1
			c-0.3-0.3-0.6-0.5-1-0.7C194,237.3,193.6,237.2,193.1,237.2z"/>
		<path fill="#231F20" d="M206.2,246.8c-0.7,0-1.2-0.2-1.6-0.6c-0.4-0.4-0.6-1-0.6-1.7v-6.8h-1.4c-0.1,0-0.1,0-0.2-0.1
			c0,0-0.1-0.1-0.1-0.2v-0.4l1.7-0.1l0.2-3.6c0-0.1,0-0.1,0.1-0.2c0,0,0.1-0.1,0.2-0.1h0.4v3.8h3.1v0.7H205v6.8c0,0.3,0,0.5,0.1,0.7
			c0.1,0.2,0.2,0.4,0.3,0.5s0.3,0.2,0.4,0.3c0.2,0.1,0.3,0.1,0.5,0.1c0.2,0,0.4,0,0.6-0.1s0.3-0.1,0.5-0.2s0.2-0.2,0.3-0.2
			c0.1-0.1,0.1-0.1,0.2-0.1c0.1,0,0.1,0,0.2,0.1l0.3,0.4c-0.3,0.3-0.6,0.5-1,0.7C207,246.7,206.6,246.8,206.2,246.8z"/>
		<path fill="#231F20" d="M210.6,246.7v-14.6h1v6.3c0.5-0.6,1-1,1.6-1.4c0.6-0.3,1.3-0.5,2-0.5c0.5,0,1,0.1,1.4,0.3
			c0.4,0.2,0.8,0.4,1,0.8c0.3,0.3,0.5,0.7,0.6,1.2c0.1,0.5,0.2,1,0.2,1.6v6.4h-1v-6.4c0-0.9-0.2-1.7-0.6-2.2c-0.4-0.5-1.1-0.8-2-0.8
			c-0.7,0-1.3,0.2-1.8,0.5s-1.1,0.8-1.5,1.4v7.5H210.6z"/>
		<path fill="#231F20" d="M223.1,233.3c0,0.1,0,0.2-0.1,0.3s-0.1,0.2-0.2,0.3s-0.2,0.1-0.3,0.2c-0.1,0-0.2,0.1-0.3,0.1
			c-0.1,0-0.2,0-0.3-0.1c-0.1,0-0.2-0.1-0.3-0.2s-0.1-0.2-0.2-0.3s-0.1-0.2-0.1-0.3s0-0.2,0.1-0.3s0.1-0.2,0.2-0.3s0.2-0.1,0.3-0.2
			c0.1,0,0.2-0.1,0.3-0.1c0.1,0,0.2,0,0.3,0.1c0.1,0,0.2,0.1,0.3,0.2s0.1,0.2,0.2,0.3S223.1,233.1,223.1,233.3z M222.7,236.7v10h-1
			v-10H222.7z"/>
		<path fill="#231F20" d="M226.2,246.7v-10h0.5c0.2,0,0.3,0.1,0.3,0.3l0.1,1.5c0.5-0.6,1-1,1.6-1.4c0.6-0.4,1.3-0.5,2-0.5
			c0.5,0,1,0.1,1.4,0.3c0.4,0.2,0.8,0.4,1,0.8c0.3,0.3,0.5,0.7,0.6,1.2c0.1,0.5,0.2,1,0.2,1.6v6.4h-1v-6.4c0-0.9-0.2-1.7-0.6-2.2
			c-0.4-0.5-1.1-0.8-2-0.8c-0.7,0-1.3,0.2-1.8,0.5s-1.1,0.8-1.5,1.4v7.5H226.2z"/>
		<path fill="#231F20" d="M240.3,236.5c0.4,0,0.8,0.1,1.2,0.2c0.4,0.1,0.7,0.3,1,0.5h2.6v0.3c0,0.2-0.1,0.3-0.3,0.3l-1.5,0.1
			c0.2,0.3,0.3,0.5,0.4,0.9c0.1,0.3,0.2,0.7,0.2,1c0,0.5-0.1,0.9-0.3,1.3c-0.2,0.4-0.4,0.7-0.7,1s-0.7,0.5-1.1,0.6
			c-0.4,0.2-0.9,0.2-1.4,0.2c-0.6,0-1.1-0.1-1.6-0.3c-0.3,0.2-0.5,0.4-0.7,0.6c-0.2,0.2-0.2,0.4-0.2,0.6c0,0.3,0.1,0.5,0.3,0.7
			c0.2,0.2,0.5,0.3,0.8,0.3s0.7,0.1,1.1,0.1c0.4,0,0.9,0,1.3,0.1s0.9,0.1,1.3,0.1c0.4,0.1,0.8,0.2,1.1,0.3s0.6,0.4,0.8,0.6
			s0.3,0.6,0.3,1.1c0,0.4-0.1,0.8-0.3,1.2c-0.2,0.4-0.5,0.7-0.9,1s-0.9,0.5-1.4,0.7c-0.6,0.2-1.2,0.3-1.9,0.3
			c-0.7,0-1.3-0.1-1.8-0.2c-0.5-0.1-1-0.3-1.3-0.6s-0.6-0.5-0.8-0.8s-0.3-0.7-0.3-1c0-0.5,0.2-1,0.5-1.4c0.3-0.4,0.8-0.7,1.4-0.9
			c-0.3-0.1-0.6-0.3-0.8-0.5s-0.3-0.5-0.3-0.9c0-0.1,0-0.3,0.1-0.4c0.1-0.2,0.1-0.3,0.2-0.5c0.1-0.2,0.2-0.3,0.4-0.4
			s0.3-0.3,0.5-0.4c-0.5-0.3-0.8-0.6-1.1-1.1c-0.3-0.5-0.4-1-0.4-1.6c0-0.5,0.1-0.9,0.3-1.3c0.2-0.4,0.4-0.7,0.7-1
			c0.3-0.3,0.7-0.5,1.1-0.7C239.3,236.6,239.8,236.5,240.3,236.5z M244,247.3c0-0.3-0.1-0.6-0.2-0.8s-0.4-0.3-0.7-0.4
			c-0.3-0.1-0.6-0.2-0.9-0.2s-0.7-0.1-1.1-0.1s-0.8,0-1.2-0.1s-0.8-0.1-1.1-0.1c-0.3,0.1-0.5,0.2-0.7,0.3c-0.2,0.1-0.4,0.3-0.6,0.4
			c-0.2,0.2-0.3,0.3-0.4,0.5c-0.1,0.2-0.1,0.4-0.1,0.6c0,0.3,0.1,0.6,0.2,0.8s0.4,0.5,0.7,0.7c0.3,0.2,0.6,0.3,1.1,0.4
			s0.9,0.2,1.5,0.2c0.5,0,1-0.1,1.4-0.2c0.4-0.1,0.8-0.3,1.1-0.5c0.3-0.2,0.6-0.5,0.8-0.7C243.9,248,244,247.7,244,247.3z
			 M240.3,242.3c0.4,0,0.8-0.1,1.1-0.2c0.3-0.1,0.6-0.3,0.8-0.5c0.2-0.2,0.4-0.5,0.5-0.8c0.1-0.3,0.2-0.6,0.2-1s-0.1-0.7-0.2-1
			s-0.3-0.6-0.5-0.8c-0.2-0.2-0.5-0.4-0.8-0.5c-0.3-0.1-0.7-0.2-1.1-0.2s-0.8,0.1-1.1,0.2c-0.3,0.1-0.6,0.3-0.8,0.5
			c-0.2,0.2-0.4,0.5-0.5,0.8s-0.2,0.7-0.2,1s0.1,0.7,0.2,1c0.1,0.3,0.3,0.6,0.5,0.8s0.5,0.4,0.8,0.5S239.9,242.3,240.3,242.3z"/>
		<path fill="#231F20" d="M252.7,237.9c0,0.1-0.1,0.1-0.2,0.1c-0.1,0-0.2,0-0.3-0.1s-0.3-0.2-0.5-0.3c-0.2-0.1-0.4-0.2-0.7-0.3
			s-0.6-0.1-1-0.1c-0.4,0-0.7,0.1-1,0.2c-0.3,0.1-0.6,0.2-0.8,0.4c-0.2,0.2-0.4,0.4-0.5,0.6c-0.1,0.2-0.2,0.5-0.2,0.7
			c0,0.3,0.1,0.6,0.2,0.8s0.4,0.4,0.6,0.5c0.3,0.1,0.6,0.3,0.9,0.4c0.3,0.1,0.7,0.2,1,0.3c0.3,0.1,0.7,0.2,1,0.4
			c0.3,0.1,0.6,0.3,0.9,0.5c0.3,0.2,0.5,0.4,0.6,0.7c0.2,0.3,0.2,0.6,0.2,1c0,0.4-0.1,0.8-0.2,1.2s-0.4,0.7-0.7,1
			c-0.3,0.3-0.7,0.5-1.1,0.7c-0.4,0.2-0.9,0.2-1.5,0.2c-0.7,0-1.3-0.1-1.8-0.3s-1-0.5-1.4-0.9l0.2-0.3c0-0.1,0.1-0.1,0.1-0.1
			s0.1,0,0.2,0c0.1,0,0.2,0.1,0.3,0.2s0.3,0.2,0.5,0.3s0.5,0.2,0.8,0.3s0.7,0.2,1.1,0.2c0.4,0,0.8-0.1,1.1-0.2
			c0.3-0.1,0.6-0.3,0.8-0.5c0.2-0.2,0.4-0.4,0.5-0.7c0.1-0.3,0.2-0.6,0.2-0.9c0-0.3-0.1-0.6-0.2-0.8c-0.2-0.2-0.4-0.4-0.6-0.6
			c-0.3-0.2-0.6-0.3-0.9-0.4s-0.7-0.2-1-0.3s-0.7-0.2-1-0.4c-0.3-0.1-0.6-0.3-0.9-0.5s-0.5-0.4-0.6-0.7c-0.2-0.3-0.2-0.6-0.2-1
			c0-0.4,0.1-0.7,0.2-1c0.2-0.3,0.4-0.6,0.7-0.9c0.3-0.2,0.6-0.4,1-0.6c0.4-0.1,0.9-0.2,1.4-0.2c0.6,0,1.1,0.1,1.6,0.3
			s0.9,0.4,1.3,0.8L252.7,237.9z"/>
		<path fill="#231F20" d="M264,246.8c-0.5,0-0.9-0.1-1.3-0.2c-0.4-0.1-0.7-0.3-1-0.6c-0.3-0.3-0.5-0.6-0.6-1
			c-0.1-0.4-0.2-0.8-0.2-1.3v-5.4H260c-0.2,0-0.3-0.1-0.4-0.2c-0.1-0.1-0.2-0.3-0.2-0.5v-1.2l1.7-0.3l0.6-2.5
			c0.1-0.3,0.3-0.5,0.7-0.5h1.6v3h2.5v2.1H264v5.2c0,0.2,0.1,0.4,0.2,0.6c0.1,0.2,0.3,0.2,0.5,0.2c0.1,0,0.2,0,0.3,0
			s0.1-0.1,0.2-0.1c0.1,0,0.1-0.1,0.2-0.1c0,0,0.1,0,0.2,0c0.1,0,0.2,0,0.2,0.1s0.1,0.1,0.2,0.2l0.9,1.5c-0.4,0.3-0.9,0.5-1.4,0.7
			C265,246.8,264.5,246.8,264,246.8z"/>
		<path fill="#231F20" d="M268.3,246.7v-15h3.1v5.5c0.4-0.3,0.8-0.6,1.2-0.8c0.4-0.2,1-0.3,1.6-0.3c0.6,0,1.1,0.1,1.5,0.3
			c0.4,0.2,0.8,0.5,1.1,0.8c0.3,0.4,0.5,0.8,0.7,1.3c0.2,0.5,0.2,1,0.2,1.6v6.6h-3.1v-6.6c0-0.5-0.1-0.9-0.4-1.2
			c-0.2-0.3-0.6-0.4-1-0.4c-0.3,0-0.7,0.1-1,0.2c-0.3,0.1-0.6,0.3-0.9,0.6v7.4H268.3z"/>
		<path fill="#231F20" d="M284.4,236.1c0.7,0,1.3,0.1,1.9,0.3s1.1,0.5,1.5,0.9c0.4,0.4,0.7,0.9,1,1.5c0.2,0.6,0.3,1.3,0.3,2
			c0,0.2,0,0.4,0,0.6c0,0.1-0.1,0.3-0.1,0.4s-0.1,0.1-0.2,0.2c-0.1,0-0.2,0.1-0.3,0.1h-6c0.1,0.9,0.4,1.5,0.8,1.9
			c0.4,0.4,1,0.6,1.7,0.6c0.4,0,0.7,0,0.9-0.1c0.3-0.1,0.5-0.2,0.7-0.3c0.2-0.1,0.4-0.2,0.6-0.3c0.2-0.1,0.3-0.1,0.5-0.1
			c0.2,0,0.4,0.1,0.6,0.3l0.9,1.1c-0.3,0.4-0.7,0.7-1,0.9s-0.8,0.4-1.1,0.5s-0.8,0.2-1.2,0.3c-0.4,0.1-0.8,0.1-1.1,0.1
			c-0.7,0-1.4-0.1-2-0.4c-0.6-0.2-1.2-0.6-1.7-1.1c-0.5-0.5-0.9-1-1.1-1.7c-0.3-0.7-0.4-1.5-0.4-2.4c0-0.7,0.1-1.4,0.4-2
			c0.2-0.6,0.6-1.2,1-1.6s1-0.8,1.6-1.1C282.9,236.3,283.6,236.1,284.4,236.1z M284.5,238.3c-0.6,0-1.1,0.2-1.4,0.5
			s-0.6,0.8-0.7,1.5h3.9c0-0.2,0-0.5-0.1-0.7c-0.1-0.2-0.2-0.4-0.3-0.6c-0.1-0.2-0.3-0.3-0.6-0.4
			C285.1,238.3,284.8,238.3,284.5,238.3z"/>
		<path fill="#231F20" d="M294.7,249.4c-0.1,0.2-0.2,0.4-0.3,0.5s-0.3,0.1-0.6,0.1h-2.3l2-4.2l-4.1-9.5h2.7c0.2,0,0.4,0.1,0.6,0.2
			c0.1,0.1,0.2,0.2,0.3,0.4l1.7,4.5c0.2,0.4,0.3,0.8,0.4,1.2c0.1-0.2,0.1-0.4,0.2-0.6c0.1-0.2,0.2-0.4,0.2-0.6l1.5-4.5
			c0.1-0.2,0.2-0.3,0.3-0.4c0.2-0.1,0.3-0.2,0.5-0.2h2.5L294.7,249.4z"/>
		<path fill="#231F20" d="M310,236.1c0.8,0,1.5,0.1,2.2,0.4c0.6,0.2,1.2,0.6,1.7,1.1c0.5,0.5,0.8,1,1.1,1.7c0.3,0.7,0.4,1.4,0.4,2.2
			c0,0.8-0.1,1.6-0.4,2.2c-0.3,0.7-0.6,1.2-1.1,1.7c-0.5,0.5-1,0.8-1.7,1.1c-0.6,0.3-1.4,0.4-2.2,0.4c-0.8,0-1.5-0.1-2.2-0.4
			s-1.2-0.6-1.7-1.1c-0.5-0.5-0.8-1-1.1-1.7c-0.3-0.7-0.4-1.4-0.4-2.2c0-0.8,0.1-1.6,0.4-2.2c0.3-0.7,0.6-1.2,1.1-1.7s1-0.8,1.7-1.1
			C308.5,236.2,309.2,236.1,310,236.1z M310,244.5c0.7,0,1.2-0.3,1.6-0.8c0.3-0.5,0.5-1.3,0.5-2.3c0-1-0.2-1.8-0.5-2.3
			c-0.3-0.5-0.9-0.8-1.6-0.8c-0.7,0-1.3,0.3-1.6,0.8s-0.5,1.3-0.5,2.3c0,1,0.2,1.8,0.5,2.3S309.3,244.5,310,244.5z"/>
		<path fill="#231F20" d="M315.8,236.3h2.5c0.2,0,0.4,0.1,0.6,0.2s0.3,0.2,0.3,0.4l1,4.7c0.1,0.4,0.2,0.7,0.2,1
			c0.1,0.3,0.1,0.7,0.2,1c0.1-0.3,0.2-0.7,0.3-1c0.1-0.3,0.2-0.7,0.3-1l1.3-4.7c0-0.2,0.1-0.3,0.3-0.4s0.3-0.2,0.5-0.2h1.4
			c0.2,0,0.4,0.1,0.6,0.2s0.3,0.2,0.3,0.4l1.2,4.7c0.1,0.4,0.2,0.7,0.3,1s0.2,0.7,0.3,1c0.1-0.3,0.1-0.7,0.2-1
			c0.1-0.3,0.2-0.7,0.2-1l1.1-4.7c0-0.2,0.1-0.3,0.3-0.4s0.3-0.2,0.5-0.2h2.4l-3.2,10.4h-2.5c-0.1,0-0.2,0-0.3-0.1
			c-0.1-0.1-0.2-0.2-0.2-0.4l-1.5-5.2c-0.1-0.2-0.1-0.5-0.2-0.7c-0.1-0.2-0.1-0.5-0.2-0.7c0,0.2-0.1,0.5-0.2,0.7
			c-0.1,0.2-0.1,0.5-0.2,0.7l-1.5,5.2c-0.1,0.3-0.3,0.5-0.7,0.5h-2.4L315.8,236.3z"/>
		<path fill="#231F20" d="M333.3,246.7v-10.4h1.9c0.2,0,0.4,0,0.5,0.1c0.1,0.1,0.2,0.2,0.3,0.4l0.2,0.6c0.2-0.2,0.4-0.4,0.6-0.5
			c0.2-0.2,0.4-0.3,0.7-0.4c0.2-0.1,0.5-0.2,0.8-0.3c0.3-0.1,0.6-0.1,0.9-0.1c0.6,0,1.1,0.1,1.5,0.3c0.4,0.2,0.8,0.5,1.1,0.8
			c0.3,0.4,0.5,0.8,0.7,1.3c0.2,0.5,0.2,1,0.2,1.6v6.6h-3.1v-6.6c0-0.5-0.1-0.9-0.4-1.2c-0.2-0.3-0.6-0.4-1-0.4
			c-0.3,0-0.7,0.1-1,0.2c-0.3,0.1-0.6,0.3-0.9,0.6v7.4H333.3z"/>
	</g>
</g>
<g id="Layer_5" display="none">
</g>
</svg>
