<?xml version="1.0" encoding="utf-8"?>
<!-- Generator: Adobe Illustrator 18.0.0, SVG Export Plug-In . SVG Version: 6.00 Build 0)  -->
<!DOCTYPE svg PUBLIC "-//W3C//DTD SVG 1.1//EN" "http://www.w3.org/Graphics/SVG/1.1/DTD/svg11.dtd">
<svg version="1.1" id="_x30_" xmlns="http://www.w3.org/2000/svg" xmlns:xlink="http://www.w3.org/1999/xlink" x="0px" y="0px"
	 viewBox="0 -48 800 531" enable-background="new 0 -48 800 531" xml:space="preserve">
<g>
	<defs>
		<rect id="SVGID_1_" x="445.4" y="175.4" width="217.9" height="204.2"/>
	</defs>
	<clipPath id="SVGID_2_">
		<use xlink:href="#SVGID_1_"  overflow="visible"/>
	</clipPath>
	<path clip-path="url(#SVGID_2_)" fill="#616262" d="M519.5,366.7c0,7.1-1.3,12.8-2.9,12.8c-1.6,0-2.9-5.7-2.9-12.8
		c0-7.1,1.3-12.8,2.9-12.8C518.2,353.9,519.5,359.7,519.5,366.7"/>
	<path clip-path="url(#SVGID_2_)" fill="#616262" d="M649.1,366.7c0,7.1-1.3,12.8-2.9,12.8c-1.6,0-2.9-5.7-2.9-12.8
		c0-7.1,1.3-12.8,2.9-12.8C647.8,353.9,649.1,359.7,649.1,366.7"/>
	<path clip-path="url(#SVGID_2_)" fill="#616262" d="M640.5,363.1c0,5.2-1,9.4-2.1,9.4c-1.2,0-2.1-4.2-2.1-9.4c0-5.2,1-9.4,2.1-9.4
		C639.5,353.7,640.5,357.9,640.5,363.1"/>
	<path clip-path="url(#SVGID_2_)" fill="#616262" d="M527.3,363.1c0,5.2-1,9.4-2.1,9.4c-1.2,0-2.1-4.2-2.1-9.4c0-5.2,1-9.4,2.1-9.4
		C526.3,353.7,527.3,357.9,527.3,363.1"/>
</g>
<rect x="499.4" y="297.9" fill="#6CC2DE" width="163.9" height="65.2"/>
<path fill="#112029" d="M499.4,334.4c0,3.4,0,6.8,0,10.1c-4.8,0-9.6,0-14.4,0c-0.6,0-0.6-0.3-0.6-0.7v-9.6c0-0.4,0.1-0.8-0.1-1.3
	c-0.1-1.6-0.9-2.3-2.4-2.6c-1-0.2-1.9-0.1-2.9,0c-1.3,0.2-2,0.9-2.2,2.2c-0.1,0.5-0.1,0.9-0.1,1.4c0,3.5,0,7,0,10.6h-14.9
	c0-3.4,0-6.9-0.1-10.3c0-0.3,0-0.6,0-0.9c0-11.4,0-22.9,0-34.3c0-1.2,0.2-2.1,1-3.1c3.7-5,4.9-10.7,4.9-16.8
	c0.9-0.2,1.9-0.6,2.9-0.4c-0.1,0.4,0.2,0.8,0.2,1.2c0.3,2.4,1.1,4.5,3.1,6.1c2.1,1.7,4.5,1.9,7,2c0.8,0,1.8-0.1,2.6-0.3
	c1.9-0.4,3.6-1.2,4.9-2.7c1.7-1.9,2.1-4.1,2.2-6.5c1,0.2,1.9,0.3,2.9,0.5c0,1,0.1,1.9,0.1,2.9c0.1,1.8,0.4,3.7,0.9,5.4
	c0.8,3.1,1.9,6.1,3.9,8.5c0.9,1.1,1.1,2.2,1.1,3.5c-0.1,7.3,0,14.6,0,21.9C499.4,325.7,499.4,330,499.4,334.4"/>
<path fill="#E0B495" d="M508,247.3c-0.2,1.1-0.5,2.2-0.7,3.4c-0.8-0.8-1.2-1.7-1.7-2.6c-1.8-3.4-3.1-7.1-3.8-10.9
	c-0.3-1.7-0.5-3.4-0.5-5.1c0-0.5,0-0.7-0.6-0.5c-4.7,1.4-3.7-12.9-8.5-12c-3.9,0.7-18.6,2.4-22.5,2.9c-2.1,0.3-6.9,2.5-9,2.7
	c-2.1,0.2-2.3,8-4.4,8.1c-4.1,0.2-2.5,3.4,0,3.7c0.6,0.1,2.8,0.7,2.7,1.2c-0.7,3-1.6,5.8-2.8,8.6c-0.6,1.4-1.2,2.7-2.3,4
	c-0.4-1.2-0.6-2.3-0.7-3.4c-1.7,0-2.3,0.6-2.3,2.3c0,1.3,0.2,2.5,0.5,3.7c0.3,1.4,1,2.7,1,4.2c0,0.9,0.9,1.6,1.9,1.4
	c0.5-0.1,0.7,0.1,0.7,0.5c0,0.2,0.1,0.5,0.2,0.7c1.2,4.5,3.4,8.4,7,11.4c2.6,2.1,5.7,3.4,8.9,4.3c0.3,0.1,0.7,0,0.7,0.4
	c0.1,0.7,0.1,1.3,0,2c-0.1,0.4-0.7,0.1-1,0.4c-0.1,0.1-0.2,0.1-0.3,0.2c-0.1,0.4,0.2,0.8,0.2,1.2c0.3,2.4,1.1,4.5,3.1,6.1
	c2.1,1.7,4.5,1.9,7,2c0.8,0,1.8-0.1,2.6-0.3c1.9-0.4,3.6-1.2,4.9-2.7c1.7-1.9,2.1-4.1,2.2-6.5c-0.2-0.1-0.4-0.2-0.6-0.2
	c-0.6,0-0.7-0.2-0.7-0.8c0-1.6,0-1.6,1.4-2c0.2,0,0.3-0.1,0.5-0.1c4.5-1.3,8.4-3.7,11.3-7.5c1.9-2.6,3.1-5.5,3.8-8.6
	c0.1-0.4,0.2-0.5,0.6-0.5c1.2,0.2,2.1-0.5,2.1-1.8c0-0.8,0.2-1.5,0.4-2.2c0.6-1.7,1.1-3.5,1-5.3C510.3,248.2,509.7,247.1,508,247.3"
	/>
<path fill="#2C2B24" d="M508,247.3c-0.2,1.1-0.5,2.2-0.7,3.4c-0.8-0.8-1.2-1.7-1.7-2.6c-1.8-3.4-3.1-7.1-3.8-10.9
	c-0.3-1.7-0.5-3.4-0.5-5.1c0-0.5,0-0.7-0.6-0.5c-4.7,1.4-4.1-10.1-9-9.2c-3.9,0.7-7.1,0.2-11,0.7c-2.1,0.3-6.3,1.2-8.4,1.4
	c-2.1,0.2-4.1,3.2-6.2,3.3c-0.8,0-2.9,0.1-3.7,0c-0.6-0.1-3.5,9.9-3.6,10.4c-0.7,3-1.6,5.8-2.8,8.6c-0.6,1.4-1.2,2.7-2.3,4
	c-0.4-1.2-2.9,0.1-3.1-1.1c-0.8-5.4-6.5-19.9-5.1-25.3c1.9-7.3,7.8-9.5,14.6-12.7c10.1-4.8,30.5-5.2,40.5,0
	c6.9,3.5,13.9,13.5,15.1,21c0.8,4.8-4.7,12.2-5.5,17C510.3,249.7,508,247.2,508,247.3"/>
<path fill="#E0B495" d="M467.6,279.2c0,6.1-1.2,11.8-4.9,16.8c-0.7,1-1,1.9-1,3.1c0,11.4,0,22.9,0,34.3c0,0.3,0,0.6,0,0.9
	c-2.2,2.3-4.9,2.6-7.2,0.6c-1-0.8-1.6-1.9-1.6-3.2c-0.1-3.7,0-7.4,0.2-11c0.2-3.6,0.4-7.1,0.8-10.7c0.8-8.2,2.1-16.3,4.7-24.2
	c0.7-2.2,2-3.9,4-4.9C464.2,280.1,465.8,279.4,467.6,279.2"/>
<path fill="#E0B495" d="M484.3,332.9c0.2,0.4,0.1,0.8,0.1,1.3v9.6c0,0.4-0.1,0.8,0.6,0.7c4.8,0,9.6,0,14.4,0c0,6.8,0,13.5,0,20.3
	c0,0.8,0,1.5,0,2.3c-0.3,0.1-0.6,0.2-1,0.3c-4.7,1-9.4,2-14,3c0-0.4-0.1-0.7-0.1-1.1c0-7.8,0-15.6,0-23.4c0-4,0-8,0-12
	C484.3,333.5,484.3,333.2,484.3,332.9"/>
<path fill="#E0B495" d="M461.8,344.5h14.9c0,8.6,0,17.2,0,25.8c-2.9-0.6-5.9-1.2-8.8-1.9c-2-0.4-4.1-0.9-6.1-1.4v-21.5
	C461.8,345.2,461.8,344.9,461.8,344.5"/>
<path fill="#2C3D52" d="M461.8,367.1c2,0.5,4.1,0.9,6.1,1.4c2.9,0.6,5.9,1.2,8.8,1.9c0.1,1.9,0.1,1.9-1.8,1.9c-5.1,0-10.3,0-15.4,0
	c-0.7,0-0.9-0.1-0.8-0.8C458.9,369.4,459.7,367.8,461.8,367.1"/>
<path fill="#2C3D52" d="M484.4,370.3c4.7-1,9.3-2,14-3c0.3-0.1,0.7-0.2,1-0.3c2.1,0.8,2.9,2.5,3,4.6c0,0.4,0,0.6-0.5,0.6
	c-5.7,0-11.4,0-17,0c-0.4,0-0.6-0.1-0.5-0.5C484.4,371.2,484.4,370.8,484.4,370.3"/>
<path fill="none" stroke="#1C1C1C" stroke-linecap="round" stroke-linejoin="round" stroke-miterlimit="10" d="M465.9,262.6
	c0,0,13,11.1,28.7,0"/>
<path fill="#1F1F1F" d="M475.2,246.3c0,1.9-1.7,3.5-3.8,3.5c-2.1,0-3.8-1.6-3.8-3.5c0-1.9,1.7-3.5,3.8-3.5
	C473.5,242.8,475.2,244.3,475.2,246.3"/>
<path fill="#1F1F1F" d="M492,246.3c0,1.9-1.7,3.5-3.8,3.5c-2.1,0-3.8-1.6-3.8-3.5c0-1.9,1.7-3.5,3.8-3.5
	C490.3,242.8,492,244.3,492,246.3"/>
<path fill="#E0B495" d="M546.7,297.9c-4.2-1.2-8.4-2.4-12.5-3.5c-7-2-11-2.3-18-4.3c-1.3-0.4-3.9-0.8-6.6-0.7
	c-3.2,0-5.8,0.3-8.3,1.6c-1.6,0.9-1.4,6.3-3.2,6c-1-0.2-5.1-9.2-4.7-8.3c-1.3-3-1.6-7.1-0.5-9.2c0.5-1,5.4,2.4,6.5,2.3
	c5.3-0.4,10.5-0.1,15.8,0.5c4,0.5,8.1,1.1,12,1.8c2.5,0.5,5,1,7.5,1.6c3.6,0.9,7.3,1.7,10.8,2.7c2.2,0.6,3.7,2,3.9,4.3
	c0.3,2.2-0.7,3.9-2.7,5C546.8,297.7,546.8,297.8,546.7,297.9"/>
<path fill="#4A6CA2" d="M452.8,298.4c0,0,7.4,2.2,8.9,4.4c0.1,0.2-0.4,22.1,0,17.9v0.4c0,0,19.1,5.8,37.6,0.2l0-24.8l14.7-2.7
	l-3.2-12.1c0,0-7.2-0.7-11.5-0.1c0,0-5-2.5-8.9-3c0,0-8.3,10.9-20,0.2c0,0-10.1,0.4-11.9,7L452.8,298.4z"/>
<rect x="445.4" y="175.4" fill="none" width="217.9" height="204.2"/>
<rect x="507.4" y="302.1" fill="#4B87A5" width="73" height="18.3"/>
<g>
	<defs>
		<rect id="SVGID_3_" x="445.4" y="175.4" width="217.9" height="204.2"/>
	</defs>
	<clipPath id="SVGID_4_">
		<use xlink:href="#SVGID_3_"  overflow="visible"/>
	</clipPath>
	<path clip-path="url(#SVGID_4_)" fill="#FFFFFF" d="M546.5,311.2c0,1.5-1.2,2.6-2.6,2.6c-1.5,0-2.6-1.2-2.6-2.6
		c0-1.5,1.2-2.6,2.6-2.6C545.3,308.6,546.5,309.8,546.5,311.2"/>
</g>
<rect x="507.4" y="321.9" fill="#4B87A5" width="73" height="18.3"/>
<g>
	<defs>
		<rect id="SVGID_5_" x="445.4" y="175.4" width="217.9" height="204.2"/>
	</defs>
	<clipPath id="SVGID_6_">
		<use xlink:href="#SVGID_5_"  overflow="visible"/>
	</clipPath>
	<path clip-path="url(#SVGID_6_)" fill="#FFFFFF" d="M546.5,331.1c0,1.5-1.2,2.6-2.6,2.6c-1.5,0-2.6-1.2-2.6-2.6
		c0-1.5,1.2-2.6,2.6-2.6C545.3,328.4,546.5,329.6,546.5,331.1"/>
</g>
<rect x="507.4" y="342.1" fill="#4B87A5" width="73" height="18.3"/>
<g>
	<defs>
		<rect id="SVGID_7_" x="445.4" y="175.4" width="217.9" height="204.2"/>
	</defs>
	<clipPath id="SVGID_8_">
		<use xlink:href="#SVGID_7_"  overflow="visible"/>
	</clipPath>
	<path clip-path="url(#SVGID_8_)" fill="#FFFFFF" d="M546.5,351.3c0,1.5-1.2,2.6-2.6,2.6c-1.5,0-2.6-1.2-2.6-2.6
		c0-1.5,1.2-2.6,2.6-2.6C545.3,348.7,546.5,349.8,546.5,351.3"/>
</g>
<rect x="582.5" y="302.1" fill="#4B87A5" width="73" height="18.3"/>
<g>
	<defs>
		<rect id="SVGID_9_" x="445.4" y="175.4" width="217.9" height="204.2"/>
	</defs>
	<clipPath id="SVGID_10_">
		<use xlink:href="#SVGID_9_"  overflow="visible"/>
	</clipPath>
	<path clip-path="url(#SVGID_10_)" fill="#FFFFFF" d="M621.6,311.2c0,1.5-1.2,2.6-2.6,2.6c-1.5,0-2.6-1.2-2.6-2.6
		c0-1.5,1.2-2.6,2.6-2.6C620.4,308.6,621.6,309.8,621.6,311.2"/>
</g>
<rect x="582.5" y="321.9" fill="#4B87A5" width="73" height="18.3"/>
<g>
	<defs>
		<rect id="SVGID_11_" x="445.4" y="175.4" width="217.9" height="204.2"/>
	</defs>
	<clipPath id="SVGID_12_">
		<use xlink:href="#SVGID_11_"  overflow="visible"/>
	</clipPath>
	<path clip-path="url(#SVGID_12_)" fill="#FFFFFF" d="M621.6,331.1c0,1.5-1.2,2.6-2.6,2.6c-1.5,0-2.6-1.2-2.6-2.6
		c0-1.5,1.2-2.6,2.6-2.6C620.4,328.4,621.6,329.6,621.6,331.1"/>
</g>
<rect x="582.5" y="342.1" fill="#4B87A5" width="73" height="18.3"/>
<g>
	<defs>
		<rect id="SVGID_13_" x="445.4" y="175.4" width="217.9" height="204.2"/>
	</defs>
	<clipPath id="SVGID_14_">
		<use xlink:href="#SVGID_13_"  overflow="visible"/>
	</clipPath>
	<path clip-path="url(#SVGID_14_)" fill="#FFFFFF" d="M621.6,351.3c0,1.5-1.2,2.6-2.6,2.6c-1.5,0-2.6-1.2-2.6-2.6
		c0-1.5,1.2-2.6,2.6-2.6C620.4,348.7,621.6,349.8,621.6,351.3"/>
	<path clip-path="url(#SVGID_14_)" fill="#EC2224" d="M547.6,229.1c0-0.1,0-0.1-0.1-0.1c-1.4-2.9-2.9-5.8-4.4-8.7
		c-0.9-1.7-1.8-3.3-2.6-5c-0.6-1.3-1.2-2.6-1.6-4c-0.5-1.7-0.7-3.4-0.4-5.2c0.1-0.7,0.2-1.4,0.4-2.1c0.2-0.8,0.5-1.6,0.8-2.4
		c1.3-3.2,4.2-5.3,7.7-5.5c0.9,0,1.7,0,2.6,0.3c1.7,0.4,3.1,1.2,4.3,2.4c0.8,0.9,1.5,1.8,2,2.9c0.4,0.8,0.6,1.7,0.8,2.6
		c0,0,0,0.1,0,0.1c0,0,0.1-0.1,0.1-0.1c1.1-0.9,2.4-1.5,3.8-1.9c1.5-0.4,3-0.5,4.4-0.1c0.8,0.2,1.5,0.5,2.2,0.8
		c1.2,0.6,2.3,1.5,3.1,2.7c1.3,1.8,1.8,3.7,1.6,5.9c-0.1,0.9-0.3,1.8-0.6,2.6c-0.3,0.7-0.5,1.3-0.9,1.9c-0.9,1.8-2.1,3.4-3.7,4.6
		c-1,0.7-2,1.3-3.1,1.8c-1.3,0.6-2.5,1.1-3.9,1.6c-2.1,0.8-4.1,1.5-6.2,2.2c-2.2,0.8-4.3,1.6-6.4,2.5
		C547.6,229,547.6,229,547.6,229.1"/>
	<path clip-path="url(#SVGID_14_)" fill="#EC2224" d="M526,239C526,239,526,239,526,239c-0.6-1.4-1.3-2.7-2-3.9
		c-0.4-0.7-0.8-1.5-1.1-2.2c-0.3-0.6-0.5-1.1-0.7-1.8c-0.2-0.8-0.3-1.5-0.2-2.3c0-0.3,0.1-0.6,0.2-0.9c0.1-0.4,0.2-0.7,0.4-1.1
		c0.6-1.4,1.9-2.4,3.4-2.4c0.4,0,0.8,0,1.2,0.1c0.7,0.2,1.4,0.5,1.9,1.1c0.4,0.4,0.7,0.8,0.9,1.3c0.2,0.4,0.3,0.8,0.4,1.2
		c0,0,0,0,0,0.1c0,0,0,0,0,0c0.5-0.4,1.1-0.7,1.7-0.8c0.7-0.2,1.3-0.2,2-0.1c0.3,0.1,0.7,0.2,1,0.4c0.6,0.3,1,0.7,1.4,1.2
		c0.6,0.8,0.8,1.7,0.7,2.6c0,0.4-0.1,0.8-0.3,1.2c-0.1,0.3-0.2,0.6-0.4,0.9c-0.4,0.8-0.9,1.5-1.7,2.1c-0.4,0.3-0.9,0.6-1.4,0.8
		c-0.6,0.3-1.1,0.5-1.7,0.7c-0.9,0.3-1.8,0.7-2.7,1C528,238.2,527,238.6,526,239C526.1,239,526.1,239,526,239"/>
	<path clip-path="url(#SVGID_14_)" fill="#EC2224" d="M511.8,201.7c0,0-0.1,0-0.1,0c-2.4-0.9-4.9-1.7-7.4-2.4
		c-1.4-0.4-2.9-0.9-4.3-1.4c-1.1-0.4-2.1-0.8-3.1-1.4c-1.2-0.7-2.3-1.6-3.2-2.7c-0.3-0.4-0.7-0.9-0.9-1.4c-0.3-0.6-0.6-1.2-0.9-1.8
		c-1.1-2.5-0.6-5.4,1.2-7.4c0.5-0.5,1-1,1.6-1.3c1.2-0.7,2.4-1.1,3.8-1.1c1,0,1.9,0.2,2.8,0.5c0.7,0.3,1.3,0.6,1.9,1
		c0,0,0,0,0.1,0.1c0,0,0-0.1,0-0.1c0.2-1.1,0.5-2.2,1.1-3.2c0.6-1.1,1.4-1.9,2.4-2.6c0.5-0.3,1.1-0.6,1.7-0.8
		c1.1-0.3,2.2-0.4,3.3-0.3c1.7,0.3,3.1,1.1,4.2,2.4c0.5,0.6,0.8,1.2,1.1,1.8c0.2,0.5,0.4,1,0.6,1.6c0.5,1.5,0.7,3.1,0.5,4.7
		c-0.1,0.9-0.4,1.9-0.7,2.8c-0.4,1.1-0.8,2.1-1.3,3.1c-0.7,1.6-1.5,3.2-2.2,4.8C513.3,198.3,512.5,199.9,511.8,201.7
		C511.8,201.6,511.8,201.7,511.8,201.7"/>
</g>
<rect x="461.8" y="342.8" fill="#112029" width="14.9" height="21.2"/>
<rect x="484.4" y="343.8" fill="#112029" width="15" height="21"/>
<line fill="#231F20" x1="126.6" y1="259.4" x2="126.6" y2="307.6"/>
<g>
	<path fill="#231F20" d="M150,278.1v-14.2h4.1c0.8,0,1.5,0.1,2.1,0.2c0.6,0.2,1.1,0.4,1.5,0.7c0.4,0.3,0.7,0.7,0.9,1.1
		s0.3,1,0.3,1.5c0,0.4-0.1,0.7-0.2,1.1c-0.1,0.3-0.3,0.7-0.6,1s-0.5,0.5-0.9,0.8c-0.4,0.2-0.8,0.4-1.2,0.5c1.1,0.2,2,0.5,2.6,1.1
		c0.6,0.6,0.9,1.3,0.9,2.3c0,0.6-0.1,1.1-0.3,1.6s-0.5,0.9-0.9,1.2s-0.9,0.6-1.5,0.8c-0.6,0.2-1.3,0.3-2,0.3H150z M151,270.5h3.1
		c0.7,0,1.2-0.1,1.7-0.3c0.5-0.2,0.8-0.4,1.1-0.7c0.3-0.3,0.5-0.6,0.7-0.9c0.1-0.3,0.2-0.7,0.2-1.1c0-1-0.3-1.7-0.9-2.2
		c-0.6-0.5-1.5-0.7-2.8-0.7H151V270.5z M151,271.3v6h3.6c1.2,0,2.2-0.3,2.8-0.8c0.6-0.5,1-1.3,1-2.3c0-0.4-0.1-0.9-0.3-1.2
		c-0.2-0.4-0.4-0.7-0.7-0.9c-0.3-0.3-0.7-0.4-1.2-0.6c-0.5-0.1-1-0.2-1.6-0.2H151z"/>
	<path fill="#231F20" d="M162.3,278.1v-10h0.5c0.1,0,0.2,0,0.2,0.1s0.1,0.1,0.1,0.2l0.1,2.1c0.3-0.8,0.7-1.4,1.3-1.9
		c0.5-0.5,1.2-0.7,2-0.7c0.3,0,0.6,0,0.8,0.1s0.5,0.2,0.7,0.3l-0.1,0.7c0,0.1-0.1,0.2-0.2,0.2c0,0-0.1,0-0.2,0
		c-0.1,0-0.2-0.1-0.3-0.1c-0.1,0-0.2-0.1-0.4-0.1c-0.2,0-0.3,0-0.6,0c-0.8,0-1.4,0.2-1.9,0.7s-0.9,1.1-1.2,2v6.5H162.3z"/>
	<path fill="#231F20" d="M172,264.7c0,0.1,0,0.2-0.1,0.3s-0.1,0.2-0.2,0.3s-0.2,0.1-0.3,0.2c-0.1,0-0.2,0.1-0.3,0.1
		c-0.1,0-0.2,0-0.3-0.1c-0.1,0-0.2-0.1-0.3-0.2s-0.1-0.2-0.2-0.3s-0.1-0.2-0.1-0.3s0-0.2,0.1-0.3s0.1-0.2,0.2-0.3s0.2-0.1,0.3-0.2
		c0.1,0,0.2-0.1,0.3-0.1c0.1,0,0.2,0,0.3,0.1c0.1,0,0.2,0.1,0.3,0.2s0.1,0.2,0.2,0.3S172,264.6,172,264.7z M171.5,268.1v10h-1v-10
		H171.5z"/>
	<path fill="#231F20" d="M175.1,278.1v-10h0.5c0.2,0,0.3,0.1,0.3,0.3l0.1,1.5c0.5-0.6,1-1,1.6-1.4c0.6-0.4,1.3-0.5,2-0.5
		c0.5,0,1,0.1,1.4,0.3c0.4,0.2,0.8,0.4,1,0.8c0.3,0.3,0.5,0.7,0.6,1.2c0.1,0.5,0.2,1,0.2,1.6v6.4h-1v-6.4c0-0.9-0.2-1.7-0.6-2.2
		c-0.4-0.5-1.1-0.8-2-0.8c-0.7,0-1.3,0.2-1.8,0.5s-1.1,0.8-1.5,1.4v7.5H175.1z"/>
	<path fill="#231F20" d="M189.2,267.9c0.4,0,0.8,0.1,1.2,0.2c0.4,0.1,0.7,0.3,1,0.5h2.6v0.3c0,0.2-0.1,0.3-0.3,0.3l-1.5,0.1
		c0.2,0.3,0.3,0.5,0.4,0.9c0.1,0.3,0.2,0.7,0.2,1c0,0.5-0.1,0.9-0.3,1.3c-0.2,0.4-0.4,0.7-0.7,1s-0.7,0.5-1.1,0.6
		c-0.4,0.2-0.9,0.2-1.4,0.2c-0.6,0-1.1-0.1-1.6-0.3c-0.3,0.2-0.5,0.4-0.7,0.6c-0.2,0.2-0.2,0.4-0.2,0.6c0,0.3,0.1,0.5,0.3,0.7
		c0.2,0.2,0.5,0.3,0.8,0.3s0.7,0.1,1.1,0.1c0.4,0,0.9,0,1.3,0.1s0.9,0.1,1.3,0.1c0.4,0.1,0.8,0.2,1.1,0.3s0.6,0.4,0.8,0.6
		s0.3,0.6,0.3,1.1c0,0.4-0.1,0.8-0.3,1.2c-0.2,0.4-0.5,0.7-0.9,1s-0.9,0.5-1.4,0.7c-0.6,0.2-1.2,0.3-1.9,0.3c-0.7,0-1.3-0.1-1.8-0.2
		c-0.5-0.1-1-0.3-1.3-0.6s-0.6-0.5-0.8-0.8s-0.3-0.7-0.3-1c0-0.5,0.2-1,0.5-1.4c0.3-0.4,0.8-0.7,1.4-0.9c-0.3-0.1-0.6-0.3-0.8-0.5
		s-0.3-0.5-0.3-0.9c0-0.1,0-0.3,0.1-0.4c0.1-0.2,0.1-0.3,0.2-0.5c0.1-0.2,0.2-0.3,0.4-0.4s0.3-0.3,0.5-0.4c-0.5-0.3-0.8-0.6-1.1-1.1
		c-0.3-0.5-0.4-1-0.4-1.6c0-0.5,0.1-0.9,0.3-1.3c0.2-0.4,0.4-0.7,0.7-1c0.3-0.3,0.7-0.5,1.1-0.7C188.2,268,188.7,267.9,189.2,267.9z
		 M192.9,278.8c0-0.3-0.1-0.6-0.2-0.8s-0.4-0.3-0.7-0.4c-0.3-0.1-0.6-0.2-0.9-0.2s-0.7-0.1-1.1-0.1s-0.8,0-1.2-0.1s-0.8-0.1-1.1-0.1
		c-0.3,0.1-0.5,0.2-0.7,0.3c-0.2,0.1-0.4,0.3-0.6,0.4c-0.2,0.2-0.3,0.3-0.4,0.5c-0.1,0.2-0.1,0.4-0.1,0.6c0,0.3,0.1,0.6,0.2,0.8
		s0.4,0.5,0.7,0.7c0.3,0.2,0.6,0.3,1.1,0.4s0.9,0.2,1.5,0.2c0.5,0,1-0.1,1.4-0.2c0.4-0.1,0.8-0.3,1.1-0.5c0.3-0.2,0.6-0.5,0.8-0.7
		C192.8,279.4,192.9,279.1,192.9,278.8z M189.2,273.7c0.4,0,0.8-0.1,1.1-0.2c0.3-0.1,0.6-0.3,0.8-0.5c0.2-0.2,0.4-0.5,0.5-0.8
		c0.1-0.3,0.2-0.6,0.2-1s-0.1-0.7-0.2-1s-0.3-0.6-0.5-0.8c-0.2-0.2-0.5-0.4-0.8-0.5c-0.3-0.1-0.7-0.2-1.1-0.2s-0.8,0.1-1.1,0.2
		c-0.3,0.1-0.6,0.3-0.8,0.5c-0.2,0.2-0.4,0.5-0.5,0.8s-0.2,0.7-0.2,1s0.1,0.7,0.2,1c0.1,0.3,0.3,0.6,0.5,0.8s0.5,0.4,0.8,0.5
		S188.8,273.7,189.2,273.7z"/>
	<path fill="#231F20" d="M197.7,264.7c0,0.1,0,0.2-0.1,0.3s-0.1,0.2-0.2,0.3s-0.2,0.1-0.3,0.2c-0.1,0-0.2,0.1-0.3,0.1
		c-0.1,0-0.2,0-0.3-0.1c-0.1,0-0.2-0.1-0.3-0.2s-0.1-0.2-0.2-0.3s-0.1-0.2-0.1-0.3s0-0.2,0.1-0.3s0.1-0.2,0.2-0.3s0.2-0.1,0.3-0.2
		c0.1,0,0.2-0.1,0.3-0.1c0.1,0,0.2,0,0.3,0.1c0.1,0,0.2,0.1,0.3,0.2s0.1,0.2,0.2,0.3S197.7,264.6,197.7,264.7z M197.2,268.1v10h-1
		v-10H197.2z"/>
	<path fill="#231F20" d="M200.8,278.1v-10h0.5c0.2,0,0.3,0.1,0.3,0.3l0.1,1.5c0.5-0.6,1-1,1.6-1.4c0.6-0.4,1.3-0.5,2-0.5
		c0.5,0,1,0.1,1.4,0.3c0.4,0.2,0.8,0.4,1,0.8c0.3,0.3,0.5,0.7,0.6,1.2c0.1,0.5,0.2,1,0.2,1.6v6.4h-1v-6.4c0-0.9-0.2-1.7-0.6-2.2
		c-0.4-0.5-1.1-0.8-2-0.8c-0.7,0-1.3,0.2-1.8,0.5s-1.1,0.8-1.5,1.4v7.5H200.8z"/>
	<path fill="#231F20" d="M214.9,267.9c0.4,0,0.8,0.1,1.2,0.2c0.4,0.1,0.7,0.3,1,0.5h2.6v0.3c0,0.2-0.1,0.3-0.3,0.3l-1.5,0.1
		c0.2,0.3,0.3,0.5,0.4,0.9c0.1,0.3,0.2,0.7,0.2,1c0,0.5-0.1,0.9-0.3,1.3c-0.2,0.4-0.4,0.7-0.7,1s-0.7,0.5-1.1,0.6
		c-0.4,0.2-0.9,0.2-1.4,0.2c-0.6,0-1.1-0.1-1.6-0.3c-0.3,0.2-0.5,0.4-0.7,0.6c-0.2,0.2-0.2,0.4-0.2,0.6c0,0.3,0.1,0.5,0.3,0.7
		c0.2,0.2,0.5,0.3,0.8,0.3s0.7,0.1,1.1,0.1c0.4,0,0.9,0,1.3,0.1s0.9,0.1,1.3,0.1c0.4,0.1,0.8,0.2,1.1,0.3s0.6,0.4,0.8,0.6
		s0.3,0.6,0.3,1.1c0,0.4-0.1,0.8-0.3,1.2c-0.2,0.4-0.5,0.7-0.9,1s-0.9,0.5-1.4,0.7c-0.6,0.2-1.2,0.3-1.9,0.3c-0.7,0-1.3-0.1-1.8-0.2
		c-0.5-0.1-1-0.3-1.3-0.6s-0.6-0.5-0.8-0.8s-0.3-0.7-0.3-1c0-0.5,0.2-1,0.5-1.4c0.3-0.4,0.8-0.7,1.4-0.9c-0.3-0.1-0.6-0.3-0.8-0.5
		s-0.3-0.5-0.3-0.9c0-0.1,0-0.3,0.1-0.4c0.1-0.2,0.1-0.3,0.2-0.5c0.1-0.2,0.2-0.3,0.4-0.4s0.3-0.3,0.5-0.4c-0.5-0.3-0.8-0.6-1.1-1.1
		c-0.3-0.5-0.4-1-0.4-1.6c0-0.5,0.1-0.9,0.3-1.3c0.2-0.4,0.4-0.7,0.7-1c0.3-0.3,0.7-0.5,1.1-0.7C213.9,268,214.4,267.9,214.9,267.9z
		 M218.6,278.8c0-0.3-0.1-0.6-0.2-0.8s-0.4-0.3-0.7-0.4c-0.3-0.1-0.6-0.2-0.9-0.2s-0.7-0.1-1.1-0.1s-0.8,0-1.2-0.1s-0.8-0.1-1.1-0.1
		c-0.3,0.1-0.5,0.2-0.7,0.3c-0.2,0.1-0.4,0.3-0.6,0.4c-0.2,0.2-0.3,0.3-0.4,0.5c-0.1,0.2-0.1,0.4-0.1,0.6c0,0.3,0.1,0.6,0.2,0.8
		s0.4,0.5,0.7,0.7c0.3,0.2,0.6,0.3,1.1,0.4s0.9,0.2,1.5,0.2c0.5,0,1-0.1,1.4-0.2c0.4-0.1,0.8-0.3,1.1-0.5c0.3-0.2,0.6-0.5,0.8-0.7
		C218.5,279.4,218.6,279.1,218.6,278.8z M214.9,273.7c0.4,0,0.8-0.1,1.1-0.2c0.3-0.1,0.6-0.3,0.8-0.5c0.2-0.2,0.4-0.5,0.5-0.8
		c0.1-0.3,0.2-0.6,0.2-1s-0.1-0.7-0.2-1s-0.3-0.6-0.5-0.8c-0.2-0.2-0.5-0.4-0.8-0.5c-0.3-0.1-0.7-0.2-1.1-0.2s-0.8,0.1-1.1,0.2
		c-0.3,0.1-0.6,0.3-0.8,0.5c-0.2,0.2-0.4,0.5-0.5,0.8s-0.2,0.7-0.2,1s0.1,0.7,0.2,1c0.1,0.3,0.3,0.6,0.5,0.8s0.5,0.4,0.8,0.5
		S214.5,273.7,214.9,273.7z"/>
	<path fill="#231F20" d="M225.6,281.6v-13.5h0.5c0.1,0,0.2,0,0.2,0.1c0.1,0,0.1,0.1,0.1,0.2l0.1,1.5c0.4-0.6,1-1.1,1.5-1.4
		c0.6-0.4,1.3-0.5,2-0.5c1.2,0,2.2,0.4,2.9,1.3s1,2.1,1,3.8c0,0.7-0.1,1.4-0.3,2s-0.5,1.2-0.8,1.6c-0.4,0.5-0.8,0.8-1.4,1.1
		s-1.2,0.4-1.9,0.4c-0.7,0-1.3-0.1-1.8-0.4s-0.9-0.6-1.3-1.1v4.9H225.6z M229.8,268.7c-0.7,0-1.3,0.2-1.8,0.5s-1,0.8-1.4,1.4v5.2
		c0.4,0.6,0.8,1,1.3,1.2c0.5,0.2,1,0.4,1.6,0.4c0.6,0,1.1-0.1,1.5-0.3c0.4-0.2,0.8-0.5,1.1-0.9c0.3-0.4,0.5-0.9,0.7-1.4
		c0.2-0.5,0.2-1.1,0.2-1.8c0-1.5-0.3-2.6-0.8-3.3S230.8,268.7,229.8,268.7z"/>
	<path fill="#231F20" d="M240.1,268c0.6,0,1.1,0.1,1.6,0.3s0.9,0.5,1.2,0.8c0.4,0.4,0.6,0.8,0.8,1.4c0.2,0.5,0.3,1.2,0.3,1.9
		c0,0.1,0,0.2-0.1,0.3c0,0.1-0.1,0.1-0.2,0.1h-7.2v0.2c0,0.7,0.1,1.4,0.3,2c0.2,0.6,0.4,1,0.7,1.4c0.3,0.4,0.7,0.7,1.2,0.9
		c0.5,0.2,1,0.3,1.5,0.3c0.5,0,0.9-0.1,1.3-0.2s0.7-0.2,0.9-0.4c0.3-0.1,0.4-0.3,0.6-0.4c0.1-0.1,0.3-0.2,0.3-0.2
		c0.1,0,0.2,0,0.2,0.1l0.3,0.3c-0.2,0.2-0.4,0.4-0.6,0.6c-0.3,0.2-0.6,0.3-0.9,0.4c-0.3,0.1-0.7,0.2-1,0.3s-0.7,0.1-1.1,0.1
		c-0.7,0-1.3-0.1-1.9-0.4c-0.6-0.2-1-0.6-1.4-1c-0.4-0.5-0.7-1-0.9-1.7c-0.2-0.7-0.3-1.4-0.3-2.3c0-0.7,0.1-1.4,0.3-2
		c0.2-0.6,0.5-1.1,0.9-1.6c0.4-0.4,0.9-0.8,1.4-1C238.7,268.1,239.4,268,240.1,268z M240.1,268.7c-0.5,0-1,0.1-1.4,0.2
		c-0.4,0.2-0.8,0.4-1.1,0.7s-0.5,0.7-0.7,1.1s-0.3,0.9-0.4,1.4h6.6c0-0.5-0.1-1-0.2-1.4c-0.1-0.4-0.4-0.8-0.6-1.1
		c-0.3-0.3-0.6-0.5-1-0.7C241,268.7,240.6,268.7,240.1,268.7z"/>
	<path fill="#231F20" d="M250.4,268c0.7,0,1.4,0.1,1.9,0.4c0.6,0.2,1,0.6,1.4,1c0.4,0.4,0.7,1,0.9,1.6s0.3,1.3,0.3,2.1
		s-0.1,1.5-0.3,2.1c-0.2,0.6-0.5,1.2-0.9,1.6s-0.9,0.8-1.4,1c-0.6,0.2-1.2,0.4-1.9,0.4s-1.4-0.1-1.9-0.4s-1-0.6-1.4-1
		s-0.7-1-0.9-1.6c-0.2-0.6-0.3-1.3-0.3-2.1s0.1-1.5,0.3-2.1c0.2-0.6,0.5-1.2,0.9-1.6c0.4-0.4,0.9-0.8,1.4-1
		C249,268.1,249.7,268,250.4,268z M250.4,277.5c0.6,0,1.1-0.1,1.6-0.3c0.4-0.2,0.8-0.5,1.1-0.9s0.5-0.8,0.7-1.4
		c0.1-0.5,0.2-1.1,0.2-1.8c0-0.7-0.1-1.3-0.2-1.8c-0.1-0.5-0.4-1-0.7-1.4s-0.7-0.7-1.1-0.9c-0.4-0.2-1-0.3-1.6-0.3s-1.1,0.1-1.6,0.3
		c-0.4,0.2-0.8,0.5-1.1,0.9s-0.5,0.8-0.7,1.4c-0.2,0.5-0.2,1.1-0.2,1.8c0,0.7,0.1,1.3,0.2,1.8c0.1,0.5,0.4,1,0.7,1.4
		s0.7,0.7,1.1,0.9C249.3,277.4,249.8,277.5,250.4,277.5z"/>
	<path fill="#231F20" d="M257.4,281.6v-13.5h0.5c0.1,0,0.2,0,0.2,0.1c0.1,0,0.1,0.1,0.1,0.2l0.1,1.5c0.4-0.6,1-1.1,1.5-1.4
		c0.6-0.4,1.3-0.5,2-0.5c1.2,0,2.2,0.4,2.9,1.3s1,2.1,1,3.8c0,0.7-0.1,1.4-0.3,2s-0.5,1.2-0.8,1.6c-0.4,0.5-0.8,0.8-1.4,1.1
		s-1.2,0.4-1.9,0.4c-0.7,0-1.3-0.1-1.8-0.4s-0.9-0.6-1.3-1.1v4.9H257.4z M261.6,268.7c-0.7,0-1.3,0.2-1.8,0.5s-1,0.8-1.4,1.4v5.2
		c0.4,0.6,0.8,1,1.3,1.2c0.5,0.2,1,0.4,1.6,0.4c0.6,0,1.1-0.1,1.5-0.3c0.4-0.2,0.8-0.5,1.1-0.9c0.3-0.4,0.5-0.9,0.7-1.4
		c0.2-0.5,0.2-1.1,0.2-1.8c0-1.5-0.3-2.6-0.8-3.3S262.6,268.7,261.6,268.7z"/>
	<path fill="#231F20" d="M269.4,263.5v14.6h-1v-14.6H269.4z"/>
	<path fill="#231F20" d="M276.7,268c0.6,0,1.1,0.1,1.6,0.3s0.9,0.5,1.2,0.8c0.4,0.4,0.6,0.8,0.8,1.4c0.2,0.5,0.3,1.2,0.3,1.9
		c0,0.1,0,0.2-0.1,0.3c0,0.1-0.1,0.1-0.2,0.1h-7.2v0.2c0,0.7,0.1,1.4,0.3,2c0.2,0.6,0.4,1,0.7,1.4c0.3,0.4,0.7,0.7,1.2,0.9
		c0.5,0.2,1,0.3,1.5,0.3c0.5,0,0.9-0.1,1.3-0.2s0.7-0.2,0.9-0.4c0.3-0.1,0.4-0.3,0.6-0.4c0.1-0.1,0.3-0.2,0.3-0.2
		c0.1,0,0.2,0,0.2,0.1l0.3,0.3c-0.2,0.2-0.4,0.4-0.6,0.6c-0.3,0.2-0.6,0.3-0.9,0.4c-0.3,0.1-0.7,0.2-1,0.3s-0.7,0.1-1.1,0.1
		c-0.7,0-1.3-0.1-1.9-0.4c-0.6-0.2-1-0.6-1.4-1c-0.4-0.5-0.7-1-0.9-1.7c-0.2-0.7-0.3-1.4-0.3-2.3c0-0.7,0.1-1.4,0.3-2
		c0.2-0.6,0.5-1.1,0.9-1.6c0.4-0.4,0.9-0.8,1.4-1C275.3,268.1,275.9,268,276.7,268z M276.7,268.7c-0.5,0-1,0.1-1.4,0.2
		c-0.4,0.2-0.8,0.4-1.1,0.7s-0.5,0.7-0.7,1.1s-0.3,0.9-0.4,1.4h6.6c0-0.5-0.1-1-0.2-1.4c-0.1-0.4-0.4-0.8-0.6-1.1
		c-0.3-0.3-0.6-0.5-1-0.7C277.5,268.7,277.1,268.7,276.7,268.7z"/>
	<path fill="#231F20" d="M295.2,270.2c-0.1,0.1-0.2,0.2-0.3,0.3s-0.2,0.1-0.4,0.1c-0.2,0-0.3,0-0.4-0.1c-0.1-0.1-0.3-0.2-0.4-0.2
		c-0.2-0.1-0.3-0.2-0.5-0.2c-0.2-0.1-0.5-0.1-0.8-0.1c-0.4,0-0.7,0.1-1,0.2c-0.3,0.1-0.5,0.3-0.7,0.6s-0.3,0.6-0.4,1
		c-0.1,0.4-0.1,0.8-0.1,1.3c0,1,0.2,1.8,0.6,2.3c0.4,0.5,0.9,0.8,1.6,0.8c0.4,0,0.6,0,0.9-0.1c0.2-0.1,0.4-0.2,0.5-0.3
		c0.1-0.1,0.3-0.2,0.4-0.3s0.3-0.1,0.5-0.1c0.2,0,0.4,0.1,0.6,0.3l0.9,1.1c-0.3,0.4-0.7,0.7-1,0.9s-0.7,0.4-1.1,0.5
		c-0.4,0.1-0.7,0.2-1.1,0.3c-0.4,0.1-0.7,0.1-1.1,0.1c-0.6,0-1.2-0.1-1.8-0.4c-0.6-0.2-1.1-0.6-1.5-1c-0.4-0.5-0.8-1-1-1.7
		c-0.3-0.7-0.4-1.4-0.4-2.3c0-0.7,0.1-1.4,0.3-2.1c0.2-0.7,0.6-1.2,1-1.7c0.4-0.5,1-0.9,1.6-1.1c0.6-0.3,1.4-0.4,2.2-0.4
		c0.8,0,1.5,0.1,2.1,0.4c0.6,0.3,1.2,0.6,1.7,1.1L295.2,270.2z"/>
	<path fill="#231F20" d="M300.6,263.1v15h-3.1v-15H300.6z"/>
	<path fill="#231F20" d="M307.8,267.5c0.8,0,1.5,0.1,2.2,0.4c0.6,0.2,1.2,0.6,1.7,1.1c0.5,0.5,0.8,1,1.1,1.7
		c0.3,0.7,0.4,1.4,0.4,2.2c0,0.8-0.1,1.6-0.4,2.2c-0.3,0.7-0.6,1.2-1.1,1.7c-0.5,0.5-1,0.8-1.7,1.1c-0.6,0.3-1.4,0.4-2.2,0.4
		c-0.8,0-1.5-0.1-2.2-0.4s-1.2-0.6-1.7-1.1c-0.5-0.5-0.8-1-1.1-1.7c-0.3-0.7-0.4-1.4-0.4-2.2c0-0.8,0.1-1.6,0.4-2.2
		c0.3-0.7,0.6-1.2,1.1-1.7s1-0.8,1.7-1.1C306.2,267.7,307,267.5,307.8,267.5z M307.8,275.9c0.7,0,1.2-0.3,1.6-0.8
		c0.3-0.5,0.5-1.3,0.5-2.3c0-1-0.2-1.8-0.5-2.3c-0.3-0.5-0.9-0.8-1.6-0.8c-0.7,0-1.3,0.3-1.6,0.8s-0.5,1.3-0.5,2.3
		c0,1,0.2,1.8,0.5,2.3S307,275.9,307.8,275.9z"/>
	<path fill="#231F20" d="M321.1,270c-0.1,0.1-0.2,0.2-0.3,0.3c-0.1,0.1-0.2,0.1-0.3,0.1c-0.1,0-0.3,0-0.4-0.1
		c-0.1-0.1-0.3-0.1-0.5-0.2c-0.2-0.1-0.4-0.1-0.6-0.2s-0.5-0.1-0.7-0.1c-0.4,0-0.7,0.1-0.9,0.2c-0.2,0.2-0.3,0.4-0.3,0.6
		c0,0.2,0.1,0.4,0.2,0.5s0.3,0.2,0.5,0.3c0.2,0.1,0.5,0.2,0.8,0.3c0.3,0.1,0.6,0.2,0.9,0.3c0.3,0.1,0.6,0.2,0.9,0.4
		c0.3,0.1,0.5,0.3,0.8,0.5c0.2,0.2,0.4,0.5,0.5,0.8c0.1,0.3,0.2,0.7,0.2,1.1c0,0.5-0.1,1-0.3,1.4c-0.2,0.4-0.5,0.8-0.8,1.1
		c-0.4,0.3-0.8,0.6-1.4,0.7c-0.5,0.2-1.2,0.3-1.9,0.3c-0.4,0-0.7,0-1.1-0.1c-0.4-0.1-0.7-0.2-1-0.3c-0.3-0.1-0.6-0.2-0.9-0.4
		c-0.3-0.2-0.5-0.3-0.7-0.5l0.7-1.1c0.1-0.1,0.2-0.2,0.3-0.3s0.3-0.1,0.5-0.1c0.2,0,0.3,0,0.5,0.1s0.3,0.2,0.5,0.3
		c0.2,0.1,0.4,0.2,0.6,0.3c0.2,0.1,0.5,0.1,0.8,0.1c0.2,0,0.4,0,0.6-0.1c0.2-0.1,0.3-0.1,0.4-0.2c0.1-0.1,0.2-0.2,0.2-0.3
		s0.1-0.2,0.1-0.3c0-0.2-0.1-0.4-0.2-0.5c-0.1-0.1-0.3-0.2-0.6-0.3c-0.2-0.1-0.5-0.2-0.8-0.3c-0.3-0.1-0.6-0.2-0.9-0.3
		c-0.3-0.1-0.6-0.2-0.9-0.4s-0.5-0.3-0.8-0.6c-0.2-0.2-0.4-0.5-0.6-0.8c-0.1-0.3-0.2-0.7-0.2-1.2c0-0.4,0.1-0.9,0.3-1.3
		c0.2-0.4,0.4-0.7,0.8-1c0.3-0.3,0.8-0.5,1.3-0.7c0.5-0.2,1.1-0.3,1.8-0.3c0.4,0,0.7,0,1.1,0.1s0.7,0.2,1,0.3
		c0.3,0.1,0.6,0.3,0.8,0.4s0.5,0.3,0.7,0.5L321.1,270z"/>
	<path fill="#231F20" d="M328,267.5c0.7,0,1.3,0.1,1.9,0.3s1.1,0.5,1.5,0.9c0.4,0.4,0.7,0.9,1,1.5c0.2,0.6,0.3,1.3,0.3,2
		c0,0.2,0,0.4,0,0.6c0,0.1-0.1,0.3-0.1,0.4s-0.1,0.1-0.2,0.2c-0.1,0-0.2,0.1-0.3,0.1h-6c0.1,0.9,0.4,1.5,0.8,1.9
		c0.4,0.4,1,0.6,1.7,0.6c0.4,0,0.7,0,0.9-0.1c0.3-0.1,0.5-0.2,0.7-0.3c0.2-0.1,0.4-0.2,0.6-0.3c0.2-0.1,0.3-0.1,0.5-0.1
		c0.2,0,0.4,0.1,0.6,0.3l0.9,1.1c-0.3,0.4-0.7,0.7-1,0.9s-0.8,0.4-1.1,0.5s-0.8,0.2-1.2,0.3c-0.4,0.1-0.8,0.1-1.1,0.1
		c-0.7,0-1.4-0.1-2-0.4c-0.6-0.2-1.2-0.6-1.7-1.1c-0.5-0.5-0.9-1-1.1-1.7c-0.3-0.7-0.4-1.5-0.4-2.4c0-0.7,0.1-1.4,0.4-2
		c0.2-0.6,0.6-1.2,1-1.6s1-0.8,1.6-1.1C326.5,267.7,327.2,267.5,328,267.5z M328.1,269.7c-0.6,0-1.1,0.2-1.4,0.5s-0.6,0.8-0.7,1.5
		h3.9c0-0.2,0-0.5-0.1-0.7c-0.1-0.2-0.2-0.4-0.3-0.6c-0.1-0.2-0.3-0.3-0.6-0.4C328.7,269.7,328.4,269.7,328.1,269.7z"/>
	<path fill="#231F20" d="M334.5,278.1v-10.4h1.8c0.2,0,0.3,0,0.4,0c0.1,0,0.2,0.1,0.3,0.1s0.1,0.1,0.2,0.2c0,0.1,0.1,0.2,0.1,0.3
		l0.2,1c0.4-0.6,0.8-1.1,1.3-1.4c0.5-0.3,1-0.5,1.6-0.5c0.5,0,0.9,0.1,1.1,0.3l-0.4,2.3c0,0.1-0.1,0.2-0.2,0.3
		c-0.1,0.1-0.2,0.1-0.3,0.1c-0.1,0-0.2,0-0.4,0c-0.2,0-0.3,0-0.6,0c-0.8,0-1.5,0.4-1.9,1.3v6.4H334.5z"/>
	<path fill="#231F20" d="M152.2,302.3c-0.7,0-1.2-0.2-1.6-0.6c-0.4-0.4-0.6-1-0.6-1.7v-6.8h-1.4c-0.1,0-0.1,0-0.2-0.1
		c0,0-0.1-0.1-0.1-0.2v-0.4l1.7-0.1l0.2-3.6c0-0.1,0-0.1,0.1-0.2c0,0,0.1-0.1,0.2-0.1h0.4v3.8h3.1v0.7H151v6.8c0,0.3,0,0.5,0.1,0.7
		c0.1,0.2,0.2,0.4,0.3,0.5s0.3,0.2,0.4,0.3c0.2,0.1,0.3,0.1,0.5,0.1c0.2,0,0.4,0,0.6-0.1s0.3-0.1,0.5-0.2s0.2-0.2,0.3-0.2
		c0.1-0.1,0.1-0.1,0.2-0.1c0.1,0,0.1,0,0.2,0.1l0.3,0.4c-0.3,0.3-0.6,0.5-1,0.7C153,302.2,152.6,302.3,152.2,302.3z"/>
	<path fill="#231F20" d="M160.4,292c0.7,0,1.4,0.1,1.9,0.4c0.6,0.2,1,0.6,1.4,1c0.4,0.4,0.7,1,0.9,1.6s0.3,1.3,0.3,2.1
		s-0.1,1.5-0.3,2.1c-0.2,0.6-0.5,1.2-0.9,1.6s-0.9,0.8-1.4,1c-0.6,0.2-1.2,0.4-1.9,0.4s-1.4-0.1-1.9-0.4s-1-0.6-1.4-1
		s-0.7-1-0.9-1.6c-0.2-0.6-0.3-1.3-0.3-2.1s0.1-1.5,0.3-2.1c0.2-0.6,0.5-1.2,0.9-1.6c0.4-0.4,0.9-0.8,1.4-1
		C159.1,292.1,159.7,292,160.4,292z M160.4,301.5c0.6,0,1.1-0.1,1.6-0.3c0.4-0.2,0.8-0.5,1.1-0.9s0.5-0.8,0.7-1.4
		c0.1-0.5,0.2-1.1,0.2-1.8c0-0.7-0.1-1.3-0.2-1.8c-0.1-0.5-0.4-1-0.7-1.4s-0.7-0.7-1.1-0.9c-0.4-0.2-1-0.3-1.6-0.3s-1.1,0.1-1.6,0.3
		c-0.4,0.2-0.8,0.5-1.1,0.9s-0.5,0.8-0.7,1.4c-0.2,0.5-0.2,1.1-0.2,1.8c0,0.7,0.1,1.3,0.2,1.8c0.1,0.5,0.4,1,0.7,1.4
		s0.7,0.7,1.1,0.9C159.3,301.4,159.8,301.5,160.4,301.5z"/>
	<path fill="#231F20" d="M174.1,302.3c-0.7,0-1.2-0.2-1.6-0.6c-0.4-0.4-0.6-1-0.6-1.7v-6.8h-1.4c-0.1,0-0.1,0-0.2-0.1
		c0,0-0.1-0.1-0.1-0.2v-0.4l1.7-0.1l0.2-3.6c0-0.1,0-0.1,0.1-0.2c0,0,0.1-0.1,0.2-0.1h0.4v3.8h3.1v0.7h-3.1v6.8c0,0.3,0,0.5,0.1,0.7
		c0.1,0.2,0.2,0.4,0.3,0.5s0.3,0.2,0.4,0.3c0.2,0.1,0.3,0.1,0.5,0.1c0.2,0,0.4,0,0.6-0.1s0.3-0.1,0.5-0.2s0.2-0.2,0.3-0.2
		c0.1-0.1,0.1-0.1,0.2-0.1c0.1,0,0.1,0,0.2,0.1l0.3,0.4c-0.3,0.3-0.6,0.5-1,0.7C174.9,302.2,174.5,302.3,174.1,302.3z"/>
	<path fill="#231F20" d="M178.5,302.1v-14.6h1v6.3c0.5-0.6,1-1,1.6-1.4c0.6-0.3,1.3-0.5,2-0.5c0.5,0,1,0.1,1.4,0.3
		c0.4,0.2,0.8,0.4,1,0.8c0.3,0.3,0.5,0.7,0.6,1.2c0.1,0.5,0.2,1,0.2,1.6v6.4h-1v-6.4c0-0.9-0.2-1.7-0.6-2.2c-0.4-0.5-1.1-0.8-2-0.8
		c-0.7,0-1.3,0.2-1.8,0.5s-1.1,0.8-1.5,1.4v7.5H178.5z"/>
	<path fill="#231F20" d="M193.1,292c0.6,0,1.1,0.1,1.6,0.3s0.9,0.5,1.2,0.8c0.4,0.4,0.6,0.8,0.8,1.4c0.2,0.5,0.3,1.2,0.3,1.9
		c0,0.1,0,0.2-0.1,0.3c0,0.1-0.1,0.1-0.2,0.1h-7.2v0.2c0,0.7,0.1,1.4,0.3,2c0.2,0.6,0.4,1,0.7,1.4c0.3,0.4,0.7,0.7,1.2,0.9
		c0.5,0.2,1,0.3,1.5,0.3c0.5,0,0.9-0.1,1.3-0.2s0.7-0.2,0.9-0.4c0.3-0.1,0.4-0.3,0.6-0.4c0.1-0.1,0.3-0.2,0.3-0.2
		c0.1,0,0.2,0,0.2,0.1l0.3,0.3c-0.2,0.2-0.4,0.4-0.6,0.6c-0.3,0.2-0.6,0.3-0.9,0.4c-0.3,0.1-0.7,0.2-1,0.3s-0.7,0.1-1.1,0.1
		c-0.7,0-1.3-0.1-1.9-0.4c-0.6-0.2-1-0.6-1.4-1c-0.4-0.5-0.7-1-0.9-1.7c-0.2-0.7-0.3-1.4-0.3-2.3c0-0.7,0.1-1.4,0.3-2
		c0.2-0.6,0.5-1.1,0.9-1.6c0.4-0.4,0.9-0.8,1.4-1C191.8,292.1,192.4,292,193.1,292z M193.1,292.7c-0.5,0-1,0.1-1.4,0.2
		c-0.4,0.2-0.8,0.4-1.1,0.7s-0.5,0.7-0.7,1.1s-0.3,0.9-0.4,1.4h6.6c0-0.5-0.1-1-0.2-1.4c-0.1-0.4-0.4-0.8-0.6-1.1
		c-0.3-0.3-0.6-0.5-1-0.7C194,292.8,193.6,292.7,193.1,292.7z"/>
	<path fill="#231F20" d="M206.2,302.3c-0.7,0-1.2-0.2-1.6-0.6c-0.4-0.4-0.6-1-0.6-1.7v-6.8h-1.4c-0.1,0-0.1,0-0.2-0.1
		c0,0-0.1-0.1-0.1-0.2v-0.4l1.7-0.1l0.2-3.6c0-0.1,0-0.1,0.1-0.2c0,0,0.1-0.1,0.2-0.1h0.4v3.8h3.1v0.7H205v6.8c0,0.3,0,0.5,0.1,0.7
		c0.1,0.2,0.2,0.4,0.3,0.5s0.3,0.2,0.4,0.3c0.2,0.1,0.3,0.1,0.5,0.1c0.2,0,0.4,0,0.6-0.1s0.3-0.1,0.5-0.2s0.2-0.2,0.3-0.2
		c0.1-0.1,0.1-0.1,0.2-0.1c0.1,0,0.1,0,0.2,0.1l0.3,0.4c-0.3,0.3-0.6,0.5-1,0.7C207,302.2,206.6,302.3,206.2,302.3z"/>
	<path fill="#231F20" d="M210.6,302.1v-14.6h1v6.3c0.5-0.6,1-1,1.6-1.4c0.6-0.3,1.3-0.5,2-0.5c0.5,0,1,0.1,1.4,0.3
		c0.4,0.2,0.8,0.4,1,0.8c0.3,0.3,0.5,0.7,0.6,1.2c0.1,0.5,0.2,1,0.2,1.6v6.4h-1v-6.4c0-0.9-0.2-1.7-0.6-2.2c-0.4-0.5-1.1-0.8-2-0.8
		c-0.7,0-1.3,0.2-1.8,0.5s-1.1,0.8-1.5,1.4v7.5H210.6z"/>
	<path fill="#231F20" d="M223.1,288.7c0,0.1,0,0.2-0.1,0.3s-0.1,0.2-0.2,0.3s-0.2,0.1-0.3,0.2c-0.1,0-0.2,0.1-0.3,0.1
		c-0.1,0-0.2,0-0.3-0.1c-0.1,0-0.2-0.1-0.3-0.2s-0.1-0.2-0.2-0.3s-0.1-0.2-0.1-0.3s0-0.2,0.1-0.3s0.1-0.2,0.2-0.3s0.2-0.1,0.3-0.2
		c0.1,0,0.2-0.1,0.3-0.1c0.1,0,0.2,0,0.3,0.1c0.1,0,0.2,0.1,0.3,0.2s0.1,0.2,0.2,0.3S223.1,288.6,223.1,288.7z M222.7,292.2v10h-1
		v-10H222.7z"/>
	<path fill="#231F20" d="M226.2,302.1v-10h0.5c0.2,0,0.3,0.1,0.3,0.3l0.1,1.5c0.5-0.6,1-1,1.6-1.4c0.6-0.4,1.3-0.5,2-0.5
		c0.5,0,1,0.1,1.4,0.3c0.4,0.2,0.8,0.4,1,0.8c0.3,0.3,0.5,0.7,0.6,1.2c0.1,0.5,0.2,1,0.2,1.6v6.4h-1v-6.4c0-0.9-0.2-1.7-0.6-2.2
		c-0.4-0.5-1.1-0.8-2-0.8c-0.7,0-1.3,0.2-1.8,0.5s-1.1,0.8-1.5,1.4v7.5H226.2z"/>
	<path fill="#231F20" d="M240.3,292c0.4,0,0.8,0.1,1.2,0.2c0.4,0.1,0.7,0.3,1,0.5h2.6v0.3c0,0.2-0.1,0.3-0.3,0.3l-1.5,0.1
		c0.2,0.3,0.3,0.5,0.4,0.9c0.1,0.3,0.2,0.7,0.2,1c0,0.5-0.1,0.9-0.3,1.3c-0.2,0.4-0.4,0.7-0.7,1s-0.7,0.5-1.1,0.6
		c-0.4,0.2-0.9,0.2-1.4,0.2c-0.6,0-1.1-0.1-1.6-0.3c-0.3,0.2-0.5,0.4-0.7,0.6c-0.2,0.2-0.2,0.4-0.2,0.6c0,0.3,0.1,0.5,0.3,0.7
		c0.2,0.2,0.5,0.3,0.8,0.3s0.7,0.1,1.1,0.1c0.4,0,0.9,0,1.3,0.1s0.9,0.1,1.3,0.1c0.4,0.1,0.8,0.2,1.1,0.3s0.6,0.4,0.8,0.6
		s0.3,0.6,0.3,1.1c0,0.4-0.1,0.8-0.3,1.2c-0.2,0.4-0.5,0.7-0.9,1s-0.9,0.5-1.4,0.7c-0.6,0.2-1.2,0.3-1.9,0.3c-0.7,0-1.3-0.1-1.8-0.2
		c-0.5-0.1-1-0.3-1.3-0.6s-0.6-0.5-0.8-0.8s-0.3-0.7-0.3-1c0-0.5,0.2-1,0.5-1.4c0.3-0.4,0.8-0.7,1.4-0.9c-0.3-0.1-0.6-0.3-0.8-0.5
		s-0.3-0.5-0.3-0.9c0-0.1,0-0.3,0.1-0.4c0.1-0.2,0.1-0.3,0.2-0.5c0.1-0.2,0.2-0.3,0.4-0.4s0.3-0.3,0.5-0.4c-0.5-0.3-0.8-0.6-1.1-1.1
		c-0.3-0.5-0.4-1-0.4-1.6c0-0.5,0.1-0.9,0.3-1.3c0.2-0.4,0.4-0.7,0.7-1c0.3-0.3,0.7-0.5,1.1-0.7C239.3,292.1,239.8,292,240.3,292z
		 M244,302.8c0-0.3-0.1-0.6-0.2-0.8s-0.4-0.3-0.7-0.4c-0.3-0.1-0.6-0.2-0.9-0.2s-0.7-0.1-1.1-0.1s-0.8,0-1.2-0.1s-0.8-0.1-1.1-0.1
		c-0.3,0.1-0.5,0.2-0.7,0.3c-0.2,0.1-0.4,0.3-0.6,0.4c-0.2,0.2-0.3,0.3-0.4,0.5c-0.1,0.2-0.1,0.4-0.1,0.6c0,0.3,0.1,0.6,0.2,0.8
		s0.4,0.5,0.7,0.7c0.3,0.2,0.6,0.3,1.1,0.4s0.9,0.2,1.5,0.2c0.5,0,1-0.1,1.4-0.2c0.4-0.1,0.8-0.3,1.1-0.5c0.3-0.2,0.6-0.5,0.8-0.7
		C243.9,303.5,244,303.2,244,302.8z M240.3,297.7c0.4,0,0.8-0.1,1.1-0.2c0.3-0.1,0.6-0.3,0.8-0.5c0.2-0.2,0.4-0.5,0.5-0.8
		c0.1-0.3,0.2-0.6,0.2-1s-0.1-0.7-0.2-1s-0.3-0.6-0.5-0.8c-0.2-0.2-0.5-0.4-0.8-0.5c-0.3-0.1-0.7-0.2-1.1-0.2s-0.8,0.1-1.1,0.2
		c-0.3,0.1-0.6,0.3-0.8,0.5c-0.2,0.2-0.4,0.5-0.5,0.8s-0.2,0.7-0.2,1s0.1,0.7,0.2,1c0.1,0.3,0.3,0.6,0.5,0.8s0.5,0.4,0.8,0.5
		S239.9,297.7,240.3,297.7z"/>
	<path fill="#231F20" d="M252.7,293.4c0,0.1-0.1,0.1-0.2,0.1c-0.1,0-0.2,0-0.3-0.1s-0.3-0.2-0.5-0.3c-0.2-0.1-0.4-0.2-0.7-0.3
		s-0.6-0.1-1-0.1c-0.4,0-0.7,0.1-1,0.2c-0.3,0.1-0.6,0.2-0.8,0.4c-0.2,0.2-0.4,0.4-0.5,0.6c-0.1,0.2-0.2,0.5-0.2,0.7
		c0,0.3,0.1,0.6,0.2,0.8s0.4,0.4,0.6,0.5c0.3,0.1,0.6,0.3,0.9,0.4c0.3,0.1,0.7,0.2,1,0.3c0.3,0.1,0.7,0.2,1,0.4
		c0.3,0.1,0.6,0.3,0.9,0.5c0.3,0.2,0.5,0.4,0.6,0.7c0.2,0.3,0.2,0.6,0.2,1c0,0.4-0.1,0.8-0.2,1.2s-0.4,0.7-0.7,1
		c-0.3,0.3-0.7,0.5-1.1,0.7c-0.4,0.2-0.9,0.2-1.5,0.2c-0.7,0-1.3-0.1-1.8-0.3s-1-0.5-1.4-0.9l0.2-0.3c0-0.1,0.1-0.1,0.1-0.1
		s0.1,0,0.2,0c0.1,0,0.2,0.1,0.3,0.2s0.3,0.2,0.5,0.3s0.5,0.2,0.8,0.3s0.7,0.2,1.1,0.2c0.4,0,0.8-0.1,1.1-0.2
		c0.3-0.1,0.6-0.3,0.8-0.5c0.2-0.2,0.4-0.4,0.5-0.7c0.1-0.3,0.2-0.6,0.2-0.9c0-0.3-0.1-0.6-0.2-0.8c-0.2-0.2-0.4-0.4-0.6-0.6
		c-0.3-0.2-0.6-0.3-0.9-0.4s-0.7-0.2-1-0.3s-0.7-0.2-1-0.4c-0.3-0.1-0.6-0.3-0.9-0.5s-0.5-0.4-0.6-0.7c-0.2-0.3-0.2-0.6-0.2-1
		c0-0.4,0.1-0.7,0.2-1c0.2-0.3,0.4-0.6,0.7-0.9c0.3-0.2,0.6-0.4,1-0.6c0.4-0.1,0.9-0.2,1.4-0.2c0.6,0,1.1,0.1,1.6,0.3
		s0.9,0.4,1.3,0.8L252.7,293.4z"/>
	<path fill="#231F20" d="M264,302.3c-0.5,0-0.9-0.1-1.3-0.2c-0.4-0.1-0.7-0.3-1-0.6c-0.3-0.3-0.5-0.6-0.6-1
		c-0.1-0.4-0.2-0.8-0.2-1.3v-5.4H260c-0.2,0-0.3-0.1-0.4-0.2c-0.1-0.1-0.2-0.3-0.2-0.5v-1.2l1.7-0.3l0.6-2.5
		c0.1-0.3,0.3-0.5,0.7-0.5h1.6v3h2.5v2.1H264v5.2c0,0.2,0.1,0.4,0.2,0.6c0.1,0.2,0.3,0.2,0.5,0.2c0.1,0,0.2,0,0.3,0s0.1-0.1,0.2-0.1
		c0.1,0,0.1-0.1,0.2-0.1c0,0,0.1,0,0.2,0c0.1,0,0.2,0,0.2,0.1s0.1,0.1,0.2,0.2l0.9,1.5c-0.4,0.3-0.9,0.5-1.4,0.7
		C265,302.2,264.5,302.3,264,302.3z"/>
	<path fill="#231F20" d="M268.3,302.1v-15h3.1v5.5c0.4-0.3,0.8-0.6,1.2-0.8c0.4-0.2,1-0.3,1.6-0.3c0.6,0,1.1,0.1,1.5,0.3
		c0.4,0.2,0.8,0.5,1.1,0.8c0.3,0.4,0.5,0.8,0.7,1.3c0.2,0.5,0.2,1,0.2,1.6v6.6h-3.1v-6.6c0-0.5-0.1-0.9-0.4-1.2
		c-0.2-0.3-0.6-0.4-1-0.4c-0.3,0-0.7,0.1-1,0.2c-0.3,0.1-0.6,0.3-0.9,0.6v7.4H268.3z"/>
	<path fill="#231F20" d="M284.4,291.6c0.7,0,1.3,0.1,1.9,0.3s1.1,0.5,1.5,0.9c0.4,0.4,0.7,0.9,1,1.5c0.2,0.6,0.3,1.3,0.3,2
		c0,0.2,0,0.4,0,0.6c0,0.1-0.1,0.3-0.1,0.4s-0.1,0.1-0.2,0.2c-0.1,0-0.2,0.1-0.3,0.1h-6c0.1,0.9,0.4,1.5,0.8,1.9
		c0.4,0.4,1,0.6,1.7,0.6c0.4,0,0.7,0,0.9-0.1c0.3-0.1,0.5-0.2,0.7-0.3c0.2-0.1,0.4-0.2,0.6-0.3c0.2-0.1,0.3-0.1,0.5-0.1
		c0.2,0,0.4,0.1,0.6,0.3l0.9,1.1c-0.3,0.4-0.7,0.7-1,0.9s-0.8,0.4-1.1,0.5s-0.8,0.2-1.2,0.3c-0.4,0.1-0.8,0.1-1.1,0.1
		c-0.7,0-1.4-0.1-2-0.4c-0.6-0.2-1.2-0.6-1.7-1.1c-0.5-0.5-0.9-1-1.1-1.7c-0.3-0.7-0.4-1.5-0.4-2.4c0-0.7,0.1-1.4,0.4-2
		c0.2-0.6,0.6-1.2,1-1.6s1-0.8,1.6-1.1C282.9,291.7,283.6,291.6,284.4,291.6z M284.5,293.7c-0.6,0-1.1,0.2-1.4,0.5s-0.6,0.8-0.7,1.5
		h3.9c0-0.2,0-0.5-0.1-0.7c-0.1-0.2-0.2-0.4-0.3-0.6c-0.1-0.2-0.3-0.3-0.6-0.4C285.1,293.8,284.8,293.7,284.5,293.7z"/>
	<path fill="#231F20" d="M294.7,304.8c-0.1,0.2-0.2,0.4-0.3,0.5s-0.3,0.1-0.6,0.1h-2.3l2-4.2l-4.1-9.5h2.7c0.2,0,0.4,0.1,0.6,0.2
		c0.1,0.1,0.2,0.2,0.3,0.4l1.7,4.5c0.2,0.4,0.3,0.8,0.4,1.2c0.1-0.2,0.1-0.4,0.2-0.6c0.1-0.2,0.2-0.4,0.2-0.6l1.5-4.5
		c0.1-0.2,0.2-0.3,0.3-0.4c0.2-0.1,0.3-0.2,0.5-0.2h2.5L294.7,304.8z"/>
	<path fill="#231F20" d="M310,291.6c0.8,0,1.5,0.1,2.2,0.4c0.6,0.2,1.2,0.6,1.7,1.1c0.5,0.5,0.8,1,1.1,1.7c0.3,0.7,0.4,1.4,0.4,2.2
		c0,0.8-0.1,1.6-0.4,2.2c-0.3,0.7-0.6,1.2-1.1,1.7c-0.5,0.5-1,0.8-1.7,1.1c-0.6,0.3-1.4,0.4-2.2,0.4c-0.8,0-1.5-0.1-2.2-0.4
		s-1.2-0.6-1.7-1.1c-0.5-0.5-0.8-1-1.1-1.7c-0.3-0.7-0.4-1.4-0.4-2.2c0-0.8,0.1-1.6,0.4-2.2c0.3-0.7,0.6-1.2,1.1-1.7s1-0.8,1.7-1.1
		C308.5,291.7,309.2,291.6,310,291.6z M310,300c0.7,0,1.2-0.3,1.6-0.8c0.3-0.5,0.5-1.3,0.5-2.3c0-1-0.2-1.8-0.5-2.3
		c-0.3-0.5-0.9-0.8-1.6-0.8c-0.7,0-1.3,0.3-1.6,0.8s-0.5,1.3-0.5,2.3c0,1,0.2,1.8,0.5,2.3S309.3,300,310,300z"/>
	<path fill="#231F20" d="M315.8,291.7h2.5c0.2,0,0.4,0.1,0.6,0.2s0.3,0.2,0.3,0.4l1,4.7c0.1,0.4,0.2,0.7,0.2,1
		c0.1,0.3,0.1,0.7,0.2,1c0.1-0.3,0.2-0.7,0.3-1c0.1-0.3,0.2-0.7,0.3-1l1.3-4.7c0-0.2,0.1-0.3,0.3-0.4s0.3-0.2,0.5-0.2h1.4
		c0.2,0,0.4,0.1,0.6,0.2s0.3,0.2,0.3,0.4l1.2,4.7c0.1,0.4,0.2,0.7,0.3,1s0.2,0.7,0.3,1c0.1-0.3,0.1-0.7,0.2-1c0.1-0.3,0.2-0.7,0.2-1
		l1.1-4.7c0-0.2,0.1-0.3,0.3-0.4s0.3-0.2,0.5-0.2h2.4l-3.2,10.4h-2.5c-0.1,0-0.2,0-0.3-0.1c-0.1-0.1-0.2-0.2-0.2-0.4l-1.5-5.2
		c-0.1-0.2-0.1-0.5-0.2-0.7c-0.1-0.2-0.1-0.5-0.2-0.7c0,0.2-0.1,0.5-0.2,0.7c-0.1,0.2-0.1,0.5-0.2,0.7l-1.5,5.2
		c-0.1,0.3-0.3,0.5-0.7,0.5h-2.4L315.8,291.7z"/>
	<path fill="#231F20" d="M333.3,302.1v-10.4h1.9c0.2,0,0.4,0,0.5,0.1c0.1,0.1,0.2,0.2,0.3,0.4l0.2,0.6c0.2-0.2,0.4-0.4,0.6-0.5
		c0.2-0.2,0.4-0.3,0.7-0.4c0.2-0.1,0.5-0.2,0.8-0.3c0.3-0.1,0.6-0.1,0.9-0.1c0.6,0,1.1,0.1,1.5,0.3c0.4,0.2,0.8,0.5,1.1,0.8
		c0.3,0.4,0.5,0.8,0.7,1.3c0.2,0.5,0.2,1,0.2,1.6v6.6h-3.1v-6.6c0-0.5-0.1-0.9-0.4-1.2c-0.2-0.3-0.6-0.4-1-0.4c-0.3,0-0.7,0.1-1,0.2
		c-0.3,0.1-0.6,0.3-0.9,0.6v7.4H333.3z"/>
</g>
</svg>
