<?xml version="1.0" encoding="utf-8"?>
<!-- Generator: Adobe Illustrator 18.0.0, SVG Export Plug-In . SVG Version: 6.00 Build 0)  -->
<!DOCTYPE svg PUBLIC "-//W3C//DTD SVG 1.1//EN" "http://www.w3.org/Graphics/SVG/1.1/DTD/svg11.dtd">
<svg version="1.1" xmlns="http://www.w3.org/2000/svg" xmlns:xlink="http://www.w3.org/1999/xlink" x="0px" y="0px"
	 viewBox="0 0 271.1 242.7" enable-background="new 0 0 271.1 242.7" xml:space="preserve">
<g id="Layer_1">
	<rect x="6" y="1042" fill="#EFE9B6" width="800" height="462"/>
	<text transform="matrix(1 0 0 1 684.6865 1232.2964)" font-family="'Graphik-Light'" font-size="27.7633"> </text>
	<rect x="165.7" y="1302.3" fill="#6BC2DE" width="185.3" height="73.7"/>
	<path fill="#0F1F29" d="M165.7,1343.6c0,3.8,0,7.6,0,11.5c-5.4,0-10.8,0-16.3,0.1c-0.7,0-0.7-0.4-0.7-0.8v-10.9
		c0-0.5,0.1-1-0.1-1.4c-0.2-1.8-1-2.6-2.7-2.9c-1.1-0.2-2.2-0.2-3.3,0c-1.4,0.2-2.2,1-2.5,2.4c-0.1,0.5-0.1,1.1-0.1,1.6
		c0,4,0,8,0,11.9h-16.8c0-3.9,0-7.8-0.1-11.6c0-0.3,0-0.7,0-1c0-12.9,0-25.9,0-38.8c0-1.3,0.3-2.4,1.1-3.5c4.2-5.6,5.5-12.1,5.5-19
		c1.1-0.3,2.1-0.7,3.3-0.5c-0.1,0.5,0.2,0.9,0.2,1.4c0.3,2.7,1.3,5.1,3.5,6.8c2.3,1.9,5.1,2.2,7.9,2.3c0.9,0,2-0.1,3-0.3
		c2.2-0.5,4.1-1.4,5.6-3.1c1.9-2.1,2.4-4.7,2.5-7.3c1.1,0.2,2.2,0.4,3.2,0.5c0,1.1,0.1,2.2,0.2,3.3c0.2,2.1,0.5,4.1,1,6.1
		c0.8,3.5,2.1,6.8,4.5,9.6c1,1.2,1.3,2.4,1.2,3.9c-0.1,8.3,0,16.5,0,24.8C165.7,1333.8,165.7,1338.7,165.7,1343.6"/>
	<path fill="#E0B596" d="M175.4,1245.1c-0.3,1.2-0.5,2.5-0.8,3.8c-0.9-0.9-1.4-1.9-1.9-2.9c-2.1-3.9-3.5-8-4.3-12.4
		c-0.3-1.9-0.6-3.9-0.5-5.8c0-0.5,0-0.8-0.7-0.6c-5.3,1.5-4.2-14.5-9.7-13.5c-4.4,0.8-21,2.7-25.4,3.3c-2.3,0.3-7.8,2.8-10.2,3
		c-2.4,0.2-2.7,9.1-5,9.2c-4.6,0.2-2.8,3.9,0,4.1c0.7,0.1,3.1,0.8,3,1.3c-0.8,3.3-1.8,6.6-3.1,9.7c-0.7,1.6-1.4,3.1-2.6,4.5
		c-0.5-1.3-0.6-2.6-0.8-3.8c-1.9,0-2.6,0.7-2.7,2.7c-0.1,1.5,0.2,2.8,0.6,4.2c0.4,1.6,1.1,3.1,1.1,4.8c0,1,1,1.8,2.2,1.6
		c0.6-0.1,0.8,0.1,0.8,0.6c0,0.3,0.1,0.5,0.2,0.8c1.3,5.1,3.8,9.5,8,12.9c3,2.4,6.4,3.9,10.1,4.9c0.3,0.1,0.8,0,0.8,0.4
		c0.1,0.7,0.1,1.5,0,2.2c-0.1,0.4-0.8,0.1-1.1,0.4c-0.1,0.1-0.2,0.1-0.3,0.2c-0.1,0.5,0.2,0.9,0.2,1.4c0.3,2.7,1.3,5.1,3.5,6.8
		c2.3,1.9,5.1,2.2,7.9,2.3c0.9,0,2-0.1,3-0.3c2.2-0.5,4.1-1.4,5.6-3.1c1.9-2.1,2.4-4.7,2.5-7.3c-0.2-0.1-0.5-0.2-0.7-0.2
		c-0.6,0-0.8-0.3-0.8-0.9c0-1.8,0-1.8,1.6-2.2c0.2-0.1,0.3-0.1,0.5-0.2c5.1-1.5,9.5-4.2,12.7-8.5c2.2-2.9,3.5-6.2,4.3-9.7
		c0.1-0.5,0.2-0.6,0.7-0.5c1.4,0.2,2.3-0.6,2.3-2.1c0-0.9,0.2-1.7,0.5-2.5c0.6-2,1.2-3.9,1.1-6
		C178,1246.2,177.3,1244.9,175.4,1245.1"/>
	<path fill="#2B2B24" d="M175.4,1245.1c-0.3,1.2-0.5,2.5-0.8,3.8c-0.9-0.9-1.4-1.9-1.9-2.9c-2.1-3.9-3.5-8-4.3-12.4
		c-0.3-1.9-0.6-3.9-0.5-5.8c0-0.5,0-0.8-0.7-0.6c-5.3,1.5-4.7-11.4-10.1-10.4c-4.4,0.8-8,0.2-12.5,0.8c-2.3,0.3-7.1,1.3-9.4,1.5
		c-2.4,0.2-4.6,3.6-7,3.7c-0.9,0-3.2,0.1-4.1,0c-0.7-0.1-3.9,11.2-4.1,11.8c-0.8,3.3-1.8,6.6-3.1,9.7c-0.7,1.6-1.4,3.1-2.6,4.5
		c-0.5-1.3-3.3,0.1-3.5-1.2c-1-6.1-7.4-22.5-5.8-28.6c2.1-8.2,8.9-10.8,16.5-14.4c11.5-5.4,34.5-5.9,45.8,0
		c7.8,4,15.7,15.2,17.1,23.7c0.9,5.4-5.3,13.8-6.2,19.2C178.1,1247.9,175.5,1245,175.4,1245.1"/>
	<path fill="#E0B596" d="M129.8,1281.2c0,6.9-1.3,13.4-5.5,19c-0.8,1.1-1.1,2.2-1.1,3.5c0,12.9,0,25.9,0,38.8c0,0.3,0,0.7,0,1
		c-2.5,2.6-5.5,2.9-8.2,0.7c-1.1-0.9-1.8-2.2-1.8-3.7c-0.1-4.2,0-8.3,0.2-12.5c0.2-4,0.5-8,0.9-12c1-9.3,2.4-18.4,5.3-27.3
		c0.8-2.5,2.2-4.4,4.6-5.6C125.9,1282.2,127.7,1281.5,129.8,1281.2"/>
	<path fill="#E0B596" d="M148.7,1342c0.2,0.5,0.1,0.9,0.1,1.4v10.9c0,0.5-0.1,0.9,0.7,0.8c5.4,0,10.8,0,16.3-0.1
		c0,7.7,0,15.3,0,22.9c0,0.9,0,1.7,0,2.6c-0.4,0.1-0.7,0.2-1.1,0.3c-5.3,1.1-10.6,2.2-15.8,3.4c0-0.4-0.1-0.8-0.1-1.2
		c0-8.8,0-17.7,0-26.5c0-4.5,0-9-0.1-13.6C148.6,1342.6,148.7,1342.3,148.7,1342"/>
	<path fill="#E0B596" d="M123.2,1355.1H140c0,9.7,0,19.4,0,29.1c-3.3-0.7-6.6-1.4-9.9-2.1c-2.3-0.5-4.6-1-6.9-1.5v-24.3
		C123.1,1355.9,123.2,1355.5,123.2,1355.1"/>
	<path fill="#2B3D52" d="M123.1,1380.6c2.3,0.5,4.6,1,6.9,1.5c3.3,0.7,6.6,1.4,9.9,2.1c0.1,2.2,0.1,2.2-2.1,2.2
		c-5.8,0-11.6,0-17.4,0c-0.8,0-1-0.2-0.9-1C119.9,1383.2,120.8,1381.4,123.1,1380.6"/>
	<path fill="#2B3D52" d="M148.7,1384.2c5.3-1.1,10.6-2.2,15.8-3.4c0.4-0.1,0.7-0.2,1.1-0.3c2.4,0.9,3.3,2.8,3.4,5.2
		c0,0.4,0,0.6-0.5,0.6c-6.4,0-12.8,0-19.3,0c-0.5,0-0.6-0.2-0.6-0.6C148.8,1385.3,148.7,1384.8,148.7,1384.2"/>
	<path fill="none" stroke="#1C1C1C" stroke-linecap="round" stroke-linejoin="round" stroke-miterlimit="10" d="M127.6,1262.3
		c0,0,15,13.7,32.9,0"/>
	<path fill="#1F1F1F" d="M138.3,1244c0,2.2-1.9,4-4.3,4c-2.4,0-4.3-1.8-4.3-4c0-2.2,1.9-4,4.3-4
		C136.4,1240.1,138.3,1241.8,138.3,1244"/>
	<path fill="#1F1F1F" d="M157.3,1244c0,2.2-1.9,4-4.3,4c-2.4,0-4.3-1.8-4.3-4c0-2.2,1.9-4,4.3-4
		C155.4,1240.1,157.3,1241.8,157.3,1244"/>
	<path fill="#E0B596" d="M219.1,1302.3c-4.7-1.3-9.4-2.7-14.2-4c-7.9-2.3-12.4-2.6-20.3-4.9c-1.4-0.4-4.4-0.9-7.4-0.8
		c-3.6,0-6.5,0.3-9.4,1.8c-1.8,1-1.5,7.2-3.6,6.7c-1.1-0.2-5.7-10.4-5.3-9.4c-1.5-3.4-1.8-8-0.6-10.4c0.6-1.2,6.1,2.7,7.3,2.6
		c6-0.4,11.9-0.1,17.9,0.6c4.6,0.5,9.1,1.2,13.6,2.1c2.8,0.5,5.7,1.2,8.5,1.8c4.1,1,8.2,1.9,12.3,3.1c2.5,0.7,4.1,2.3,4.4,4.9
		c0.3,2.5-0.8,4.4-3,5.6C219.3,1302.1,219.2,1302.2,219.1,1302.3"/>
	<path fill="#4A6BA1" d="M113.1,1302.9c0,0,8.4,2.5,10.1,4.9c0.1,0.2-0.4,24.9,0,20.3v0.5c0,0,21.6,6.6,42.6,0.3l0-28.1l16.6-3.1
		l-3.6-13.6c0,0-8.2-0.7-13-0.1c0,0-5.7-2.8-10.1-3.4c0,0-9.4,12.3-22.7,0.2c0,0-11.4,0.5-13.5,7.9L113.1,1302.9z"/>
	<rect x="174.7" y="1307.1" fill="#4A87A6" width="82.5" height="20.7"/>
	<path fill="#FFFFFF" d="M218.9,1317.5c0,1.7-1.3,3-3,3c-1.6,0-3-1.3-3-3c0-1.6,1.3-3,3-3C217.6,1314.5,218.9,1315.8,218.9,1317.5"
		/>
	<rect x="174.7" y="1329.5" fill="#4A87A6" width="82.5" height="20.7"/>
	<path fill="#FFFFFF" d="M218.9,1339.9c0,1.7-1.3,3-3,3c-1.6,0-3-1.3-3-3c0-1.6,1.3-3,3-3C217.6,1336.9,218.9,1338.2,218.9,1339.9"
		/>
	<rect x="174.7" y="1352.4" fill="#4A87A6" width="82.5" height="20.7"/>
	<path fill="#FFFFFF" d="M218.9,1362.7c0,1.6-1.3,3-3,3c-1.6,0-3-1.3-3-3s1.3-3,3-3C217.6,1359.8,218.9,1361.1,218.9,1362.7"/>
	<rect x="259.6" y="1307.1" fill="#4A87A6" width="82.5" height="20.7"/>
	<rect x="259.6" y="1329.5" fill="#4A87A6" width="82.5" height="20.7"/>
	<rect x="259.6" y="1352.4" fill="#4A87A6" width="82.5" height="20.7"/>
	<path fill="#FFFFFF" d="M303.8,1362.7c0,1.6-1.3,3-3,3c-1.6,0-3-1.3-3-3s1.3-3,3-3C302.5,1359.8,303.8,1361.1,303.8,1362.7"/>
	<path fill="#FF0505" d="M220.1,1224.6c0-0.1-0.1-0.1-0.1-0.2c-1.6-3.3-3.3-6.6-5-9.8c-1-1.9-2-3.8-2.9-5.7
		c-0.7-1.4-1.3-2.9-1.8-4.5c-0.6-1.9-0.7-3.9-0.5-5.9c0.1-0.8,0.3-1.6,0.5-2.4c0.3-0.9,0.6-1.8,0.9-2.7c1.5-3.6,4.8-6,8.7-6.2
		c1,0,2,0.1,2.9,0.3c1.9,0.5,3.5,1.4,4.9,2.8c1,1,1.7,2.1,2.2,3.3c0.4,0.9,0.7,1.9,0.9,2.9c0,0,0,0.1,0,0.1c0,0,0.1-0.1,0.1-0.1
		c1.3-1,2.7-1.7,4.3-2.1c1.7-0.5,3.3-0.5,5-0.1c0.9,0.2,1.7,0.5,2.5,0.9c1.4,0.7,2.6,1.7,3.5,3c1.4,2,2,4.2,1.8,6.7
		c-0.1,1-0.3,2-0.7,2.9c-0.3,0.7-0.6,1.5-1,2.2c-1,2-2.4,3.8-4.2,5.2c-1.1,0.8-2.2,1.5-3.5,2.1c-1.4,0.7-2.9,1.3-4.4,1.8
		c-2.3,0.9-4.7,1.7-7,2.5c-2.4,0.9-4.9,1.8-7.3,2.8C220.2,1224.5,220.2,1224.5,220.1,1224.6"/>
	<path fill="#FF0505" d="M195.8,1235.8C195.8,1235.8,195.8,1235.8,195.8,1235.8c-0.7-1.6-1.5-3-2.2-4.4c-0.4-0.8-0.9-1.7-1.3-2.5
		c-0.3-0.6-0.6-1.3-0.8-2c-0.2-0.9-0.3-1.7-0.2-2.6c0-0.4,0.1-0.7,0.2-1c0.1-0.4,0.2-0.8,0.4-1.2c0.7-1.6,2.1-2.7,3.9-2.8
		c0.4,0,0.9,0,1.3,0.1c0.8,0.2,1.6,0.6,2.2,1.2c0.4,0.4,0.7,0.9,1,1.5c0.2,0.4,0.3,0.9,0.4,1.3c0,0,0,0,0,0.1c0,0,0,0,0,0
		c0.6-0.4,1.2-0.8,1.9-1c0.7-0.2,1.5-0.2,2.2-0.1c0.4,0.1,0.8,0.2,1.1,0.4c0.6,0.3,1.2,0.8,1.6,1.3c0.6,0.9,0.9,1.9,0.8,3
		c0,0.4-0.1,0.9-0.3,1.3c-0.1,0.3-0.3,0.7-0.4,1c-0.5,0.9-1.1,1.7-1.9,2.3c-0.5,0.4-1,0.7-1.5,0.9c-0.6,0.3-1.3,0.6-1.9,0.8
		c-1,0.4-2.1,0.7-3.1,1.1C198,1234.9,196.9,1235.4,195.8,1235.8C195.8,1235.8,195.8,1235.8,195.8,1235.8"/>
	<path fill="#FF0505" d="M179.7,1193.6c-0.1,0-0.1,0-0.1,0c-2.8-1-5.6-1.9-8.4-2.7c-1.6-0.5-3.3-1-4.9-1.6c-1.2-0.4-2.4-0.9-3.5-1.5
		c-1.4-0.8-2.6-1.8-3.6-3c-0.4-0.5-0.7-1-1.1-1.6c-0.4-0.7-0.7-1.4-1-2.1c-1.2-2.9-0.7-6.1,1.4-8.4c0.5-0.6,1.1-1.1,1.8-1.5
		c1.3-0.8,2.8-1.2,4.3-1.2c1.1,0,2.1,0.2,3.1,0.6c0.8,0.3,1.5,0.7,2.2,1.2c0,0,0.1,0,0.1,0.1c0,0,0-0.1,0-0.1
		c0.2-1.3,0.6-2.5,1.2-3.6c0.7-1.2,1.6-2.2,2.8-2.9c0.6-0.4,1.3-0.7,1.9-0.9c1.2-0.4,2.4-0.5,3.7-0.3c1.9,0.3,3.5,1.2,4.8,2.7
		c0.5,0.6,0.9,1.3,1.3,2.1c0.2,0.6,0.5,1.2,0.7,1.8c0.6,1.7,0.8,3.5,0.6,5.3c-0.1,1.1-0.4,2.1-0.8,3.1c-0.4,1.2-0.9,2.3-1.4,3.5
		c-0.8,1.8-1.7,3.6-2.5,5.4C181.4,1189.7,180.6,1191.6,179.7,1193.6C179.7,1193.6,179.7,1193.6,179.7,1193.6"/>
	<rect x="123.2" y="1353.1" fill="#0F1F29" width="16.9" height="24"/>
	<rect x="148.8" y="1354.3" fill="#0F1F29" width="16.9" height="23.7"/>
	<path fill="#FFFFFF" d="M303.8,1317.5c0,1.7-1.3,3-3,3c-1.6,0-3-1.3-3-3c0-1.6,1.3-3,3-3C302.5,1314.5,303.8,1315.8,303.8,1317.5"
		/>
	<path fill="#FFFFFF" d="M303.8,1339.9c0,1.7-1.3,3-3,3c-1.6,0-3-1.3-3-3c0-1.6,1.3-3,3-3C302.5,1336.9,303.8,1338.2,303.8,1339.9"
		/>
	<rect y="522" fill="#FAFAFA" width="800" height="462"/>
	<text transform="matrix(1 0 0 1 678.6865 712.2964)" font-family="'Graphik-Light'" font-size="27.7633"> </text>
	<rect x="159.7" y="779.3" fill="none" stroke="#383939" stroke-width="2" stroke-miterlimit="10" width="185.3" height="85.7"/>
	<path fill="none" stroke="#383939" stroke-width="2" stroke-miterlimit="10" d="M159.7,823.6c0,3.8,0,7.6,0,11.5
		c-5.4,0-10.8,0-16.3,0.1c-0.7,0-0.7-0.4-0.7-0.8v-10.9c0-0.5,0.1-1-0.1-1.4c-0.2-1.8-1-2.6-2.7-2.9c-1.1-0.2-2.2-0.2-3.3,0
		c-1.4,0.2-2.2,1-2.5,2.4c-0.1,0.5-0.1,1.1-0.1,1.6c0,4,0,8,0,11.9h-16.8c0-3.9,0-7.8-0.1-11.6c0-0.3,0-0.7,0-1
		c0-12.9,0-25.9,0-38.8c0-1.3,0.3-2.4,1.1-3.5c4.2-5.6,5.5-12.1,5.5-19c1.1-0.3,2.1-0.7,3.3-0.5c-0.1,0.5,0.2,0.9,0.2,1.4
		c0.3,2.7,1.3,5.1,3.5,6.8c2.3,1.9,5.1,2.2,7.9,2.3c0.9,0,2-0.1,3-0.3c2.2-0.5,4.1-1.4,5.6-3.1c1.9-2.1,2.4-4.7,2.5-7.3
		c1.1,0.2,2.2,0.4,3.2,0.5c0,1.1,0.1,2.2,0.2,3.3c0.2,2.1,0.5,4.1,1,6.1c0.8,3.5,2.1,6.8,4.5,9.6c1,1.2,1.3,2.4,1.2,3.9
		c-0.1,8.3,0,16.5,0,24.8C159.7,813.8,159.7,818.7,159.7,823.6"/>
	<path fill="none" stroke="#383939" stroke-width="2" stroke-miterlimit="10" d="M169.4,725.1c-0.3,1.2-0.5,2.5-0.8,3.8
		c-0.9-0.9-1.4-1.9-1.9-2.9c-2.1-3.9-3.5-8-4.3-12.4c-0.3-1.9-0.6-3.9-0.5-5.8c0-0.5,0-0.8-0.7-0.6c-5.3,1.5-4.2-14.5-9.7-13.5
		c-4.4,0.8-21,2.7-25.4,3.3c-2.3,0.3-7.8,2.8-10.2,3c-2.4,0.2-2.7,9.1-5,9.2c-4.6,0.2-2.8,3.9,0,4.1c0.7,0.1,3.1,0.8,3,1.3
		c-0.8,3.3-1.8,6.6-3.1,9.7c-0.7,1.6-1.4,3.1-2.6,4.5c-0.5-1.3-0.6-2.6-0.8-3.8c-1.9,0-2.6,0.7-2.7,2.7c-0.1,1.5,0.2,2.8,0.6,4.2
		c0.4,1.6,1.1,3.1,1.1,4.8c0,1,1,1.8,2.2,1.6c0.6-0.1,0.8,0.1,0.8,0.6c0,0.3,0.1,0.5,0.2,0.8c1.3,5.1,3.8,9.5,8,12.9
		c3,2.4,6.4,3.9,10.1,4.9c0.3,0.1,0.8,0,0.8,0.4c0.1,0.7,0.1,1.5,0,2.2c-0.1,0.4-0.8,0.1-1.1,0.4c-0.1,0.1-0.2,0.1-0.3,0.2
		c-0.1,0.5,0.2,0.9,0.2,1.4c0.3,2.7,1.3,5.1,3.5,6.8c2.3,1.9,5.1,2.2,7.9,2.3c0.9,0,2-0.1,3-0.3c2.2-0.5,4.1-1.4,5.6-3.1
		c1.9-2.1,2.4-4.7,2.5-7.3c-0.2-0.1-0.5-0.2-0.7-0.2c-0.6,0-0.8-0.3-0.8-0.9c0-1.8,0-1.8,1.6-2.2c0.2-0.1,0.3-0.1,0.5-0.2
		c5.1-1.5,9.5-4.2,12.7-8.5c2.2-2.9,3.5-6.2,4.3-9.7c0.1-0.5,0.2-0.6,0.7-0.5c1.4,0.2,2.3-0.6,2.3-2.1c0-0.9,0.2-1.7,0.5-2.5
		c0.6-2,1.2-3.9,1.1-6C172,726.2,171.3,724.9,169.4,725.1"/>
	<path fill="#FAFAFA" stroke="#383939" stroke-width="2" stroke-miterlimit="10" d="M169.4,725.1c-0.3,1.2-0.5,2.5-0.8,3.8
		c-0.9-0.9-1.4-1.9-1.9-2.9c-2.1-3.9-3.5-8-4.3-12.4c-0.3-1.9-0.6-3.9-0.5-5.8c0-0.5,0-0.8-0.7-0.6c-5.3,1.5-4.7-11.4-10.1-10.4
		c-4.4,0.8-8,0.2-12.5,0.8c-2.3,0.3-7.1,1.3-9.4,1.5c-2.4,0.2-4.6,3.6-7,3.7c-0.9,0-3.2,0.1-4.1,0c-0.7-0.1-3.9,11.2-4.1,11.8
		c-0.8,3.3-1.8,6.6-3.1,9.7c-0.7,1.6-1.4,3.1-2.6,4.5c-0.5-1.3-3.3,0.1-3.5-1.2c-1-6.1-7.4-22.5-5.8-28.6
		c2.1-8.2,8.9-10.8,16.5-14.4c11.5-5.4,34.5-5.9,45.8,0c7.8,4,15.7,15.2,17.1,23.7c0.9,5.4-5.3,13.8-6.2,19.2
		C172.1,727.9,169.5,725,169.4,725.1"/>
	<path fill="none" stroke="#383939" stroke-width="2" stroke-miterlimit="10" d="M123.8,761.2c0,6.9-1.3,13.4-5.5,19
		c-0.8,1.1-1.1,2.2-1.1,3.5c0,12.9,0,25.9,0,38.8c0,0.3,0,0.7,0,1c-2.5,2.6-5.5,2.9-8.2,0.7c-1.1-0.9-1.8-2.2-1.8-3.7
		c-0.1-4.2,0-8.3,0.2-12.5c0.2-4,0.5-8,0.9-12c1-9.3,2.4-18.4,5.3-27.3c0.8-2.5,2.2-4.4,4.6-5.6
		C119.9,762.2,121.7,761.5,123.8,761.2"/>
	<path fill="none" stroke="#383939" stroke-width="2" stroke-miterlimit="10" d="M142.7,822c0.2,0.5,0.1,0.9,0.1,1.4v10.9
		c0,0.5-0.1,0.9,0.7,0.8c5.4,0,10.8,0,16.3-0.1c0,7.7,0,15.3,0,22.9c0,0.9,0,1.7,0,2.6c-0.4,0.1-0.7,0.2-1.1,0.3
		c-5.3,1.1-10.6,2.2-15.8,3.4c0-0.4-0.1-0.8-0.1-1.2c0-8.8,0-17.7,0-26.5c0-4.5,0-9-0.1-13.6C142.6,822.6,142.7,822.3,142.7,822"/>
	<path fill="none" stroke="#383939" stroke-width="2" stroke-miterlimit="10" d="M117.2,835.1H134c0,9.7,0,19.4,0,29.1
		c-3.3-0.7-6.6-1.4-9.9-2.1c-2.3-0.5-4.6-1-6.9-1.5v-24.3C117.1,835.9,117.2,835.5,117.2,835.1"/>
	<path fill="#FAFAFA" stroke="#383939" stroke-width="2" stroke-miterlimit="10" d="M117.1,860.6c2.3,0.5,4.6,1,6.9,1.5
		c3.3,0.7,6.6,1.4,9.9,2.1c0.1,2.2,0.1,2.2-2.1,2.2c-5.8,0-11.6,0-17.4,0c-0.8,0-1-0.2-0.9-1C113.9,863.2,114.8,861.4,117.1,860.6"
		/>
	<path fill="#FAFAFA" stroke="#383939" stroke-width="2" stroke-miterlimit="10" d="M142.7,864.2c5.3-1.1,10.6-2.2,15.8-3.4
		c0.4-0.1,0.7-0.2,1.1-0.3c2.4,0.9,3.3,2.8,3.4,5.2c0,0.4,0,0.6-0.5,0.6c-6.4,0-12.8,0-19.3,0c-0.5,0-0.6-0.2-0.6-0.6
		C142.8,865.3,142.7,864.8,142.7,864.2"/>
	<path fill="#FAFAFA" stroke="#383939" stroke-width="2" stroke-miterlimit="10" d="M213.1,782.3c-4.7-1.3-9.4-2.7-14.2-4
		c-7.9-2.3-12.4-2.6-20.3-4.9c-1.4-0.4-4.4-0.9-7.4-0.8c-3.6,0-6.5,0.3-9.4,1.8c-1.8,1-1.5,7.2-3.6,6.7c-1.1-0.2-5.7-10.4-5.3-9.4
		c-1.5-3.4-1.8-8-0.6-10.4c0.6-1.2,6.1,2.7,7.3,2.6c6-0.4,11.9-0.1,17.9,0.6c4.6,0.5,9.1,1.2,13.6,2.1c2.8,0.5,5.7,1.2,8.5,1.8
		c4.1,1,8.2,1.9,12.3,3.1c2.5,0.7,4.1,2.3,4.4,4.9c0.3,2.5-0.8,4.4-3,5.6C213.3,782.1,213.2,782.2,213.1,782.3"/>
	<path fill="#FAFAFA" stroke="#383939" stroke-width="2" stroke-miterlimit="10" d="M107.1,782.9c0,0,8.4,2.5,10.1,4.9
		c0.1,0.2-0.4,24.9,0,20.3v0.5c0,0,21.6,6.6,42.6,0.3l0-28.1l16.6-3.1l-3.6-13.6c0,0-8.2-0.7-13-0.1c0,0-5.7-2.8-10.1-3.4
		c0,0-9.4,12.3-22.7,0.2c0,0-11.4,0.5-13.5,7.9L107.1,782.9z"/>
	<rect x="168.7" y="787.1" fill="none" stroke="#383939" stroke-width="2" stroke-miterlimit="10" width="82.5" height="20.7"/>
	<path fill="none" stroke="#383939" stroke-width="2" stroke-miterlimit="10" d="M212.9,797.5c0,1.7-1.3,3-3,3c-1.6,0-3-1.3-3-3
		c0-1.6,1.3-3,3-3C211.6,794.5,212.9,795.8,212.9,797.5"/>
	<rect x="168.7" y="811.5" fill="none" stroke="#383939" stroke-width="2" stroke-miterlimit="10" width="82.5" height="20.7"/>
	<path fill="none" stroke="#383939" stroke-width="2" stroke-miterlimit="10" d="M212.9,821.9c0,1.7-1.3,3-3,3c-1.6,0-3-1.3-3-3
		c0-1.6,1.3-3,3-3C211.6,818.9,212.9,820.2,212.9,821.9"/>
	<rect x="168.7" y="836.4" fill="none" stroke="#383939" stroke-width="2" stroke-miterlimit="10" width="82.5" height="20.7"/>
	<path fill="none" stroke="#383939" stroke-width="2" stroke-miterlimit="10" d="M212.9,846.7c0,1.6-1.3,3-3,3c-1.6,0-3-1.3-3-3
		s1.3-3,3-3C211.6,843.8,212.9,845.1,212.9,846.7"/>
	<rect x="255.1" y="787.1" fill="none" stroke="#383939" stroke-width="2" stroke-miterlimit="10" width="82.5" height="20.7"/>
	<rect x="255.1" y="811.5" fill="none" stroke="#383939" stroke-width="2" stroke-miterlimit="10" width="82.5" height="20.7"/>
	<rect x="255.1" y="836.4" fill="none" stroke="#383939" stroke-width="2" stroke-miterlimit="10" width="82.5" height="20.7"/>
	<path fill="none" stroke="#383939" stroke-width="2" stroke-miterlimit="10" d="M299.3,846.7c0,1.6-1.3,3-3,3c-1.6,0-3-1.3-3-3
		s1.3-3,3-3C298,843.8,299.3,845.1,299.3,846.7"/>
	<path fill="none" stroke="#383939" stroke-width="2" stroke-miterlimit="10" d="M214.1,704.6c0-0.1-0.1-0.1-0.1-0.2
		c-1.6-3.3-3.3-6.6-5-9.8c-1-1.9-2-3.8-2.9-5.7c-0.7-1.4-1.3-2.9-1.8-4.5c-0.6-1.9-0.7-3.9-0.5-5.9c0.1-0.8,0.3-1.6,0.5-2.4
		c0.3-0.9,0.6-1.8,0.9-2.7c1.5-3.6,4.8-6,8.7-6.2c1,0,2,0.1,2.9,0.3c1.9,0.5,3.5,1.4,4.9,2.8c1,1,1.7,2.1,2.2,3.3
		c0.4,0.9,0.7,1.9,0.9,2.9c0,0,0,0.1,0,0.1c0,0,0.1-0.1,0.1-0.1c1.3-1,2.7-1.7,4.3-2.1c1.7-0.5,3.3-0.5,5-0.1
		c0.9,0.2,1.7,0.5,2.5,0.9c1.4,0.7,2.6,1.7,3.5,3c1.4,2,2,4.2,1.8,6.7c-0.1,1-0.3,2-0.7,2.9c-0.3,0.7-0.6,1.5-1,2.2
		c-1,2-2.4,3.8-4.2,5.2c-1.1,0.8-2.2,1.5-3.5,2.1c-1.4,0.7-2.9,1.3-4.4,1.8c-2.3,0.9-4.7,1.7-7,2.5c-2.4,0.9-4.9,1.8-7.3,2.8
		C214.2,704.5,214.2,704.5,214.1,704.6"/>
	<path fill="none" stroke="#383939" stroke-width="2" stroke-miterlimit="10" d="M189.8,715.8C189.8,715.8,189.8,715.8,189.8,715.8
		c-0.7-1.6-1.5-3-2.2-4.4c-0.4-0.8-0.9-1.7-1.3-2.5c-0.3-0.6-0.6-1.3-0.8-2c-0.2-0.9-0.3-1.7-0.2-2.6c0-0.4,0.1-0.7,0.2-1
		c0.1-0.4,0.2-0.8,0.4-1.2c0.7-1.6,2.1-2.7,3.9-2.8c0.4,0,0.9,0,1.3,0.1c0.8,0.2,1.6,0.6,2.2,1.2c0.4,0.4,0.7,0.9,1,1.5
		c0.2,0.4,0.3,0.9,0.4,1.3c0,0,0,0,0,0.1c0,0,0,0,0,0c0.6-0.4,1.2-0.8,1.9-1c0.7-0.2,1.5-0.2,2.2-0.1c0.4,0.1,0.8,0.2,1.1,0.4
		c0.6,0.3,1.2,0.8,1.6,1.3c0.6,0.9,0.9,1.9,0.8,3c0,0.4-0.1,0.9-0.3,1.3c-0.1,0.3-0.3,0.7-0.4,1c-0.5,0.9-1.1,1.7-1.9,2.3
		c-0.5,0.4-1,0.7-1.5,0.9c-0.6,0.3-1.3,0.6-1.9,0.8c-1,0.4-2.1,0.7-3.1,1.1C192,714.9,190.9,715.4,189.8,715.8
		C189.8,715.8,189.8,715.8,189.8,715.8"/>
	<path fill="none" stroke="#383939" stroke-width="2" stroke-miterlimit="10" d="M173.7,673.6c-0.1,0-0.1,0-0.1,0
		c-2.8-1-5.6-1.9-8.4-2.7c-1.6-0.5-3.3-1-4.9-1.6c-1.2-0.4-2.4-0.9-3.5-1.5c-1.4-0.8-2.6-1.8-3.6-3c-0.4-0.5-0.7-1-1.1-1.6
		c-0.4-0.7-0.7-1.4-1-2.1c-1.2-2.9-0.7-6.1,1.4-8.4c0.5-0.6,1.1-1.1,1.8-1.5c1.3-0.8,2.8-1.2,4.3-1.2c1.1,0,2.1,0.2,3.1,0.6
		c0.8,0.3,1.5,0.7,2.2,1.2c0,0,0.1,0,0.1,0.1c0,0,0-0.1,0-0.1c0.2-1.3,0.6-2.5,1.2-3.6c0.7-1.2,1.6-2.2,2.8-2.9
		c0.6-0.4,1.3-0.7,1.9-0.9c1.2-0.4,2.4-0.5,3.7-0.3c1.9,0.3,3.5,1.2,4.8,2.7c0.5,0.6,0.9,1.3,1.3,2.1c0.2,0.6,0.5,1.2,0.7,1.8
		c0.6,1.7,0.8,3.5,0.6,5.3c-0.1,1.1-0.4,2.1-0.8,3.1c-0.4,1.2-0.9,2.3-1.4,3.5c-0.8,1.8-1.7,3.6-2.5,5.4
		C175.4,669.7,174.6,671.6,173.7,673.6C173.7,673.6,173.7,673.6,173.7,673.6"/>
	<path fill="none" stroke="#383939" stroke-width="2" stroke-miterlimit="10" d="M299.3,797.5c0,1.7-1.3,3-3,3c-1.6,0-3-1.3-3-3
		c0-1.6,1.3-3,3-3C298,794.5,299.3,795.8,299.3,797.5"/>
	<path fill="none" stroke="#383939" stroke-width="2" stroke-miterlimit="10" d="M299.3,821.9c0,1.7-1.3,3-3,3c-1.6,0-3-1.3-3-3
		c0-1.6,1.3-3,3-3C298,818.9,299.3,820.2,299.3,821.9"/>
	<text transform="matrix(1 0 0 1 678.6865 190.2964)" font-family="'Graphik-Light'" font-size="27.7633"> </text>
	<rect x="72.6" y="145.4" fill="none" stroke="#383939" stroke-width="2" stroke-miterlimit="10" width="185.3" height="85.7"/>
	<path fill="none" stroke="#383939" stroke-width="2" stroke-miterlimit="10" d="M72.6,189.6c0,3.8,0,7.6,0,11.5
		c-5.4,0-10.8,0-16.3,0.1c-0.7,0-0.7-0.4-0.7-0.8v-10.9c0-0.5,0.1-1-0.1-1.4c-0.2-1.8-1-2.6-2.7-2.9c-1.1-0.2-2.2-0.2-3.3,0
		c-1.4,0.2-2.2,1-2.5,2.4c-0.1,0.5-0.1,1.1-0.1,1.6c0,4,0,8,0,11.9H30.1c0-3.9,0-7.8-0.1-11.6c0-0.3,0-0.7,0-1c0-12.9,0-25.9,0-38.8
		c0-1.3,0.3-2.4,1.1-3.5c4.2-5.6,5.5-12.1,5.5-19c1.1-0.3,2.1-0.7,3.3-0.5c-0.1,0.5,0.2,0.9,0.2,1.4c0.3,2.7,1.3,5.1,3.5,6.8
		c2.3,1.9,5.1,2.2,7.9,2.3c1,0,2-0.1,3-0.3c2.2-0.5,4.1-1.4,5.6-3.1c1.9-2.1,2.4-4.7,2.5-7.3c1.1,0.2,2.2,0.4,3.2,0.5
		c0,1.1,0.1,2.2,0.2,3.3c0.2,2.1,0.5,4.1,1,6.1c0.8,3.5,2.1,6.8,4.5,9.6c1,1.2,1.3,2.4,1.2,3.9c-0.1,8.3,0,16.5,0,24.8
		C72.6,179.8,72.6,184.7,72.6,189.6"/>
	<path fill="none" stroke="#383939" stroke-width="2" stroke-miterlimit="10" d="M82.4,91.2c-0.3,1.2-0.5,2.5-0.8,3.8
		c-0.9-0.9-1.4-1.9-1.9-2.9c-2.1-3.9-3.5-8-4.3-12.4c-0.3-1.9-0.6-3.9-0.5-5.8c0-0.5,0-0.8-0.7-0.6c-5.3,1.5-4.2-14.5-9.7-13.5
		c-4.4,0.8-21,2.7-25.4,3.3c-2.3,0.3-7.8,2.8-10.2,3c-2.4,0.2-2.7,9.1-5,9.2c-4.6,0.2-2.8,3.9,0,4.1c0.7,0.1,3.1,0.8,3,1.3
		c-0.8,3.3-1.8,6.6-3.1,9.7c-0.7,1.6-1.4,3.1-2.6,4.5c-0.5-1.3-0.6-2.6-0.8-3.8c-1.9,0-2.6,0.7-2.7,2.7c-0.1,1.5,0.2,2.8,0.6,4.2
		c0.4,1.6,1.1,3.1,1.1,4.8c0,1,1,1.8,2.2,1.6c0.6-0.1,0.8,0.1,0.8,0.6c0,0.3,0.1,0.5,0.2,0.8c1.3,5.1,3.8,9.5,8,12.9
		c3,2.4,6.4,3.9,10.1,4.9c0.3,0.1,0.8,0,0.8,0.4c0.1,0.7,0.1,1.5,0,2.2c-0.1,0.4-0.8,0.1-1.1,0.4c-0.1,0.1-0.2,0.1-0.3,0.2
		c-0.1,0.5,0.2,0.9,0.2,1.4c0.3,2.7,1.3,5.1,3.5,6.8c2.3,1.9,5.1,2.2,7.9,2.3c0.9,0,2-0.1,3-0.3c2.2-0.5,4.1-1.4,5.6-3.1
		c1.9-2.1,2.4-4.7,2.5-7.3c-0.2-0.1-0.5-0.2-0.7-0.2c-0.6,0-0.8-0.3-0.8-0.9c0-1.8,0-1.8,1.6-2.2c0.2-0.1,0.3-0.1,0.5-0.2
		c5.1-1.5,9.5-4.2,12.7-8.5c2.2-2.9,3.5-6.2,4.3-9.7c0.1-0.5,0.2-0.6,0.7-0.5c1.4,0.2,2.3-0.6,2.3-2.1c0-0.9,0.2-1.7,0.5-2.5
		c0.6-2,1.2-3.9,1.1-6C84.9,92.3,84.3,91,82.4,91.2"/>
	<path fill="#FAFAFA" stroke="#383939" stroke-width="2" stroke-miterlimit="10" d="M82.4,91.2c-0.3,1.2-0.5,2.5-0.8,3.8
		c-0.9-0.9-1.4-1.9-1.9-2.9c-2.1-3.9-3.5-8-4.3-12.4c-0.3-1.9-0.6-3.9-0.5-5.8c0-0.5,0-0.8-0.7-0.6C68.8,74.9,69.4,62,64,63
		c-4.4,0.8-8,0.2-12.5,0.8c-2.3,0.3-7.1,1.3-9.4,1.5c-2.4,0.2-4.6,3.6-7,3.7c-0.9,0-3.2,0.1-4.1,0c-0.7-0.1-3.9,11.2-4.1,11.8
		c-0.8,3.3-1.8,6.6-3.1,9.7c-0.7,1.6-1.4,3.1-2.6,4.5c-0.5-1.3-3.3,0.1-3.5-1.2c-1-6.1-7.4-22.5-5.8-28.6
		c2.1-8.2,8.9-10.8,16.5-14.4c11.5-5.4,34.5-5.9,45.8,0c7.8,4,15.7,15.2,17.1,23.7c0.9,5.4-5.3,13.8-6.2,19.2
		C85,93.9,82.4,91.1,82.4,91.2"/>
	<path fill="none" stroke="#383939" stroke-width="2" stroke-miterlimit="10" d="M36.7,127.3c0,6.9-1.3,13.4-5.5,19
		c-0.8,1.1-1.1,2.2-1.1,3.5c0,12.9,0,25.9,0,38.8c0,0.3,0,0.7,0,1c-2.5,2.6-5.5,2.9-8.2,0.7c-1.1-0.9-1.8-2.2-1.8-3.7
		c-0.1-4.2,0-8.3,0.2-12.5c0.2-4,0.5-8,0.9-12c1-9.3,2.4-18.4,5.3-27.3c0.8-2.5,2.2-4.4,4.6-5.6C32.8,128.2,34.6,127.5,36.7,127.3"
		/>
	<path fill="none" stroke="#383939" stroke-width="2" stroke-miterlimit="10" d="M55.6,188c0.2,0.5,0.1,0.9,0.1,1.4v10.9
		c0,0.5-0.1,0.9,0.7,0.8c5.4,0,10.8,0,16.3-0.1c0,7.7,0,15.3,0,22.9c0,0.9,0,1.7,0,2.6c-0.4,0.1-0.7,0.2-1.1,0.3
		c-5.3,1.1-10.6,2.2-15.8,3.4c0-0.4-0.1-0.8-0.1-1.2c0-8.8,0-17.7,0-26.5c0-4.5,0-9-0.1-13.6C55.5,188.7,55.6,188.3,55.6,188"/>
	<path fill="none" stroke="#383939" stroke-width="2" stroke-miterlimit="10" d="M30.1,201.1h16.8c0,9.7,0,19.4,0,29.1
		c-3.3-0.7-6.6-1.4-9.9-2.1c-2.3-0.5-4.6-1-6.9-1.5v-24.3C30.1,201.9,30.1,201.5,30.1,201.1"/>
	<path fill="#FAFAFA" stroke="#383939" stroke-width="2" stroke-miterlimit="10" d="M30.1,226.6c2.3,0.5,4.6,1,6.9,1.5
		c3.3,0.7,6.6,1.4,9.9,2.1c0.1,2.2,0.1,2.2-2.1,2.2c-5.8,0-11.6,0-17.4,0c-0.8,0-1-0.2-0.9-1C26.8,229.2,27.7,227.4,30.1,226.6"/>
	<path fill="#FAFAFA" stroke="#383939" stroke-width="2" stroke-miterlimit="10" d="M55.7,230.3c5.3-1.1,10.6-2.2,15.8-3.4
		c0.4-0.1,0.7-0.2,1.1-0.3c2.4,0.9,3.3,2.8,3.4,5.2c0,0.4,0,0.6-0.5,0.6c-6.4,0-12.8,0-19.3,0c-0.5,0-0.6-0.2-0.6-0.6
		C55.7,231.3,55.6,230.8,55.7,230.3"/>
	<path fill="#FAFAFA" stroke="#383939" stroke-width="2" stroke-miterlimit="10" d="M126.1,148.4c-4.7-1.3-9.4-2.7-14.2-4
		c-7.9-2.3-12.4-2.6-20.3-4.9c-1.4-0.4-4.4-0.9-7.4-0.8c-3.6,0-6.5,0.3-9.4,1.8c-1.8,1-1.5,7.2-3.6,6.7c-1.1-0.2-5.7-10.4-5.3-9.4
		c-1.5-3.4-1.8-8-0.6-10.4c0.6-1.2,6.1,2.7,7.3,2.6c6-0.4,11.9-0.1,17.9,0.6c4.6,0.5,9.1,1.2,13.6,2.1c2.8,0.5,5.7,1.2,8.5,1.8
		c4.1,1,8.2,1.9,12.3,3.1c2.5,0.7,4.1,2.3,4.4,4.9c0.3,2.5-0.8,4.4-3,5.6C126.2,148.2,126.1,148.3,126.1,148.4"/>
	<path fill="#FAFAFA" stroke="#383939" stroke-width="2" stroke-miterlimit="10" d="M20,149c0,0,8.4,2.5,10.1,4.9
		c0.1,0.2-0.4,24.9,0,20.3v0.5c0,0,21.6,6.6,42.6,0.3l0-28.1l16.6-3.1l-3.6-13.6c0,0-8.2-0.7-13-0.1c0,0-5.7-2.8-10.1-3.4
		c0,0-9.4,12.3-22.7,0.2c0,0-11.4,0.5-13.5,7.9L20,149z"/>
	<rect x="81.6" y="153.1" fill="none" stroke="#383939" stroke-width="2" stroke-miterlimit="10" width="82.5" height="20.7"/>
	<path fill="none" stroke="#383939" stroke-width="2" stroke-miterlimit="10" d="M125.8,163.5c0,1.7-1.3,3-3,3c-1.6,0-3-1.3-3-3
		c0-1.6,1.3-3,3-3C124.5,160.5,125.8,161.9,125.8,163.5"/>
	<rect x="81.6" y="177.6" fill="none" stroke="#383939" stroke-width="2" stroke-miterlimit="10" width="82.5" height="20.7"/>
	<path fill="none" stroke="#383939" stroke-width="2" stroke-miterlimit="10" d="M125.8,187.9c0,1.7-1.3,3-3,3c-1.6,0-3-1.3-3-3
		c0-1.6,1.3-3,3-3C124.5,184.9,125.8,186.3,125.8,187.9"/>
	<rect x="81.6" y="202.4" fill="none" stroke="#383939" stroke-width="2" stroke-miterlimit="10" width="82.5" height="20.7"/>
	<path fill="none" stroke="#383939" stroke-width="2" stroke-miterlimit="10" d="M125.8,212.8c0,1.6-1.3,3-3,3c-1.6,0-3-1.3-3-3
		s1.3-3,3-3C124.5,209.8,125.8,211.1,125.8,212.8"/>
	<rect x="168" y="153.1" fill="none" stroke="#383939" stroke-width="2" stroke-miterlimit="10" width="82.5" height="20.7"/>
	<rect x="168" y="177.6" fill="none" stroke="#383939" stroke-width="2" stroke-miterlimit="10" width="82.5" height="20.7"/>
	<rect x="168" y="202.4" fill="none" stroke="#383939" stroke-width="2" stroke-miterlimit="10" width="82.5" height="20.7"/>
	<path fill="none" stroke="#383939" stroke-width="2" stroke-miterlimit="10" d="M212.2,212.8c0,1.6-1.3,3-3,3c-1.6,0-3-1.3-3-3
		s1.3-3,3-3C210.9,209.8,212.2,211.1,212.2,212.8"/>
	<path fill="none" stroke="#383939" stroke-width="2" stroke-miterlimit="10" d="M127,70.6c0-0.1-0.1-0.1-0.1-0.2
		c-1.6-3.3-3.3-6.6-5-9.8c-1-1.9-2-3.8-2.9-5.7c-0.7-1.4-1.3-2.9-1.8-4.5c-0.6-1.9-0.7-3.9-0.5-5.9c0.1-0.8,0.3-1.6,0.5-2.4
		c0.3-0.9,0.6-1.8,0.9-2.7c1.5-3.6,4.8-6,8.7-6.2c1,0,2,0.1,2.9,0.3c1.9,0.5,3.5,1.4,4.9,2.8c1,1,1.7,2.1,2.2,3.3
		c0.4,0.9,0.7,1.9,0.9,2.9c0,0,0,0.1,0,0.1c0,0,0.1-0.1,0.1-0.1c1.3-1,2.7-1.7,4.3-2.1c1.7-0.5,3.3-0.5,5-0.1
		c0.9,0.2,1.7,0.5,2.5,0.9c1.4,0.7,2.6,1.7,3.5,3c1.4,2,2,4.2,1.8,6.7c-0.1,1-0.3,2-0.7,2.9c-0.3,0.7-0.6,1.5-1,2.2
		c-1,2-2.4,3.8-4.2,5.2c-1.1,0.8-2.2,1.5-3.5,2.1c-1.4,0.7-2.9,1.3-4.4,1.8c-2.3,0.9-4.7,1.7-7,2.5c-2.4,0.9-4.9,1.8-7.3,2.8
		C127.1,70.6,127.1,70.6,127,70.6"/>
	<path fill="none" stroke="#383939" stroke-width="2" stroke-miterlimit="10" d="M102.7,81.9C102.7,81.8,102.7,81.8,102.7,81.9
		c-0.7-1.6-1.5-3-2.2-4.4c-0.4-0.8-0.9-1.7-1.3-2.5c-0.3-0.6-0.6-1.3-0.8-2c-0.2-0.9-0.3-1.7-0.2-2.6c0-0.4,0.1-0.7,0.2-1
		c0.1-0.4,0.2-0.8,0.4-1.2c0.7-1.6,2.1-2.7,3.9-2.8c0.4,0,0.9,0,1.3,0.1c0.8,0.2,1.6,0.6,2.2,1.2c0.4,0.4,0.7,0.9,1,1.5
		c0.2,0.4,0.3,0.9,0.4,1.3c0,0,0,0,0,0.1c0,0,0,0,0,0c0.6-0.4,1.2-0.8,1.9-1c0.7-0.2,1.5-0.2,2.2-0.1c0.4,0.1,0.8,0.2,1.1,0.4
		c0.6,0.3,1.2,0.8,1.6,1.3c0.6,0.9,0.9,1.9,0.8,3c0,0.4-0.1,0.9-0.3,1.3c-0.1,0.3-0.3,0.7-0.4,1c-0.5,0.9-1.1,1.7-1.9,2.3
		c-0.5,0.4-1,0.7-1.5,0.9c-0.6,0.3-1.3,0.6-1.9,0.8c-1,0.4-2.1,0.7-3.1,1.1C104.9,81,103.8,81.4,102.7,81.9
		C102.8,81.8,102.7,81.8,102.7,81.9"/>
	<path fill="none" stroke="#383939" stroke-width="2" stroke-miterlimit="10" d="M86.6,39.7c-0.1,0-0.1,0-0.1,0
		c-2.8-1-5.6-1.9-8.4-2.7c-1.6-0.5-3.3-1-4.9-1.6c-1.2-0.4-2.4-0.9-3.5-1.5c-1.4-0.8-2.6-1.8-3.6-3c-0.4-0.5-0.7-1-1.1-1.6
		c-0.4-0.7-0.7-1.4-1-2.1c-1.2-2.9-0.7-6.1,1.4-8.4c0.5-0.6,1.1-1.1,1.8-1.5c1.3-0.8,2.8-1.2,4.3-1.2c1.1,0,2.1,0.2,3.1,0.6
		c0.8,0.3,1.5,0.7,2.2,1.2c0,0,0.1,0,0.1,0.1c0,0,0-0.1,0-0.1c0.2-1.3,0.6-2.5,1.2-3.6c0.7-1.2,1.6-2.2,2.8-2.9
		c0.6-0.4,1.3-0.7,1.9-0.9c1.2-0.4,2.4-0.5,3.7-0.3c1.9,0.3,3.5,1.2,4.8,2.7c0.5,0.6,0.9,1.3,1.3,2.1c0.2,0.6,0.5,1.2,0.7,1.8
		c0.6,1.7,0.8,3.5,0.6,5.3c-0.1,1.1-0.4,2.1-0.8,3.1c-0.4,1.2-0.9,2.3-1.4,3.5c-0.8,1.8-1.7,3.6-2.5,5.4
		C88.3,35.8,87.5,37.7,86.6,39.7C86.7,39.6,86.6,39.6,86.6,39.7"/>
	<path fill="none" stroke="#383939" stroke-width="2" stroke-miterlimit="10" d="M212.2,163.5c0,1.7-1.3,3-3,3c-1.6,0-3-1.3-3-3
		c0-1.6,1.3-3,3-3C210.9,160.5,212.2,161.9,212.2,163.5"/>
	<path fill="none" stroke="#383939" stroke-width="2" stroke-miterlimit="10" d="M212.2,187.9c0,1.7-1.3,3-3,3c-1.6,0-3-1.3-3-3
		c0-1.6,1.3-3,3-3C210.9,184.9,212.2,186.3,212.2,187.9"/>
</g>
<g id="Layer_3" display="none">
</g>
<g id="Layer_2" display="none">
	<text transform="matrix(1 0 0 1 410.6271 1269.627)" display="inline" font-family="'Graphik-Light'" font-size="27.7633">Bringing people </text>
	<text transform="matrix(1 0 0 1 616.713 1269.627)" display="inline"><tspan x="0" y="0" font-family="'Graphik-Bold'" font-size="27.7633">cl</tspan><tspan x="24.3" y="0" font-family="'Graphik-Bold'" font-size="27.7633">os</tspan><tspan x="56.1" y="0" font-family="'Graphik-Bold'" font-size="27.7633">er</tspan></text>
	<g display="inline">
		<text transform="matrix(1 0 0 1 411.4323 1302.9434)" font-family="'Graphik-Light'" font-size="27.7633">to the things </text>
	</g>
	<g display="inline">
		<text transform="matrix(1 0 0 1 576.4005 1302.9434)" font-family="'Graphik-Bold'" font-size="27.7633">they own</text>
	</g>
</g>
<g id="Layer_4" display="none">
	<g display="inline">
		<text transform="matrix(1 0 0 1 411.4323 1302.9434)" font-family="'Roboto-Light'" font-size="28">to the things </text>
	</g>
	<g display="inline">
		<text transform="matrix(1 0 0 1 576.4005 1302.9434)" font-family="'Roboto-Black'" font-size="28">they own</text>
	</g>
	<rect x="410.6" y="1249.5" display="inline" fill="none" width="314.3" height="29.5"/>
	<text transform="matrix(1 0 0 1 410.6271 1270.5387)" display="inline"><tspan x="0" y="0" font-family="'Roboto-Light'" font-size="28">Bringing people </tspan><tspan x="201" y="0" font-family="'Roboto-Black'" font-size="28">closer</tspan></text>
	<rect x="419.2" y="955.3" display="inline" fill="none" width="314.3" height="29.5"/>
	<text transform="matrix(1 0 0 1 419.2339 975.4651)" display="inline"><tspan x="0" y="0" font-family="'SourceSansPro-Light'" font-size="28">Bringing people </tspan><tspan x="185.2" y="0" font-family="'SourceSansPro-Black'" font-size="28">closer</tspan></text>
</g>
<g id="Layer_5" display="none">
	<rect x="410.6" y="1250.5" display="inline" fill="none" width="314.3" height="29.5"/>
	<text transform="matrix(1 0 0 1 410.6271 1271.5104)" display="inline"><tspan x="0" y="0" font-family="'Lato-Light'" font-size="28">Bringing people</tspan><tspan x="186.7" y="0" font-family="'Lato-Regular'" font-size="28"> </tspan><tspan x="192.1" y="0" font-family="'Lato-Black'" font-size="28">closer</tspan></text>
	<rect x="410.6" y="1283.2" display="inline" fill="none" width="314.3" height="29.5"/>
	<text transform="matrix(1 0 0 1 410.6271 1304.1879)" display="inline"><tspan x="0" y="0" font-family="'Lato-Light'" font-size="28">to the things </tspan><tspan x="153.9" y="0" font-family="'Lato-Black'" font-size="28">they own</tspan></text>
	<rect x="404.6" y="729.5" display="inline" fill="none" width="314.3" height="29.5"/>
	<text transform="matrix(1 0 0 1 404.6271 750.5103)" display="inline"><tspan x="0" y="0" fill="#EDEDED" font-family="'Lato-Light'" font-size="28">Bringing people</tspan><tspan x="186.7" y="0" fill="#EDEDED" font-family="'Lato-Regular'" font-size="28"> </tspan><tspan x="192.1" y="0" fill="#EDEDED" font-family="'Lato-Black'" font-size="28">closer</tspan></text>
	<rect x="404.6" y="762.2" display="inline" fill="none" width="314.3" height="29.5"/>
	<text transform="matrix(1 0 0 1 404.6271 783.1879)" display="inline"><tspan x="0" y="0" fill="#EDEDED" font-family="'Lato-Light'" font-size="28">to the things </tspan><tspan x="153.9" y="0" fill="#EDEDED" font-family="'Lato-Black'" font-size="28">they own</tspan></text>
</g>
</svg>
