<?xml version="1.0" encoding="utf-8"?>
<!-- Generator: Adobe Illustrator 18.0.0, SVG Export Plug-In . SVG Version: 6.00 Build 0)  -->
<!DOCTYPE svg PUBLIC "-//W3C//DTD SVG 1.1//EN" "http://www.w3.org/Graphics/SVG/1.1/DTD/svg11.dtd">
<svg version="1.1" xmlns="http://www.w3.org/2000/svg" xmlns:xlink="http://www.w3.org/1999/xlink" x="0px" y="0px"
	 viewBox="0 -48 800 531" enable-background="new 0 -48 800 531" xml:space="preserve">
<g id="_x31_">
	<rect y="-48" fill="#F2E5AB" width="798.4" height="531"/>
	<path fill="#616262" d="M686.2,360.3c0,3.3-0.6,5.9-1.3,5.9c-0.7,0-1.3-2.6-1.3-5.9c0-3.3,0.6-5.9,1.3-5.9
		C685.6,354.4,686.2,357.1,686.2,360.3"/>
	<path fill="#616262" d="M682.2,358.6c0,2.4-0.4,4.3-1,4.3c-0.5,0-1-1.9-1-4.3c0-2.4,0.4-4.3,1-4.3
		C681.8,354.3,682.2,356.2,682.2,358.6"/>
	<path fill="#616262" d="M591.2,360.3c0,3.3-0.6,5.9-1.3,5.9c-0.7,0-1.3-2.6-1.3-5.9c0-3.3,0.6-5.9,1.3-5.9
		C590.6,354.4,591.2,357.1,591.2,360.3"/>
	<path fill="#616262" d="M594.8,358.6c0,2.4-0.4,4.3-1,4.3c-0.5,0-1-1.9-1-4.3c0-2.4,0.4-4.3,1-4.3
		C594.4,354.3,594.8,356.2,594.8,358.6"/>
	<polygon fill="#2C2B24" points="582,358.6 691.9,358.6 691.9,346.6 656,346.6 656,337.6 621.4,337.6 621.4,328.6 582,328.6 	"/>
	<path fill="#D6A38E" d="M583.4,297.6c-0.1,0.6-0.2,1.1-0.4,1.8c-0.4-0.4-0.7-0.9-0.9-1.4c-1-1.8-1.6-3.7-2-5.7
		c-0.1-0.9-0.3-1.8-0.2-2.7c0-0.2,0-0.2-0.3-0.3c-2.5-0.7-1.9-6.7-4.5-6.3c-2,0.4-9.7,1.3-11.7,1.5c-1.1,0.1-3.6,1.3-4.7,1.4
		c-1.1,0.1-1.2,4.2-2.3,4.3c-2.1,0.1-1.3,1.8,0,1.9c0.3,0,1.5,0.3,1.4,0.6c-0.4,1.5-0.8,3.1-1.4,4.5c-0.3,0.7-0.6,1.4-1.2,2.1
		c-0.2-0.6-0.3-1.2-0.4-1.8c-0.9,0-1.2,0.3-1.2,1.2c0,0.7,0.1,1.3,0.3,2c0.2,0.7,0.5,1.4,0.5,2.2c0,0.5,0.5,0.8,1,0.7
		c0.3,0,0.4,0,0.4,0.3c0,0.1,0.1,0.2,0.1,0.4c0.6,2.4,1.8,4.4,3.7,5.9c1.4,1.1,3,1.8,4.7,2.2c0.1,0,0.4,0,0.4,0.2c0,0.3,0.1,0.7,0,1
		c0,0.2-0.4,0.1-0.5,0.2c0,0-0.1,0.1-0.1,0.1c0,0.2,0.1,0.4,0.1,0.6c0.1,1.3,0.6,2.3,1.6,3.2c1.1,0.9,2.3,1,3.6,1.1
		c0.4,0,0.9,0,1.4-0.1c1-0.2,1.9-0.6,2.6-1.4c0.9-1,1.1-2.2,1.2-3.4c-0.1,0-0.2-0.1-0.3-0.1c-0.3,0-0.4-0.1-0.4-0.4
		c0-0.8,0-0.8,0.8-1c0.1,0,0.2,0,0.2-0.1c2.4-0.7,4.4-1.9,5.9-3.9c1-1.3,1.6-2.9,2-4.5c0.1-0.2,0.1-0.3,0.3-0.2
		c0.6,0.1,1.1-0.3,1.1-0.9c0-0.4,0.1-0.8,0.2-1.2c0.3-0.9,0.6-1.8,0.5-2.8C584.6,298.1,584.3,297.5,583.4,297.6"/>
	<g>
		<defs>
			<rect id="SVGID_1_" x="404.9" y="270.6" width="100.5" height="94.1"/>
		</defs>
		<clipPath id="SVGID_2_">
			<use xlink:href="#SVGID_1_"  overflow="visible"/>
		</clipPath>
		<path clip-path="url(#SVGID_2_)" fill="#616262" d="M439.1,358.9c0,3.3-0.6,5.9-1.3,5.9c-0.7,0-1.3-2.6-1.3-5.9
			c0-3.3,0.6-5.9,1.3-5.9C438.5,352.9,439.1,355.6,439.1,358.9"/>
		<path clip-path="url(#SVGID_2_)" fill="#616262" d="M498.8,358.9c0,3.3-0.6,5.9-1.3,5.9c-0.7,0-1.3-2.6-1.3-5.9
			c0-3.3,0.6-5.9,1.3-5.9C498.2,352.9,498.8,355.6,498.8,358.9"/>
		<path clip-path="url(#SVGID_2_)" fill="#616262" d="M494.8,357.2c0,2.4-0.4,4.3-1,4.3c-0.5,0-1-1.9-1-4.3c0-2.4,0.4-4.3,1-4.3
			C494.4,352.8,494.8,354.8,494.8,357.2"/>
		<path clip-path="url(#SVGID_2_)" fill="#616262" d="M442.6,357.2c0,2.4-0.4,4.3-1,4.3c-0.5,0-1-1.9-1-4.3c0-2.4,0.4-4.3,1-4.3
			C442.2,352.8,442.6,354.8,442.6,357.2"/>
	</g>
	<rect x="429.8" y="327.1" fill="#6CC2DE" width="75.6" height="30.1"/>
	<path fill="#112029" d="M429.8,343.9c0,1.6,0,3.1,0,4.7c-2.2,0-4.4,0-6.6,0c-0.3,0-0.3-0.2-0.3-0.3v-4.4c0-0.2,0-0.4,0-0.6
		c-0.1-0.7-0.4-1.1-1.1-1.2c-0.4-0.1-0.9-0.1-1.3,0c-0.6,0.1-0.9,0.4-1,1c0,0.2-0.1,0.4-0.1,0.7c0,1.6,0,3.2,0,4.9h-6.9
		c0-1.6,0-3.2,0-4.7c0-0.1,0-0.3,0-0.4c0-5.3,0-10.5,0-15.8c0-0.5,0.1-1,0.5-1.4c1.7-2.3,2.3-4.9,2.2-7.7c0.4-0.1,0.9-0.3,1.3-0.2
		c0,0.2,0.1,0.4,0.1,0.6c0.1,1.1,0.5,2.1,1.4,2.8c1,0.8,2.1,0.9,3.2,0.9c0.4,0,0.8,0,1.2-0.1c0.9-0.2,1.7-0.6,2.3-1.2
		c0.8-0.9,1-1.9,1-3c0.4,0.1,0.9,0.1,1.3,0.2c0,0.4,0,0.9,0.1,1.3c0.1,0.8,0.2,1.7,0.4,2.5c0.3,1.4,0.9,2.8,1.8,3.9
		c0.4,0.5,0.5,1,0.5,1.6c0,3.4,0,6.7,0,10.1C429.8,339.9,429.8,341.9,429.8,343.9"/>
	<path fill="#E0B495" d="M433.8,303.8c-0.1,0.5-0.2,1-0.3,1.6c-0.4-0.4-0.6-0.8-0.8-1.2c-0.8-1.6-1.4-3.3-1.7-5
		c-0.1-0.8-0.2-1.6-0.2-2.4c0-0.2,0-0.3-0.3-0.2c-2.2,0.6-1.7-5.9-3.9-5.5c-1.8,0.3-8.6,1.1-10.4,1.4c-1,0.1-3.2,1.2-4.1,1.2
		c-1,0.1-1.1,3.7-2,3.8c-1.9,0.1-1.2,1.6,0,1.7c0.3,0,1.3,0.3,1.2,0.5c-0.3,1.4-0.7,2.7-1.3,4c-0.3,0.6-0.6,1.3-1.1,1.8
		c-0.2-0.5-0.3-1.1-0.3-1.6c-0.8,0-1.1,0.3-1.1,1.1c0,0.6,0.1,1.2,0.2,1.7c0.2,0.6,0.5,1.2,0.4,1.9c0,0.4,0.4,0.7,0.9,0.6
		c0.2,0,0.3,0,0.3,0.2c0,0.1,0,0.2,0.1,0.3c0.5,2.1,1.5,3.9,3.2,5.2c1.2,1,2.6,1.6,4.1,2c0.1,0,0.3,0,0.3,0.2c0,0.3,0.1,0.6,0,0.9
		c0,0.2-0.3,0.1-0.5,0.2c0,0-0.1,0-0.1,0.1c0,0.2,0.1,0.4,0.1,0.6c0.1,1.1,0.5,2.1,1.4,2.8c1,0.8,2.1,0.9,3.2,0.9
		c0.4,0,0.8,0,1.2-0.1c0.9-0.2,1.7-0.6,2.3-1.2c0.8-0.9,1-1.9,1-3c-0.1,0-0.2-0.1-0.3-0.1c-0.3,0-0.3-0.1-0.3-0.4
		c0-0.7,0-0.7,0.7-0.9c0.1,0,0.1,0,0.2-0.1c2.1-0.6,3.9-1.7,5.2-3.5c0.9-1.2,1.4-2.5,1.8-4c0-0.2,0.1-0.2,0.3-0.2
		c0.6,0.1,0.9-0.3,0.9-0.8c0-0.4,0.1-0.7,0.2-1c0.3-0.8,0.5-1.6,0.5-2.5C434.8,304.2,434.5,303.7,433.8,303.8"/>
	<path fill="#2C2B24" d="M433.8,303.8c-0.1,0.5-0.2,1-0.3,1.6c-0.4-0.4-0.6-0.8-0.8-1.2c-0.9-1.6-1.4-3.3-1.7-5
		c-0.1-0.8-0.2-1.6-0.2-2.4c0-0.2,0-0.3-0.3-0.2c-2.2,0.6-1.9-4.6-4.1-4.2c-1.8,0.3-3.3,0.1-5.1,0.3c-1,0.1-2.9,0.5-3.9,0.6
		c-1,0.1-1.9,1.5-2.9,1.5c-0.4,0-1.3,0-1.7,0c-0.3,0-1.6,4.6-1.7,4.8c-0.3,1.4-0.7,2.7-1.3,4c-0.3,0.6-0.6,1.3-1.1,1.8
		c-0.2-0.5-1.3,0-1.4-0.5c-0.4-2.5-3-9.2-2.4-11.6c0.9-3.3,3.6-4.4,6.7-5.9c4.7-2.2,14.1-2.4,18.7,0c3.2,1.6,6.4,6.2,7,9.7
		c0.4,2.2-2.1,5.6-2.5,7.8C434.8,304.9,433.8,303.7,433.8,303.8"/>
	<path fill="#E0B495" d="M415.1,318.5c0,2.8-0.5,5.4-2.2,7.7c-0.3,0.5-0.5,0.9-0.5,1.4c0,5.3,0,10.5,0,15.8c0,0.1,0,0.3,0,0.4
		c-1,1.1-2.3,1.2-3.3,0.3c-0.5-0.4-0.7-0.9-0.7-1.5c-0.1-1.7,0-3.4,0.1-5.1c0.1-1.6,0.2-3.3,0.4-4.9c0.4-3.8,1-7.5,2.2-11.1
		c0.3-1,0.9-1.8,1.9-2.3C413.5,318.9,414.3,318.6,415.1,318.5"/>
	<path fill="#E0B495" d="M422.8,343.3c0.1,0.2,0,0.4,0,0.6v4.4c0,0.2,0,0.3,0.3,0.3c2.2,0,4.4,0,6.6,0c0,3.1,0,6.2,0,9.4
		c0,0.4,0,0.7,0,1.1c-0.2,0-0.3,0.1-0.5,0.1c-2.2,0.5-4.3,0.9-6.5,1.4c0-0.2,0-0.3,0-0.5c0-3.6,0-7.2,0-10.8c0-1.8,0-3.7,0-5.5
		C422.8,343.5,422.8,343.4,422.8,343.3"/>
	<path fill="#E0B495" d="M412.4,348.6h6.9c0,4,0,7.9,0,11.9c-1.3-0.3-2.7-0.6-4.1-0.9c-0.9-0.2-1.9-0.4-2.8-0.6v-9.9
		C412.4,348.9,412.4,348.8,412.4,348.6"/>
	<path fill="#2C3D52" d="M412.4,359c0.9,0.2,1.9,0.4,2.8,0.6c1.3,0.3,2.7,0.6,4.1,0.9c0,0.9,0,0.9-0.8,0.9c-2.4,0-4.7,0-7.1,0
		c-0.3,0-0.4-0.1-0.4-0.4C411.1,360.1,411.5,359.3,412.4,359"/>
	<path fill="#2C3D52" d="M422.9,360.5c2.2-0.5,4.3-0.9,6.5-1.4c0.2,0,0.3-0.1,0.5-0.1c1,0.4,1.3,1.1,1.4,2.1c0,0.2,0,0.3-0.2,0.3
		c-2.6,0-5.2,0-7.9,0c-0.2,0-0.3-0.1-0.2-0.3C422.9,360.9,422.9,360.7,422.9,360.5"/>
	<path fill="none" stroke="#1C1C1C" stroke-linecap="round" stroke-linejoin="round" stroke-miterlimit="10" d="M414.3,310.8
		c0,0,6,5.1,13.2,0"/>
	<path fill="#1F1F1F" d="M418.6,303.3c0,0.6-0.8,1-1.8,1c-1,0-1.7-0.5-1.7-1s0.8-1,1.7-1C417.8,302.3,418.6,302.7,418.6,303.3"/>
	<path fill="#1F1F1F" d="M426.4,303.3c0,0.6-0.8,1-1.8,1c-1,0-1.7-0.5-1.7-1s0.8-1,1.7-1C425.6,302.3,426.4,302.7,426.4,303.3"/>
	<path fill="#E0B495" d="M451.6,327.1c-1.9-0.5-3.9-1.1-5.8-1.6c-3.2-0.9-5.1-1.1-8.3-2c-0.6-0.2-1.8-0.4-3-0.3
		c-1.5,0-2.7,0.1-3.8,0.7c-0.7,0.4-0.6,2.9-1.5,2.8c-0.4-0.1-2.3-4.2-2.2-3.8c-0.6-1.4-0.7-3.3-0.2-4.2c0.2-0.5,2.5,1.1,3,1.1
		c2.4-0.2,4.9,0,7.3,0.2c1.9,0.2,3.7,0.5,5.6,0.8c1.2,0.2,2.3,0.5,3.5,0.7c1.7,0.4,3.3,0.8,5,1.3c1,0.3,1.7,0.9,1.8,2
		c0.1,1-0.3,1.8-1.2,2.3C451.6,327,451.6,327,451.6,327.1"/>
	<path fill="#4A6CA2" d="M408.3,327.3c0,0,3.4,1,4.1,2c0.1,0.1-0.2,10.2,0,8.3v0.2c0,0,8.8,2.7,17.4,0.1l0-11.5l6.8-1.3l-1.5-5.6
		c0,0-3.3-0.3-5.3,0c0,0-2.3-1.1-4.1-1.4c0,0-3.8,5-9.2,0.1c0,0-4.6,0.2-5.5,3.2L408.3,327.3z"/>
	<rect x="404.9" y="270.6" fill="none" width="100.5" height="94.1"/>
	<rect x="433.5" y="329" fill="#4B87A5" width="33.7" height="8.5"/>
	<g>
		<defs>
			<rect id="SVGID_3_" x="404.9" y="270.6" width="100.5" height="94.1"/>
		</defs>
		<clipPath id="SVGID_4_">
			<use xlink:href="#SVGID_3_"  overflow="visible"/>
		</clipPath>
		<path clip-path="url(#SVGID_4_)" fill="#FFFFFF" d="M451.5,333.3c0,0.7-0.5,1.2-1.2,1.2c-0.7,0-1.2-0.5-1.2-1.2
			c0-0.7,0.5-1.2,1.2-1.2C451,332,451.5,332.6,451.5,333.3"/>
	</g>
	<rect x="433.5" y="338.2" fill="#4B87A5" width="33.7" height="8.5"/>
	<g>
		<defs>
			<rect id="SVGID_5_" x="404.9" y="270.6" width="100.5" height="94.1"/>
		</defs>
		<clipPath id="SVGID_6_">
			<use xlink:href="#SVGID_5_"  overflow="visible"/>
		</clipPath>
		<path clip-path="url(#SVGID_6_)" fill="#FFFFFF" d="M451.5,342.4c0,0.7-0.5,1.2-1.2,1.2c-0.7,0-1.2-0.5-1.2-1.2
			c0-0.7,0.5-1.2,1.2-1.2C451,341.2,451.5,341.7,451.5,342.4"/>
	</g>
	<rect x="433.5" y="347.5" fill="#4B87A5" width="33.7" height="8.5"/>
	<g>
		<defs>
			<rect id="SVGID_7_" x="404.9" y="270.6" width="100.5" height="94.1"/>
		</defs>
		<clipPath id="SVGID_8_">
			<use xlink:href="#SVGID_7_"  overflow="visible"/>
		</clipPath>
		<path clip-path="url(#SVGID_8_)" fill="#FFFFFF" d="M451.5,351.7c0,0.7-0.5,1.2-1.2,1.2c-0.7,0-1.2-0.5-1.2-1.2
			c0-0.7,0.5-1.2,1.2-1.2C451,350.5,451.5,351.1,451.5,351.7"/>
	</g>
	<rect x="468.1" y="329" fill="#4B87A5" width="33.7" height="8.5"/>
	<g>
		<defs>
			<rect id="SVGID_9_" x="404.9" y="270.6" width="100.5" height="94.1"/>
		</defs>
		<clipPath id="SVGID_10_">
			<use xlink:href="#SVGID_9_"  overflow="visible"/>
		</clipPath>
		<path clip-path="url(#SVGID_10_)" fill="#FFFFFF" d="M486.1,333.3c0,0.7-0.5,1.2-1.2,1.2c-0.7,0-1.2-0.5-1.2-1.2
			c0-0.7,0.5-1.2,1.2-1.2C485.6,332,486.1,332.6,486.1,333.3"/>
	</g>
	<rect x="468.1" y="338.2" fill="#4B87A5" width="33.7" height="8.5"/>
	<g>
		<defs>
			<rect id="SVGID_11_" x="404.9" y="270.6" width="100.5" height="94.1"/>
		</defs>
		<clipPath id="SVGID_12_">
			<use xlink:href="#SVGID_11_"  overflow="visible"/>
		</clipPath>
		<path clip-path="url(#SVGID_12_)" fill="#FFFFFF" d="M486.1,342.4c0,0.7-0.5,1.2-1.2,1.2c-0.7,0-1.2-0.5-1.2-1.2
			c0-0.7,0.5-1.2,1.2-1.2C485.6,341.2,486.1,341.7,486.1,342.4"/>
	</g>
	<rect x="468.1" y="347.5" fill="#4B87A5" width="33.7" height="8.5"/>
	<path fill="#FFFFFF" d="M486.1,351.7c0,0.7-0.5,1.2-1.2,1.2c-0.7,0-1.2-0.5-1.2-1.2c0-0.7,0.5-1.2,1.2-1.2
		C485.6,350.5,486.1,351.1,486.1,351.7"/>
	<rect x="404.9" y="270.6" fill="none" width="100.5" height="94.1"/>
	<rect x="412.4" y="347.8" fill="#112029" width="6.9" height="9.8"/>
	<rect x="422.9" y="348.3" fill="#112029" width="6.9" height="9.7"/>
	<path fill="#616262" d="M145,359.6c0,3.3-0.6,5.9-1.3,5.9c-0.7,0-1.3-2.6-1.3-5.9c0-3.3,0.6-5.9,1.3-5.9
		C144.4,353.7,145,356.3,145,359.6"/>
	<path fill="#616262" d="M240,359.6c0,3.3-0.6,5.9-1.3,5.9c-0.7,0-1.3-2.6-1.3-5.9c0-3.3,0.6-5.9,1.3-5.9
		C239.4,353.7,240,356.3,240,359.6"/>
	<path fill="#616262" d="M236,357.9c0,2.4-0.4,4.3-1,4.3c-0.5,0-1-1.9-1-4.3c0-2.4,0.4-4.3,1-4.3C235.6,353.6,236,355.5,236,357.9"
		/>
	<path fill="#616262" d="M148.6,357.9c0,2.4-0.4,4.3-1,4.3c-0.5,0-1-1.9-1-4.3c0-2.4,0.4-4.3,1-4.3
		C148.2,353.6,148.6,355.5,148.6,357.9"/>
	<rect x="110.8" y="271.3" fill="none" width="100.5" height="94.1"/>
	<rect x="135.7" y="327.8" fill="#DDB06D" width="109.9" height="30.1"/>
	<path fill="#112029" d="M135.7,344.7c0,1.6,0,3.1,0,4.7c-2.2,0-4.4,0-6.6,0c-0.3,0-0.3-0.2-0.3-0.3v-4.4c0-0.2,0-0.4,0-0.6
		c-0.1-0.7-0.4-1.1-1.1-1.2c-0.4-0.1-0.9-0.1-1.3,0c-0.6,0.1-0.9,0.4-1,1c0,0.2-0.1,0.4-0.1,0.7c0,1.6,0,3.2,0,4.9h-6.9
		c0-1.6,0-3.2,0-4.7c0-0.1,0-0.3,0-0.4c0-5.3,0-10.5,0-15.8c0-0.5,0.1-1,0.5-1.4c1.7-2.3,2.3-4.9,2.2-7.7c0.4-0.1,0.9-0.3,1.3-0.2
		c0,0.2,0.1,0.4,0.1,0.6c0.1,1.1,0.5,2.1,1.4,2.8c1,0.8,2.1,0.9,3.2,0.9c0.4,0,0.8,0,1.2-0.1c0.9-0.2,1.7-0.6,2.3-1.2
		c0.8-0.9,1-1.9,1-3c0.4,0.1,0.9,0.1,1.3,0.2c0,0.4,0,0.9,0.1,1.3c0.1,0.8,0.2,1.7,0.4,2.5c0.3,1.4,0.9,2.8,1.8,3.9
		c0.4,0.5,0.5,1,0.5,1.6c0,3.4,0,6.7,0,10.1C135.7,340.7,135.7,342.7,135.7,344.7"/>
	<path fill="#9B5E37" d="M139.7,304.5c-0.1,0.5-0.2,1-0.3,1.6c-0.4-0.4-0.6-0.8-0.8-1.2c-0.8-1.6-1.4-3.3-1.7-5
		c-0.1-0.8-0.2-1.6-0.2-2.4c0-0.2,0-0.3-0.3-0.2c-2.2,0.6-1.7-5.9-3.9-5.5c-1.8,0.3-8.6,1.1-10.4,1.4c-1,0.1-3.2,1.2-4.1,1.2
		c-1,0.1-1.1,3.7-2,3.8c-1.9,0.1-1.2,1.6,0,1.7c0.3,0,1.3,0.3,1.2,0.5c-0.3,1.4-0.7,2.7-1.3,4c-0.3,0.6-0.6,1.3-1.1,1.8
		c-0.2-0.5-0.3-1.1-0.3-1.6c-0.8,0-1.1,0.3-1.1,1.1c0,0.6,0.1,1.2,0.2,1.7c0.2,0.6,0.5,1.2,0.4,1.9c0,0.4,0.4,0.7,0.9,0.6
		c0.2,0,0.3,0,0.3,0.2c0,0.1,0,0.2,0.1,0.3c0.5,2.1,1.5,3.9,3.2,5.2c1.2,1,2.6,1.6,4.1,2c0.1,0,0.3,0,0.3,0.2c0,0.3,0.1,0.6,0,0.9
		c0,0.2-0.3,0.1-0.5,0.2c0,0-0.1,0-0.1,0.1c0,0.2,0.1,0.4,0.1,0.6c0.1,1.1,0.5,2.1,1.4,2.8c1,0.8,2.1,0.9,3.2,0.9
		c0.4,0,0.8,0,1.2-0.1c0.9-0.2,1.7-0.6,2.3-1.2c0.8-0.9,1-1.9,1-3c-0.1,0-0.2-0.1-0.3-0.1c-0.3,0-0.3-0.1-0.3-0.4
		c0-0.7,0-0.7,0.7-0.9c0.1,0,0.1,0,0.2-0.1c2.1-0.6,3.9-1.7,5.2-3.5c0.9-1.2,1.4-2.5,1.8-4c0-0.2,0.1-0.2,0.3-0.2
		c0.6,0.1,0.9-0.3,0.9-0.8c0-0.4,0.1-0.7,0.2-1c0.3-0.8,0.5-1.6,0.5-2.5C140.8,304.9,140.5,304.4,139.7,304.5"/>
	<path fill="#2C2B24" d="M139.7,304.5c-0.1,0.5-0.2,1-0.3,1.6c-0.4-0.4-0.6-0.8-0.8-1.2c-0.9-1.6-1.4-3.3-1.7-5
		c-0.1-0.8-0.2-1.6-0.2-2.4c0-0.2,0-0.3-0.3-0.2c-3.2,0.9-2.8-4.5-4.1-4.2c-1.8,0.3-3.3,0.1-5.1,0.3c-1,0.1-4.2,0-5.2,0.1
		c-1,0.1-1,3.1-1.9,3.1c-0.4,0-1.7,0.7-2,0.7c-0.3,0-0.9,2.8-0.9,3c-0.3,1.4-0.7,2.7-1.3,4c-0.3,0.6-0.6,1.3-1.1,1.8
		c-0.2-0.5-1.3,0-1.4-0.5c-0.4-2.5-1.3-8.7-0.6-11.2c0.9-3.3,1.9-4.8,5-6.3c4.7-2.2,14.1-2.4,18.7,0c3.2,1.6,4.7,6.4,5.3,9.9
		c0.4,2.2-0.4,5.5-0.8,7.6C140.8,305.6,139.7,304.4,139.7,304.5"/>
	<path fill="#9B5E37" d="M121.1,319.2c0,2.8-0.5,5.4-2.2,7.7c-0.3,0.5-0.5,0.9-0.5,1.4c0,5.3,0,10.5,0,15.8c0,0.1,0,0.3,0,0.4
		c-1,1.1-2.3,1.2-3.3,0.3c-0.5-0.4-0.7-0.9-0.7-1.5c-0.1-1.7,0-3.4,0.1-5.1c0.1-1.6,0.2-3.3,0.4-4.9c0.4-3.8,1-7.5,2.2-11.1
		c0.3-1,0.9-1.8,1.9-2.3C119.5,319.6,120.2,319.3,121.1,319.2"/>
	<path fill="#9B5E37" d="M128.8,344c0.1,0.2,0,0.4,0,0.6v4.4c0,0.2,0,0.3,0.3,0.3c2.2,0,4.4,0,6.6,0c0,3.1,0,6.2,0,9.4
		c0,0.4,0,0.7,0,1.1c-0.2,0-0.3,0.1-0.5,0.1c-2.2,0.5-4.3,0.9-6.5,1.4c0-0.2,0-0.3,0-0.5c0-3.6,0-7.2,0-10.8c0-1.8,0-3.7,0-5.5
		C128.8,344.3,128.8,344.1,128.8,344"/>
	<path fill="#9B5E37" d="M118.4,349.3h6.9c0,4,0,7.9,0,11.9c-1.3-0.3-2.7-0.6-4.1-0.9c-0.9-0.2-1.9-0.4-2.8-0.6v-9.9
		C118.4,349.7,118.4,349.5,118.4,349.3"/>
	<path fill="#2C3D52" d="M118.4,359.7c0.9,0.2,1.9,0.4,2.8,0.6c1.3,0.3,2.7,0.6,4.1,0.9c0,0.9,0,0.9-0.8,0.9c-2.4,0-4.7,0-7.1,0
		c-0.3,0-0.4-0.1-0.4-0.4C117.1,360.8,117.4,360.1,118.4,359.7"/>
	<path fill="#2C3D52" d="M128.8,361.2c2.2-0.5,4.3-0.9,6.5-1.4c0.2,0,0.3-0.1,0.5-0.1c1,0.4,1.3,1.1,1.4,2.1c0,0.2,0,0.3-0.2,0.3
		c-2.6,0-5.2,0-7.9,0c-0.2,0-0.3-0.1-0.2-0.3C128.8,361.7,128.8,361.5,128.8,361.2"/>
	<path fill="none" stroke="#1C1C1C" stroke-linecap="round" stroke-linejoin="round" stroke-miterlimit="10" d="M121.7,312
		c0,0,4.7,4.1,10.4,0"/>
	<path fill="#1F1F1F" d="M124.6,304c0,0.9-0.8,1.6-1.8,1.6c-1,0-1.7-0.7-1.7-1.6s0.8-1.6,1.7-1.6C123.8,302.4,124.6,303.1,124.6,304
		"/>
	<path fill="#1F1F1F" d="M132.3,304c0,0.9-0.8,1.6-1.8,1.6c-1,0-1.7-0.7-1.7-1.6s0.8-1.6,1.7-1.6C131.5,302.4,132.3,303.1,132.3,304
		"/>
	<path fill="#9B5E37" d="M157.5,327.8c-1.9-0.5-3.9-1.1-5.8-1.6c-3.2-0.9-5.1-1.1-8.3-2c-0.6-0.2-1.8-0.4-3-0.3
		c-1.5,0-2.7,0.1-3.8,0.7c-0.7,0.4-0.6,2.9-1.5,2.8c-0.4-0.1-2.3-4.2-2.2-3.8c-0.6-1.4-0.7-3.3-0.2-4.2c0.2-0.5,2.5,1.1,3,1.1
		c2.4-0.2,4.9,0,7.3,0.2c1.9,0.2,3.7,0.5,5.6,0.8c1.2,0.2,2.3,0.5,3.5,0.7c1.7,0.4,3.3,0.8,5,1.3c1,0.3,1.7,0.9,1.8,2
		c0.1,1-0.3,1.8-1.2,2.3C157.6,327.7,157.6,327.8,157.5,327.8"/>
	<path fill="#9C9FA4" d="M114.3,328.1c0,0,3.4,1,4.1,2c0.1,0.1-0.2,10.2,0,8.3v0.2c0,0,8.8,2.7,17.4,0.1l0-11.5l6.8-1.3l-1.5-5.6
		c0,0-3.3-0.3-5.3,0c0,0-2.3-1.1-4.1-1.4c0,0-3.8,5-9.2,0.1c0,0-4.6,0.2-5.5,3.2L114.3,328.1z"/>
	<rect x="110.8" y="271.3" fill="none" width="100.5" height="94.1"/>
	<rect x="139.4" y="329.8" fill="#C88B4E" width="33.7" height="8.5"/>
	<g>
		<defs>
			<rect id="SVGID_13_" x="110.8" y="271.3" width="100.5" height="94.1"/>
		</defs>
		<clipPath id="SVGID_14_">
			<use xlink:href="#SVGID_13_"  overflow="visible"/>
		</clipPath>
		<path clip-path="url(#SVGID_14_)" fill="#FFFFFF" d="M157.5,334c0,0.7-0.5,1.2-1.2,1.2c-0.7,0-1.2-0.5-1.2-1.2
			c0-0.7,0.5-1.2,1.2-1.2C156.9,332.8,157.5,333.3,157.5,334"/>
	</g>
	<rect x="139.4" y="338.9" fill="#C88B4E" width="33.7" height="8.5"/>
	<g>
		<defs>
			<rect id="SVGID_15_" x="110.8" y="271.3" width="100.5" height="94.1"/>
		</defs>
		<clipPath id="SVGID_16_">
			<use xlink:href="#SVGID_15_"  overflow="visible"/>
		</clipPath>
		<path clip-path="url(#SVGID_16_)" fill="#FFFFFF" d="M157.5,343.1c0,0.7-0.5,1.2-1.2,1.2c-0.7,0-1.2-0.5-1.2-1.2
			c0-0.7,0.5-1.2,1.2-1.2C156.9,341.9,157.5,342.5,157.5,343.1"/>
	</g>
	<rect x="139.4" y="348.2" fill="#C88B4E" width="33.7" height="8.5"/>
	<g>
		<path fill="#FFFFFF" d="M157.5,352.5c0,0.7-0.5,1.2-1.2,1.2c-0.7,0-1.2-0.5-1.2-1.2c0-0.7,0.5-1.2,1.2-1.2
			C156.9,351.2,157.5,351.8,157.5,352.5"/>
	</g>
	<rect x="174" y="329.8" fill="#C88B4E" width="33.7" height="8.5"/>
	<path fill="#FFFFFF" d="M192.1,334c0,0.7-0.5,1.2-1.2,1.2c-0.7,0-1.2-0.5-1.2-1.2c0-0.7,0.5-1.2,1.2-1.2
		C191.5,332.8,192.1,333.3,192.1,334"/>
	<polyline fill="none" points="112.2,365.9 211.3,365.5 211.3,271.3 112.2,271.7 	"/>
	<rect x="174" y="338.9" fill="#C88B4E" width="33.7" height="8.5"/>
	<path fill="#FFFFFF" d="M192.1,343.1c0,0.7-0.5,1.2-1.2,1.2c-0.7,0-1.2-0.5-1.2-1.2c0-0.7,0.5-1.2,1.2-1.2
		C191.5,341.9,192.1,342.5,192.1,343.1"/>
	<rect x="174" y="348.2" fill="#C88B4E" width="33.7" height="8.5"/>
	<path fill="#FFFFFF" d="M192.1,352.5c0,0.7-0.5,1.2-1.2,1.2c-0.7,0-1.2-0.5-1.2-1.2c0-0.7,0.5-1.2,1.2-1.2
		C191.5,351.2,192.1,351.8,192.1,352.5"/>
	<rect x="208.5" y="329.8" fill="#C88B4E" width="33.7" height="8.5"/>
	<path fill="#FFFFFF" d="M226.6,334c0,0.7-0.5,1.2-1.2,1.2c-0.7,0-1.2-0.5-1.2-1.2c0-0.7,0.5-1.2,1.2-1.2
		C226,332.8,226.6,333.3,226.6,334"/>
	<rect x="208.5" y="338.9" fill="#C88B4E" width="33.7" height="8.5"/>
	<path fill="#FFFFFF" d="M226.6,343.1c0,0.7-0.5,1.2-1.2,1.2c-0.7,0-1.2-0.5-1.2-1.2c0-0.7,0.5-1.2,1.2-1.2
		C226,341.9,226.6,342.5,226.6,343.1"/>
	<rect x="208.5" y="348.2" fill="#C88B4E" width="33.7" height="8.5"/>
	<path fill="#FFFFFF" d="M226.6,352.5c0,0.7-0.5,1.2-1.2,1.2c-0.7,0-1.2-0.5-1.2-1.2c0-0.7,0.5-1.2,1.2-1.2
		C226,351.2,226.6,351.8,226.6,352.5"/>
	<rect x="118.4" y="348.6" fill="#112029" width="6.9" height="9.8"/>
	<rect x="128.8" y="349" fill="#131C28" width="6.9" height="9.7"/>
	<path fill="#292826" d="M139.1,310.1c-0.2-0.4-1-0.3-1.2,0c-0.2,0.3,0,0.7-0.1,1c-0.1,0.2-0.2,0.4-0.4,0.6
		c-0.3,0.4-0.6,0.8-0.8,1.3c-0.1,0.3-0.1,0.4-0.3,0.5c-0.2,0.1-0.9,0-1.1-0.1c-0.5-0.2-0.4-0.8-0.4-1.3c0-0.6,0.1-1.1-0.4-1.5
		c-0.4-0.4-1-0.6-1.5-0.8c-0.6-0.3-1.1-0.5-1.7-0.6c-0.7-0.1-1.4,0.1-2.1,0.1c-1.5,0.2-3.1,0-4.5-0.2c-1.1-0.1-2.4,0-3.5,0.1
		c-1,0.1-1.4,0.4-1.8,1.3c-0.2,0.5-0.2,1-0.3,1.5c0,0.3-0.1,0.9-0.5,1c-0.4,0.1-1-0.5-1.2-0.8c-0.4-0.6-0.5-1.5-1.1-2
		c-0.3-0.3-1-0.3-1.2-0.7l-0.2,0.1c0.2,0.8,0.7,1.4,0.8,2.2c0.1,0.7,0.5,1.2,0.8,1.8c0.4,0.7,0.6,1.1,1.2,1.6
		c0.5,0.4,1.1,0.9,1.7,1.2c0.3,0.1,0.5,0.3,0.7,0.4c0.3,0.1,0.6,0.1,0.9,0.2c0.2,0.1,0.2,0.3,0.4,0.5c0.5,0.3,1.2,0.2,1.7,0.2
		c1.8,0,3.5-0.1,5.2-0.1c1,0,1.3,0.1,2.2,0.1c0.6,0,1.8,0,2.1-0.6c0.4-0.2,1.9-1,2.3-1.2c1-0.7,0.9-1,1.7-1.6
		c0.5-0.3,0.6-0.8,0.9-1.3c0.2-0.6,0.6-1.1,0.7-1.7C138.6,311.1,139.2,310.5,139.1,310.1z M132.8,313.5c-0.4,0.4-1.4,0.6-1.9,0.7
		c-0.5,0.2-0.9,0.4-1.4,0.5c-1.1,0.4-2.8,0.6-4,0.3c-0.4-0.1-0.7-0.3-1-0.5c-0.5-0.2-1-0.3-1.5-0.5c-0.6-0.2-1.2-0.1-1.8-0.4
		c-0.4-0.2-0.9-0.5-1-0.9c0-0.1,0-0.7,0-0.8c0.1-0.3,0.7-0.5,0.8-0.9h0.3c0.3,0.1,0.2-0.1,0.4-0.2c0.2-0.1,0.4-0.1,0.6-0.1
		c0.5,0,1,0,1.4,0.1c0.8,0.1,1.6,0.2,2.4,0.2c1.1,0,2-0.3,3-0.4c1-0.1,2.4-0.1,3.3,0.5C133.2,311.7,133.4,312.9,132.8,313.5z"/>
	<ellipse fill="#2C2B24" cx="126.6" cy="285.5" rx="4.3" ry="3.8"/>
	<path fill="none" stroke="#000000" stroke-miterlimit="10" d="M116.5,336.3c0,0-0.1,4.5,0.3,5.8"/>
	<path fill="none" stroke="#000000" stroke-miterlimit="10" d="M146.1,323.1c0,0,5.3,0.4,6.7,1.5"/>
	<path fill="#616262" d="M319.1,359.6c0,3.3-0.6,5.9-1.3,5.9c-0.7,0-1.3-2.6-1.3-5.9c0-3.3,0.6-5.9,1.3-5.9
		C318.5,353.7,319.1,356.3,319.1,359.6"/>
	<path fill="#616262" d="M322.7,357.9c0,2.4-0.4,4.3-1,4.3c-0.5,0-1-1.9-1-4.3c0-2.4,0.4-4.3,1-4.3
		C322.2,353.6,322.7,355.5,322.7,357.9"/>
	<path fill="#616262" d="M348.6,359.6c0,3.3-0.6,5.9-1.3,5.9c-0.7,0-1.3-2.6-1.3-5.9c0-3.3,0.6-5.9,1.3-5.9
		C348,353.7,348.6,356.3,348.6,359.6"/>
	<path fill="#616262" d="M343.9,357.9c0,2.4-0.4,4.3-1,4.3c-0.5,0-1-1.9-1-4.3c0-2.4,0.4-4.3,1-4.3
		C343.5,353.6,343.9,355.5,343.9,357.9"/>
	<rect x="287.4" y="271.3" fill="none" width="100.5" height="94.1"/>
	<rect x="312.3" y="318.4" fill="#DFB7D6" width="40" height="39.5"/>
	<path fill="#5A93B7" d="M308.3,344c0,1.6,0,3.3,0,4.9c-2.3,0-4.7,0-7,0c-0.3,0-0.3-0.2-0.3-0.4v-4.7c0-0.2,0-0.4,0-0.6
		c-0.1-0.8-0.4-1.1-1.2-1.3c-0.5-0.1-0.9-0.1-1.4,0c-0.6,0.1-1,0.4-1.1,1c0,0.2-0.1,0.5-0.1,0.7c0,1.7,0,3.4,0,5.1h-7.3
		c0-1.7,0-3.3,0-5c0-0.1,0-0.3,0-0.4c0-5.6,0-11.1,0-16.7c0-0.6,0.1-1,0.5-1.5c1.8-2.4,2.4-5.2,2.4-8.2c0.5-0.1,0.9-0.3,1.4-0.2
		c0,0.2,0.1,0.4,0.1,0.6c0.1,1.2,0.5,2.2,1.5,3c1,0.8,2.2,0.9,3.4,1c0.4,0,0.9,0,1.3-0.1c0.9-0.2,1.8-0.6,2.4-1.3
		c0.8-0.9,1-2,1.1-3.2c0.5,0.1,0.9,0.2,1.4,0.2c0,0.5,0,0.9,0.1,1.4c0.1,0.9,0.2,1.8,0.4,2.6c0.4,1.5,0.9,3,1.9,4.2
		c0.4,0.5,0.5,1.1,0.5,1.7c0,3.6,0,7.1,0,10.7C308.3,339.7,308.3,341.9,308.3,344"/>
	<path fill="#D29674" d="M312.5,301.5c-0.1,0.5-0.2,1.1-0.4,1.7c-0.4-0.4-0.6-0.8-0.8-1.3c-0.9-1.7-1.5-3.5-1.8-5.3
		c-0.1-0.8-0.2-1.7-0.2-2.5c0-0.2,0-0.3-0.3-0.2c-0.9,0.3-0.4-6.5-4.2-5.8c-1.9,0.3-9,1.2-10.9,1.4c-1,0.1-3.4,1.2-4.4,1.3
		c-1,0.1-1.1,3.9-2.2,4c-2,0.1-1.2,1.7,0,1.8c0.3,0,1.4,0.3,1.3,0.6c-0.3,1.4-0.8,2.8-1.3,4.2c-0.3,0.7-0.6,1.3-1.1,1.9
		c-0.2-0.6-0.3-1.1-0.3-1.7c-0.8,0-1.1,0.3-1.1,1.1c0,0.6,0.1,1.2,0.2,1.8c0.2,0.7,0.5,1.3,0.5,2.1c0,0.4,0.4,0.8,0.9,0.7
		c0.2,0,0.3,0,0.4,0.3c0,0.1,0,0.2,0.1,0.3c0.6,2.2,1.6,4.1,3.4,5.5c1.3,1,2.8,1.7,4.3,2.1c0.1,0,0.3,0,0.3,0.2c0,0.3,0.1,0.7,0,1
		c0,0.2-0.3,0.1-0.5,0.2c0,0-0.1,0.1-0.1,0.1c0,0.2,0.1,0.4,0.1,0.6c0.1,1.2,0.5,2.2,1.5,3c1,0.8,2.2,0.9,3.4,1c0.4,0,0.9,0,1.3-0.1
		c0.9-0.2,1.8-0.6,2.4-1.3c0.8-0.9,1-2,1.1-3.2c-0.1,0-0.2-0.1-0.3-0.1c-0.3,0-0.3-0.1-0.3-0.4c0-0.8,0-0.8,0.7-1
		c0.1,0,0.1,0,0.2-0.1c2.2-0.6,4.1-1.8,5.5-3.7c0.9-1.3,1.5-2.7,1.9-4.2c0-0.2,0.1-0.3,0.3-0.2c0.6,0.1,1-0.3,1-0.9
		c0-0.4,0.1-0.7,0.2-1.1c0.3-0.8,0.5-1.7,0.5-2.6C313.6,302,313.3,301.5,312.5,301.5"/>
	<path fill="#D8D43A" d="M312.5,301.5c-0.1,0.5-0.2,1.1-0.4,1.7c-0.4-0.4-0.6-0.8-0.8-1.3c-0.9-1.7-1.5-3.4-1.8-5.3
		c-0.1-0.8-0.4-0.5-0.3-1.4c0-0.2-0.1-1.1-0.3-1.3c-1.1-1.1-0.8-5.1-4.2-4.5c-1.9,0.3-3.5,0.1-5.4,0.3c-1,0.1-4.4,0-5.4,0.1
		c-1,0.1-2.8,1.8-3.8,1.8c-0.4,0-0.7,2-1.1,1.9c-0.3,0-0.2,3.3-0.2,3.5c-0.3,1.4-0.8,2.8-1.3,4.2c-0.3,0.7-0.6,1.3-1.1,1.9
		c-0.2-0.6-1.4,0-1.5-0.5c-0.4-2.6-1.3-9.2-0.7-11.8c0.9-3.5,2-5.1,5.3-6.7c4.9-2.3,14.9-2.5,19.7,0c3.3,1.7,5,6.8,5.5,10.4
		c0.4,2.3-0.5,5.8-0.9,8.1C313.6,302.7,312.5,301.5,312.5,301.5"/>
	<path fill="#D29674" d="M292.8,317.1c0,3-0.6,5.8-2.4,8.2c-0.4,0.5-0.5,0.9-0.5,1.5c0,5.6,0,11.1,0,16.7c0,0.1,0,0.3,0,0.4
		c-1.1,1.1-2.4,1.3-3.5,0.3c-0.5-0.4-0.8-0.9-0.8-1.6c-0.1-1.8,0-3.6,0.1-5.4c0.1-1.7,0.2-3.5,0.4-5.2c0.4-4,1-7.9,2.3-11.8
		c0.4-1.1,1-1.9,2-2.4C291.1,317.5,291.9,317.2,292.8,317.1"/>
	<path fill="#D29674" d="M300.9,343.3c0.1,0.2,0,0.4,0,0.6v4.7c0,0.2,0,0.4,0.3,0.4c2.3,0,4.7,0,7,0c0,3.3,0,6.6,0,9.9
		c0,0.4,0,0.7,0,1.1c-0.2,0-0.3,0.1-0.5,0.1c-2.3,0.5-4.6,1-6.8,1.4c0-0.2,0-0.4,0-0.5c0-3.8,0-7.6,0-11.4c0-1.9,0-3.9,0-5.8
		C300.9,343.5,300.9,343.4,300.9,343.3"/>
	<path fill="#D29674" d="M289.9,348.9h7.3c0,4.2,0,8.4,0,12.6c-1.4-0.3-2.9-0.6-4.3-0.9c-1-0.2-2-0.4-3-0.7v-10.5
		C289.9,349.2,289.9,349.1,289.9,348.9"/>
	<path fill="#2C3D52" d="M289.9,359.9c1,0.2,2,0.5,3,0.7c1.4,0.3,2.9,0.6,4.3,0.9c0,0.9,0,0.9-0.9,0.9c-2.5,0-5,0-7.5,0
		c-0.3,0-0.4-0.1-0.4-0.4C288.6,361,288.9,360.2,289.9,359.9"/>
	<path fill="#2C3D52" d="M301,361.5c2.3-0.5,4.5-1,6.8-1.5c0.2,0,0.3-0.1,0.5-0.1c1,0.4,1.4,1.2,1.5,2.2c0,0.2,0,0.3-0.2,0.3
		c-2.8,0-5.5,0-8.3,0c-0.2,0-0.3-0.1-0.3-0.3C301,361.9,301,361.7,301,361.5"/>
	<path fill="none" stroke="#1C1C1C" stroke-linecap="round" stroke-linejoin="round" stroke-miterlimit="10" d="M293.5,309.5
		c0,0,5,4.3,11,0"/>
	<path fill="#1F1F1F" d="M296.5,301.1c0,0.9-0.8,1.7-1.8,1.7c-1,0-1.8-0.8-1.8-1.7s0.8-1.7,1.8-1.7
		C295.7,299.4,296.5,300.1,296.5,301.1"/>
	<path fill="#1F1F1F" d="M304.7,301.1c0,0.9-0.8,1.7-1.8,1.7c-1,0-1.8-0.8-1.8-1.7s0.8-1.7,1.8-1.7
		C303.8,299.4,304.7,300.1,304.7,301.1"/>
	<path fill="#D29674" d="M332.6,319.3c-2-0.2-4-0.4-6-0.5c-3.4-0.3-5.2-0.1-8.5-0.4c-0.6-0.1-1.8,0-3,0.2c-1.5,0.3-2.6,0.6-3.6,1.4
		c-0.7,0.5-3,6-3.7,5.5c-1.6-1.3-2.3-4.6-2.2-4.2c-0.7-2-0.5-3-0.2-4c0.1-0.5,3.9-1.2,4.4-1.3c2.4-0.6,4.8-0.9,7.2-1.1
		c1.9-0.1,3.7-0.2,5.6-0.2c1.2,0,2.4,0,3.5,0.1c1.7,0.1,3.4,0.2,5.1,0.3c1.1,0.1,1.8,0.6,2.2,1.6c0.3,1,0,1.8-0.8,2.5
		C332.6,319.2,332.6,319.2,332.6,319.3"/>
	<rect x="287.4" y="271.3" fill="none" width="100.5" height="94.1"/>
	<rect x="316" y="329.8" fill="#DA98C2" width="33.7" height="8.5"/>
	<g>
		<defs>
			<rect id="SVGID_17_" x="287.4" y="271.3" width="100.5" height="94.1"/>
		</defs>
		<clipPath id="SVGID_18_">
			<use xlink:href="#SVGID_17_"  overflow="visible"/>
		</clipPath>
		<path clip-path="url(#SVGID_18_)" fill="#FFFFFF" d="M334,334c0,0.7-0.5,1.2-1.2,1.2c-0.7,0-1.2-0.5-1.2-1.2
			c0-0.7,0.5-1.2,1.2-1.2C333.5,332.8,334,333.3,334,334"/>
	</g>
	<rect x="316" y="320.4" fill="#DA98C2" width="33.7" height="8.5"/>
	<g>
		<defs>
			<rect id="SVGID_19_" x="287.4" y="262" width="100.5" height="94.1"/>
		</defs>
		<clipPath id="SVGID_20_">
			<use xlink:href="#SVGID_19_"  overflow="visible"/>
		</clipPath>
		<path clip-path="url(#SVGID_20_)" fill="#FFFFFF" d="M334,324.7c0,0.7-0.5,1.2-1.2,1.2c-0.7,0-1.2-0.5-1.2-1.2
			c0-0.7,0.5-1.2,1.2-1.2C333.5,323.5,334,324,334,324.7"/>
	</g>
	<rect x="316" y="338.9" fill="#DA98C2" width="33.7" height="8.5"/>
	<g>
		<defs>
			<rect id="SVGID_21_" x="287.4" y="271.3" width="100.5" height="94.1"/>
		</defs>
		<clipPath id="SVGID_22_">
			<use xlink:href="#SVGID_21_"  overflow="visible"/>
		</clipPath>
		<path clip-path="url(#SVGID_22_)" fill="#FFFFFF" d="M334,343.1c0,0.7-0.5,1.2-1.2,1.2c-0.7,0-1.2-0.5-1.2-1.2
			c0-0.7,0.5-1.2,1.2-1.2C333.5,341.9,334,342.5,334,343.1"/>
	</g>
	<rect x="316" y="348.2" fill="#DA98C2" width="33.7" height="8.5"/>
	<g>
		<path fill="#FFFFFF" d="M334,352.5c0,0.7-0.5,1.2-1.2,1.2c-0.7,0-1.2-0.5-1.2-1.2c0-0.7,0.5-1.2,1.2-1.2
			C333.5,351.2,334,351.8,334,352.5"/>
	</g>
	<rect x="289.9" y="348.1" fill="#5A93B7" width="7.3" height="10.3"/>
	<rect x="301" y="348.6" fill="#5A93B7" width="7.3" height="10.2"/>
	<ellipse fill="#D8D43A" cx="298.6" cy="281.5" rx="4.6" ry="4"/>
	<rect x="557.1" y="272.1" fill="none" width="100.5" height="94.1"/>
	<path fill="#112029" d="M578.9,343.1c0,1.8,0,3.5,0,5.3c-2.5,0-5,0-7.5,0c-0.3,0-0.3-0.2-0.3-0.4v-5c0-0.2,0-0.4,0-0.7
		c-0.1-0.8-0.4-1.2-1.3-1.3c-0.5-0.1-1-0.1-1.5,0c-0.7,0.1-1,0.5-1.1,1.1c0,0.2-0.1,0.5-0.1,0.7c0,1.8,0,3.7,0,5.5h-7.8
		c0-1.8,0-3.6,0-5.4c0-0.2,0-0.3,0-0.5c0-6,0-11.9,0-17.9c0-0.6,0.1-1.1,0.5-1.6c1.9-2.6,2.6-5.6,2.5-8.8c0.5-0.1,1-0.3,1.5-0.2
		c0,0.2,0.1,0.4,0.1,0.6c0.1,1.3,0.6,2.3,1.6,3.2c1.1,0.9,2.3,1,3.6,1.1c0.4,0,0.9,0,1.4-0.1c1-0.2,1.9-0.6,2.6-1.4
		c0.9-1,1.1-2.2,1.2-3.4c0.5,0.1,1,0.2,1.5,0.2c0,0.5,0,1,0.1,1.5c0.1,1,0.2,1.9,0.4,2.8c0.4,1.6,1,3.2,2.1,4.5
		c0.5,0.6,0.6,1.1,0.6,1.8c0,3.8,0,7.6,0,11.4C578.9,338.5,578.9,340.8,578.9,343.1"/>
	<path fill="#2C2B24" d="M583.4,297.6c-0.1,0.6-0.2,1.1-0.4,1.8c-0.4-0.4-0.6-0.9-0.9-1.4c-1-1.8-1.6-3.7-2-5.7
		c-0.1-0.9-0.3-1.8-0.2-2.7c0-0.2,0-0.2-0.3-0.3c-2.9-0.7-3.2-5.1-4.7-4.8c-2,0.4-3.7,0.1-5.8,0.4c-1.1,0.1-4.8,0-5.8,0.1
		c-1.1,0.1-3,1.8-4.1,1.8c-0.4,0,0,2.6-0.4,2.5c-0.3,0-1,3.2-1,3.4c-0.4,1.5-0.8,3.1-1.4,4.5c-0.3,0.7-0.6,1.4-1.2,2.1
		c-0.2-0.6-1.5,0-1.6-0.6c-0.4-2.8-1.4-9.9-0.7-12.7c1-3.8,2.1-5.5,5.7-7.2c5.3-2.5,15.9-2.7,21.2,0c3.6,1.8,5.3,7.2,6,11.2
		c0.4,2.5-0.5,6.2-0.9,8.7C584.6,298.8,583.4,297.5,583.4,297.6"/>
	<path fill="#D6A38E" d="M562.3,314.2c0,3.2-0.6,6.2-2.5,8.8c-0.4,0.5-0.5,1-0.5,1.6c0,6,0,12,0,17.9c0,0.2,0,0.3,0,0.5
		c-1.2,1.2-2.6,1.4-3.8,0.3c-0.5-0.4-0.8-1-0.8-1.7c-0.1-1.9,0-3.8,0.1-5.8c0.1-1.9,0.2-3.7,0.4-5.6c0.4-4.3,1.1-8.5,2.5-12.6
		c0.4-1.2,1-2,2.1-2.6C560.5,314.7,561.3,314.4,562.3,314.2"/>
	<path fill="#D6A38E" d="M571,342.3c0.1,0.2,0,0.4,0,0.7v5c0,0.2,0,0.4,0.3,0.4c2.5,0,5,0,7.5,0c0,3.5,0,7.1,0,10.6
		c0,0.4,0,0.8,0,1.2c-0.2,0-0.3,0.1-0.5,0.1c-2.4,0.5-4.9,1-7.3,1.6c0-0.2,0-0.4,0-0.6c0-4.1,0-8.2,0-12.2c0-2.1,0-4.2,0-6.3
		C571,342.6,571,342.5,571,342.3"/>
	<path fill="#D6A38E" d="M559.2,348.4h7.8c0,4.5,0,9,0,13.5c-1.5-0.3-3.1-0.6-4.6-1c-1.1-0.2-2.1-0.5-3.2-0.7v-11.3
		C559.2,348.7,559.2,348.6,559.2,348.4"/>
	<path fill="#D8D4C2" d="M559.2,360.2c1.1,0.2,2.1,0.5,3.2,0.7c1.5,0.3,3.1,0.6,4.6,1c0,1,0,1-1,1c-2.7,0-5.4,0-8,0
		c-0.4,0-0.5-0.1-0.4-0.4C557.7,361.4,558.1,360.5,559.2,360.2"/>
	<path fill="#D8D4C2" d="M571,361.9c2.4-0.5,4.9-1,7.3-1.6c0.2,0,0.3-0.1,0.5-0.1c1.1,0.4,1.5,1.3,1.6,2.4c0,0.2,0,0.3-0.3,0.3
		c-3,0-5.9,0-8.9,0c-0.2,0-0.3-0.1-0.3-0.3C571,362.3,571,362.1,571,361.9"/>
	<path fill="none" stroke="#1C1C1C" stroke-linecap="round" stroke-linejoin="round" stroke-miterlimit="10" d="M563,306.1
		c0,0,5.4,4.7,11.8,0"/>
	<path fill="#1F1F1F" d="M566.2,297.1c0,1-0.9,1.8-2,1.8c-1.1,0-2-0.8-2-1.8c0-1,0.9-1.8,2-1.8C565.3,295.2,566.2,296,566.2,297.1"
		/>
	<path fill="#1F1F1F" d="M575,297.1c0,1-0.9,1.8-2,1.8c-1.1,0-2-0.8-2-1.8c0-1,0.9-1.8,2-1.8C574.1,295.2,575,296,575,297.1"/>
	<path fill="#D6A38E" d="M602.7,329.8c-2-1.1-4-2.2-5.9-3.3c-3.3-1.9-5.3-2.5-8.6-4.4c-0.6-0.4-1.9-0.9-3.2-1.2
		c-1.6-0.4-3-0.6-4.4-0.2c-0.9,0.2-1.5,3.1-2.3,2.7c-0.5-0.2-1.5-5.3-1.4-4.8c-0.3-1.7-0.1-1.7,0.7-2.6c0.4-0.5,2.6-0.3,3.2-0.2
		c2.7,0.5,5.4,1.2,8,2.2c2,0.7,4,1.5,5.9,2.4c1.2,0.5,2.4,1.1,3.6,1.7c1.7,0.9,3.5,1.8,5.2,2.7c1.1,0.6,1.6,1.5,1.5,2.7
		c-0.1,1.2-0.8,1.9-2,2.2C602.8,329.7,602.7,329.7,602.7,329.8"/>
	<path fill="#C093C1" d="M585.2,322.7l-0.1-6.4c0,0-3.9-1.3-6.1-1c0,0-2.8-1.4-4.7-1.4c0,0-4.3,5.7-10.5,0.1c0,0-5.3,0.2-6.2,3.7
		l-3,6.6c0,0,3.9,1.1,4.7,2.3c0.1,0.1-0.2,11.5,0,9.4v0.2c0,0,10,3,19.7,0.1l0-13C578.9,323.3,578.4,322.7,585.2,322.7z"/>
	<rect x="557.1" y="272.1" fill="none" width="100.5" height="94.1"/>
	<rect x="585.6" y="330.5" fill="#77C04E" width="33.7" height="8.5"/>
	<g>
		<defs>
			<rect id="SVGID_23_" x="557.1" y="272.1" width="100.5" height="94.1"/>
		</defs>
		<clipPath id="SVGID_24_">
			<use xlink:href="#SVGID_23_"  overflow="visible"/>
		</clipPath>
		<path clip-path="url(#SVGID_24_)" fill="#FFFFFF" d="M603.7,334.7c0,0.7-0.5,1.2-1.2,1.2c-0.7,0-1.2-0.5-1.2-1.2
			c0-0.7,0.5-1.2,1.2-1.2C603.1,333.5,603.7,334.1,603.7,334.7"/>
	</g>
	<rect x="585.6" y="339.7" fill="#77C04E" width="33.7" height="8.5"/>
	<g>
		<defs>
			<rect id="SVGID_25_" x="557.1" y="272.1" width="100.5" height="94.1"/>
		</defs>
		<clipPath id="SVGID_26_">
			<use xlink:href="#SVGID_25_"  overflow="visible"/>
		</clipPath>
		<path clip-path="url(#SVGID_26_)" fill="#FFFFFF" d="M603.7,343.9c0,0.7-0.5,1.2-1.2,1.2c-0.7,0-1.2-0.5-1.2-1.2
			c0-0.7,0.5-1.2,1.2-1.2C603.1,342.7,603.7,343.2,603.7,343.9"/>
	</g>
	<rect x="585.6" y="349" fill="#77C04E" width="33.7" height="8.5"/>
	<g>
		<path fill="#FFFFFF" d="M603.7,353.2c0,0.7-0.5,1.2-1.2,1.2c-0.7,0-1.2-0.5-1.2-1.2c0-0.7,0.5-1.2,1.2-1.2
			C603.1,352,603.7,352.5,603.7,353.2"/>
	</g>
	<polyline fill="none" points="558.4,366.6 657.6,366.2 657.6,272.1 558.4,272.5 	"/>
	<rect x="620.3" y="339.7" fill="#77C04E" width="33.7" height="8.5"/>
	<path fill="#FFFFFF" d="M638.3,343.9c0,0.7-0.5,1.2-1.2,1.2c-0.7,0-1.2-0.5-1.2-1.2c0-0.7,0.5-1.2,1.2-1.2
		C637.8,342.7,638.3,343.2,638.3,343.9"/>
	<rect x="620.3" y="349" fill="#77C04E" width="33.7" height="8.5"/>
	<path fill="#FFFFFF" d="M638.3,353.2c0,0.7-0.5,1.2-1.2,1.2c-0.7,0-1.2-0.5-1.2-1.2c0-0.7,0.5-1.2,1.2-1.2
		C637.8,352,638.3,352.5,638.3,353.2"/>
	<rect x="654.7" y="349" fill="#77C04E" width="33.7" height="8.5"/>
	<path fill="#FFFFFF" d="M672.8,353.2c0,0.7-0.5,1.2-1.2,1.2c-0.7,0-1.2-0.5-1.2-1.2c0-0.7,0.5-1.2,1.2-1.2
		C672.2,352,672.8,352.5,672.8,353.2"/>
	<path fill="none" stroke="#000000" stroke-miterlimit="10" d="M557.4,340.3"/>
	<path fill="none" stroke="#000000" stroke-miterlimit="10" d="M557,333.7"/>
	<path fill="none" stroke="#1C1C1C" stroke-linecap="round" stroke-linejoin="round" stroke-miterlimit="10" d="M563.2,306.1
		c0,0,5.3,4.7,11.7,0"/>
	<path fill="#D1A6C2" d="M561.9,314.2l5.4,5.5c0,0,0.9-3.2,1.4-3c0,0-3-1.4-3.7-1.9c0,0-1.2-0.9-1.6-0.9L561.9,314.2z"/>
	<path fill="#D1A6C2" d="M576.2,314.1l-5.4,5.5c0,0-0.9-3.2-1.4-3c0,0,3-1.4,3.7-1.9c0,0,1.2-0.9,1.6-0.9L576.2,314.1z"/>
	<ellipse fill="#2C2B24" cx="562.8" cy="277.4" rx="1.5" ry="1.1"/>
	<ellipse fill="#2C2B24" cx="564.8" cy="277.6" rx="1.5" ry="1.1"/>
	<ellipse fill="#2C2B24" cx="567" cy="277.4" rx="1.5" ry="1.1"/>
	<ellipse fill="#2C2B24" cx="569.6" cy="276.6" rx="1.5" ry="1.1"/>
	<ellipse fill="#2C2B24" cx="571.9" cy="277" rx="1.5" ry="1.1"/>
	<ellipse fill="#2C2B24" cx="573.8" cy="277.6" rx="1.5" ry="1.1"/>
	<ellipse fill="#2C2B24" cx="574.8" cy="276.6" rx="1.5" ry="1.1"/>
	<ellipse fill="#2C2B24" cx="577.1" cy="277" rx="1.5" ry="1.1"/>
	<ellipse fill="#2C2B24" cx="578.2" cy="278.4" rx="1.5" ry="1.1"/>
	<ellipse fill="#2C2B24" cx="580.8" cy="280.6" rx="1.5" ry="1.6"/>
	<ellipse fill="#2C2B24" cx="582.3" cy="282.1" rx="1.5" ry="1.6"/>
	<ellipse fill="#2C2B24" cx="584" cy="285.9" rx="1.5" ry="1.6"/>
	<ellipse fill="#2C2B24" cx="582.8" cy="284.4" rx="1.5" ry="1.6"/>
	<ellipse fill="#2C2B24" cx="585.4" cy="288.4" rx="1.5" ry="1.6"/>
	<ellipse fill="#2C2B24" cx="585.6" cy="291.1" rx="1.2" ry="1.6"/>
	<ellipse fill="#2C2B24" cx="586" cy="293.7" rx="1.2" ry="1.6"/>
	<ellipse fill="#2C2B24" cx="584.6" cy="295.5" rx="1.2" ry="1.6"/>
	<ellipse fill="#2C2B24" cx="571.3" cy="277.1" rx="1.5" ry="1.6"/>
	<ellipse fill="#2C2B24" cx="579.4" cy="279.5" rx="1.5" ry="1.1"/>
	<ellipse fill="#2C2B24" cx="573" cy="276.3" rx="1.5" ry="1.1"/>
	<ellipse fill="#2C2B24" cx="576.5" cy="278.2" rx="1.5" ry="1.1"/>
	<ellipse fill="#2C2B24" cx="553.2" cy="291.1" rx="1.5" ry="1.1"/>
	
		<ellipse transform="matrix(-0.4998 -0.8661 0.8661 -0.4998 575.1277 918.2237)" fill="#2C2B24" cx="552.7" cy="293.1" rx="1.5" ry="1.1"/>
	
		<ellipse transform="matrix(-0.4995 -0.8663 0.8663 -0.4995 573.6059 922.2744)" fill="#2C2B24" cx="553.2" cy="295.4" rx="1.5" ry="1.1"/>
	
		<ellipse transform="matrix(-0.4998 -0.8662 0.8662 -0.4998 572.7695 924.9116)" fill="#2C2B24" cx="553.5" cy="297.1" rx="1.5" ry="1.1"/>
	<ellipse fill="#2C2B24" cx="560.6" cy="278.4" rx="2.1" ry="1.5"/>
	<ellipse fill="#2C2B24" cx="558.1" cy="279.2" rx="1.5" ry="1.1"/>
	<ellipse fill="#2C2B24" cx="556.7" cy="280.6" rx="1.5" ry="1.1"/>
	<ellipse fill="#2C2B24" cx="555.6" cy="281.6" rx="1.5" ry="1.1"/>
	<ellipse fill="#2C2B24" cx="554.9" cy="283.2" rx="1.5" ry="1.1"/>
	<ellipse fill="#2C2B24" cx="553" cy="284.7" rx="1.5" ry="1.1"/>
	<ellipse fill="#2C2B24" cx="552.7" cy="289.5" rx="1.5" ry="1.1"/>
	
		<ellipse transform="matrix(-0.9377 0.3473 -0.3473 -0.9377 1171.5123 363.1971)" fill="#2C2B24" cx="553.2" cy="286.6" rx="1.5" ry="1.1"/>
	
		<ellipse transform="matrix(-0.9378 0.3473 -0.3473 -0.9378 1171.4591 360.0151)" fill="#2C2B24" cx="553.5" cy="285" rx="1.5" ry="1.1"/>
	
		<ellipse transform="matrix(-0.9378 0.347 -0.347 -0.9378 1171.3972 362.4322)" fill="#2C2B24" cx="553.2" cy="286.1" rx="1.5" ry="1.1"/>
	
		<ellipse transform="matrix(-0.9377 0.3474 -0.3474 -0.9377 1171.4954 355.6122)" fill="#2C2B24" cx="553.9" cy="282.8" rx="1.5" ry="1.1"/>
	
		<ellipse transform="matrix(-0.3481 0.9375 -0.9375 -0.3481 1013.9412 -129.6426)" fill="#2C2B24" cx="552" cy="287.7" rx="1.5" ry="1.1"/>
	
		<ellipse transform="matrix(-0.9378 0.3473 -0.3473 -0.9378 1172.4113 365.3279)" fill="#2C2B24" cx="553.5" cy="287.7" rx="1.5" ry="1.1"/>
	<path fill="#1F1F1F" d="M567,361.9"/>
	<polygon fill="#638EC4" points="559.2,356 567,355.9 567,361.9 559.2,360.2 	"/>
	<polygon fill="#638EC4" points="578.9,356 571.1,355.9 571.1,361.9 578.9,360.2 	"/>
	<line stroke="#B281B0" stroke-width="0.5" stroke-miterlimit="10" x1="569.8" y1="319.6" x2="569.8" y2="336.2"/>
	<circle fill="#112029" cx="568.5" cy="320.9" r="0.5"/>
	<circle fill="#112029" cx="568.5" cy="325.7" r="0.5"/>
	<circle fill="#112029" cx="568.5" cy="335.3" r="0.5"/>
	<circle fill="#112029" cx="568.5" cy="330.5" r="0.5"/>
	<path fill="#112029" d="M600.5,322.7c0,0,1.2,0.7,1.3,0.7c0.1,0-1.7,3.7-1.7,4.9l-1.7-0.9C598.4,327.4,600.3,323.8,600.5,322.7z"/>
	<g>
		<path fill="#231F20" d="M136.6,201.1h6.7v0.9h-7.7v-14.2h1V201.1z"/>
		<path fill="#231F20" d="M148.8,191.8c0.6,0,1.1,0.1,1.6,0.3s0.9,0.5,1.2,0.8c0.4,0.4,0.6,0.8,0.8,1.4c0.2,0.5,0.3,1.2,0.3,1.9
			c0,0.1,0,0.2-0.1,0.3c0,0.1-0.1,0.1-0.2,0.1h-7.2v0.2c0,0.7,0.1,1.4,0.3,2c0.2,0.6,0.4,1,0.7,1.4c0.3,0.4,0.7,0.7,1.2,0.9
			c0.5,0.2,1,0.3,1.5,0.3c0.5,0,0.9-0.1,1.3-0.2s0.7-0.2,0.9-0.4c0.3-0.1,0.4-0.3,0.6-0.4c0.1-0.1,0.3-0.2,0.3-0.2
			c0.1,0,0.2,0,0.2,0.1l0.3,0.3c-0.2,0.2-0.4,0.4-0.6,0.6c-0.3,0.2-0.6,0.3-0.9,0.4c-0.3,0.1-0.7,0.2-1,0.3s-0.7,0.1-1.1,0.1
			c-0.7,0-1.3-0.1-1.9-0.4c-0.6-0.2-1-0.6-1.4-1c-0.4-0.5-0.7-1-0.9-1.7c-0.2-0.7-0.3-1.4-0.3-2.3c0-0.7,0.1-1.4,0.3-2
			c0.2-0.6,0.5-1.1,0.9-1.6c0.4-0.4,0.9-0.8,1.4-1C147.4,191.9,148.1,191.8,148.8,191.8z M148.8,192.5c-0.5,0-1,0.1-1.4,0.2
			c-0.4,0.2-0.8,0.4-1.1,0.7s-0.5,0.7-0.7,1.1s-0.3,0.9-0.4,1.4h6.6c0-0.5-0.1-1-0.2-1.4c-0.1-0.4-0.4-0.8-0.6-1.1
			c-0.3-0.3-0.6-0.5-1-0.7C149.6,192.6,149.2,192.5,148.8,192.5z"/>
		<path fill="#231F20" d="M158,202.1c-0.7,0-1.2-0.2-1.6-0.6c-0.4-0.4-0.6-1-0.6-1.7V193h-1.4c-0.1,0-0.1,0-0.2-0.1
			c0,0-0.1-0.1-0.1-0.2v-0.4l1.7-0.1l0.2-3.6c0-0.1,0-0.1,0.1-0.2c0,0,0.1-0.1,0.2-0.1h0.4v3.8h3.1v0.7h-3.1v6.8
			c0,0.3,0,0.5,0.1,0.7c0.1,0.2,0.2,0.4,0.3,0.5s0.3,0.2,0.4,0.3c0.2,0.1,0.3,0.1,0.5,0.1c0.2,0,0.4,0,0.6-0.1s0.3-0.1,0.5-0.2
			s0.2-0.2,0.3-0.2c0.1-0.1,0.1-0.1,0.2-0.1c0.1,0,0.1,0,0.2,0.1l0.3,0.4c-0.3,0.3-0.6,0.5-1,0.7C158.8,202,158.4,202.1,158,202.1z"
			/>
		<path fill="#231F20" d="M163.2,187.1c0.1,0.3,0.3,0.5,0.3,0.8c0.1,0.3,0.1,0.5,0.1,0.8c0,0.5-0.1,1-0.4,1.5s-0.6,0.9-1,1.3
			l-0.3-0.2c0,0-0.1-0.1-0.1-0.1c0-0.1,0-0.1,0.1-0.1c0.3-0.3,0.5-0.7,0.6-1s0.3-0.7,0.3-1c0-0.4-0.1-0.8-0.4-1.2c0-0.1,0-0.1,0-0.2
			c0-0.1,0-0.2,0.2-0.2L163.2,187.1z"/>
		<path fill="#231F20" d="M171.8,193.2c0,0.1-0.1,0.1-0.2,0.1c-0.1,0-0.2,0-0.3-0.1s-0.3-0.2-0.5-0.3c-0.2-0.1-0.4-0.2-0.7-0.3
			s-0.6-0.1-1-0.1c-0.4,0-0.7,0.1-1,0.2c-0.3,0.1-0.6,0.2-0.8,0.4c-0.2,0.2-0.4,0.4-0.5,0.6c-0.1,0.2-0.2,0.5-0.2,0.7
			c0,0.3,0.1,0.6,0.2,0.8s0.4,0.4,0.6,0.5c0.3,0.1,0.6,0.3,0.9,0.4c0.3,0.1,0.7,0.2,1,0.3c0.3,0.1,0.7,0.2,1,0.4
			c0.3,0.1,0.6,0.3,0.9,0.5c0.3,0.2,0.5,0.4,0.6,0.7c0.2,0.3,0.2,0.6,0.2,1c0,0.4-0.1,0.8-0.2,1.2s-0.4,0.7-0.7,1
			c-0.3,0.3-0.7,0.5-1.1,0.7c-0.4,0.2-0.9,0.2-1.5,0.2c-0.7,0-1.3-0.1-1.8-0.3s-1-0.5-1.4-0.9l0.2-0.3c0-0.1,0.1-0.1,0.1-0.1
			s0.1,0,0.2,0c0.1,0,0.2,0.1,0.3,0.2s0.3,0.2,0.5,0.3s0.5,0.2,0.8,0.3s0.7,0.2,1.1,0.2c0.4,0,0.8-0.1,1.1-0.2
			c0.3-0.1,0.6-0.3,0.8-0.5c0.2-0.2,0.4-0.4,0.5-0.7c0.1-0.3,0.2-0.6,0.2-0.9c0-0.3-0.1-0.6-0.2-0.8c-0.2-0.2-0.4-0.4-0.6-0.6
			c-0.3-0.2-0.6-0.3-0.9-0.4s-0.7-0.2-1-0.3s-0.7-0.2-1-0.4c-0.3-0.1-0.6-0.3-0.9-0.5s-0.5-0.4-0.6-0.7c-0.2-0.3-0.2-0.6-0.2-1
			c0-0.4,0.1-0.7,0.2-1c0.2-0.3,0.4-0.6,0.7-0.9c0.3-0.2,0.6-0.4,1-0.6c0.4-0.1,0.9-0.2,1.4-0.2c0.6,0,1.1,0.1,1.6,0.3
			s0.9,0.4,1.3,0.8L171.8,193.2z"/>
		<path fill="#231F20" d="M185.4,193.3C185.4,193.3,185.3,193.4,185.4,193.3c-0.1,0.1-0.2,0.1-0.2,0.1c-0.1,0-0.2,0-0.3-0.1
			c-0.1-0.1-0.3-0.2-0.5-0.3c-0.2-0.1-0.4-0.2-0.7-0.3c-0.3-0.1-0.6-0.1-1.1-0.1c-0.6,0-1.1,0.1-1.5,0.3c-0.4,0.2-0.8,0.5-1.1,0.9
			s-0.5,0.8-0.7,1.4c-0.2,0.5-0.2,1.1-0.2,1.8c0,0.7,0.1,1.3,0.2,1.9s0.4,1,0.7,1.4c0.3,0.4,0.7,0.7,1.1,0.8s0.9,0.3,1.4,0.3
			c0.5,0,0.9-0.1,1.2-0.2c0.3-0.1,0.6-0.2,0.8-0.4c0.2-0.1,0.4-0.3,0.5-0.4c0.1-0.1,0.2-0.2,0.3-0.2c0.1,0,0.2,0,0.2,0.1l0.3,0.3
			c-0.2,0.2-0.3,0.4-0.6,0.6c-0.2,0.2-0.5,0.3-0.8,0.5s-0.6,0.2-1,0.3c-0.3,0.1-0.7,0.1-1.1,0.1c-0.6,0-1.2-0.1-1.7-0.3
			s-1-0.6-1.4-1c-0.4-0.4-0.7-1-0.9-1.6c-0.2-0.6-0.3-1.4-0.3-2.2c0-0.8,0.1-1.5,0.3-2.1s0.5-1.2,0.9-1.6c0.4-0.5,0.9-0.8,1.4-1.1
			c0.6-0.3,1.2-0.4,1.9-0.4c0.6,0,1.2,0.1,1.7,0.3c0.5,0.2,0.9,0.5,1.3,0.8L185.4,193.3z"/>
		<path fill="#231F20" d="M188,201.9v-10h0.5c0.1,0,0.2,0,0.2,0.1s0.1,0.1,0.1,0.2l0.1,2.1c0.3-0.8,0.7-1.4,1.3-1.9
			c0.5-0.5,1.2-0.7,2-0.7c0.3,0,0.6,0,0.8,0.1s0.5,0.2,0.7,0.3l-0.1,0.7c0,0.1-0.1,0.2-0.2,0.2c0,0-0.1,0-0.2,0
			c-0.1,0-0.2-0.1-0.3-0.1c-0.1,0-0.2-0.1-0.4-0.1c-0.2,0-0.3,0-0.6,0c-0.8,0-1.4,0.2-1.9,0.7s-0.9,1.1-1.2,2v6.5H188z"/>
		<path fill="#231F20" d="M199.7,191.8c0.6,0,1.1,0.1,1.6,0.3s0.9,0.5,1.2,0.8c0.4,0.4,0.6,0.8,0.8,1.4c0.2,0.5,0.3,1.2,0.3,1.9
			c0,0.1,0,0.2-0.1,0.3c0,0.1-0.1,0.1-0.2,0.1h-7.2v0.2c0,0.7,0.1,1.4,0.3,2c0.2,0.6,0.4,1,0.7,1.4c0.3,0.4,0.7,0.7,1.2,0.9
			c0.5,0.2,1,0.3,1.5,0.3c0.5,0,0.9-0.1,1.3-0.2s0.7-0.2,0.9-0.4c0.3-0.1,0.4-0.3,0.6-0.4c0.1-0.1,0.3-0.2,0.3-0.2
			c0.1,0,0.2,0,0.2,0.1l0.3,0.3c-0.2,0.2-0.4,0.4-0.6,0.6c-0.3,0.2-0.6,0.3-0.9,0.4c-0.3,0.1-0.7,0.2-1,0.3s-0.7,0.1-1.1,0.1
			c-0.7,0-1.3-0.1-1.9-0.4c-0.6-0.2-1-0.6-1.4-1c-0.4-0.5-0.7-1-0.9-1.7c-0.2-0.7-0.3-1.4-0.3-2.3c0-0.7,0.1-1.4,0.3-2
			c0.2-0.6,0.5-1.1,0.9-1.6c0.4-0.4,0.9-0.8,1.4-1C198.3,191.9,199,191.8,199.7,191.8z M199.7,192.5c-0.5,0-1,0.1-1.4,0.2
			c-0.4,0.2-0.8,0.4-1.1,0.7s-0.5,0.7-0.7,1.1s-0.3,0.9-0.4,1.4h6.6c0-0.5-0.1-1-0.2-1.4c-0.1-0.4-0.4-0.8-0.6-1.1
			c-0.3-0.3-0.6-0.5-1-0.7C200.6,192.6,200.1,192.5,199.7,192.5z"/>
		<path fill="#231F20" d="M212.5,201.9c-0.2,0-0.3-0.1-0.4-0.3l-0.1-1.3c-0.3,0.3-0.5,0.5-0.8,0.7c-0.3,0.2-0.6,0.4-0.8,0.5
			s-0.6,0.3-1,0.3c-0.3,0.1-0.7,0.1-1.1,0.1c-0.3,0-0.7,0-1-0.1c-0.3-0.1-0.6-0.3-0.9-0.5c-0.2-0.2-0.4-0.5-0.6-0.8
			c-0.2-0.3-0.2-0.7-0.2-1.2c0-0.4,0.1-0.8,0.4-1.2c0.2-0.4,0.6-0.7,1.1-0.9c0.5-0.3,1.2-0.5,2-0.6c0.8-0.2,1.8-0.3,2.9-0.3v-1
			c0-0.9-0.2-1.6-0.6-2.1s-1-0.7-1.8-0.7c-0.5,0-0.9,0.1-1.2,0.2c-0.3,0.1-0.6,0.3-0.9,0.4c-0.2,0.2-0.4,0.3-0.6,0.4
			c-0.1,0.1-0.3,0.2-0.4,0.2c-0.1,0-0.2-0.1-0.3-0.2l-0.2-0.3c0.5-0.5,1.1-0.9,1.6-1.2c0.6-0.3,1.2-0.4,2-0.4c0.5,0,1,0.1,1.4,0.3
			c0.4,0.2,0.7,0.4,1,0.7c0.3,0.3,0.5,0.7,0.6,1.2c0.1,0.5,0.2,1,0.2,1.5v6.5H212.5z M208.5,201.4c0.4,0,0.7,0,1.1-0.1
			s0.6-0.2,0.9-0.4s0.5-0.3,0.8-0.5c0.2-0.2,0.5-0.4,0.7-0.7v-2.6c-0.9,0-1.8,0.1-2.5,0.2c-0.7,0.1-1.2,0.3-1.7,0.5
			c-0.4,0.2-0.8,0.4-1,0.7c-0.2,0.3-0.3,0.6-0.3,0.9c0,0.3,0.1,0.6,0.2,0.9c0.1,0.2,0.3,0.4,0.4,0.6c0.2,0.2,0.4,0.3,0.6,0.3
			C208,201.4,208.3,201.4,208.5,201.4z"/>
		<path fill="#231F20" d="M218.6,202.1c-0.7,0-1.2-0.2-1.6-0.6c-0.4-0.4-0.6-1-0.6-1.7V193h-1.4c-0.1,0-0.1,0-0.2-0.1
			c0,0-0.1-0.1-0.1-0.2v-0.4l1.7-0.1l0.2-3.6c0-0.1,0-0.1,0.1-0.2c0,0,0.1-0.1,0.2-0.1h0.4v3.8h3.1v0.7h-3.1v6.8
			c0,0.3,0,0.5,0.1,0.7c0.1,0.2,0.2,0.4,0.3,0.5s0.3,0.2,0.4,0.3c0.2,0.1,0.3,0.1,0.5,0.1c0.2,0,0.4,0,0.6-0.1s0.3-0.1,0.5-0.2
			s0.2-0.2,0.3-0.2c0.1-0.1,0.1-0.1,0.2-0.1c0.1,0,0.1,0,0.2,0.1l0.3,0.4c-0.3,0.3-0.6,0.5-1,0.7C219.5,202,219,202.1,218.6,202.1z"
			/>
		<path fill="#231F20" d="M226.8,191.8c0.6,0,1.1,0.1,1.6,0.3s0.9,0.5,1.2,0.8c0.4,0.4,0.6,0.8,0.8,1.4c0.2,0.5,0.3,1.2,0.3,1.9
			c0,0.1,0,0.2-0.1,0.3c0,0.1-0.1,0.1-0.2,0.1h-7.2v0.2c0,0.7,0.1,1.4,0.3,2c0.2,0.6,0.4,1,0.7,1.4c0.3,0.4,0.7,0.7,1.2,0.9
			c0.5,0.2,1,0.3,1.5,0.3c0.5,0,0.9-0.1,1.3-0.2s0.7-0.2,0.9-0.4c0.3-0.1,0.4-0.3,0.6-0.4c0.1-0.1,0.3-0.2,0.3-0.2
			c0.1,0,0.2,0,0.2,0.1l0.3,0.3c-0.2,0.2-0.4,0.4-0.6,0.6c-0.3,0.2-0.6,0.3-0.9,0.4c-0.3,0.1-0.7,0.2-1,0.3s-0.7,0.1-1.1,0.1
			c-0.7,0-1.3-0.1-1.9-0.4c-0.6-0.2-1-0.6-1.4-1c-0.4-0.5-0.7-1-0.9-1.7c-0.2-0.7-0.3-1.4-0.3-2.3c0-0.7,0.1-1.4,0.3-2
			c0.2-0.6,0.5-1.1,0.9-1.6c0.4-0.4,0.9-0.8,1.4-1C225.5,191.9,226.1,191.8,226.8,191.8z M226.8,192.5c-0.5,0-1,0.1-1.4,0.2
			c-0.4,0.2-0.8,0.4-1.1,0.7s-0.5,0.7-0.7,1.1s-0.3,0.9-0.4,1.4h6.6c0-0.5-0.1-1-0.2-1.4c-0.1-0.4-0.4-0.8-0.6-1.1
			c-0.3-0.3-0.6-0.5-1-0.7C227.7,192.6,227.3,192.5,226.8,192.5z"/>
		<path fill="#231F20" d="M245.3,194c-0.1,0.1-0.2,0.2-0.3,0.3s-0.2,0.1-0.4,0.1c-0.2,0-0.3,0-0.4-0.1c-0.1-0.1-0.3-0.2-0.4-0.2
			c-0.2-0.1-0.3-0.2-0.5-0.2c-0.2-0.1-0.5-0.1-0.8-0.1c-0.4,0-0.7,0.1-1,0.2c-0.3,0.1-0.5,0.3-0.7,0.6s-0.3,0.6-0.4,1
			c-0.1,0.4-0.1,0.8-0.1,1.3c0,1,0.2,1.8,0.6,2.3c0.4,0.5,0.9,0.8,1.6,0.8c0.4,0,0.6,0,0.9-0.1c0.2-0.1,0.4-0.2,0.5-0.3
			c0.1-0.1,0.3-0.2,0.4-0.3s0.3-0.1,0.5-0.1c0.2,0,0.4,0.1,0.6,0.3l0.9,1.1c-0.3,0.4-0.7,0.7-1,0.9s-0.7,0.4-1.1,0.5
			c-0.4,0.1-0.7,0.2-1.1,0.3c-0.4,0.1-0.7,0.1-1.1,0.1c-0.6,0-1.2-0.1-1.8-0.4c-0.6-0.2-1.1-0.6-1.5-1c-0.4-0.5-0.8-1-1-1.7
			c-0.3-0.7-0.4-1.4-0.4-2.3c0-0.7,0.1-1.4,0.3-2.1c0.2-0.7,0.6-1.2,1-1.7c0.4-0.5,1-0.9,1.6-1.1c0.6-0.3,1.4-0.4,2.2-0.4
			c0.8,0,1.5,0.1,2.1,0.4c0.6,0.3,1.2,0.6,1.7,1.1L245.3,194z"/>
		<path fill="#231F20" d="M250.5,191.5v6.6c0,0.5,0.1,0.9,0.4,1.2c0.2,0.3,0.6,0.4,1,0.4c0.3,0,0.7-0.1,1-0.2
			c0.3-0.1,0.6-0.3,0.9-0.6v-7.4h3.1v10.4h-1.9c-0.4,0-0.6-0.2-0.8-0.5l-0.2-0.6c-0.2,0.2-0.4,0.4-0.6,0.5c-0.2,0.2-0.4,0.3-0.7,0.4
			c-0.2,0.1-0.5,0.2-0.8,0.3s-0.6,0.1-0.9,0.1c-0.6,0-1.1-0.1-1.5-0.3c-0.4-0.2-0.8-0.5-1.1-0.8c-0.3-0.4-0.5-0.8-0.7-1.3
			c-0.2-0.5-0.2-1-0.2-1.6v-6.6H250.5z"/>
		<path fill="#231F20" d="M265.5,193.8c-0.1,0.1-0.2,0.2-0.3,0.3c-0.1,0.1-0.2,0.1-0.3,0.1c-0.1,0-0.3,0-0.4-0.1
			c-0.1-0.1-0.3-0.1-0.5-0.2c-0.2-0.1-0.4-0.1-0.6-0.2s-0.5-0.1-0.7-0.1c-0.4,0-0.7,0.1-0.9,0.2c-0.2,0.2-0.3,0.4-0.3,0.6
			c0,0.2,0.1,0.4,0.2,0.5s0.3,0.2,0.5,0.3c0.2,0.1,0.5,0.2,0.8,0.3c0.3,0.1,0.6,0.2,0.9,0.3c0.3,0.1,0.6,0.2,0.9,0.4
			c0.3,0.1,0.5,0.3,0.8,0.5c0.2,0.2,0.4,0.5,0.5,0.8c0.1,0.3,0.2,0.7,0.2,1.1c0,0.5-0.1,1-0.3,1.4c-0.2,0.4-0.5,0.8-0.8,1.1
			c-0.4,0.3-0.8,0.6-1.4,0.7c-0.5,0.2-1.2,0.3-1.9,0.3c-0.4,0-0.7,0-1.1-0.1c-0.4-0.1-0.7-0.2-1-0.3c-0.3-0.1-0.6-0.2-0.9-0.4
			c-0.3-0.2-0.5-0.3-0.7-0.5l0.7-1.1c0.1-0.1,0.2-0.2,0.3-0.3s0.3-0.1,0.5-0.1c0.2,0,0.3,0,0.5,0.1s0.3,0.2,0.5,0.3
			c0.2,0.1,0.4,0.2,0.6,0.3c0.2,0.1,0.5,0.1,0.8,0.1c0.2,0,0.4,0,0.6-0.1c0.2-0.1,0.3-0.1,0.4-0.2c0.1-0.1,0.2-0.2,0.2-0.3
			s0.1-0.2,0.1-0.3c0-0.2-0.1-0.4-0.2-0.5c-0.1-0.1-0.3-0.2-0.6-0.3c-0.2-0.1-0.5-0.2-0.8-0.3c-0.3-0.1-0.6-0.2-0.9-0.3
			c-0.3-0.1-0.6-0.2-0.9-0.4s-0.5-0.3-0.8-0.6c-0.2-0.2-0.4-0.5-0.6-0.8c-0.1-0.3-0.2-0.7-0.2-1.2c0-0.4,0.1-0.9,0.3-1.3
			c0.2-0.4,0.4-0.7,0.8-1c0.3-0.3,0.8-0.5,1.3-0.7c0.5-0.2,1.1-0.3,1.8-0.3c0.4,0,0.7,0,1.1,0.1s0.7,0.2,1,0.3
			c0.3,0.1,0.6,0.3,0.8,0.4s0.5,0.3,0.7,0.5L265.5,193.8z"/>
		<path fill="#231F20" d="M271.7,202.1c-0.5,0-0.9-0.1-1.3-0.2c-0.4-0.1-0.7-0.3-1-0.6c-0.3-0.3-0.5-0.6-0.6-1
			c-0.1-0.4-0.2-0.8-0.2-1.3v-5.4h-0.9c-0.2,0-0.3-0.1-0.4-0.2c-0.1-0.1-0.2-0.3-0.2-0.5v-1.2l1.7-0.3l0.6-2.5
			c0.1-0.3,0.3-0.5,0.7-0.5h1.6v3h2.5v2.1h-2.5v5.2c0,0.2,0.1,0.4,0.2,0.6c0.1,0.2,0.3,0.2,0.5,0.2c0.1,0,0.2,0,0.3,0
			s0.1-0.1,0.2-0.1c0.1,0,0.1-0.1,0.2-0.1c0,0,0.1,0,0.2,0c0.1,0,0.2,0,0.2,0.1s0.1,0.1,0.2,0.2l0.9,1.5c-0.4,0.3-0.9,0.5-1.4,0.7
			C272.7,202,272.2,202.1,271.7,202.1z"/>
		<path fill="#231F20" d="M280.7,191.4c0.8,0,1.5,0.1,2.2,0.4c0.6,0.2,1.2,0.6,1.7,1.1c0.5,0.5,0.8,1,1.1,1.7
			c0.3,0.7,0.4,1.4,0.4,2.2c0,0.8-0.1,1.6-0.4,2.2c-0.3,0.7-0.6,1.2-1.1,1.7c-0.5,0.5-1,0.8-1.7,1.1c-0.6,0.3-1.4,0.4-2.2,0.4
			c-0.8,0-1.5-0.1-2.2-0.4s-1.2-0.6-1.7-1.1c-0.5-0.5-0.8-1-1.1-1.7c-0.3-0.7-0.4-1.4-0.4-2.2c0-0.8,0.1-1.6,0.4-2.2
			c0.3-0.7,0.6-1.2,1.1-1.7s1-0.8,1.7-1.1C279.1,191.5,279.9,191.4,280.7,191.4z M280.7,199.8c0.7,0,1.2-0.3,1.6-0.8
			c0.3-0.5,0.5-1.3,0.5-2.3c0-1-0.2-1.8-0.5-2.3c-0.3-0.5-0.9-0.8-1.6-0.8c-0.7,0-1.3,0.3-1.6,0.8s-0.5,1.3-0.5,2.3
			c0,1,0.2,1.8,0.5,2.3S279.9,199.8,280.7,199.8z"/>
		<path fill="#231F20" d="M287.7,201.9v-10.4h1.9c0.2,0,0.4,0,0.5,0.1c0.1,0.1,0.2,0.2,0.3,0.4l0.2,0.6c0.2-0.2,0.4-0.3,0.5-0.5
			c0.2-0.2,0.4-0.3,0.6-0.4c0.2-0.1,0.5-0.2,0.7-0.3c0.2-0.1,0.5-0.1,0.8-0.1c0.6,0,1.1,0.2,1.6,0.5c0.4,0.3,0.7,0.8,0.9,1.3
			c0.2-0.3,0.4-0.6,0.6-0.8c0.2-0.2,0.5-0.4,0.8-0.6c0.3-0.1,0.6-0.2,0.9-0.3s0.6-0.1,1-0.1c0.6,0,1.1,0.1,1.6,0.3
			c0.5,0.2,0.8,0.4,1.2,0.8s0.5,0.8,0.7,1.2c0.2,0.5,0.2,1,0.2,1.7v6.6h-3.1v-6.6c0-1.1-0.5-1.6-1.4-1.6c-0.4,0-0.8,0.1-1,0.4
			s-0.4,0.7-0.4,1.2v6.6h-3.1v-6.6c0-0.6-0.1-1-0.4-1.3c-0.2-0.2-0.6-0.4-1-0.4c-0.3,0-0.5,0.1-0.8,0.2c-0.2,0.1-0.5,0.3-0.7,0.5
			v7.5H287.7z"/>
		<path fill="#231F20" d="M308.5,188.7c0,0.2,0,0.5-0.2,0.7c-0.1,0.2-0.2,0.4-0.4,0.6c-0.2,0.2-0.4,0.3-0.6,0.4s-0.5,0.1-0.7,0.1
			c-0.3,0-0.5,0-0.7-0.1c-0.2-0.1-0.4-0.2-0.6-0.4c-0.2-0.2-0.3-0.4-0.4-0.6c-0.1-0.2-0.1-0.4-0.1-0.7c0-0.3,0-0.5,0.1-0.7
			c0.1-0.2,0.2-0.4,0.4-0.6c0.2-0.2,0.4-0.3,0.6-0.4c0.2-0.1,0.5-0.1,0.7-0.1c0.3,0,0.5,0,0.7,0.1c0.2,0.1,0.4,0.2,0.6,0.4
			s0.3,0.4,0.4,0.6C308.4,188.2,308.5,188.4,308.5,188.7z M308.1,191.5v10.4H305v-10.4H308.1z"/>
		<path fill="#231F20" d="M318.4,192.8c0,0.2,0,0.4-0.1,0.6c-0.1,0.2-0.2,0.4-0.3,0.5l-4.3,5.7h4.6v2.3h-8.2v-1.3
			c0-0.1,0-0.3,0.1-0.5c0.1-0.2,0.2-0.4,0.3-0.5l4.4-5.8h-4.5v-2.3h8V192.8z"/>
		<path fill="#231F20" d="M327.4,201.9c-0.3,0-0.5,0-0.7-0.1c-0.2-0.1-0.3-0.2-0.4-0.5l-0.2-0.6c-0.3,0.2-0.5,0.4-0.8,0.6
			s-0.5,0.3-0.7,0.4c-0.3,0.1-0.5,0.2-0.8,0.3c-0.3,0.1-0.6,0.1-1,0.1c-0.5,0-0.9-0.1-1.3-0.2c-0.4-0.1-0.7-0.3-1-0.5
			c-0.3-0.2-0.5-0.5-0.6-0.9c-0.1-0.4-0.2-0.8-0.2-1.2c0-0.4,0.1-0.7,0.3-1.1c0.2-0.4,0.5-0.7,1-1.1s1.1-0.6,1.9-0.8
			c0.8-0.2,1.8-0.3,3-0.3v-0.4c0-0.6-0.1-1.1-0.4-1.3c-0.3-0.3-0.6-0.4-1.1-0.4c-0.4,0-0.7,0-0.9,0.1c-0.2,0.1-0.4,0.2-0.6,0.3
			c-0.2,0.1-0.4,0.2-0.5,0.3c-0.2,0.1-0.4,0.1-0.6,0.1c-0.2,0-0.4-0.1-0.5-0.2s-0.3-0.2-0.4-0.4l-0.6-1c0.6-0.6,1.3-1,2.1-1.2
			c0.8-0.3,1.6-0.4,2.5-0.4c0.6,0,1.2,0.1,1.7,0.3c0.5,0.2,0.9,0.5,1.3,0.9c0.4,0.4,0.6,0.8,0.8,1.3c0.2,0.5,0.3,1,0.3,1.6v6.5
			H327.4z M323.8,200c0.4,0,0.8-0.1,1.1-0.2c0.3-0.1,0.6-0.4,0.9-0.7v-1.4c-0.6,0-1.1,0-1.5,0.1c-0.4,0.1-0.7,0.2-1,0.3
			c-0.2,0.1-0.4,0.3-0.5,0.4c-0.1,0.2-0.1,0.3-0.1,0.5c0,0.4,0.1,0.6,0.3,0.8C323.1,200,323.4,200,323.8,200z"/>
		<path fill="#231F20" d="M331,201.9v-15h3.1v5.7c0.4-0.4,0.8-0.7,1.3-0.9c0.5-0.2,1.1-0.3,1.7-0.3c0.5,0,1,0.1,1.5,0.4
			s0.9,0.6,1.2,1c0.3,0.5,0.6,1,0.8,1.7s0.3,1.4,0.3,2.2c0,0.8-0.1,1.5-0.3,2.2c-0.2,0.7-0.5,1.2-0.9,1.7s-0.9,0.9-1.4,1.1
			c-0.5,0.3-1.1,0.4-1.8,0.4c-0.3,0-0.6,0-0.8-0.1s-0.5-0.1-0.7-0.3c-0.2-0.1-0.4-0.2-0.6-0.4c-0.2-0.2-0.3-0.3-0.5-0.5l-0.1,0.5
			c0,0.2-0.1,0.4-0.3,0.4c-0.1,0.1-0.3,0.1-0.5,0.1H331z M336.1,193.7c-0.2,0-0.4,0-0.6,0.1s-0.4,0.1-0.5,0.2s-0.3,0.2-0.4,0.3
			c-0.1,0.1-0.3,0.3-0.4,0.4v4.4c0.2,0.3,0.5,0.4,0.8,0.5c0.3,0.1,0.6,0.2,0.9,0.2c0.3,0,0.6-0.1,0.8-0.2c0.2-0.1,0.4-0.3,0.6-0.5
			c0.2-0.3,0.3-0.6,0.4-1c0.1-0.4,0.2-0.9,0.2-1.5c0-0.5,0-1-0.1-1.4c-0.1-0.4-0.2-0.7-0.3-0.9c-0.1-0.2-0.3-0.4-0.5-0.5
			S336.3,193.7,336.1,193.7z"/>
		<path fill="#231F20" d="M345.8,186.9v15h-3.1v-15H345.8z"/>
		<path fill="#231F20" d="M352.8,191.4c0.7,0,1.3,0.1,1.9,0.3s1.1,0.5,1.5,0.9c0.4,0.4,0.7,0.9,1,1.5c0.2,0.6,0.3,1.3,0.3,2
			c0,0.2,0,0.4,0,0.6c0,0.1-0.1,0.3-0.1,0.4s-0.1,0.1-0.2,0.2c-0.1,0-0.2,0.1-0.3,0.1h-6c0.1,0.9,0.4,1.5,0.8,1.9
			c0.4,0.4,1,0.6,1.7,0.6c0.4,0,0.7,0,0.9-0.1c0.3-0.1,0.5-0.2,0.7-0.3c0.2-0.1,0.4-0.2,0.6-0.3c0.2-0.1,0.3-0.1,0.5-0.1
			c0.2,0,0.4,0.1,0.6,0.3l0.9,1.1c-0.3,0.4-0.7,0.7-1,0.9s-0.8,0.4-1.1,0.5s-0.8,0.2-1.2,0.3c-0.4,0.1-0.8,0.1-1.1,0.1
			c-0.7,0-1.4-0.1-2-0.4c-0.6-0.2-1.2-0.6-1.7-1.1c-0.5-0.5-0.9-1-1.1-1.7c-0.3-0.7-0.4-1.5-0.4-2.4c0-0.7,0.1-1.4,0.4-2
			c0.2-0.6,0.6-1.2,1-1.6s1-0.8,1.6-1.1C351.3,191.5,352,191.4,352.8,191.4z M352.8,193.5c-0.6,0-1.1,0.2-1.4,0.5s-0.6,0.8-0.7,1.5
			h3.9c0-0.2,0-0.5-0.1-0.7c-0.1-0.2-0.2-0.4-0.3-0.6c-0.1-0.2-0.3-0.3-0.6-0.4C353.5,193.6,353.2,193.5,352.8,193.5z"/>
		<path fill="#231F20" d="M134.7,226v-15h3.1v5.5c0.4-0.3,0.8-0.6,1.2-0.8c0.4-0.2,1-0.3,1.6-0.3c0.6,0,1.1,0.1,1.5,0.3
			c0.4,0.2,0.8,0.5,1.1,0.8c0.3,0.4,0.5,0.8,0.7,1.3c0.2,0.5,0.2,1,0.2,1.6v6.6H141v-6.6c0-0.5-0.1-0.9-0.4-1.2
			c-0.2-0.3-0.6-0.4-1-0.4c-0.3,0-0.7,0.1-1,0.2c-0.3,0.1-0.6,0.3-0.9,0.6v7.4H134.7z"/>
		<path fill="#231F20" d="M149.9,212.8c0,0.2,0,0.5-0.2,0.7c-0.1,0.2-0.2,0.4-0.4,0.6c-0.2,0.2-0.4,0.3-0.6,0.4s-0.5,0.1-0.7,0.1
			c-0.3,0-0.5,0-0.7-0.1c-0.2-0.1-0.4-0.2-0.6-0.4c-0.2-0.2-0.3-0.4-0.4-0.6c-0.1-0.2-0.1-0.4-0.1-0.7c0-0.3,0-0.5,0.1-0.7
			c0.1-0.2,0.2-0.4,0.4-0.6c0.2-0.2,0.4-0.3,0.6-0.4c0.2-0.1,0.5-0.1,0.7-0.1c0.3,0,0.5,0,0.7,0.1c0.2,0.1,0.4,0.2,0.6,0.4
			s0.3,0.4,0.4,0.6C149.8,212.3,149.9,212.5,149.9,212.8z M149.5,215.6V226h-3.1v-10.4H149.5z"/>
		<path fill="#231F20" d="M155.7,215.4c0.4,0,0.9,0,1.2,0.1c0.4,0.1,0.8,0.2,1.1,0.4h3.1v1.1c0,0.2,0,0.3-0.1,0.4s-0.3,0.2-0.5,0.2
			l-0.8,0.2c0.1,0.3,0.1,0.6,0.1,0.9c0,0.5-0.1,1-0.3,1.4c-0.2,0.4-0.5,0.8-0.9,1.1s-0.8,0.5-1.3,0.7c-0.5,0.2-1.1,0.2-1.7,0.2
			c-0.3,0-0.6,0-0.9-0.1c-0.2,0.1-0.3,0.3-0.3,0.5s0.1,0.3,0.3,0.4c0.2,0.1,0.4,0.1,0.7,0.2s0.6,0,1,0s0.8,0,1.2,0.1
			c0.4,0,0.8,0.1,1.2,0.2c0.4,0.1,0.7,0.2,1,0.4s0.5,0.5,0.7,0.8s0.3,0.7,0.3,1.2c0,0.5-0.1,0.9-0.3,1.4c-0.2,0.4-0.6,0.8-1,1.2
			c-0.4,0.3-1,0.6-1.6,0.8c-0.6,0.2-1.4,0.3-2.2,0.3c-0.8,0-1.5-0.1-2.1-0.2c-0.6-0.2-1.1-0.4-1.5-0.6s-0.7-0.5-0.9-0.9
			c-0.2-0.3-0.3-0.7-0.3-1c0-0.5,0.1-0.9,0.4-1.2c0.3-0.3,0.7-0.6,1.2-0.7c-0.2-0.2-0.4-0.4-0.6-0.6c-0.1-0.2-0.2-0.5-0.2-0.9
			c0-0.2,0-0.3,0.1-0.5c0.1-0.2,0.1-0.3,0.2-0.5c0.1-0.2,0.3-0.3,0.4-0.5c0.2-0.1,0.4-0.3,0.6-0.4c-0.5-0.3-1-0.7-1.3-1.1
			c-0.3-0.5-0.5-1-0.5-1.7c0-0.5,0.1-1,0.3-1.4s0.5-0.8,0.9-1.1c0.4-0.3,0.8-0.5,1.4-0.7C154.5,215.5,155.1,215.4,155.7,215.4z
			 M158,226.4c0-0.2-0.1-0.3-0.2-0.4s-0.2-0.2-0.4-0.2s-0.4-0.1-0.6-0.1c-0.2,0-0.5,0-0.8,0c-0.3,0-0.6,0-0.9,0s-0.6,0-0.9-0.1
			c-0.2,0.1-0.4,0.3-0.5,0.4c-0.1,0.2-0.2,0.4-0.2,0.6c0,0.1,0,0.3,0.1,0.4c0.1,0.1,0.2,0.2,0.3,0.3c0.2,0.1,0.4,0.2,0.6,0.2
			s0.6,0.1,1,0.1c0.4,0,0.8,0,1.1-0.1s0.5-0.1,0.7-0.2c0.2-0.1,0.3-0.2,0.4-0.3C157.9,226.7,158,226.5,158,226.4z M155.7,220.3
			c0.5,0,0.9-0.1,1.1-0.4s0.3-0.6,0.3-1c0-0.4-0.1-0.8-0.3-1c-0.2-0.2-0.6-0.4-1.1-0.4c-0.5,0-0.9,0.1-1.1,0.4
			c-0.2,0.2-0.3,0.6-0.3,1c0,0.2,0,0.4,0.1,0.6c0.1,0.2,0.1,0.3,0.3,0.4c0.1,0.1,0.3,0.2,0.5,0.3
			C155.2,220.2,155.4,220.3,155.7,220.3z"/>
		<path fill="#231F20" d="M162.5,226v-15h3.1v5.5c0.4-0.3,0.8-0.6,1.2-0.8c0.4-0.2,1-0.3,1.6-0.3c0.6,0,1.1,0.1,1.5,0.3
			c0.4,0.2,0.8,0.5,1.1,0.8c0.3,0.4,0.5,0.8,0.7,1.3c0.2,0.5,0.2,1,0.2,1.6v6.6h-3.1v-6.6c0-0.5-0.1-0.9-0.4-1.2
			c-0.2-0.3-0.6-0.4-1-0.4c-0.3,0-0.7,0.1-1,0.2c-0.3,0.1-0.6,0.3-0.9,0.6v7.4H162.5z"/>
		<path fill="#231F20" d="M187.2,215.6v13.7h-3.1v-4.4c-0.4,0.4-0.8,0.7-1.3,0.9c-0.5,0.2-1.1,0.4-1.7,0.4c-0.5,0-1-0.1-1.5-0.4
			c-0.5-0.2-0.9-0.6-1.2-1s-0.6-1-0.8-1.7c-0.2-0.7-0.3-1.4-0.3-2.2c0-0.8,0.1-1.5,0.3-2.2c0.2-0.7,0.5-1.2,0.9-1.7
			c0.4-0.5,0.9-0.9,1.4-1.1s1.2-0.4,1.8-0.4c0.3,0,0.6,0,0.9,0.1s0.5,0.1,0.7,0.2c0.2,0.1,0.4,0.2,0.6,0.4c0.2,0.1,0.4,0.3,0.5,0.5
			l0.1-0.4c0.1-0.3,0.4-0.5,0.8-0.5H187.2z M182.1,223.8c0.2,0,0.4,0,0.6-0.1c0.2,0,0.4-0.1,0.5-0.2c0.2-0.1,0.3-0.2,0.4-0.3
			c0.1-0.1,0.3-0.3,0.4-0.4v-4.4c-0.2-0.3-0.5-0.4-0.8-0.5s-0.6-0.2-0.9-0.2c-0.3,0-0.6,0.1-0.8,0.2c-0.2,0.1-0.4,0.3-0.6,0.5
			s-0.3,0.6-0.4,1c-0.1,0.4-0.2,0.9-0.2,1.5c0,0.5,0,1,0.1,1.4s0.2,0.7,0.3,0.9c0.1,0.2,0.3,0.4,0.5,0.5
			C181.7,223.7,181.9,223.8,182.1,223.8z"/>
		<path fill="#231F20" d="M192.5,215.6v6.6c0,0.5,0.1,0.9,0.4,1.2c0.2,0.3,0.6,0.4,1,0.4c0.3,0,0.7-0.1,1-0.2
			c0.3-0.1,0.6-0.3,0.9-0.6v-7.4h3.1V226h-1.9c-0.4,0-0.6-0.2-0.8-0.5l-0.2-0.6c-0.2,0.2-0.4,0.4-0.6,0.5c-0.2,0.2-0.4,0.3-0.7,0.4
			c-0.2,0.1-0.5,0.2-0.8,0.3s-0.6,0.1-0.9,0.1c-0.6,0-1.1-0.1-1.5-0.3c-0.4-0.2-0.8-0.5-1.1-0.8c-0.3-0.4-0.5-0.8-0.7-1.3
			c-0.2-0.5-0.2-1-0.2-1.6v-6.6H192.5z"/>
		<path fill="#231F20" d="M208.4,226c-0.3,0-0.5,0-0.7-0.1c-0.2-0.1-0.3-0.2-0.4-0.5l-0.2-0.6c-0.3,0.2-0.5,0.4-0.8,0.6
			s-0.5,0.3-0.7,0.4c-0.3,0.1-0.5,0.2-0.8,0.3c-0.3,0.1-0.6,0.1-1,0.1c-0.5,0-0.9-0.1-1.3-0.2c-0.4-0.1-0.7-0.3-1-0.5
			c-0.3-0.2-0.5-0.5-0.6-0.9c-0.1-0.4-0.2-0.8-0.2-1.2c0-0.4,0.1-0.7,0.3-1.1c0.2-0.4,0.5-0.7,1-1.1s1.1-0.6,1.9-0.8
			c0.8-0.2,1.8-0.3,3-0.3v-0.4c0-0.6-0.1-1.1-0.4-1.3c-0.3-0.3-0.6-0.4-1.1-0.4c-0.4,0-0.7,0-0.9,0.1c-0.2,0.1-0.4,0.2-0.6,0.3
			c-0.2,0.1-0.4,0.2-0.5,0.3c-0.2,0.1-0.4,0.1-0.6,0.1c-0.2,0-0.4-0.1-0.5-0.2s-0.3-0.2-0.4-0.4l-0.6-1c0.6-0.6,1.3-1,2.1-1.2
			c0.8-0.3,1.6-0.4,2.5-0.4c0.6,0,1.2,0.1,1.7,0.3c0.5,0.2,0.9,0.5,1.3,0.9c0.4,0.4,0.6,0.8,0.8,1.3c0.2,0.5,0.3,1,0.3,1.6v6.5
			H208.4z M204.8,224.1c0.4,0,0.8-0.1,1.1-0.2c0.3-0.1,0.6-0.4,0.9-0.7v-1.4c-0.6,0-1.1,0-1.5,0.1c-0.4,0.1-0.7,0.2-1,0.3
			c-0.2,0.1-0.4,0.3-0.5,0.4c-0.1,0.2-0.1,0.3-0.1,0.5c0,0.4,0.1,0.6,0.3,0.8C204.2,224,204.5,224.1,204.8,224.1z"/>
		<path fill="#231F20" d="M215.2,211v15h-3.1v-15H215.2z"/>
		<path fill="#231F20" d="M221.3,212.8c0,0.2,0,0.5-0.2,0.7c-0.1,0.2-0.2,0.4-0.4,0.6c-0.2,0.2-0.4,0.3-0.6,0.4s-0.5,0.1-0.7,0.1
			c-0.3,0-0.5,0-0.7-0.1c-0.2-0.1-0.4-0.2-0.6-0.4c-0.2-0.2-0.3-0.4-0.4-0.6c-0.1-0.2-0.1-0.4-0.1-0.7c0-0.3,0-0.5,0.1-0.7
			c0.1-0.2,0.2-0.4,0.4-0.6c0.2-0.2,0.4-0.3,0.6-0.4c0.2-0.1,0.5-0.1,0.7-0.1c0.3,0,0.5,0,0.7,0.1c0.2,0.1,0.4,0.2,0.6,0.4
			s0.3,0.4,0.4,0.6C221.3,212.3,221.3,212.5,221.3,212.8z M221,215.6V226h-3.1v-10.4H221z"/>
		<path fill="#231F20" d="M227.1,226.2c-0.5,0-0.9-0.1-1.3-0.2c-0.4-0.1-0.7-0.3-1-0.6c-0.3-0.3-0.5-0.6-0.6-1
			c-0.1-0.4-0.2-0.8-0.2-1.3v-5.4h-0.9c-0.2,0-0.3-0.1-0.4-0.2c-0.1-0.1-0.2-0.3-0.2-0.5v-1.2l1.7-0.3l0.6-2.5
			c0.1-0.3,0.3-0.5,0.7-0.5h1.6v3h2.5v2.1h-2.5v5.2c0,0.2,0.1,0.4,0.2,0.6c0.1,0.2,0.3,0.2,0.5,0.2c0.1,0,0.2,0,0.3,0
			s0.1-0.1,0.2-0.1c0.1,0,0.1-0.1,0.2-0.1c0,0,0.1,0,0.2,0c0.1,0,0.2,0,0.2,0.1s0.1,0.1,0.2,0.2l0.9,1.5c-0.4,0.3-0.9,0.5-1.4,0.7
			C228.2,226.1,227.6,226.2,227.1,226.2z"/>
		<path fill="#231F20" d="M235.7,228.7c-0.1,0.2-0.2,0.4-0.3,0.5s-0.3,0.1-0.6,0.1h-2.3l2-4.2l-4.1-9.5h2.7c0.2,0,0.4,0.1,0.6,0.2
			c0.1,0.1,0.2,0.2,0.3,0.4l1.7,4.5c0.2,0.4,0.3,0.8,0.4,1.2c0.1-0.2,0.1-0.4,0.2-0.6c0.1-0.2,0.2-0.4,0.2-0.6l1.5-4.5
			c0.1-0.2,0.2-0.3,0.3-0.4c0.2-0.1,0.3-0.2,0.5-0.2h2.5L235.7,228.7z"/>
		<path fill="#231F20" d="M253.6,226c-0.3,0-0.5,0-0.7-0.1c-0.2-0.1-0.3-0.2-0.4-0.5l-0.2-0.6c-0.3,0.2-0.5,0.4-0.8,0.6
			s-0.5,0.3-0.7,0.4c-0.3,0.1-0.5,0.2-0.8,0.3c-0.3,0.1-0.6,0.1-1,0.1c-0.5,0-0.9-0.1-1.3-0.2c-0.4-0.1-0.7-0.3-1-0.5
			c-0.3-0.2-0.5-0.5-0.6-0.9c-0.1-0.4-0.2-0.8-0.2-1.2c0-0.4,0.1-0.7,0.3-1.1c0.2-0.4,0.5-0.7,1-1.1s1.1-0.6,1.9-0.8
			c0.8-0.2,1.8-0.3,3-0.3v-0.4c0-0.6-0.1-1.1-0.4-1.3c-0.3-0.3-0.6-0.4-1.1-0.4c-0.4,0-0.7,0-0.9,0.1c-0.2,0.1-0.4,0.2-0.6,0.3
			c-0.2,0.1-0.4,0.2-0.5,0.3c-0.2,0.1-0.4,0.1-0.6,0.1c-0.2,0-0.4-0.1-0.5-0.2s-0.3-0.2-0.4-0.4l-0.6-1c0.6-0.6,1.3-1,2.1-1.2
			c0.8-0.3,1.6-0.4,2.5-0.4c0.6,0,1.2,0.1,1.7,0.3c0.5,0.2,0.9,0.5,1.3,0.9c0.4,0.4,0.6,0.8,0.8,1.3c0.2,0.5,0.3,1,0.3,1.6v6.5
			H253.6z M250,224.1c0.4,0,0.8-0.1,1.1-0.2c0.3-0.1,0.6-0.4,0.9-0.7v-1.4c-0.6,0-1.1,0-1.5,0.1c-0.4,0.1-0.7,0.2-1,0.3
			c-0.2,0.1-0.4,0.3-0.5,0.4c-0.1,0.2-0.1,0.3-0.1,0.5c0,0.4,0.1,0.6,0.3,0.8C249.4,224,249.7,224.1,250,224.1z"/>
		<path fill="#231F20" d="M257.2,226v-10.4h1.9c0.2,0,0.4,0,0.5,0.1c0.1,0.1,0.2,0.2,0.3,0.4l0.2,0.6c0.2-0.2,0.4-0.4,0.6-0.5
			c0.2-0.2,0.4-0.3,0.7-0.4c0.2-0.1,0.5-0.2,0.8-0.3c0.3-0.1,0.6-0.1,0.9-0.1c0.6,0,1.1,0.1,1.5,0.3c0.4,0.2,0.8,0.5,1.1,0.8
			c0.3,0.4,0.5,0.8,0.7,1.3c0.2,0.5,0.2,1,0.2,1.6v6.6h-3.1v-6.6c0-0.5-0.1-0.9-0.4-1.2c-0.2-0.3-0.6-0.4-1-0.4
			c-0.3,0-0.7,0.1-1,0.2c-0.3,0.1-0.6,0.3-0.9,0.6v7.4H257.2z"/>
		<path fill="#231F20" d="M276.2,226c-0.2,0-0.4,0-0.5-0.1s-0.2-0.2-0.3-0.4l-0.2-0.8c-0.2,0.2-0.4,0.4-0.7,0.6
			c-0.2,0.2-0.5,0.3-0.7,0.5s-0.5,0.2-0.9,0.3c-0.3,0.1-0.6,0.1-1,0.1c-0.5,0-1-0.1-1.5-0.4c-0.5-0.2-0.9-0.6-1.2-1s-0.6-1-0.8-1.7
			c-0.2-0.7-0.3-1.4-0.3-2.2c0-0.8,0.1-1.5,0.3-2.2c0.2-0.7,0.5-1.2,0.9-1.7c0.4-0.5,0.9-0.9,1.4-1.1s1.2-0.4,1.8-0.4
			c0.5,0,1,0.1,1.4,0.2c0.4,0.2,0.7,0.4,1,0.6V211h3.1v15H276.2z M273,223.8c0.2,0,0.4,0,0.6-0.1c0.2,0,0.4-0.1,0.5-0.2
			c0.2-0.1,0.3-0.2,0.4-0.3c0.1-0.1,0.3-0.3,0.4-0.4v-4.4c-0.2-0.3-0.5-0.4-0.8-0.5s-0.6-0.2-0.9-0.2c-0.3,0-0.6,0.1-0.8,0.2
			c-0.2,0.1-0.4,0.3-0.6,0.5s-0.3,0.6-0.4,1c-0.1,0.4-0.2,0.9-0.2,1.5c0,0.5,0,1,0.1,1.4s0.2,0.7,0.3,0.9c0.1,0.2,0.3,0.4,0.5,0.5
			C272.5,223.7,272.8,223.8,273,223.8z"/>
		<path fill="#231F20" d="M290.7,217.9c-0.1,0.1-0.2,0.2-0.3,0.3c-0.1,0.1-0.2,0.1-0.3,0.1c-0.1,0-0.3,0-0.4-0.1
			c-0.1-0.1-0.3-0.1-0.5-0.2c-0.2-0.1-0.4-0.1-0.6-0.2s-0.5-0.1-0.7-0.1c-0.4,0-0.7,0.1-0.9,0.2c-0.2,0.2-0.3,0.4-0.3,0.6
			c0,0.2,0.1,0.4,0.2,0.5s0.3,0.2,0.5,0.3c0.2,0.1,0.5,0.2,0.8,0.3c0.3,0.1,0.6,0.2,0.9,0.3c0.3,0.1,0.6,0.2,0.9,0.4
			c0.3,0.1,0.5,0.3,0.8,0.5c0.2,0.2,0.4,0.5,0.5,0.8c0.1,0.3,0.2,0.7,0.2,1.1c0,0.5-0.1,1-0.3,1.4c-0.2,0.4-0.5,0.8-0.8,1.1
			c-0.4,0.3-0.8,0.6-1.4,0.7c-0.5,0.2-1.2,0.3-1.9,0.3c-0.4,0-0.7,0-1.1-0.1c-0.4-0.1-0.7-0.2-1-0.3c-0.3-0.1-0.6-0.2-0.9-0.4
			c-0.3-0.2-0.5-0.3-0.7-0.5l0.7-1.1c0.1-0.1,0.2-0.2,0.3-0.3s0.3-0.1,0.5-0.1c0.2,0,0.3,0,0.5,0.1s0.3,0.2,0.5,0.3
			c0.2,0.1,0.4,0.2,0.6,0.3c0.2,0.1,0.5,0.1,0.8,0.1c0.2,0,0.4,0,0.6-0.1c0.2-0.1,0.3-0.1,0.4-0.2c0.1-0.1,0.2-0.2,0.2-0.3
			s0.1-0.2,0.1-0.3c0-0.2-0.1-0.4-0.2-0.5c-0.1-0.1-0.3-0.2-0.6-0.3c-0.2-0.1-0.5-0.2-0.8-0.3c-0.3-0.1-0.6-0.2-0.9-0.3
			c-0.3-0.1-0.6-0.2-0.9-0.4s-0.5-0.3-0.8-0.6c-0.2-0.2-0.4-0.5-0.6-0.8c-0.1-0.3-0.2-0.7-0.2-1.2c0-0.4,0.1-0.9,0.3-1.3
			c0.2-0.4,0.4-0.7,0.8-1c0.3-0.3,0.8-0.5,1.3-0.7c0.5-0.2,1.1-0.3,1.8-0.3c0.4,0,0.7,0,1.1,0.1s0.7,0.2,1,0.3
			c0.3,0.1,0.6,0.3,0.8,0.4s0.5,0.3,0.7,0.5L290.7,217.9z"/>
		<path fill="#231F20" d="M296.1,215.6v6.6c0,0.5,0.1,0.9,0.4,1.2c0.2,0.3,0.6,0.4,1,0.4c0.3,0,0.7-0.1,1-0.2
			c0.3-0.1,0.6-0.3,0.9-0.6v-7.4h3.1V226h-1.9c-0.4,0-0.6-0.2-0.8-0.5l-0.2-0.6c-0.2,0.2-0.4,0.4-0.6,0.5c-0.2,0.2-0.4,0.3-0.7,0.4
			c-0.2,0.1-0.5,0.2-0.8,0.3s-0.6,0.1-0.9,0.1c-0.6,0-1.1-0.1-1.5-0.3c-0.4-0.2-0.8-0.5-1.1-0.8c-0.3-0.4-0.5-0.8-0.7-1.3
			c-0.2-0.5-0.2-1-0.2-1.6v-6.6H296.1z"/>
		<path fill="#231F20" d="M311.1,217.9c-0.1,0.1-0.2,0.2-0.3,0.3c-0.1,0.1-0.2,0.1-0.3,0.1c-0.1,0-0.3,0-0.4-0.1
			c-0.1-0.1-0.3-0.1-0.5-0.2c-0.2-0.1-0.4-0.1-0.6-0.2s-0.5-0.1-0.7-0.1c-0.4,0-0.7,0.1-0.9,0.2c-0.2,0.2-0.3,0.4-0.3,0.6
			c0,0.2,0.1,0.4,0.2,0.5s0.3,0.2,0.5,0.3c0.2,0.1,0.5,0.2,0.8,0.3c0.3,0.1,0.6,0.2,0.9,0.3c0.3,0.1,0.6,0.2,0.9,0.4
			c0.3,0.1,0.5,0.3,0.8,0.5c0.2,0.2,0.4,0.5,0.5,0.8c0.1,0.3,0.2,0.7,0.2,1.1c0,0.5-0.1,1-0.3,1.4c-0.2,0.4-0.5,0.8-0.8,1.1
			c-0.4,0.3-0.8,0.6-1.4,0.7c-0.5,0.2-1.2,0.3-1.9,0.3c-0.4,0-0.7,0-1.1-0.1c-0.4-0.1-0.7-0.2-1-0.3c-0.3-0.1-0.6-0.2-0.9-0.4
			c-0.3-0.2-0.5-0.3-0.7-0.5l0.7-1.1c0.1-0.1,0.2-0.2,0.3-0.3s0.3-0.1,0.5-0.1c0.2,0,0.3,0,0.5,0.1s0.3,0.2,0.5,0.3
			c0.2,0.1,0.4,0.2,0.6,0.3c0.2,0.1,0.5,0.1,0.8,0.1c0.2,0,0.4,0,0.6-0.1c0.2-0.1,0.3-0.1,0.4-0.2c0.1-0.1,0.2-0.2,0.2-0.3
			s0.1-0.2,0.1-0.3c0-0.2-0.1-0.4-0.2-0.5c-0.1-0.1-0.3-0.2-0.6-0.3c-0.2-0.1-0.5-0.2-0.8-0.3c-0.3-0.1-0.6-0.2-0.9-0.3
			c-0.3-0.1-0.6-0.2-0.9-0.4s-0.5-0.3-0.8-0.6c-0.2-0.2-0.4-0.5-0.6-0.8c-0.1-0.3-0.2-0.7-0.2-1.2c0-0.4,0.1-0.9,0.3-1.3
			c0.2-0.4,0.4-0.7,0.8-1c0.3-0.3,0.8-0.5,1.3-0.7c0.5-0.2,1.1-0.3,1.8-0.3c0.4,0,0.7,0,1.1,0.1s0.7,0.2,1,0.3
			c0.3,0.1,0.6,0.3,0.8,0.4s0.5,0.3,0.7,0.5L311.1,217.9z"/>
		<path fill="#231F20" d="M317.3,226.2c-0.5,0-0.9-0.1-1.3-0.2c-0.4-0.1-0.7-0.3-1-0.6c-0.3-0.3-0.5-0.6-0.6-1
			c-0.1-0.4-0.2-0.8-0.2-1.3v-5.4h-0.9c-0.2,0-0.3-0.1-0.4-0.2c-0.1-0.1-0.2-0.3-0.2-0.5v-1.2l1.7-0.3l0.6-2.5
			c0.1-0.3,0.3-0.5,0.7-0.5h1.6v3h2.5v2.1h-2.5v5.2c0,0.2,0.1,0.4,0.2,0.6c0.1,0.2,0.3,0.2,0.5,0.2c0.1,0,0.2,0,0.3,0
			s0.1-0.1,0.2-0.1c0.1,0,0.1-0.1,0.2-0.1c0,0,0.1,0,0.2,0c0.1,0,0.2,0,0.2,0.1s0.1,0.1,0.2,0.2l0.9,1.5c-0.4,0.3-0.9,0.5-1.4,0.7
			C318.3,226.1,317.8,226.2,317.3,226.2z"/>
		<path fill="#231F20" d="M328.8,226c-0.3,0-0.5,0-0.7-0.1c-0.2-0.1-0.3-0.2-0.4-0.5l-0.2-0.6c-0.3,0.2-0.5,0.4-0.8,0.6
			s-0.5,0.3-0.7,0.4c-0.3,0.1-0.5,0.2-0.8,0.3c-0.3,0.1-0.6,0.1-1,0.1c-0.5,0-0.9-0.1-1.3-0.2c-0.4-0.1-0.7-0.3-1-0.5
			c-0.3-0.2-0.5-0.5-0.6-0.9c-0.1-0.4-0.2-0.8-0.2-1.2c0-0.4,0.1-0.7,0.3-1.1c0.2-0.4,0.5-0.7,1-1.1s1.1-0.6,1.9-0.8
			c0.8-0.2,1.8-0.3,3-0.3v-0.4c0-0.6-0.1-1.1-0.4-1.3c-0.3-0.3-0.6-0.4-1.1-0.4c-0.4,0-0.7,0-0.9,0.1c-0.2,0.1-0.4,0.2-0.6,0.3
			c-0.2,0.1-0.4,0.2-0.5,0.3c-0.2,0.1-0.4,0.1-0.6,0.1c-0.2,0-0.4-0.1-0.5-0.2s-0.3-0.2-0.4-0.4l-0.6-1c0.6-0.6,1.3-1,2.1-1.2
			c0.8-0.3,1.6-0.4,2.5-0.4c0.6,0,1.2,0.1,1.7,0.3c0.5,0.2,0.9,0.5,1.3,0.9c0.4,0.4,0.6,0.8,0.8,1.3c0.2,0.5,0.3,1,0.3,1.6v6.5
			H328.8z M325.2,224.1c0.4,0,0.8-0.1,1.1-0.2c0.3-0.1,0.6-0.4,0.9-0.7v-1.4c-0.6,0-1.1,0-1.5,0.1c-0.4,0.1-0.7,0.2-1,0.3
			c-0.2,0.1-0.4,0.3-0.5,0.4c-0.1,0.2-0.1,0.3-0.1,0.5c0,0.4,0.1,0.6,0.3,0.8C324.6,224,324.9,224.1,325.2,224.1z"/>
		<path fill="#231F20" d="M336,212.8c0,0.2,0,0.5-0.2,0.7c-0.1,0.2-0.2,0.4-0.4,0.6c-0.2,0.2-0.4,0.3-0.6,0.4s-0.5,0.1-0.7,0.1
			c-0.3,0-0.5,0-0.7-0.1c-0.2-0.1-0.4-0.2-0.6-0.4c-0.2-0.2-0.3-0.4-0.4-0.6c-0.1-0.2-0.1-0.4-0.1-0.7c0-0.3,0-0.5,0.1-0.7
			c0.1-0.2,0.2-0.4,0.4-0.6c0.2-0.2,0.4-0.3,0.6-0.4c0.2-0.1,0.5-0.1,0.7-0.1c0.3,0,0.5,0,0.7,0.1c0.2,0.1,0.4,0.2,0.6,0.4
			s0.3,0.4,0.4,0.6C336,212.3,336,212.5,336,212.8z M335.6,215.6V226h-3.1v-10.4H335.6z"/>
		<path fill="#231F20" d="M338.1,226v-10.4h1.9c0.2,0,0.4,0,0.5,0.1c0.1,0.1,0.2,0.2,0.3,0.4l0.2,0.6c0.2-0.2,0.4-0.4,0.6-0.5
			c0.2-0.2,0.4-0.3,0.7-0.4c0.2-0.1,0.5-0.2,0.8-0.3c0.3-0.1,0.6-0.1,0.9-0.1c0.6,0,1.1,0.1,1.5,0.3c0.4,0.2,0.8,0.5,1.1,0.8
			c0.3,0.4,0.5,0.8,0.7,1.3c0.2,0.5,0.2,1,0.2,1.6v6.6h-3.1v-6.6c0-0.5-0.1-0.9-0.4-1.2c-0.2-0.3-0.6-0.4-1-0.4
			c-0.3,0-0.7,0.1-1,0.2c-0.3,0.1-0.6,0.3-0.9,0.6v7.4H338.1z"/>
		<path fill="#231F20" d="M356.9,226c-0.3,0-0.5,0-0.7-0.1c-0.2-0.1-0.3-0.2-0.4-0.5l-0.2-0.6c-0.3,0.2-0.5,0.4-0.8,0.6
			s-0.5,0.3-0.7,0.4c-0.3,0.1-0.5,0.2-0.8,0.3c-0.3,0.1-0.6,0.1-1,0.1c-0.5,0-0.9-0.1-1.3-0.2c-0.4-0.1-0.7-0.3-1-0.5
			c-0.3-0.2-0.5-0.5-0.6-0.9c-0.1-0.4-0.2-0.8-0.2-1.2c0-0.4,0.1-0.7,0.3-1.1c0.2-0.4,0.5-0.7,1-1.1s1.1-0.6,1.9-0.8
			c0.8-0.2,1.8-0.3,3-0.3v-0.4c0-0.6-0.1-1.1-0.4-1.3c-0.3-0.3-0.6-0.4-1.1-0.4c-0.4,0-0.7,0-0.9,0.1c-0.2,0.1-0.4,0.2-0.6,0.3
			c-0.2,0.1-0.4,0.2-0.5,0.3c-0.2,0.1-0.4,0.1-0.6,0.1c-0.2,0-0.4-0.1-0.5-0.2s-0.3-0.2-0.4-0.4l-0.6-1c0.6-0.6,1.3-1,2.1-1.2
			c0.8-0.3,1.6-0.4,2.5-0.4c0.6,0,1.2,0.1,1.7,0.3c0.5,0.2,0.9,0.5,1.3,0.9c0.4,0.4,0.6,0.8,0.8,1.3c0.2,0.5,0.3,1,0.3,1.6v6.5
			H356.9z M353.4,224.1c0.4,0,0.8-0.1,1.1-0.2c0.3-0.1,0.6-0.4,0.9-0.7v-1.4c-0.6,0-1.1,0-1.5,0.1c-0.4,0.1-0.7,0.2-1,0.3
			c-0.2,0.1-0.4,0.3-0.5,0.4c-0.1,0.2-0.1,0.3-0.1,0.5c0,0.4,0.1,0.6,0.3,0.8C352.7,224,353,224.1,353.4,224.1z"/>
		<path fill="#231F20" d="M360.6,226v-15h3.1v5.7c0.4-0.4,0.8-0.7,1.3-0.9c0.5-0.2,1.1-0.3,1.7-0.3c0.5,0,1,0.1,1.5,0.4
			s0.9,0.6,1.2,1c0.3,0.5,0.6,1,0.8,1.7s0.3,1.4,0.3,2.2c0,0.8-0.1,1.5-0.3,2.2c-0.2,0.7-0.5,1.2-0.9,1.7s-0.9,0.9-1.4,1.1
			c-0.5,0.3-1.1,0.4-1.8,0.4c-0.3,0-0.6,0-0.8-0.1s-0.5-0.1-0.7-0.3c-0.2-0.1-0.4-0.2-0.6-0.4c-0.2-0.2-0.3-0.3-0.5-0.5l-0.1,0.5
			c0,0.2-0.1,0.4-0.3,0.4c-0.1,0.1-0.3,0.1-0.5,0.1H360.6z M365.6,217.8c-0.2,0-0.4,0-0.6,0.1s-0.4,0.1-0.5,0.2s-0.3,0.2-0.4,0.3
			c-0.1,0.1-0.3,0.3-0.4,0.4v4.4c0.2,0.3,0.5,0.4,0.8,0.5c0.3,0.1,0.6,0.2,0.9,0.2c0.3,0,0.6-0.1,0.8-0.2c0.2-0.1,0.4-0.3,0.6-0.5
			c0.2-0.3,0.3-0.6,0.4-1c0.1-0.4,0.2-0.9,0.2-1.5c0-0.5,0-1-0.1-1.4c-0.1-0.4-0.2-0.7-0.3-0.9c-0.1-0.2-0.3-0.4-0.5-0.5
			S365.9,217.8,365.6,217.8z"/>
		<path fill="#231F20" d="M375.4,211v15h-3.1v-15H375.4z"/>
		<path fill="#231F20" d="M382.4,215.4c0.7,0,1.3,0.1,1.9,0.3s1.1,0.5,1.5,0.9c0.4,0.4,0.7,0.9,1,1.5c0.2,0.6,0.3,1.3,0.3,2
			c0,0.2,0,0.4,0,0.6c0,0.1-0.1,0.3-0.1,0.4s-0.1,0.1-0.2,0.2c-0.1,0-0.2,0.1-0.3,0.1h-6c0.1,0.9,0.4,1.5,0.8,1.9
			c0.4,0.4,1,0.6,1.7,0.6c0.4,0,0.7,0,0.9-0.1c0.3-0.1,0.5-0.2,0.7-0.3c0.2-0.1,0.4-0.2,0.6-0.3c0.2-0.1,0.3-0.1,0.5-0.1
			c0.2,0,0.4,0.1,0.6,0.3l0.9,1.1c-0.3,0.4-0.7,0.7-1,0.9s-0.8,0.4-1.1,0.5s-0.8,0.2-1.2,0.3c-0.4,0.1-0.8,0.1-1.1,0.1
			c-0.7,0-1.4-0.1-2-0.4c-0.6-0.2-1.2-0.6-1.7-1.1c-0.5-0.5-0.9-1-1.1-1.7c-0.3-0.7-0.4-1.5-0.4-2.4c0-0.7,0.1-1.4,0.4-2
			c0.2-0.6,0.6-1.2,1-1.6s1-0.8,1.6-1.1C380.9,215.6,381.6,215.4,382.4,215.4z M382.4,217.6c-0.6,0-1.1,0.2-1.4,0.5
			s-0.6,0.8-0.7,1.5h3.9c0-0.2,0-0.5-0.1-0.7c-0.1-0.2-0.2-0.4-0.3-0.6c-0.1-0.2-0.3-0.3-0.6-0.4C383,217.6,382.8,217.6,382.4,217.6
			z"/>
		<path fill="#231F20" d="M394.2,229.5V216h0.5c0.1,0,0.2,0,0.2,0.1c0.1,0,0.1,0.1,0.1,0.2l0.1,1.5c0.4-0.6,1-1.1,1.5-1.4
			c0.6-0.4,1.3-0.5,2-0.5c1.2,0,2.2,0.4,2.9,1.3s1,2.1,1,3.8c0,0.7-0.1,1.4-0.3,2s-0.5,1.2-0.8,1.6c-0.4,0.5-0.8,0.8-1.4,1.1
			s-1.2,0.4-1.9,0.4c-0.7,0-1.3-0.1-1.8-0.4s-0.9-0.6-1.3-1.1v4.9H394.2z M398.4,216.6c-0.7,0-1.3,0.2-1.8,0.5s-1,0.8-1.4,1.4v5.2
			c0.4,0.6,0.8,1,1.3,1.2c0.5,0.2,1,0.4,1.6,0.4c0.6,0,1.1-0.1,1.5-0.3c0.4-0.2,0.8-0.5,1.1-0.9c0.3-0.4,0.5-0.9,0.7-1.4
			c0.2-0.5,0.2-1.1,0.2-1.8c0-1.5-0.3-2.6-0.8-3.3S399.4,216.6,398.4,216.6z"/>
		<path fill="#231F20" d="M404.9,226v-10h0.5c0.1,0,0.2,0,0.2,0.1s0.1,0.1,0.1,0.2l0.1,2.1c0.3-0.8,0.7-1.4,1.3-1.9
			c0.5-0.5,1.2-0.7,2-0.7c0.3,0,0.6,0,0.8,0.1s0.5,0.2,0.7,0.3l-0.1,0.7c0,0.1-0.1,0.2-0.2,0.2c0,0-0.1,0-0.2,0
			c-0.1,0-0.2-0.1-0.3-0.1c-0.1,0-0.2-0.1-0.4-0.1c-0.2,0-0.3,0-0.6,0c-0.8,0-1.4,0.2-1.9,0.7s-0.9,1.1-1.2,2v6.5H404.9z"/>
		<path fill="#231F20" d="M416.7,215.9c0.7,0,1.4,0.1,1.9,0.4c0.6,0.2,1,0.6,1.4,1c0.4,0.4,0.7,1,0.9,1.6s0.3,1.3,0.3,2.1
			s-0.1,1.5-0.3,2.1c-0.2,0.6-0.5,1.2-0.9,1.6s-0.9,0.8-1.4,1c-0.6,0.2-1.2,0.4-1.9,0.4s-1.4-0.1-1.9-0.4s-1-0.6-1.4-1
			s-0.7-1-0.9-1.6c-0.2-0.6-0.3-1.3-0.3-2.1s0.1-1.5,0.3-2.1c0.2-0.6,0.5-1.2,0.9-1.6c0.4-0.4,0.9-0.8,1.4-1
			C415.3,216,416,215.9,416.7,215.9z M416.7,225.4c0.6,0,1.1-0.1,1.6-0.3c0.4-0.2,0.8-0.5,1.1-0.9s0.5-0.8,0.7-1.4
			c0.1-0.5,0.2-1.1,0.2-1.8c0-0.7-0.1-1.3-0.2-1.8c-0.1-0.5-0.4-1-0.7-1.4s-0.7-0.7-1.1-0.9c-0.4-0.2-1-0.3-1.6-0.3
			s-1.1,0.1-1.6,0.3c-0.4,0.2-0.8,0.5-1.1,0.9s-0.5,0.8-0.7,1.4c-0.2,0.5-0.2,1.1-0.2,1.8c0,0.7,0.1,1.3,0.2,1.8
			c0.1,0.5,0.4,1,0.7,1.4s0.7,0.7,1.1,0.9C415.6,225.3,416.1,225.4,416.7,225.4z"/>
		<path fill="#231F20" d="M430.8,226c-0.2,0-0.3-0.1-0.3-0.3l-0.1-1.6c-0.4,0.6-1,1.1-1.5,1.4c-0.6,0.4-1.3,0.5-2,0.5
			c-1.2,0-2.2-0.4-2.9-1.3s-1-2.1-1-3.8c0-0.7,0.1-1.4,0.3-2c0.2-0.6,0.5-1.2,0.8-1.6s0.8-0.8,1.4-1.1c0.5-0.3,1.2-0.4,1.9-0.4
			c0.7,0,1.3,0.1,1.8,0.4s0.9,0.6,1.3,1.1v-5.9h1V226H430.8z M427.1,225.4c0.7,0,1.3-0.2,1.8-0.5c0.5-0.3,1-0.8,1.4-1.4v-5.3
			c-0.4-0.6-0.8-1-1.3-1.2s-1-0.4-1.6-0.4s-1.1,0.1-1.5,0.3c-0.4,0.2-0.8,0.5-1.1,0.9c-0.3,0.4-0.5,0.9-0.7,1.4s-0.2,1.1-0.2,1.8
			c0,1.5,0.3,2.6,0.8,3.3C425.3,225,426.1,225.4,427.1,225.4z"/>
		<path fill="#231F20" d="M435.4,216v6.4c0,0.9,0.2,1.7,0.6,2.2s1.1,0.8,2,0.8c0.7,0,1.3-0.2,1.8-0.5c0.6-0.3,1.1-0.8,1.5-1.4V216h1
			v10h-0.5c-0.2,0-0.3-0.1-0.3-0.3l-0.1-1.5c-0.5,0.6-1,1-1.6,1.4c-0.6,0.3-1.3,0.5-2,0.5c-0.6,0-1-0.1-1.5-0.3
			c-0.4-0.2-0.8-0.4-1-0.8c-0.3-0.3-0.5-0.7-0.6-1.2c-0.1-0.5-0.2-1-0.2-1.6V216H435.4z"/>
		<path fill="#231F20" d="M452.1,217.4C452,217.4,452,217.4,452.1,217.4c-0.1,0.1-0.2,0.1-0.2,0.1c-0.1,0-0.2,0-0.3-0.1
			c-0.1-0.1-0.3-0.2-0.5-0.3c-0.2-0.1-0.4-0.2-0.7-0.3c-0.3-0.1-0.6-0.1-1.1-0.1c-0.6,0-1.1,0.1-1.5,0.3c-0.4,0.2-0.8,0.5-1.1,0.9
			s-0.5,0.8-0.7,1.4c-0.2,0.5-0.2,1.1-0.2,1.8c0,0.7,0.1,1.3,0.2,1.9s0.4,1,0.7,1.4c0.3,0.4,0.7,0.7,1.1,0.8s0.9,0.3,1.4,0.3
			c0.5,0,0.9-0.1,1.2-0.2c0.3-0.1,0.6-0.2,0.8-0.4c0.2-0.1,0.4-0.3,0.5-0.4c0.1-0.1,0.2-0.2,0.3-0.2c0.1,0,0.2,0,0.2,0.1l0.3,0.3
			c-0.2,0.2-0.3,0.4-0.6,0.6c-0.2,0.2-0.5,0.3-0.8,0.5s-0.6,0.2-1,0.3c-0.3,0.1-0.7,0.1-1.1,0.1c-0.6,0-1.2-0.1-1.7-0.3
			s-1-0.6-1.4-1c-0.4-0.4-0.7-1-0.9-1.6c-0.2-0.6-0.3-1.4-0.3-2.2c0-0.8,0.1-1.5,0.3-2.1s0.5-1.2,0.9-1.6c0.4-0.5,0.9-0.8,1.4-1.1
			c0.6-0.3,1.2-0.4,1.9-0.4c0.6,0,1.2,0.1,1.7,0.3c0.5,0.2,0.9,0.5,1.3,0.8L452.1,217.4z"/>
		<path fill="#231F20" d="M457.3,226.2c-0.7,0-1.2-0.2-1.6-0.6c-0.4-0.4-0.6-1-0.6-1.7V217h-1.4c-0.1,0-0.1,0-0.2-0.1
			c0,0-0.1-0.1-0.1-0.2v-0.4l1.7-0.1l0.2-3.6c0-0.1,0-0.1,0.1-0.2c0,0,0.1-0.1,0.2-0.1h0.4v3.8h3.1v0.7h-3.1v6.8
			c0,0.3,0,0.5,0.1,0.7c0.1,0.2,0.2,0.4,0.3,0.5s0.3,0.2,0.4,0.3c0.2,0.1,0.3,0.1,0.5,0.1c0.2,0,0.4,0,0.6-0.1s0.3-0.1,0.5-0.2
			s0.2-0.2,0.3-0.2c0.1-0.1,0.1-0.1,0.2-0.1c0.1,0,0.1,0,0.2,0.1l0.3,0.4c-0.3,0.3-0.6,0.5-1,0.7
			C458.2,226.1,457.8,226.2,457.3,226.2z"/>
		<path fill="#231F20" d="M467.3,217.3c0,0.1-0.1,0.1-0.2,0.1c-0.1,0-0.2,0-0.3-0.1s-0.3-0.2-0.5-0.3c-0.2-0.1-0.4-0.2-0.7-0.3
			s-0.6-0.1-1-0.1c-0.4,0-0.7,0.1-1,0.2c-0.3,0.1-0.6,0.2-0.8,0.4c-0.2,0.2-0.4,0.4-0.5,0.6c-0.1,0.2-0.2,0.5-0.2,0.7
			c0,0.3,0.1,0.6,0.2,0.8s0.4,0.4,0.6,0.5c0.3,0.1,0.6,0.3,0.9,0.4c0.3,0.1,0.7,0.2,1,0.3c0.3,0.1,0.7,0.2,1,0.4
			c0.3,0.1,0.6,0.3,0.9,0.5c0.3,0.2,0.5,0.4,0.6,0.7c0.2,0.3,0.2,0.6,0.2,1c0,0.4-0.1,0.8-0.2,1.2s-0.4,0.7-0.7,1
			c-0.3,0.3-0.7,0.5-1.1,0.7c-0.4,0.2-0.9,0.2-1.5,0.2c-0.7,0-1.3-0.1-1.8-0.3s-1-0.5-1.4-0.9l0.2-0.3c0-0.1,0.1-0.1,0.1-0.1
			s0.1,0,0.2,0c0.1,0,0.2,0.1,0.3,0.2s0.3,0.2,0.5,0.3s0.5,0.2,0.8,0.3s0.7,0.2,1.1,0.2c0.4,0,0.8-0.1,1.1-0.2
			c0.3-0.1,0.6-0.3,0.8-0.5c0.2-0.2,0.4-0.4,0.5-0.7c0.1-0.3,0.2-0.6,0.2-0.9c0-0.3-0.1-0.6-0.2-0.8c-0.2-0.2-0.4-0.4-0.6-0.6
			c-0.3-0.2-0.6-0.3-0.9-0.4s-0.7-0.2-1-0.3s-0.7-0.2-1-0.4c-0.3-0.1-0.6-0.3-0.9-0.5s-0.5-0.4-0.6-0.7c-0.2-0.3-0.2-0.6-0.2-1
			c0-0.4,0.1-0.7,0.2-1c0.2-0.3,0.4-0.6,0.7-0.9c0.3-0.2,0.6-0.4,1-0.6c0.4-0.1,0.9-0.2,1.4-0.2c0.6,0,1.1,0.1,1.6,0.3
			s0.9,0.4,1.3,0.8L467.3,217.3z"/>
		<path fill="#231F20" d="M141.4,250c-0.2,0-0.3-0.1-0.4-0.3l-0.1-1.3c-0.3,0.3-0.5,0.5-0.8,0.7c-0.3,0.2-0.6,0.4-0.8,0.5
			s-0.6,0.3-1,0.3c-0.3,0.1-0.7,0.1-1.1,0.1c-0.3,0-0.7,0-1-0.1c-0.3-0.1-0.6-0.3-0.9-0.5c-0.2-0.2-0.4-0.5-0.6-0.8
			c-0.2-0.3-0.2-0.7-0.2-1.2c0-0.4,0.1-0.8,0.4-1.2c0.2-0.4,0.6-0.7,1.1-0.9c0.5-0.3,1.2-0.5,2-0.6c0.8-0.2,1.8-0.3,2.9-0.3v-1
			c0-0.9-0.2-1.6-0.6-2.1s-1-0.7-1.8-0.7c-0.5,0-0.9,0.1-1.2,0.2c-0.3,0.1-0.6,0.3-0.9,0.4c-0.2,0.2-0.4,0.3-0.6,0.4
			c-0.1,0.1-0.3,0.2-0.4,0.2c-0.1,0-0.2-0.1-0.3-0.2l-0.2-0.3c0.5-0.5,1.1-0.9,1.6-1.2c0.6-0.3,1.2-0.4,2-0.4c0.5,0,1,0.1,1.4,0.3
			c0.4,0.2,0.7,0.4,1,0.7c0.3,0.3,0.5,0.7,0.6,1.2c0.1,0.5,0.2,1,0.2,1.5v6.5H141.4z M137.4,249.5c0.4,0,0.7,0,1.1-0.1
			s0.6-0.2,0.9-0.4s0.5-0.3,0.8-0.5c0.2-0.2,0.5-0.4,0.7-0.7v-2.6c-0.9,0-1.8,0.1-2.5,0.2c-0.7,0.1-1.2,0.3-1.7,0.5
			c-0.4,0.2-0.8,0.4-1,0.7c-0.2,0.3-0.3,0.6-0.3,0.9c0,0.3,0.1,0.6,0.2,0.9c0.1,0.2,0.3,0.4,0.4,0.6c0.2,0.2,0.4,0.3,0.6,0.3
			C136.9,249.5,137.2,249.5,137.4,249.5z"/>
		<path fill="#231F20" d="M148.3,250h-0.8l-4.2-10h0.8c0.1,0,0.2,0,0.2,0.1c0.1,0.1,0.1,0.1,0.1,0.2l3.3,7.9
			c0.1,0.2,0.1,0.3,0.2,0.4c0,0.1,0.1,0.3,0.1,0.4c0-0.1,0.1-0.3,0.1-0.4c0-0.1,0.1-0.3,0.1-0.4l3.3-7.9c0-0.1,0.1-0.1,0.1-0.2
			s0.1-0.1,0.2-0.1h0.7L148.3,250z"/>
		<path fill="#231F20" d="M160.7,250c-0.2,0-0.3-0.1-0.4-0.3l-0.1-1.3c-0.3,0.3-0.5,0.5-0.8,0.7c-0.3,0.2-0.6,0.4-0.8,0.5
			s-0.6,0.3-1,0.3c-0.3,0.1-0.7,0.1-1.1,0.1c-0.3,0-0.7,0-1-0.1c-0.3-0.1-0.6-0.3-0.9-0.5c-0.2-0.2-0.4-0.5-0.6-0.8
			c-0.2-0.3-0.2-0.7-0.2-1.2c0-0.4,0.1-0.8,0.4-1.2c0.2-0.4,0.6-0.7,1.1-0.9c0.5-0.3,1.2-0.5,2-0.6c0.8-0.2,1.8-0.3,2.9-0.3v-1
			c0-0.9-0.2-1.6-0.6-2.1s-1-0.7-1.8-0.7c-0.5,0-0.9,0.1-1.2,0.2c-0.3,0.1-0.6,0.3-0.9,0.4c-0.2,0.2-0.4,0.3-0.6,0.4
			c-0.1,0.1-0.3,0.2-0.4,0.2c-0.1,0-0.2-0.1-0.3-0.2l-0.2-0.3c0.5-0.5,1.1-0.9,1.6-1.2c0.6-0.3,1.2-0.4,2-0.4c0.5,0,1,0.1,1.4,0.3
			c0.4,0.2,0.7,0.4,1,0.7c0.3,0.3,0.5,0.7,0.6,1.2c0.1,0.5,0.2,1,0.2,1.5v6.5H160.7z M156.7,249.5c0.4,0,0.7,0,1.1-0.1
			s0.6-0.2,0.9-0.4s0.5-0.3,0.8-0.5c0.2-0.2,0.5-0.4,0.7-0.7v-2.6c-0.9,0-1.8,0.1-2.5,0.2c-0.7,0.1-1.2,0.3-1.7,0.5
			c-0.4,0.2-0.8,0.4-1,0.7c-0.2,0.3-0.3,0.6-0.3,0.9c0,0.3,0.1,0.6,0.2,0.9c0.1,0.2,0.3,0.4,0.4,0.6c0.2,0.2,0.4,0.3,0.6,0.3
			C156.2,249.5,156.4,249.5,156.7,249.5z"/>
		<path fill="#231F20" d="M165.8,236.6c0,0.1,0,0.2-0.1,0.3s-0.1,0.2-0.2,0.3s-0.2,0.1-0.3,0.2c-0.1,0-0.2,0.1-0.3,0.1
			c-0.1,0-0.2,0-0.3-0.1c-0.1,0-0.2-0.1-0.3-0.2s-0.1-0.2-0.2-0.3s-0.1-0.2-0.1-0.3s0-0.2,0.1-0.3s0.1-0.2,0.2-0.3s0.2-0.1,0.3-0.2
			c0.1,0,0.2-0.1,0.3-0.1c0.1,0,0.2,0,0.3,0.1c0.1,0,0.2,0.1,0.3,0.2s0.1,0.2,0.2,0.3S165.8,236.5,165.8,236.6z M165.3,240.1v10h-1
			v-10H165.3z"/>
		<path fill="#231F20" d="M170.1,235.5V250h-1v-14.6H170.1z"/>
		<path fill="#231F20" d="M180,250c-0.2,0-0.3-0.1-0.4-0.3l-0.1-1.3c-0.3,0.3-0.5,0.5-0.8,0.7c-0.3,0.2-0.6,0.4-0.8,0.5
			s-0.6,0.3-1,0.3c-0.3,0.1-0.7,0.1-1.1,0.1c-0.3,0-0.7,0-1-0.1c-0.3-0.1-0.6-0.3-0.9-0.5c-0.2-0.2-0.4-0.5-0.6-0.8
			c-0.2-0.3-0.2-0.7-0.2-1.2c0-0.4,0.1-0.8,0.4-1.2c0.2-0.4,0.6-0.7,1.1-0.9c0.5-0.3,1.2-0.5,2-0.6c0.8-0.2,1.8-0.3,2.9-0.3v-1
			c0-0.9-0.2-1.6-0.6-2.1s-1-0.7-1.8-0.7c-0.5,0-0.9,0.1-1.2,0.2c-0.3,0.1-0.6,0.3-0.9,0.4c-0.2,0.2-0.4,0.3-0.6,0.4
			c-0.1,0.1-0.3,0.2-0.4,0.2c-0.1,0-0.2-0.1-0.3-0.2l-0.2-0.3c0.5-0.5,1.1-0.9,1.6-1.2c0.6-0.3,1.2-0.4,2-0.4c0.5,0,1,0.1,1.4,0.3
			c0.4,0.2,0.7,0.4,1,0.7c0.3,0.3,0.5,0.7,0.6,1.2c0.1,0.5,0.2,1,0.2,1.5v6.5H180z M176,249.5c0.4,0,0.7,0,1.1-0.1s0.6-0.2,0.9-0.4
			s0.5-0.3,0.8-0.5c0.2-0.2,0.5-0.4,0.7-0.7v-2.6c-0.9,0-1.8,0.1-2.5,0.2c-0.7,0.1-1.2,0.3-1.7,0.5c-0.4,0.2-0.8,0.4-1,0.7
			c-0.2,0.3-0.3,0.6-0.3,0.9c0,0.3,0.1,0.6,0.2,0.9c0.1,0.2,0.3,0.4,0.4,0.6c0.2,0.2,0.4,0.3,0.6,0.3
			C175.5,249.5,175.7,249.5,176,249.5z"/>
		<path fill="#231F20" d="M183.5,250v-14.6h1l0,6.4c0.4-0.6,1-1.1,1.5-1.4c0.6-0.3,1.2-0.5,2-0.5c1.2,0,2.2,0.4,2.9,1.3s1,2.1,1,3.8
			c0,0.7-0.1,1.4-0.3,2s-0.5,1.2-0.8,1.6c-0.4,0.5-0.8,0.8-1.4,1.1c-0.5,0.3-1.2,0.4-1.9,0.4c-0.7,0-1.3-0.1-1.8-0.4
			c-0.5-0.3-0.9-0.7-1.3-1.2l-0.1,1.2c0,0.2-0.1,0.3-0.3,0.3H183.5z M187.7,240.7c-0.7,0-1.3,0.2-1.8,0.5c-0.5,0.3-1,0.8-1.4,1.4
			v5.3c0.4,0.6,0.8,1,1.3,1.2s1,0.3,1.6,0.3c0.6,0,1.1-0.1,1.5-0.3c0.4-0.2,0.8-0.5,1.1-0.9c0.3-0.4,0.5-0.9,0.7-1.4
			c0.2-0.5,0.2-1.1,0.2-1.8c0-1.5-0.3-2.6-0.8-3.3C189.5,241,188.7,240.7,187.7,240.7z"/>
		<path fill="#231F20" d="M195.5,235.5V250h-1v-14.6H195.5z"/>
		<path fill="#231F20" d="M202.8,239.9c0.6,0,1.1,0.1,1.6,0.3s0.9,0.5,1.2,0.8c0.4,0.4,0.6,0.8,0.8,1.4c0.2,0.5,0.3,1.2,0.3,1.9
			c0,0.1,0,0.2-0.1,0.3c0,0.1-0.1,0.1-0.2,0.1h-7.2v0.2c0,0.7,0.1,1.4,0.3,2c0.2,0.6,0.4,1,0.7,1.4c0.3,0.4,0.7,0.7,1.2,0.9
			c0.5,0.2,1,0.3,1.5,0.3c0.5,0,0.9-0.1,1.3-0.2s0.7-0.2,0.9-0.4c0.3-0.1,0.4-0.3,0.6-0.4c0.1-0.1,0.3-0.2,0.3-0.2
			c0.1,0,0.2,0,0.2,0.1l0.3,0.3c-0.2,0.2-0.4,0.4-0.6,0.6c-0.3,0.2-0.6,0.3-0.9,0.4c-0.3,0.1-0.7,0.2-1,0.3s-0.7,0.1-1.1,0.1
			c-0.7,0-1.3-0.1-1.9-0.4c-0.6-0.2-1-0.6-1.4-1c-0.4-0.5-0.7-1-0.9-1.7c-0.2-0.7-0.3-1.4-0.3-2.3c0-0.7,0.1-1.4,0.3-2
			c0.2-0.6,0.5-1.1,0.9-1.6c0.4-0.4,0.9-0.8,1.4-1C201.5,240,202.1,239.9,202.8,239.9z M202.8,240.6c-0.5,0-1,0.1-1.4,0.2
			c-0.4,0.2-0.8,0.4-1.1,0.7s-0.5,0.7-0.7,1.1s-0.3,0.9-0.4,1.4h6.6c0-0.5-0.1-1-0.2-1.4c-0.1-0.4-0.4-0.8-0.6-1.1
			c-0.3-0.3-0.6-0.5-1-0.7C203.7,240.7,203.3,240.6,202.8,240.6z"/>
		<path fill="#231F20" d="M215.9,250.2c-0.7,0-1.2-0.2-1.6-0.6c-0.4-0.4-0.6-1-0.6-1.7v-6.8h-1.4c-0.1,0-0.1,0-0.2-0.1
			c0,0-0.1-0.1-0.1-0.2v-0.4l1.7-0.1l0.2-3.6c0-0.1,0-0.1,0.1-0.2c0,0,0.1-0.1,0.2-0.1h0.4v3.8h3.1v0.7h-3.1v6.8
			c0,0.3,0,0.5,0.1,0.7c0.1,0.2,0.2,0.4,0.3,0.5s0.3,0.2,0.4,0.3c0.2,0.1,0.3,0.1,0.5,0.1c0.2,0,0.4,0,0.6-0.1s0.3-0.1,0.5-0.2
			s0.2-0.2,0.3-0.2c0.1-0.1,0.1-0.1,0.2-0.1c0.1,0,0.1,0,0.2,0.1l0.3,0.4c-0.3,0.3-0.6,0.5-1,0.7
			C216.7,250.1,216.3,250.2,215.9,250.2z"/>
		<path fill="#231F20" d="M224.1,239.9c0.7,0,1.4,0.1,1.9,0.4c0.6,0.2,1,0.6,1.4,1c0.4,0.4,0.7,1,0.9,1.6s0.3,1.3,0.3,2.1
			s-0.1,1.5-0.3,2.1c-0.2,0.6-0.5,1.2-0.9,1.6s-0.9,0.8-1.4,1c-0.6,0.2-1.2,0.4-1.9,0.4s-1.4-0.1-1.9-0.4s-1-0.6-1.4-1
			s-0.7-1-0.9-1.6c-0.2-0.6-0.3-1.3-0.3-2.1s0.1-1.5,0.3-2.1c0.2-0.6,0.5-1.2,0.9-1.6c0.4-0.4,0.9-0.8,1.4-1
			C222.8,240,223.4,239.9,224.1,239.9z M224.1,249.4c0.6,0,1.1-0.1,1.6-0.3c0.4-0.2,0.8-0.5,1.1-0.9s0.5-0.8,0.7-1.4
			c0.1-0.5,0.2-1.1,0.2-1.8c0-0.7-0.1-1.3-0.2-1.8c-0.1-0.5-0.4-1-0.7-1.4s-0.7-0.7-1.1-0.9c-0.4-0.2-1-0.3-1.6-0.3
			s-1.1,0.1-1.6,0.3c-0.4,0.2-0.8,0.5-1.1,0.9s-0.5,0.8-0.7,1.4c-0.2,0.5-0.2,1.1-0.2,1.8c0,0.7,0.1,1.3,0.2,1.8
			c0.1,0.5,0.4,1,0.7,1.4s0.7,0.7,1.1,0.9C223,249.3,223.5,249.4,224.1,249.4z"/>
		<path fill="#231F20" d="M241.4,250c-0.2,0-0.3-0.1-0.4-0.3l-0.1-1.3c-0.3,0.3-0.5,0.5-0.8,0.7c-0.3,0.2-0.6,0.4-0.8,0.5
			s-0.6,0.3-1,0.3c-0.3,0.1-0.7,0.1-1.1,0.1c-0.3,0-0.7,0-1-0.1c-0.3-0.1-0.6-0.3-0.9-0.5c-0.2-0.2-0.4-0.5-0.6-0.8
			c-0.2-0.3-0.2-0.7-0.2-1.2c0-0.4,0.1-0.8,0.4-1.2c0.2-0.4,0.6-0.7,1.1-0.9c0.5-0.3,1.2-0.5,2-0.6c0.8-0.2,1.8-0.3,2.9-0.3v-1
			c0-0.9-0.2-1.6-0.6-2.1s-1-0.7-1.8-0.7c-0.5,0-0.9,0.1-1.2,0.2c-0.3,0.1-0.6,0.3-0.9,0.4c-0.2,0.2-0.4,0.3-0.6,0.4
			c-0.1,0.1-0.3,0.2-0.4,0.2c-0.1,0-0.2-0.1-0.3-0.2l-0.2-0.3c0.5-0.5,1.1-0.9,1.6-1.2c0.6-0.3,1.2-0.4,2-0.4c0.5,0,1,0.1,1.4,0.3
			c0.4,0.2,0.7,0.4,1,0.7c0.3,0.3,0.5,0.7,0.6,1.2c0.1,0.5,0.2,1,0.2,1.5v6.5H241.4z M237.4,249.5c0.4,0,0.7,0,1.1-0.1
			s0.6-0.2,0.9-0.4s0.5-0.3,0.8-0.5c0.2-0.2,0.5-0.4,0.7-0.7v-2.6c-0.9,0-1.8,0.1-2.5,0.2c-0.7,0.1-1.2,0.3-1.7,0.5
			c-0.4,0.2-0.8,0.4-1,0.7c-0.2,0.3-0.3,0.6-0.3,0.9c0,0.3,0.1,0.6,0.2,0.9c0.1,0.2,0.3,0.4,0.4,0.6c0.2,0.2,0.4,0.3,0.6,0.3
			C236.9,249.5,237.1,249.5,237.4,249.5z"/>
		<path fill="#231F20" d="M244.8,250v-10h0.5c0.2,0,0.3,0.1,0.3,0.3l0.1,1.5c0.5-0.6,1-1,1.6-1.4c0.6-0.4,1.3-0.5,2-0.5
			c0.5,0,1,0.1,1.4,0.3c0.4,0.2,0.8,0.4,1,0.8c0.3,0.3,0.5,0.7,0.6,1.2c0.1,0.5,0.2,1,0.2,1.6v6.4h-1v-6.4c0-0.9-0.2-1.7-0.6-2.2
			c-0.4-0.5-1.1-0.8-2-0.8c-0.7,0-1.3,0.2-1.8,0.5s-1.1,0.8-1.5,1.4v7.5H244.8z"/>
		<path fill="#231F20" d="M257.6,253.3c0,0.1-0.1,0.2-0.2,0.2s-0.2,0.1-0.3,0.1h-0.7l1.8-3.9l-4.2-9.6h0.8c0.1,0,0.2,0,0.2,0.1
			c0.1,0.1,0.1,0.1,0.1,0.2l3.4,7.8c0,0.1,0.1,0.2,0.1,0.3s0.1,0.2,0.1,0.3c0-0.1,0.1-0.2,0.1-0.3c0-0.1,0.1-0.2,0.1-0.3l3.3-7.8
			c0-0.1,0.1-0.1,0.1-0.2c0.1,0,0.1-0.1,0.2-0.1h0.7L257.6,253.3z"/>
		<path fill="#231F20" d="M268.8,239.9c0.7,0,1.4,0.1,1.9,0.4c0.6,0.2,1,0.6,1.4,1c0.4,0.4,0.7,1,0.9,1.6s0.3,1.3,0.3,2.1
			s-0.1,1.5-0.3,2.1c-0.2,0.6-0.5,1.2-0.9,1.6s-0.9,0.8-1.4,1c-0.6,0.2-1.2,0.4-1.9,0.4s-1.4-0.1-1.9-0.4s-1-0.6-1.4-1
			s-0.7-1-0.9-1.6c-0.2-0.6-0.3-1.3-0.3-2.1s0.1-1.5,0.3-2.1c0.2-0.6,0.5-1.2,0.9-1.6c0.4-0.4,0.9-0.8,1.4-1
			C267.4,240,268.1,239.9,268.8,239.9z M268.8,249.4c0.6,0,1.1-0.1,1.6-0.3c0.4-0.2,0.8-0.5,1.1-0.9s0.5-0.8,0.7-1.4
			c0.1-0.5,0.2-1.1,0.2-1.8c0-0.7-0.1-1.3-0.2-1.8c-0.1-0.5-0.4-1-0.7-1.4s-0.7-0.7-1.1-0.9c-0.4-0.2-1-0.3-1.6-0.3
			s-1.1,0.1-1.6,0.3c-0.4,0.2-0.8,0.5-1.1,0.9s-0.5,0.8-0.7,1.4c-0.2,0.5-0.2,1.1-0.2,1.8c0,0.7,0.1,1.3,0.2,1.8
			c0.1,0.5,0.4,1,0.7,1.4s0.7,0.7,1.1,0.9C267.7,249.3,268.2,249.4,268.8,249.4z"/>
		<path fill="#231F20" d="M275.8,250v-10h0.5c0.2,0,0.3,0.1,0.3,0.3l0.1,1.5c0.5-0.6,1-1,1.6-1.4c0.6-0.4,1.3-0.5,2-0.5
			c0.5,0,1,0.1,1.4,0.3c0.4,0.2,0.8,0.4,1,0.8c0.3,0.3,0.5,0.7,0.6,1.2c0.1,0.5,0.2,1,0.2,1.6v6.4h-1v-6.4c0-0.9-0.2-1.7-0.6-2.2
			c-0.4-0.5-1.1-0.8-2-0.8c-0.7,0-1.3,0.2-1.8,0.5s-1.1,0.8-1.5,1.4v7.5H275.8z"/>
		<path fill="#231F20" d="M290.4,239.9c0.6,0,1.1,0.1,1.6,0.3s0.9,0.5,1.2,0.8c0.4,0.4,0.6,0.8,0.8,1.4c0.2,0.5,0.3,1.2,0.3,1.9
			c0,0.1,0,0.2-0.1,0.3c0,0.1-0.1,0.1-0.2,0.1h-7.2v0.2c0,0.7,0.1,1.4,0.3,2c0.2,0.6,0.4,1,0.7,1.4c0.3,0.4,0.7,0.7,1.2,0.9
			c0.5,0.2,1,0.3,1.5,0.3c0.5,0,0.9-0.1,1.3-0.2s0.7-0.2,0.9-0.4c0.3-0.1,0.4-0.3,0.6-0.4c0.1-0.1,0.3-0.2,0.3-0.2
			c0.1,0,0.2,0,0.2,0.1l0.3,0.3c-0.2,0.2-0.4,0.4-0.6,0.6c-0.3,0.2-0.6,0.3-0.9,0.4c-0.3,0.1-0.7,0.2-1,0.3s-0.7,0.1-1.1,0.1
			c-0.7,0-1.3-0.1-1.9-0.4c-0.6-0.2-1-0.6-1.4-1c-0.4-0.5-0.7-1-0.9-1.7c-0.2-0.7-0.3-1.4-0.3-2.3c0-0.7,0.1-1.4,0.3-2
			c0.2-0.6,0.5-1.1,0.9-1.6c0.4-0.4,0.9-0.8,1.4-1C289.1,240,289.7,239.9,290.4,239.9z M290.4,240.6c-0.5,0-1,0.1-1.4,0.2
			c-0.4,0.2-0.8,0.4-1.1,0.7s-0.5,0.7-0.7,1.1s-0.3,0.9-0.4,1.4h6.6c0-0.5-0.1-1-0.2-1.4c-0.1-0.4-0.4-0.8-0.6-1.1
			c-0.3-0.3-0.6-0.5-1-0.7C291.3,240.7,290.9,240.6,290.4,240.6z"/>
		<path fill="#231F20" d="M307.1,250c-0.2,0-0.3-0.1-0.4-0.3l-0.1-1.3c-0.3,0.3-0.5,0.5-0.8,0.7c-0.3,0.2-0.6,0.4-0.8,0.5
			s-0.6,0.3-1,0.3c-0.3,0.1-0.7,0.1-1.1,0.1c-0.3,0-0.7,0-1-0.1c-0.3-0.1-0.6-0.3-0.9-0.5c-0.2-0.2-0.4-0.5-0.6-0.8
			c-0.2-0.3-0.2-0.7-0.2-1.2c0-0.4,0.1-0.8,0.4-1.2c0.2-0.4,0.6-0.7,1.1-0.9c0.5-0.3,1.2-0.5,2-0.6c0.8-0.2,1.8-0.3,2.9-0.3v-1
			c0-0.9-0.2-1.6-0.6-2.1s-1-0.7-1.8-0.7c-0.5,0-0.9,0.1-1.2,0.2c-0.3,0.1-0.6,0.3-0.9,0.4c-0.2,0.2-0.4,0.3-0.6,0.4
			c-0.1,0.1-0.3,0.2-0.4,0.2c-0.1,0-0.2-0.1-0.3-0.2l-0.2-0.3c0.5-0.5,1.1-0.9,1.6-1.2c0.6-0.3,1.2-0.4,2-0.4c0.5,0,1,0.1,1.4,0.3
			c0.4,0.2,0.7,0.4,1,0.7c0.3,0.3,0.5,0.7,0.6,1.2c0.1,0.5,0.2,1,0.2,1.5v6.5H307.1z M303.1,249.5c0.4,0,0.7,0,1.1-0.1
			s0.6-0.2,0.9-0.4s0.5-0.3,0.8-0.5c0.2-0.2,0.5-0.4,0.7-0.7v-2.6c-0.9,0-1.8,0.1-2.5,0.2c-0.7,0.1-1.2,0.3-1.7,0.5
			c-0.4,0.2-0.8,0.4-1,0.7c-0.2,0.3-0.3,0.6-0.3,0.9c0,0.3,0.1,0.6,0.2,0.9c0.1,0.2,0.3,0.4,0.4,0.6c0.2,0.2,0.4,0.3,0.6,0.3
			C302.6,249.5,302.9,249.5,303.1,249.5z"/>
		<path fill="#231F20" d="M310.5,250v-10h0.5c0.2,0,0.3,0.1,0.3,0.3l0.1,1.5c0.5-0.6,1-1,1.6-1.4c0.6-0.4,1.3-0.5,2-0.5
			c0.5,0,1,0.1,1.4,0.3c0.4,0.2,0.8,0.4,1,0.8c0.3,0.3,0.5,0.7,0.6,1.2c0.1,0.5,0.2,1,0.2,1.6v6.4h-1v-6.4c0-0.9-0.2-1.7-0.6-2.2
			c-0.4-0.5-1.1-0.8-2-0.8c-0.7,0-1.3,0.2-1.8,0.5s-1.1,0.8-1.5,1.4v7.5H310.5z"/>
		<path fill="#231F20" d="M323.3,253.3c0,0.1-0.1,0.2-0.2,0.2s-0.2,0.1-0.3,0.1h-0.7l1.8-3.9l-4.2-9.6h0.8c0.1,0,0.2,0,0.2,0.1
			c0.1,0.1,0.1,0.1,0.1,0.2l3.4,7.8c0,0.1,0.1,0.2,0.1,0.3s0.1,0.2,0.1,0.3c0-0.1,0.1-0.2,0.1-0.3c0-0.1,0.1-0.2,0.1-0.3l3.3-7.8
			c0-0.1,0.1-0.1,0.1-0.2c0.1,0,0.1-0.1,0.2-0.1h0.7L323.3,253.3z"/>
		<path fill="#231F20" d="M329.5,240.1h0.7c0.1,0,0.2,0,0.2,0.1c0.1,0.1,0.1,0.1,0.1,0.2l2.5,7.9c0,0.2,0.1,0.3,0.1,0.4
			c0,0.1,0.1,0.3,0.1,0.4c0-0.1,0.1-0.3,0.1-0.4c0-0.1,0.1-0.3,0.1-0.4l2.7-7.9c0-0.1,0.1-0.2,0.3-0.2h0.4c0.1,0,0.2,0.1,0.3,0.2
			l2.6,7.9c0.1,0.3,0.2,0.6,0.2,0.9c0-0.1,0.1-0.3,0.1-0.4c0-0.1,0.1-0.3,0.1-0.4l2.5-7.9c0.1-0.2,0.2-0.2,0.3-0.2h0.7l-3.3,10h-0.7
			c-0.1,0-0.2-0.1-0.2-0.2l-2.7-8.1c0-0.1-0.1-0.2-0.1-0.3c0-0.1,0-0.2-0.1-0.3c0,0.1,0,0.2-0.1,0.3c0,0.1-0.1,0.2-0.1,0.3l-2.8,8.1
			c0,0.1-0.1,0.2-0.2,0.2h-0.7L329.5,240.1z"/>
		<path fill="#231F20" d="M345.6,250v-14.6h1v6.3c0.5-0.6,1-1,1.6-1.4c0.6-0.3,1.3-0.5,2-0.5c0.5,0,1,0.1,1.4,0.3
			c0.4,0.2,0.8,0.4,1,0.8c0.3,0.3,0.5,0.7,0.6,1.2c0.1,0.5,0.2,1,0.2,1.6v6.4h-1v-6.4c0-0.9-0.2-1.7-0.6-2.2c-0.4-0.5-1.1-0.8-2-0.8
			c-0.7,0-1.3,0.2-1.8,0.5s-1.1,0.8-1.5,1.4v7.5H345.6z"/>
		<path fill="#231F20" d="M360.2,239.9c0.6,0,1.1,0.1,1.6,0.3s0.9,0.5,1.2,0.8c0.4,0.4,0.6,0.8,0.8,1.4c0.2,0.5,0.3,1.2,0.3,1.9
			c0,0.1,0,0.2-0.1,0.3c0,0.1-0.1,0.1-0.2,0.1h-7.2v0.2c0,0.7,0.1,1.4,0.3,2c0.2,0.6,0.4,1,0.7,1.4c0.3,0.4,0.7,0.7,1.2,0.9
			c0.5,0.2,1,0.3,1.5,0.3c0.5,0,0.9-0.1,1.3-0.2s0.7-0.2,0.9-0.4c0.3-0.1,0.4-0.3,0.6-0.4c0.1-0.1,0.3-0.2,0.3-0.2
			c0.1,0,0.2,0,0.2,0.1l0.3,0.3c-0.2,0.2-0.4,0.4-0.6,0.6c-0.3,0.2-0.6,0.3-0.9,0.4c-0.3,0.1-0.7,0.2-1,0.3s-0.7,0.1-1.1,0.1
			c-0.7,0-1.3-0.1-1.9-0.4c-0.6-0.2-1-0.6-1.4-1c-0.4-0.5-0.7-1-0.9-1.7c-0.2-0.7-0.3-1.4-0.3-2.3c0-0.7,0.1-1.4,0.3-2
			c0.2-0.6,0.5-1.1,0.9-1.6c0.4-0.4,0.9-0.8,1.4-1C358.9,240,359.5,239.9,360.2,239.9z M360.3,240.6c-0.5,0-1,0.1-1.4,0.2
			c-0.4,0.2-0.8,0.4-1.1,0.7s-0.5,0.7-0.7,1.1s-0.3,0.9-0.4,1.4h6.6c0-0.5-0.1-1-0.2-1.4c-0.1-0.4-0.4-0.8-0.6-1.1
			c-0.3-0.3-0.6-0.5-1-0.7C361.1,240.7,360.7,240.6,360.3,240.6z"/>
		<path fill="#231F20" d="M366.7,250v-10h0.5c0.1,0,0.2,0,0.2,0.1s0.1,0.1,0.1,0.2l0.1,2.1c0.3-0.8,0.7-1.4,1.3-1.9
			c0.5-0.5,1.2-0.7,2-0.7c0.3,0,0.6,0,0.8,0.1s0.5,0.2,0.7,0.3l-0.1,0.7c0,0.1-0.1,0.2-0.2,0.2c0,0-0.1,0-0.2,0
			c-0.1,0-0.2-0.1-0.3-0.1c-0.1,0-0.2-0.1-0.4-0.1c-0.2,0-0.3,0-0.6,0c-0.8,0-1.4,0.2-1.9,0.7s-0.9,1.1-1.2,2v6.5H366.7z"/>
		<path fill="#231F20" d="M378.4,239.9c0.6,0,1.1,0.1,1.6,0.3s0.9,0.5,1.2,0.8c0.4,0.4,0.6,0.8,0.8,1.4c0.2,0.5,0.3,1.2,0.3,1.9
			c0,0.1,0,0.2-0.1,0.3c0,0.1-0.1,0.1-0.2,0.1h-7.2v0.2c0,0.7,0.1,1.4,0.3,2c0.2,0.6,0.4,1,0.7,1.4c0.3,0.4,0.7,0.7,1.2,0.9
			c0.5,0.2,1,0.3,1.5,0.3c0.5,0,0.9-0.1,1.3-0.2s0.7-0.2,0.9-0.4c0.3-0.1,0.4-0.3,0.6-0.4c0.1-0.1,0.3-0.2,0.3-0.2
			c0.1,0,0.2,0,0.2,0.1l0.3,0.3c-0.2,0.2-0.4,0.4-0.6,0.6c-0.3,0.2-0.6,0.3-0.9,0.4c-0.3,0.1-0.7,0.2-1,0.3s-0.7,0.1-1.1,0.1
			c-0.7,0-1.3-0.1-1.9-0.4c-0.6-0.2-1-0.6-1.4-1c-0.4-0.5-0.7-1-0.9-1.7c-0.2-0.7-0.3-1.4-0.3-2.3c0-0.7,0.1-1.4,0.3-2
			c0.2-0.6,0.5-1.1,0.9-1.6c0.4-0.4,0.9-0.8,1.4-1C377.1,240,377.7,239.9,378.4,239.9z M378.5,240.6c-0.5,0-1,0.1-1.4,0.2
			c-0.4,0.2-0.8,0.4-1.1,0.7s-0.5,0.7-0.7,1.1s-0.3,0.9-0.4,1.4h6.6c0-0.5-0.1-1-0.2-1.4c-0.1-0.4-0.4-0.8-0.6-1.1
			c-0.3-0.3-0.6-0.5-1-0.7C379.3,240.7,378.9,240.6,378.5,240.6z"/>
	</g>
	<line fill="#231F20" x1="112.2" y1="186.5" x2="112.2" y2="250.5"/>
</g>
<g id="Layer_5">
</g>
</svg>
