<?xml version="1.0" encoding="utf-8"?>
<!-- Generator: Adobe Illustrator 18.0.0, SVG Export Plug-In . SVG Version: 6.00 Build 0)  -->
<!DOCTYPE svg PUBLIC "-//W3C//DTD SVG 1.1//EN" "http://www.w3.org/Graphics/SVG/1.1/DTD/svg11.dtd">
<svg version="1.1" xmlns="http://www.w3.org/2000/svg" xmlns:xlink="http://www.w3.org/1999/xlink" x="0px" y="0px"
	 viewBox="0 -48 800 531" enable-background="new 0 -48 800 531" xml:space="preserve">
<g id="Layer_10">
	<rect x="1.6" y="-48" fill="#F2E5AB" width="798.4" height="531"/>
</g>
<g id="Layer_4">
	<path fill="#616262" d="M686.2,304.6c0,3.3-0.6,5.9-1.3,5.9c-0.7,0-1.3-2.6-1.3-5.9c0-3.3,0.6-5.9,1.3-5.9
		C685.6,298.7,686.2,301.3,686.2,304.6"/>
	<path fill="#616262" d="M682.2,302.9c0,2.4-0.4,4.3-1,4.3c-0.5,0-1-1.9-1-4.3c0-2.4,0.4-4.3,1-4.3
		C681.8,298.5,682.2,300.5,682.2,302.9"/>
	<path fill="#616262" d="M591.2,304.6c0,3.3-0.6,5.9-1.3,5.9c-0.7,0-1.3-2.6-1.3-5.9c0-3.3,0.6-5.9,1.3-5.9
		C590.6,298.7,591.2,301.3,591.2,304.6"/>
	<path fill="#616262" d="M594.8,302.9c0,2.4-0.4,4.3-1,4.3c-0.5,0-1-1.9-1-4.3c0-2.4,0.4-4.3,1-4.3
		C594.4,298.5,594.8,300.5,594.8,302.9"/>
	<polygon fill="#2C2B24" points="582,302.9 691.9,302.9 691.9,290.9 656,290.9 656,281.8 621.4,281.8 621.4,272.8 582,272.8 	"/>
	<path fill="#D6A38E" d="M583.4,241.8c-0.1,0.6-0.2,1.1-0.4,1.8c-0.4-0.4-0.7-0.9-0.9-1.4c-1-1.8-1.6-3.7-2-5.7
		c-0.1-0.9-0.3-1.8-0.2-2.7c0-0.2,0-0.2-0.3-0.3c-2.5-0.7-1.9-6.7-4.5-6.3c-2,0.4-9.7,1.3-11.7,1.5c-1.1,0.1-3.6,1.3-4.7,1.4
		c-1.1,0.1-1.2,4.2-2.3,4.3c-2.1,0.1-1.3,1.8,0,1.9c0.3,0,1.5,0.3,1.4,0.6c-0.4,1.5-0.8,3.1-1.4,4.5c-0.3,0.7-0.6,1.4-1.2,2.1
		c-0.2-0.6-0.3-1.2-0.4-1.8c-0.9,0-1.2,0.3-1.2,1.2c0,0.7,0.1,1.3,0.3,2c0.2,0.7,0.5,1.4,0.5,2.2c0,0.5,0.5,0.8,1,0.7
		c0.3,0,0.4,0,0.4,0.3c0,0.1,0.1,0.2,0.1,0.4c0.6,2.4,1.8,4.4,3.7,5.9c1.4,1.1,3,1.8,4.7,2.2c0.1,0,0.4,0,0.4,0.2c0,0.3,0.1,0.7,0,1
		c0,0.2-0.4,0.1-0.5,0.2c0,0-0.1,0.1-0.1,0.1c0,0.2,0.1,0.4,0.1,0.6c0.1,1.3,0.6,2.3,1.6,3.2c1.1,0.9,2.3,1,3.6,1.1
		c0.4,0,0.9,0,1.4-0.1c1-0.2,1.9-0.6,2.6-1.4c0.9-1,1.1-2.2,1.2-3.4c-0.1,0-0.2-0.1-0.3-0.1c-0.3,0-0.4-0.1-0.4-0.4
		c0-0.8,0-0.8,0.8-1c0.1,0,0.2,0,0.2-0.1c2.4-0.7,4.4-1.9,5.9-3.9c1-1.3,1.6-2.9,2-4.5c0.1-0.2,0.1-0.3,0.3-0.2
		c0.6,0.1,1.1-0.3,1.1-0.9c0-0.4,0.1-0.8,0.2-1.2c0.3-0.9,0.6-1.8,0.5-2.8C584.6,242.3,584.3,241.7,583.4,241.8"/>
	<g>
		<defs>
			<rect id="SVGID_1_" x="404.9" y="214.8" width="100.5" height="94.1"/>
		</defs>
		<clipPath id="SVGID_2_">
			<use xlink:href="#SVGID_1_"  overflow="visible"/>
		</clipPath>
		<path clip-path="url(#SVGID_2_)" fill="#616262" d="M439.1,303.1c0,3.3-0.6,5.9-1.3,5.9c-0.7,0-1.3-2.6-1.3-5.9
			c0-3.3,0.6-5.9,1.3-5.9C438.5,297.2,439.1,299.8,439.1,303.1"/>
		<path clip-path="url(#SVGID_2_)" fill="#616262" d="M498.8,303.1c0,3.3-0.6,5.9-1.3,5.9c-0.7,0-1.3-2.6-1.3-5.9
			c0-3.3,0.6-5.9,1.3-5.9C498.2,297.2,498.8,299.8,498.8,303.1"/>
		<path clip-path="url(#SVGID_2_)" fill="#616262" d="M494.8,301.4c0,2.4-0.4,4.3-1,4.3c-0.5,0-1-1.9-1-4.3c0-2.4,0.4-4.3,1-4.3
			C494.4,297,494.8,299,494.8,301.4"/>
		<path clip-path="url(#SVGID_2_)" fill="#616262" d="M442.6,301.4c0,2.4-0.4,4.3-1,4.3c-0.5,0-1-1.9-1-4.3c0-2.4,0.4-4.3,1-4.3
			C442.2,297,442.6,299,442.6,301.4"/>
	</g>
	<rect x="429.8" y="271.3" fill="#6CC2DE" width="75.6" height="30.1"/>
	<path fill="#112029" d="M429.8,288.1c0,1.6,0,3.1,0,4.7c-2.2,0-4.4,0-6.6,0c-0.3,0-0.3-0.2-0.3-0.3v-4.4c0-0.2,0-0.4,0-0.6
		c-0.1-0.7-0.4-1.1-1.1-1.2c-0.4-0.1-0.9-0.1-1.3,0c-0.6,0.1-0.9,0.4-1,1c0,0.2-0.1,0.4-0.1,0.7c0,1.6,0,3.2,0,4.9h-6.9
		c0-1.6,0-3.2,0-4.7c0-0.1,0-0.3,0-0.4c0-5.3,0-10.5,0-15.8c0-0.5,0.1-1,0.5-1.4c1.7-2.3,2.3-4.9,2.2-7.7c0.4-0.1,0.9-0.3,1.3-0.2
		c0,0.2,0.1,0.4,0.1,0.6c0.1,1.1,0.5,2.1,1.4,2.8c1,0.8,2.1,0.9,3.2,0.9c0.4,0,0.8,0,1.2-0.1c0.9-0.2,1.7-0.6,2.3-1.2
		c0.8-0.9,1-1.9,1-3c0.4,0.1,0.9,0.1,1.3,0.2c0,0.4,0,0.9,0.1,1.3c0.1,0.8,0.2,1.7,0.4,2.5c0.3,1.4,0.9,2.8,1.8,3.9
		c0.4,0.5,0.5,1,0.5,1.6c0,3.4,0,6.7,0,10.1C429.8,284.1,429.8,286.1,429.8,288.1"/>
	<path fill="#E0B495" d="M433.8,248c-0.1,0.5-0.2,1-0.3,1.6c-0.4-0.4-0.6-0.8-0.8-1.2c-0.8-1.6-1.4-3.3-1.7-5
		c-0.1-0.8-0.2-1.6-0.2-2.4c0-0.2,0-0.3-0.3-0.2c-2.2,0.6-1.7-5.9-3.9-5.5c-1.8,0.3-8.6,1.1-10.4,1.4c-1,0.1-3.2,1.2-4.1,1.2
		c-1,0.1-1.1,3.7-2,3.8c-1.9,0.1-1.2,1.6,0,1.7c0.3,0,1.3,0.3,1.2,0.5c-0.3,1.4-0.7,2.7-1.3,4c-0.3,0.6-0.6,1.3-1.1,1.8
		c-0.2-0.5-0.3-1.1-0.3-1.6c-0.8,0-1.1,0.3-1.1,1.1c0,0.6,0.1,1.2,0.2,1.7c0.2,0.6,0.5,1.2,0.4,1.9c0,0.4,0.4,0.7,0.9,0.6
		c0.2,0,0.3,0,0.3,0.2c0,0.1,0,0.2,0.1,0.3c0.5,2.1,1.5,3.9,3.2,5.2c1.2,1,2.6,1.6,4.1,2c0.1,0,0.3,0,0.3,0.2c0,0.3,0.1,0.6,0,0.9
		c0,0.2-0.3,0.1-0.5,0.2c0,0-0.1,0-0.1,0.1c0,0.2,0.1,0.4,0.1,0.6c0.1,1.1,0.5,2.1,1.4,2.8c1,0.8,2.1,0.9,3.2,0.9
		c0.4,0,0.8,0,1.2-0.1c0.9-0.2,1.7-0.6,2.3-1.2c0.8-0.9,1-1.9,1-3c-0.1,0-0.2-0.1-0.3-0.1c-0.3,0-0.3-0.1-0.3-0.4
		c0-0.7,0-0.7,0.7-0.9c0.1,0,0.1,0,0.2-0.1c2.1-0.6,3.9-1.7,5.2-3.5c0.9-1.2,1.4-2.5,1.8-4c0-0.2,0.1-0.2,0.3-0.2
		c0.6,0.1,0.9-0.3,0.9-0.8c0-0.4,0.1-0.7,0.2-1c0.3-0.8,0.5-1.6,0.5-2.5C434.8,248.4,434.5,247.9,433.8,248"/>
	<path fill="#2C2B24" d="M433.8,248c-0.1,0.5-0.2,1-0.3,1.6c-0.4-0.4-0.6-0.8-0.8-1.2c-0.9-1.6-1.4-3.3-1.7-5
		c-0.1-0.8-0.2-1.6-0.2-2.4c0-0.2,0-0.3-0.3-0.2c-2.2,0.6-1.9-4.6-4.1-4.2c-1.8,0.3-3.3,0.1-5.1,0.3c-1,0.1-2.9,0.5-3.9,0.6
		c-1,0.1-1.9,1.5-2.9,1.5c-0.4,0-1.3,0-1.7,0c-0.3,0-1.6,4.6-1.7,4.8c-0.3,1.4-0.7,2.7-1.3,4c-0.3,0.6-0.6,1.3-1.1,1.8
		c-0.2-0.5-1.3,0-1.4-0.5c-0.4-2.5-3-9.2-2.4-11.6c0.9-3.3,3.6-4.4,6.7-5.9c4.7-2.2,14.1-2.4,18.7,0c3.2,1.6,6.4,6.2,7,9.7
		c0.4,2.2-2.1,5.6-2.5,7.8C434.8,249.1,433.8,247.9,433.8,248"/>
	<path fill="#E0B495" d="M415.1,262.7c0,2.8-0.5,5.4-2.2,7.7c-0.3,0.5-0.5,0.9-0.5,1.4c0,5.3,0,10.5,0,15.8c0,0.1,0,0.3,0,0.4
		c-1,1.1-2.3,1.2-3.3,0.3c-0.5-0.4-0.7-0.9-0.7-1.5c-0.1-1.7,0-3.4,0.1-5.1c0.1-1.6,0.2-3.3,0.4-4.9c0.4-3.8,1-7.5,2.2-11.1
		c0.3-1,0.9-1.8,1.9-2.3C413.5,263.1,414.3,262.8,415.1,262.7"/>
	<path fill="#E0B495" d="M422.8,287.5c0.1,0.2,0,0.4,0,0.6v4.4c0,0.2,0,0.3,0.3,0.3c2.2,0,4.4,0,6.6,0c0,3.1,0,6.2,0,9.4
		c0,0.4,0,0.7,0,1.1c-0.2,0-0.3,0.1-0.5,0.1c-2.2,0.5-4.3,0.9-6.5,1.4c0-0.2,0-0.3,0-0.5c0-3.6,0-7.2,0-10.8c0-1.8,0-3.7,0-5.5
		C422.8,287.8,422.8,287.6,422.8,287.5"/>
	<path fill="#E0B495" d="M412.4,292.8h6.9c0,4,0,7.9,0,11.9c-1.3-0.3-2.7-0.6-4.1-0.9c-0.9-0.2-1.9-0.4-2.8-0.6v-9.9
		C412.4,293.2,412.4,293,412.4,292.8"/>
	<path fill="#2C3D52" d="M412.4,303.2c0.9,0.2,1.9,0.4,2.8,0.6c1.3,0.3,2.7,0.6,4.1,0.9c0,0.9,0,0.9-0.8,0.9c-2.4,0-4.7,0-7.1,0
		c-0.3,0-0.4-0.1-0.4-0.4C411.1,304.3,411.5,303.6,412.4,303.2"/>
	<path fill="#2C3D52" d="M422.9,304.7c2.2-0.5,4.3-0.9,6.5-1.4c0.2,0,0.3-0.1,0.5-0.1c1,0.4,1.3,1.1,1.4,2.1c0,0.2,0,0.3-0.2,0.3
		c-2.6,0-5.2,0-7.9,0c-0.2,0-0.3-0.1-0.2-0.3C422.9,305.1,422.9,304.9,422.9,304.7"/>
	<path fill="none" stroke="#1C1C1C" stroke-linecap="round" stroke-linejoin="round" stroke-miterlimit="10" d="M414.3,255.1
		c0,0,6,5.1,13.2,0"/>
	<path fill="#1F1F1F" d="M418.6,247.5c0,0.6-0.8,1-1.8,1c-1,0-1.7-0.5-1.7-1s0.8-1,1.7-1C417.8,246.5,418.6,247,418.6,247.5"/>
	<path fill="#1F1F1F" d="M426.4,247.5c0,0.6-0.8,1-1.8,1c-1,0-1.7-0.5-1.7-1s0.8-1,1.7-1C425.6,246.5,426.4,247,426.4,247.5"/>
	<path fill="#E0B495" d="M451.6,271.3c-1.9-0.5-3.9-1.1-5.8-1.6c-3.2-0.9-5.1-1.1-8.3-2c-0.6-0.2-1.8-0.4-3-0.3
		c-1.5,0-2.7,0.1-3.8,0.7c-0.7,0.4-0.6,2.9-1.5,2.8c-0.4-0.1-2.3-4.2-2.2-3.8c-0.6-1.4-0.7-3.3-0.2-4.2c0.2-0.5,2.5,1.1,3,1.1
		c2.4-0.2,4.9,0,7.3,0.2c1.9,0.2,3.7,0.5,5.6,0.8c1.2,0.2,2.3,0.5,3.5,0.7c1.7,0.4,3.3,0.8,5,1.3c1,0.3,1.7,0.9,1.8,2
		c0.1,1-0.3,1.8-1.2,2.3C451.6,271.2,451.6,271.3,451.6,271.3"/>
	<path fill="#4A6CA2" d="M408.3,271.5c0,0,3.4,1,4.1,2c0.1,0.1-0.2,10.2,0,8.3v0.2c0,0,8.8,2.7,17.4,0.1l0-11.5l6.8-1.3l-1.5-5.6
		c0,0-3.3-0.3-5.3,0c0,0-2.3-1.1-4.1-1.4c0,0-3.8,5-9.2,0.1c0,0-4.6,0.2-5.5,3.2L408.3,271.5z"/>
	<rect x="404.9" y="214.8" fill="none" width="100.5" height="94.1"/>
	<rect x="433.5" y="273.3" fill="#4B87A5" width="33.7" height="8.5"/>
	<g>
		<defs>
			<rect id="SVGID_3_" x="404.9" y="214.8" width="100.5" height="94.1"/>
		</defs>
		<clipPath id="SVGID_4_">
			<use xlink:href="#SVGID_3_"  overflow="visible"/>
		</clipPath>
		<path clip-path="url(#SVGID_4_)" fill="#FFFFFF" d="M451.5,277.5c0,0.7-0.5,1.2-1.2,1.2c-0.7,0-1.2-0.5-1.2-1.2
			c0-0.7,0.5-1.2,1.2-1.2C451,276.3,451.5,276.8,451.5,277.5"/>
	</g>
	<rect x="433.5" y="282.4" fill="#4B87A5" width="33.7" height="8.5"/>
	<g>
		<defs>
			<rect id="SVGID_5_" x="404.9" y="214.8" width="100.5" height="94.1"/>
		</defs>
		<clipPath id="SVGID_6_">
			<use xlink:href="#SVGID_5_"  overflow="visible"/>
		</clipPath>
		<path clip-path="url(#SVGID_6_)" fill="#FFFFFF" d="M451.5,286.6c0,0.7-0.5,1.2-1.2,1.2c-0.7,0-1.2-0.5-1.2-1.2
			c0-0.7,0.5-1.2,1.2-1.2C451,285.4,451.5,286,451.5,286.6"/>
	</g>
	<rect x="433.5" y="291.7" fill="#4B87A5" width="33.7" height="8.5"/>
	<g>
		<defs>
			<rect id="SVGID_7_" x="404.9" y="214.8" width="100.5" height="94.1"/>
		</defs>
		<clipPath id="SVGID_8_">
			<use xlink:href="#SVGID_7_"  overflow="visible"/>
		</clipPath>
		<path clip-path="url(#SVGID_8_)" fill="#FFFFFF" d="M451.5,296c0,0.7-0.5,1.2-1.2,1.2c-0.7,0-1.2-0.5-1.2-1.2
			c0-0.7,0.5-1.2,1.2-1.2C451,294.7,451.5,295.3,451.5,296"/>
	</g>
	<rect x="468.1" y="273.3" fill="#4B87A5" width="33.7" height="8.5"/>
	<g>
		<defs>
			<rect id="SVGID_9_" x="404.9" y="214.8" width="100.5" height="94.1"/>
		</defs>
		<clipPath id="SVGID_10_">
			<use xlink:href="#SVGID_9_"  overflow="visible"/>
		</clipPath>
		<path clip-path="url(#SVGID_10_)" fill="#FFFFFF" d="M486.1,277.5c0,0.7-0.5,1.2-1.2,1.2c-0.7,0-1.2-0.5-1.2-1.2
			c0-0.7,0.5-1.2,1.2-1.2C485.6,276.3,486.1,276.8,486.1,277.5"/>
	</g>
	<rect x="468.1" y="282.4" fill="#4B87A5" width="33.7" height="8.5"/>
	<g>
		<defs>
			<rect id="SVGID_11_" x="404.9" y="214.8" width="100.5" height="94.1"/>
		</defs>
		<clipPath id="SVGID_12_">
			<use xlink:href="#SVGID_11_"  overflow="visible"/>
		</clipPath>
		<path clip-path="url(#SVGID_12_)" fill="#FFFFFF" d="M486.1,286.6c0,0.7-0.5,1.2-1.2,1.2c-0.7,0-1.2-0.5-1.2-1.2
			c0-0.7,0.5-1.2,1.2-1.2C485.6,285.4,486.1,286,486.1,286.6"/>
	</g>
	<rect x="468.1" y="291.7" fill="#4B87A5" width="33.7" height="8.5"/>
	<path fill="#FFFFFF" d="M486.1,296c0,0.7-0.5,1.2-1.2,1.2c-0.7,0-1.2-0.5-1.2-1.2c0-0.7,0.5-1.2,1.2-1.2
		C485.6,294.7,486.1,295.3,486.1,296"/>
	<rect x="404.9" y="214.8" fill="none" width="100.5" height="94.1"/>
	<rect x="412.4" y="292" fill="#112029" width="6.9" height="9.8"/>
	<rect x="422.9" y="292.5" fill="#112029" width="6.9" height="9.7"/>
	<path fill="#616262" d="M145,303.8c0,3.3-0.6,5.9-1.3,5.9c-0.7,0-1.3-2.6-1.3-5.9c0-3.3,0.6-5.9,1.3-5.9
		C144.4,297.9,145,300.6,145,303.8"/>
	<path fill="#616262" d="M240,303.8c0,3.3-0.6,5.9-1.3,5.9c-0.7,0-1.3-2.6-1.3-5.9c0-3.3,0.6-5.9,1.3-5.9
		C239.4,297.9,240,300.6,240,303.8"/>
	<path fill="#616262" d="M236,302.1c0,2.4-0.4,4.3-1,4.3c-0.5,0-1-1.9-1-4.3c0-2.4,0.4-4.3,1-4.3C235.6,297.8,236,299.7,236,302.1"
		/>
	<path fill="#616262" d="M148.6,302.1c0,2.4-0.4,4.3-1,4.3c-0.5,0-1-1.9-1-4.3c0-2.4,0.4-4.3,1-4.3
		C148.2,297.8,148.6,299.7,148.6,302.1"/>
	<rect x="110.8" y="215.6" fill="none" width="100.5" height="94.1"/>
	<rect x="135.7" y="272" fill="#DDB06D" width="109.9" height="30.1"/>
	<path fill="#112029" d="M135.7,288.9c0,1.6,0,3.1,0,4.7c-2.2,0-4.4,0-6.6,0c-0.3,0-0.3-0.2-0.3-0.3v-4.4c0-0.2,0-0.4,0-0.6
		c-0.1-0.7-0.4-1.1-1.1-1.2c-0.4-0.1-0.9-0.1-1.3,0c-0.6,0.1-0.9,0.4-1,1c0,0.2-0.1,0.4-0.1,0.7c0,1.6,0,3.2,0,4.9h-6.9
		c0-1.6,0-3.2,0-4.7c0-0.1,0-0.3,0-0.4c0-5.3,0-10.5,0-15.8c0-0.5,0.1-1,0.5-1.4c1.7-2.3,2.3-4.9,2.2-7.7c0.4-0.1,0.9-0.3,1.3-0.2
		c0,0.2,0.1,0.4,0.1,0.6c0.1,1.1,0.5,2.1,1.4,2.8c1,0.8,2.1,0.9,3.2,0.9c0.4,0,0.8,0,1.2-0.1c0.9-0.2,1.7-0.6,2.3-1.2
		c0.8-0.9,1-1.9,1-3c0.4,0.1,0.9,0.1,1.3,0.2c0,0.4,0,0.9,0.1,1.3c0.1,0.8,0.2,1.7,0.4,2.5c0.3,1.4,0.9,2.8,1.8,3.9
		c0.4,0.5,0.5,1,0.5,1.6c0,3.4,0,6.7,0,10.1C135.7,284.9,135.7,286.9,135.7,288.9"/>
	<path fill="#9B5E37" d="M139.7,248.7c-0.1,0.5-0.2,1-0.3,1.6c-0.4-0.4-0.6-0.8-0.8-1.2c-0.8-1.6-1.4-3.3-1.7-5
		c-0.1-0.8-0.2-1.6-0.2-2.4c0-0.2,0-0.3-0.3-0.2c-2.2,0.6-1.7-5.9-3.9-5.5c-1.8,0.3-8.6,1.1-10.4,1.4c-1,0.1-3.2,1.2-4.1,1.2
		c-1,0.1-1.1,3.7-2,3.8c-1.9,0.1-1.2,1.6,0,1.7c0.3,0,1.3,0.3,1.2,0.5c-0.3,1.4-0.7,2.7-1.3,4c-0.3,0.6-0.6,1.3-1.1,1.8
		c-0.2-0.5-0.3-1.1-0.3-1.6c-0.8,0-1.1,0.3-1.1,1.1c0,0.6,0.1,1.2,0.2,1.7c0.2,0.6,0.5,1.2,0.4,1.9c0,0.4,0.4,0.7,0.9,0.6
		c0.2,0,0.3,0,0.3,0.2c0,0.1,0,0.2,0.1,0.3c0.5,2.1,1.5,3.9,3.2,5.2c1.2,1,2.6,1.6,4.1,2c0.1,0,0.3,0,0.3,0.2c0,0.3,0.1,0.6,0,0.9
		c0,0.2-0.3,0.1-0.5,0.2c0,0-0.1,0-0.1,0.1c0,0.2,0.1,0.4,0.1,0.6c0.1,1.1,0.5,2.1,1.4,2.8c1,0.8,2.1,0.9,3.2,0.9
		c0.4,0,0.8,0,1.2-0.1c0.9-0.2,1.7-0.6,2.3-1.2c0.8-0.9,1-1.9,1-3c-0.1,0-0.2-0.1-0.3-0.1c-0.3,0-0.3-0.1-0.3-0.4
		c0-0.7,0-0.7,0.7-0.9c0.1,0,0.1,0,0.2-0.1c2.1-0.6,3.9-1.7,5.2-3.5c0.9-1.2,1.4-2.5,1.8-4c0-0.2,0.1-0.2,0.3-0.2
		c0.6,0.1,0.9-0.3,0.9-0.8c0-0.4,0.1-0.7,0.2-1c0.3-0.8,0.5-1.6,0.5-2.5C140.8,249.2,140.5,248.6,139.7,248.7"/>
	<path fill="#2C2B24" d="M139.7,248.7c-0.1,0.5-0.2,1-0.3,1.6c-0.4-0.4-0.6-0.8-0.8-1.2c-0.9-1.6-1.4-3.3-1.7-5
		c-0.1-0.8-0.2-1.6-0.2-2.4c0-0.2,0-0.3-0.3-0.2c-3.2,0.9-2.8-4.5-4.1-4.2c-1.8,0.3-3.3,0.1-5.1,0.3c-1,0.1-4.2,0-5.2,0.1
		c-1,0.1-1,3.1-1.9,3.1c-0.4,0-1.7,0.7-2,0.7c-0.3,0-0.9,2.8-0.9,3c-0.3,1.4-0.7,2.7-1.3,4c-0.3,0.6-0.6,1.3-1.1,1.8
		c-0.2-0.5-1.3,0-1.4-0.5c-0.4-2.5-1.3-8.7-0.6-11.2c0.9-3.3,1.9-4.8,5-6.3c4.7-2.2,14.1-2.4,18.7,0c3.2,1.6,4.7,6.4,5.3,9.9
		c0.4,2.2-0.4,5.5-0.8,7.6C140.8,249.8,139.7,248.7,139.7,248.7"/>
	<path fill="#9B5E37" d="M121.1,263.4c0,2.8-0.5,5.4-2.2,7.7c-0.3,0.5-0.5,0.9-0.5,1.4c0,5.3,0,10.5,0,15.8c0,0.1,0,0.3,0,0.4
		c-1,1.1-2.3,1.2-3.3,0.3c-0.5-0.4-0.7-0.9-0.7-1.5c-0.1-1.7,0-3.4,0.1-5.1c0.1-1.6,0.2-3.3,0.4-4.9c0.4-3.8,1-7.5,2.2-11.1
		c0.3-1,0.9-1.8,1.9-2.3C119.5,263.8,120.2,263.5,121.1,263.4"/>
	<path fill="#9B5E37" d="M128.8,288.2c0.1,0.2,0,0.4,0,0.6v4.4c0,0.2,0,0.3,0.3,0.3c2.2,0,4.4,0,6.6,0c0,3.1,0,6.2,0,9.4
		c0,0.4,0,0.7,0,1.1c-0.2,0-0.3,0.1-0.5,0.1c-2.2,0.5-4.3,0.9-6.5,1.4c0-0.2,0-0.3,0-0.5c0-3.6,0-7.2,0-10.8c0-1.8,0-3.7,0-5.5
		C128.8,288.5,128.8,288.4,128.8,288.2"/>
	<path fill="#9B5E37" d="M118.4,293.6h6.9c0,4,0,7.9,0,11.9c-1.3-0.3-2.7-0.6-4.1-0.9c-0.9-0.2-1.9-0.4-2.8-0.6V294
		C118.4,293.9,118.4,293.7,118.4,293.6"/>
	<path fill="#2C3D52" d="M118.4,304c0.9,0.2,1.9,0.4,2.8,0.6c1.3,0.3,2.7,0.6,4.1,0.9c0,0.9,0,0.9-0.8,0.9c-2.4,0-4.7,0-7.1,0
		c-0.3,0-0.4-0.1-0.4-0.4C117.1,305,117.4,304.3,118.4,304"/>
	<path fill="#2C3D52" d="M128.8,305.5c2.2-0.5,4.3-0.9,6.5-1.4c0.2,0,0.3-0.1,0.5-0.1c1,0.4,1.3,1.1,1.4,2.1c0,0.2,0,0.3-0.2,0.3
		c-2.6,0-5.2,0-7.9,0c-0.2,0-0.3-0.1-0.2-0.3C128.8,305.9,128.8,305.7,128.8,305.5"/>
	<path fill="none" stroke="#1C1C1C" stroke-linecap="round" stroke-linejoin="round" stroke-miterlimit="10" d="M121.7,256.3
		c0,0,4.7,4.1,10.4,0"/>
	<path fill="#1F1F1F" d="M124.6,248.3c0,0.9-0.8,1.6-1.8,1.6c-1,0-1.7-0.7-1.7-1.6s0.8-1.6,1.7-1.6
		C123.8,246.6,124.6,247.4,124.6,248.3"/>
	<path fill="#1F1F1F" d="M132.3,248.3c0,0.9-0.8,1.6-1.8,1.6c-1,0-1.7-0.7-1.7-1.6s0.8-1.6,1.7-1.6
		C131.5,246.6,132.3,247.4,132.3,248.3"/>
	<path fill="#9B5E37" d="M157.5,272c-1.9-0.5-3.9-1.1-5.8-1.6c-3.2-0.9-5.1-1.1-8.3-2c-0.6-0.2-1.8-0.4-3-0.3
		c-1.5,0-2.7,0.1-3.8,0.7c-0.7,0.4-0.6,2.9-1.5,2.8c-0.4-0.1-2.3-4.2-2.2-3.8c-0.6-1.4-0.7-3.3-0.2-4.2c0.2-0.5,2.5,1.1,3,1.1
		c2.4-0.2,4.9,0,7.3,0.2c1.9,0.2,3.7,0.5,5.6,0.8c1.2,0.2,2.3,0.5,3.5,0.7c1.7,0.4,3.3,0.8,5,1.3c1,0.3,1.7,0.9,1.8,2
		c0.1,1-0.3,1.8-1.2,2.3C157.6,272,157.6,272,157.5,272"/>
	<path fill="#9C9FA4" d="M114.3,272.3c0,0,3.4,1,4.1,2c0.1,0.1-0.2,10.2,0,8.3v0.2c0,0,8.8,2.7,17.4,0.1l0-11.5l6.8-1.3l-1.5-5.6
		c0,0-3.3-0.3-5.3,0c0,0-2.3-1.1-4.1-1.4c0,0-3.8,5-9.2,0.1c0,0-4.6,0.2-5.5,3.2L114.3,272.3z"/>
	<rect x="110.8" y="215.6" fill="none" width="100.5" height="94.1"/>
	<rect x="139.4" y="274" fill="#C88B4E" width="33.7" height="8.5"/>
	<g>
		<defs>
			<rect id="SVGID_13_" x="110.8" y="215.6" width="100.5" height="94.1"/>
		</defs>
		<clipPath id="SVGID_14_">
			<use xlink:href="#SVGID_13_"  overflow="visible"/>
		</clipPath>
		<path clip-path="url(#SVGID_14_)" fill="#FFFFFF" d="M157.5,278.2c0,0.7-0.5,1.2-1.2,1.2c-0.7,0-1.2-0.5-1.2-1.2
			c0-0.7,0.5-1.2,1.2-1.2C156.9,277,157.5,277.6,157.5,278.2"/>
	</g>
	<rect x="139.4" y="283.1" fill="#C88B4E" width="33.7" height="8.5"/>
	<g>
		<defs>
			<rect id="SVGID_15_" x="110.8" y="215.6" width="100.5" height="94.1"/>
		</defs>
		<clipPath id="SVGID_16_">
			<use xlink:href="#SVGID_15_"  overflow="visible"/>
		</clipPath>
		<path clip-path="url(#SVGID_16_)" fill="#FFFFFF" d="M157.5,287.4c0,0.7-0.5,1.2-1.2,1.2c-0.7,0-1.2-0.5-1.2-1.2
			c0-0.7,0.5-1.2,1.2-1.2C156.9,286.2,157.5,286.7,157.5,287.4"/>
	</g>
	<rect x="139.4" y="292.5" fill="#C88B4E" width="33.7" height="8.5"/>
	<g>
		<path fill="#FFFFFF" d="M157.5,296.7c0,0.7-0.5,1.2-1.2,1.2c-0.7,0-1.2-0.5-1.2-1.2c0-0.7,0.5-1.2,1.2-1.2
			C156.9,295.5,157.5,296,157.5,296.7"/>
	</g>
	<rect x="174" y="274" fill="#C88B4E" width="33.7" height="8.5"/>
	<path fill="#FFFFFF" d="M192.1,278.2c0,0.7-0.5,1.2-1.2,1.2c-0.7,0-1.2-0.5-1.2-1.2c0-0.7,0.5-1.2,1.2-1.2
		C191.5,277,192.1,277.6,192.1,278.2"/>
	<polyline fill="none" points="112.2,310.1 211.3,309.7 211.3,215.6 112.2,215.9 	"/>
	<rect x="174" y="283.1" fill="#C88B4E" width="33.7" height="8.5"/>
	<path fill="#FFFFFF" d="M192.1,287.4c0,0.7-0.5,1.2-1.2,1.2c-0.7,0-1.2-0.5-1.2-1.2c0-0.7,0.5-1.2,1.2-1.2
		C191.5,286.2,192.1,286.7,192.1,287.4"/>
	<rect x="174" y="292.5" fill="#C88B4E" width="33.7" height="8.5"/>
	<path fill="#FFFFFF" d="M192.1,296.7c0,0.7-0.5,1.2-1.2,1.2c-0.7,0-1.2-0.5-1.2-1.2c0-0.7,0.5-1.2,1.2-1.2
		C191.5,295.5,192.1,296,192.1,296.7"/>
	<rect x="208.5" y="274" fill="#C88B4E" width="33.7" height="8.5"/>
	<path fill="#FFFFFF" d="M226.6,278.2c0,0.7-0.5,1.2-1.2,1.2c-0.7,0-1.2-0.5-1.2-1.2c0-0.7,0.5-1.2,1.2-1.2
		C226,277,226.6,277.6,226.6,278.2"/>
	<rect x="208.5" y="283.1" fill="#C88B4E" width="33.7" height="8.5"/>
	<path fill="#FFFFFF" d="M226.6,287.4c0,0.7-0.5,1.2-1.2,1.2c-0.7,0-1.2-0.5-1.2-1.2c0-0.7,0.5-1.2,1.2-1.2
		C226,286.2,226.6,286.7,226.6,287.4"/>
	<rect x="208.5" y="292.5" fill="#C88B4E" width="33.7" height="8.5"/>
	<path fill="#FFFFFF" d="M226.6,296.7c0,0.7-0.5,1.2-1.2,1.2c-0.7,0-1.2-0.5-1.2-1.2c0-0.7,0.5-1.2,1.2-1.2
		C226,295.5,226.6,296,226.6,296.7"/>
	<rect x="118.4" y="292.8" fill="#112029" width="6.9" height="9.8"/>
	<rect x="128.8" y="293.2" fill="#131C28" width="6.9" height="9.7"/>
	<path fill="#292826" d="M139.1,254.4c-0.2-0.4-1-0.3-1.2,0c-0.2,0.3,0,0.7-0.1,1c-0.1,0.2-0.2,0.4-0.4,0.6
		c-0.3,0.4-0.6,0.8-0.8,1.3c-0.1,0.3-0.1,0.4-0.3,0.5c-0.2,0.1-0.9,0-1.1-0.1c-0.5-0.2-0.4-0.8-0.4-1.3c0-0.6,0.1-1.1-0.4-1.5
		c-0.4-0.4-1-0.6-1.5-0.8c-0.6-0.3-1.1-0.5-1.7-0.6c-0.7-0.1-1.4,0.1-2.1,0.1c-1.5,0.2-3.1,0-4.5-0.2c-1.1-0.1-2.4,0-3.5,0.1
		c-1,0.1-1.4,0.4-1.8,1.3c-0.2,0.5-0.2,1-0.3,1.5c0,0.3-0.1,0.9-0.5,1c-0.4,0.1-1-0.5-1.2-0.8c-0.4-0.6-0.5-1.5-1.1-2
		c-0.3-0.3-1-0.3-1.2-0.7L115,254c0.2,0.8,0.7,1.4,0.8,2.2c0.1,0.7,0.5,1.2,0.8,1.8c0.4,0.7,0.6,1.1,1.2,1.6
		c0.5,0.4,1.1,0.9,1.7,1.2c0.3,0.1,0.5,0.3,0.7,0.4c0.3,0.1,0.6,0.1,0.9,0.2c0.2,0.1,0.2,0.3,0.4,0.5c0.5,0.3,1.2,0.2,1.7,0.2
		c1.8,0,3.5-0.1,5.2-0.1c1,0,1.3,0.1,2.2,0.1c0.6,0,1.8,0,2.1-0.6c0.4-0.2,1.9-1,2.3-1.2c1-0.7,0.9-1,1.7-1.6
		c0.5-0.3,0.6-0.8,0.9-1.3c0.2-0.6,0.6-1.1,0.7-1.7C138.6,255.3,139.2,254.7,139.1,254.4z M132.8,257.8c-0.4,0.4-1.4,0.6-1.9,0.7
		c-0.5,0.2-0.9,0.4-1.4,0.5c-1.1,0.4-2.8,0.6-4,0.3c-0.4-0.1-0.7-0.3-1-0.5c-0.5-0.2-1-0.3-1.5-0.5c-0.6-0.2-1.2-0.1-1.8-0.4
		c-0.4-0.2-0.9-0.5-1-0.9c0-0.1,0-0.7,0-0.8c0.1-0.3,0.7-0.5,0.8-0.9h0.3c0.3,0.1,0.2-0.1,0.4-0.2c0.2-0.1,0.4-0.1,0.6-0.1
		c0.5,0,1,0,1.4,0.1c0.8,0.1,1.6,0.2,2.4,0.2c1.1,0,2-0.3,3-0.4c1-0.1,2.4-0.1,3.3,0.5C133.2,255.9,133.4,257.1,132.8,257.8z"/>
	<ellipse fill="#2C2B24" cx="126.6" cy="229.7" rx="4.3" ry="3.8"/>
	<path fill="none" stroke="#000000" stroke-miterlimit="10" d="M116.5,280.6c0,0-0.1,4.5,0.3,5.8"/>
	<path fill="none" stroke="#000000" stroke-miterlimit="10" d="M146.1,267.4c0,0,5.3,0.4,6.7,1.5"/>
	<path fill="#616262" d="M319.1,303.8c0,3.3-0.6,5.9-1.3,5.9c-0.7,0-1.3-2.6-1.3-5.9c0-3.3,0.6-5.9,1.3-5.9
		C318.5,297.9,319.1,300.6,319.1,303.8"/>
	<path fill="#616262" d="M322.7,302.1c0,2.4-0.4,4.3-1,4.3c-0.5,0-1-1.9-1-4.3c0-2.4,0.4-4.3,1-4.3
		C322.2,297.8,322.7,299.7,322.7,302.1"/>
	<path fill="#616262" d="M348.6,303.8c0,3.3-0.6,5.9-1.3,5.9c-0.7,0-1.3-2.6-1.3-5.9c0-3.3,0.6-5.9,1.3-5.9
		C348,297.9,348.6,300.6,348.6,303.8"/>
	<path fill="#616262" d="M343.9,302.1c0,2.4-0.4,4.3-1,4.3c-0.5,0-1-1.9-1-4.3c0-2.4,0.4-4.3,1-4.3
		C343.5,297.8,343.9,299.7,343.9,302.1"/>
	<rect x="287.4" y="215.6" fill="none" width="100.5" height="94.1"/>
	<rect x="312.3" y="262.6" fill="#DFB7D6" width="40" height="39.5"/>
	<path fill="#5A93B7" d="M308.3,288.2c0,1.6,0,3.3,0,4.9c-2.3,0-4.7,0-7,0c-0.3,0-0.3-0.2-0.3-0.4v-4.7c0-0.2,0-0.4,0-0.6
		c-0.1-0.8-0.4-1.1-1.2-1.3c-0.5-0.1-0.9-0.1-1.4,0c-0.6,0.1-1,0.4-1.1,1c0,0.2-0.1,0.5-0.1,0.7c0,1.7,0,3.4,0,5.1h-7.3
		c0-1.7,0-3.3,0-5c0-0.1,0-0.3,0-0.4c0-5.6,0-11.1,0-16.7c0-0.6,0.1-1,0.5-1.5c1.8-2.4,2.4-5.2,2.4-8.2c0.5-0.1,0.9-0.3,1.4-0.2
		c0,0.2,0.1,0.4,0.1,0.6c0.1,1.2,0.5,2.2,1.5,3c1,0.8,2.2,0.9,3.4,1c0.4,0,0.9,0,1.3-0.1c0.9-0.2,1.8-0.6,2.4-1.3
		c0.8-0.9,1-2,1.1-3.2c0.5,0.1,0.9,0.2,1.4,0.2c0,0.5,0,0.9,0.1,1.4c0.1,0.9,0.2,1.8,0.4,2.6c0.4,1.5,0.9,3,1.9,4.2
		c0.4,0.5,0.5,1.1,0.5,1.7c0,3.6,0,7.1,0,10.7C308.3,284,308.3,286.1,308.3,288.2"/>
	<path fill="#D29674" d="M312.5,245.8c-0.1,0.5-0.2,1.1-0.4,1.7c-0.4-0.4-0.6-0.8-0.8-1.3c-0.9-1.7-1.5-3.5-1.8-5.3
		c-0.1-0.8-0.2-1.7-0.2-2.5c0-0.2,0-0.3-0.3-0.2c-0.9,0.3-0.4-6.5-4.2-5.8c-1.9,0.3-9,1.2-10.9,1.4c-1,0.1-3.4,1.2-4.4,1.3
		c-1,0.1-1.1,3.9-2.2,4c-2,0.1-1.2,1.7,0,1.8c0.3,0,1.4,0.3,1.3,0.6c-0.3,1.4-0.8,2.8-1.3,4.2c-0.3,0.7-0.6,1.3-1.1,1.9
		c-0.2-0.6-0.3-1.1-0.3-1.7c-0.8,0-1.1,0.3-1.1,1.1c0,0.6,0.1,1.2,0.2,1.8c0.2,0.7,0.5,1.3,0.5,2.1c0,0.4,0.4,0.8,0.9,0.7
		c0.2,0,0.3,0,0.4,0.3c0,0.1,0,0.2,0.1,0.3c0.6,2.2,1.6,4.1,3.4,5.5c1.3,1,2.8,1.7,4.3,2.1c0.1,0,0.3,0,0.3,0.2c0,0.3,0.1,0.7,0,1
		c0,0.2-0.3,0.1-0.5,0.2c0,0-0.1,0.1-0.1,0.1c0,0.2,0.1,0.4,0.1,0.6c0.1,1.2,0.5,2.2,1.5,3c1,0.8,2.2,0.9,3.4,1c0.4,0,0.9,0,1.3-0.1
		c0.9-0.2,1.8-0.6,2.4-1.3c0.8-0.9,1-2,1.1-3.2c-0.1,0-0.2-0.1-0.3-0.1c-0.3,0-0.3-0.1-0.3-0.4c0-0.8,0-0.8,0.7-1
		c0.1,0,0.1,0,0.2-0.1c2.2-0.6,4.1-1.8,5.5-3.7c0.9-1.3,1.5-2.7,1.9-4.2c0-0.2,0.1-0.3,0.3-0.2c0.6,0.1,1-0.3,1-0.9
		c0-0.4,0.1-0.7,0.2-1.1c0.3-0.8,0.5-1.7,0.5-2.6C313.6,246.2,313.3,245.7,312.5,245.8"/>
	<path fill="#D8D43A" d="M312.5,245.8c-0.1,0.5-0.2,1.1-0.4,1.7c-0.4-0.4-0.6-0.8-0.8-1.3c-0.9-1.7-1.5-3.4-1.8-5.3
		c-0.1-0.8-0.4-0.5-0.3-1.4c0-0.2-0.1-1.1-0.3-1.3c-1.1-1.1-0.8-5.1-4.2-4.5c-1.9,0.3-3.5,0.1-5.4,0.3c-1,0.1-4.4,0-5.4,0.1
		c-1,0.1-2.8,1.8-3.8,1.8c-0.4,0-0.7,2-1.1,1.9c-0.3,0-0.2,3.3-0.2,3.5c-0.3,1.4-0.8,2.8-1.3,4.2c-0.3,0.7-0.6,1.3-1.1,1.9
		c-0.2-0.6-1.4,0-1.5-0.5c-0.4-2.6-1.3-9.2-0.7-11.8c0.9-3.5,2-5.1,5.3-6.7c4.9-2.3,14.9-2.5,19.7,0c3.3,1.7,5,6.8,5.5,10.4
		c0.4,2.3-0.5,5.8-0.9,8.1C313.6,246.9,312.5,245.7,312.5,245.8"/>
	<path fill="#D29674" d="M292.8,261.3c0,3-0.6,5.8-2.4,8.2c-0.4,0.5-0.5,0.9-0.5,1.5c0,5.6,0,11.1,0,16.7c0,0.1,0,0.3,0,0.4
		c-1.1,1.1-2.4,1.3-3.5,0.3c-0.5-0.4-0.8-0.9-0.8-1.6c-0.1-1.8,0-3.6,0.1-5.4c0.1-1.7,0.2-3.5,0.4-5.2c0.4-4,1-7.9,2.3-11.8
		c0.4-1.1,1-1.9,2-2.4C291.1,261.7,291.9,261.4,292.8,261.3"/>
	<path fill="#D29674" d="M300.9,287.5c0.1,0.2,0,0.4,0,0.6v4.7c0,0.2,0,0.4,0.3,0.4c2.3,0,4.7,0,7,0c0,3.3,0,6.6,0,9.9
		c0,0.4,0,0.7,0,1.1c-0.2,0-0.3,0.1-0.5,0.1c-2.3,0.5-4.6,1-6.8,1.4c0-0.2,0-0.4,0-0.5c0-3.8,0-7.6,0-11.4c0-1.9,0-3.9,0-5.8
		C300.9,287.8,300.9,287.6,300.9,287.5"/>
	<path fill="#D29674" d="M289.9,293.1h7.3c0,4.2,0,8.4,0,12.6c-1.4-0.3-2.9-0.6-4.3-0.9c-1-0.2-2-0.4-3-0.7v-10.5
		C289.9,293.5,289.9,293.3,289.9,293.1"/>
	<path fill="#2C3D52" d="M289.9,304.1c1,0.2,2,0.5,3,0.7c1.4,0.3,2.9,0.6,4.3,0.9c0,0.9,0,0.9-0.9,0.9c-2.5,0-5,0-7.5,0
		c-0.3,0-0.4-0.1-0.4-0.4C288.6,305.2,288.9,304.5,289.9,304.1"/>
	<path fill="#2C3D52" d="M301,305.7c2.3-0.5,4.5-1,6.8-1.5c0.2,0,0.3-0.1,0.5-0.1c1,0.4,1.4,1.2,1.5,2.2c0,0.2,0,0.3-0.2,0.3
		c-2.8,0-5.5,0-8.3,0c-0.2,0-0.3-0.1-0.3-0.3C301,306.1,301,305.9,301,305.7"/>
	<path fill="none" stroke="#1C1C1C" stroke-linecap="round" stroke-linejoin="round" stroke-miterlimit="10" d="M293.5,253.7
		c0,0,5,4.3,11,0"/>
	<path fill="#1F1F1F" d="M296.5,245.3c0,0.9-0.8,1.7-1.8,1.7c-1,0-1.8-0.8-1.8-1.7s0.8-1.7,1.8-1.7
		C295.7,243.6,296.5,244.3,296.5,245.3"/>
	<path fill="#1F1F1F" d="M304.7,245.3c0,0.9-0.8,1.7-1.8,1.7c-1,0-1.8-0.8-1.8-1.7s0.8-1.7,1.8-1.7
		C303.8,243.6,304.7,244.3,304.7,245.3"/>
	<path fill="#D29674" d="M332.6,263.5c-2-0.2-4-0.4-6-0.5c-3.4-0.3-5.2-0.1-8.5-0.4c-0.6-0.1-1.8,0-3,0.2c-1.5,0.3-2.6,0.6-3.6,1.4
		c-0.7,0.5-3,6-3.7,5.5c-1.6-1.3-2.3-4.6-2.2-4.2c-0.7-2-0.5-3-0.2-4c0.1-0.5,3.9-1.2,4.4-1.3c2.4-0.6,4.8-0.9,7.2-1.1
		c1.9-0.1,3.7-0.2,5.6-0.2c1.2,0,2.4,0,3.5,0.1c1.7,0.1,3.4,0.2,5.1,0.3c1.1,0.1,1.8,0.6,2.2,1.6c0.3,1,0,1.8-0.8,2.5
		C332.6,263.4,332.6,263.5,332.6,263.5"/>
	<rect x="287.4" y="215.6" fill="none" width="100.5" height="94.1"/>
	<rect x="316" y="274" fill="#DA98C2" width="33.7" height="8.5"/>
	<g>
		<defs>
			<rect id="SVGID_17_" x="287.4" y="215.6" width="100.5" height="94.1"/>
		</defs>
		<clipPath id="SVGID_18_">
			<use xlink:href="#SVGID_17_"  overflow="visible"/>
		</clipPath>
		<path clip-path="url(#SVGID_18_)" fill="#FFFFFF" d="M334,278.2c0,0.7-0.5,1.2-1.2,1.2c-0.7,0-1.2-0.5-1.2-1.2
			c0-0.7,0.5-1.2,1.2-1.2C333.5,277,334,277.6,334,278.2"/>
	</g>
	<rect x="316" y="264.7" fill="#DA98C2" width="33.7" height="8.5"/>
	<g>
		<defs>
			<rect id="SVGID_19_" x="287.4" y="206.2" width="100.5" height="94.1"/>
		</defs>
		<clipPath id="SVGID_20_">
			<use xlink:href="#SVGID_19_"  overflow="visible"/>
		</clipPath>
		<path clip-path="url(#SVGID_20_)" fill="#FFFFFF" d="M334,268.9c0,0.7-0.5,1.2-1.2,1.2c-0.7,0-1.2-0.5-1.2-1.2
			c0-0.7,0.5-1.2,1.2-1.2C333.5,267.7,334,268.2,334,268.9"/>
	</g>
	<rect x="316" y="283.1" fill="#DA98C2" width="33.7" height="8.5"/>
	<g>
		<defs>
			<rect id="SVGID_21_" x="287.4" y="215.6" width="100.5" height="94.1"/>
		</defs>
		<clipPath id="SVGID_22_">
			<use xlink:href="#SVGID_21_"  overflow="visible"/>
		</clipPath>
		<path clip-path="url(#SVGID_22_)" fill="#FFFFFF" d="M334,287.4c0,0.7-0.5,1.2-1.2,1.2c-0.7,0-1.2-0.5-1.2-1.2
			c0-0.7,0.5-1.2,1.2-1.2C333.5,286.2,334,286.7,334,287.4"/>
	</g>
	<rect x="316" y="292.5" fill="#DA98C2" width="33.7" height="8.5"/>
	<g>
		<path fill="#FFFFFF" d="M334,296.7c0,0.7-0.5,1.2-1.2,1.2c-0.7,0-1.2-0.5-1.2-1.2c0-0.7,0.5-1.2,1.2-1.2
			C333.5,295.5,334,296,334,296.7"/>
	</g>
	<rect x="289.9" y="292.3" fill="#5A93B7" width="7.3" height="10.3"/>
	<rect x="301" y="292.8" fill="#5A93B7" width="7.3" height="10.2"/>
	<ellipse fill="#D8D43A" cx="298.6" cy="225.7" rx="4.6" ry="4"/>
	<rect x="557.1" y="216.3" fill="none" width="100.5" height="94.1"/>
	<path fill="#112029" d="M578.9,287.3c0,1.8,0,3.5,0,5.3c-2.5,0-5,0-7.5,0c-0.3,0-0.3-0.2-0.3-0.4v-5c0-0.2,0-0.4,0-0.7
		c-0.1-0.8-0.4-1.2-1.3-1.3c-0.5-0.1-1-0.1-1.5,0c-0.7,0.1-1,0.5-1.1,1.1c0,0.2-0.1,0.5-0.1,0.7c0,1.8,0,3.7,0,5.5h-7.8
		c0-1.8,0-3.6,0-5.4c0-0.2,0-0.3,0-0.5c0-6,0-11.9,0-17.9c0-0.6,0.1-1.1,0.5-1.6c1.9-2.6,2.6-5.6,2.5-8.8c0.5-0.1,1-0.3,1.5-0.2
		c0,0.2,0.1,0.4,0.1,0.6c0.1,1.3,0.6,2.3,1.6,3.2c1.1,0.9,2.3,1,3.6,1.1c0.4,0,0.9,0,1.4-0.1c1-0.2,1.9-0.6,2.6-1.4
		c0.9-1,1.1-2.2,1.2-3.4c0.5,0.1,1,0.2,1.5,0.2c0,0.5,0,1,0.1,1.5c0.1,1,0.2,1.9,0.4,2.8c0.4,1.6,1,3.2,2.1,4.5
		c0.5,0.6,0.6,1.1,0.6,1.8c0,3.8,0,7.6,0,11.4C578.9,282.8,578.9,285,578.9,287.3"/>
	<path fill="#2C2B24" d="M583.4,241.8c-0.1,0.6-0.2,1.1-0.4,1.8c-0.4-0.4-0.6-0.9-0.9-1.4c-1-1.8-1.6-3.7-2-5.7
		c-0.1-0.9-0.3-1.8-0.2-2.7c0-0.2,0-0.2-0.3-0.3c-2.9-0.7-3.2-5.1-4.7-4.8c-2,0.4-3.7,0.1-5.8,0.4c-1.1,0.1-4.8,0-5.8,0.1
		c-1.1,0.1-3,1.8-4.1,1.8c-0.4,0,0,2.6-0.4,2.5c-0.3,0-1,3.2-1,3.4c-0.4,1.5-0.8,3.1-1.4,4.5c-0.3,0.7-0.6,1.4-1.2,2.1
		c-0.2-0.6-1.5,0-1.6-0.6c-0.4-2.8-1.4-9.9-0.7-12.7c1-3.8,2.1-5.5,5.7-7.2c5.3-2.5,15.9-2.7,21.2,0c3.6,1.8,5.3,7.2,6,11.2
		c0.4,2.5-0.5,6.2-0.9,8.7C584.6,243.1,583.4,241.7,583.4,241.8"/>
	<path fill="#D6A38E" d="M562.3,258.5c0,3.2-0.6,6.2-2.5,8.8c-0.4,0.5-0.5,1-0.5,1.6c0,6,0,12,0,17.9c0,0.2,0,0.3,0,0.5
		c-1.2,1.2-2.6,1.4-3.8,0.3c-0.5-0.4-0.8-1-0.8-1.7c-0.1-1.9,0-3.8,0.1-5.8c0.1-1.9,0.2-3.7,0.4-5.6c0.4-4.3,1.1-8.5,2.5-12.6
		c0.4-1.2,1-2,2.1-2.6C560.5,258.9,561.3,258.6,562.3,258.5"/>
	<path fill="#D6A38E" d="M571,286.6c0.1,0.2,0,0.4,0,0.7v5c0,0.2,0,0.4,0.3,0.4c2.5,0,5,0,7.5,0c0,3.5,0,7.1,0,10.6
		c0,0.4,0,0.8,0,1.2c-0.2,0-0.3,0.1-0.5,0.1c-2.4,0.5-4.9,1-7.3,1.6c0-0.2,0-0.4,0-0.6c0-4.1,0-8.2,0-12.2c0-2.1,0-4.2,0-6.3
		C571,286.9,571,286.7,571,286.6"/>
	<path fill="#D6A38E" d="M559.2,292.6h7.8c0,4.5,0,9,0,13.5c-1.5-0.3-3.1-0.6-4.6-1c-1.1-0.2-2.1-0.5-3.2-0.7v-11.3
		C559.2,293,559.2,292.8,559.2,292.6"/>
	<path fill="#D8D4C2" d="M559.2,304.4c1.1,0.2,2.1,0.5,3.2,0.7c1.5,0.3,3.1,0.6,4.6,1c0,1,0,1-1,1c-2.7,0-5.4,0-8,0
		c-0.4,0-0.5-0.1-0.4-0.4C557.7,305.6,558.1,304.8,559.2,304.4"/>
	<path fill="#D8D4C2" d="M571,306.1c2.4-0.5,4.9-1,7.3-1.6c0.2,0,0.3-0.1,0.5-0.1c1.1,0.4,1.5,1.3,1.6,2.4c0,0.2,0,0.3-0.3,0.3
		c-3,0-5.9,0-8.9,0c-0.2,0-0.3-0.1-0.3-0.3C571,306.6,571,306.3,571,306.1"/>
	<path fill="none" stroke="#1C1C1C" stroke-linecap="round" stroke-linejoin="round" stroke-miterlimit="10" d="M563,250.3
		c0,0,5.4,4.7,11.8,0"/>
	<path fill="#1F1F1F" d="M566.2,241.3c0,1-0.9,1.8-2,1.8c-1.1,0-2-0.8-2-1.8c0-1,0.9-1.8,2-1.8C565.3,239.4,566.2,240.3,566.2,241.3
		"/>
	<path fill="#1F1F1F" d="M575,241.3c0,1-0.9,1.8-2,1.8c-1.1,0-2-0.8-2-1.8c0-1,0.9-1.8,2-1.8C574.1,239.4,575,240.3,575,241.3"/>
	<path fill="#D6A38E" d="M602.7,274c-2-1.1-4-2.2-5.9-3.3c-3.3-1.9-5.3-2.5-8.6-4.4c-0.6-0.4-1.9-0.9-3.2-1.2
		c-1.6-0.4-3-0.6-4.4-0.2c-0.9,0.2-1.5,3.1-2.3,2.7c-0.5-0.2-1.5-5.3-1.4-4.8c-0.3-1.7-0.1-1.7,0.7-2.6c0.4-0.5,2.6-0.3,3.2-0.2
		c2.7,0.5,5.4,1.2,8,2.2c2,0.7,4,1.5,5.9,2.4c1.2,0.5,2.4,1.1,3.6,1.7c1.7,0.9,3.5,1.8,5.2,2.7c1.1,0.6,1.6,1.5,1.5,2.7
		c-0.1,1.2-0.8,1.9-2,2.2C602.8,273.9,602.7,274,602.7,274"/>
	<path fill="#C093C1" d="M585.2,266.9l-0.1-6.4c0,0-3.9-1.3-6.1-1c0,0-2.8-1.4-4.7-1.4c0,0-4.3,5.7-10.5,0.1c0,0-5.3,0.2-6.2,3.7
		l-3,6.6c0,0,3.9,1.1,4.7,2.3c0.1,0.1-0.2,11.5,0,9.4v0.2c0,0,10,3,19.7,0.1l0-13C578.9,267.5,578.4,266.9,585.2,266.9z"/>
	<rect x="557.1" y="216.3" fill="none" width="100.5" height="94.1"/>
	<rect x="585.6" y="274.7" fill="#77C04E" width="33.7" height="8.5"/>
	<g>
		<defs>
			<rect id="SVGID_23_" x="557.1" y="216.3" width="100.5" height="94.1"/>
		</defs>
		<clipPath id="SVGID_24_">
			<use xlink:href="#SVGID_23_"  overflow="visible"/>
		</clipPath>
		<path clip-path="url(#SVGID_24_)" fill="#FFFFFF" d="M603.7,279c0,0.7-0.5,1.2-1.2,1.2c-0.7,0-1.2-0.5-1.2-1.2
			c0-0.7,0.5-1.2,1.2-1.2C603.1,277.7,603.7,278.3,603.7,279"/>
	</g>
	<rect x="585.6" y="283.9" fill="#77C04E" width="33.7" height="8.5"/>
	<g>
		<defs>
			<rect id="SVGID_25_" x="557.1" y="216.3" width="100.5" height="94.1"/>
		</defs>
		<clipPath id="SVGID_26_">
			<use xlink:href="#SVGID_25_"  overflow="visible"/>
		</clipPath>
		<path clip-path="url(#SVGID_26_)" fill="#FFFFFF" d="M603.7,288.1c0,0.7-0.5,1.2-1.2,1.2c-0.7,0-1.2-0.5-1.2-1.2
			c0-0.7,0.5-1.2,1.2-1.2C603.1,286.9,603.7,287.4,603.7,288.1"/>
	</g>
	<rect x="585.6" y="293.2" fill="#77C04E" width="33.7" height="8.5"/>
	<g>
		<path fill="#FFFFFF" d="M603.7,297.4c0,0.7-0.5,1.2-1.2,1.2c-0.7,0-1.2-0.5-1.2-1.2c0-0.7,0.5-1.2,1.2-1.2
			C603.1,296.2,603.7,296.8,603.7,297.4"/>
	</g>
	<polyline fill="none" points="558.4,310.8 657.6,310.5 657.6,216.3 558.4,216.7 	"/>
	<rect x="620.3" y="283.9" fill="#77C04E" width="33.7" height="8.5"/>
	<path fill="#FFFFFF" d="M638.3,288.1c0,0.7-0.5,1.2-1.2,1.2c-0.7,0-1.2-0.5-1.2-1.2c0-0.7,0.5-1.2,1.2-1.2
		C637.8,286.9,638.3,287.4,638.3,288.1"/>
	<rect x="620.3" y="293.2" fill="#77C04E" width="33.7" height="8.5"/>
	<path fill="#FFFFFF" d="M638.3,297.4c0,0.7-0.5,1.2-1.2,1.2c-0.7,0-1.2-0.5-1.2-1.2c0-0.7,0.5-1.2,1.2-1.2
		C637.8,296.2,638.3,296.8,638.3,297.4"/>
	<rect x="654.7" y="293.2" fill="#77C04E" width="33.7" height="8.5"/>
	<path fill="#FFFFFF" d="M672.8,297.4c0,0.7-0.5,1.2-1.2,1.2c-0.7,0-1.2-0.5-1.2-1.2c0-0.7,0.5-1.2,1.2-1.2
		C672.2,296.2,672.8,296.8,672.8,297.4"/>
	<path fill="none" stroke="#000000" stroke-miterlimit="10" d="M557.4,284.5"/>
	<path fill="none" stroke="#000000" stroke-miterlimit="10" d="M557,277.9"/>
	<path fill="none" stroke="#1C1C1C" stroke-linecap="round" stroke-linejoin="round" stroke-miterlimit="10" d="M563.2,250.3
		c0,0,5.3,4.7,11.7,0"/>
	<path fill="#D1A6C2" d="M561.9,258.4l5.4,5.5c0,0,0.9-3.2,1.4-3c0,0-3-1.4-3.7-1.9c0,0-1.2-0.9-1.6-0.9L561.9,258.4z"/>
	<path fill="#D1A6C2" d="M576.2,258.3l-5.4,5.5c0,0-0.9-3.2-1.4-3c0,0,3-1.4,3.7-1.9c0,0,1.2-0.9,1.6-0.9L576.2,258.3z"/>
	<ellipse fill="#2C2B24" cx="562.8" cy="221.6" rx="1.5" ry="1.1"/>
	<ellipse fill="#2C2B24" cx="564.8" cy="221.9" rx="1.5" ry="1.1"/>
	<ellipse fill="#2C2B24" cx="567" cy="221.6" rx="1.5" ry="1.1"/>
	<ellipse fill="#2C2B24" cx="569.6" cy="220.8" rx="1.5" ry="1.1"/>
	<ellipse fill="#2C2B24" cx="571.9" cy="221.2" rx="1.5" ry="1.1"/>
	<ellipse fill="#2C2B24" cx="573.8" cy="221.9" rx="1.5" ry="1.1"/>
	<ellipse fill="#2C2B24" cx="574.8" cy="220.8" rx="1.5" ry="1.1"/>
	<ellipse fill="#2C2B24" cx="577.1" cy="221.2" rx="1.5" ry="1.1"/>
	<ellipse fill="#2C2B24" cx="578.2" cy="222.7" rx="1.5" ry="1.1"/>
	<ellipse fill="#2C2B24" cx="580.8" cy="224.8" rx="1.5" ry="1.6"/>
	<ellipse fill="#2C2B24" cx="582.3" cy="226.4" rx="1.5" ry="1.6"/>
	<ellipse fill="#2C2B24" cx="584" cy="230.2" rx="1.5" ry="1.6"/>
	<ellipse fill="#2C2B24" cx="582.8" cy="228.6" rx="1.5" ry="1.6"/>
	<ellipse fill="#2C2B24" cx="585.4" cy="232.6" rx="1.5" ry="1.6"/>
	<ellipse fill="#2C2B24" cx="585.6" cy="235.4" rx="1.2" ry="1.6"/>
	<ellipse fill="#2C2B24" cx="586" cy="237.9" rx="1.2" ry="1.6"/>
	<ellipse fill="#2C2B24" cx="584.6" cy="239.7" rx="1.2" ry="1.6"/>
	<ellipse fill="#2C2B24" cx="571.3" cy="221.3" rx="1.5" ry="1.6"/>
	<ellipse fill="#2C2B24" cx="579.4" cy="223.7" rx="1.5" ry="1.1"/>
	<ellipse fill="#2C2B24" cx="573" cy="220.5" rx="1.5" ry="1.1"/>
	<ellipse fill="#2C2B24" cx="576.5" cy="222.4" rx="1.5" ry="1.1"/>
	<ellipse fill="#2C2B24" cx="553.2" cy="235.4" rx="1.5" ry="1.1"/>
	
		<ellipse transform="matrix(-0.4998 -0.8661 0.8661 -0.4998 623.4318 834.5768)" fill="#2C2B24" cx="552.7" cy="237.3" rx="1.5" ry="1.1"/>
	
		<ellipse transform="matrix(-0.4995 -0.8663 0.8663 -0.4995 621.9196 838.644)" fill="#2C2B24" cx="553.2" cy="239.7" rx="1.5" ry="1.1"/>
	
		<ellipse transform="matrix(-0.4998 -0.8662 0.8662 -0.4998 621.076 841.2689)" fill="#2C2B24" cx="553.5" cy="241.3" rx="1.5" ry="1.1"/>
	<ellipse fill="#2C2B24" cx="560.6" cy="222.7" rx="2.1" ry="1.5"/>
	<ellipse fill="#2C2B24" cx="558.1" cy="223.5" rx="1.5" ry="1.1"/>
	<ellipse fill="#2C2B24" cx="556.7" cy="224.8" rx="1.5" ry="1.1"/>
	<ellipse fill="#2C2B24" cx="555.6" cy="225.9" rx="1.5" ry="1.1"/>
	<ellipse fill="#2C2B24" cx="554.9" cy="227.5" rx="1.5" ry="1.1"/>
	<ellipse fill="#2C2B24" cx="553" cy="228.9" rx="1.5" ry="1.1"/>
	<ellipse fill="#2C2B24" cx="552.7" cy="233.7" rx="1.5" ry="1.1"/>
	
		<ellipse transform="matrix(-0.9377 0.3473 -0.3473 -0.9377 1152.1406 255.128)" fill="#2C2B24" cx="553.2" cy="230.8" rx="1.5" ry="1.1"/>
	
		<ellipse transform="matrix(-0.9378 0.3473 -0.3473 -0.9378 1152.0909 251.945)" fill="#2C2B24" cx="553.5" cy="229.2" rx="1.5" ry="1.1"/>
	
		<ellipse transform="matrix(-0.9378 0.347 -0.347 -0.9378 1152.0424 254.357)" fill="#2C2B24" cx="553.2" cy="230.3" rx="1.5" ry="1.1"/>
	
		<ellipse transform="matrix(-0.9377 0.3474 -0.3474 -0.9377 1152.1216 247.544)" fill="#2C2B24" cx="553.9" cy="227" rx="1.5" ry="1.1"/>
	
		<ellipse transform="matrix(-0.3481 0.9375 -0.9375 -0.3481 961.6584 -204.8268)" fill="#2C2B24" cx="552" cy="232" rx="1.5" ry="1.1"/>
	
		<ellipse transform="matrix(-0.9378 0.3473 -0.3473 -0.9378 1153.0431 257.2578)" fill="#2C2B24" cx="553.5" cy="232" rx="1.5" ry="1.1"/>
	<path fill="#1F1F1F" d="M567,306.1"/>
	<polygon fill="#638EC4" points="559.2,300.2 567,300.1 567,306.1 559.2,304.4 	"/>
	<polygon fill="#638EC4" points="578.9,300.2 571.1,300.1 571.1,306.1 578.9,304.4 	"/>
	<line stroke="#B281B0" stroke-width="0.5" stroke-miterlimit="10" x1="569.8" y1="263.8" x2="569.8" y2="280.4"/>
	<circle fill="#112029" cx="568.5" cy="265.1" r="0.5"/>
	<circle fill="#112029" cx="568.5" cy="269.9" r="0.5"/>
	<circle fill="#112029" cx="568.5" cy="279.5" r="0.5"/>
	<circle fill="#112029" cx="568.5" cy="274.7" r="0.5"/>
	<path fill="#112029" d="M600.5,266.9c0,0,1.2,0.7,1.3,0.7c0.1,0-1.7,3.7-1.7,4.9l-1.7-0.9C598.4,271.6,600.3,268,600.5,266.9z"/>
	<text transform="matrix(1 0 0 1 133.459 146.1692)"><tspan x="0" y="0" fill="#231F20" font-family="'Lato-Light'" font-size="20.0443">Let’s create</tspan><tspan x="98.5" y="0" fill="#231F20" font-family="'Graphik-Light'" font-size="20.0443"> </tspan><tspan x="103.5" y="0" fill="#231F20" font-family="'Lato-Black'" font-size="20.0443">Customizable </tspan><tspan x="0" y="24.1" fill="#231F20" font-family="'Lato-Black'" font-size="20.0443">high quality and sustainable</tspan><tspan x="254.2" y="24.1" fill="#231F20" font-family="'Graphik-Light'" font-size="20.0443"> </tspan><tspan x="259.1" y="24.1" fill="#231F20" font-family="'Lato-Light'" font-size="20.0443">products </tspan><tspan x="0" y="48.1" fill="#231F20" font-family="'Lato-Light'" font-size="20.0443">available to anyone anywhere </tspan></text>
	<line fill="#231F20" x1="112.2" y1="130.8" x2="112.2" y2="194.8"/>
</g>
</svg>
