<?xml version="1.0" encoding="utf-8"?>
<!-- Generator: Adobe Illustrator 18.0.0, SVG Export Plug-In . SVG Version: 6.00 Build 0)  -->
<!DOCTYPE svg PUBLIC "-//W3C//DTD SVG 1.1//EN" "http://www.w3.org/Graphics/SVG/1.1/DTD/svg11.dtd">
<svg version="1.1" id="Layer_1" xmlns="http://www.w3.org/2000/svg" xmlns:xlink="http://www.w3.org/1999/xlink" x="0px" y="0px"
	 viewBox="0 0 800 800" enable-background="new 0 0 800 800" xml:space="preserve">
<g id="Layer_10">
	<rect y="86.5" fill="#B3DCC2" width="800" height="531"/>
</g>
<path fill="#FFFFFF" d="M679.5,281.5c0,3-2.4,5.4-5.4,5.4H466.8c-3,0-5.4-2.4-5.4-5.4v-31c0-3,2.4-5.4,5.4-5.4h207.3
	c3,0,5.4,2.4,5.4,5.4V281.5z"/>
<path fill="#A2A2A3" d="M639.2,337v-14.2h-91.3v14.5l-4,4v26.6l99.4,3.4v-30.1L639.2,337z M630.5,355.1l-11.2-14.7h-50.1l-13.4,14.7
	v-21.5h74.8L630.5,355.1L630.5,355.1z"/>
<polygon fill="#FFFFFF" points="647.4,376 619.3,340.4 569.2,340.4 536.9,376 "/>
<polygon fill="#DBDAD9" points="647.4,376 619.3,340.4 569.2,340.4 536.9,376 "/>
<polyline fill="#FFFFFF" points="585.7,322.7 585.7,338.9 593.5,344.3 600.7,338.8 600.7,322.7 "/>
<polyline fill="none" stroke="#717070" stroke-width="2.769" stroke-linecap="round" stroke-linejoin="round" stroke-miterlimit="10" points="
	585.7,322.7 585.7,338.9 593.5,344.3 600.7,338.8 600.7,322.7 "/>
<polyline fill="#676767" points="540.5,399.4 540.5,418.3 536.9,422.2 536.9,431.4 561.3,431.4 566.3,424.9 618,425.3 623,431.8 
	647.4,431.8 647.4,422.6 643.8,418.7 643.8,399.7 "/>
<polygon fill="#A2A2A3" points="647.4,399.4 536.9,399.4 536.9,376 568.3,376 647.4,376 647.4,387.6 "/>
<path fill="#112029" d="M519.8,399.3c0,2.2,0,4.4,0,6.6c-3.1,0-6.3,0-9.4,0c-0.4,0-0.4-0.2-0.4-0.5v-6.3c0-0.3,0.1-0.6-0.1-0.8
	c-0.1-1-0.6-1.5-1.6-1.7c-0.6-0.1-1.3-0.1-1.9,0c-0.8,0.1-1.3,0.6-1.4,1.4c-0.1,0.3-0.1,0.6-0.1,0.9c0,2.3,0,4.6,0,6.9h-9.7
	c0-2.2,0-4.5,0-6.7c0-0.2,0-0.4,0-0.6c0-7.5,0-14.9,0-22.4c0-0.8,0.2-1.4,0.6-2c2.4-3.2,3.2-7,3.2-11c0.6-0.2,1.2-0.4,1.9-0.3
	c0,0.3,0.1,0.5,0.1,0.8c0.2,1.6,0.7,2.9,2,4s2.9,1.3,4.5,1.3c0.5,0,1.1,0,1.7-0.2c1.2-0.3,2.4-0.8,3.2-1.8c1.1-1.2,1.4-2.7,1.5-4.2
	c0.6,0.1,1.2,0.2,1.9,0.3c0,0.6,0,1.3,0.1,1.9c0.1,1.2,0.3,2.4,0.6,3.5c0.5,2,1.2,4,2.6,5.6c0.6,0.7,0.7,1.4,0.7,2.3
	c0,4.8,0,9.5,0,14.3C519.8,393.7,519.8,396.5,519.8,399.3"/>
<path fill="#E0B495" d="M525.4,342.5c-0.2,0.7-0.3,1.4-0.5,2.2c-0.5-0.5-0.8-1.1-1.1-1.7c-1.2-2.2-2-4.6-2.5-7.1
	c-0.2-1.1-0.3-2.2-0.3-3.4c0-0.3,0-0.4-0.4-0.3c-3.1,0.9-2.4-8.4-5.6-7.8c-2.5,0.5-12.1,1.6-14.7,1.9c-1.4,0.2-4.5,1.6-5.9,1.7
	c-1.4,0.1-1.5,5.3-2.9,5.3c-2.6,0.1-1.6,2.2,0,2.4c0.4,0,1.8,0.4,1.7,0.8c-0.4,1.9-1,3.8-1.8,5.6c-0.4,0.9-0.8,1.8-1.5,2.6
	c-0.3-0.8-0.4-1.5-0.5-2.2c-1.1,0-1.5,0.4-1.5,1.5c0,0.8,1.1,1.9,1.3,2.7c0.2,0.9-0.3,1.5-0.4,2.5c0,0.6,0.6,1,1.3,0.9
	c0.3,0,0.4,0,0.5,0.3c0,0.1,0.1,0.3,0.1,0.4c0.8,3,2.2,5.5,4.6,7.4c1.7,1.4,3.7,2.2,5.8,2.8c0.2,0,0.4,0,0.5,0.3
	c0,0.4,0.1,0.9,0,1.3c0,0.2-0.4,0.1-0.6,0.2c-0.1,0-0.1,0.1-0.2,0.1c0,0.3,0.1,0.5,0.1,0.8c0.2,1.6,0.7,2.9,2,4
	c1.3,1.1,2.9,1.3,4.5,1.3c0.5,0,1.1,0,1.7-0.2c1.2-0.3,2.4-0.8,3.2-1.8c1.1-1.2,1.4-2.7,1.5-4.2c-0.1,0-0.3-0.1-0.4-0.1
	c-0.4,0-0.5-0.1-0.4-0.5c0-1,0-1,0.9-1.3c0.1,0,0.2-0.1,0.3-0.1c3-0.9,5.5-2.4,7.3-4.9c1.3-1.7,2-3.6,2.5-5.6
	c0.1-0.3,0.1-0.3,0.4-0.3c0.8,0.1,1.3-0.4,1.3-1.2c0-0.5-0.4-1.4-0.3-1.9c0.4-1.1,1.3-1.9,1.2-3.1
	C526.9,343.1,526.5,342.3,525.4,342.5z"/>
<path fill="#74431F" d="M525.4,342.5c-0.2,0.7-0.3,1.4-0.5,2.2c-0.5-0.5-0.8-1.1-1.1-1.7c-1.2-2.2-2-4.6-2.5-7.1
	c-0.2-1.1-0.3-2.2-0.3-3.4c0-0.3,0-0.4-0.4-0.3c-3.1,0.9-2.7-6.6-5.9-6c-2.5,0.5-4.6,0.1-7.2,0.5c-1.4,0.2-3.8,3-5.2,3.1
	c-1.4,0.1-2.9-0.2-4.3-0.1c-0.5,0-1.9,0-2.4,0c-0.4,0-2.3,6.5-2.4,6.8c-0.4,1.9-1,3.8-1.8,5.6c-0.4,0.9-0.8,1.8-1.5,2.6
	c-0.3-0.8-0.4-1.5-0.5-2.2c-0.6-3.5-0.7-7.1,0.2-10.6c1.2-4.7,2.1-9.2,6.5-11.3c6.6-3.1,17-2.4,23.6,1c4.5,2.3,5.1,6.5,5.9,11.4
	c0.5,3.1,0.3,6.2-0.3,9.3C525.4,342.3,525.4,342.4,525.4,342.5"/>
<path fill="#E0B495" d="M550.6,375.5c-2.7-0.8-5.5-1.5-8.2-2.3c-4.6-1.3-7.2-1.5-11.8-2.8c-0.8-0.2-2.6-0.5-4.3-0.5
	c-2.1,0-3.8,0.2-5.4,1.1c-1.1,0.6-0.9,4.1-2.1,3.9c-0.6-0.1-3.3-6-3.1-5.4c-0.8-2-1-4.6-0.3-6c0.3-0.7,3.5,1.5,4.2,1.5
	c3.5-0.2,6.9-0.1,10.3,0.3c2.6,0.3,5.3,0.7,7.9,1.2c1.6,0.3,3.3,0.7,4.9,1.1c2.4,0.6,4.7,1.1,7.1,1.8c1.5,0.4,2.4,1.3,2.6,2.8
	c0.2,1.5-0.5,2.5-1.7,3.3C550.7,375.4,550.7,375.4,550.6,375.5"/>
<path fill="#E0B495" d="M499,363.3c0,4-0.8,7.7-3.2,10.9c-0.5,0.7-0.6,1.3-0.6,2c0,7.5,0,14.9,0,22.4c0,0.2,0,0.4,0,0.6
	c-1.4,1.5-3.2,1.7-4.7,0.4c-0.6-0.5-1-1.3-1.1-2.1c-0.1-2.4,0-4.8,0.1-7.2c0.1-2.3,0.3-4.6,0.5-7c0.6-5.4,0.6-9.9,2.3-15
	c0.5-1.5,2-3.3,3.4-4C496.8,363.9,497.8,363.4,499,363.3"/>
<path fill="#E0B495" d="M509.9,398.4c0.1,0.3,0.1,0.5,0.1,0.8v6.3c0,0.3,0,0.5,0.4,0.5c3.1,0,6.3,0,9.4,0c0,4.4,0,8.8,0,13.2
	c0,0.5,0,1,0,1.5c-0.2,0.1-0.4,0.1-0.6,0.2c-3.1,0.7-6.1,1.3-9.2,1.9c0-0.2,0-0.5,0-0.7c0-5.1,0-10.2,0-15.3c0-2.6,0-5.2,0-7.8
	C509.9,398.8,509.9,398.6,509.9,398.4"/>
<path fill="#E0B495" d="M495.2,405.9h9.7c0,5.6,0,11.2,0,16.8c-1.9-0.4-3.8-0.8-5.7-1.2c-1.3-0.3-2.7-0.6-4-0.9v-14.1
	C495.2,406.4,495.2,406.2,495.2,405.9"/>
<path fill="#2C3D52" d="M495.2,420.7c1.3,0.3,2.7,0.6,4,0.9c1.9,0.4,3.8,0.8,5.7,1.2c0.1,1.2,0.1,1.2-1.2,1.2c-3.4,0-6.7,0-10.1,0
	c-0.4,0-0.6-0.1-0.5-0.5C493.3,422.2,493.9,421.1,495.2,420.7"/>
<path fill="#2C3D52" d="M510,422.8c3-0.7,6.1-1.3,9.2-1.9c0.2,0,0.4-0.1,0.6-0.2c1.4,0.5,1.9,1.6,2,3c0,0.2,0,0.4-0.3,0.4
	c-3.7,0-7.4,0-11.1,0c-0.3,0-0.4-0.1-0.4-0.4S510,423.1,510,422.8"/>
<line fill="none" stroke="#717070" stroke-width="2.769" stroke-linecap="round" stroke-linejoin="round" stroke-miterlimit="10" x1="593.1" y1="330.5" x2="593.1" y2="334.3"/>
<line fill="none" stroke="#868787" stroke-width="2.769" stroke-linecap="round" stroke-linejoin="round" stroke-miterlimit="10" x1="566.2" y1="408.9" x2="566.2" y2="414.6"/>
<line fill="none" stroke="#868787" stroke-width="2.769" stroke-linecap="round" stroke-linejoin="round" stroke-miterlimit="10" x1="559.4" y1="408.9" x2="559.4" y2="414.6"/>
<line fill="none" stroke="#868787" stroke-width="2.769" stroke-linecap="round" stroke-linejoin="round" stroke-miterlimit="10" x1="552.6" y1="408.9" x2="552.6" y2="414.6"/>
<line fill="none" stroke="#241F21" stroke-width="2.769" stroke-linecap="round" stroke-linejoin="round" stroke-miterlimit="10" x1="629" y1="410.2" x2="631.2" y2="408"/>
<line fill="none" stroke="#241F21" stroke-width="2.769" stroke-linecap="round" stroke-linejoin="round" stroke-miterlimit="10" x1="612.3" y1="410.2" x2="614.4" y2="408"/>
<line fill="none" stroke="#717070" stroke-width="2.769" stroke-linecap="round" stroke-linejoin="round" stroke-miterlimit="10" x1="593.5" y1="348.5" x2="593.5" y2="344.3"/>
<path fill="none" stroke="#717070" stroke-width="2.769" stroke-linecap="round" stroke-linejoin="round" stroke-miterlimit="10" d="
	M572.4,315.9c-4.6,0-8.3-3.7-8.3-8.3c0-4.6,3.7-8.3,8.3-8.3"/>
<path fill="#BBBDBF" stroke="#717070" stroke-width="2.769" stroke-linecap="round" stroke-linejoin="round" stroke-miterlimit="10" d="
	M603.8,316.8v-5c0-3-2.4-5.4-5.4-5.4h-10.7c-3,0-5.4,2.4-5.4,5.4v4.5v6.4h21.5v-6.9"/>
<polyline fill="none" stroke="#717070" stroke-width="2.769" stroke-linecap="round" stroke-linejoin="round" stroke-miterlimit="10" points="
	572.4,299.3 593.5,299.3 593.5,306.4 "/>
<line fill="none" stroke="#717070" stroke-width="2.769" stroke-linecap="round" stroke-linejoin="round" stroke-miterlimit="10" x1="639.2" y1="348.5" x2="643.3" y2="348.5"/>
<line fill="none" stroke="#717070" stroke-width="2.769" stroke-linecap="round" stroke-linejoin="round" stroke-miterlimit="10" x1="543.8" y1="348.7" x2="547.4" y2="348.7"/>
<polyline fill="none" stroke="#717070" stroke-width="2.769" stroke-linecap="round" stroke-linejoin="round" stroke-miterlimit="10" points="
	631.6,355.1 631.6,322.7 631.6,315.9 574.9,315.9 572.4,315.9 "/>
<line fill="none" stroke="#868787" stroke-width="2.769" stroke-linecap="round" stroke-linejoin="round" stroke-miterlimit="10" x1="620.8" y1="387.6" x2="647.4" y2="387.6"/>
<path fill="none" stroke="#868787" stroke-width="2.769" stroke-linecap="round" stroke-linejoin="round" stroke-miterlimit="10" d="
	M630.1,413.1c0,2.3-1.9,4.2-4.2,4.2s-4.2-1.9-4.2-4.2c0-2.3,1.9-4.2,4.2-4.2C628.2,408.9,630.1,410.8,630.1,413.1z"/>
<path fill="none" stroke="#868787" stroke-width="2.769" stroke-linecap="round" stroke-linejoin="round" stroke-miterlimit="10" d="
	M613.5,413.1c0,2.3-1.9,4.2-4.2,4.2s-4.2-1.9-4.2-4.2c0-2.3,1.9-4.2,4.2-4.2S613.5,410.8,613.5,413.1z"/>
<circle fill="none" stroke="#868787" stroke-width="2.769" stroke-linecap="round" stroke-linejoin="round" stroke-miterlimit="10" cx="583.5" cy="387.6" r="4.2"/>
<circle fill="none" stroke="#868787" stroke-width="2.769" stroke-linecap="round" stroke-linejoin="round" stroke-miterlimit="10" cx="566.7" cy="387.6" r="4.2"/>
<circle fill="none" stroke="#868787" stroke-width="2.769" stroke-linecap="round" stroke-linejoin="round" stroke-miterlimit="10" cx="550.1" cy="387.6" r="4.2"/>
<rect x="458.5" y="243.4" fill="none" width="221.5" height="211.5"/>
<polygon fill="#B07F4A" points="475.2,397.8 668,397.8 678.3,411.7 464.1,411.7 "/>
<rect x="481.2" y="411.8" fill="#946138" width="6.9" height="23.7"/>
<rect x="481.2" y="411.8" fill="none" width="6.9" height="23.7"/>
<rect x="651.5" y="411.8" fill="#946138" width="6.9" height="23.7"/>
<rect x="472.2" y="286.9" fill="#C99D67" width="6.9" height="166.2"/>
<rect x="459.7" y="243.4" fill="none" width="221.5" height="211.5"/>
<rect x="663.5" y="286.9" fill="#C99D67" width="6.9" height="166.2"/>
<rect x="459.7" y="243.4" fill="none" width="221.5" height="211.5"/>
<rect x="453.8" y="243" fill="none" width="230.6" height="220.1"/>
<path fill="none" stroke="#1C1C1C" stroke-linecap="round" stroke-linejoin="round" stroke-miterlimit="10" d="M497.9,352.5
	c0,0,8.5,7.3,18.7,0"/>
<ellipse fill="#1E1E1E" cx="501.5" cy="341.8" rx="2.5" ry="2.3"/>
<ellipse fill="#1E1E1E" cx="512.4" cy="341.8" rx="2.5" ry="2.3"/>
<path fill="#F6B2CF" d="M488.8,375.9c0,0,5,1.5,6,2.9c0.1,0.1-0.3,14.9,0,12.1v0.3c0,0,12.9,3.9,25.4,0.2v-16.7l9.9-1.8l-2.1-8.1
	c0,0-4.9-0.4-7.7-0.1c0,0-3.4-1.7-6-2c0,0-5.6,7.3-13.5,0.1c0,0-6.8,0.3-8,4.7L488.8,375.9z"/>
<g enable-background="new    ">
	<path fill="#383939" d="M495.9,256.2h12.9v4.6h-7v3.5h5.6v4.4h-5.6v6.3h-5.9V256.2z"/>
	<path fill="#383939" d="M514.2,256.2h7.7l5.9,18.7h-6.3l-0.9-3.1h-5.9l-0.8,3.1h-5.5L514.2,256.2z M515.8,267.7h3.7l-1.8-6.8
		L515.8,267.7z"/>
	<path fill="#383939" d="M529.6,256.2h8.8c4.6,0,6.4,2.1,6.4,4.9v0.1c0,2.2-1.2,3.5-3.2,4c2.2,0.4,3.7,1.8,3.7,4.4v0.1
		c0,3.3-2.1,5.2-6.9,5.2h-8.8V256.2z M537.2,263.5c1.5,0,2-0.5,2-1.6v-0.1c0-1.1-0.6-1.7-2.1-1.7h-1.8v3.4H537.2z M537.3,271
		c1.5,0,2.2-0.7,2.2-2v-0.1c0-1.2-0.7-1.9-2.4-1.9h-1.8v4H537.3z"/>
</g>
<g enable-background="new    ">
	<path fill="#383939" d="M549.8,256.2h2.1l6.6,16.1l6.6-16.1h2v18.7h-1.4V258l-7,16.9h-0.5l-7-16.9v16.9h-1.4V256.2z"/>
	<path fill="#383939" d="M577.3,256.2h1.9l6.7,18.7h-1.5l-2.1-5.7H574l-2,5.7h-1.4L577.3,256.2z M574.4,268h7.6l-3.8-10.6L574.4,268
		z"/>
	<path fill="#383939" d="M589.2,256.2h5.1c3.6,0,6.4,1.4,6.4,5v0.1c0,3.1-2,4.5-4.8,4.9l5.9,8.6h-1.6l-5.9-8.5h-3.6v8.5h-1.5V256.2z
		 M594.4,265.2c3,0,4.8-1.2,4.8-3.9v-0.1c0-2.9-1.9-3.8-4.8-3.8h-3.7v7.8H594.4z"/>
	<path fill="#383939" d="M605,256.2h1.5v9.2l9.1-9.2h1.7l-9,9.1l9.5,9.6h-1.8l-9.4-9.4v9.4H605V256.2z"/>
	<path fill="#383939" d="M620.7,256.2h10.7v1.2h-9.3v7.3h7.5v1.2h-7.5v7.8h9.8v1.2h-11.2V256.2z"/>
	<path fill="#383939" d="M639.5,257.4h-5.8v-1.2h13.1v1.2H641v17.5h-1.4V257.4z"/>
</g>
<g>
	<g>
		<path fill="#231F20" d="M158.3,323.6h-0.8c-0.1,0-0.2,0-0.2-0.1c-0.1-0.1-0.1-0.1-0.1-0.2l-1.7-4.1h-7l-1.7,4.1
			c0,0.1-0.1,0.1-0.1,0.2c-0.1,0.1-0.1,0.1-0.2,0.1h-0.8l5.8-14.2h1L158.3,323.6z M148.8,318.4h6.4l-2.9-7.2c0-0.1-0.1-0.2-0.1-0.4
			c0-0.2-0.1-0.3-0.1-0.5c0,0.2-0.1,0.3-0.1,0.5c0,0.2-0.1,0.3-0.1,0.4L148.8,318.4z"/>
		<path fill="#231F20" d="M163.9,327.1v-13.5h0.5c0.1,0,0.2,0,0.2,0.1c0.1,0,0.1,0.1,0.1,0.2l0.1,1.5c0.4-0.6,1-1.1,1.5-1.4
			c0.6-0.4,1.3-0.5,2-0.5c1.2,0,2.2,0.4,2.9,1.3s1,2.1,1,3.8c0,0.7-0.1,1.4-0.3,2c-0.2,0.6-0.5,1.2-0.8,1.6
			c-0.4,0.5-0.8,0.8-1.4,1.1c-0.6,0.3-1.2,0.4-1.9,0.4s-1.3-0.1-1.8-0.4s-0.9-0.6-1.3-1.1v4.9L163.9,327.1L163.9,327.1z
			 M168.1,314.2c-0.7,0-1.3,0.2-1.8,0.5c-0.5,0.3-1,0.8-1.4,1.4v5.2c0.4,0.6,0.8,1,1.3,1.2c0.5,0.2,1,0.4,1.6,0.4s1.1-0.1,1.5-0.3
			s0.8-0.5,1.1-0.9s0.5-0.9,0.7-1.4s0.2-1.1,0.2-1.8c0-1.5-0.3-2.6-0.8-3.3S169.1,314.2,168.1,314.2z"/>
		<path fill="#231F20" d="M175.9,309v14.6h-1V309H175.9z"/>
		<path fill="#231F20" d="M185.8,323.6c-0.2,0-0.3-0.1-0.4-0.3l-0.1-1.3c-0.3,0.3-0.5,0.5-0.8,0.7c-0.3,0.2-0.6,0.4-0.8,0.5
			c-0.2,0.1-0.6,0.3-1,0.3c-0.3,0.1-0.7,0.1-1.1,0.1c-0.3,0-0.7,0-1-0.1s-0.6-0.3-0.9-0.5c-0.2-0.2-0.4-0.5-0.6-0.8
			c-0.2-0.3-0.2-0.7-0.2-1.2c0-0.4,0.1-0.8,0.4-1.2c0.2-0.4,0.6-0.7,1.1-0.9c0.5-0.3,1.2-0.5,2-0.6c0.8-0.2,1.8-0.3,2.9-0.3v-1
			c0-0.9-0.2-1.6-0.6-2.1s-1-0.7-1.8-0.7c-0.5,0-0.9,0.1-1.2,0.2s-0.6,0.3-0.9,0.4c-0.2,0.2-0.4,0.3-0.6,0.4
			c-0.1,0.1-0.3,0.2-0.4,0.2c-0.1,0-0.2-0.1-0.3-0.2l-0.2-0.3c0.5-0.5,1.1-0.9,1.6-1.2c0.6-0.3,1.2-0.4,2-0.4c0.5,0,1,0.1,1.4,0.3
			c0.4,0.2,0.7,0.4,1,0.7s0.5,0.7,0.6,1.2s0.2,1,0.2,1.5v6.5h-0.3V323.6z M181.8,323.1c0.4,0,0.7,0,1.1-0.1s0.6-0.2,0.9-0.4
			s0.5-0.3,0.8-0.5c0.2-0.2,0.5-0.4,0.7-0.7v-2.6c-0.9,0-1.8,0.1-2.5,0.2c-0.7,0.1-1.2,0.3-1.7,0.5c-0.4,0.2-0.8,0.4-1,0.7
			c-0.2,0.3-0.3,0.6-0.3,0.9c0,0.3,0.1,0.6,0.2,0.9c0.1,0.2,0.3,0.4,0.4,0.6c0.2,0.2,0.4,0.3,0.6,0.3
			C181.3,323,181.5,323.1,181.8,323.1z"/>
		<path fill="#231F20" d="M195.7,315L195.7,315c-0.1,0.1-0.2,0.1-0.2,0.1c-0.1,0-0.2,0-0.3-0.1s-0.3-0.2-0.5-0.3
			c-0.2-0.1-0.4-0.2-0.7-0.3s-0.6-0.1-1.1-0.1c-0.6,0-1.1,0.1-1.5,0.3c-0.4,0.2-0.8,0.5-1.1,0.9c-0.3,0.4-0.5,0.8-0.7,1.4
			c-0.2,0.5-0.2,1.1-0.2,1.8s0.1,1.3,0.2,1.9s0.4,1,0.7,1.4s0.7,0.7,1.1,0.8c0.4,0.1,0.9,0.3,1.4,0.3s0.9-0.1,1.2-0.2
			c0.3-0.1,0.6-0.2,0.8-0.4c0.2-0.1,0.4-0.3,0.5-0.4c0.1-0.1,0.2-0.2,0.3-0.2s0.2,0,0.2,0.1l0.3,0.3c-0.2,0.2-0.3,0.4-0.6,0.6
			c-0.2,0.2-0.5,0.3-0.8,0.5c-0.3,0.2-0.6,0.2-1,0.3c-0.3,0.1-0.7,0.1-1.1,0.1c-0.6,0-1.2-0.1-1.7-0.3c-0.5-0.2-1-0.6-1.4-1
			c-0.4-0.4-0.7-1-0.9-1.6c-0.2-0.6-0.3-1.4-0.3-2.2s0.1-1.5,0.3-2.1s0.5-1.2,0.9-1.6c0.4-0.5,0.9-0.8,1.4-1.1
			c0.6-0.3,1.2-0.4,1.9-0.4c0.6,0,1.2,0.1,1.7,0.3c0.5,0.2,0.9,0.5,1.3,0.8L195.7,315z"/>
		<path fill="#231F20" d="M202,313.5c0.6,0,1.1,0.1,1.6,0.3c0.5,0.2,0.9,0.5,1.2,0.8c0.4,0.4,0.6,0.8,0.8,1.4
			c0.2,0.5,0.3,1.2,0.3,1.9c0,0.1,0,0.2-0.1,0.3c0,0.1-0.1,0.1-0.2,0.1h-7.2v0.2c0,0.7,0.1,1.4,0.3,2s0.4,1,0.7,1.4s0.7,0.7,1.2,0.9
			s1,0.3,1.5,0.3s0.9-0.1,1.3-0.2s0.7-0.2,0.9-0.4c0.3-0.1,0.4-0.3,0.6-0.4c0.1-0.1,0.3-0.2,0.3-0.2c0.1,0,0.2,0,0.2,0.1l0.3,0.3
			c-0.2,0.2-0.4,0.4-0.6,0.6c-0.3,0.2-0.6,0.3-0.9,0.4c-0.3,0.1-0.7,0.2-1,0.3c-0.3,0.1-0.7,0.1-1.1,0.1c-0.7,0-1.3-0.1-1.9-0.4
			c-0.6-0.2-1-0.6-1.4-1c-0.4-0.5-0.7-1-0.9-1.7s-0.3-1.4-0.3-2.3c0-0.7,0.1-1.4,0.3-2c0.2-0.6,0.5-1.1,0.9-1.6
			c0.4-0.4,0.9-0.8,1.4-1C200.7,313.6,201.3,313.5,202,313.5z M202.1,314.2c-0.5,0-1,0.1-1.4,0.2c-0.4,0.2-0.8,0.4-1.1,0.7
			c-0.3,0.3-0.5,0.7-0.7,1.1c-0.2,0.4-0.3,0.9-0.4,1.4h6.6c0-0.5-0.1-1-0.2-1.4c-0.1-0.4-0.4-0.8-0.6-1.1c-0.3-0.3-0.6-0.5-1-0.7
			C202.9,314.3,202.5,314.2,202.1,314.2z"/>
		<path fill="#231F20" d="M211,313.6h0.7c0.1,0,0.2,0,0.2,0.1c0.1,0.1,0.1,0.1,0.1,0.2l2.5,7.9c0,0.2,0.1,0.3,0.1,0.4
			c0,0.1,0.1,0.3,0.1,0.4c0-0.1,0.1-0.3,0.1-0.4c0-0.1,0.1-0.3,0.1-0.4l2.7-7.9c0-0.1,0.1-0.2,0.3-0.2h0.4c0.1,0,0.2,0.1,0.3,0.2
			l2.6,7.9c0.1,0.3,0.2,0.6,0.2,0.9c0-0.1,0.1-0.3,0.1-0.4c0-0.1,0.1-0.3,0.1-0.4l2.5-7.9c0.1-0.2,0.2-0.2,0.3-0.2h0.7l-3.3,10h-0.7
			c-0.1,0-0.2-0.1-0.2-0.2l-2.7-8.1c0-0.1-0.1-0.2-0.1-0.3s0-0.2-0.1-0.3c0,0.1,0,0.2-0.1,0.3c0,0.1-0.1,0.2-0.1,0.3l-2.8,8.1
			c0,0.1-0.1,0.2-0.2,0.2h-0.7L211,313.6z"/>
		<path fill="#231F20" d="M227.2,323.6V309h1v6.3c0.5-0.6,1-1,1.6-1.4c0.6-0.3,1.3-0.5,2-0.5c0.5,0,1,0.1,1.4,0.3s0.8,0.4,1,0.8
			c0.3,0.3,0.5,0.7,0.6,1.2s0.2,1,0.2,1.6v6.4h-1v-6.4c0-0.9-0.2-1.7-0.6-2.2c-0.4-0.5-1.1-0.8-2-0.8c-0.7,0-1.3,0.2-1.8,0.5
			s-1.1,0.8-1.5,1.4v7.5h-0.9V323.6z"/>
		<path fill="#231F20" d="M241.8,313.5c0.6,0,1.1,0.1,1.6,0.3c0.5,0.2,0.9,0.5,1.2,0.8c0.4,0.4,0.6,0.8,0.8,1.4
			c0.2,0.5,0.3,1.2,0.3,1.9c0,0.1,0,0.2-0.1,0.3c0,0.1-0.1,0.1-0.2,0.1h-7.2v0.2c0,0.7,0.1,1.4,0.3,2s0.4,1,0.7,1.4s0.7,0.7,1.2,0.9
			s1,0.3,1.5,0.3s0.9-0.1,1.3-0.2s0.7-0.2,0.9-0.4c0.3-0.1,0.4-0.3,0.6-0.4c0.1-0.1,0.3-0.2,0.3-0.2c0.1,0,0.2,0,0.2,0.1l0.3,0.3
			c-0.2,0.2-0.4,0.4-0.6,0.6c-0.3,0.2-0.6,0.3-0.9,0.4c-0.3,0.1-0.7,0.2-1,0.3c-0.3,0.1-0.7,0.1-1.1,0.1c-0.7,0-1.3-0.1-1.9-0.4
			c-0.6-0.2-1-0.6-1.4-1c-0.4-0.5-0.7-1-0.9-1.7s-0.3-1.4-0.3-2.3c0-0.7,0.1-1.4,0.3-2c0.2-0.6,0.5-1.1,0.9-1.6
			c0.4-0.4,0.9-0.8,1.4-1C240.4,313.6,241.1,313.5,241.8,313.5z M241.8,314.2c-0.5,0-1,0.1-1.4,0.2c-0.4,0.2-0.8,0.4-1.1,0.7
			c-0.3,0.3-0.5,0.7-0.7,1.1c-0.2,0.4-0.3,0.9-0.4,1.4h6.6c0-0.5-0.1-1-0.2-1.4c-0.1-0.4-0.4-0.8-0.6-1.1c-0.3-0.3-0.6-0.5-1-0.7
			C242.6,314.3,242.2,314.2,241.8,314.2z"/>
		<path fill="#231F20" d="M248.2,323.6v-10h0.5c0.1,0,0.2,0,0.2,0.1s0.1,0.1,0.1,0.2l0.1,2.1c0.3-0.8,0.7-1.4,1.3-1.9
			c0.5-0.5,1.2-0.7,2-0.7c0.3,0,0.6,0,0.8,0.1s0.5,0.2,0.7,0.3l-0.1,0.7c0,0.1-0.1,0.2-0.2,0.2c0,0-0.1,0-0.2,0
			c-0.1,0-0.2-0.1-0.3-0.1s-0.2-0.1-0.4-0.1s-0.3,0-0.6,0c-0.8,0-1.4,0.2-1.9,0.7s-0.9,1.1-1.2,2v6.5h-0.8V323.6z"/>
		<path fill="#231F20" d="M260,313.5c0.6,0,1.1,0.1,1.6,0.3c0.5,0.2,0.9,0.5,1.2,0.8c0.4,0.4,0.6,0.8,0.8,1.4
			c0.2,0.5,0.3,1.2,0.3,1.9c0,0.1,0,0.2-0.1,0.3c0,0.1-0.1,0.1-0.2,0.1h-7.2v0.2c0,0.7,0.1,1.4,0.3,2c0.2,0.6,0.4,1,0.7,1.4
			c0.3,0.4,0.7,0.7,1.2,0.9s1,0.3,1.5,0.3s0.9-0.1,1.3-0.2s0.7-0.2,0.9-0.4c0.3-0.1,0.4-0.3,0.6-0.4c0.1-0.1,0.3-0.2,0.3-0.2
			c0.1,0,0.2,0,0.2,0.1l0.3,0.3c-0.2,0.2-0.4,0.4-0.6,0.6c-0.3,0.2-0.6,0.3-0.9,0.4s-0.7,0.2-1,0.3c-0.3,0.1-0.7,0.1-1.1,0.1
			c-0.7,0-1.3-0.1-1.9-0.4c-0.6-0.2-1-0.6-1.4-1c-0.4-0.5-0.7-1-0.9-1.7c-0.2-0.7-0.3-1.4-0.3-2.3c0-0.7,0.1-1.4,0.3-2
			c0.2-0.6,0.5-1.1,0.9-1.6c0.4-0.4,0.9-0.8,1.4-1C258.6,313.6,259.3,313.5,260,313.5z M260,314.2c-0.5,0-1,0.1-1.4,0.2
			c-0.4,0.2-0.8,0.4-1.1,0.7c-0.3,0.3-0.5,0.7-0.7,1.1c-0.2,0.4-0.3,0.9-0.4,1.4h6.6c0-0.5-0.1-1-0.2-1.4c-0.1-0.4-0.4-0.8-0.6-1.1
			c-0.3-0.3-0.6-0.5-1-0.7C260.8,314.3,260.4,314.2,260,314.2z"/>
		<path fill="#231F20" d="M277.4,323.6c-0.2,0-0.3-0.1-0.3-0.3l-0.1-1.6c-0.4,0.6-1,1.1-1.5,1.4c-0.6,0.4-1.3,0.5-2,0.5
			c-1.2,0-2.2-0.4-2.9-1.3s-1-2.1-1-3.8c0-0.7,0.1-1.4,0.3-2c0.2-0.6,0.5-1.2,0.8-1.6c0.3-0.4,0.8-0.8,1.4-1.1
			c0.5-0.3,1.2-0.4,1.9-0.4c0.7,0,1.3,0.1,1.8,0.4s0.9,0.6,1.3,1.1V309h1v14.6L277.4,323.6L277.4,323.6z M273.7,323
			c0.7,0,1.3-0.2,1.8-0.5s1-0.8,1.4-1.4v-5.3c-0.4-0.6-0.8-1-1.3-1.2s-1-0.4-1.6-0.4s-1.1,0.1-1.5,0.3c-0.4,0.2-0.8,0.5-1.1,0.9
			c-0.3,0.4-0.5,0.9-0.7,1.4s-0.2,1.1-0.2,1.8c0,1.5,0.3,2.6,0.8,3.3C271.9,322.6,272.7,323,273.7,323z"/>
		<path fill="#231F20" d="M285,313.5c0.6,0,1.1,0.1,1.6,0.3c0.5,0.2,0.9,0.5,1.2,0.8c0.4,0.4,0.6,0.8,0.8,1.4
			c0.2,0.5,0.3,1.2,0.3,1.9c0,0.1,0,0.2-0.1,0.3c0,0.1-0.1,0.1-0.2,0.1h-7.2v0.2c0,0.7,0.1,1.4,0.3,2c0.2,0.6,0.4,1,0.7,1.4
			c0.3,0.4,0.7,0.7,1.2,0.9s1,0.3,1.5,0.3s0.9-0.1,1.3-0.2s0.7-0.2,0.9-0.4c0.3-0.1,0.4-0.3,0.6-0.4c0.1-0.1,0.3-0.2,0.3-0.2
			c0.1,0,0.2,0,0.2,0.1l0.3,0.3c-0.2,0.2-0.4,0.4-0.6,0.6c-0.3,0.2-0.6,0.3-0.9,0.4s-0.7,0.2-1,0.3c-0.3,0.1-0.7,0.1-1.1,0.1
			c-0.7,0-1.3-0.1-1.9-0.4c-0.6-0.2-1-0.6-1.4-1c-0.4-0.5-0.7-1-0.9-1.7c-0.2-0.7-0.3-1.4-0.3-2.3c0-0.7,0.1-1.4,0.3-2
			c0.2-0.6,0.5-1.1,0.9-1.6c0.4-0.4,0.9-0.8,1.4-1C283.7,313.6,284.3,313.5,285,313.5z M285,314.2c-0.5,0-1,0.1-1.4,0.2
			c-0.4,0.2-0.8,0.4-1.1,0.7c-0.3,0.3-0.5,0.7-0.7,1.1c-0.2,0.4-0.3,0.9-0.4,1.4h6.6c0-0.5-0.1-1-0.2-1.4c-0.1-0.4-0.4-0.8-0.6-1.1
			c-0.3-0.3-0.6-0.5-1-0.7C285.9,314.3,285.5,314.2,285,314.2z"/>
		<path fill="#231F20" d="M297,314.9c0,0.1-0.1,0.1-0.2,0.1s-0.2,0-0.3-0.1s-0.3-0.2-0.5-0.3c-0.2-0.1-0.4-0.2-0.7-0.3
			s-0.6-0.1-1-0.1s-0.7,0.1-1,0.2c-0.3,0.1-0.6,0.2-0.8,0.4c-0.2,0.2-0.4,0.4-0.5,0.6s-0.2,0.5-0.2,0.7c0,0.3,0.1,0.6,0.2,0.8
			c0.1,0.2,0.4,0.4,0.6,0.5c0.3,0.1,0.6,0.3,0.9,0.4c0.3,0.1,0.7,0.2,1,0.3s0.7,0.2,1,0.4c0.3,0.1,0.6,0.3,0.9,0.5s0.5,0.4,0.6,0.7
			c0.2,0.3,0.2,0.6,0.2,1c0,0.4-0.1,0.8-0.2,1.2s-0.4,0.7-0.7,1c-0.3,0.3-0.7,0.5-1.1,0.7c-0.4,0.2-0.9,0.2-1.5,0.2
			c-0.7,0-1.3-0.1-1.8-0.3c-0.5-0.2-1-0.5-1.4-0.9l0.2-0.3c0-0.1,0.1-0.1,0.1-0.1s0.1,0,0.2,0s0.2,0.1,0.3,0.2
			c0.1,0.1,0.3,0.2,0.5,0.3s0.5,0.2,0.8,0.3c0.3,0.1,0.7,0.2,1.1,0.2s0.8-0.1,1.1-0.2c0.3-0.1,0.6-0.3,0.8-0.5
			c0.2-0.2,0.4-0.4,0.5-0.7s0.2-0.6,0.2-0.9s-0.1-0.6-0.2-0.8c-0.2-0.2-0.4-0.4-0.6-0.6c-0.3-0.2-0.6-0.3-0.9-0.4
			c-0.3-0.1-0.7-0.2-1-0.3s-0.7-0.2-1-0.4c-0.3-0.1-0.6-0.3-0.9-0.5s-0.5-0.4-0.6-0.7c-0.2-0.3-0.2-0.6-0.2-1c0-0.4,0.1-0.7,0.2-1
			c0.2-0.3,0.4-0.6,0.7-0.9c0.3-0.2,0.6-0.4,1-0.6c0.4-0.1,0.9-0.2,1.4-0.2c0.6,0,1.1,0.1,1.6,0.3c0.5,0.2,0.9,0.4,1.3,0.8
			L297,314.9z"/>
		<path fill="#231F20" d="M301.8,310.2c0,0.1,0,0.2-0.1,0.3s-0.1,0.2-0.2,0.3c-0.1,0.1-0.2,0.1-0.3,0.2c-0.1,0-0.2,0.1-0.3,0.1
			c-0.1,0-0.2,0-0.3-0.1c-0.1,0-0.2-0.1-0.3-0.2c-0.1-0.1-0.1-0.2-0.2-0.3s-0.1-0.2-0.1-0.3c0-0.1,0-0.2,0.1-0.3s0.1-0.2,0.2-0.3
			c0.1-0.1,0.2-0.1,0.3-0.2c0.1,0,0.2-0.1,0.3-0.1c0.1,0,0.2,0,0.3,0.1c0.1,0,0.2,0.1,0.3,0.2c0.1,0.1,0.1,0.2,0.2,0.3
			S301.8,310.1,301.8,310.2z M301.4,313.6v10h-1v-10H301.4z"/>
		<path fill="#231F20" d="M308.2,313.5c0.4,0,0.8,0.1,1.2,0.2c0.4,0.1,0.7,0.3,1,0.5h2.6v0.3c0,0.2-0.1,0.3-0.3,0.3l-1.5,0.1
			c0.2,0.3,0.3,0.5,0.4,0.9c0.1,0.3,0.2,0.7,0.2,1c0,0.5-0.1,0.9-0.3,1.3c-0.2,0.4-0.4,0.7-0.7,1s-0.7,0.5-1.1,0.6
			c-0.4,0.2-0.9,0.2-1.4,0.2c-0.6,0-1.1-0.1-1.6-0.3c-0.3,0.2-0.5,0.4-0.7,0.6s-0.2,0.4-0.2,0.6c0,0.3,0.1,0.5,0.3,0.7
			c0.2,0.2,0.5,0.3,0.8,0.3s0.7,0.1,1.1,0.1s0.9,0,1.3,0.1s0.9,0.1,1.3,0.1c0.4,0.1,0.8,0.2,1.1,0.3c0.3,0.1,0.6,0.4,0.8,0.6
			s0.3,0.6,0.3,1.1c0,0.4-0.1,0.8-0.3,1.2c-0.2,0.4-0.5,0.7-0.9,1s-0.9,0.5-1.4,0.7c-0.6,0.2-1.2,0.3-1.9,0.3
			c-0.7,0-1.3-0.1-1.8-0.2c-0.5-0.1-1-0.3-1.3-0.6c-0.3-0.3-0.6-0.5-0.8-0.8s-0.3-0.7-0.3-1c0-0.5,0.2-1,0.5-1.4s0.8-0.7,1.4-0.9
			c-0.3-0.1-0.6-0.3-0.8-0.5s-0.3-0.5-0.3-0.9c0-0.1,0-0.3,0.1-0.4c0.1-0.2,0.1-0.3,0.2-0.5s0.2-0.3,0.4-0.4s0.3-0.3,0.5-0.4
			c-0.5-0.3-0.8-0.6-1.1-1.1c-0.3-0.5-0.4-1-0.4-1.6c0-0.5,0.1-0.9,0.3-1.3c0.2-0.4,0.4-0.7,0.7-1c0.3-0.3,0.7-0.5,1.1-0.7
			C307.1,313.5,307.6,313.5,308.2,313.5z M311.9,324.3c0-0.3-0.1-0.6-0.2-0.8s-0.4-0.3-0.7-0.4c-0.3-0.1-0.6-0.2-0.9-0.2
			s-0.7-0.1-1.1-0.1s-0.8,0-1.2-0.1c-0.4-0.1-0.8-0.1-1.1-0.1c-0.3,0.1-0.5,0.2-0.7,0.3s-0.4,0.3-0.6,0.4c-0.2,0.2-0.3,0.3-0.4,0.5
			s-0.1,0.4-0.1,0.6c0,0.3,0.1,0.6,0.2,0.8c0.1,0.2,0.4,0.5,0.7,0.7c0.3,0.2,0.6,0.3,1.1,0.4s0.9,0.2,1.5,0.2c0.5,0,1-0.1,1.4-0.2
			c0.4-0.1,0.8-0.3,1.1-0.5c0.3-0.2,0.6-0.5,0.8-0.7C311.8,324.9,311.9,324.6,311.9,324.3z M308.2,319.2c0.4,0,0.8-0.1,1.1-0.2
			c0.3-0.1,0.6-0.3,0.8-0.5c0.2-0.2,0.4-0.5,0.5-0.8c0.1-0.3,0.2-0.6,0.2-1c0-0.4-0.1-0.7-0.2-1c-0.1-0.3-0.3-0.6-0.5-0.8
			s-0.5-0.4-0.8-0.5s-0.7-0.2-1.1-0.2s-0.8,0.1-1.1,0.2c-0.3,0.1-0.6,0.3-0.8,0.5c-0.2,0.2-0.4,0.5-0.5,0.8c-0.1,0.3-0.2,0.7-0.2,1
			c0,0.3,0.1,0.7,0.2,1c0.1,0.3,0.3,0.6,0.5,0.8s0.5,0.4,0.8,0.5S307.7,319.2,308.2,319.2z"/>
		<path fill="#231F20" d="M315,323.6v-10h0.5c0.2,0,0.3,0.1,0.3,0.3l0.1,1.5c0.5-0.6,1-1,1.6-1.4c0.6-0.4,1.3-0.5,2-0.5
			c0.5,0,1,0.1,1.4,0.3s0.8,0.4,1,0.8c0.3,0.3,0.5,0.7,0.6,1.2s0.2,1,0.2,1.6v6.4h-1v-6.4c0-0.9-0.2-1.7-0.6-2.2s-1.1-0.8-2-0.8
			c-0.7,0-1.3,0.2-1.8,0.5s-1.1,0.8-1.5,1.4v7.5H315V323.6z"/>
		<path fill="#231F20" d="M329.6,313.5c0.6,0,1.1,0.1,1.6,0.3c0.5,0.2,0.9,0.5,1.2,0.8c0.4,0.4,0.6,0.8,0.8,1.4
			c0.2,0.5,0.3,1.2,0.3,1.9c0,0.1,0,0.2-0.1,0.3c0,0.1-0.1,0.1-0.2,0.1H326v0.2c0,0.7,0.1,1.4,0.3,2c0.2,0.6,0.4,1,0.7,1.4
			c0.3,0.4,0.7,0.7,1.2,0.9s1,0.3,1.5,0.3s0.9-0.1,1.3-0.2s0.7-0.2,0.9-0.4c0.3-0.1,0.4-0.3,0.6-0.4c0.1-0.1,0.3-0.2,0.3-0.2
			c0.1,0,0.2,0,0.2,0.1l0.3,0.3c-0.2,0.2-0.4,0.4-0.6,0.6c-0.3,0.2-0.6,0.3-0.9,0.4s-0.7,0.2-1,0.3c-0.3,0.1-0.7,0.1-1.1,0.1
			c-0.7,0-1.3-0.1-1.9-0.4c-0.6-0.2-1-0.6-1.4-1c-0.4-0.5-0.7-1-0.9-1.7c-0.2-0.7-0.3-1.4-0.3-2.3c0-0.7,0.1-1.4,0.3-2
			c0.2-0.6,0.5-1.1,0.9-1.6c0.4-0.4,0.9-0.8,1.4-1C328.3,313.6,328.9,313.5,329.6,313.5z M329.6,314.2c-0.5,0-1,0.1-1.4,0.2
			c-0.4,0.2-0.8,0.4-1.1,0.7c-0.3,0.3-0.5,0.7-0.7,1.1c-0.2,0.4-0.3,0.9-0.4,1.4h6.6c0-0.5-0.1-1-0.2-1.4c-0.1-0.4-0.4-0.8-0.6-1.1
			c-0.3-0.3-0.6-0.5-1-0.7C330.5,314.3,330.1,314.2,329.6,314.2z"/>
		<path fill="#231F20" d="M336.1,323.6v-10h0.5c0.1,0,0.2,0,0.2,0.1s0.1,0.1,0.1,0.2l0.1,2.1c0.3-0.8,0.7-1.4,1.3-1.9
			c0.5-0.5,1.2-0.7,2-0.7c0.3,0,0.6,0,0.8,0.1s0.5,0.2,0.7,0.3l-0.1,0.7c0,0.1-0.1,0.2-0.2,0.2c0,0-0.1,0-0.2,0s-0.2-0.1-0.3-0.1
			c-0.1,0-0.2-0.1-0.4-0.1c-0.2,0-0.3,0-0.6,0c-0.8,0-1.4,0.2-1.9,0.7s-0.9,1.1-1.2,2v6.5h-0.8V323.6z"/>
		<path fill="#231F20" d="M349.5,314.9c0,0.1-0.1,0.1-0.2,0.1s-0.2,0-0.3-0.1s-0.3-0.2-0.5-0.3c-0.2-0.1-0.4-0.2-0.7-0.3
			s-0.6-0.1-1-0.1s-0.7,0.1-1,0.2c-0.3,0.1-0.6,0.2-0.8,0.4c-0.2,0.2-0.4,0.4-0.5,0.6s-0.2,0.5-0.2,0.7c0,0.3,0.1,0.6,0.2,0.8
			c0.1,0.2,0.4,0.4,0.6,0.5c0.3,0.1,0.6,0.3,0.9,0.4c0.3,0.1,0.7,0.2,1,0.3s0.7,0.2,1,0.4c0.3,0.1,0.6,0.3,0.9,0.5s0.5,0.4,0.6,0.7
			c0.2,0.3,0.2,0.6,0.2,1c0,0.4-0.1,0.8-0.2,1.2s-0.4,0.7-0.7,1c-0.3,0.3-0.7,0.5-1.1,0.7c-0.4,0.2-0.9,0.2-1.5,0.2
			c-0.7,0-1.3-0.1-1.8-0.3c-0.5-0.2-1-0.5-1.4-0.9l0.2-0.3c0-0.1,0.1-0.1,0.1-0.1s0.1,0,0.2,0s0.2,0.1,0.3,0.2
			c0.1,0.1,0.3,0.2,0.5,0.3s0.5,0.2,0.8,0.3c0.3,0.1,0.7,0.2,1.1,0.2s0.8-0.1,1.1-0.2c0.3-0.1,0.6-0.3,0.8-0.5
			c0.2-0.2,0.4-0.4,0.5-0.7s0.2-0.6,0.2-0.9s-0.1-0.6-0.2-0.8c-0.2-0.2-0.4-0.4-0.6-0.6c-0.3-0.2-0.6-0.3-0.9-0.4
			c-0.3-0.1-0.7-0.2-1-0.3s-0.7-0.2-1-0.4c-0.3-0.1-0.6-0.3-0.9-0.5s-0.5-0.4-0.6-0.7c-0.2-0.3-0.2-0.6-0.2-1c0-0.4,0.1-0.7,0.2-1
			c0.2-0.3,0.4-0.6,0.7-0.9c0.3-0.2,0.6-0.4,1-0.6c0.4-0.1,0.9-0.2,1.4-0.2c0.6,0,1.1,0.1,1.6,0.3c0.5,0.2,0.9,0.4,1.3,0.8
			L349.5,314.9z"/>
		<path fill="#231F20" d="M363.1,315C363.1,315,363,315,363.1,315c-0.1,0.1-0.2,0.1-0.2,0.1c-0.1,0-0.2,0-0.3-0.1
			c-0.1-0.1-0.3-0.2-0.5-0.3c-0.2-0.1-0.4-0.2-0.7-0.3c-0.3-0.1-0.6-0.1-1.1-0.1c-0.6,0-1.1,0.1-1.5,0.3c-0.4,0.2-0.8,0.5-1.1,0.9
			c-0.3,0.4-0.5,0.8-0.7,1.4c-0.2,0.5-0.2,1.1-0.2,1.8s0.1,1.3,0.2,1.9s0.4,1,0.7,1.4c0.3,0.4,0.7,0.7,1.1,0.8
			c0.4,0.1,0.9,0.3,1.4,0.3s0.9-0.1,1.2-0.2c0.3-0.1,0.6-0.2,0.8-0.4c0.2-0.1,0.4-0.3,0.5-0.4c0.1-0.1,0.2-0.2,0.3-0.2
			c0.1,0,0.2,0,0.2,0.1l0.3,0.3c-0.2,0.2-0.3,0.4-0.6,0.6c-0.2,0.2-0.5,0.3-0.8,0.5c-0.3,0.2-0.6,0.2-1,0.3
			c-0.3,0.1-0.7,0.1-1.1,0.1c-0.6,0-1.2-0.1-1.7-0.3c-0.5-0.2-1-0.6-1.4-1c-0.4-0.4-0.7-1-0.9-1.6c-0.2-0.6-0.3-1.4-0.3-2.2
			s0.1-1.5,0.3-2.1s0.5-1.2,0.9-1.6c0.4-0.5,0.9-0.8,1.4-1.1c0.6-0.3,1.2-0.4,1.9-0.4c0.6,0,1.2,0.1,1.7,0.3
			c0.5,0.2,0.9,0.5,1.3,0.8L363.1,315z"/>
		<path fill="#231F20" d="M372,323.6c-0.2,0-0.3-0.1-0.4-0.3l-0.1-1.3c-0.3,0.3-0.5,0.5-0.8,0.7c-0.3,0.2-0.6,0.4-0.8,0.5
			c-0.2,0.1-0.6,0.3-1,0.3c-0.3,0.1-0.7,0.1-1.1,0.1c-0.3,0-0.7,0-1-0.1s-0.6-0.3-0.9-0.5c-0.2-0.2-0.4-0.5-0.6-0.8
			c-0.2-0.3-0.2-0.7-0.2-1.2c0-0.4,0.1-0.8,0.4-1.2c0.2-0.4,0.6-0.7,1.1-0.9c0.5-0.3,1.2-0.5,2-0.6c0.8-0.2,1.8-0.3,2.9-0.3v-1
			c0-0.9-0.2-1.6-0.6-2.1s-1-0.7-1.8-0.7c-0.5,0-0.9,0.1-1.2,0.2c-0.3,0.1-0.6,0.3-0.9,0.4c-0.2,0.2-0.4,0.3-0.6,0.4
			c-0.1,0.1-0.3,0.2-0.4,0.2s-0.2-0.1-0.3-0.2l-0.2-0.3c0.5-0.5,1.1-0.9,1.6-1.2c0.6-0.3,1.2-0.4,2-0.4c0.5,0,1,0.1,1.4,0.3
			c0.4,0.2,0.7,0.4,1,0.7s0.5,0.7,0.6,1.2s0.2,1,0.2,1.5v6.5H372V323.6z M368,323.1c0.4,0,0.7,0,1.1-0.1s0.6-0.2,0.9-0.4
			s0.5-0.3,0.8-0.5c0.2-0.2,0.5-0.4,0.7-0.7v-2.6c-0.9,0-1.8,0.1-2.5,0.2c-0.7,0.1-1.2,0.3-1.7,0.5c-0.4,0.2-0.8,0.4-1,0.7
			c-0.2,0.3-0.3,0.6-0.3,0.9c0,0.3,0.1,0.6,0.2,0.9c0.1,0.2,0.3,0.4,0.4,0.6c0.2,0.2,0.4,0.3,0.6,0.3
			C367.5,323,367.7,323.1,368,323.1z"/>
		<path fill="#231F20" d="M375.4,323.6v-10h0.5c0.2,0,0.3,0.1,0.3,0.3l0.1,1.5c0.5-0.6,1-1,1.6-1.4c0.6-0.4,1.3-0.5,2-0.5
			c0.5,0,1,0.1,1.4,0.3s0.8,0.4,1,0.8c0.3,0.3,0.5,0.7,0.6,1.2s0.2,1,0.2,1.6v6.4h-1v-6.4c0-0.9-0.2-1.7-0.6-2.2s-1.1-0.8-2-0.8
			c-0.7,0-1.3,0.2-1.8,0.5s-1.1,0.8-1.5,1.4v7.5h-0.8V323.6z"/>
		<path fill="#231F20" d="M147.2,347.6v-8.3l-0.7-0.1c-0.2-0.1-0.4-0.1-0.6-0.3c-0.1-0.1-0.2-0.3-0.2-0.5v-1.2h1.5v-0.6
			c0-0.6,0.1-1.1,0.3-1.6s0.5-0.9,0.8-1.2s0.8-0.6,1.3-0.8c0.5-0.2,1.1-0.3,1.8-0.3c0.3,0,0.5,0,0.7,0s0.4,0.1,0.7,0.1l-0.1,1.5
			c0,0.1,0,0.2-0.1,0.3c0,0.1-0.1,0.1-0.2,0.2c-0.1,0-0.2,0.1-0.2,0.1s-0.2,0-0.3,0c-0.3,0-0.5,0-0.7,0.1s-0.4,0.1-0.5,0.3
			c-0.1,0.1-0.3,0.3-0.3,0.5c-0.1,0.2-0.1,0.5-0.1,0.8v0.5h2.4v2.1h-2.3v8.2h-3.2V347.6z"/>
		<path fill="#231F20" d="M161.1,347.6c-0.3,0-0.5,0-0.7-0.1s-0.3-0.2-0.4-0.5l-0.2-0.6c-0.3,0.2-0.5,0.4-0.8,0.6s-0.5,0.3-0.7,0.4
			c-0.3,0.1-0.5,0.2-0.8,0.3c-0.3,0.1-0.6,0.1-1,0.1c-0.5,0-0.9-0.1-1.3-0.2c-0.4-0.1-0.7-0.3-1-0.5s-0.5-0.5-0.6-0.9
			s-0.2-0.8-0.2-1.2c0-0.4,0.1-0.7,0.3-1.1c0.2-0.4,0.5-0.7,1-1.1c0.5-0.4,1.1-0.6,1.9-0.8c0.8-0.2,1.8-0.3,3-0.3v-0.4
			c0-0.6-0.1-1.1-0.4-1.3c-0.3-0.3-0.6-0.4-1.1-0.4c-0.4,0-0.7,0-0.9,0.1s-0.4,0.2-0.6,0.3c-0.2,0.1-0.4,0.2-0.5,0.3
			c-0.2,0.1-0.4,0.1-0.6,0.1c-0.2,0-0.4-0.1-0.5-0.2c-0.1-0.1-0.3-0.2-0.4-0.4l-0.6-1c0.6-0.6,1.3-1,2.1-1.2
			c0.8-0.3,1.6-0.4,2.5-0.4c0.6,0,1.2,0.1,1.7,0.3c0.5,0.2,0.9,0.5,1.3,0.9c0.4,0.4,0.6,0.8,0.8,1.3s0.3,1,0.3,1.6v6.5h-1.6V347.6z
			 M157.6,345.8c0.4,0,0.8-0.1,1.1-0.2s0.6-0.4,0.9-0.7v-1.4c-0.6,0-1.1,0-1.5,0.1c-0.4,0.1-0.7,0.2-1,0.3c-0.2,0.1-0.4,0.3-0.5,0.4
			c-0.1,0.2-0.1,0.3-0.1,0.5c0,0.4,0.1,0.6,0.3,0.8C156.9,345.7,157.2,345.8,157.6,345.8z"/>
		<path fill="#231F20" d="M164.8,347.6v-15h3.1v5.7c0.4-0.4,0.8-0.7,1.3-0.9c0.5-0.2,1.1-0.3,1.7-0.3c0.5,0,1,0.1,1.5,0.4
			s0.9,0.6,1.2,1c0.3,0.5,0.6,1,0.8,1.7c0.2,0.7,0.3,1.4,0.3,2.2s-0.1,1.5-0.3,2.2c-0.2,0.7-0.5,1.2-0.9,1.7s-0.9,0.9-1.4,1.1
			c-0.5,0.3-1.1,0.4-1.8,0.4c-0.3,0-0.6,0-0.8-0.1s-0.5-0.1-0.7-0.3c-0.2-0.1-0.4-0.2-0.6-0.4c-0.2-0.2-0.3-0.3-0.5-0.5l-0.1,0.5
			c0,0.2-0.1,0.4-0.3,0.4c-0.1,0.1-0.3,0.1-0.5,0.1h-2V347.6z M169.8,339.4c-0.2,0-0.4,0-0.6,0.1s-0.4,0.1-0.5,0.2
			c-0.1,0.1-0.3,0.2-0.4,0.3c-0.1,0.1-0.3,0.3-0.4,0.4v4.4c0.2,0.3,0.5,0.4,0.8,0.5s0.6,0.2,0.9,0.2c0.3,0,0.6-0.1,0.8-0.2
			c0.2-0.1,0.4-0.3,0.6-0.5c0.2-0.3,0.3-0.6,0.4-1c0.1-0.4,0.2-0.9,0.2-1.5c0-0.5,0-1-0.1-1.4s-0.2-0.7-0.3-0.9s-0.3-0.4-0.5-0.5
			S170.1,339.4,169.8,339.4z"/>
		<path fill="#231F20" d="M176.4,347.6v-10.4h1.8c0.2,0,0.3,0,0.4,0c0.1,0,0.2,0.1,0.3,0.1s0.1,0.1,0.2,0.2c0,0.1,0.1,0.2,0.1,0.3
			l0.2,1c0.4-0.6,0.8-1.1,1.3-1.4s1-0.5,1.6-0.5c0.5,0,0.9,0.1,1.1,0.3l-0.4,2.3c0,0.1-0.1,0.2-0.2,0.3c-0.1,0.1-0.2,0.1-0.3,0.1
			s-0.2,0-0.4,0s-0.3,0-0.6,0c-0.8,0-1.5,0.4-1.9,1.3v6.4L176.4,347.6L176.4,347.6z"/>
		<path fill="#231F20" d="M188.2,334.4c0,0.2,0,0.5-0.2,0.7c-0.1,0.2-0.2,0.4-0.4,0.6c-0.2,0.2-0.4,0.3-0.6,0.4
			c-0.2,0.1-0.5,0.1-0.7,0.1c-0.3,0-0.5,0-0.7-0.1c-0.2-0.1-0.4-0.2-0.6-0.4c-0.2-0.2-0.3-0.4-0.4-0.6c-0.1-0.2-0.1-0.4-0.1-0.7
			s0-0.5,0.1-0.7c0.1-0.2,0.2-0.4,0.4-0.6c0.2-0.2,0.4-0.3,0.6-0.4c0.2-0.1,0.5-0.1,0.7-0.1c0.3,0,0.5,0,0.7,0.1
			c0.2,0.1,0.4,0.2,0.6,0.4c0.2,0.2,0.3,0.4,0.4,0.6C188.2,333.9,188.2,334.2,188.2,334.4z M187.9,337.3v10.4h-3.1v-10.4H187.9z"/>
		<path fill="#231F20" d="M197.9,339.7c-0.1,0.1-0.2,0.2-0.3,0.3s-0.2,0.1-0.4,0.1s-0.3,0-0.4-0.1c-0.1-0.1-0.3-0.2-0.4-0.2
			c-0.2-0.1-0.3-0.2-0.5-0.2c-0.2-0.1-0.5-0.1-0.8-0.1c-0.4,0-0.7,0.1-1,0.2c-0.3,0.1-0.5,0.3-0.7,0.6c-0.2,0.3-0.3,0.6-0.4,1
			c-0.1,0.4-0.1,0.8-0.1,1.3c0,1,0.2,1.8,0.6,2.3c0.4,0.5,0.9,0.8,1.6,0.8c0.4,0,0.6,0,0.9-0.1c0.2-0.1,0.4-0.2,0.5-0.3
			c0.1-0.1,0.3-0.2,0.4-0.3s0.3-0.1,0.5-0.1s0.4,0.1,0.6,0.3l0.9,1.1c-0.3,0.4-0.7,0.7-1,0.9c-0.3,0.2-0.7,0.4-1.1,0.5
			c-0.4,0.1-0.7,0.2-1.1,0.3c-0.4,0.1-0.7,0.1-1.1,0.1c-0.6,0-1.2-0.1-1.8-0.4c-0.6-0.2-1.1-0.6-1.5-1c-0.4-0.5-0.8-1-1-1.7
			c-0.3-0.7-0.4-1.4-0.4-2.3c0-0.7,0.1-1.4,0.3-2.1c0.2-0.7,0.6-1.2,1-1.7s1-0.9,1.6-1.1c0.6-0.3,1.4-0.4,2.2-0.4s1.5,0.1,2.1,0.4
			c0.6,0.3,1.2,0.6,1.7,1.1L197.9,339.7z"/>
		<path fill="#231F20" d="M207.3,347.6c-0.3,0-0.5,0-0.7-0.1s-0.3-0.2-0.4-0.5l-0.2-0.5c-0.3,0.2-0.5,0.4-0.8,0.6s-0.5,0.3-0.7,0.4
			c-0.3,0.1-0.5,0.2-0.8,0.3c-0.3,0.1-0.6,0.1-1,0.1c-0.5,0-0.9-0.1-1.3-0.2c-0.4-0.1-0.7-0.3-1-0.5s-0.5-0.5-0.6-0.9
			s-0.2-0.8-0.2-1.2c0-0.4,0.1-0.7,0.3-1.1c0.2-0.4,0.5-0.7,1-1.1c0.5-0.4,1.1-0.6,1.9-0.8c0.8-0.2,1.8-0.3,3-0.3v-0.4
			c0-0.6-0.1-1.1-0.4-1.3c-0.3-0.3-0.6-0.4-1.1-0.4c-0.4,0-0.7,0-0.9,0.1s-0.4,0.2-0.6,0.3c-0.2,0.1-0.4,0.2-0.5,0.3
			c-0.2,0.1-0.4,0.1-0.6,0.1c-0.2,0-0.4-0.1-0.5-0.2c-0.1-0.1-0.3-0.2-0.4-0.4l-0.6-1c0.6-0.6,1.3-1,2.1-1.2
			c0.8-0.3,1.6-0.4,2.5-0.4c0.6,0,1.2,0.1,1.7,0.3c0.5,0.2,0.9,0.5,1.3,0.9c0.4,0.4,0.6,0.8,0.8,1.3s0.3,1,0.3,1.6v6.5h-1.6V347.6z
			 M203.7,345.8c0.4,0,0.8-0.1,1.1-0.2s0.6-0.4,0.9-0.7v-1.4c-0.6,0-1.1,0-1.5,0.1c-0.4,0.1-0.7,0.2-1,0.3c-0.2,0.1-0.4,0.3-0.5,0.4
			c-0.1,0.2-0.1,0.3-0.1,0.5c0,0.4,0.1,0.6,0.3,0.8C203.1,345.7,203.4,345.8,203.7,345.8z"/>
		<path fill="#231F20" d="M214.6,347.8c-0.5,0-0.9-0.1-1.3-0.2c-0.4-0.1-0.7-0.3-1-0.6s-0.5-0.6-0.6-1s-0.2-0.8-0.2-1.3v-5.4h-0.9
			c-0.2,0-0.3-0.1-0.4-0.2c-0.1-0.1-0.2-0.3-0.2-0.5v-1.2l1.7-0.3l0.6-2.5c0.1-0.3,0.3-0.5,0.7-0.5h1.6v3h2.5v2.1h-2.5v5.2
			c0,0.2,0.1,0.4,0.2,0.6c0.1,0.2,0.3,0.2,0.5,0.2c0.1,0,0.2,0,0.3,0s0.1-0.1,0.2-0.1c0.1,0,0.1-0.1,0.2-0.1c0,0,0.1,0,0.2,0
			c0.1,0,0.2,0,0.2,0.1s0.1,0.1,0.2,0.2l0.9,1.5c-0.4,0.3-0.9,0.5-1.4,0.7S215.1,347.8,214.6,347.8z"/>
		<path fill="#231F20" d="M223.4,337.1c0.7,0,1.3,0.1,1.9,0.3c0.6,0.2,1.1,0.5,1.5,0.9c0.4,0.4,0.7,0.9,1,1.5c0.2,0.6,0.3,1.3,0.3,2
			c0,0.2,0,0.4,0,0.6c0,0.1-0.1,0.3-0.1,0.4c0,0.1-0.1,0.1-0.2,0.2c-0.1,0-0.2,0.1-0.3,0.1h-6c0.1,0.9,0.4,1.5,0.8,1.9
			c0.4,0.4,1,0.6,1.7,0.6c0.4,0,0.7,0,0.9-0.1c0.3-0.1,0.5-0.2,0.7-0.3c0.2-0.1,0.4-0.2,0.6-0.3c0.2-0.1,0.3-0.1,0.5-0.1
			s0.4,0.1,0.6,0.3l0.9,1.1c-0.3,0.4-0.7,0.7-1,0.9c-0.3,0.2-0.8,0.4-1.1,0.5c-0.3,0.1-0.8,0.2-1.2,0.3s-0.8,0.1-1.1,0.1
			c-0.7,0-1.4-0.1-2-0.4c-0.6-0.2-1.2-0.6-1.7-1.1s-0.9-1-1.1-1.7c-0.3-0.7-0.4-1.5-0.4-2.4c0-0.7,0.1-1.4,0.4-2
			c0.2-0.6,0.6-1.2,1-1.6c0.4-0.4,1-0.8,1.6-1.1C221.9,337.2,222.6,337.1,223.4,337.1z M223.5,339.2c-0.6,0-1.1,0.2-1.4,0.5
			c-0.3,0.3-0.6,0.8-0.7,1.5h3.9c0-0.2,0-0.5-0.1-0.7s-0.2-0.4-0.3-0.6c-0.1-0.2-0.3-0.3-0.6-0.4
			C224.1,339.3,223.8,339.2,223.5,339.2z"/>
		<path fill="#231F20" d="M234.2,347.6v-8.3l-0.7-0.1c-0.2-0.1-0.4-0.1-0.6-0.3c-0.1-0.1-0.2-0.3-0.2-0.5v-1.2h1.5v-0.6
			c0-0.6,0.1-1.1,0.3-1.6s0.5-0.9,0.8-1.2s0.8-0.6,1.3-0.8c0.5-0.2,1.1-0.3,1.8-0.3c0.3,0,0.5,0,0.7,0s0.4,0.1,0.7,0.1l-0.1,1.5
			c0,0.1,0,0.2-0.1,0.3c0,0.1-0.1,0.1-0.2,0.2c-0.1,0-0.2,0.1-0.2,0.1s-0.2,0-0.3,0c-0.3,0-0.5,0-0.7,0.1s-0.4,0.1-0.5,0.3
			c-0.1,0.1-0.3,0.3-0.3,0.5c-0.1,0.2-0.1,0.5-0.1,0.8v0.5h2.4v2.1h-2.3v8.2h-3.2V347.6z"/>
		<path fill="#231F20" d="M245.6,337.1c0.8,0,1.5,0.1,2.2,0.4c0.6,0.2,1.2,0.6,1.7,1.1s0.8,1,1.1,1.7c0.3,0.7,0.4,1.4,0.4,2.2
			s-0.1,1.6-0.4,2.2c-0.3,0.7-0.6,1.2-1.1,1.7s-1,0.8-1.7,1.1c-0.6,0.3-1.4,0.4-2.2,0.4s-1.5-0.1-2.2-0.4s-1.2-0.6-1.7-1.1
			s-0.8-1-1.1-1.7c-0.3-0.7-0.4-1.4-0.4-2.2s0.1-1.6,0.4-2.2c0.3-0.7,0.6-1.2,1.1-1.7s1-0.8,1.7-1.1S244.8,337.1,245.6,337.1z
			 M245.6,345.5c0.7,0,1.2-0.3,1.6-0.8c0.3-0.5,0.5-1.3,0.5-2.3s-0.2-1.8-0.5-2.3s-0.9-0.8-1.6-0.8c-0.7,0-1.3,0.3-1.6,0.8
			s-0.5,1.3-0.5,2.3s0.2,1.8,0.5,2.3S244.9,345.5,245.6,345.5z"/>
		<path fill="#231F20" d="M252.6,347.6v-10.4h1.8c0.2,0,0.3,0,0.4,0c0.1,0,0.2,0.1,0.3,0.1s0.1,0.1,0.2,0.2c0,0.1,0.1,0.2,0.1,0.3
			l0.2,1c0.4-0.6,0.8-1.1,1.3-1.4s1-0.5,1.6-0.5c0.5,0,0.9,0.1,1.1,0.3l-0.4,2.3c0,0.1-0.1,0.2-0.2,0.3c-0.1,0.1-0.2,0.1-0.3,0.1
			c-0.1,0-0.2,0-0.4,0c-0.2,0-0.3,0-0.6,0c-0.8,0-1.5,0.4-1.9,1.3v6.4L252.6,347.6L252.6,347.6z"/>
		<path fill="#231F20" d="M268,332.6v15h-3.1v-15H268z"/>
		<path fill="#231F20" d="M275.1,337.1c0.8,0,1.5,0.1,2.2,0.4c0.6,0.2,1.2,0.6,1.7,1.1s0.8,1,1.1,1.7c0.3,0.7,0.4,1.4,0.4,2.2
			s-0.1,1.6-0.4,2.2c-0.3,0.7-0.6,1.2-1.1,1.7s-1,0.8-1.7,1.1c-0.6,0.3-1.4,0.4-2.2,0.4c-0.8,0-1.5-0.1-2.2-0.4s-1.2-0.6-1.7-1.1
			s-0.8-1-1.1-1.7c-0.3-0.7-0.4-1.4-0.4-2.2s0.1-1.6,0.4-2.2c0.3-0.7,0.6-1.2,1.1-1.7s1-0.8,1.7-1.1S274.3,337.1,275.1,337.1z
			 M275.1,345.5c0.7,0,1.2-0.3,1.6-0.8c0.3-0.5,0.5-1.3,0.5-2.3s-0.2-1.8-0.5-2.3s-0.9-0.8-1.6-0.8s-1.3,0.3-1.6,0.8
			s-0.5,1.3-0.5,2.3s0.2,1.8,0.5,2.3S274.4,345.5,275.1,345.5z"/>
		<path fill="#231F20" d="M280.9,337.3h2.5c0.2,0,0.4,0.1,0.6,0.2s0.3,0.2,0.3,0.4l1,4.7c0.1,0.4,0.2,0.7,0.2,1
			c0.1,0.3,0.1,0.7,0.2,1c0.1-0.3,0.2-0.7,0.3-1c0.1-0.3,0.2-0.7,0.3-1l1.3-4.7c0-0.2,0.1-0.3,0.3-0.4s0.3-0.2,0.5-0.2h1.4
			c0.2,0,0.4,0.1,0.6,0.2s0.3,0.2,0.3,0.4l1.2,4.7c0.1,0.4,0.2,0.7,0.3,1c0.1,0.3,0.2,0.7,0.3,1c0.1-0.3,0.1-0.7,0.2-1
			c0.1-0.3,0.2-0.7,0.2-1l1.1-4.7c0-0.2,0.1-0.3,0.3-0.4s0.3-0.2,0.5-0.2h2.4l-3.2,10.4h-2.5c-0.1,0-0.2,0-0.3-0.1
			c-0.1-0.1-0.2-0.2-0.2-0.4l-1.5-5.2c-0.1-0.2-0.1-0.5-0.2-0.7c-0.1-0.2-0.1-0.5-0.2-0.7c0,0.2-0.1,0.5-0.2,0.7
			c-0.1,0.2-0.1,0.5-0.2,0.7l-1.5,5.2c-0.1,0.3-0.3,0.5-0.7,0.5h-2.4L280.9,337.3z"/>
		<path fill="#231F20" d="M309.7,339.7c-0.1,0.1-0.2,0.2-0.3,0.3s-0.2,0.1-0.4,0.1c-0.2,0-0.3,0-0.4-0.1s-0.3-0.2-0.4-0.2
			c-0.2-0.1-0.3-0.2-0.5-0.2c-0.2-0.1-0.5-0.1-0.8-0.1c-0.4,0-0.7,0.1-1,0.2c-0.3,0.1-0.5,0.3-0.7,0.6c-0.2,0.3-0.3,0.6-0.4,1
			c-0.1,0.4-0.1,0.8-0.1,1.3c0,1,0.2,1.8,0.6,2.3s0.9,0.8,1.6,0.8c0.4,0,0.6,0,0.9-0.1c0.2-0.1,0.4-0.2,0.5-0.3
			c0.1-0.1,0.3-0.2,0.4-0.3s0.3-0.1,0.5-0.1s0.4,0.1,0.6,0.3l0.9,1.1c-0.3,0.4-0.7,0.7-1,0.9c-0.3,0.2-0.7,0.4-1.1,0.5
			c-0.4,0.1-0.7,0.2-1.1,0.3s-0.7,0.1-1.1,0.1c-0.6,0-1.2-0.1-1.8-0.4c-0.6-0.2-1.1-0.6-1.5-1c-0.4-0.5-0.8-1-1-1.7
			c-0.3-0.7-0.4-1.4-0.4-2.3c0-0.7,0.1-1.4,0.3-2.1c0.2-0.7,0.6-1.2,1-1.7s1-0.9,1.6-1.1c0.6-0.3,1.4-0.4,2.2-0.4
			c0.8,0,1.5,0.1,2.1,0.4c0.6,0.3,1.2,0.6,1.7,1.1L309.7,339.7z"/>
		<path fill="#231F20" d="M316.6,337.1c0.8,0,1.5,0.1,2.2,0.4c0.6,0.2,1.2,0.6,1.7,1.1s0.8,1,1.1,1.7c0.3,0.7,0.4,1.4,0.4,2.2
			s-0.1,1.6-0.4,2.2c-0.3,0.7-0.6,1.2-1.1,1.7s-1,0.8-1.7,1.1c-0.6,0.3-1.4,0.4-2.2,0.4c-0.8,0-1.5-0.1-2.2-0.4s-1.2-0.6-1.7-1.1
			s-0.8-1-1.1-1.7c-0.3-0.7-0.4-1.4-0.4-2.2s0.1-1.6,0.4-2.2c0.3-0.7,0.6-1.2,1.1-1.7s1-0.8,1.7-1.1S315.8,337.1,316.6,337.1z
			 M316.6,345.5c0.7,0,1.2-0.3,1.6-0.8c0.3-0.5,0.5-1.3,0.5-2.3s-0.2-1.8-0.5-2.3s-0.9-0.8-1.6-0.8s-1.3,0.3-1.6,0.8
			s-0.5,1.3-0.5,2.3s0.2,1.8,0.5,2.3S315.9,345.5,316.6,345.5z"/>
		<path fill="#231F20" d="M330,339.5c-0.1,0.1-0.2,0.2-0.3,0.3c-0.1,0.1-0.2,0.1-0.3,0.1c-0.1,0-0.3,0-0.4-0.1
			c-0.1-0.1-0.3-0.1-0.5-0.2s-0.4-0.1-0.6-0.2c-0.2-0.1-0.5-0.1-0.7-0.1c-0.4,0-0.7,0.1-0.9,0.2c-0.2,0.2-0.3,0.4-0.3,0.6
			c0,0.2,0.1,0.4,0.2,0.5s0.3,0.2,0.5,0.3c0.2,0.1,0.5,0.2,0.8,0.3s0.6,0.2,0.9,0.3c0.3,0.1,0.6,0.2,0.9,0.4
			c0.3,0.1,0.5,0.3,0.8,0.5c0.2,0.2,0.4,0.5,0.5,0.8s0.2,0.7,0.2,1.1c0,0.5-0.1,1-0.3,1.4c-0.2,0.4-0.5,0.8-0.8,1.1
			c-0.4,0.3-0.8,0.6-1.4,0.7c-0.5,0.2-1.2,0.3-1.9,0.3c-0.4,0-0.7,0-1.1-0.1s-0.7-0.2-1-0.3c-0.3-0.1-0.6-0.2-0.9-0.4
			c-0.3-0.2-0.5-0.3-0.7-0.5l0.7-1.1c0.1-0.1,0.2-0.2,0.3-0.3s0.3-0.1,0.5-0.1s0.3,0,0.5,0.1s0.3,0.2,0.5,0.3
			c0.2,0.1,0.4,0.2,0.6,0.3s0.5,0.1,0.8,0.1c0.2,0,0.4,0,0.6-0.1s0.3-0.1,0.4-0.2c0.1-0.1,0.2-0.2,0.2-0.3s0.1-0.2,0.1-0.3
			c0-0.2-0.1-0.4-0.2-0.5c-0.1-0.1-0.3-0.2-0.6-0.3c-0.2-0.1-0.5-0.2-0.8-0.3c-0.3-0.1-0.6-0.2-0.9-0.3s-0.6-0.2-0.9-0.4
			s-0.5-0.3-0.8-0.6c-0.2-0.2-0.4-0.5-0.6-0.8c-0.1-0.3-0.2-0.7-0.2-1.2c0-0.4,0.1-0.9,0.3-1.3c0.2-0.4,0.4-0.7,0.8-1
			c0.3-0.3,0.8-0.5,1.3-0.7s1.1-0.3,1.8-0.3c0.4,0,0.7,0,1.1,0.1c0.4,0.1,0.7,0.2,1,0.3s0.6,0.3,0.8,0.4s0.5,0.3,0.7,0.5L330,339.5z
			"/>
		<path fill="#231F20" d="M336.1,347.8c-0.5,0-0.9-0.1-1.3-0.2s-0.7-0.3-1-0.6s-0.5-0.6-0.6-1s-0.2-0.8-0.2-1.3v-5.4h-0.9
			c-0.2,0-0.3-0.1-0.4-0.2s-0.2-0.3-0.2-0.5v-1.2l1.7-0.3l0.6-2.5c0.1-0.3,0.3-0.5,0.7-0.5h1.6v3h2.5v2.1h-2.5v5.2
			c0,0.2,0.1,0.4,0.2,0.6s0.3,0.2,0.5,0.2c0.1,0,0.2,0,0.3,0s0.1-0.1,0.2-0.1s0.1-0.1,0.2-0.1c0,0,0.1,0,0.2,0s0.2,0,0.2,0.1
			s0.1,0.1,0.2,0.2l0.9,1.5c-0.4,0.3-0.9,0.5-1.4,0.7C337.1,347.7,336.6,347.8,336.1,347.8z"/>
		<path fill="#231F20" d="M352.2,347.6c-0.2,0-0.3-0.1-0.4-0.3l-0.1-1.3c-0.3,0.3-0.5,0.5-0.8,0.7c-0.3,0.2-0.6,0.4-0.8,0.5
			c-0.2,0.1-0.6,0.3-1,0.3c-0.3,0.1-0.7,0.1-1.1,0.1c-0.3,0-0.7,0-1-0.1s-0.6-0.3-0.9-0.5c-0.2-0.2-0.4-0.5-0.6-0.8
			c-0.2-0.3-0.2-0.7-0.2-1.2c0-0.4,0.1-0.8,0.4-1.2c0.2-0.4,0.6-0.7,1.1-0.9c0.5-0.3,1.2-0.5,2-0.6c0.8-0.2,1.8-0.3,2.9-0.3v-1
			c0-0.9-0.2-1.6-0.6-2.1s-1-0.7-1.8-0.7c-0.5,0-0.9,0.1-1.2,0.2c-0.3,0.1-0.6,0.3-0.9,0.4c-0.2,0.2-0.4,0.3-0.6,0.4
			c-0.1,0.1-0.3,0.2-0.4,0.2s-0.2-0.1-0.3-0.2l-0.2-0.3c0.5-0.5,1.1-0.9,1.6-1.2c0.6-0.3,1.2-0.4,2-0.4c0.5,0,1,0.1,1.4,0.3
			c0.4,0.2,0.7,0.4,1,0.7s0.5,0.7,0.6,1.2s0.2,1,0.2,1.5v6.5h-0.3V347.6z M348.2,347.1c0.4,0,0.7,0,1.1-0.1s0.6-0.2,0.9-0.4
			s0.5-0.3,0.8-0.5c0.2-0.2,0.5-0.4,0.7-0.7v-2.6c-0.9,0-1.8,0.1-2.5,0.2c-0.7,0.1-1.2,0.3-1.7,0.5c-0.4,0.2-0.8,0.4-1,0.7
			c-0.2,0.3-0.3,0.6-0.3,0.9c0,0.3,0.1,0.6,0.2,0.9c0.1,0.2,0.3,0.4,0.4,0.6c0.2,0.2,0.4,0.3,0.6,0.3
			C347.7,347.1,347.9,347.1,348.2,347.1z"/>
		<path fill="#231F20" d="M355.6,347.6v-10h0.5c0.2,0,0.3,0.1,0.3,0.3l0.1,1.5c0.5-0.6,1-1,1.6-1.4c0.6-0.4,1.3-0.5,2-0.5
			c0.5,0,1,0.1,1.4,0.3s0.8,0.4,1,0.8c0.3,0.3,0.5,0.7,0.6,1.2s0.2,1,0.2,1.6v6.4h-1v-6.4c0-0.9-0.2-1.7-0.6-2.2s-1.1-0.8-2-0.8
			c-0.7,0-1.3,0.2-1.8,0.5s-1.1,0.8-1.5,1.4v7.5h-0.8V347.6z"/>
		<path fill="#231F20" d="M373.5,347.6c-0.2,0-0.3-0.1-0.3-0.3l-0.1-1.6c-0.4,0.6-1,1.1-1.5,1.4c-0.6,0.4-1.3,0.5-2,0.5
			c-1.2,0-2.2-0.4-2.9-1.3s-1-2.1-1-3.8c0-0.7,0.1-1.4,0.3-2c0.2-0.6,0.5-1.2,0.8-1.6c0.3-0.4,0.8-0.8,1.4-1.1
			c0.5-0.3,1.2-0.4,1.9-0.4c0.7,0,1.3,0.1,1.8,0.4s0.9,0.6,1.3,1.1V333h1v14.6L373.5,347.6L373.5,347.6z M369.8,347
			c0.7,0,1.3-0.2,1.8-0.5s1-0.8,1.4-1.4v-5.3c-0.4-0.6-0.8-1-1.3-1.2s-1-0.4-1.6-0.4s-1.1,0.1-1.5,0.3c-0.4,0.2-0.8,0.5-1.1,0.9
			c-0.3,0.4-0.5,0.9-0.7,1.4s-0.2,1.1-0.2,1.8c0,1.5,0.3,2.6,0.8,3.3C368,346.7,368.8,347,369.8,347z"/>
		<path fill="#231F20" d="M386.7,338.9c0,0.1-0.1,0.1-0.2,0.1s-0.2,0-0.3-0.1s-0.3-0.2-0.5-0.3c-0.2-0.1-0.4-0.2-0.7-0.3
			s-0.6-0.1-1-0.1s-0.7,0.1-1,0.2c-0.3,0.1-0.6,0.2-0.8,0.4c-0.2,0.2-0.4,0.4-0.5,0.6s-0.2,0.5-0.2,0.7c0,0.3,0.1,0.6,0.2,0.8
			c0.1,0.2,0.4,0.4,0.6,0.5c0.3,0.1,0.6,0.3,0.9,0.4c0.3,0.1,0.7,0.2,1,0.3s0.7,0.2,1,0.4c0.3,0.1,0.6,0.3,0.9,0.5s0.5,0.4,0.6,0.7
			c0.2,0.3,0.2,0.6,0.2,1c0,0.4-0.1,0.8-0.2,1.2s-0.4,0.7-0.7,1c-0.3,0.3-0.7,0.5-1.1,0.7c-0.4,0.2-0.9,0.2-1.5,0.2
			c-0.7,0-1.3-0.1-1.8-0.3c-0.5-0.2-1-0.5-1.4-0.9l0.2-0.3c0-0.1,0.1-0.1,0.1-0.1s0.1,0,0.2,0s0.2,0.1,0.3,0.2
			c0.1,0.1,0.3,0.2,0.5,0.3s0.5,0.2,0.8,0.3c0.3,0.1,0.7,0.2,1.1,0.2s0.8-0.1,1.1-0.2c0.3-0.1,0.6-0.3,0.8-0.5
			c0.2-0.2,0.4-0.4,0.5-0.7s0.2-0.6,0.2-0.9s-0.1-0.6-0.2-0.8c-0.2-0.2-0.4-0.4-0.6-0.6c-0.3-0.2-0.6-0.3-0.9-0.4
			c-0.3-0.1-0.7-0.2-1-0.3s-0.7-0.2-1-0.4c-0.3-0.1-0.6-0.3-0.9-0.5s-0.5-0.4-0.6-0.7c-0.2-0.3-0.2-0.6-0.2-1c0-0.4,0.1-0.7,0.2-1
			c0.2-0.3,0.4-0.6,0.7-0.9c0.3-0.2,0.6-0.4,1-0.6c0.4-0.1,0.9-0.2,1.4-0.2c0.6,0,1.1,0.1,1.6,0.3c0.5,0.2,0.9,0.4,1.3,0.8
			L386.7,338.9z"/>
		<path fill="#231F20" d="M393.6,337.5c0.6,0,1.1,0.1,1.6,0.3c0.5,0.2,0.9,0.5,1.2,0.8c0.4,0.4,0.6,0.8,0.8,1.4
			c0.2,0.5,0.3,1.2,0.3,1.9c0,0.1,0,0.2-0.1,0.3c0,0.1-0.1,0.1-0.2,0.1H390v0.2c0,0.7,0.1,1.4,0.3,2c0.2,0.6,0.4,1,0.7,1.4
			c0.3,0.4,0.7,0.7,1.2,0.9s1,0.3,1.5,0.3s0.9-0.1,1.3-0.2s0.7-0.2,0.9-0.4c0.3-0.1,0.4-0.3,0.6-0.4c0.1-0.1,0.3-0.2,0.3-0.2
			c0.1,0,0.2,0,0.2,0.1l0.3,0.3c-0.2,0.2-0.4,0.4-0.6,0.6c-0.3,0.2-0.6,0.3-0.9,0.4s-0.7,0.2-1,0.3c-0.3,0.1-0.7,0.1-1.1,0.1
			c-0.7,0-1.3-0.1-1.9-0.4c-0.6-0.2-1-0.6-1.4-1c-0.4-0.5-0.7-1-0.9-1.7c-0.2-0.7-0.3-1.4-0.3-2.3c0-0.7,0.1-1.4,0.3-2
			c0.2-0.6,0.5-1.1,0.9-1.6c0.4-0.4,0.9-0.8,1.4-1C392.3,337.6,392.9,337.5,393.6,337.5z M393.6,338.2c-0.5,0-1,0.1-1.4,0.2
			c-0.4,0.2-0.8,0.4-1.1,0.7c-0.3,0.3-0.5,0.7-0.7,1.1c-0.2,0.4-0.3,0.9-0.4,1.4h6.6c0-0.5-0.1-1-0.2-1.4c-0.1-0.4-0.4-0.8-0.6-1.1
			c-0.3-0.3-0.6-0.5-1-0.7C394.5,338.3,394.1,338.2,393.6,338.2z"/>
		<path fill="#231F20" d="M401.3,333.1v14.6h-1v-14.6H401.3z"/>
		<path fill="#231F20" d="M406.1,333.1v14.6h-1v-14.6H406.1z"/>
		<path fill="#231F20" d="M149.9,371.9c-0.7,0-1.2-0.2-1.6-0.6c-0.4-0.4-0.6-1-0.6-1.7v-6.8h-1.4c-0.1,0-0.1,0-0.2-0.1
			c0,0-0.1-0.1-0.1-0.2v-0.4l1.7-0.1l0.2-3.6c0-0.1,0-0.1,0.1-0.2c0,0,0.1-0.1,0.2-0.1h0.4v3.8h3.1v0.7h-3.1v6.8
			c0,0.3,0,0.5,0.1,0.7s0.2,0.4,0.3,0.5s0.3,0.2,0.4,0.3c0.2,0.1,0.3,0.1,0.5,0.1s0.4,0,0.6-0.1c0.2-0.1,0.3-0.1,0.5-0.2
			s0.2-0.2,0.3-0.2c0.1-0.1,0.1-0.1,0.2-0.1c0.1,0,0.1,0,0.2,0.1l0.3,0.4c-0.3,0.3-0.6,0.5-1,0.7
			C150.7,371.8,150.3,371.9,149.9,371.9z"/>
		<path fill="#231F20" d="M154.3,371.7v-14.6h1v6.3c0.5-0.6,1-1,1.6-1.4c0.6-0.3,1.3-0.5,2-0.5c0.5,0,1,0.1,1.4,0.3
			c0.4,0.2,0.8,0.4,1,0.8c0.3,0.3,0.5,0.7,0.6,1.2s0.2,1,0.2,1.6v6.4h-1v-6.4c0-0.9-0.2-1.7-0.6-2.2c-0.4-0.5-1.1-0.8-2-0.8
			c-0.7,0-1.3,0.2-1.8,0.5c-0.5,0.3-1.1,0.8-1.5,1.4v7.5L154.3,371.7L154.3,371.7z"/>
		<path fill="#231F20" d="M168.9,361.6c0.6,0,1.1,0.1,1.6,0.3c0.5,0.2,0.9,0.5,1.2,0.8c0.4,0.4,0.6,0.8,0.8,1.4
			c0.2,0.5,0.3,1.2,0.3,1.9c0,0.1,0,0.2-0.1,0.3c0,0.1-0.1,0.1-0.2,0.1h-7.2v0.2c0,0.7,0.1,1.4,0.3,2s0.4,1,0.7,1.4s0.7,0.7,1.2,0.9
			s1,0.3,1.5,0.3s0.9-0.1,1.3-0.2s0.7-0.2,0.9-0.4c0.3-0.1,0.4-0.3,0.6-0.4c0.1-0.1,0.3-0.2,0.3-0.2c0.1,0,0.2,0,0.2,0.1l0.3,0.3
			c-0.2,0.2-0.4,0.4-0.6,0.6c-0.3,0.2-0.6,0.3-0.9,0.4c-0.3,0.1-0.7,0.2-1,0.3c-0.3,0.1-0.7,0.1-1.1,0.1c-0.7,0-1.3-0.1-1.9-0.4
			c-0.6-0.2-1-0.6-1.4-1c-0.4-0.5-0.7-1-0.9-1.7s-0.3-1.4-0.3-2.3c0-0.7,0.1-1.4,0.3-2c0.2-0.6,0.5-1.1,0.9-1.6
			c0.4-0.4,0.9-0.8,1.4-1C167.5,361.7,168.2,361.6,168.9,361.6z M168.9,362.3c-0.5,0-1,0.1-1.4,0.2c-0.4,0.2-0.8,0.4-1.1,0.7
			c-0.3,0.3-0.5,0.7-0.7,1.1c-0.2,0.4-0.3,0.9-0.4,1.4h6.6c0-0.5-0.1-1-0.2-1.4c-0.1-0.4-0.4-0.8-0.6-1.1c-0.3-0.3-0.6-0.5-1-0.7
			C169.8,362.4,169.4,362.3,168.9,362.3z"/>
		<path fill="#231F20" d="M177,358.3c0,0.1,0,0.2-0.1,0.3s-0.1,0.2-0.2,0.3c-0.1,0.1-0.2,0.1-0.3,0.2c-0.1,0-0.2,0.1-0.3,0.1
			s-0.2,0-0.3-0.1c-0.1,0-0.2-0.1-0.3-0.2c-0.1-0.1-0.1-0.2-0.2-0.3s-0.1-0.2-0.1-0.3c0-0.1,0-0.2,0.1-0.3s0.1-0.2,0.2-0.3
			c0.1-0.1,0.2-0.1,0.3-0.2c0.1,0,0.2-0.1,0.3-0.1s0.2,0,0.3,0.1c0.1,0,0.2,0.1,0.3,0.2c0.1,0.1,0.1,0.2,0.2,0.3
			S177,358.2,177,358.3z M176.6,361.7v10h-1v-10H176.6z"/>
		<path fill="#231F20" d="M180.1,371.7v-10h0.5c0.1,0,0.2,0,0.2,0.1c0,0.1,0.1,0.1,0.1,0.2l0.1,2.1c0.3-0.8,0.7-1.4,1.3-1.9
			c0.5-0.5,1.2-0.7,2-0.7c0.3,0,0.6,0,0.8,0.1c0.2,0.1,0.5,0.2,0.7,0.3l-0.1,0.7c0,0.1-0.1,0.2-0.2,0.2c0,0-0.1,0-0.2,0
			c-0.1,0-0.2-0.1-0.3-0.1s-0.2-0.1-0.4-0.1s-0.3,0-0.6,0c-0.8,0-1.4,0.2-1.9,0.7s-0.9,1.1-1.2,2v6.5L180.1,371.7L180.1,371.7z"/>
		<path fill="#231F20" d="M198.5,363.1L198.5,363.1c-0.1,0.1-0.2,0.1-0.2,0.1c-0.1,0-0.2,0-0.3-0.1s-0.3-0.2-0.5-0.3
			c-0.2-0.1-0.4-0.2-0.7-0.3s-0.6-0.1-1.1-0.1c-0.6,0-1.1,0.1-1.5,0.3c-0.4,0.2-0.8,0.5-1.1,0.9c-0.3,0.4-0.5,0.8-0.7,1.4
			c-0.2,0.5-0.2,1.1-0.2,1.8s0.1,1.3,0.2,1.9s0.4,1,0.7,1.4s0.7,0.7,1.1,0.8c0.4,0.1,0.9,0.3,1.4,0.3s0.9-0.1,1.2-0.2
			c0.3-0.1,0.6-0.2,0.8-0.4c0.2-0.1,0.4-0.3,0.5-0.4c0.1-0.1,0.2-0.2,0.3-0.2s0.2,0,0.2,0.1l0.3,0.3c-0.2,0.2-0.3,0.4-0.6,0.6
			c-0.2,0.2-0.5,0.3-0.8,0.5c-0.3,0.2-0.6,0.2-1,0.3c-0.3,0.1-0.7,0.1-1.1,0.1c-0.6,0-1.2-0.1-1.7-0.3c-0.5-0.2-1-0.6-1.4-1
			c-0.4-0.4-0.7-1-0.9-1.6c-0.2-0.6-0.3-1.4-0.3-2.2s0.1-1.5,0.3-2.1s0.5-1.2,0.9-1.6c0.4-0.5,0.9-0.8,1.4-1.1
			c0.6-0.3,1.2-0.4,1.9-0.4c0.6,0,1.2,0.1,1.7,0.3c0.5,0.2,0.9,0.5,1.3,0.8L198.5,363.1z"/>
		<path fill="#231F20" d="M201.1,371.7v-10h0.5c0.1,0,0.2,0,0.2,0.1c0,0.1,0.1,0.1,0.1,0.2l0.1,2.1c0.3-0.8,0.7-1.4,1.3-1.9
			c0.5-0.5,1.2-0.7,2-0.7c0.3,0,0.6,0,0.8,0.1c0.2,0.1,0.5,0.2,0.7,0.3l-0.1,0.7c0,0.1-0.1,0.2-0.2,0.2c0,0-0.1,0-0.2,0
			c-0.1,0-0.2-0.1-0.3-0.1s-0.2-0.1-0.4-0.1s-0.3,0-0.6,0c-0.8,0-1.4,0.2-1.9,0.7s-0.9,1.1-1.2,2v6.5L201.1,371.7L201.1,371.7z"/>
		<path fill="#231F20" d="M212.8,361.6c0.6,0,1.1,0.1,1.6,0.3c0.5,0.2,0.9,0.5,1.2,0.8c0.4,0.4,0.6,0.8,0.8,1.4
			c0.2,0.5,0.3,1.2,0.3,1.9c0,0.1,0,0.2-0.1,0.3c0,0.1-0.1,0.1-0.2,0.1h-7.2v0.2c0,0.7,0.1,1.4,0.3,2s0.4,1,0.7,1.4s0.7,0.7,1.2,0.9
			s1,0.3,1.5,0.3s0.9-0.1,1.3-0.2s0.7-0.2,0.9-0.4c0.3-0.1,0.4-0.3,0.6-0.4c0.1-0.1,0.3-0.2,0.3-0.2c0.1,0,0.2,0,0.2,0.1l0.3,0.3
			c-0.2,0.2-0.4,0.4-0.6,0.6c-0.3,0.2-0.6,0.3-0.9,0.4c-0.3,0.1-0.7,0.2-1,0.3c-0.3,0.1-0.7,0.1-1.1,0.1c-0.7,0-1.3-0.1-1.9-0.4
			c-0.6-0.2-1-0.6-1.4-1c-0.4-0.5-0.7-1-0.9-1.7s-0.3-1.4-0.3-2.3c0-0.7,0.1-1.4,0.3-2c0.2-0.6,0.5-1.1,0.9-1.6
			c0.4-0.4,0.9-0.8,1.4-1C211.4,361.7,212.1,361.6,212.8,361.6z M212.8,362.3c-0.5,0-1,0.1-1.4,0.2c-0.4,0.2-0.8,0.4-1.1,0.7
			c-0.3,0.3-0.5,0.7-0.7,1.1c-0.2,0.4-0.3,0.9-0.4,1.4h6.6c0-0.5-0.1-1-0.2-1.4c-0.1-0.4-0.4-0.8-0.6-1.1c-0.3-0.3-0.6-0.5-1-0.7
			C213.7,362.4,213.3,362.3,212.8,362.3z"/>
		<path fill="#231F20" d="M225.6,371.7c-0.2,0-0.3-0.1-0.4-0.3l-0.1-1.3c-0.3,0.3-0.5,0.5-0.8,0.7s-0.6,0.4-0.8,0.5s-0.6,0.3-1,0.3
			c-0.3,0.1-0.7,0.1-1.1,0.1c-0.3,0-0.7,0-1-0.1c-0.3-0.1-0.6-0.3-0.9-0.5c-0.2-0.2-0.4-0.5-0.6-0.8c-0.2-0.3-0.2-0.7-0.2-1.2
			c0-0.4,0.1-0.8,0.4-1.2c0.2-0.4,0.6-0.7,1.1-0.9c0.5-0.3,1.2-0.5,2-0.6c0.8-0.2,1.8-0.3,2.9-0.3v-1c0-0.9-0.2-1.6-0.6-2.1
			s-1-0.7-1.8-0.7c-0.5,0-0.9,0.1-1.2,0.2c-0.3,0.1-0.6,0.3-0.9,0.4c-0.2,0.2-0.4,0.3-0.6,0.4c-0.1,0.1-0.3,0.2-0.4,0.2
			c-0.1,0-0.2-0.1-0.3-0.2l-0.2-0.3c0.5-0.5,1.1-0.9,1.6-1.2c0.6-0.3,1.2-0.4,2-0.4c0.5,0,1,0.1,1.4,0.3s0.7,0.4,1,0.7
			c0.3,0.3,0.5,0.7,0.6,1.2s0.2,1,0.2,1.5v6.5h-0.3V371.7z M221.6,371.2c0.4,0,0.7,0,1.1-0.1c0.4-0.1,0.6-0.2,0.9-0.4
			c0.3-0.2,0.5-0.3,0.8-0.5c0.2-0.2,0.5-0.4,0.7-0.7v-2.6c-0.9,0-1.8,0.1-2.5,0.2c-0.7,0.1-1.2,0.3-1.7,0.5c-0.4,0.2-0.8,0.4-1,0.7
			s-0.3,0.6-0.3,0.9c0,0.3,0.1,0.6,0.2,0.9c0.1,0.2,0.3,0.4,0.4,0.6c0.2,0.2,0.4,0.3,0.6,0.3C221.1,371.1,221.4,371.2,221.6,371.2z"
			/>
		<path fill="#231F20" d="M231.7,371.9c-0.7,0-1.2-0.2-1.6-0.6c-0.4-0.4-0.6-1-0.6-1.7v-6.8h-1.4c-0.1,0-0.1,0-0.2-0.1
			c0,0-0.1-0.1-0.1-0.2v-0.4l1.7-0.1l0.2-3.6c0-0.1,0-0.1,0.1-0.2c0,0,0.1-0.1,0.2-0.1h0.4v3.8h3.1v0.7h-3.1v6.8
			c0,0.3,0,0.5,0.1,0.7s0.2,0.4,0.3,0.5s0.3,0.2,0.4,0.3c0.2,0.1,0.3,0.1,0.5,0.1s0.4,0,0.6-0.1c0.2-0.1,0.3-0.1,0.5-0.2
			s0.2-0.2,0.3-0.2c0.1-0.1,0.1-0.1,0.2-0.1c0.1,0,0.1,0,0.2,0.1l0.3,0.4c-0.3,0.3-0.6,0.5-1,0.7
			C232.6,371.8,232.2,371.9,231.7,371.9z"/>
		<path fill="#231F20" d="M237.8,358.3c0,0.1,0,0.2-0.1,0.3s-0.1,0.2-0.2,0.3c-0.1,0.1-0.2,0.1-0.3,0.2c-0.1,0-0.2,0.1-0.3,0.1
			s-0.2,0-0.3-0.1c-0.1,0-0.2-0.1-0.3-0.2c-0.1-0.1-0.1-0.2-0.2-0.3s-0.1-0.2-0.1-0.3c0-0.1,0-0.2,0.1-0.3s0.1-0.2,0.2-0.3
			c0.1-0.1,0.2-0.1,0.3-0.2c0.1,0,0.2-0.1,0.3-0.1s0.2,0,0.3,0.1c0.1,0,0.2,0.1,0.3,0.2c0.1,0.1,0.1,0.2,0.2,0.3
			S237.8,358.2,237.8,358.3z M237.4,361.7v10h-1v-10H237.4z"/>
		<path fill="#231F20" d="M244.7,361.6c0.7,0,1.4,0.1,1.9,0.4c0.6,0.2,1,0.6,1.4,1s0.7,1,0.9,1.6s0.3,1.3,0.3,2.1s-0.1,1.5-0.3,2.1
			s-0.5,1.2-0.9,1.6s-0.9,0.8-1.4,1c-0.6,0.2-1.2,0.4-1.9,0.4s-1.4-0.1-1.9-0.4s-1-0.6-1.4-1s-0.7-1-0.9-1.6s-0.3-1.3-0.3-2.1
			s0.1-1.5,0.3-2.1s0.5-1.2,0.9-1.6c0.4-0.4,0.9-0.8,1.4-1C243.4,361.7,244,361.6,244.7,361.6z M244.7,371.1c0.6,0,1.1-0.1,1.6-0.3
			c0.4-0.2,0.8-0.5,1.1-0.9c0.3-0.4,0.5-0.8,0.7-1.4c0.1-0.5,0.2-1.1,0.2-1.8s-0.1-1.3-0.2-1.8c-0.1-0.5-0.4-1-0.7-1.4
			c-0.3-0.4-0.7-0.7-1.1-0.9c-0.4-0.2-1-0.3-1.6-0.3s-1.1,0.1-1.6,0.3c-0.4,0.2-0.8,0.5-1.1,0.9c-0.3,0.4-0.5,0.8-0.7,1.4
			c-0.2,0.5-0.2,1.1-0.2,1.8s0.1,1.3,0.2,1.8c0.1,0.5,0.4,1,0.7,1.4c0.3,0.4,0.7,0.7,1.1,0.9C243.6,371,244.1,371.1,244.7,371.1z"/>
		<path fill="#231F20" d="M251.8,371.7v-10h0.5c0.2,0,0.3,0.1,0.3,0.3l0.1,1.5c0.5-0.6,1-1,1.6-1.4s1.3-0.5,2-0.5
			c0.5,0,1,0.1,1.4,0.3c0.4,0.2,0.8,0.4,1,0.8c0.3,0.3,0.5,0.7,0.6,1.2s0.2,1,0.2,1.6v6.4h-1v-6.4c0-0.9-0.2-1.7-0.6-2.2
			s-1.1-0.8-2-0.8c-0.7,0-1.3,0.2-1.8,0.5c-0.5,0.3-1.1,0.8-1.5,1.4v7.5h-0.8V371.7z"/>
		<path fill="#231F20" d="M268.1,363c0,0.1-0.1,0.1-0.2,0.1s-0.2,0-0.3-0.1s-0.3-0.2-0.5-0.3c-0.2-0.1-0.4-0.2-0.7-0.3
			s-0.6-0.1-1-0.1s-0.7,0.1-1,0.2c-0.3,0.1-0.6,0.2-0.8,0.4c-0.2,0.2-0.4,0.4-0.5,0.6c-0.1,0.2-0.2,0.5-0.2,0.7
			c0,0.3,0.1,0.6,0.2,0.8c0.1,0.2,0.4,0.4,0.6,0.5c0.3,0.1,0.6,0.3,0.9,0.4c0.3,0.1,0.7,0.2,1,0.3s0.7,0.2,1,0.4
			c0.3,0.1,0.6,0.3,0.9,0.5s0.5,0.4,0.6,0.7c0.2,0.3,0.2,0.6,0.2,1c0,0.4-0.1,0.8-0.2,1.2s-0.4,0.7-0.7,1c-0.3,0.3-0.7,0.5-1.1,0.7
			c-0.4,0.2-0.9,0.2-1.5,0.2c-0.7,0-1.3-0.1-1.8-0.3c-0.5-0.2-1-0.5-1.4-0.9l0.2-0.3c0-0.1,0.1-0.1,0.1-0.1s0.1,0,0.2,0
			s0.2,0.1,0.3,0.2c0.1,0.1,0.3,0.2,0.5,0.3s0.5,0.2,0.8,0.3c0.3,0.1,0.7,0.2,1.1,0.2s0.8-0.1,1.1-0.2c0.3-0.1,0.6-0.3,0.8-0.5
			c0.2-0.2,0.4-0.4,0.5-0.7s0.2-0.6,0.2-0.9c0-0.3-0.1-0.6-0.2-0.8c-0.2-0.2-0.4-0.4-0.6-0.6c-0.3-0.2-0.6-0.3-0.9-0.4
			c-0.3-0.1-0.7-0.2-1-0.3s-0.7-0.2-1-0.4c-0.3-0.1-0.6-0.3-0.9-0.5s-0.5-0.4-0.6-0.7c-0.2-0.3-0.2-0.6-0.2-1c0-0.4,0.1-0.7,0.2-1
			c0.2-0.3,0.4-0.6,0.7-0.9c0.3-0.2,0.6-0.4,1-0.6c0.4-0.1,0.9-0.2,1.4-0.2c0.6,0,1.1,0.1,1.6,0.3c0.5,0.2,0.9,0.4,1.3,0.8
			L268.1,363z"/>
		<path fill="#231F20" d="M279.4,361.1c0.4,0,0.9,0,1.2,0.1c0.4,0.1,0.8,0.2,1.1,0.4h3.1v1.1c0,0.2,0,0.3-0.1,0.4s-0.3,0.2-0.5,0.2
			l-0.8,0.2c0.1,0.3,0.1,0.6,0.1,0.9c0,0.5-0.1,1-0.3,1.4c-0.2,0.4-0.5,0.8-0.9,1.1s-0.8,0.5-1.3,0.7c-0.5,0.2-1.1,0.2-1.7,0.2
			c-0.3,0-0.6,0-0.9-0.1c-0.2,0.1-0.3,0.3-0.3,0.5s0.1,0.3,0.3,0.4c0.2,0.1,0.4,0.1,0.7,0.2c0.3,0.1,0.6,0,1,0s0.8,0,1.2,0.1
			c0.4,0,0.8,0.1,1.2,0.2c0.4,0.1,0.7,0.2,1,0.4s0.5,0.5,0.7,0.8c0.2,0.3,0.3,0.7,0.3,1.2s-0.1,0.9-0.3,1.4c-0.2,0.4-0.6,0.8-1,1.2
			c-0.4,0.3-1,0.6-1.6,0.8s-1.4,0.3-2.2,0.3c-0.8,0-1.5-0.1-2.1-0.2c-0.6-0.2-1.1-0.4-1.5-0.6s-0.7-0.5-0.9-0.9
			c-0.2-0.3-0.3-0.7-0.3-1c0-0.5,0.1-0.9,0.4-1.2c0.3-0.3,0.7-0.6,1.2-0.7c-0.2-0.2-0.4-0.4-0.6-0.6c-0.1-0.2-0.2-0.5-0.2-0.9
			c0-0.2,0-0.3,0.1-0.5s0.1-0.3,0.2-0.5s0.3-0.3,0.4-0.5c0.2-0.1,0.4-0.3,0.6-0.4c-0.5-0.3-1-0.7-1.3-1.1c-0.3-0.5-0.5-1-0.5-1.7
			c0-0.5,0.1-1,0.3-1.4c0.2-0.4,0.5-0.8,0.9-1.1c0.4-0.3,0.8-0.5,1.4-0.7C278.3,361.2,278.8,361.1,279.4,361.1z M281.7,372.1
			c0-0.2-0.1-0.3-0.2-0.4s-0.2-0.2-0.4-0.2s-0.4-0.1-0.6-0.1s-0.5,0-0.8,0s-0.6,0-0.9,0s-0.6,0-0.9-0.1c-0.2,0.1-0.4,0.3-0.5,0.4
			c-0.1,0.2-0.2,0.4-0.2,0.6c0,0.1,0,0.3,0.1,0.4c0.1,0.1,0.2,0.2,0.3,0.3c0.2,0.1,0.4,0.2,0.6,0.2s0.6,0.1,1,0.1s0.8,0,1.1-0.1
			c0.3-0.1,0.5-0.1,0.7-0.2c0.2-0.1,0.3-0.2,0.4-0.3C281.7,372.4,281.7,372.2,281.7,372.1z M279.4,366c0.5,0,0.9-0.1,1.1-0.4
			s0.3-0.6,0.3-1s-0.1-0.8-0.3-1c-0.2-0.2-0.6-0.4-1.1-0.4s-0.9,0.1-1.1,0.4c-0.2,0.2-0.3,0.6-0.3,1c0,0.2,0,0.4,0.1,0.6
			s0.1,0.3,0.3,0.4c0.1,0.1,0.3,0.2,0.5,0.3C279,365.9,279.2,366,279.4,366z"/>
		<path fill="#231F20" d="M289.5,356.7v15h-3.1v-15H289.5z"/>
		<path fill="#231F20" d="M296.6,361.1c0.8,0,1.5,0.1,2.2,0.4c0.6,0.2,1.2,0.6,1.7,1.1s0.8,1,1.1,1.7c0.3,0.7,0.4,1.4,0.4,2.2
			s-0.1,1.6-0.4,2.2c-0.3,0.7-0.6,1.2-1.1,1.7s-1,0.8-1.7,1.1c-0.6,0.3-1.4,0.4-2.2,0.4c-0.8,0-1.5-0.1-2.2-0.4s-1.2-0.6-1.7-1.1
			s-0.8-1-1.1-1.7c-0.3-0.7-0.4-1.4-0.4-2.2s0.1-1.6,0.4-2.2c0.3-0.7,0.6-1.2,1.1-1.7s1-0.8,1.7-1.1
			C295.1,361.3,295.8,361.1,296.6,361.1z M296.6,369.6c0.7,0,1.2-0.3,1.6-0.8c0.3-0.5,0.5-1.3,0.5-2.3s-0.2-1.8-0.5-2.3
			s-0.9-0.8-1.6-0.8s-1.3,0.3-1.6,0.8s-0.5,1.3-0.5,2.3s0.2,1.8,0.5,2.3S295.9,369.6,296.6,369.6z"/>
		<path fill="#231F20" d="M303.6,371.7v-15h3.1v5.7c0.4-0.4,0.8-0.7,1.3-0.9s1.1-0.3,1.7-0.3c0.5,0,1,0.1,1.5,0.4s0.9,0.6,1.2,1
			c0.3,0.5,0.6,1,0.8,1.7s0.3,1.4,0.3,2.2c0,0.8-0.1,1.5-0.3,2.2c-0.2,0.7-0.5,1.2-0.9,1.7s-0.9,0.9-1.4,1.1
			c-0.5,0.3-1.1,0.4-1.8,0.4c-0.3,0-0.6,0-0.8-0.1c-0.2-0.1-0.5-0.1-0.7-0.3c-0.2-0.1-0.4-0.2-0.6-0.4s-0.3-0.3-0.5-0.5l-0.1,0.5
			c0,0.2-0.1,0.4-0.3,0.4c-0.1,0.1-0.3,0.1-0.5,0.1h-2V371.7z M308.7,363.5c-0.2,0-0.4,0-0.6,0.1s-0.4,0.1-0.5,0.2
			c-0.1,0.1-0.3,0.2-0.4,0.3s-0.3,0.3-0.4,0.4v4.4c0.2,0.3,0.5,0.4,0.8,0.5s0.6,0.2,0.9,0.2s0.6-0.1,0.8-0.2
			c0.2-0.1,0.4-0.3,0.6-0.5c0.2-0.3,0.3-0.6,0.4-1s0.2-0.9,0.2-1.5c0-0.5,0-1-0.1-1.4s-0.2-0.7-0.3-0.9c-0.1-0.2-0.3-0.4-0.5-0.5
			S308.9,363.5,308.7,363.5z"/>
		<path fill="#231F20" d="M322.4,371.7c-0.3,0-0.5,0-0.7-0.1c-0.2-0.1-0.3-0.2-0.4-0.5l-0.2-0.6c-0.3,0.2-0.5,0.4-0.8,0.6
			s-0.5,0.3-0.7,0.4c-0.3,0.1-0.5,0.2-0.8,0.3s-0.6,0.1-1,0.1c-0.5,0-0.9-0.1-1.3-0.2c-0.4-0.1-0.7-0.3-1-0.5
			c-0.3-0.2-0.5-0.5-0.6-0.9c-0.1-0.4-0.2-0.8-0.2-1.2s0.1-0.7,0.3-1.1c0.2-0.4,0.5-0.7,1-1.1s1.1-0.6,1.9-0.8
			c0.8-0.2,1.8-0.3,3-0.3v-0.4c0-0.6-0.1-1.1-0.4-1.3c-0.3-0.3-0.6-0.4-1.1-0.4c-0.4,0-0.7,0-0.9,0.1c-0.2,0.1-0.4,0.2-0.6,0.3
			s-0.4,0.2-0.5,0.3c-0.2,0.1-0.4,0.1-0.6,0.1s-0.4-0.1-0.5-0.2s-0.3-0.2-0.4-0.4l-0.6-1c0.6-0.6,1.3-1,2.1-1.2
			c0.8-0.3,1.6-0.4,2.5-0.4c0.6,0,1.2,0.1,1.7,0.3s0.9,0.5,1.3,0.9s0.6,0.8,0.8,1.3c0.2,0.5,0.3,1,0.3,1.6v6.5h-1.6V371.7z
			 M318.8,369.8c0.4,0,0.8-0.1,1.1-0.2c0.3-0.1,0.6-0.4,0.9-0.7v-1.4c-0.6,0-1.1,0-1.5,0.1s-0.7,0.2-1,0.3c-0.2,0.1-0.4,0.3-0.5,0.4
			c-0.1,0.2-0.1,0.3-0.1,0.5c0,0.4,0.1,0.6,0.3,0.8C318.2,369.7,318.4,369.8,318.8,369.8z"/>
		<path fill="#231F20" d="M329.2,356.7v15h-3.1v-15H329.2z"/>
		<path fill="#231F20" d="M334.9,356.7v15h-3.1v-15H334.9z"/>
		<path fill="#231F20" d="M341.7,374.4c-0.1,0.2-0.2,0.4-0.3,0.5s-0.3,0.1-0.6,0.1h-2.3l2-4.2l-4.1-9.5h2.7c0.2,0,0.4,0.1,0.6,0.2
			c0.1,0.1,0.2,0.2,0.3,0.4l1.7,4.5c0.2,0.4,0.3,0.8,0.4,1.2c0.1-0.2,0.1-0.4,0.2-0.6s0.2-0.4,0.2-0.6l1.5-4.5
			c0.1-0.2,0.2-0.3,0.3-0.4c0.2-0.1,0.3-0.2,0.5-0.2h2.5L341.7,374.4z"/>
		<path fill="#231F20" d="M153.5,395.8c-0.2,0-0.3-0.1-0.4-0.3l-0.1-1.3c-0.3,0.3-0.5,0.5-0.8,0.7s-0.6,0.4-0.8,0.5s-0.6,0.3-1,0.3
			c-0.3,0.1-0.7,0.1-1.1,0.1c-0.3,0-0.7,0-1-0.1s-0.6-0.3-0.9-0.5c-0.2-0.2-0.4-0.5-0.6-0.8c-0.2-0.3-0.2-0.7-0.2-1.2
			c0-0.4,0.1-0.8,0.4-1.2c0.2-0.4,0.6-0.7,1.1-0.9c0.5-0.3,1.2-0.5,2-0.6c0.8-0.2,1.8-0.3,2.9-0.3v-1c0-0.9-0.2-1.6-0.6-2.1
			s-1-0.7-1.8-0.7c-0.5,0-0.9,0.1-1.2,0.2c-0.3,0.1-0.6,0.3-0.9,0.4c-0.2,0.2-0.4,0.3-0.6,0.4c-0.1,0.1-0.3,0.2-0.4,0.2
			c-0.1,0-0.2-0.1-0.3-0.2l-0.2-0.3c0.5-0.5,1.1-0.9,1.6-1.2c0.6-0.3,1.2-0.4,2-0.4c0.5,0,1,0.1,1.4,0.3s0.7,0.4,1,0.7
			c0.3,0.3,0.5,0.7,0.6,1.2s0.2,1,0.2,1.5v6.5h-0.3V395.8z M149.5,395.2c0.4,0,0.7,0,1.1-0.1s0.6-0.2,0.9-0.4s0.5-0.3,0.8-0.5
			c0.2-0.2,0.5-0.4,0.7-0.7v-2.6c-0.9,0-1.8,0.1-2.5,0.2s-1.2,0.3-1.7,0.5c-0.4,0.2-0.8,0.4-1,0.7c-0.2,0.3-0.3,0.6-0.3,0.9
			s0.1,0.6,0.2,0.9c0.1,0.2,0.3,0.4,0.4,0.6c0.2,0.2,0.4,0.3,0.6,0.3C149,395.2,149.2,395.2,149.5,395.2z"/>
		<path fill="#231F20" d="M159.6,395.9c-0.7,0-1.2-0.2-1.6-0.6c-0.4-0.4-0.6-1-0.6-1.7v-6.8H156c-0.1,0-0.1,0-0.2-0.1
			c0,0-0.1-0.1-0.1-0.2v-0.4l1.7-0.1l0.2-3.6c0-0.1,0-0.1,0.1-0.2c0,0,0.1-0.1,0.2-0.1h0.4v3.8h3.1v0.7h-3.1v6.8
			c0,0.3,0,0.5,0.1,0.7s0.2,0.4,0.3,0.5s0.3,0.2,0.4,0.3c0.2,0.1,0.3,0.1,0.5,0.1s0.4,0,0.6-0.1s0.3-0.1,0.5-0.2s0.2-0.2,0.3-0.2
			c0.1-0.1,0.1-0.1,0.2-0.1c0.1,0,0.1,0,0.2,0.1l0.3,0.4c-0.3,0.3-0.6,0.5-1,0.7C160.4,395.8,160,395.9,159.6,395.9z"/>
		<path fill="#231F20" d="M170.6,395.9c-0.7,0-1.2-0.2-1.6-0.6c-0.4-0.4-0.6-1-0.6-1.7v-6.8H167c-0.1,0-0.1,0-0.2-0.1
			c0,0-0.1-0.1-0.1-0.2v-0.4l1.7-0.1l0.2-3.6c0-0.1,0-0.1,0.1-0.2c0,0,0.1-0.1,0.2-0.1h0.4v3.8h3.1v0.7h-3.1v6.8
			c0,0.3,0,0.5,0.1,0.7s0.2,0.4,0.3,0.5s0.3,0.2,0.4,0.3c0.2,0.1,0.3,0.1,0.5,0.1s0.4,0,0.6-0.1s0.3-0.1,0.5-0.2s0.2-0.2,0.3-0.2
			c0.1-0.1,0.1-0.1,0.2-0.1c0.1,0,0.1,0,0.2,0.1l0.3,0.4c-0.3,0.3-0.6,0.5-1,0.7C171.4,395.8,171,395.9,170.6,395.9z"/>
		<path fill="#231F20" d="M175,395.8v-14.6h1v6.3c0.5-0.6,1-1,1.6-1.4c0.6-0.3,1.3-0.5,2-0.5c0.5,0,1,0.1,1.4,0.3s0.8,0.4,1,0.8
			c0.3,0.3,0.5,0.7,0.6,1.2s0.2,1,0.2,1.6v6.4h-1v-6.4c0-0.9-0.2-1.7-0.6-2.2c-0.4-0.5-1.1-0.8-2-0.8c-0.7,0-1.3,0.2-1.8,0.5
			s-1.1,0.8-1.5,1.4v7.5H175V395.8z"/>
		<path fill="#231F20" d="M189.6,385.6c0.6,0,1.1,0.1,1.6,0.3c0.5,0.2,0.9,0.5,1.2,0.8c0.4,0.4,0.6,0.8,0.8,1.4
			c0.2,0.5,0.3,1.2,0.3,1.9c0,0.1,0,0.2-0.1,0.3c0,0.1-0.1,0.1-0.2,0.1H186v0.2c0,0.7,0.1,1.4,0.3,2s0.4,1,0.7,1.4s0.7,0.7,1.2,0.9
			c0.5,0.2,1,0.3,1.5,0.3s0.9-0.1,1.3-0.2s0.7-0.2,0.9-0.4c0.3-0.1,0.4-0.3,0.6-0.4c0.1-0.1,0.3-0.2,0.3-0.2c0.1,0,0.2,0,0.2,0.1
			l0.3,0.3c-0.2,0.2-0.4,0.4-0.6,0.6c-0.3,0.2-0.6,0.3-0.9,0.4c-0.3,0.1-0.7,0.2-1,0.3s-0.7,0.1-1.1,0.1c-0.7,0-1.3-0.1-1.9-0.4
			c-0.6-0.2-1-0.6-1.4-1c-0.4-0.5-0.7-1-0.9-1.7s-0.3-1.4-0.3-2.3c0-0.7,0.1-1.4,0.3-2c0.2-0.6,0.5-1.1,0.9-1.6
			c0.4-0.4,0.9-0.8,1.4-1C188.3,385.7,188.9,385.6,189.6,385.6z M189.7,386.3c-0.5,0-1,0.1-1.4,0.2c-0.4,0.2-0.8,0.4-1.1,0.7
			c-0.3,0.3-0.5,0.7-0.7,1.1c-0.2,0.4-0.3,0.9-0.4,1.4h6.6c0-0.5-0.1-1-0.2-1.4c-0.1-0.4-0.4-0.8-0.6-1.1c-0.3-0.3-0.6-0.5-1-0.7
			C190.5,386.4,190.1,386.3,189.7,386.3z"/>
		<path fill="#231F20" d="M205.5,387c0,0.1-0.1,0.1-0.2,0.1c-0.1,0-0.2,0-0.3-0.1s-0.3-0.2-0.5-0.3c-0.2-0.1-0.4-0.2-0.7-0.3
			s-0.6-0.1-1-0.1s-0.7,0.1-1,0.2c-0.3,0.1-0.6,0.2-0.8,0.4c-0.2,0.2-0.4,0.4-0.5,0.6c-0.1,0.2-0.2,0.5-0.2,0.7
			c0,0.3,0.1,0.6,0.2,0.8c0.1,0.2,0.4,0.4,0.6,0.5c0.3,0.1,0.6,0.3,0.9,0.4c0.3,0.1,0.7,0.2,1,0.3s0.7,0.2,1,0.4
			c0.3,0.1,0.6,0.3,0.9,0.5c0.3,0.2,0.5,0.4,0.6,0.7c0.2,0.3,0.2,0.6,0.2,1s-0.1,0.8-0.2,1.2s-0.4,0.7-0.7,1s-0.7,0.5-1.1,0.7
			c-0.4,0.2-0.9,0.2-1.5,0.2c-0.7,0-1.3-0.1-1.8-0.3s-1-0.5-1.4-0.9l0.2-0.3c0-0.1,0.1-0.1,0.1-0.1s0.1,0,0.2,0
			c0.1,0,0.2,0.1,0.3,0.2s0.3,0.2,0.5,0.3s0.5,0.2,0.8,0.3s0.7,0.2,1.1,0.2c0.4,0,0.8-0.1,1.1-0.2s0.6-0.3,0.8-0.5s0.4-0.4,0.5-0.7
			c0.1-0.3,0.2-0.6,0.2-0.9s-0.1-0.6-0.2-0.8c-0.2-0.2-0.4-0.4-0.6-0.6c-0.3-0.2-0.6-0.3-0.9-0.4s-0.7-0.2-1-0.3s-0.7-0.2-1-0.4
			c-0.3-0.1-0.6-0.3-0.9-0.5s-0.5-0.4-0.6-0.7c-0.2-0.3-0.2-0.6-0.2-1c0-0.4,0.1-0.7,0.2-1c0.2-0.3,0.4-0.6,0.7-0.9
			c0.3-0.2,0.6-0.4,1-0.6c0.4-0.1,0.9-0.2,1.4-0.2c0.6,0,1.1,0.1,1.6,0.3c0.5,0.2,0.9,0.4,1.3,0.8L205.5,387z"/>
		<path fill="#231F20" d="M215,395.8c-0.2,0-0.3-0.1-0.4-0.3l-0.1-1.3c-0.3,0.3-0.5,0.5-0.8,0.7s-0.6,0.4-0.8,0.5s-0.6,0.3-1,0.3
			c-0.3,0.1-0.7,0.1-1.1,0.1c-0.3,0-0.7,0-1-0.1s-0.6-0.3-0.9-0.5c-0.2-0.2-0.4-0.5-0.6-0.8c-0.2-0.3-0.2-0.7-0.2-1.2
			c0-0.4,0.1-0.8,0.4-1.2c0.2-0.4,0.6-0.7,1.1-0.9c0.5-0.3,1.2-0.5,2-0.6c0.8-0.2,1.8-0.3,2.9-0.3v-1c0-0.9-0.2-1.6-0.6-2.1
			s-1-0.7-1.8-0.7c-0.5,0-0.9,0.1-1.2,0.2c-0.3,0.1-0.6,0.3-0.9,0.4c-0.2,0.2-0.4,0.3-0.6,0.4c-0.1,0.1-0.3,0.2-0.4,0.2
			c-0.1,0-0.2-0.1-0.3-0.2l-0.2-0.3c0.5-0.5,1.1-0.9,1.6-1.2c0.6-0.3,1.2-0.4,2-0.4c0.5,0,1,0.1,1.4,0.3s0.7,0.4,1,0.7
			c0.3,0.3,0.5,0.7,0.6,1.2s0.2,1,0.2,1.5v6.5H215V395.8z M211,395.2c0.4,0,0.7,0,1.1-0.1s0.6-0.2,0.9-0.4s0.5-0.3,0.8-0.5
			c0.2-0.2,0.5-0.4,0.7-0.7v-2.6c-0.9,0-1.8,0.1-2.5,0.2s-1.2,0.3-1.7,0.5c-0.4,0.2-0.8,0.4-1,0.7c-0.2,0.3-0.3,0.6-0.3,0.9
			s0.1,0.6,0.2,0.9c0.1,0.2,0.3,0.4,0.4,0.6c0.2,0.2,0.4,0.3,0.6,0.3C210.5,395.2,210.7,395.2,211,395.2z"/>
		<path fill="#231F20" d="M218.4,395.8v-10h0.5c0.2,0,0.3,0.1,0.3,0.3l0.1,1.4c0.2-0.3,0.4-0.5,0.6-0.8s0.5-0.4,0.7-0.6
			c0.3-0.2,0.5-0.3,0.8-0.4s0.6-0.1,0.9-0.1c0.7,0,1.3,0.2,1.7,0.6s0.7,1,0.9,1.8c0.1-0.4,0.3-0.8,0.5-1.1c0.2-0.3,0.5-0.5,0.7-0.7
			c0.3-0.2,0.6-0.3,0.9-0.4c0.3-0.1,0.7-0.1,1-0.1c0.5,0,0.9,0.1,1.3,0.2c0.4,0.1,0.7,0.4,1,0.7s0.5,0.7,0.6,1.2s0.2,1,0.2,1.6v6.4
			h-1v-6.4c0-1-0.2-1.7-0.6-2.2s-1-0.8-1.8-0.8c-0.3,0-0.7,0.1-1,0.2c-0.3,0.1-0.6,0.3-0.8,0.6c-0.2,0.3-0.4,0.6-0.6,0.9
			c-0.1,0.4-0.2,0.8-0.2,1.3v6.4h-1v-6.4c0-1-0.2-1.7-0.6-2.2c-0.4-0.5-1-0.8-1.7-0.8c-0.5,0-1,0.2-1.5,0.5s-0.9,0.8-1.2,1.3v7.5
			L218.4,395.8L218.4,395.8z"/>
		<path fill="#231F20" d="M238.1,385.6c0.6,0,1.1,0.1,1.6,0.3c0.5,0.2,0.9,0.5,1.2,0.8c0.4,0.4,0.6,0.8,0.8,1.4
			c0.2,0.5,0.3,1.2,0.3,1.9c0,0.1,0,0.2-0.1,0.3c0,0.1-0.1,0.1-0.2,0.1h-7.2v0.2c0,0.7,0.1,1.4,0.3,2s0.4,1,0.7,1.4s0.7,0.7,1.2,0.9
			c0.5,0.2,1,0.3,1.5,0.3s0.9-0.1,1.3-0.2s0.7-0.2,0.9-0.4c0.3-0.1,0.4-0.3,0.6-0.4c0.1-0.1,0.3-0.2,0.3-0.2c0.1,0,0.2,0,0.2,0.1
			l0.3,0.3c-0.2,0.2-0.4,0.4-0.6,0.6c-0.3,0.2-0.6,0.3-0.9,0.4c-0.3,0.1-0.7,0.2-1,0.3s-0.7,0.1-1.1,0.1c-0.7,0-1.3-0.1-1.9-0.4
			c-0.6-0.2-1-0.6-1.4-1c-0.4-0.5-0.7-1-0.9-1.7s-0.3-1.4-0.3-2.3c0-0.7,0.1-1.4,0.3-2c0.2-0.6,0.5-1.1,0.9-1.6
			c0.4-0.4,0.9-0.8,1.4-1C236.7,385.7,237.4,385.6,238.1,385.6z M238.1,386.3c-0.5,0-1,0.1-1.4,0.2c-0.4,0.2-0.8,0.4-1.1,0.7
			c-0.3,0.3-0.5,0.7-0.7,1.1c-0.2,0.4-0.3,0.9-0.4,1.4h6.6c0-0.5-0.1-1-0.2-1.4c-0.1-0.4-0.4-0.8-0.6-1.1c-0.3-0.3-0.6-0.5-1-0.7
			C239,386.4,238.5,386.3,238.1,386.3z"/>
		<path fill="#231F20" d="M251.1,395.9c-0.7,0-1.2-0.2-1.6-0.6c-0.4-0.4-0.6-1-0.6-1.7v-6.8h-1.4c-0.1,0-0.1,0-0.2-0.1
			c0,0-0.1-0.1-0.1-0.2v-0.4l1.7-0.1l0.2-3.6c0-0.1,0-0.1,0.1-0.2c0,0,0.1-0.1,0.2-0.1h0.4v3.8h3.1v0.7H250v6.8c0,0.3,0,0.5,0.1,0.7
			s0.2,0.4,0.3,0.5s0.3,0.2,0.4,0.3c0.2,0.1,0.3,0.1,0.5,0.1s0.4,0,0.6-0.1s0.3-0.1,0.5-0.2s0.2-0.2,0.3-0.2
			c0.1-0.1,0.1-0.1,0.2-0.1c0.1,0,0.1,0,0.2,0.1l0.3,0.4c-0.3,0.3-0.6,0.5-1,0.7C252,395.8,251.6,395.9,251.1,395.9z"/>
		<path fill="#231F20" d="M257.2,382.3c0,0.1,0,0.2-0.1,0.3s-0.1,0.2-0.2,0.3c-0.1,0.1-0.2,0.1-0.3,0.2c-0.1,0-0.2,0.1-0.3,0.1
			c-0.1,0-0.2,0-0.3-0.1c-0.1,0-0.2-0.1-0.3-0.2c-0.1-0.1-0.1-0.2-0.2-0.3s-0.1-0.2-0.1-0.3c0-0.1,0-0.2,0.1-0.3s0.1-0.2,0.2-0.3
			c0.1-0.1,0.2-0.1,0.3-0.2c0.1,0,0.2-0.1,0.3-0.1c0.1,0,0.2,0,0.3,0.1c0.1,0,0.2,0.1,0.3,0.2c0.1,0.1,0.1,0.2,0.2,0.3
			S257.2,382.2,257.2,382.3z M256.8,385.8v10h-1v-10H256.8L256.8,385.8z"/>
		<path fill="#231F20" d="M260.3,395.8v-10h0.5c0.2,0,0.3,0.1,0.3,0.3l0.1,1.4c0.2-0.3,0.4-0.5,0.6-0.8s0.5-0.4,0.7-0.6
			c0.3-0.2,0.5-0.3,0.8-0.4s0.6-0.1,0.9-0.1c0.7,0,1.3,0.2,1.7,0.6c0.4,0.4,0.7,1,0.9,1.8c0.1-0.4,0.3-0.8,0.5-1.1
			c0.2-0.3,0.5-0.5,0.7-0.7c0.3-0.2,0.6-0.3,0.9-0.4c0.3-0.1,0.7-0.1,1-0.1c0.5,0,0.9,0.1,1.3,0.2c0.4,0.1,0.7,0.4,1,0.7
			s0.5,0.7,0.6,1.2s0.2,1,0.2,1.6v6.4h-1v-6.4c0-1-0.2-1.7-0.6-2.2s-1-0.8-1.8-0.8c-0.3,0-0.7,0.1-1,0.2c-0.3,0.1-0.6,0.3-0.8,0.6
			c-0.2,0.3-0.4,0.6-0.6,0.9c-0.1,0.4-0.2,0.8-0.2,1.3v6.4h-1v-6.4c0-1-0.2-1.7-0.6-2.2s-1-0.8-1.7-0.8c-0.5,0-1,0.2-1.5,0.5
			s-0.9,0.8-1.2,1.3v7.5L260.3,395.8L260.3,395.8z"/>
		<path fill="#231F20" d="M280,385.6c0.6,0,1.1,0.1,1.6,0.3c0.5,0.2,0.9,0.5,1.2,0.8c0.4,0.4,0.6,0.8,0.8,1.4
			c0.2,0.5,0.3,1.2,0.3,1.9c0,0.1,0,0.2-0.1,0.3c0,0.1-0.1,0.1-0.2,0.1h-7.2v0.2c0,0.7,0.1,1.4,0.3,2c0.2,0.6,0.4,1,0.7,1.4
			c0.3,0.4,0.7,0.7,1.2,0.9c0.5,0.2,1,0.3,1.5,0.3s0.9-0.1,1.3-0.2s0.7-0.2,0.9-0.4c0.3-0.1,0.4-0.3,0.6-0.4
			c0.1-0.1,0.3-0.2,0.3-0.2c0.1,0,0.2,0,0.2,0.1l0.3,0.3c-0.2,0.2-0.4,0.4-0.6,0.6c-0.3,0.2-0.6,0.3-0.9,0.4s-0.7,0.2-1,0.3
			s-0.7,0.1-1.1,0.1c-0.7,0-1.3-0.1-1.9-0.4c-0.6-0.2-1-0.6-1.4-1c-0.4-0.5-0.7-1-0.9-1.7c-0.2-0.7-0.3-1.4-0.3-2.3
			c0-0.7,0.1-1.4,0.3-2c0.2-0.6,0.5-1.1,0.9-1.6c0.4-0.4,0.9-0.8,1.4-1C278.7,385.7,279.3,385.6,280,385.6z M280.1,386.3
			c-0.5,0-1,0.1-1.4,0.2c-0.4,0.2-0.8,0.4-1.1,0.7c-0.3,0.3-0.5,0.7-0.7,1.1c-0.2,0.4-0.3,0.9-0.4,1.4h6.6c0-0.5-0.1-1-0.2-1.4
			c-0.1-0.4-0.4-0.8-0.6-1.1c-0.3-0.3-0.6-0.5-1-0.7C280.9,386.4,280.5,386.3,280.1,386.3z"/>
	</g>
</g>
<line fill="none" x1="124.2" y1="308.3" x2="124.2" y2="396.6"/>
<g id="Layer_5" display="none">
</g>
</svg>
