<?xml version="1.0" encoding="utf-8"?>
<!-- Generator: Adobe Illustrator 18.0.0, SVG Export Plug-In . SVG Version: 6.00 Build 0)  -->
<!DOCTYPE svg PUBLIC "-//W3C//DTD SVG 1.1//EN" "http://www.w3.org/Graphics/SVG/1.1/DTD/svg11.dtd">
<svg version="1.1" xmlns="http://www.w3.org/2000/svg" xmlns:xlink="http://www.w3.org/1999/xlink" x="0px" y="0px"
	 viewBox="0 -48 800 531" enable-background="new 0 -48 800 531" xml:space="preserve">
<g id="_x32_">
	<g id="Layer_10">
		<rect y="-48" fill="#B3DCC2" width="800" height="531"/>
	</g>
	<path fill="#FFFFFF" d="M679.5,147c0,3-2.4,5.4-5.4,5.4H466.8c-3,0-5.4-2.4-5.4-5.4v-31c0-3,2.4-5.4,5.4-5.4h207.3
		c3,0,5.4,2.4,5.4,5.4V147z"/>
	<path fill="#A2A2A3" d="M639.2,202.5v-14.2h-91.3v14.5l-4,4v26.6l99.4,3.4v-30.1L639.2,202.5z M630.5,220.6l-11.2-14.7h-50.1
		l-13.4,14.7v-21.5l74.8,0V220.6z"/>
	<polygon fill="#FFFFFF" points="647.4,241.5 619.3,205.9 569.2,205.9 536.9,241.5 	"/>
	<polygon fill="#DBDAD9" points="647.4,241.5 619.3,205.9 569.2,205.9 536.9,241.5 	"/>
	<polyline fill="#FFFFFF" points="585.7,188.2 585.7,204.4 593.5,209.8 600.7,204.3 600.7,188.2 	"/>
	
		<polyline fill="none" stroke="#717070" stroke-width="2.769" stroke-linecap="round" stroke-linejoin="round" stroke-miterlimit="10" points="
		585.7,188.2 585.7,204.4 593.5,209.8 600.7,204.3 600.7,188.2 	"/>
	<polyline fill="#676767" points="540.5,264.9 540.5,283.8 536.9,287.7 536.9,296.9 561.3,296.9 566.3,290.4 618,290.8 623,297.3 
		647.4,297.3 647.4,288.1 643.8,284.2 643.8,265.2 	"/>
	<polygon fill="#A2A2A3" points="647.4,264.9 536.9,264.9 536.9,241.5 568.3,241.5 647.4,241.5 647.4,253.1 	"/>
	<path fill="#112029" d="M519.8,264.8c0,2.2,0,4.4,0,6.6c-3.1,0-6.3,0-9.4,0c-0.4,0-0.4-0.2-0.4-0.5v-6.3c0-0.3,0.1-0.6-0.1-0.8
		c-0.1-1-0.6-1.5-1.6-1.7c-0.6-0.1-1.3-0.1-1.9,0c-0.8,0.1-1.3,0.6-1.4,1.4c-0.1,0.3-0.1,0.6-0.1,0.9c0,2.3,0,4.6,0,6.9h-9.7
		c0-2.2,0-4.5,0-6.7c0-0.2,0-0.4,0-0.6c0-7.5,0-14.9,0-22.4c0-0.8,0.2-1.4,0.6-2c2.4-3.2,3.2-7,3.2-11c0.6-0.2,1.2-0.4,1.9-0.3
		c0,0.3,0.1,0.5,0.1,0.8c0.2,1.6,0.7,2.9,2,4c1.3,1.1,2.9,1.3,4.5,1.3c0.5,0,1.1,0,1.7-0.2c1.2-0.3,2.4-0.8,3.2-1.8
		c1.1-1.2,1.4-2.7,1.5-4.2c0.6,0.1,1.2,0.2,1.9,0.3c0,0.6,0,1.3,0.1,1.9c0.1,1.2,0.3,2.4,0.6,3.5c0.5,2,1.2,4,2.6,5.6
		c0.6,0.7,0.7,1.4,0.7,2.3c0,4.8,0,9.5,0,14.3C519.8,259.2,519.8,262,519.8,264.8"/>
	<path fill="#E0B495" d="M525.4,208c-0.2,0.7-0.3,1.4-0.5,2.2c-0.5-0.5-0.8-1.1-1.1-1.7c-1.2-2.2-2-4.6-2.5-7.1
		c-0.2-1.1-0.3-2.2-0.3-3.4c0-0.3,0-0.4-0.4-0.3c-3.1,0.9-2.4-8.4-5.6-7.8c-2.5,0.5-12.1,1.6-14.7,1.9c-1.4,0.2-4.5,1.6-5.9,1.7
		c-1.4,0.1-1.5,5.3-2.9,5.3c-2.6,0.1-1.6,2.2,0,2.4c0.4,0,1.8,0.4,1.7,0.8c-0.4,1.9-1,3.8-1.8,5.6c-0.4,0.9-0.8,1.8-1.5,2.6
		c-0.3-0.8-0.4-1.5-0.5-2.2c-1.1,0-1.5,0.4-1.5,1.5c0,0.8,1.1,1.9,1.3,2.7c0.2,0.9-0.3,1.5-0.4,2.5c0,0.6,0.6,1,1.3,0.9
		c0.3,0,0.4,0,0.5,0.3c0,0.1,0.1,0.3,0.1,0.4c0.8,3,2.2,5.5,4.6,7.4c1.7,1.4,3.7,2.2,5.8,2.8c0.2,0,0.4,0,0.5,0.3
		c0,0.4,0.1,0.9,0,1.3c0,0.2-0.4,0.1-0.6,0.2c-0.1,0-0.1,0.1-0.2,0.1c0,0.3,0.1,0.5,0.1,0.8c0.2,1.6,0.7,2.9,2,4
		c1.3,1.1,2.9,1.3,4.5,1.3c0.5,0,1.1,0,1.7-0.2c1.2-0.3,2.4-0.8,3.2-1.8c1.1-1.2,1.4-2.7,1.5-4.2c-0.1,0-0.3-0.1-0.4-0.1
		c-0.4,0-0.5-0.1-0.4-0.5c0-1,0-1,0.9-1.3c0.1,0,0.2-0.1,0.3-0.1c3-0.9,5.5-2.4,7.3-4.9c1.3-1.7,2-3.6,2.5-5.6
		c0.1-0.3,0.1-0.3,0.4-0.3c0.8,0.1,1.3-0.4,1.3-1.2c0-0.5-0.4-1.4-0.3-1.9c0.4-1.1,1.3-1.9,1.2-3.1
		C526.9,208.6,526.5,207.8,525.4,208z"/>
	<path fill="#74431F" d="M525.4,208c-0.2,0.7-0.3,1.4-0.5,2.2c-0.5-0.5-0.8-1.1-1.1-1.7c-1.2-2.2-2-4.6-2.5-7.1
		c-0.2-1.1-0.3-2.2-0.3-3.4c0-0.3,0-0.4-0.4-0.3c-3.1,0.9-2.7-6.6-5.9-6c-2.5,0.5-4.6,0.1-7.2,0.5c-1.4,0.2-3.8,3-5.2,3.1
		c-1.4,0.1-2.9-0.2-4.3-0.1c-0.5,0-1.9,0-2.4,0c-0.4,0-2.3,6.5-2.4,6.8c-0.4,1.9-1,3.8-1.8,5.6c-0.4,0.9-0.8,1.8-1.5,2.6
		c-0.3-0.8-0.4-1.5-0.5-2.2c-0.6-3.5-0.7-7.1,0.2-10.6c1.2-4.7,2.1-9.2,6.5-11.3c6.6-3.1,17-2.4,23.6,1c4.5,2.3,5.1,6.5,5.9,11.4
		c0.5,3.1,0.3,6.2-0.3,9.3C525.4,207.8,525.4,207.9,525.4,208"/>
	<path fill="#E0B495" d="M550.6,241c-2.7-0.8-5.5-1.5-8.2-2.3c-4.6-1.3-7.2-1.5-11.8-2.8c-0.8-0.2-2.6-0.5-4.3-0.5
		c-2.1,0-3.8,0.2-5.4,1.1c-1.1,0.6-0.9,4.1-2.1,3.9c-0.6-0.1-3.3-6-3.1-5.4c-0.8-2-1-4.6-0.3-6c0.3-0.7,3.5,1.5,4.2,1.5
		c3.5-0.2,6.9-0.1,10.3,0.3c2.6,0.3,5.3,0.7,7.9,1.2c1.6,0.3,3.3,0.7,4.9,1.1c2.4,0.6,4.7,1.1,7.1,1.8c1.5,0.4,2.4,1.3,2.6,2.8
		c0.2,1.5-0.5,2.5-1.7,3.3C550.7,240.9,550.7,240.9,550.6,241"/>
	<path fill="#E0B495" d="M499,228.8c0,4-0.8,7.7-3.2,10.9c-0.5,0.7-0.6,1.3-0.6,2c0,7.5,0,14.9,0,22.4c0,0.2,0,0.4,0,0.6
		c-1.4,1.5-3.2,1.7-4.7,0.4c-0.6-0.5-1-1.3-1.1-2.1c-0.1-2.4,0-4.8,0.1-7.2c0.1-2.3,0.3-4.6,0.5-7c0.6-5.4,0.6-9.9,2.3-15
		c0.5-1.5,2-3.3,3.4-4C496.8,229.4,497.8,228.9,499,228.8"/>
	<path fill="#E0B495" d="M509.9,263.9c0.1,0.3,0.1,0.5,0.1,0.8v6.3c0,0.3,0,0.5,0.4,0.5c3.1,0,6.3,0,9.4,0c0,4.4,0,8.8,0,13.2
		c0,0.5,0,1,0,1.5c-0.2,0.1-0.4,0.1-0.6,0.2c-3.1,0.7-6.1,1.3-9.2,1.9c0-0.2,0-0.5,0-0.7c0-5.1,0-10.2,0-15.3c0-2.6,0-5.2,0-7.8
		C509.9,264.3,509.9,264.1,509.9,263.9"/>
	<path fill="#E0B495" d="M495.2,271.4h9.7c0,5.6,0,11.2,0,16.8c-1.9-0.4-3.8-0.8-5.7-1.2c-1.3-0.3-2.7-0.6-4-0.9v-14.1
		C495.2,271.9,495.2,271.7,495.2,271.4"/>
	<path fill="#2C3D52" d="M495.2,286.2c1.3,0.3,2.7,0.6,4,0.9c1.9,0.4,3.8,0.8,5.7,1.2c0.1,1.2,0.1,1.2-1.2,1.2c-3.4,0-6.7,0-10.1,0
		c-0.4,0-0.6-0.1-0.5-0.5C493.3,287.7,493.9,286.6,495.2,286.2"/>
	<path fill="#2C3D52" d="M510,288.3c3-0.7,6.1-1.3,9.2-1.9c0.2,0,0.4-0.1,0.6-0.2c1.4,0.5,1.9,1.6,2,3c0,0.2,0,0.4-0.3,0.4
		c-3.7,0-7.4,0-11.1,0c-0.3,0-0.4-0.1-0.4-0.4C510,288.9,510,288.6,510,288.3"/>
	
		<line fill="none" stroke="#717070" stroke-width="2.769" stroke-linecap="round" stroke-linejoin="round" stroke-miterlimit="10" x1="593.1" y1="196" x2="593.1" y2="199.8"/>
	
		<line fill="none" stroke="#868787" stroke-width="2.769" stroke-linecap="round" stroke-linejoin="round" stroke-miterlimit="10" x1="566.2" y1="274.4" x2="566.2" y2="280.1"/>
	
		<line fill="none" stroke="#868787" stroke-width="2.769" stroke-linecap="round" stroke-linejoin="round" stroke-miterlimit="10" x1="559.4" y1="274.4" x2="559.4" y2="280.1"/>
	
		<line fill="none" stroke="#868787" stroke-width="2.769" stroke-linecap="round" stroke-linejoin="round" stroke-miterlimit="10" x1="552.6" y1="274.4" x2="552.6" y2="280.1"/>
	
		<line fill="none" stroke="#241F21" stroke-width="2.769" stroke-linecap="round" stroke-linejoin="round" stroke-miterlimit="10" x1="629" y1="275.7" x2="631.2" y2="273.5"/>
	
		<line fill="none" stroke="#241F21" stroke-width="2.769" stroke-linecap="round" stroke-linejoin="round" stroke-miterlimit="10" x1="612.3" y1="275.7" x2="614.4" y2="273.5"/>
	
		<line fill="none" stroke="#717070" stroke-width="2.769" stroke-linecap="round" stroke-linejoin="round" stroke-miterlimit="10" x1="593.5" y1="214" x2="593.5" y2="209.8"/>
	
		<path fill="none" stroke="#717070" stroke-width="2.769" stroke-linecap="round" stroke-linejoin="round" stroke-miterlimit="10" d="
		M572.4,181.4c-4.6,0-8.3-3.7-8.3-8.3c0-4.6,3.7-8.3,8.3-8.3"/>
	
		<path fill="#BBBDBF" stroke="#717070" stroke-width="2.769" stroke-linecap="round" stroke-linejoin="round" stroke-miterlimit="10" d="
		M603.8,182.3v-5c0-3-2.4-5.4-5.4-5.4h-10.7c-3,0-5.4,2.4-5.4,5.4v4.5v6.4h21.5v-6.9"/>
	
		<polyline fill="none" stroke="#717070" stroke-width="2.769" stroke-linecap="round" stroke-linejoin="round" stroke-miterlimit="10" points="
		572.4,164.8 593.5,164.8 593.5,171.9 	"/>
	
		<line fill="none" stroke="#717070" stroke-width="2.769" stroke-linecap="round" stroke-linejoin="round" stroke-miterlimit="10" x1="639.2" y1="214" x2="643.3" y2="214"/>
	
		<line fill="none" stroke="#717070" stroke-width="2.769" stroke-linecap="round" stroke-linejoin="round" stroke-miterlimit="10" x1="543.8" y1="214.2" x2="547.4" y2="214.2"/>
	
		<polyline fill="none" stroke="#717070" stroke-width="2.769" stroke-linecap="round" stroke-linejoin="round" stroke-miterlimit="10" points="
		631.6,220.6 631.6,188.2 631.6,181.4 574.9,181.4 572.4,181.4 	"/>
	
		<line fill="none" stroke="#868787" stroke-width="2.769" stroke-linecap="round" stroke-linejoin="round" stroke-miterlimit="10" x1="620.8" y1="253.1" x2="647.4" y2="253.1"/>
	
		<path fill="none" stroke="#868787" stroke-width="2.769" stroke-linecap="round" stroke-linejoin="round" stroke-miterlimit="10" d="
		M630.1,278.6c0,2.3-1.9,4.2-4.2,4.2c-2.3,0-4.2-1.9-4.2-4.2c0-2.3,1.9-4.2,4.2-4.2C628.2,274.4,630.1,276.3,630.1,278.6z"/>
	
		<path fill="none" stroke="#868787" stroke-width="2.769" stroke-linecap="round" stroke-linejoin="round" stroke-miterlimit="10" d="
		M613.5,278.6c0,2.3-1.9,4.2-4.2,4.2c-2.3,0-4.2-1.9-4.2-4.2c0-2.3,1.9-4.2,4.2-4.2C611.6,274.4,613.5,276.3,613.5,278.6z"/>
	
		<circle fill="none" stroke="#868787" stroke-width="2.769" stroke-linecap="round" stroke-linejoin="round" stroke-miterlimit="10" cx="583.5" cy="253.1" r="4.2"/>
	
		<circle fill="none" stroke="#868787" stroke-width="2.769" stroke-linecap="round" stroke-linejoin="round" stroke-miterlimit="10" cx="566.7" cy="253.1" r="4.2"/>
	
		<circle fill="none" stroke="#868787" stroke-width="2.769" stroke-linecap="round" stroke-linejoin="round" stroke-miterlimit="10" cx="550.1" cy="253.1" r="4.2"/>
	<rect x="458.5" y="108.9" fill="none" width="221.5" height="211.5"/>
	<polygon fill="#B07F4A" points="475.2,263.3 668,263.3 678.3,277.2 464.1,277.2 	"/>
	<rect x="481.2" y="277.3" fill="#946138" width="6.9" height="23.7"/>
	<rect x="481.2" y="277.3" fill="none" width="6.9" height="23.7"/>
	<rect x="651.5" y="277.3" fill="#946138" width="6.9" height="23.7"/>
	<rect x="472.2" y="152.4" fill="#C99D67" width="6.9" height="166.2"/>
	<rect x="459.7" y="108.9" fill="none" width="221.5" height="211.5"/>
	<rect x="663.5" y="152.4" fill="#C99D67" width="6.9" height="166.2"/>
	<rect x="459.7" y="108.9" fill="none" width="221.5" height="211.5"/>
	<rect x="453.8" y="108.5" fill="none" width="230.6" height="220.1"/>
	<path fill="none" stroke="#1C1C1C" stroke-linecap="round" stroke-linejoin="round" stroke-miterlimit="10" d="M497.9,218
		c0,0,8.5,7.3,18.7,0"/>
	<ellipse fill="#1E1E1E" cx="501.5" cy="207.3" rx="2.5" ry="2.3"/>
	<ellipse fill="#1E1E1E" cx="512.4" cy="207.3" rx="2.5" ry="2.3"/>
	<path fill="#F6B2CF" d="M488.8,241.4c0,0,5,1.5,6,2.9c0.1,0.1-0.3,14.9,0,12.1v0.3c0,0,12.9,3.9,25.4,0.2l0-16.7l9.9-1.8l-2.1-8.1
		c0,0-4.9-0.4-7.7-0.1c0,0-3.4-1.7-6-2c0,0-5.6,7.3-13.5,0.1c0,0-6.8,0.3-8,4.7L488.8,241.4z"/>
	<text transform="matrix(1 0 0 1 494.2109 140.3819)"><tspan x="0" y="0" fill="#383939" font-family="'Graphik-Black'" font-size="26.1528">FAB</tspan><tspan x="53.2" y="0" fill="#383939" font-family="'Graphik-Light'" font-size="26.1528">MARKET</tspan></text>
	<g>
		<g>
			<path fill="#231F20" d="M158.3,189.1h-0.8c-0.1,0-0.2,0-0.2-0.1c-0.1-0.1-0.1-0.1-0.1-0.2l-1.7-4.1h-7l-1.7,4.1
				c0,0.1-0.1,0.1-0.1,0.2c-0.1,0.1-0.1,0.1-0.2,0.1h-0.8l5.8-14.2h1L158.3,189.1z M148.8,183.9h6.4l-2.9-7.2c0-0.1-0.1-0.2-0.1-0.4
				s-0.1-0.3-0.1-0.5c0,0.2-0.1,0.3-0.1,0.5s-0.1,0.3-0.1,0.4L148.8,183.9z"/>
			<path fill="#231F20" d="M163.9,192.6v-13.5h0.5c0.1,0,0.2,0,0.2,0.1c0.1,0,0.1,0.1,0.1,0.2l0.1,1.5c0.4-0.6,1-1.1,1.5-1.4
				c0.6-0.4,1.3-0.5,2-0.5c1.2,0,2.2,0.4,2.9,1.3s1,2.1,1,3.8c0,0.7-0.1,1.4-0.3,2s-0.5,1.2-0.8,1.6c-0.4,0.5-0.8,0.8-1.4,1.1
				s-1.2,0.4-1.9,0.4c-0.7,0-1.3-0.1-1.8-0.4s-0.9-0.6-1.3-1.1v4.9H163.9z M168.1,179.7c-0.7,0-1.3,0.2-1.8,0.5s-1,0.8-1.4,1.4v5.2
				c0.4,0.6,0.8,1,1.3,1.2c0.5,0.2,1,0.4,1.6,0.4c0.6,0,1.1-0.1,1.5-0.3c0.4-0.2,0.8-0.5,1.1-0.9c0.3-0.4,0.5-0.9,0.7-1.4
				c0.2-0.5,0.2-1.1,0.2-1.8c0-1.5-0.3-2.6-0.8-3.3S169.1,179.7,168.1,179.7z"/>
			<path fill="#231F20" d="M175.9,174.5v14.6h-1v-14.6H175.9z"/>
			<path fill="#231F20" d="M185.8,189.1c-0.2,0-0.3-0.1-0.4-0.3l-0.1-1.3c-0.3,0.3-0.5,0.5-0.8,0.7c-0.3,0.2-0.6,0.4-0.8,0.5
				s-0.6,0.3-1,0.3c-0.3,0.1-0.7,0.1-1.1,0.1c-0.3,0-0.7,0-1-0.1c-0.3-0.1-0.6-0.3-0.9-0.5c-0.2-0.2-0.4-0.5-0.6-0.8
				c-0.2-0.3-0.2-0.7-0.2-1.2c0-0.4,0.1-0.8,0.4-1.2c0.2-0.4,0.6-0.7,1.1-0.9c0.5-0.3,1.2-0.5,2-0.6c0.8-0.2,1.8-0.3,2.9-0.3v-1
				c0-0.9-0.2-1.6-0.6-2.1s-1-0.7-1.8-0.7c-0.5,0-0.9,0.1-1.2,0.2c-0.3,0.1-0.6,0.3-0.9,0.4c-0.2,0.2-0.4,0.3-0.6,0.4
				c-0.1,0.1-0.3,0.2-0.4,0.2c-0.1,0-0.2-0.1-0.3-0.2l-0.2-0.3c0.5-0.5,1.1-0.9,1.6-1.2c0.6-0.3,1.2-0.4,2-0.4c0.5,0,1,0.1,1.4,0.3
				c0.4,0.2,0.7,0.4,1,0.7c0.3,0.3,0.5,0.7,0.6,1.2c0.1,0.5,0.2,1,0.2,1.5v6.5H185.8z M181.8,188.6c0.4,0,0.7,0,1.1-0.1
				s0.6-0.2,0.9-0.4s0.5-0.3,0.8-0.5c0.2-0.2,0.5-0.4,0.7-0.7v-2.6c-0.9,0-1.8,0.1-2.5,0.2c-0.7,0.1-1.2,0.3-1.7,0.5
				c-0.4,0.2-0.8,0.4-1,0.7c-0.2,0.3-0.3,0.6-0.3,0.9c0,0.3,0.1,0.6,0.2,0.9c0.1,0.2,0.3,0.4,0.4,0.6c0.2,0.2,0.4,0.3,0.6,0.3
				C181.3,188.5,181.5,188.6,181.8,188.6z"/>
			<path fill="#231F20" d="M195.7,180.5C195.7,180.5,195.7,180.5,195.7,180.5c-0.1,0.1-0.2,0.1-0.2,0.1c-0.1,0-0.2,0-0.3-0.1
				c-0.1-0.1-0.3-0.2-0.5-0.3c-0.2-0.1-0.4-0.2-0.7-0.3c-0.3-0.1-0.6-0.1-1.1-0.1c-0.6,0-1.1,0.1-1.5,0.3c-0.4,0.2-0.8,0.5-1.1,0.9
				s-0.5,0.8-0.7,1.4c-0.2,0.5-0.2,1.1-0.2,1.8c0,0.7,0.1,1.3,0.2,1.9s0.4,1,0.7,1.4c0.3,0.4,0.7,0.7,1.1,0.8s0.9,0.3,1.4,0.3
				c0.5,0,0.9-0.1,1.2-0.2c0.3-0.1,0.6-0.2,0.8-0.4c0.2-0.1,0.4-0.3,0.5-0.4c0.1-0.1,0.2-0.2,0.3-0.2c0.1,0,0.2,0,0.2,0.1l0.3,0.3
				c-0.2,0.2-0.3,0.4-0.6,0.6c-0.2,0.2-0.5,0.3-0.8,0.5s-0.6,0.2-1,0.3c-0.3,0.1-0.7,0.1-1.1,0.1c-0.6,0-1.2-0.1-1.7-0.3
				s-1-0.6-1.4-1c-0.4-0.4-0.7-1-0.9-1.6c-0.2-0.6-0.3-1.4-0.3-2.2c0-0.8,0.1-1.5,0.3-2.1s0.5-1.2,0.9-1.6c0.4-0.5,0.9-0.8,1.4-1.1
				c0.6-0.3,1.2-0.4,1.9-0.4c0.6,0,1.2,0.1,1.7,0.3c0.5,0.2,0.9,0.5,1.3,0.8L195.7,180.5z"/>
			<path fill="#231F20" d="M202,179c0.6,0,1.1,0.1,1.6,0.3s0.9,0.5,1.2,0.8c0.4,0.4,0.6,0.8,0.8,1.4c0.2,0.5,0.3,1.2,0.3,1.9
				c0,0.1,0,0.2-0.1,0.3c0,0.1-0.1,0.1-0.2,0.1h-7.2v0.2c0,0.7,0.1,1.4,0.3,2c0.2,0.6,0.4,1,0.7,1.4c0.3,0.4,0.7,0.7,1.2,0.9
				c0.5,0.2,1,0.3,1.5,0.3c0.5,0,0.9-0.1,1.3-0.2s0.7-0.2,0.9-0.4c0.3-0.1,0.4-0.3,0.6-0.4c0.1-0.1,0.3-0.2,0.3-0.2
				c0.1,0,0.2,0,0.2,0.1l0.3,0.3c-0.2,0.2-0.4,0.4-0.6,0.6c-0.3,0.2-0.6,0.3-0.9,0.4c-0.3,0.1-0.7,0.2-1,0.3s-0.7,0.1-1.1,0.1
				c-0.7,0-1.3-0.1-1.9-0.4c-0.6-0.2-1-0.6-1.4-1c-0.4-0.5-0.7-1-0.9-1.7c-0.2-0.7-0.3-1.4-0.3-2.3c0-0.7,0.1-1.4,0.3-2
				c0.2-0.6,0.5-1.1,0.9-1.6c0.4-0.4,0.9-0.8,1.4-1C200.7,179.1,201.3,179,202,179z M202.1,179.7c-0.5,0-1,0.1-1.4,0.2
				c-0.4,0.2-0.8,0.4-1.1,0.7s-0.5,0.7-0.7,1.1s-0.3,0.9-0.4,1.4h6.6c0-0.5-0.1-1-0.2-1.4c-0.1-0.4-0.4-0.8-0.6-1.1
				c-0.3-0.3-0.6-0.5-1-0.7C202.9,179.8,202.5,179.7,202.1,179.7z"/>
			<path fill="#231F20" d="M211,179.1h0.7c0.1,0,0.2,0,0.2,0.1c0.1,0.1,0.1,0.1,0.1,0.2l2.5,7.9c0,0.2,0.1,0.3,0.1,0.4
				c0,0.1,0.1,0.3,0.1,0.4c0-0.1,0.1-0.3,0.1-0.4c0-0.1,0.1-0.3,0.1-0.4l2.7-7.9c0-0.1,0.1-0.2,0.3-0.2h0.4c0.1,0,0.2,0.1,0.3,0.2
				l2.6,7.9c0.1,0.3,0.2,0.6,0.2,0.9c0-0.1,0.1-0.3,0.1-0.4c0-0.1,0.1-0.3,0.1-0.4l2.5-7.9c0.1-0.2,0.2-0.2,0.3-0.2h0.7l-3.3,10
				h-0.7c-0.1,0-0.2-0.1-0.2-0.2l-2.7-8.1c0-0.1-0.1-0.2-0.1-0.3c0-0.1,0-0.2-0.1-0.3c0,0.1,0,0.2-0.1,0.3c0,0.1-0.1,0.2-0.1,0.3
				l-2.8,8.1c0,0.1-0.1,0.2-0.2,0.2h-0.7L211,179.1z"/>
			<path fill="#231F20" d="M227.2,189.1v-14.6h1v6.3c0.5-0.6,1-1,1.6-1.4c0.6-0.3,1.3-0.5,2-0.5c0.5,0,1,0.1,1.4,0.3
				c0.4,0.2,0.8,0.4,1,0.8c0.3,0.3,0.5,0.7,0.6,1.2c0.1,0.5,0.2,1,0.2,1.6v6.4h-1v-6.4c0-0.9-0.2-1.7-0.6-2.2
				c-0.4-0.5-1.1-0.8-2-0.8c-0.7,0-1.3,0.2-1.8,0.5s-1.1,0.8-1.5,1.4v7.5H227.2z"/>
			<path fill="#231F20" d="M241.8,179c0.6,0,1.1,0.1,1.6,0.3s0.9,0.5,1.2,0.8c0.4,0.4,0.6,0.8,0.8,1.4c0.2,0.5,0.3,1.2,0.3,1.9
				c0,0.1,0,0.2-0.1,0.3c0,0.1-0.1,0.1-0.2,0.1h-7.2v0.2c0,0.7,0.1,1.4,0.3,2c0.2,0.6,0.4,1,0.7,1.4c0.3,0.4,0.7,0.7,1.2,0.9
				c0.5,0.2,1,0.3,1.5,0.3c0.5,0,0.9-0.1,1.3-0.2s0.7-0.2,0.9-0.4c0.3-0.1,0.4-0.3,0.6-0.4c0.1-0.1,0.3-0.2,0.3-0.2
				c0.1,0,0.2,0,0.2,0.1l0.3,0.3c-0.2,0.2-0.4,0.4-0.6,0.6c-0.3,0.2-0.6,0.3-0.9,0.4c-0.3,0.1-0.7,0.2-1,0.3s-0.7,0.1-1.1,0.1
				c-0.7,0-1.3-0.1-1.9-0.4c-0.6-0.2-1-0.6-1.4-1c-0.4-0.5-0.7-1-0.9-1.7c-0.2-0.7-0.3-1.4-0.3-2.3c0-0.7,0.1-1.4,0.3-2
				c0.2-0.6,0.5-1.1,0.9-1.6c0.4-0.4,0.9-0.8,1.4-1C240.4,179.1,241.1,179,241.8,179z M241.8,179.7c-0.5,0-1,0.1-1.4,0.2
				c-0.4,0.2-0.8,0.4-1.1,0.7s-0.5,0.7-0.7,1.1s-0.3,0.9-0.4,1.4h6.6c0-0.5-0.1-1-0.2-1.4c-0.1-0.4-0.4-0.8-0.6-1.1
				c-0.3-0.3-0.6-0.5-1-0.7C242.6,179.8,242.2,179.7,241.8,179.7z"/>
			<path fill="#231F20" d="M248.2,189.1v-10h0.5c0.1,0,0.2,0,0.2,0.1s0.1,0.1,0.1,0.2l0.1,2.1c0.3-0.8,0.7-1.4,1.3-1.9
				c0.5-0.5,1.2-0.7,2-0.7c0.3,0,0.6,0,0.8,0.1s0.5,0.2,0.7,0.3l-0.1,0.7c0,0.1-0.1,0.2-0.2,0.2c0,0-0.1,0-0.2,0
				c-0.1,0-0.2-0.1-0.3-0.1c-0.1,0-0.2-0.1-0.4-0.1c-0.2,0-0.3,0-0.6,0c-0.8,0-1.4,0.2-1.9,0.7s-0.9,1.1-1.2,2v6.5H248.2z"/>
			<path fill="#231F20" d="M260,179c0.6,0,1.1,0.1,1.6,0.3s0.9,0.5,1.2,0.8c0.4,0.4,0.6,0.8,0.8,1.4c0.2,0.5,0.3,1.2,0.3,1.9
				c0,0.1,0,0.2-0.1,0.3c0,0.1-0.1,0.1-0.2,0.1h-7.2v0.2c0,0.7,0.1,1.4,0.3,2c0.2,0.6,0.4,1,0.7,1.4c0.3,0.4,0.7,0.7,1.2,0.9
				c0.5,0.2,1,0.3,1.5,0.3c0.5,0,0.9-0.1,1.3-0.2s0.7-0.2,0.9-0.4c0.3-0.1,0.4-0.3,0.6-0.4c0.1-0.1,0.3-0.2,0.3-0.2
				c0.1,0,0.2,0,0.2,0.1l0.3,0.3c-0.2,0.2-0.4,0.4-0.6,0.6c-0.3,0.2-0.6,0.3-0.9,0.4c-0.3,0.1-0.7,0.2-1,0.3s-0.7,0.1-1.1,0.1
				c-0.7,0-1.3-0.1-1.9-0.4c-0.6-0.2-1-0.6-1.4-1c-0.4-0.5-0.7-1-0.9-1.7c-0.2-0.7-0.3-1.4-0.3-2.3c0-0.7,0.1-1.4,0.3-2
				c0.2-0.6,0.5-1.1,0.9-1.6c0.4-0.4,0.9-0.8,1.4-1C258.6,179.1,259.3,179,260,179z M260,179.7c-0.5,0-1,0.1-1.4,0.2
				c-0.4,0.2-0.8,0.4-1.1,0.7s-0.5,0.7-0.7,1.1s-0.3,0.9-0.4,1.4h6.6c0-0.5-0.1-1-0.2-1.4c-0.1-0.4-0.4-0.8-0.6-1.1
				c-0.3-0.3-0.6-0.5-1-0.7C260.8,179.8,260.4,179.7,260,179.7z"/>
			<path fill="#231F20" d="M277.4,189.1c-0.2,0-0.3-0.1-0.3-0.3l-0.1-1.6c-0.4,0.6-1,1.1-1.5,1.4c-0.6,0.4-1.3,0.5-2,0.5
				c-1.2,0-2.2-0.4-2.9-1.3s-1-2.1-1-3.8c0-0.7,0.1-1.4,0.3-2c0.2-0.6,0.5-1.2,0.8-1.6s0.8-0.8,1.4-1.1c0.5-0.3,1.2-0.4,1.9-0.4
				c0.7,0,1.3,0.1,1.8,0.4s0.9,0.6,1.3,1.1v-5.9h1v14.6H277.4z M273.7,188.5c0.7,0,1.3-0.2,1.8-0.5c0.5-0.3,1-0.8,1.4-1.4v-5.3
				c-0.4-0.6-0.8-1-1.3-1.2s-1-0.4-1.6-0.4s-1.1,0.1-1.5,0.3c-0.4,0.2-0.8,0.5-1.1,0.9c-0.3,0.4-0.5,0.9-0.7,1.4s-0.2,1.1-0.2,1.8
				c0,1.5,0.3,2.6,0.8,3.3C271.9,188.1,272.7,188.5,273.7,188.5z"/>
			<path fill="#231F20" d="M285,179c0.6,0,1.1,0.1,1.6,0.3s0.9,0.5,1.2,0.8c0.4,0.4,0.6,0.8,0.8,1.4c0.2,0.5,0.3,1.2,0.3,1.9
				c0,0.1,0,0.2-0.1,0.3c0,0.1-0.1,0.1-0.2,0.1h-7.2v0.2c0,0.7,0.1,1.4,0.3,2c0.2,0.6,0.4,1,0.7,1.4c0.3,0.4,0.7,0.7,1.2,0.9
				c0.5,0.2,1,0.3,1.5,0.3c0.5,0,0.9-0.1,1.3-0.2s0.7-0.2,0.9-0.4c0.3-0.1,0.4-0.3,0.6-0.4c0.1-0.1,0.3-0.2,0.3-0.2
				c0.1,0,0.2,0,0.2,0.1l0.3,0.3c-0.2,0.2-0.4,0.4-0.6,0.6c-0.3,0.2-0.6,0.3-0.9,0.4c-0.3,0.1-0.7,0.2-1,0.3s-0.7,0.1-1.1,0.1
				c-0.7,0-1.3-0.1-1.9-0.4c-0.6-0.2-1-0.6-1.4-1c-0.4-0.5-0.7-1-0.9-1.7c-0.2-0.7-0.3-1.4-0.3-2.3c0-0.7,0.1-1.4,0.3-2
				c0.2-0.6,0.5-1.1,0.9-1.6c0.4-0.4,0.9-0.8,1.4-1C283.7,179.1,284.3,179,285,179z M285,179.7c-0.5,0-1,0.1-1.4,0.2
				c-0.4,0.2-0.8,0.4-1.1,0.7s-0.5,0.7-0.7,1.1s-0.3,0.9-0.4,1.4h6.6c0-0.5-0.1-1-0.2-1.4c-0.1-0.4-0.4-0.8-0.6-1.1
				c-0.3-0.3-0.6-0.5-1-0.7C285.9,179.8,285.5,179.7,285,179.7z"/>
			<path fill="#231F20" d="M297,180.4c0,0.1-0.1,0.1-0.2,0.1c-0.1,0-0.2,0-0.3-0.1s-0.3-0.2-0.5-0.3c-0.2-0.1-0.4-0.2-0.7-0.3
				s-0.6-0.1-1-0.1c-0.4,0-0.7,0.1-1,0.2c-0.3,0.1-0.6,0.2-0.8,0.4c-0.2,0.2-0.4,0.4-0.5,0.6c-0.1,0.2-0.2,0.5-0.2,0.7
				c0,0.3,0.1,0.6,0.2,0.8s0.4,0.4,0.6,0.5c0.3,0.1,0.6,0.3,0.9,0.4c0.3,0.1,0.7,0.2,1,0.3c0.3,0.1,0.7,0.2,1,0.4
				c0.3,0.1,0.6,0.3,0.9,0.5c0.3,0.2,0.5,0.4,0.6,0.7c0.2,0.3,0.2,0.6,0.2,1c0,0.4-0.1,0.8-0.2,1.2s-0.4,0.7-0.7,1
				c-0.3,0.3-0.7,0.5-1.1,0.7c-0.4,0.2-0.9,0.2-1.5,0.2c-0.7,0-1.3-0.1-1.8-0.3s-1-0.5-1.4-0.9l0.2-0.3c0-0.1,0.1-0.1,0.1-0.1
				s0.1,0,0.2,0c0.1,0,0.2,0.1,0.3,0.2s0.3,0.2,0.5,0.3s0.5,0.2,0.8,0.3s0.7,0.2,1.1,0.2c0.4,0,0.8-0.1,1.1-0.2
				c0.3-0.1,0.6-0.3,0.8-0.5c0.2-0.2,0.4-0.4,0.5-0.7c0.1-0.3,0.2-0.6,0.2-0.9c0-0.3-0.1-0.6-0.2-0.8c-0.2-0.2-0.4-0.4-0.6-0.6
				c-0.3-0.2-0.6-0.3-0.9-0.4s-0.7-0.2-1-0.3s-0.7-0.2-1-0.4c-0.3-0.1-0.6-0.3-0.9-0.5s-0.5-0.4-0.6-0.7c-0.2-0.3-0.2-0.6-0.2-1
				c0-0.4,0.1-0.7,0.2-1c0.2-0.3,0.4-0.6,0.7-0.9c0.3-0.2,0.6-0.4,1-0.6c0.4-0.1,0.9-0.2,1.4-0.2c0.6,0,1.1,0.1,1.6,0.3
				s0.9,0.4,1.3,0.8L297,180.4z"/>
			<path fill="#231F20" d="M301.8,175.7c0,0.1,0,0.2-0.1,0.3s-0.1,0.2-0.2,0.3s-0.2,0.1-0.3,0.2c-0.1,0-0.2,0.1-0.3,0.1
				c-0.1,0-0.2,0-0.3-0.1c-0.1,0-0.2-0.1-0.3-0.2s-0.1-0.2-0.2-0.3s-0.1-0.2-0.1-0.3s0-0.2,0.1-0.3s0.1-0.2,0.2-0.3s0.2-0.1,0.3-0.2
				c0.1,0,0.2-0.1,0.3-0.1c0.1,0,0.2,0,0.3,0.1c0.1,0,0.2,0.1,0.3,0.2s0.1,0.2,0.2,0.3S301.8,175.6,301.8,175.7z M301.4,179.1v10h-1
				v-10H301.4z"/>
			<path fill="#231F20" d="M308.2,179c0.4,0,0.8,0.1,1.2,0.2c0.4,0.1,0.7,0.3,1,0.5h2.6v0.3c0,0.2-0.1,0.3-0.3,0.3l-1.5,0.1
				c0.2,0.3,0.3,0.5,0.4,0.9c0.1,0.3,0.2,0.7,0.2,1c0,0.5-0.1,0.9-0.3,1.3c-0.2,0.4-0.4,0.7-0.7,1s-0.7,0.5-1.1,0.6
				c-0.4,0.2-0.9,0.2-1.4,0.2c-0.6,0-1.1-0.1-1.6-0.3c-0.3,0.2-0.5,0.4-0.7,0.6c-0.2,0.2-0.2,0.4-0.2,0.6c0,0.3,0.1,0.5,0.3,0.7
				c0.2,0.2,0.5,0.3,0.8,0.3s0.7,0.1,1.1,0.1c0.4,0,0.9,0,1.3,0.1s0.9,0.1,1.3,0.1c0.4,0.1,0.8,0.2,1.1,0.3s0.6,0.4,0.8,0.6
				s0.3,0.6,0.3,1.1c0,0.4-0.1,0.8-0.3,1.2c-0.2,0.4-0.5,0.7-0.9,1s-0.9,0.5-1.4,0.7c-0.6,0.2-1.2,0.3-1.9,0.3
				c-0.7,0-1.3-0.1-1.8-0.2c-0.5-0.1-1-0.3-1.3-0.6s-0.6-0.5-0.8-0.8s-0.3-0.7-0.3-1c0-0.5,0.2-1,0.5-1.4c0.3-0.4,0.8-0.7,1.4-0.9
				c-0.3-0.1-0.6-0.3-0.8-0.5s-0.3-0.5-0.3-0.9c0-0.1,0-0.3,0.1-0.4c0.1-0.2,0.1-0.3,0.2-0.5c0.1-0.2,0.2-0.3,0.4-0.4
				s0.3-0.3,0.5-0.4c-0.5-0.3-0.8-0.6-1.1-1.1c-0.3-0.5-0.4-1-0.4-1.6c0-0.5,0.1-0.9,0.3-1.3c0.2-0.4,0.4-0.7,0.7-1
				c0.3-0.3,0.7-0.5,1.1-0.7C307.1,179,307.6,179,308.2,179z M311.9,189.8c0-0.3-0.1-0.6-0.2-0.8s-0.4-0.3-0.7-0.4
				c-0.3-0.1-0.6-0.2-0.9-0.2s-0.7-0.1-1.1-0.1s-0.8,0-1.2-0.1s-0.8-0.1-1.1-0.1c-0.3,0.1-0.5,0.2-0.7,0.3c-0.2,0.1-0.4,0.3-0.6,0.4
				c-0.2,0.2-0.3,0.3-0.4,0.5c-0.1,0.2-0.1,0.4-0.1,0.6c0,0.3,0.1,0.6,0.2,0.8s0.4,0.5,0.7,0.7c0.3,0.2,0.6,0.3,1.1,0.4
				s0.9,0.2,1.5,0.2c0.5,0,1-0.1,1.4-0.2c0.4-0.1,0.8-0.3,1.1-0.5c0.3-0.2,0.6-0.5,0.8-0.7C311.8,190.4,311.9,190.1,311.9,189.8z
				 M308.2,184.7c0.4,0,0.8-0.1,1.1-0.2c0.3-0.1,0.6-0.3,0.8-0.5c0.2-0.2,0.4-0.5,0.5-0.8c0.1-0.3,0.2-0.6,0.2-1s-0.1-0.7-0.2-1
				s-0.3-0.6-0.5-0.8c-0.2-0.2-0.5-0.4-0.8-0.5c-0.3-0.1-0.7-0.2-1.1-0.2s-0.8,0.1-1.1,0.2c-0.3,0.1-0.6,0.3-0.8,0.5
				c-0.2,0.2-0.4,0.5-0.5,0.8s-0.2,0.7-0.2,1s0.1,0.7,0.2,1c0.1,0.3,0.3,0.6,0.5,0.8s0.5,0.4,0.8,0.5S307.7,184.7,308.2,184.7z"/>
			<path fill="#231F20" d="M315,189.1v-10h0.5c0.2,0,0.3,0.1,0.3,0.3l0.1,1.5c0.5-0.6,1-1,1.6-1.4c0.6-0.4,1.3-0.5,2-0.5
				c0.5,0,1,0.1,1.4,0.3c0.4,0.2,0.8,0.4,1,0.8c0.3,0.3,0.5,0.7,0.6,1.2c0.1,0.5,0.2,1,0.2,1.6v6.4h-1v-6.4c0-0.9-0.2-1.7-0.6-2.2
				c-0.4-0.5-1.1-0.8-2-0.8c-0.7,0-1.3,0.2-1.8,0.5s-1.1,0.8-1.5,1.4v7.5H315z"/>
			<path fill="#231F20" d="M329.6,179c0.6,0,1.1,0.1,1.6,0.3s0.9,0.5,1.2,0.8c0.4,0.4,0.6,0.8,0.8,1.4c0.2,0.5,0.3,1.2,0.3,1.9
				c0,0.1,0,0.2-0.1,0.3c0,0.1-0.1,0.1-0.2,0.1H326v0.2c0,0.7,0.1,1.4,0.3,2c0.2,0.6,0.4,1,0.7,1.4c0.3,0.4,0.7,0.7,1.2,0.9
				c0.5,0.2,1,0.3,1.5,0.3c0.5,0,0.9-0.1,1.3-0.2s0.7-0.2,0.9-0.4c0.3-0.1,0.4-0.3,0.6-0.4c0.1-0.1,0.3-0.2,0.3-0.2
				c0.1,0,0.2,0,0.2,0.1l0.3,0.3c-0.2,0.2-0.4,0.4-0.6,0.6c-0.3,0.2-0.6,0.3-0.9,0.4c-0.3,0.1-0.7,0.2-1,0.3s-0.7,0.1-1.1,0.1
				c-0.7,0-1.3-0.1-1.9-0.4c-0.6-0.2-1-0.6-1.4-1c-0.4-0.5-0.7-1-0.9-1.7c-0.2-0.7-0.3-1.4-0.3-2.3c0-0.7,0.1-1.4,0.3-2
				c0.2-0.6,0.5-1.1,0.9-1.6c0.4-0.4,0.9-0.8,1.4-1C328.3,179.1,328.9,179,329.6,179z M329.6,179.7c-0.5,0-1,0.1-1.4,0.2
				c-0.4,0.2-0.8,0.4-1.1,0.7s-0.5,0.7-0.7,1.1s-0.3,0.9-0.4,1.4h6.6c0-0.5-0.1-1-0.2-1.4c-0.1-0.4-0.4-0.8-0.6-1.1
				c-0.3-0.3-0.6-0.5-1-0.7C330.5,179.8,330.1,179.7,329.6,179.7z"/>
			<path fill="#231F20" d="M336.1,189.1v-10h0.5c0.1,0,0.2,0,0.2,0.1s0.1,0.1,0.1,0.2l0.1,2.1c0.3-0.8,0.7-1.4,1.3-1.9
				c0.5-0.5,1.2-0.7,2-0.7c0.3,0,0.6,0,0.8,0.1s0.5,0.2,0.7,0.3l-0.1,0.7c0,0.1-0.1,0.2-0.2,0.2c0,0-0.1,0-0.2,0
				c-0.1,0-0.2-0.1-0.3-0.1c-0.1,0-0.2-0.1-0.4-0.1c-0.2,0-0.3,0-0.6,0c-0.8,0-1.4,0.2-1.9,0.7s-0.9,1.1-1.2,2v6.5H336.1z"/>
			<path fill="#231F20" d="M349.5,180.4c0,0.1-0.1,0.1-0.2,0.1c-0.1,0-0.2,0-0.3-0.1s-0.3-0.2-0.5-0.3c-0.2-0.1-0.4-0.2-0.7-0.3
				s-0.6-0.1-1-0.1c-0.4,0-0.7,0.1-1,0.2c-0.3,0.1-0.6,0.2-0.8,0.4c-0.2,0.2-0.4,0.4-0.5,0.6c-0.1,0.2-0.2,0.5-0.2,0.7
				c0,0.3,0.1,0.6,0.2,0.8s0.4,0.4,0.6,0.5c0.3,0.1,0.6,0.3,0.9,0.4c0.3,0.1,0.7,0.2,1,0.3c0.3,0.1,0.7,0.2,1,0.4
				c0.3,0.1,0.6,0.3,0.9,0.5c0.3,0.2,0.5,0.4,0.6,0.7c0.2,0.3,0.2,0.6,0.2,1c0,0.4-0.1,0.8-0.2,1.2s-0.4,0.7-0.7,1
				c-0.3,0.3-0.7,0.5-1.1,0.7c-0.4,0.2-0.9,0.2-1.5,0.2c-0.7,0-1.3-0.1-1.8-0.3s-1-0.5-1.4-0.9l0.2-0.3c0-0.1,0.1-0.1,0.1-0.1
				s0.1,0,0.2,0c0.1,0,0.2,0.1,0.3,0.2s0.3,0.2,0.5,0.3s0.5,0.2,0.8,0.3s0.7,0.2,1.1,0.2c0.4,0,0.8-0.1,1.1-0.2
				c0.3-0.1,0.6-0.3,0.8-0.5c0.2-0.2,0.4-0.4,0.5-0.7c0.1-0.3,0.2-0.6,0.2-0.9c0-0.3-0.1-0.6-0.2-0.8c-0.2-0.2-0.4-0.4-0.6-0.6
				c-0.3-0.2-0.6-0.3-0.9-0.4s-0.7-0.2-1-0.3s-0.7-0.2-1-0.4c-0.3-0.1-0.6-0.3-0.9-0.5s-0.5-0.4-0.6-0.7c-0.2-0.3-0.2-0.6-0.2-1
				c0-0.4,0.1-0.7,0.2-1c0.2-0.3,0.4-0.6,0.7-0.9c0.3-0.2,0.6-0.4,1-0.6c0.4-0.1,0.9-0.2,1.4-0.2c0.6,0,1.1,0.1,1.6,0.3
				s0.9,0.4,1.3,0.8L349.5,180.4z"/>
			<path fill="#231F20" d="M363.1,180.5C363.1,180.5,363,180.5,363.1,180.5c-0.1,0.1-0.2,0.1-0.2,0.1c-0.1,0-0.2,0-0.3-0.1
				c-0.1-0.1-0.3-0.2-0.5-0.3c-0.2-0.1-0.4-0.2-0.7-0.3c-0.3-0.1-0.6-0.1-1.1-0.1c-0.6,0-1.1,0.1-1.5,0.3c-0.4,0.2-0.8,0.5-1.1,0.9
				s-0.5,0.8-0.7,1.4c-0.2,0.5-0.2,1.1-0.2,1.8c0,0.7,0.1,1.3,0.2,1.9s0.4,1,0.7,1.4c0.3,0.4,0.7,0.7,1.1,0.8s0.9,0.3,1.4,0.3
				c0.5,0,0.9-0.1,1.2-0.2c0.3-0.1,0.6-0.2,0.8-0.4c0.2-0.1,0.4-0.3,0.5-0.4c0.1-0.1,0.2-0.2,0.3-0.2c0.1,0,0.2,0,0.2,0.1l0.3,0.3
				c-0.2,0.2-0.3,0.4-0.6,0.6c-0.2,0.2-0.5,0.3-0.8,0.5s-0.6,0.2-1,0.3c-0.3,0.1-0.7,0.1-1.1,0.1c-0.6,0-1.2-0.1-1.7-0.3
				s-1-0.6-1.4-1c-0.4-0.4-0.7-1-0.9-1.6c-0.2-0.6-0.3-1.4-0.3-2.2c0-0.8,0.1-1.5,0.3-2.1s0.5-1.2,0.9-1.6c0.4-0.5,0.9-0.8,1.4-1.1
				c0.6-0.3,1.2-0.4,1.9-0.4c0.6,0,1.2,0.1,1.7,0.3c0.5,0.2,0.9,0.5,1.3,0.8L363.1,180.5z"/>
			<path fill="#231F20" d="M372,189.1c-0.2,0-0.3-0.1-0.4-0.3l-0.1-1.3c-0.3,0.3-0.5,0.5-0.8,0.7c-0.3,0.2-0.6,0.4-0.8,0.5
				s-0.6,0.3-1,0.3c-0.3,0.1-0.7,0.1-1.1,0.1c-0.3,0-0.7,0-1-0.1c-0.3-0.1-0.6-0.3-0.9-0.5c-0.2-0.2-0.4-0.5-0.6-0.8
				c-0.2-0.3-0.2-0.7-0.2-1.2c0-0.4,0.1-0.8,0.4-1.2c0.2-0.4,0.6-0.7,1.1-0.9c0.5-0.3,1.2-0.5,2-0.6c0.8-0.2,1.8-0.3,2.9-0.3v-1
				c0-0.9-0.2-1.6-0.6-2.1s-1-0.7-1.8-0.7c-0.5,0-0.9,0.1-1.2,0.2c-0.3,0.1-0.6,0.3-0.9,0.4c-0.2,0.2-0.4,0.3-0.6,0.4
				c-0.1,0.1-0.3,0.2-0.4,0.2c-0.1,0-0.2-0.1-0.3-0.2l-0.2-0.3c0.5-0.5,1.1-0.9,1.6-1.2c0.6-0.3,1.2-0.4,2-0.4c0.5,0,1,0.1,1.4,0.3
				c0.4,0.2,0.7,0.4,1,0.7c0.3,0.3,0.5,0.7,0.6,1.2c0.1,0.5,0.2,1,0.2,1.5v6.5H372z M368,188.6c0.4,0,0.7,0,1.1-0.1s0.6-0.2,0.9-0.4
				s0.5-0.3,0.8-0.5c0.2-0.2,0.5-0.4,0.7-0.7v-2.6c-0.9,0-1.8,0.1-2.5,0.2c-0.7,0.1-1.2,0.3-1.7,0.5c-0.4,0.2-0.8,0.4-1,0.7
				c-0.2,0.3-0.3,0.6-0.3,0.9c0,0.3,0.1,0.6,0.2,0.9c0.1,0.2,0.3,0.4,0.4,0.6c0.2,0.2,0.4,0.3,0.6,0.3
				C367.5,188.5,367.7,188.6,368,188.6z"/>
			<path fill="#231F20" d="M375.4,189.1v-10h0.5c0.2,0,0.3,0.1,0.3,0.3l0.1,1.5c0.5-0.6,1-1,1.6-1.4c0.6-0.4,1.3-0.5,2-0.5
				c0.5,0,1,0.1,1.4,0.3c0.4,0.2,0.8,0.4,1,0.8c0.3,0.3,0.5,0.7,0.6,1.2c0.1,0.5,0.2,1,0.2,1.6v6.4h-1v-6.4c0-0.9-0.2-1.7-0.6-2.2
				c-0.4-0.5-1.1-0.8-2-0.8c-0.7,0-1.3,0.2-1.8,0.5s-1.1,0.8-1.5,1.4v7.5H375.4z"/>
			<path fill="#231F20" d="M147.2,213.1v-8.3l-0.7-0.1c-0.2-0.1-0.4-0.1-0.6-0.3c-0.1-0.1-0.2-0.3-0.2-0.5v-1.2h1.5v-0.6
				c0-0.6,0.1-1.1,0.3-1.6c0.2-0.5,0.5-0.9,0.8-1.2s0.8-0.6,1.3-0.8c0.5-0.2,1.1-0.3,1.8-0.3c0.3,0,0.5,0,0.7,0
				c0.2,0,0.4,0.1,0.7,0.1l-0.1,1.5c0,0.1,0,0.2-0.1,0.3c0,0.1-0.1,0.1-0.2,0.2c-0.1,0-0.2,0.1-0.2,0.1s-0.2,0-0.3,0
				c-0.3,0-0.5,0-0.7,0.1c-0.2,0.1-0.4,0.1-0.5,0.3c-0.1,0.1-0.3,0.3-0.3,0.5c-0.1,0.2-0.1,0.5-0.1,0.8v0.5h2.4v2.1h-2.3v8.2H147.2z
				"/>
			<path fill="#231F20" d="M161.1,213.1c-0.3,0-0.5,0-0.7-0.1c-0.2-0.1-0.3-0.2-0.4-0.5l-0.2-0.6c-0.3,0.2-0.5,0.4-0.8,0.6
				s-0.5,0.3-0.7,0.4c-0.3,0.1-0.5,0.2-0.8,0.3c-0.3,0.1-0.6,0.1-1,0.1c-0.5,0-0.9-0.1-1.3-0.2c-0.4-0.1-0.7-0.3-1-0.5
				c-0.3-0.2-0.5-0.5-0.6-0.9c-0.1-0.4-0.2-0.8-0.2-1.2c0-0.4,0.1-0.7,0.3-1.1c0.2-0.4,0.5-0.7,1-1.1s1.1-0.6,1.9-0.8
				c0.8-0.2,1.8-0.3,3-0.3v-0.4c0-0.6-0.1-1.1-0.4-1.3c-0.3-0.3-0.6-0.4-1.1-0.4c-0.4,0-0.7,0-0.9,0.1c-0.2,0.1-0.4,0.2-0.6,0.3
				c-0.2,0.1-0.4,0.2-0.5,0.3c-0.2,0.1-0.4,0.1-0.6,0.1c-0.2,0-0.4-0.1-0.5-0.2s-0.3-0.2-0.4-0.4l-0.6-1c0.6-0.6,1.3-1,2.1-1.2
				c0.8-0.3,1.6-0.4,2.5-0.4c0.6,0,1.2,0.1,1.7,0.3c0.5,0.2,0.9,0.5,1.3,0.9c0.4,0.4,0.6,0.8,0.8,1.3c0.2,0.5,0.3,1,0.3,1.6v6.5
				H161.1z M157.6,211.3c0.4,0,0.8-0.1,1.1-0.2c0.3-0.1,0.6-0.4,0.9-0.7v-1.4c-0.6,0-1.1,0-1.5,0.1c-0.4,0.1-0.7,0.2-1,0.3
				c-0.2,0.1-0.4,0.3-0.5,0.4c-0.1,0.2-0.1,0.3-0.1,0.5c0,0.4,0.1,0.6,0.3,0.8C156.9,211.2,157.2,211.3,157.6,211.3z"/>
			<path fill="#231F20" d="M164.8,213.1v-15h3.1v5.7c0.4-0.4,0.8-0.7,1.3-0.9c0.5-0.2,1.1-0.3,1.7-0.3c0.5,0,1,0.1,1.5,0.4
				s0.9,0.6,1.2,1c0.3,0.5,0.6,1,0.8,1.7s0.3,1.4,0.3,2.2c0,0.8-0.1,1.5-0.3,2.2c-0.2,0.7-0.5,1.2-0.9,1.7s-0.9,0.9-1.4,1.1
				c-0.5,0.3-1.1,0.4-1.8,0.4c-0.3,0-0.6,0-0.8-0.1s-0.5-0.1-0.7-0.3c-0.2-0.1-0.4-0.2-0.6-0.4c-0.2-0.2-0.3-0.3-0.5-0.5l-0.1,0.5
				c0,0.2-0.1,0.4-0.3,0.4c-0.1,0.1-0.3,0.1-0.5,0.1H164.8z M169.8,204.9c-0.2,0-0.4,0-0.6,0.1s-0.4,0.1-0.5,0.2s-0.3,0.2-0.4,0.3
				c-0.1,0.1-0.3,0.3-0.4,0.4v4.4c0.2,0.3,0.5,0.4,0.8,0.5c0.3,0.1,0.6,0.2,0.9,0.2c0.3,0,0.6-0.1,0.8-0.2c0.2-0.1,0.4-0.3,0.6-0.5
				c0.2-0.3,0.3-0.6,0.4-1c0.1-0.4,0.2-0.9,0.2-1.5c0-0.5,0-1-0.1-1.4c-0.1-0.4-0.2-0.7-0.3-0.9c-0.1-0.2-0.3-0.4-0.5-0.5
				S170.1,204.9,169.8,204.9z"/>
			<path fill="#231F20" d="M176.4,213.1v-10.4h1.8c0.2,0,0.3,0,0.4,0c0.1,0,0.2,0.1,0.3,0.1s0.1,0.1,0.2,0.2c0,0.1,0.1,0.2,0.1,0.3
				l0.2,1c0.4-0.6,0.8-1.1,1.3-1.4c0.5-0.3,1-0.5,1.6-0.5c0.5,0,0.9,0.1,1.1,0.3l-0.4,2.3c0,0.1-0.1,0.2-0.2,0.3
				c-0.1,0.1-0.2,0.1-0.3,0.1c-0.1,0-0.2,0-0.4,0c-0.2,0-0.3,0-0.6,0c-0.8,0-1.5,0.4-1.9,1.3v6.4H176.4z"/>
			<path fill="#231F20" d="M188.2,199.9c0,0.2,0,0.5-0.2,0.7c-0.1,0.2-0.2,0.4-0.4,0.6c-0.2,0.2-0.4,0.3-0.6,0.4s-0.5,0.1-0.7,0.1
				c-0.3,0-0.5,0-0.7-0.1c-0.2-0.1-0.4-0.2-0.6-0.4c-0.2-0.2-0.3-0.4-0.4-0.6c-0.1-0.2-0.1-0.4-0.1-0.7c0-0.3,0-0.5,0.1-0.7
				c0.1-0.2,0.2-0.4,0.4-0.6c0.2-0.2,0.4-0.3,0.6-0.4c0.2-0.1,0.5-0.1,0.7-0.1c0.3,0,0.5,0,0.7,0.1c0.2,0.1,0.4,0.2,0.6,0.4
				s0.3,0.4,0.4,0.6C188.2,199.4,188.2,199.7,188.2,199.9z M187.9,202.8v10.4h-3.1v-10.4H187.9z"/>
			<path fill="#231F20" d="M197.9,205.2c-0.1,0.1-0.2,0.2-0.3,0.3s-0.2,0.1-0.4,0.1c-0.2,0-0.3,0-0.4-0.1c-0.1-0.1-0.3-0.2-0.4-0.2
				c-0.2-0.1-0.3-0.2-0.5-0.2c-0.2-0.1-0.5-0.1-0.8-0.1c-0.4,0-0.7,0.1-1,0.2c-0.3,0.1-0.5,0.3-0.7,0.6s-0.3,0.6-0.4,1
				c-0.1,0.4-0.1,0.8-0.1,1.3c0,1,0.2,1.8,0.6,2.3c0.4,0.5,0.9,0.8,1.6,0.8c0.4,0,0.6,0,0.9-0.1c0.2-0.1,0.4-0.2,0.5-0.3
				c0.1-0.1,0.3-0.2,0.4-0.3s0.3-0.1,0.5-0.1c0.2,0,0.4,0.1,0.6,0.3l0.9,1.1c-0.3,0.4-0.7,0.7-1,0.9s-0.7,0.4-1.1,0.5
				c-0.4,0.1-0.7,0.2-1.1,0.3c-0.4,0.1-0.7,0.1-1.1,0.1c-0.6,0-1.2-0.1-1.8-0.4c-0.6-0.2-1.1-0.6-1.5-1c-0.4-0.5-0.8-1-1-1.7
				c-0.3-0.7-0.4-1.4-0.4-2.3c0-0.7,0.1-1.4,0.3-2.1c0.2-0.7,0.6-1.2,1-1.7c0.4-0.5,1-0.9,1.6-1.1c0.6-0.3,1.4-0.4,2.2-0.4
				c0.8,0,1.5,0.1,2.1,0.4c0.6,0.3,1.2,0.6,1.7,1.1L197.9,205.2z"/>
			<path fill="#231F20" d="M207.3,213.1c-0.3,0-0.5,0-0.7-0.1c-0.2-0.1-0.3-0.2-0.4-0.5L206,212c-0.3,0.2-0.5,0.4-0.8,0.6
				s-0.5,0.3-0.7,0.4c-0.3,0.1-0.5,0.2-0.8,0.3c-0.3,0.1-0.6,0.1-1,0.1c-0.5,0-0.9-0.1-1.3-0.2c-0.4-0.1-0.7-0.3-1-0.5
				c-0.3-0.2-0.5-0.5-0.6-0.9c-0.1-0.4-0.2-0.8-0.2-1.2c0-0.4,0.1-0.7,0.3-1.1c0.2-0.4,0.5-0.7,1-1.1s1.1-0.6,1.9-0.8
				c0.8-0.2,1.8-0.3,3-0.3v-0.4c0-0.6-0.1-1.1-0.4-1.3c-0.3-0.3-0.6-0.4-1.1-0.4c-0.4,0-0.7,0-0.9,0.1c-0.2,0.1-0.4,0.2-0.6,0.3
				c-0.2,0.1-0.4,0.2-0.5,0.3c-0.2,0.1-0.4,0.1-0.6,0.1c-0.2,0-0.4-0.1-0.5-0.2s-0.3-0.2-0.4-0.4l-0.6-1c0.6-0.6,1.3-1,2.1-1.2
				c0.8-0.3,1.6-0.4,2.5-0.4c0.6,0,1.2,0.1,1.7,0.3c0.5,0.2,0.9,0.5,1.3,0.9c0.4,0.4,0.6,0.8,0.8,1.3c0.2,0.5,0.3,1,0.3,1.6v6.5
				H207.3z M203.7,211.3c0.4,0,0.8-0.1,1.1-0.2c0.3-0.1,0.6-0.4,0.9-0.7v-1.4c-0.6,0-1.1,0-1.5,0.1c-0.4,0.1-0.7,0.2-1,0.3
				c-0.2,0.1-0.4,0.3-0.5,0.4c-0.1,0.2-0.1,0.3-0.1,0.5c0,0.4,0.1,0.6,0.3,0.8C203.1,211.2,203.4,211.3,203.7,211.3z"/>
			<path fill="#231F20" d="M214.6,213.3c-0.5,0-0.9-0.1-1.3-0.2c-0.4-0.1-0.7-0.3-1-0.6c-0.3-0.3-0.5-0.6-0.6-1
				c-0.1-0.4-0.2-0.8-0.2-1.3v-5.4h-0.9c-0.2,0-0.3-0.1-0.4-0.2c-0.1-0.1-0.2-0.3-0.2-0.5v-1.2l1.7-0.3l0.6-2.5
				c0.1-0.3,0.3-0.5,0.7-0.5h1.6v3h2.5v2.1h-2.5v5.2c0,0.2,0.1,0.4,0.2,0.6c0.1,0.2,0.3,0.2,0.5,0.2c0.1,0,0.2,0,0.3,0
				s0.1-0.1,0.2-0.1c0.1,0,0.1-0.1,0.2-0.1c0,0,0.1,0,0.2,0c0.1,0,0.2,0,0.2,0.1s0.1,0.1,0.2,0.2l0.9,1.5c-0.4,0.3-0.9,0.5-1.4,0.7
				C215.6,213.2,215.1,213.3,214.6,213.3z"/>
			<path fill="#231F20" d="M223.4,202.6c0.7,0,1.3,0.1,1.9,0.3s1.1,0.5,1.5,0.9c0.4,0.4,0.7,0.9,1,1.5c0.2,0.6,0.3,1.3,0.3,2
				c0,0.2,0,0.4,0,0.6c0,0.1-0.1,0.3-0.1,0.4s-0.1,0.1-0.2,0.2c-0.1,0-0.2,0.1-0.3,0.1h-6c0.1,0.9,0.4,1.5,0.8,1.9
				c0.4,0.4,1,0.6,1.7,0.6c0.4,0,0.7,0,0.9-0.1c0.3-0.1,0.5-0.2,0.7-0.3c0.2-0.1,0.4-0.2,0.6-0.3c0.2-0.1,0.3-0.1,0.5-0.1
				c0.2,0,0.4,0.1,0.6,0.3l0.9,1.1c-0.3,0.4-0.7,0.7-1,0.9s-0.8,0.4-1.1,0.5s-0.8,0.2-1.2,0.3c-0.4,0.1-0.8,0.1-1.1,0.1
				c-0.7,0-1.4-0.1-2-0.4c-0.6-0.2-1.2-0.6-1.7-1.1c-0.5-0.5-0.9-1-1.1-1.7c-0.3-0.7-0.4-1.5-0.4-2.4c0-0.7,0.1-1.4,0.4-2
				c0.2-0.6,0.6-1.2,1-1.6s1-0.8,1.6-1.1C221.9,202.7,222.6,202.6,223.4,202.6z M223.5,204.7c-0.6,0-1.1,0.2-1.4,0.5
				s-0.6,0.8-0.7,1.5h3.9c0-0.2,0-0.5-0.1-0.7c-0.1-0.2-0.2-0.4-0.3-0.6c-0.1-0.2-0.3-0.3-0.6-0.4
				C224.1,204.8,223.8,204.7,223.5,204.7z"/>
			<path fill="#231F20" d="M234.2,213.1v-8.3l-0.7-0.1c-0.2-0.1-0.4-0.1-0.6-0.3c-0.1-0.1-0.2-0.3-0.2-0.5v-1.2h1.5v-0.6
				c0-0.6,0.1-1.1,0.3-1.6c0.2-0.5,0.5-0.9,0.8-1.2s0.8-0.6,1.3-0.8c0.5-0.2,1.1-0.3,1.8-0.3c0.3,0,0.5,0,0.7,0
				c0.2,0,0.4,0.1,0.7,0.1l-0.1,1.5c0,0.1,0,0.2-0.1,0.3c0,0.1-0.1,0.1-0.2,0.2c-0.1,0-0.2,0.1-0.2,0.1s-0.2,0-0.3,0
				c-0.3,0-0.5,0-0.7,0.1c-0.2,0.1-0.4,0.1-0.5,0.3c-0.1,0.1-0.3,0.3-0.3,0.5c-0.1,0.2-0.1,0.5-0.1,0.8v0.5h2.4v2.1h-2.3v8.2H234.2z
				"/>
			<path fill="#231F20" d="M245.6,202.6c0.8,0,1.5,0.1,2.2,0.4c0.6,0.2,1.2,0.6,1.7,1.1c0.5,0.5,0.8,1,1.1,1.7
				c0.3,0.7,0.4,1.4,0.4,2.2c0,0.8-0.1,1.6-0.4,2.2c-0.3,0.7-0.6,1.2-1.1,1.7c-0.5,0.5-1,0.8-1.7,1.1c-0.6,0.3-1.4,0.4-2.2,0.4
				c-0.8,0-1.5-0.1-2.2-0.4s-1.2-0.6-1.7-1.1c-0.5-0.5-0.8-1-1.1-1.7c-0.3-0.7-0.4-1.4-0.4-2.2c0-0.8,0.1-1.6,0.4-2.2
				c0.3-0.7,0.6-1.2,1.1-1.7s1-0.8,1.7-1.1C244.1,202.7,244.8,202.6,245.6,202.6z M245.6,211c0.7,0,1.2-0.3,1.6-0.8
				c0.3-0.5,0.5-1.3,0.5-2.3c0-1-0.2-1.8-0.5-2.3c-0.3-0.5-0.9-0.8-1.6-0.8c-0.7,0-1.3,0.3-1.6,0.8s-0.5,1.3-0.5,2.3
				c0,1,0.2,1.8,0.5,2.3S244.9,211,245.6,211z"/>
			<path fill="#231F20" d="M252.6,213.1v-10.4h1.8c0.2,0,0.3,0,0.4,0c0.1,0,0.2,0.1,0.3,0.1s0.1,0.1,0.2,0.2c0,0.1,0.1,0.2,0.1,0.3
				l0.2,1c0.4-0.6,0.8-1.1,1.3-1.4c0.5-0.3,1-0.5,1.6-0.5c0.5,0,0.9,0.1,1.1,0.3l-0.4,2.3c0,0.1-0.1,0.2-0.2,0.3
				c-0.1,0.1-0.2,0.1-0.3,0.1c-0.1,0-0.2,0-0.4,0c-0.2,0-0.3,0-0.6,0c-0.8,0-1.5,0.4-1.9,1.3v6.4H252.6z"/>
			<path fill="#231F20" d="M268,198.1v15h-3.1v-15H268z"/>
			<path fill="#231F20" d="M275.1,202.6c0.8,0,1.5,0.1,2.2,0.4c0.6,0.2,1.2,0.6,1.7,1.1c0.5,0.5,0.8,1,1.1,1.7
				c0.3,0.7,0.4,1.4,0.4,2.2c0,0.8-0.1,1.6-0.4,2.2c-0.3,0.7-0.6,1.2-1.1,1.7c-0.5,0.5-1,0.8-1.7,1.1c-0.6,0.3-1.4,0.4-2.2,0.4
				c-0.8,0-1.5-0.1-2.2-0.4s-1.2-0.6-1.7-1.1c-0.5-0.5-0.8-1-1.1-1.7c-0.3-0.7-0.4-1.4-0.4-2.2c0-0.8,0.1-1.6,0.4-2.2
				c0.3-0.7,0.6-1.2,1.1-1.7s1-0.8,1.7-1.1C273.6,202.7,274.3,202.6,275.1,202.6z M275.1,211c0.7,0,1.2-0.3,1.6-0.8
				c0.3-0.5,0.5-1.3,0.5-2.3c0-1-0.2-1.8-0.5-2.3c-0.3-0.5-0.9-0.8-1.6-0.8c-0.7,0-1.3,0.3-1.6,0.8s-0.5,1.3-0.5,2.3
				c0,1,0.2,1.8,0.5,2.3S274.4,211,275.1,211z"/>
			<path fill="#231F20" d="M280.9,202.8h2.5c0.2,0,0.4,0.1,0.6,0.2s0.3,0.2,0.3,0.4l1,4.7c0.1,0.4,0.2,0.7,0.2,1
				c0.1,0.3,0.1,0.7,0.2,1c0.1-0.3,0.2-0.7,0.3-1c0.1-0.3,0.2-0.7,0.3-1l1.3-4.7c0-0.2,0.1-0.3,0.3-0.4s0.3-0.2,0.5-0.2h1.4
				c0.2,0,0.4,0.1,0.6,0.2s0.3,0.2,0.3,0.4l1.2,4.7c0.1,0.4,0.2,0.7,0.3,1s0.2,0.7,0.3,1c0.1-0.3,0.1-0.7,0.2-1
				c0.1-0.3,0.2-0.7,0.2-1l1.1-4.7c0-0.2,0.1-0.3,0.3-0.4s0.3-0.2,0.5-0.2h2.4l-3.2,10.4h-2.5c-0.1,0-0.2,0-0.3-0.1
				c-0.1-0.1-0.2-0.2-0.2-0.4l-1.5-5.2c-0.1-0.2-0.1-0.5-0.2-0.7c-0.1-0.2-0.1-0.5-0.2-0.7c0,0.2-0.1,0.5-0.2,0.7
				c-0.1,0.2-0.1,0.5-0.2,0.7l-1.5,5.2c-0.1,0.3-0.3,0.5-0.7,0.5h-2.4L280.9,202.8z"/>
			<path fill="#231F20" d="M309.7,205.2c-0.1,0.1-0.2,0.2-0.3,0.3s-0.2,0.1-0.4,0.1c-0.2,0-0.3,0-0.4-0.1c-0.1-0.1-0.3-0.2-0.4-0.2
				c-0.2-0.1-0.3-0.2-0.5-0.2c-0.2-0.1-0.5-0.1-0.8-0.1c-0.4,0-0.7,0.1-1,0.2c-0.3,0.1-0.5,0.3-0.7,0.6s-0.3,0.6-0.4,1
				c-0.1,0.4-0.1,0.8-0.1,1.3c0,1,0.2,1.8,0.6,2.3c0.4,0.5,0.9,0.8,1.6,0.8c0.4,0,0.6,0,0.9-0.1c0.2-0.1,0.4-0.2,0.5-0.3
				c0.1-0.1,0.3-0.2,0.4-0.3s0.3-0.1,0.5-0.1c0.2,0,0.4,0.1,0.6,0.3l0.9,1.1c-0.3,0.4-0.7,0.7-1,0.9s-0.7,0.4-1.1,0.5
				c-0.4,0.1-0.7,0.2-1.1,0.3c-0.4,0.1-0.7,0.1-1.1,0.1c-0.6,0-1.2-0.1-1.8-0.4c-0.6-0.2-1.1-0.6-1.5-1c-0.4-0.5-0.8-1-1-1.7
				c-0.3-0.7-0.4-1.4-0.4-2.3c0-0.7,0.1-1.4,0.3-2.1c0.2-0.7,0.6-1.2,1-1.7c0.4-0.5,1-0.9,1.6-1.1c0.6-0.3,1.4-0.4,2.2-0.4
				c0.8,0,1.5,0.1,2.1,0.4c0.6,0.3,1.2,0.6,1.7,1.1L309.7,205.2z"/>
			<path fill="#231F20" d="M316.6,202.6c0.8,0,1.5,0.1,2.2,0.4c0.6,0.2,1.2,0.6,1.7,1.1c0.5,0.5,0.8,1,1.1,1.7
				c0.3,0.7,0.4,1.4,0.4,2.2c0,0.8-0.1,1.6-0.4,2.2c-0.3,0.7-0.6,1.2-1.1,1.7c-0.5,0.5-1,0.8-1.7,1.1c-0.6,0.3-1.4,0.4-2.2,0.4
				c-0.8,0-1.5-0.1-2.2-0.4s-1.2-0.6-1.7-1.1c-0.5-0.5-0.8-1-1.1-1.7c-0.3-0.7-0.4-1.4-0.4-2.2c0-0.8,0.1-1.6,0.4-2.2
				c0.3-0.7,0.6-1.2,1.1-1.7s1-0.8,1.7-1.1C315.1,202.7,315.8,202.6,316.6,202.6z M316.6,211c0.7,0,1.2-0.3,1.6-0.8
				c0.3-0.5,0.5-1.3,0.5-2.3c0-1-0.2-1.8-0.5-2.3c-0.3-0.5-0.9-0.8-1.6-0.8c-0.7,0-1.3,0.3-1.6,0.8s-0.5,1.3-0.5,2.3
				c0,1,0.2,1.8,0.5,2.3S315.9,211,316.6,211z"/>
			<path fill="#231F20" d="M330,205c-0.1,0.1-0.2,0.2-0.3,0.3c-0.1,0.1-0.2,0.1-0.3,0.1c-0.1,0-0.3,0-0.4-0.1
				c-0.1-0.1-0.3-0.1-0.5-0.2c-0.2-0.1-0.4-0.1-0.6-0.2s-0.5-0.1-0.7-0.1c-0.4,0-0.7,0.1-0.9,0.2c-0.2,0.2-0.3,0.4-0.3,0.6
				c0,0.2,0.1,0.4,0.2,0.5s0.3,0.2,0.5,0.3c0.2,0.1,0.5,0.2,0.8,0.3c0.3,0.1,0.6,0.2,0.9,0.3c0.3,0.1,0.6,0.2,0.9,0.4
				c0.3,0.1,0.5,0.3,0.8,0.5c0.2,0.2,0.4,0.5,0.5,0.8c0.1,0.3,0.2,0.7,0.2,1.1c0,0.5-0.1,1-0.3,1.4c-0.2,0.4-0.5,0.8-0.8,1.1
				c-0.4,0.3-0.8,0.6-1.4,0.7c-0.5,0.2-1.2,0.3-1.9,0.3c-0.4,0-0.7,0-1.1-0.1c-0.4-0.1-0.7-0.2-1-0.3c-0.3-0.1-0.6-0.2-0.9-0.4
				c-0.3-0.2-0.5-0.3-0.7-0.5l0.7-1.1c0.1-0.1,0.2-0.2,0.3-0.3s0.3-0.1,0.5-0.1c0.2,0,0.3,0,0.5,0.1s0.3,0.2,0.5,0.3
				c0.2,0.1,0.4,0.2,0.6,0.3c0.2,0.1,0.5,0.1,0.8,0.1c0.2,0,0.4,0,0.6-0.1c0.2-0.1,0.3-0.1,0.4-0.2c0.1-0.1,0.2-0.2,0.2-0.3
				s0.1-0.2,0.1-0.3c0-0.2-0.1-0.4-0.2-0.5c-0.1-0.1-0.3-0.2-0.6-0.3c-0.2-0.1-0.5-0.2-0.8-0.3c-0.3-0.1-0.6-0.2-0.9-0.3
				c-0.3-0.1-0.6-0.2-0.9-0.4s-0.5-0.3-0.8-0.6c-0.2-0.2-0.4-0.5-0.6-0.8c-0.1-0.3-0.2-0.7-0.2-1.2c0-0.4,0.1-0.9,0.3-1.3
				c0.2-0.4,0.4-0.7,0.8-1c0.3-0.3,0.8-0.5,1.3-0.7c0.5-0.2,1.1-0.3,1.8-0.3c0.4,0,0.7,0,1.1,0.1s0.7,0.2,1,0.3
				c0.3,0.1,0.6,0.3,0.8,0.4s0.5,0.3,0.7,0.5L330,205z"/>
			<path fill="#231F20" d="M336.1,213.3c-0.5,0-0.9-0.1-1.3-0.2c-0.4-0.1-0.7-0.3-1-0.6c-0.3-0.3-0.5-0.6-0.6-1
				c-0.1-0.4-0.2-0.8-0.2-1.3v-5.4h-0.9c-0.2,0-0.3-0.1-0.4-0.2c-0.1-0.1-0.2-0.3-0.2-0.5v-1.2l1.7-0.3l0.6-2.5
				c0.1-0.3,0.3-0.5,0.7-0.5h1.6v3h2.5v2.1h-2.5v5.2c0,0.2,0.1,0.4,0.2,0.6c0.1,0.2,0.3,0.2,0.5,0.2c0.1,0,0.2,0,0.3,0
				s0.1-0.1,0.2-0.1c0.1,0,0.1-0.1,0.2-0.1c0,0,0.1,0,0.2,0c0.1,0,0.2,0,0.2,0.1s0.1,0.1,0.2,0.2l0.9,1.5c-0.4,0.3-0.9,0.5-1.4,0.7
				C337.1,213.2,336.6,213.3,336.1,213.3z"/>
			<path fill="#231F20" d="M352.2,213.1c-0.2,0-0.3-0.1-0.4-0.3l-0.1-1.3c-0.3,0.3-0.5,0.5-0.8,0.7c-0.3,0.2-0.6,0.4-0.8,0.5
				s-0.6,0.3-1,0.3c-0.3,0.1-0.7,0.1-1.1,0.1c-0.3,0-0.7,0-1-0.1c-0.3-0.1-0.6-0.3-0.9-0.5c-0.2-0.2-0.4-0.5-0.6-0.8
				c-0.2-0.3-0.2-0.7-0.2-1.2c0-0.4,0.1-0.8,0.4-1.2c0.2-0.4,0.6-0.7,1.1-0.9c0.5-0.3,1.2-0.5,2-0.6c0.8-0.2,1.8-0.3,2.9-0.3v-1
				c0-0.9-0.2-1.6-0.6-2.1s-1-0.7-1.8-0.7c-0.5,0-0.9,0.1-1.2,0.2c-0.3,0.1-0.6,0.3-0.9,0.4c-0.2,0.2-0.4,0.3-0.6,0.4
				c-0.1,0.1-0.3,0.2-0.4,0.2c-0.1,0-0.2-0.1-0.3-0.2l-0.2-0.3c0.5-0.5,1.1-0.9,1.6-1.2c0.6-0.3,1.2-0.4,2-0.4c0.5,0,1,0.1,1.4,0.3
				c0.4,0.2,0.7,0.4,1,0.7c0.3,0.3,0.5,0.7,0.6,1.2c0.1,0.5,0.2,1,0.2,1.5v6.5H352.2z M348.2,212.6c0.4,0,0.7,0,1.1-0.1
				s0.6-0.2,0.9-0.4s0.5-0.3,0.8-0.5c0.2-0.2,0.5-0.4,0.7-0.7v-2.6c-0.9,0-1.8,0.1-2.5,0.2c-0.7,0.1-1.2,0.3-1.7,0.5
				c-0.4,0.2-0.8,0.4-1,0.7c-0.2,0.3-0.3,0.6-0.3,0.9c0,0.3,0.1,0.6,0.2,0.9c0.1,0.2,0.3,0.4,0.4,0.6c0.2,0.2,0.4,0.3,0.6,0.3
				C347.7,212.6,347.9,212.6,348.2,212.6z"/>
			<path fill="#231F20" d="M355.6,213.1v-10h0.5c0.2,0,0.3,0.1,0.3,0.3l0.1,1.5c0.5-0.6,1-1,1.6-1.4c0.6-0.4,1.3-0.5,2-0.5
				c0.5,0,1,0.1,1.4,0.3c0.4,0.2,0.8,0.4,1,0.8c0.3,0.3,0.5,0.7,0.6,1.2c0.1,0.5,0.2,1,0.2,1.6v6.4h-1v-6.4c0-0.9-0.2-1.7-0.6-2.2
				c-0.4-0.5-1.1-0.8-2-0.8c-0.7,0-1.3,0.2-1.8,0.5s-1.1,0.8-1.5,1.4v7.5H355.6z"/>
			<path fill="#231F20" d="M373.5,213.1c-0.2,0-0.3-0.1-0.3-0.3l-0.1-1.6c-0.4,0.6-1,1.1-1.5,1.4c-0.6,0.4-1.3,0.5-2,0.5
				c-1.2,0-2.2-0.4-2.9-1.3s-1-2.1-1-3.8c0-0.7,0.1-1.4,0.3-2c0.2-0.6,0.5-1.2,0.8-1.6s0.8-0.8,1.4-1.1c0.5-0.3,1.2-0.4,1.9-0.4
				c0.7,0,1.3,0.1,1.8,0.4s0.9,0.6,1.3,1.1v-5.9h1v14.6H373.5z M369.8,212.5c0.7,0,1.3-0.2,1.8-0.5c0.5-0.3,1-0.8,1.4-1.4v-5.3
				c-0.4-0.6-0.8-1-1.3-1.2s-1-0.4-1.6-0.4s-1.1,0.1-1.5,0.3c-0.4,0.2-0.8,0.5-1.1,0.9c-0.3,0.4-0.5,0.9-0.7,1.4s-0.2,1.1-0.2,1.8
				c0,1.5,0.3,2.6,0.8,3.3C368,212.2,368.8,212.5,369.8,212.5z"/>
			<path fill="#231F20" d="M386.7,204.4c0,0.1-0.1,0.1-0.2,0.1c-0.1,0-0.2,0-0.3-0.1s-0.3-0.2-0.5-0.3c-0.2-0.1-0.4-0.2-0.7-0.3
				s-0.6-0.1-1-0.1c-0.4,0-0.7,0.1-1,0.2c-0.3,0.1-0.6,0.2-0.8,0.4c-0.2,0.2-0.4,0.4-0.5,0.6c-0.1,0.2-0.2,0.5-0.2,0.7
				c0,0.3,0.1,0.6,0.2,0.8s0.4,0.4,0.6,0.5c0.3,0.1,0.6,0.3,0.9,0.4c0.3,0.1,0.7,0.2,1,0.3c0.3,0.1,0.7,0.2,1,0.4
				c0.3,0.1,0.6,0.3,0.9,0.5c0.3,0.2,0.5,0.4,0.6,0.7c0.2,0.3,0.2,0.6,0.2,1c0,0.4-0.1,0.8-0.2,1.2s-0.4,0.7-0.7,1
				c-0.3,0.3-0.7,0.5-1.1,0.7c-0.4,0.2-0.9,0.2-1.5,0.2c-0.7,0-1.3-0.1-1.8-0.3s-1-0.5-1.4-0.9l0.2-0.3c0-0.1,0.1-0.1,0.1-0.1
				s0.1,0,0.2,0c0.1,0,0.2,0.1,0.3,0.2s0.3,0.2,0.5,0.3s0.5,0.2,0.8,0.3s0.7,0.2,1.1,0.2c0.4,0,0.8-0.1,1.1-0.2
				c0.3-0.1,0.6-0.3,0.8-0.5c0.2-0.2,0.4-0.4,0.5-0.7c0.1-0.3,0.2-0.6,0.2-0.9c0-0.3-0.1-0.6-0.2-0.8c-0.2-0.2-0.4-0.4-0.6-0.6
				c-0.3-0.2-0.6-0.3-0.9-0.4s-0.7-0.2-1-0.3s-0.7-0.2-1-0.4c-0.3-0.1-0.6-0.3-0.9-0.5s-0.5-0.4-0.6-0.7c-0.2-0.3-0.2-0.6-0.2-1
				c0-0.4,0.1-0.7,0.2-1c0.2-0.3,0.4-0.6,0.7-0.9c0.3-0.2,0.6-0.4,1-0.6c0.4-0.1,0.9-0.2,1.4-0.2c0.6,0,1.1,0.1,1.6,0.3
				s0.9,0.4,1.3,0.8L386.7,204.4z"/>
			<path fill="#231F20" d="M393.6,203c0.6,0,1.1,0.1,1.6,0.3s0.9,0.5,1.2,0.8c0.4,0.4,0.6,0.8,0.8,1.4c0.2,0.5,0.3,1.2,0.3,1.9
				c0,0.1,0,0.2-0.1,0.3c0,0.1-0.1,0.1-0.2,0.1h-7.2v0.2c0,0.7,0.1,1.4,0.3,2c0.2,0.6,0.4,1,0.7,1.4c0.3,0.4,0.7,0.7,1.2,0.9
				c0.5,0.2,1,0.3,1.5,0.3c0.5,0,0.9-0.1,1.3-0.2s0.7-0.2,0.9-0.4c0.3-0.1,0.4-0.3,0.6-0.4c0.1-0.1,0.3-0.2,0.3-0.2
				c0.1,0,0.2,0,0.2,0.1l0.3,0.3c-0.2,0.2-0.4,0.4-0.6,0.6c-0.3,0.2-0.6,0.3-0.9,0.4c-0.3,0.1-0.7,0.2-1,0.3s-0.7,0.1-1.1,0.1
				c-0.7,0-1.3-0.1-1.9-0.4c-0.6-0.2-1-0.6-1.4-1c-0.4-0.5-0.7-1-0.9-1.7c-0.2-0.7-0.3-1.4-0.3-2.3c0-0.7,0.1-1.4,0.3-2
				c0.2-0.6,0.5-1.1,0.9-1.6c0.4-0.4,0.9-0.8,1.4-1C392.3,203.1,392.9,203,393.6,203z M393.6,203.7c-0.5,0-1,0.1-1.4,0.2
				c-0.4,0.2-0.8,0.4-1.1,0.7s-0.5,0.7-0.7,1.1s-0.3,0.9-0.4,1.4h6.6c0-0.5-0.1-1-0.2-1.4c-0.1-0.4-0.4-0.8-0.6-1.1
				c-0.3-0.3-0.6-0.5-1-0.7C394.5,203.8,394.1,203.7,393.6,203.7z"/>
			<path fill="#231F20" d="M401.3,198.6v14.6h-1v-14.6H401.3z"/>
			<path fill="#231F20" d="M406.1,198.6v14.6h-1v-14.6H406.1z"/>
			<path fill="#231F20" d="M149.9,237.4c-0.7,0-1.2-0.2-1.6-0.6c-0.4-0.4-0.6-1-0.6-1.7v-6.8h-1.4c-0.1,0-0.1,0-0.2-0.1
				c0,0-0.1-0.1-0.1-0.2v-0.4l1.7-0.1l0.2-3.6c0-0.1,0-0.1,0.1-0.2c0,0,0.1-0.1,0.2-0.1h0.4v3.8h3.1v0.7h-3.1v6.8
				c0,0.3,0,0.5,0.1,0.7c0.1,0.2,0.2,0.4,0.3,0.5s0.3,0.2,0.4,0.3c0.2,0.1,0.3,0.1,0.5,0.1c0.2,0,0.4,0,0.6-0.1s0.3-0.1,0.5-0.2
				s0.2-0.2,0.3-0.2c0.1-0.1,0.1-0.1,0.2-0.1c0.1,0,0.1,0,0.2,0.1l0.3,0.4c-0.3,0.3-0.6,0.5-1,0.7
				C150.7,237.3,150.3,237.4,149.9,237.4z"/>
			<path fill="#231F20" d="M154.3,237.2v-14.6h1v6.3c0.5-0.6,1-1,1.6-1.4c0.6-0.3,1.3-0.5,2-0.5c0.5,0,1,0.1,1.4,0.3
				c0.4,0.2,0.8,0.4,1,0.8c0.3,0.3,0.5,0.7,0.6,1.2c0.1,0.5,0.2,1,0.2,1.6v6.4h-1v-6.4c0-0.9-0.2-1.7-0.6-2.2
				c-0.4-0.5-1.1-0.8-2-0.8c-0.7,0-1.3,0.2-1.8,0.5s-1.1,0.8-1.5,1.4v7.5H154.3z"/>
			<path fill="#231F20" d="M168.9,227.1c0.6,0,1.1,0.1,1.6,0.3s0.9,0.5,1.2,0.8c0.4,0.4,0.6,0.8,0.8,1.4c0.2,0.5,0.3,1.2,0.3,1.9
				c0,0.1,0,0.2-0.1,0.3c0,0.1-0.1,0.1-0.2,0.1h-7.2v0.2c0,0.7,0.1,1.4,0.3,2c0.2,0.6,0.4,1,0.7,1.4c0.3,0.4,0.7,0.7,1.2,0.9
				c0.5,0.2,1,0.3,1.5,0.3c0.5,0,0.9-0.1,1.3-0.2s0.7-0.2,0.9-0.4c0.3-0.1,0.4-0.3,0.6-0.4c0.1-0.1,0.3-0.2,0.3-0.2
				c0.1,0,0.2,0,0.2,0.1l0.3,0.3c-0.2,0.2-0.4,0.4-0.6,0.6c-0.3,0.2-0.6,0.3-0.9,0.4c-0.3,0.1-0.7,0.2-1,0.3s-0.7,0.1-1.1,0.1
				c-0.7,0-1.3-0.1-1.9-0.4c-0.6-0.2-1-0.6-1.4-1c-0.4-0.5-0.7-1-0.9-1.7c-0.2-0.7-0.3-1.4-0.3-2.3c0-0.7,0.1-1.4,0.3-2
				c0.2-0.6,0.5-1.1,0.9-1.6c0.4-0.4,0.9-0.8,1.4-1C167.5,227.2,168.2,227.1,168.9,227.1z M168.9,227.8c-0.5,0-1,0.1-1.4,0.2
				c-0.4,0.2-0.8,0.4-1.1,0.7s-0.5,0.7-0.7,1.1s-0.3,0.9-0.4,1.4h6.6c0-0.5-0.1-1-0.2-1.4c-0.1-0.4-0.4-0.8-0.6-1.1
				c-0.3-0.3-0.6-0.5-1-0.7C169.8,227.9,169.4,227.8,168.9,227.8z"/>
			<path fill="#231F20" d="M177,223.8c0,0.1,0,0.2-0.1,0.3s-0.1,0.2-0.2,0.3s-0.2,0.1-0.3,0.2c-0.1,0-0.2,0.1-0.3,0.1
				c-0.1,0-0.2,0-0.3-0.1c-0.1,0-0.2-0.1-0.3-0.2s-0.1-0.2-0.2-0.3s-0.1-0.2-0.1-0.3s0-0.2,0.1-0.3s0.1-0.2,0.2-0.3s0.2-0.1,0.3-0.2
				c0.1,0,0.2-0.1,0.3-0.1c0.1,0,0.2,0,0.3,0.1c0.1,0,0.2,0.1,0.3,0.2s0.1,0.2,0.2,0.3S177,223.7,177,223.8z M176.6,227.2v10h-1v-10
				H176.6z"/>
			<path fill="#231F20" d="M180.1,237.2v-10h0.5c0.1,0,0.2,0,0.2,0.1s0.1,0.1,0.1,0.2l0.1,2.1c0.3-0.8,0.7-1.4,1.3-1.9
				c0.5-0.5,1.2-0.7,2-0.7c0.3,0,0.6,0,0.8,0.1s0.5,0.2,0.7,0.3l-0.1,0.7c0,0.1-0.1,0.2-0.2,0.2c0,0-0.1,0-0.2,0
				c-0.1,0-0.2-0.1-0.3-0.1c-0.1,0-0.2-0.1-0.4-0.1c-0.2,0-0.3,0-0.6,0c-0.8,0-1.4,0.2-1.9,0.7s-0.9,1.1-1.2,2v6.5H180.1z"/>
			<path fill="#231F20" d="M198.5,228.6C198.5,228.6,198.5,228.6,198.5,228.6c-0.1,0.1-0.2,0.1-0.2,0.1c-0.1,0-0.2,0-0.3-0.1
				c-0.1-0.1-0.3-0.2-0.5-0.3c-0.2-0.1-0.4-0.2-0.7-0.3c-0.3-0.1-0.6-0.1-1.1-0.1c-0.6,0-1.1,0.1-1.5,0.3c-0.4,0.2-0.8,0.5-1.1,0.9
				s-0.5,0.8-0.7,1.4c-0.2,0.5-0.2,1.1-0.2,1.8c0,0.7,0.1,1.3,0.2,1.9s0.4,1,0.7,1.4c0.3,0.4,0.7,0.7,1.1,0.8s0.9,0.3,1.4,0.3
				c0.5,0,0.9-0.1,1.2-0.2c0.3-0.1,0.6-0.2,0.8-0.4c0.2-0.1,0.4-0.3,0.5-0.4c0.1-0.1,0.2-0.2,0.3-0.2c0.1,0,0.2,0,0.2,0.1l0.3,0.3
				c-0.2,0.2-0.3,0.4-0.6,0.6c-0.2,0.2-0.5,0.3-0.8,0.5s-0.6,0.2-1,0.3c-0.3,0.1-0.7,0.1-1.1,0.1c-0.6,0-1.2-0.1-1.7-0.3
				s-1-0.6-1.4-1c-0.4-0.4-0.7-1-0.9-1.6c-0.2-0.6-0.3-1.4-0.3-2.2c0-0.8,0.1-1.5,0.3-2.1s0.5-1.2,0.9-1.6c0.4-0.5,0.9-0.8,1.4-1.1
				c0.6-0.3,1.2-0.4,1.9-0.4c0.6,0,1.2,0.1,1.7,0.3c0.5,0.2,0.9,0.5,1.3,0.8L198.5,228.6z"/>
			<path fill="#231F20" d="M201.1,237.2v-10h0.5c0.1,0,0.2,0,0.2,0.1s0.1,0.1,0.1,0.2l0.1,2.1c0.3-0.8,0.7-1.4,1.3-1.9
				c0.5-0.5,1.2-0.7,2-0.7c0.3,0,0.6,0,0.8,0.1s0.5,0.2,0.7,0.3l-0.1,0.7c0,0.1-0.1,0.2-0.2,0.2c0,0-0.1,0-0.2,0
				c-0.1,0-0.2-0.1-0.3-0.1c-0.1,0-0.2-0.1-0.4-0.1c-0.2,0-0.3,0-0.6,0c-0.8,0-1.4,0.2-1.9,0.7s-0.9,1.1-1.2,2v6.5H201.1z"/>
			<path fill="#231F20" d="M212.8,227.1c0.6,0,1.1,0.1,1.6,0.3s0.9,0.5,1.2,0.8c0.4,0.4,0.6,0.8,0.8,1.4c0.2,0.5,0.3,1.2,0.3,1.9
				c0,0.1,0,0.2-0.1,0.3c0,0.1-0.1,0.1-0.2,0.1h-7.2v0.2c0,0.7,0.1,1.4,0.3,2c0.2,0.6,0.4,1,0.7,1.4c0.3,0.4,0.7,0.7,1.2,0.9
				c0.5,0.2,1,0.3,1.5,0.3c0.5,0,0.9-0.1,1.3-0.2s0.7-0.2,0.9-0.4c0.3-0.1,0.4-0.3,0.6-0.4c0.1-0.1,0.3-0.2,0.3-0.2
				c0.1,0,0.2,0,0.2,0.1l0.3,0.3c-0.2,0.2-0.4,0.4-0.6,0.6c-0.3,0.2-0.6,0.3-0.9,0.4c-0.3,0.1-0.7,0.2-1,0.3s-0.7,0.1-1.1,0.1
				c-0.7,0-1.3-0.1-1.9-0.4c-0.6-0.2-1-0.6-1.4-1c-0.4-0.5-0.7-1-0.9-1.7c-0.2-0.7-0.3-1.4-0.3-2.3c0-0.7,0.1-1.4,0.3-2
				c0.2-0.6,0.5-1.1,0.9-1.6c0.4-0.4,0.9-0.8,1.4-1C211.4,227.2,212.1,227.1,212.8,227.1z M212.8,227.8c-0.5,0-1,0.1-1.4,0.2
				c-0.4,0.2-0.8,0.4-1.1,0.7s-0.5,0.7-0.7,1.1s-0.3,0.9-0.4,1.4h6.6c0-0.5-0.1-1-0.2-1.4c-0.1-0.4-0.4-0.8-0.6-1.1
				c-0.3-0.3-0.6-0.5-1-0.7C213.7,227.9,213.3,227.8,212.8,227.8z"/>
			<path fill="#231F20" d="M225.6,237.2c-0.2,0-0.3-0.1-0.4-0.3l-0.1-1.3c-0.3,0.3-0.5,0.5-0.8,0.7c-0.3,0.2-0.6,0.4-0.8,0.5
				s-0.6,0.3-1,0.3c-0.3,0.1-0.7,0.1-1.1,0.1c-0.3,0-0.7,0-1-0.1c-0.3-0.1-0.6-0.3-0.9-0.5c-0.2-0.2-0.4-0.5-0.6-0.8
				c-0.2-0.3-0.2-0.7-0.2-1.2c0-0.4,0.1-0.8,0.4-1.2c0.2-0.4,0.6-0.7,1.1-0.9c0.5-0.3,1.2-0.5,2-0.6c0.8-0.2,1.8-0.3,2.9-0.3v-1
				c0-0.9-0.2-1.6-0.6-2.1s-1-0.7-1.8-0.7c-0.5,0-0.9,0.1-1.2,0.2c-0.3,0.1-0.6,0.3-0.9,0.4c-0.2,0.2-0.4,0.3-0.6,0.4
				c-0.1,0.1-0.3,0.2-0.4,0.2c-0.1,0-0.2-0.1-0.3-0.2l-0.2-0.3c0.5-0.5,1.1-0.9,1.6-1.2c0.6-0.3,1.2-0.4,2-0.4c0.5,0,1,0.1,1.4,0.3
				c0.4,0.2,0.7,0.4,1,0.7c0.3,0.3,0.5,0.7,0.6,1.2c0.1,0.5,0.2,1,0.2,1.5v6.5H225.6z M221.6,236.7c0.4,0,0.7,0,1.1-0.1
				s0.6-0.2,0.9-0.4s0.5-0.3,0.8-0.5c0.2-0.2,0.5-0.4,0.7-0.7v-2.6c-0.9,0-1.8,0.1-2.5,0.2c-0.7,0.1-1.2,0.3-1.7,0.5
				c-0.4,0.2-0.8,0.4-1,0.7c-0.2,0.3-0.3,0.6-0.3,0.9c0,0.3,0.1,0.6,0.2,0.9c0.1,0.2,0.3,0.4,0.4,0.6c0.2,0.2,0.4,0.3,0.6,0.3
				C221.1,236.6,221.4,236.7,221.6,236.7z"/>
			<path fill="#231F20" d="M231.7,237.4c-0.7,0-1.2-0.2-1.6-0.6c-0.4-0.4-0.6-1-0.6-1.7v-6.8h-1.4c-0.1,0-0.1,0-0.2-0.1
				c0,0-0.1-0.1-0.1-0.2v-0.4l1.7-0.1l0.2-3.6c0-0.1,0-0.1,0.1-0.2c0,0,0.1-0.1,0.2-0.1h0.4v3.8h3.1v0.7h-3.1v6.8
				c0,0.3,0,0.5,0.1,0.7c0.1,0.2,0.2,0.4,0.3,0.5s0.3,0.2,0.4,0.3c0.2,0.1,0.3,0.1,0.5,0.1c0.2,0,0.4,0,0.6-0.1s0.3-0.1,0.5-0.2
				s0.2-0.2,0.3-0.2c0.1-0.1,0.1-0.1,0.2-0.1c0.1,0,0.1,0,0.2,0.1l0.3,0.4c-0.3,0.3-0.6,0.5-1,0.7
				C232.6,237.3,232.2,237.4,231.7,237.4z"/>
			<path fill="#231F20" d="M237.8,223.8c0,0.1,0,0.2-0.1,0.3s-0.1,0.2-0.2,0.3s-0.2,0.1-0.3,0.2c-0.1,0-0.2,0.1-0.3,0.1
				c-0.1,0-0.2,0-0.3-0.1c-0.1,0-0.2-0.1-0.3-0.2s-0.1-0.2-0.2-0.3s-0.1-0.2-0.1-0.3s0-0.2,0.1-0.3s0.1-0.2,0.2-0.3s0.2-0.1,0.3-0.2
				c0.1,0,0.2-0.1,0.3-0.1c0.1,0,0.2,0,0.3,0.1c0.1,0,0.2,0.1,0.3,0.2s0.1,0.2,0.2,0.3S237.8,223.7,237.8,223.8z M237.4,227.2v10h-1
				v-10H237.4z"/>
			<path fill="#231F20" d="M244.7,227.1c0.7,0,1.4,0.1,1.9,0.4c0.6,0.2,1,0.6,1.4,1c0.4,0.4,0.7,1,0.9,1.6s0.3,1.3,0.3,2.1
				s-0.1,1.5-0.3,2.1c-0.2,0.6-0.5,1.2-0.9,1.6s-0.9,0.8-1.4,1c-0.6,0.2-1.2,0.4-1.9,0.4s-1.4-0.1-1.9-0.4s-1-0.6-1.4-1
				s-0.7-1-0.9-1.6c-0.2-0.6-0.3-1.3-0.3-2.1s0.1-1.5,0.3-2.1c0.2-0.6,0.5-1.2,0.9-1.6c0.4-0.4,0.9-0.8,1.4-1
				C243.4,227.2,244,227.1,244.7,227.1z M244.7,236.6c0.6,0,1.1-0.1,1.6-0.3c0.4-0.2,0.8-0.5,1.1-0.9s0.5-0.8,0.7-1.4
				c0.1-0.5,0.2-1.1,0.2-1.8c0-0.7-0.1-1.3-0.2-1.8c-0.1-0.5-0.4-1-0.7-1.4s-0.7-0.7-1.1-0.9c-0.4-0.2-1-0.3-1.6-0.3
				s-1.1,0.1-1.6,0.3c-0.4,0.2-0.8,0.5-1.1,0.9s-0.5,0.8-0.7,1.4c-0.2,0.5-0.2,1.1-0.2,1.8c0,0.7,0.1,1.3,0.2,1.8
				c0.1,0.5,0.4,1,0.7,1.4s0.7,0.7,1.1,0.9C243.6,236.5,244.1,236.6,244.7,236.6z"/>
			<path fill="#231F20" d="M251.8,237.2v-10h0.5c0.2,0,0.3,0.1,0.3,0.3l0.1,1.5c0.5-0.6,1-1,1.6-1.4c0.6-0.4,1.3-0.5,2-0.5
				c0.5,0,1,0.1,1.4,0.3c0.4,0.2,0.8,0.4,1,0.8c0.3,0.3,0.5,0.7,0.6,1.2c0.1,0.5,0.2,1,0.2,1.6v6.4h-1v-6.4c0-0.9-0.2-1.7-0.6-2.2
				c-0.4-0.5-1.1-0.8-2-0.8c-0.7,0-1.3,0.2-1.8,0.5s-1.1,0.8-1.5,1.4v7.5H251.8z"/>
			<path fill="#231F20" d="M268.1,228.5c0,0.1-0.1,0.1-0.2,0.1c-0.1,0-0.2,0-0.3-0.1s-0.3-0.2-0.5-0.3c-0.2-0.1-0.4-0.2-0.7-0.3
				s-0.6-0.1-1-0.1c-0.4,0-0.7,0.1-1,0.2c-0.3,0.1-0.6,0.2-0.8,0.4c-0.2,0.2-0.4,0.4-0.5,0.6c-0.1,0.2-0.2,0.5-0.2,0.7
				c0,0.3,0.1,0.6,0.2,0.8s0.4,0.4,0.6,0.5c0.3,0.1,0.6,0.3,0.9,0.4c0.3,0.1,0.7,0.2,1,0.3c0.3,0.1,0.7,0.2,1,0.4
				c0.3,0.1,0.6,0.3,0.9,0.5c0.3,0.2,0.5,0.4,0.6,0.7c0.2,0.3,0.2,0.6,0.2,1c0,0.4-0.1,0.8-0.2,1.2s-0.4,0.7-0.7,1
				c-0.3,0.3-0.7,0.5-1.1,0.7c-0.4,0.2-0.9,0.2-1.5,0.2c-0.7,0-1.3-0.1-1.8-0.3s-1-0.5-1.4-0.9l0.2-0.3c0-0.1,0.1-0.1,0.1-0.1
				s0.1,0,0.2,0c0.1,0,0.2,0.1,0.3,0.2s0.3,0.2,0.5,0.3s0.5,0.2,0.8,0.3s0.7,0.2,1.1,0.2c0.4,0,0.8-0.1,1.1-0.2
				c0.3-0.1,0.6-0.3,0.8-0.5c0.2-0.2,0.4-0.4,0.5-0.7c0.1-0.3,0.2-0.6,0.2-0.9c0-0.3-0.1-0.6-0.2-0.8c-0.2-0.2-0.4-0.4-0.6-0.6
				c-0.3-0.2-0.6-0.3-0.9-0.4s-0.7-0.2-1-0.3s-0.7-0.2-1-0.4c-0.3-0.1-0.6-0.3-0.9-0.5s-0.5-0.4-0.6-0.7c-0.2-0.3-0.2-0.6-0.2-1
				c0-0.4,0.1-0.7,0.2-1c0.2-0.3,0.4-0.6,0.7-0.9c0.3-0.2,0.6-0.4,1-0.6c0.4-0.1,0.9-0.2,1.4-0.2c0.6,0,1.1,0.1,1.6,0.3
				s0.9,0.4,1.3,0.8L268.1,228.5z"/>
			<path fill="#231F20" d="M279.4,226.6c0.4,0,0.9,0,1.2,0.1c0.4,0.1,0.8,0.2,1.1,0.4h3.1v1.1c0,0.2,0,0.3-0.1,0.4s-0.3,0.2-0.5,0.2
				l-0.8,0.2c0.1,0.3,0.1,0.6,0.1,0.9c0,0.5-0.1,1-0.3,1.4c-0.2,0.4-0.5,0.8-0.9,1.1s-0.8,0.5-1.3,0.7c-0.5,0.2-1.1,0.2-1.7,0.2
				c-0.3,0-0.6,0-0.9-0.1c-0.2,0.1-0.3,0.3-0.3,0.5s0.1,0.3,0.3,0.4c0.2,0.1,0.4,0.1,0.7,0.2s0.6,0,1,0s0.8,0,1.2,0.1
				c0.4,0,0.8,0.1,1.2,0.2c0.4,0.1,0.7,0.2,1,0.4s0.5,0.5,0.7,0.8s0.3,0.7,0.3,1.2c0,0.5-0.1,0.9-0.3,1.4c-0.2,0.4-0.6,0.8-1,1.2
				c-0.4,0.3-1,0.6-1.6,0.8c-0.6,0.2-1.4,0.3-2.2,0.3c-0.8,0-1.5-0.1-2.1-0.2c-0.6-0.2-1.1-0.4-1.5-0.6s-0.7-0.5-0.9-0.9
				c-0.2-0.3-0.3-0.7-0.3-1c0-0.5,0.1-0.9,0.4-1.2c0.3-0.3,0.7-0.6,1.2-0.7c-0.2-0.2-0.4-0.4-0.6-0.6c-0.1-0.2-0.2-0.5-0.2-0.9
				c0-0.2,0-0.3,0.1-0.5c0.1-0.2,0.1-0.3,0.2-0.5c0.1-0.2,0.3-0.3,0.4-0.5c0.2-0.1,0.4-0.3,0.6-0.4c-0.5-0.3-1-0.7-1.3-1.1
				c-0.3-0.5-0.5-1-0.5-1.7c0-0.5,0.1-1,0.3-1.4s0.5-0.8,0.9-1.1c0.4-0.3,0.8-0.5,1.4-0.7C278.3,226.7,278.8,226.6,279.4,226.6z
				 M281.7,237.6c0-0.2-0.1-0.3-0.2-0.4s-0.2-0.2-0.4-0.2s-0.4-0.1-0.6-0.1c-0.2,0-0.5,0-0.8,0c-0.3,0-0.6,0-0.9,0s-0.6,0-0.9-0.1
				c-0.2,0.1-0.4,0.3-0.5,0.4c-0.1,0.2-0.2,0.4-0.2,0.6c0,0.1,0,0.3,0.1,0.4c0.1,0.1,0.2,0.2,0.3,0.3c0.2,0.1,0.4,0.2,0.6,0.2
				s0.6,0.1,1,0.1c0.4,0,0.8,0,1.1-0.1s0.5-0.1,0.7-0.2c0.2-0.1,0.3-0.2,0.4-0.3C281.7,237.9,281.7,237.7,281.7,237.6z M279.4,231.5
				c0.5,0,0.9-0.1,1.1-0.4s0.3-0.6,0.3-1c0-0.4-0.1-0.8-0.3-1c-0.2-0.2-0.6-0.4-1.1-0.4c-0.5,0-0.9,0.1-1.1,0.4
				c-0.2,0.2-0.3,0.6-0.3,1c0,0.2,0,0.4,0.1,0.6c0.1,0.2,0.1,0.3,0.3,0.4c0.1,0.1,0.3,0.2,0.5,0.3
				C279,231.4,279.2,231.5,279.4,231.5z"/>
			<path fill="#231F20" d="M289.5,222.2v15h-3.1v-15H289.5z"/>
			<path fill="#231F20" d="M296.6,226.6c0.8,0,1.5,0.1,2.2,0.4c0.6,0.2,1.2,0.6,1.7,1.1c0.5,0.5,0.8,1,1.1,1.7
				c0.3,0.7,0.4,1.4,0.4,2.2c0,0.8-0.1,1.6-0.4,2.2c-0.3,0.7-0.6,1.2-1.1,1.7c-0.5,0.5-1,0.8-1.7,1.1c-0.6,0.3-1.4,0.4-2.2,0.4
				c-0.8,0-1.5-0.1-2.2-0.4s-1.2-0.6-1.7-1.1c-0.5-0.5-0.8-1-1.1-1.7c-0.3-0.7-0.4-1.4-0.4-2.2c0-0.8,0.1-1.6,0.4-2.2
				c0.3-0.7,0.6-1.2,1.1-1.7s1-0.8,1.7-1.1C295.1,226.8,295.8,226.6,296.6,226.6z M296.6,235.1c0.7,0,1.2-0.3,1.6-0.8
				c0.3-0.5,0.5-1.3,0.5-2.3c0-1-0.2-1.8-0.5-2.3c-0.3-0.5-0.9-0.8-1.6-0.8c-0.7,0-1.3,0.3-1.6,0.8s-0.5,1.3-0.5,2.3
				c0,1,0.2,1.8,0.5,2.3S295.9,235.1,296.6,235.1z"/>
			<path fill="#231F20" d="M303.6,237.2v-15h3.1v5.7c0.4-0.4,0.8-0.7,1.3-0.9c0.5-0.2,1.1-0.3,1.7-0.3c0.5,0,1,0.1,1.5,0.4
				s0.9,0.6,1.2,1c0.3,0.5,0.6,1,0.8,1.7s0.3,1.4,0.3,2.2c0,0.8-0.1,1.5-0.3,2.2c-0.2,0.7-0.5,1.2-0.9,1.7s-0.9,0.9-1.4,1.1
				c-0.5,0.3-1.1,0.4-1.8,0.4c-0.3,0-0.6,0-0.8-0.1s-0.5-0.1-0.7-0.3c-0.2-0.1-0.4-0.2-0.6-0.4c-0.2-0.2-0.3-0.3-0.5-0.5l-0.1,0.5
				c0,0.2-0.1,0.4-0.3,0.4c-0.1,0.1-0.3,0.1-0.5,0.1H303.6z M308.7,229c-0.2,0-0.4,0-0.6,0.1s-0.4,0.1-0.5,0.2s-0.3,0.2-0.4,0.3
				c-0.1,0.1-0.3,0.3-0.4,0.4v4.4c0.2,0.3,0.5,0.4,0.8,0.5c0.3,0.1,0.6,0.2,0.9,0.2c0.3,0,0.6-0.1,0.8-0.2c0.2-0.1,0.4-0.3,0.6-0.5
				c0.2-0.3,0.3-0.6,0.4-1c0.1-0.4,0.2-0.9,0.2-1.5c0-0.5,0-1-0.1-1.4c-0.1-0.4-0.2-0.7-0.3-0.9c-0.1-0.2-0.3-0.4-0.5-0.5
				S308.9,229,308.7,229z"/>
			<path fill="#231F20" d="M322.4,237.2c-0.3,0-0.5,0-0.7-0.1c-0.2-0.1-0.3-0.2-0.4-0.5l-0.2-0.6c-0.3,0.2-0.5,0.4-0.8,0.6
				s-0.5,0.3-0.7,0.4c-0.3,0.1-0.5,0.2-0.8,0.3c-0.3,0.1-0.6,0.1-1,0.1c-0.5,0-0.9-0.1-1.3-0.2c-0.4-0.1-0.7-0.3-1-0.5
				c-0.3-0.2-0.5-0.5-0.6-0.9c-0.1-0.4-0.2-0.8-0.2-1.2c0-0.4,0.1-0.7,0.3-1.1c0.2-0.4,0.5-0.7,1-1.1s1.1-0.6,1.9-0.8
				c0.8-0.2,1.8-0.3,3-0.3v-0.4c0-0.6-0.1-1.1-0.4-1.3c-0.3-0.3-0.6-0.4-1.1-0.4c-0.4,0-0.7,0-0.9,0.1c-0.2,0.1-0.4,0.2-0.6,0.3
				c-0.2,0.1-0.4,0.2-0.5,0.3c-0.2,0.1-0.4,0.1-0.6,0.1c-0.2,0-0.4-0.1-0.5-0.2s-0.3-0.2-0.4-0.4l-0.6-1c0.6-0.6,1.3-1,2.1-1.2
				c0.8-0.3,1.6-0.4,2.5-0.4c0.6,0,1.2,0.1,1.7,0.3c0.5,0.2,0.9,0.5,1.3,0.9c0.4,0.4,0.6,0.8,0.8,1.3c0.2,0.5,0.3,1,0.3,1.6v6.5
				H322.4z M318.8,235.3c0.4,0,0.8-0.1,1.1-0.2c0.3-0.1,0.6-0.4,0.9-0.7V233c-0.6,0-1.1,0-1.5,0.1c-0.4,0.1-0.7,0.2-1,0.3
				c-0.2,0.1-0.4,0.3-0.5,0.4c-0.1,0.2-0.1,0.3-0.1,0.5c0,0.4,0.1,0.6,0.3,0.8C318.2,235.2,318.4,235.3,318.8,235.3z"/>
			<path fill="#231F20" d="M329.2,222.2v15h-3.1v-15H329.2z"/>
			<path fill="#231F20" d="M334.9,222.2v15h-3.1v-15H334.9z"/>
			<path fill="#231F20" d="M341.7,239.9c-0.1,0.2-0.2,0.4-0.3,0.5s-0.3,0.1-0.6,0.1h-2.3l2-4.2l-4.1-9.5h2.7c0.2,0,0.4,0.1,0.6,0.2
				c0.1,0.1,0.2,0.2,0.3,0.4l1.7,4.5c0.2,0.4,0.3,0.8,0.4,1.2c0.1-0.2,0.1-0.4,0.2-0.6c0.1-0.2,0.2-0.4,0.2-0.6l1.5-4.5
				c0.1-0.2,0.2-0.3,0.3-0.4c0.2-0.1,0.3-0.2,0.5-0.2h2.5L341.7,239.9z"/>
			<path fill="#231F20" d="M153.5,261.3c-0.2,0-0.3-0.1-0.4-0.3l-0.1-1.3c-0.3,0.3-0.5,0.5-0.8,0.7c-0.3,0.2-0.6,0.4-0.8,0.5
				s-0.6,0.3-1,0.3c-0.3,0.1-0.7,0.1-1.1,0.1c-0.3,0-0.7,0-1-0.1c-0.3-0.1-0.6-0.3-0.9-0.5c-0.2-0.2-0.4-0.5-0.6-0.8
				c-0.2-0.3-0.2-0.7-0.2-1.2c0-0.4,0.1-0.8,0.4-1.2c0.2-0.4,0.6-0.7,1.1-0.9c0.5-0.3,1.2-0.5,2-0.6c0.8-0.2,1.8-0.3,2.9-0.3v-1
				c0-0.9-0.2-1.6-0.6-2.1s-1-0.7-1.8-0.7c-0.5,0-0.9,0.1-1.2,0.2c-0.3,0.1-0.6,0.3-0.9,0.4c-0.2,0.2-0.4,0.3-0.6,0.4
				c-0.1,0.1-0.3,0.2-0.4,0.2c-0.1,0-0.2-0.1-0.3-0.2l-0.2-0.3c0.5-0.5,1.1-0.9,1.6-1.2c0.6-0.3,1.2-0.4,2-0.4c0.5,0,1,0.1,1.4,0.3
				c0.4,0.2,0.7,0.4,1,0.7c0.3,0.3,0.5,0.7,0.6,1.2c0.1,0.5,0.2,1,0.2,1.5v6.5H153.5z M149.5,260.7c0.4,0,0.7,0,1.1-0.1
				s0.6-0.2,0.9-0.4s0.5-0.3,0.8-0.5c0.2-0.2,0.5-0.4,0.7-0.7v-2.6c-0.9,0-1.8,0.1-2.5,0.2c-0.7,0.1-1.2,0.3-1.7,0.5
				c-0.4,0.2-0.8,0.4-1,0.7c-0.2,0.3-0.3,0.6-0.3,0.9c0,0.3,0.1,0.6,0.2,0.9c0.1,0.2,0.3,0.4,0.4,0.6c0.2,0.2,0.4,0.3,0.6,0.3
				C149,260.7,149.2,260.7,149.5,260.7z"/>
			<path fill="#231F20" d="M159.6,261.4c-0.7,0-1.2-0.2-1.6-0.6c-0.4-0.4-0.6-1-0.6-1.7v-6.8H156c-0.1,0-0.1,0-0.2-0.1
				c0,0-0.1-0.1-0.1-0.2v-0.4l1.7-0.1l0.2-3.6c0-0.1,0-0.1,0.1-0.2c0,0,0.1-0.1,0.2-0.1h0.4v3.8h3.1v0.7h-3.1v6.8
				c0,0.3,0,0.5,0.1,0.7c0.1,0.2,0.2,0.4,0.3,0.5s0.3,0.2,0.4,0.3c0.2,0.1,0.3,0.1,0.5,0.1c0.2,0,0.4,0,0.6-0.1s0.3-0.1,0.5-0.2
				s0.2-0.2,0.3-0.2c0.1-0.1,0.1-0.1,0.2-0.1c0.1,0,0.1,0,0.2,0.1l0.3,0.4c-0.3,0.3-0.6,0.5-1,0.7
				C160.4,261.3,160,261.4,159.6,261.4z"/>
			<path fill="#231F20" d="M170.6,261.4c-0.7,0-1.2-0.2-1.6-0.6c-0.4-0.4-0.6-1-0.6-1.7v-6.8H167c-0.1,0-0.1,0-0.2-0.1
				c0,0-0.1-0.1-0.1-0.2v-0.4l1.7-0.1l0.2-3.6c0-0.1,0-0.1,0.1-0.2c0,0,0.1-0.1,0.2-0.1h0.4v3.8h3.1v0.7h-3.1v6.8
				c0,0.3,0,0.5,0.1,0.7c0.1,0.2,0.2,0.4,0.3,0.5s0.3,0.2,0.4,0.3c0.2,0.1,0.3,0.1,0.5,0.1c0.2,0,0.4,0,0.6-0.1s0.3-0.1,0.5-0.2
				s0.2-0.2,0.3-0.2c0.1-0.1,0.1-0.1,0.2-0.1c0.1,0,0.1,0,0.2,0.1l0.3,0.4c-0.3,0.3-0.6,0.5-1,0.7
				C171.4,261.3,171,261.4,170.6,261.4z"/>
			<path fill="#231F20" d="M175,261.3v-14.6h1v6.3c0.5-0.6,1-1,1.6-1.4c0.6-0.3,1.3-0.5,2-0.5c0.5,0,1,0.1,1.4,0.3
				c0.4,0.2,0.8,0.4,1,0.8c0.3,0.3,0.5,0.7,0.6,1.2c0.1,0.5,0.2,1,0.2,1.6v6.4h-1v-6.4c0-0.9-0.2-1.7-0.6-2.2
				c-0.4-0.5-1.1-0.8-2-0.8c-0.7,0-1.3,0.2-1.8,0.5s-1.1,0.8-1.5,1.4v7.5H175z"/>
			<path fill="#231F20" d="M189.6,251.1c0.6,0,1.1,0.1,1.6,0.3s0.9,0.5,1.2,0.8c0.4,0.4,0.6,0.8,0.8,1.4c0.2,0.5,0.3,1.2,0.3,1.9
				c0,0.1,0,0.2-0.1,0.3c0,0.1-0.1,0.1-0.2,0.1h-7.2v0.2c0,0.7,0.1,1.4,0.3,2c0.2,0.6,0.4,1,0.7,1.4c0.3,0.4,0.7,0.7,1.2,0.9
				c0.5,0.2,1,0.3,1.5,0.3c0.5,0,0.9-0.1,1.3-0.2s0.7-0.2,0.9-0.4c0.3-0.1,0.4-0.3,0.6-0.4c0.1-0.1,0.3-0.2,0.3-0.2
				c0.1,0,0.2,0,0.2,0.1l0.3,0.3c-0.2,0.2-0.4,0.4-0.6,0.6c-0.3,0.2-0.6,0.3-0.9,0.4c-0.3,0.1-0.7,0.2-1,0.3s-0.7,0.1-1.1,0.1
				c-0.7,0-1.3-0.1-1.9-0.4c-0.6-0.2-1-0.6-1.4-1c-0.4-0.5-0.7-1-0.9-1.7c-0.2-0.7-0.3-1.4-0.3-2.3c0-0.7,0.1-1.4,0.3-2
				c0.2-0.6,0.5-1.1,0.9-1.6c0.4-0.4,0.9-0.8,1.4-1C188.3,251.2,188.9,251.1,189.6,251.1z M189.7,251.8c-0.5,0-1,0.1-1.4,0.2
				c-0.4,0.2-0.8,0.4-1.1,0.7s-0.5,0.7-0.7,1.1s-0.3,0.9-0.4,1.4h6.6c0-0.5-0.1-1-0.2-1.4c-0.1-0.4-0.4-0.8-0.6-1.1
				c-0.3-0.3-0.6-0.5-1-0.7C190.5,251.9,190.1,251.8,189.7,251.8z"/>
			<path fill="#231F20" d="M205.5,252.5c0,0.1-0.1,0.1-0.2,0.1c-0.1,0-0.2,0-0.3-0.1s-0.3-0.2-0.5-0.3c-0.2-0.1-0.4-0.2-0.7-0.3
				s-0.6-0.1-1-0.1c-0.4,0-0.7,0.1-1,0.2c-0.3,0.1-0.6,0.2-0.8,0.4c-0.2,0.2-0.4,0.4-0.5,0.6c-0.1,0.2-0.2,0.5-0.2,0.7
				c0,0.3,0.1,0.6,0.2,0.8s0.4,0.4,0.6,0.5c0.3,0.1,0.6,0.3,0.9,0.4c0.3,0.1,0.7,0.2,1,0.3c0.3,0.1,0.7,0.2,1,0.4
				c0.3,0.1,0.6,0.3,0.9,0.5c0.3,0.2,0.5,0.4,0.6,0.7c0.2,0.3,0.2,0.6,0.2,1c0,0.4-0.1,0.8-0.2,1.2s-0.4,0.7-0.7,1
				c-0.3,0.3-0.7,0.5-1.1,0.7c-0.4,0.2-0.9,0.2-1.5,0.2c-0.7,0-1.3-0.1-1.8-0.3s-1-0.5-1.4-0.9l0.2-0.3c0-0.1,0.1-0.1,0.1-0.1
				s0.1,0,0.2,0c0.1,0,0.2,0.1,0.3,0.2s0.3,0.2,0.5,0.3s0.5,0.2,0.8,0.3s0.7,0.2,1.1,0.2c0.4,0,0.8-0.1,1.1-0.2
				c0.3-0.1,0.6-0.3,0.8-0.5c0.2-0.2,0.4-0.4,0.5-0.7c0.1-0.3,0.2-0.6,0.2-0.9c0-0.3-0.1-0.6-0.2-0.8c-0.2-0.2-0.4-0.4-0.6-0.6
				c-0.3-0.2-0.6-0.3-0.9-0.4s-0.7-0.2-1-0.3s-0.7-0.2-1-0.4c-0.3-0.1-0.6-0.3-0.9-0.5s-0.5-0.4-0.6-0.7c-0.2-0.3-0.2-0.6-0.2-1
				c0-0.4,0.1-0.7,0.2-1c0.2-0.3,0.4-0.6,0.7-0.9c0.3-0.2,0.6-0.4,1-0.6c0.4-0.1,0.9-0.2,1.4-0.2c0.6,0,1.1,0.1,1.6,0.3
				s0.9,0.4,1.3,0.8L205.5,252.5z"/>
			<path fill="#231F20" d="M215,261.3c-0.2,0-0.3-0.1-0.4-0.3l-0.1-1.3c-0.3,0.3-0.5,0.5-0.8,0.7c-0.3,0.2-0.6,0.4-0.8,0.5
				s-0.6,0.3-1,0.3c-0.3,0.1-0.7,0.1-1.1,0.1c-0.3,0-0.7,0-1-0.1c-0.3-0.1-0.6-0.3-0.9-0.5c-0.2-0.2-0.4-0.5-0.6-0.8
				c-0.2-0.3-0.2-0.7-0.2-1.2c0-0.4,0.1-0.8,0.4-1.2c0.2-0.4,0.6-0.7,1.1-0.9c0.5-0.3,1.2-0.5,2-0.6c0.8-0.2,1.8-0.3,2.9-0.3v-1
				c0-0.9-0.2-1.6-0.6-2.1s-1-0.7-1.8-0.7c-0.5,0-0.9,0.1-1.2,0.2c-0.3,0.1-0.6,0.3-0.9,0.4c-0.2,0.2-0.4,0.3-0.6,0.4
				c-0.1,0.1-0.3,0.2-0.4,0.2c-0.1,0-0.2-0.1-0.3-0.2l-0.2-0.3c0.5-0.5,1.1-0.9,1.6-1.2c0.6-0.3,1.2-0.4,2-0.4c0.5,0,1,0.1,1.4,0.3
				c0.4,0.2,0.7,0.4,1,0.7c0.3,0.3,0.5,0.7,0.6,1.2c0.1,0.5,0.2,1,0.2,1.5v6.5H215z M211,260.7c0.4,0,0.7,0,1.1-0.1s0.6-0.2,0.9-0.4
				s0.5-0.3,0.8-0.5c0.2-0.2,0.5-0.4,0.7-0.7v-2.6c-0.9,0-1.8,0.1-2.5,0.2c-0.7,0.1-1.2,0.3-1.7,0.5c-0.4,0.2-0.8,0.4-1,0.7
				c-0.2,0.3-0.3,0.6-0.3,0.9c0,0.3,0.1,0.6,0.2,0.9c0.1,0.2,0.3,0.4,0.4,0.6c0.2,0.2,0.4,0.3,0.6,0.3
				C210.5,260.7,210.7,260.7,211,260.7z"/>
			<path fill="#231F20" d="M218.4,261.3v-10h0.5c0.2,0,0.3,0.1,0.3,0.3l0.1,1.4c0.2-0.3,0.4-0.5,0.6-0.8s0.5-0.4,0.7-0.6
				c0.3-0.2,0.5-0.3,0.8-0.4s0.6-0.1,0.9-0.1c0.7,0,1.3,0.2,1.7,0.6c0.4,0.4,0.7,1,0.9,1.8c0.1-0.4,0.3-0.8,0.5-1.1
				c0.2-0.3,0.5-0.5,0.7-0.7c0.3-0.2,0.6-0.3,0.9-0.4c0.3-0.1,0.7-0.1,1-0.1c0.5,0,0.9,0.1,1.3,0.2s0.7,0.4,1,0.7
				c0.3,0.3,0.5,0.7,0.6,1.2c0.1,0.5,0.2,1,0.2,1.6v6.4h-1v-6.4c0-1-0.2-1.7-0.6-2.2s-1-0.8-1.8-0.8c-0.3,0-0.7,0.1-1,0.2
				s-0.6,0.3-0.8,0.6c-0.2,0.3-0.4,0.6-0.6,0.9c-0.1,0.4-0.2,0.8-0.2,1.3v6.4h-1v-6.4c0-1-0.2-1.7-0.6-2.2c-0.4-0.5-1-0.8-1.7-0.8
				c-0.5,0-1,0.2-1.5,0.5c-0.5,0.3-0.9,0.8-1.2,1.3v7.5H218.4z"/>
			<path fill="#231F20" d="M238.1,251.1c0.6,0,1.1,0.1,1.6,0.3s0.9,0.5,1.2,0.8c0.4,0.4,0.6,0.8,0.8,1.4c0.2,0.5,0.3,1.2,0.3,1.9
				c0,0.1,0,0.2-0.1,0.3c0,0.1-0.1,0.1-0.2,0.1h-7.2v0.2c0,0.7,0.1,1.4,0.3,2c0.2,0.6,0.4,1,0.7,1.4c0.3,0.4,0.7,0.7,1.2,0.9
				c0.5,0.2,1,0.3,1.5,0.3c0.5,0,0.9-0.1,1.3-0.2s0.7-0.2,0.9-0.4c0.3-0.1,0.4-0.3,0.6-0.4c0.1-0.1,0.3-0.2,0.3-0.2
				c0.1,0,0.2,0,0.2,0.1l0.3,0.3c-0.2,0.2-0.4,0.4-0.6,0.6c-0.3,0.2-0.6,0.3-0.9,0.4c-0.3,0.1-0.7,0.2-1,0.3s-0.7,0.1-1.1,0.1
				c-0.7,0-1.3-0.1-1.9-0.4c-0.6-0.2-1-0.6-1.4-1c-0.4-0.5-0.7-1-0.9-1.7c-0.2-0.7-0.3-1.4-0.3-2.3c0-0.7,0.1-1.4,0.3-2
				c0.2-0.6,0.5-1.1,0.9-1.6c0.4-0.4,0.9-0.8,1.4-1C236.7,251.2,237.4,251.1,238.1,251.1z M238.1,251.8c-0.5,0-1,0.1-1.4,0.2
				c-0.4,0.2-0.8,0.4-1.1,0.7s-0.5,0.7-0.7,1.1s-0.3,0.9-0.4,1.4h6.6c0-0.5-0.1-1-0.2-1.4c-0.1-0.4-0.4-0.8-0.6-1.1
				c-0.3-0.3-0.6-0.5-1-0.7C239,251.9,238.5,251.8,238.1,251.8z"/>
			<path fill="#231F20" d="M251.1,261.4c-0.7,0-1.2-0.2-1.6-0.6c-0.4-0.4-0.6-1-0.6-1.7v-6.8h-1.4c-0.1,0-0.1,0-0.2-0.1
				c0,0-0.1-0.1-0.1-0.2v-0.4l1.7-0.1l0.2-3.6c0-0.1,0-0.1,0.1-0.2c0,0,0.1-0.1,0.2-0.1h0.4v3.8h3.1v0.7H250v6.8
				c0,0.3,0,0.5,0.1,0.7c0.1,0.2,0.2,0.4,0.3,0.5s0.3,0.2,0.4,0.3c0.2,0.1,0.3,0.1,0.5,0.1c0.2,0,0.4,0,0.6-0.1s0.3-0.1,0.5-0.2
				s0.2-0.2,0.3-0.2c0.1-0.1,0.1-0.1,0.2-0.1c0.1,0,0.1,0,0.2,0.1l0.3,0.4c-0.3,0.3-0.6,0.5-1,0.7
				C252,261.3,251.6,261.4,251.1,261.4z"/>
			<path fill="#231F20" d="M257.2,247.8c0,0.1,0,0.2-0.1,0.3s-0.1,0.2-0.2,0.3s-0.2,0.1-0.3,0.2c-0.1,0-0.2,0.1-0.3,0.1
				c-0.1,0-0.2,0-0.3-0.1c-0.1,0-0.2-0.1-0.3-0.2s-0.1-0.2-0.2-0.3s-0.1-0.2-0.1-0.3s0-0.2,0.1-0.3s0.1-0.2,0.2-0.3s0.2-0.1,0.3-0.2
				c0.1,0,0.2-0.1,0.3-0.1c0.1,0,0.2,0,0.3,0.1c0.1,0,0.2,0.1,0.3,0.2s0.1,0.2,0.2,0.3S257.2,247.7,257.2,247.8z M256.8,251.3v10h-1
				v-10H256.8z"/>
			<path fill="#231F20" d="M260.3,261.3v-10h0.5c0.2,0,0.3,0.1,0.3,0.3l0.1,1.4c0.2-0.3,0.4-0.5,0.6-0.8s0.5-0.4,0.7-0.6
				c0.3-0.2,0.5-0.3,0.8-0.4s0.6-0.1,0.9-0.1c0.7,0,1.3,0.2,1.7,0.6c0.4,0.4,0.7,1,0.9,1.8c0.1-0.4,0.3-0.8,0.5-1.1
				c0.2-0.3,0.5-0.5,0.7-0.7c0.3-0.2,0.6-0.3,0.9-0.4c0.3-0.1,0.7-0.1,1-0.1c0.5,0,0.9,0.1,1.3,0.2s0.7,0.4,1,0.7
				c0.3,0.3,0.5,0.7,0.6,1.2c0.1,0.5,0.2,1,0.2,1.6v6.4h-1v-6.4c0-1-0.2-1.7-0.6-2.2s-1-0.8-1.8-0.8c-0.3,0-0.7,0.1-1,0.2
				s-0.6,0.3-0.8,0.6c-0.2,0.3-0.4,0.6-0.6,0.9c-0.1,0.4-0.2,0.8-0.2,1.3v6.4h-1v-6.4c0-1-0.2-1.7-0.6-2.2c-0.4-0.5-1-0.8-1.7-0.8
				c-0.5,0-1,0.2-1.5,0.5c-0.5,0.3-0.9,0.8-1.2,1.3v7.5H260.3z"/>
			<path fill="#231F20" d="M280,251.1c0.6,0,1.1,0.1,1.6,0.3s0.9,0.5,1.2,0.8c0.4,0.4,0.6,0.8,0.8,1.4c0.2,0.5,0.3,1.2,0.3,1.9
				c0,0.1,0,0.2-0.1,0.3c0,0.1-0.1,0.1-0.2,0.1h-7.2v0.2c0,0.7,0.1,1.4,0.3,2c0.2,0.6,0.4,1,0.7,1.4c0.3,0.4,0.7,0.7,1.2,0.9
				c0.5,0.2,1,0.3,1.5,0.3c0.5,0,0.9-0.1,1.3-0.2s0.7-0.2,0.9-0.4c0.3-0.1,0.4-0.3,0.6-0.4c0.1-0.1,0.3-0.2,0.3-0.2
				c0.1,0,0.2,0,0.2,0.1l0.3,0.3c-0.2,0.2-0.4,0.4-0.6,0.6c-0.3,0.2-0.6,0.3-0.9,0.4c-0.3,0.1-0.7,0.2-1,0.3s-0.7,0.1-1.1,0.1
				c-0.7,0-1.3-0.1-1.9-0.4c-0.6-0.2-1-0.6-1.4-1c-0.4-0.5-0.7-1-0.9-1.7c-0.2-0.7-0.3-1.4-0.3-2.3c0-0.7,0.1-1.4,0.3-2
				c0.2-0.6,0.5-1.1,0.9-1.6c0.4-0.4,0.9-0.8,1.4-1C278.7,251.2,279.3,251.1,280,251.1z M280.1,251.8c-0.5,0-1,0.1-1.4,0.2
				c-0.4,0.2-0.8,0.4-1.1,0.7s-0.5,0.7-0.7,1.1s-0.3,0.9-0.4,1.4h6.6c0-0.5-0.1-1-0.2-1.4c-0.1-0.4-0.4-0.8-0.6-1.1
				c-0.3-0.3-0.6-0.5-1-0.7C280.9,251.9,280.5,251.8,280.1,251.8z"/>
		</g>
	</g>
	<line fill="#231F20" x1="124.2" y1="173.8" x2="124.2" y2="262.1"/>
</g>
<g id="Layer_5" display="none">
</g>
</svg>
