<?xml version="1.0" encoding="utf-8"?>
<!-- Generator: Adobe Illustrator 18.0.0, SVG Export Plug-In . SVG Version: 6.00 Build 0)  -->
<!DOCTYPE svg PUBLIC "-//W3C//DTD SVG 1.1//EN" "http://www.w3.org/Graphics/SVG/1.1/DTD/svg11.dtd">
<svg version="1.1" xmlns="http://www.w3.org/2000/svg" xmlns:xlink="http://www.w3.org/1999/xlink" x="0px" y="0px"
	 viewBox="0 -48 800 531" enable-background="new 0 -48 800 531" xml:space="preserve">
<g id="_x32_">
	<g id="Layer_10">
		<rect y="-48" fill="#B3DCC2" width="800" height="531"/>
	</g>
	<path fill="#FFFFFF" d="M679.5,204.5c0,3-2.4,5.4-5.4,5.4H466.8c-3,0-5.4-2.4-5.4-5.4v-31c0-3,2.4-5.4,5.4-5.4h207.3
		c3,0,5.4,2.4,5.4,5.4V204.5z"/>
	<path fill="#A2A2A3" d="M639.2,259.9v-14.2h-91.3v14.5l-4,4v26.6l99.4,3.4V264L639.2,259.9z M630.5,278.1l-11.2-14.7h-50.1
		l-13.4,14.7v-21.5l74.8,0V278.1z"/>
	<polygon fill="#FFFFFF" points="647.4,298.9 619.3,263.4 569.2,263.4 536.9,298.9 	"/>
	<polygon fill="#DBDAD9" points="647.4,298.9 619.3,263.4 569.2,263.4 536.9,298.9 	"/>
	<polyline fill="#FFFFFF" points="585.7,245.7 585.7,261.9 593.5,267.3 600.7,261.7 600.7,245.7 	"/>
	
		<polyline fill="none" stroke="#717070" stroke-width="2.769" stroke-linecap="round" stroke-linejoin="round" stroke-miterlimit="10" points="
		585.7,245.7 585.7,261.9 593.5,267.3 600.7,261.7 600.7,245.7 	"/>
	<polyline fill="#676767" points="540.5,322.3 540.5,341.3 536.9,345.2 536.9,354.4 561.3,354.4 566.3,347.8 618,348.2 623,354.8 
		647.4,354.8 647.4,345.6 643.8,341.7 643.8,322.7 	"/>
	<polygon fill="#A2A2A3" points="647.4,322.3 536.9,322.3 536.9,298.9 568.3,298.9 647.4,298.9 647.4,310.6 	"/>
	<path fill="#112029" d="M519.8,322.3c0,2.2,0,4.4,0,6.6c-3.1,0-6.3,0-9.4,0c-0.4,0-0.4-0.2-0.4-0.5v-6.3c0-0.3,0.1-0.6-0.1-0.8
		c-0.1-1-0.6-1.5-1.6-1.7c-0.6-0.1-1.3-0.1-1.9,0c-0.8,0.1-1.3,0.6-1.4,1.4c-0.1,0.3-0.1,0.6-0.1,0.9c0,2.3,0,4.6,0,6.9h-9.7
		c0-2.2,0-4.5,0-6.7c0-0.2,0-0.4,0-0.6c0-7.5,0-14.9,0-22.4c0-0.8,0.2-1.4,0.6-2c2.4-3.2,3.2-7,3.2-11c0.6-0.2,1.2-0.4,1.9-0.3
		c0,0.3,0.1,0.5,0.1,0.8c0.2,1.6,0.7,2.9,2,4c1.3,1.1,2.9,1.3,4.5,1.3c0.5,0,1.1,0,1.7-0.2c1.2-0.3,2.4-0.8,3.2-1.8
		c1.1-1.2,1.4-2.7,1.5-4.2c0.6,0.1,1.2,0.2,1.9,0.3c0,0.6,0,1.3,0.1,1.9c0.1,1.2,0.3,2.4,0.6,3.5c0.5,2,1.2,4,2.6,5.6
		c0.6,0.7,0.7,1.4,0.7,2.3c0,4.8,0,9.5,0,14.3C519.8,316.6,519.8,319.5,519.8,322.3"/>
	<path fill="#E0B495" d="M525.4,265.4c-0.2,0.7-0.3,1.4-0.5,2.2c-0.5-0.5-0.8-1.1-1.1-1.7c-1.2-2.2-2-4.6-2.5-7.1
		c-0.2-1.1-0.3-2.2-0.3-3.4c0-0.3,0-0.4-0.4-0.3c-3.1,0.9-2.4-8.4-5.6-7.8c-2.5,0.5-12.1,1.6-14.7,1.9c-1.4,0.2-4.5,1.6-5.9,1.7
		c-1.4,0.1-1.5,5.3-2.9,5.3c-2.6,0.1-1.6,2.2,0,2.4c0.4,0,1.8,0.4,1.7,0.8c-0.4,1.9-1,3.8-1.8,5.6c-0.4,0.9-0.8,1.8-1.5,2.6
		c-0.3-0.8-0.4-1.5-0.5-2.2c-1.1,0-1.5,0.4-1.5,1.5c0,0.8,1.1,1.9,1.3,2.7c0.2,0.9-0.3,1.5-0.4,2.5c0,0.6,0.6,1,1.3,0.9
		c0.3,0,0.4,0,0.5,0.3c0,0.1,0.1,0.3,0.1,0.4c0.8,3,2.2,5.5,4.6,7.4c1.7,1.4,3.7,2.2,5.8,2.8c0.2,0,0.4,0,0.5,0.3
		c0,0.4,0.1,0.9,0,1.3c0,0.2-0.4,0.1-0.6,0.2c-0.1,0-0.1,0.1-0.2,0.1c0,0.3,0.1,0.5,0.1,0.8c0.2,1.6,0.7,2.9,2,4
		c1.3,1.1,2.9,1.3,4.5,1.3c0.5,0,1.1,0,1.7-0.2c1.2-0.3,2.4-0.8,3.2-1.8c1.1-1.2,1.4-2.7,1.5-4.2c-0.1,0-0.3-0.1-0.4-0.1
		c-0.4,0-0.5-0.1-0.4-0.5c0-1,0-1,0.9-1.3c0.1,0,0.2-0.1,0.3-0.1c3-0.9,5.5-2.4,7.3-4.9c1.3-1.7,2-3.6,2.5-5.6
		c0.1-0.3,0.1-0.3,0.4-0.3c0.8,0.1,1.3-0.4,1.3-1.2c0-0.5-0.4-1.4-0.3-1.9c0.4-1.1,1.3-1.9,1.2-3.1
		C526.9,266.1,526.5,265.3,525.4,265.4z"/>
	<path fill="#74431F" d="M525.4,265.4c-0.2,0.7-0.3,1.4-0.5,2.2c-0.5-0.5-0.8-1.1-1.1-1.7c-1.2-2.2-2-4.6-2.5-7.1
		c-0.2-1.1-0.3-2.2-0.3-3.4c0-0.3,0-0.4-0.4-0.3c-3.1,0.9-2.7-6.6-5.9-6c-2.5,0.5-4.6,0.1-7.2,0.5c-1.4,0.2-3.8,3-5.2,3.1
		c-1.4,0.1-2.9-0.2-4.3-0.1c-0.5,0-1.9,0-2.4,0c-0.4,0-2.3,6.5-2.4,6.8c-0.4,1.9-1,3.8-1.8,5.6c-0.4,0.9-0.8,1.8-1.5,2.6
		c-0.3-0.8-0.4-1.5-0.5-2.2c-0.6-3.5-0.7-7.1,0.2-10.6c1.2-4.7,2.1-9.2,6.5-11.3c6.6-3.1,17-2.4,23.6,1c4.5,2.3,5.1,6.5,5.9,11.4
		c0.5,3.1,0.3,6.2-0.3,9.3C525.4,265.3,525.4,265.4,525.4,265.4"/>
	<path fill="#E0B495" d="M550.6,298.5c-2.7-0.8-5.5-1.5-8.2-2.3c-4.6-1.3-7.2-1.5-11.8-2.8c-0.8-0.2-2.6-0.5-4.3-0.5
		c-2.1,0-3.8,0.2-5.4,1.1c-1.1,0.6-0.9,4.1-2.1,3.9c-0.6-0.1-3.3-6-3.1-5.4c-0.8-2-1-4.6-0.3-6c0.3-0.7,3.5,1.5,4.2,1.5
		c3.5-0.2,6.9-0.1,10.3,0.3c2.6,0.3,5.3,0.7,7.9,1.2c1.6,0.3,3.3,0.7,4.9,1.1c2.4,0.6,4.7,1.1,7.1,1.8c1.5,0.4,2.4,1.3,2.6,2.8
		c0.2,1.5-0.5,2.5-1.7,3.3C550.7,298.4,550.7,298.4,550.6,298.5"/>
	<path fill="#E0B495" d="M499,286.3c0,4-0.8,7.7-3.2,10.9c-0.5,0.7-0.6,1.3-0.6,2c0,7.5,0,14.9,0,22.4c0,0.2,0,0.4,0,0.6
		c-1.4,1.5-3.2,1.7-4.7,0.4c-0.6-0.5-1-1.3-1.1-2.1c-0.1-2.4,0-4.8,0.1-7.2c0.1-2.3,0.3-4.6,0.5-7c0.6-5.4,0.6-9.9,2.3-15
		c0.5-1.5,2-3.3,3.4-4C496.8,286.8,497.8,286.4,499,286.3"/>
	<path fill="#E0B495" d="M509.9,321.4c0.1,0.3,0.1,0.5,0.1,0.8v6.3c0,0.3,0,0.5,0.4,0.5c3.1,0,6.3,0,9.4,0c0,4.4,0,8.8,0,13.2
		c0,0.5,0,1,0,1.5c-0.2,0.1-0.4,0.1-0.6,0.2c-3.1,0.7-6.1,1.3-9.2,1.9c0-0.2,0-0.5,0-0.7c0-5.1,0-10.2,0-15.3c0-2.6,0-5.2,0-7.8
		C509.9,321.7,509.9,321.6,509.9,321.4"/>
	<path fill="#E0B495" d="M495.2,328.9h9.7c0,5.6,0,11.2,0,16.8c-1.9-0.4-3.8-0.8-5.7-1.2c-1.3-0.3-2.7-0.6-4-0.9v-14.1
		C495.2,329.4,495.2,329.2,495.2,328.9"/>
	<path fill="#2C3D52" d="M495.2,343.7c1.3,0.3,2.7,0.6,4,0.9c1.9,0.4,3.8,0.8,5.7,1.2c0.1,1.2,0.1,1.2-1.2,1.2c-3.4,0-6.7,0-10.1,0
		c-0.4,0-0.6-0.1-0.5-0.5C493.3,345.1,493.9,344.1,495.2,343.7"/>
	<path fill="#2C3D52" d="M510,345.8c3-0.7,6.1-1.3,9.2-1.9c0.2,0,0.4-0.1,0.6-0.2c1.4,0.5,1.9,1.6,2,3c0,0.2,0,0.4-0.3,0.4
		c-3.7,0-7.4,0-11.1,0c-0.3,0-0.4-0.1-0.4-0.4C510,346.4,510,346.1,510,345.8"/>
	
		<line fill="none" stroke="#717070" stroke-width="2.769" stroke-linecap="round" stroke-linejoin="round" stroke-miterlimit="10" x1="593.1" y1="253.4" x2="593.1" y2="257.2"/>
	
		<line fill="none" stroke="#868787" stroke-width="2.769" stroke-linecap="round" stroke-linejoin="round" stroke-miterlimit="10" x1="566.2" y1="331.9" x2="566.2" y2="337.6"/>
	
		<line fill="none" stroke="#868787" stroke-width="2.769" stroke-linecap="round" stroke-linejoin="round" stroke-miterlimit="10" x1="559.4" y1="331.9" x2="559.4" y2="337.6"/>
	
		<line fill="none" stroke="#868787" stroke-width="2.769" stroke-linecap="round" stroke-linejoin="round" stroke-miterlimit="10" x1="552.6" y1="331.9" x2="552.6" y2="337.6"/>
	
		<line fill="none" stroke="#241F21" stroke-width="2.769" stroke-linecap="round" stroke-linejoin="round" stroke-miterlimit="10" x1="629" y1="333.1" x2="631.2" y2="331"/>
	
		<line fill="none" stroke="#241F21" stroke-width="2.769" stroke-linecap="round" stroke-linejoin="round" stroke-miterlimit="10" x1="612.3" y1="333.1" x2="614.4" y2="331"/>
	
		<line fill="none" stroke="#717070" stroke-width="2.769" stroke-linecap="round" stroke-linejoin="round" stroke-miterlimit="10" x1="593.5" y1="271.5" x2="593.5" y2="267.3"/>
	
		<path fill="none" stroke="#717070" stroke-width="2.769" stroke-linecap="round" stroke-linejoin="round" stroke-miterlimit="10" d="
		M572.4,238.8c-4.6,0-8.3-3.7-8.3-8.3c0-4.6,3.7-8.3,8.3-8.3"/>
	
		<path fill="#BBBDBF" stroke="#717070" stroke-width="2.769" stroke-linecap="round" stroke-linejoin="round" stroke-miterlimit="10" d="
		M603.8,239.8v-5c0-3-2.4-5.4-5.4-5.4h-10.7c-3,0-5.4,2.4-5.4,5.4v4.5v6.4h21.5v-6.9"/>
	
		<polyline fill="none" stroke="#717070" stroke-width="2.769" stroke-linecap="round" stroke-linejoin="round" stroke-miterlimit="10" points="
		572.4,222.3 593.5,222.3 593.5,229.4 	"/>
	
		<line fill="none" stroke="#717070" stroke-width="2.769" stroke-linecap="round" stroke-linejoin="round" stroke-miterlimit="10" x1="639.2" y1="271.5" x2="643.3" y2="271.5"/>
	
		<line fill="none" stroke="#717070" stroke-width="2.769" stroke-linecap="round" stroke-linejoin="round" stroke-miterlimit="10" x1="543.8" y1="271.7" x2="547.4" y2="271.7"/>
	
		<polyline fill="none" stroke="#717070" stroke-width="2.769" stroke-linecap="round" stroke-linejoin="round" stroke-miterlimit="10" points="
		631.6,278.1 631.6,245.7 631.6,238.8 574.9,238.8 572.4,238.8 	"/>
	
		<line fill="none" stroke="#868787" stroke-width="2.769" stroke-linecap="round" stroke-linejoin="round" stroke-miterlimit="10" x1="620.8" y1="310.6" x2="647.4" y2="310.6"/>
	
		<path fill="none" stroke="#868787" stroke-width="2.769" stroke-linecap="round" stroke-linejoin="round" stroke-miterlimit="10" d="
		M630.1,336.1c0,2.3-1.9,4.2-4.2,4.2c-2.3,0-4.2-1.9-4.2-4.2c0-2.3,1.9-4.2,4.2-4.2C628.2,331.9,630.1,333.8,630.1,336.1z"/>
	
		<path fill="none" stroke="#868787" stroke-width="2.769" stroke-linecap="round" stroke-linejoin="round" stroke-miterlimit="10" d="
		M613.5,336.1c0,2.3-1.9,4.2-4.2,4.2c-2.3,0-4.2-1.9-4.2-4.2c0-2.3,1.9-4.2,4.2-4.2C611.6,331.9,613.5,333.8,613.5,336.1z"/>
	
		<circle fill="none" stroke="#868787" stroke-width="2.769" stroke-linecap="round" stroke-linejoin="round" stroke-miterlimit="10" cx="583.5" cy="310.6" r="4.2"/>
	
		<circle fill="none" stroke="#868787" stroke-width="2.769" stroke-linecap="round" stroke-linejoin="round" stroke-miterlimit="10" cx="566.7" cy="310.6" r="4.2"/>
	
		<circle fill="none" stroke="#868787" stroke-width="2.769" stroke-linecap="round" stroke-linejoin="round" stroke-miterlimit="10" cx="550.1" cy="310.6" r="4.2"/>
	<rect x="458.5" y="166.4" fill="none" width="221.5" height="211.5"/>
	<polygon fill="#B07F4A" points="475.2,320.8 668,320.8 678.3,334.7 464.1,334.7 	"/>
	<rect x="481.2" y="334.8" fill="#946138" width="6.9" height="23.7"/>
	<rect x="481.2" y="334.8" fill="none" width="6.9" height="23.7"/>
	<rect x="651.5" y="334.8" fill="#946138" width="6.9" height="23.7"/>
	<rect x="472.2" y="209.9" fill="#C99D67" width="6.9" height="166.2"/>
	<rect x="459.7" y="166.4" fill="none" width="221.5" height="211.5"/>
	<rect x="663.5" y="209.9" fill="#C99D67" width="6.9" height="166.2"/>
	<rect x="459.7" y="166.4" fill="none" width="221.5" height="211.5"/>
	<rect x="453.8" y="165.9" fill="none" width="230.6" height="220.1"/>
	<path fill="none" stroke="#1C1C1C" stroke-linecap="round" stroke-linejoin="round" stroke-miterlimit="10" d="M497.9,275.5
		c0,0,8.5,7.3,18.7,0"/>
	<ellipse fill="#1E1E1E" cx="501.5" cy="264.8" rx="2.5" ry="2.3"/>
	<ellipse fill="#1E1E1E" cx="512.4" cy="264.8" rx="2.5" ry="2.3"/>
	<path fill="#F6B2CF" d="M488.8,298.9c0,0,5,1.5,6,2.9c0.1,0.1-0.3,14.9,0,12.1v0.3c0,0,12.9,3.9,25.4,0.2l0-16.7l9.9-1.8l-2.1-8.1
		c0,0-4.9-0.4-7.7-0.1c0,0-3.4-1.7-6-2c0,0-5.6,7.3-13.5,0.1c0,0-6.8,0.3-8,4.7L488.8,298.9z"/>
	<g>
		<path fill="#383939" d="M495.9,179.2h12.9v4.6h-7v3.5h5.6v4.4h-5.6v6.3h-5.9V179.2z"/>
		<path fill="#383939" d="M514.2,179.2h7.7l5.9,18.7h-6.3l-0.9-3.1h-5.9l-0.8,3.1h-5.5L514.2,179.2z M515.8,190.7h3.7l-1.8-6.8
			L515.8,190.7z"/>
		<path fill="#383939" d="M529.6,179.2h8.8c4.6,0,6.4,2.1,6.4,4.9v0.1c0,2.2-1.2,3.5-3.2,4c2.2,0.4,3.7,1.8,3.7,4.4v0.1
			c0,3.3-2.1,5.2-6.9,5.2h-8.8V179.2z M537.2,186.5c1.5,0,2-0.5,2-1.6v-0.1c0-1.1-0.6-1.7-2.1-1.7h-1.8v3.4H537.2z M537.3,194
			c1.5,0,2.2-0.7,2.2-2v-0.1c0-1.2-0.7-1.9-2.4-1.9h-1.8v4H537.3z"/>
		<path fill="#383939" d="M548.4,179.2h2.1l6.6,16.1l6.6-16.1h2v18.7h-1.4V181l-7,16.9h-0.5l-7-16.9v16.9h-1.4V179.2z"/>
		<path fill="#383939" d="M575.8,179.2h1.9l6.7,18.7H583l-2.1-5.7h-8.4l-2,5.7h-1.4L575.8,179.2z M573,191h7.6l-3.8-10.6L573,191z"
			/>
		<path fill="#383939" d="M587.8,179.2h5.1c3.6,0,6.4,1.4,6.4,5v0.1c0,3.1-2,4.5-4.8,4.9l5.9,8.6h-1.6l-5.9-8.5h-3.6v8.5h-1.5V179.2
			z M593,188.2c3,0,4.8-1.2,4.8-3.9v-0.1c0-2.9-1.9-3.8-4.8-3.8h-3.7v7.8H593z"/>
		<path fill="#383939" d="M603.6,179.2h1.5v9.2l9.1-9.2h1.7l-9,9.1l9.5,9.6h-1.8l-9.4-9.4v9.4h-1.5V179.2z"/>
		<path fill="#383939" d="M619.3,179.2H630v1.2h-9.3v7.3h7.5v1.2h-7.5v7.8h9.8v1.2h-11.2V179.2z"/>
		<path fill="#383939" d="M638.1,180.4h-5.8v-1.2h13.1v1.2h-5.8v17.5h-1.4V180.4z"/>
	</g>
	<g>
		<g>
			<path fill="#231F20" d="M158.3,246.6h-0.8c-0.1,0-0.2,0-0.2-0.1c-0.1-0.1-0.1-0.1-0.1-0.2l-1.7-4.1h-7l-1.7,4.1
				c0,0.1-0.1,0.1-0.1,0.2c-0.1,0.1-0.1,0.1-0.2,0.1h-0.8l5.8-14.2h1L158.3,246.6z M148.8,241.4h6.4l-2.9-7.2c0-0.1-0.1-0.2-0.1-0.4
				s-0.1-0.3-0.1-0.5c0,0.2-0.1,0.3-0.1,0.5s-0.1,0.3-0.1,0.4L148.8,241.4z"/>
			<path fill="#231F20" d="M163.9,250.1v-13.5h0.5c0.1,0,0.2,0,0.2,0.1c0.1,0,0.1,0.1,0.1,0.2l0.1,1.5c0.4-0.6,1-1.1,1.5-1.4
				c0.6-0.4,1.3-0.5,2-0.5c1.2,0,2.2,0.4,2.9,1.3s1,2.1,1,3.8c0,0.7-0.1,1.4-0.3,2s-0.5,1.2-0.8,1.6c-0.4,0.5-0.8,0.8-1.4,1.1
				s-1.2,0.4-1.9,0.4c-0.7,0-1.3-0.1-1.8-0.4s-0.9-0.6-1.3-1.1v4.9H163.9z M168.1,237.2c-0.7,0-1.3,0.2-1.8,0.5s-1,0.8-1.4,1.4v5.2
				c0.4,0.6,0.8,1,1.3,1.2c0.5,0.2,1,0.4,1.6,0.4c0.6,0,1.1-0.1,1.5-0.3c0.4-0.2,0.8-0.5,1.1-0.9c0.3-0.4,0.5-0.9,0.7-1.4
				c0.2-0.5,0.2-1.1,0.2-1.8c0-1.5-0.3-2.6-0.8-3.3S169.1,237.2,168.1,237.2z"/>
			<path fill="#231F20" d="M175.9,232v14.6h-1V232H175.9z"/>
			<path fill="#231F20" d="M185.8,246.6c-0.2,0-0.3-0.1-0.4-0.3l-0.1-1.3c-0.3,0.3-0.5,0.5-0.8,0.7c-0.3,0.2-0.6,0.4-0.8,0.5
				s-0.6,0.3-1,0.3c-0.3,0.1-0.7,0.1-1.1,0.1c-0.3,0-0.7,0-1-0.1c-0.3-0.1-0.6-0.3-0.9-0.5c-0.2-0.2-0.4-0.5-0.6-0.8
				c-0.2-0.3-0.2-0.7-0.2-1.2c0-0.4,0.1-0.8,0.4-1.2c0.2-0.4,0.6-0.7,1.1-0.9c0.5-0.3,1.2-0.5,2-0.6c0.8-0.2,1.8-0.3,2.9-0.3v-1
				c0-0.9-0.2-1.6-0.6-2.1s-1-0.7-1.8-0.7c-0.5,0-0.9,0.1-1.2,0.2c-0.3,0.1-0.6,0.3-0.9,0.4c-0.2,0.2-0.4,0.3-0.6,0.4
				c-0.1,0.1-0.3,0.2-0.4,0.2c-0.1,0-0.2-0.1-0.3-0.2l-0.2-0.3c0.5-0.5,1.1-0.9,1.6-1.2c0.6-0.3,1.2-0.4,2-0.4c0.5,0,1,0.1,1.4,0.3
				c0.4,0.2,0.7,0.4,1,0.7c0.3,0.3,0.5,0.7,0.6,1.2c0.1,0.5,0.2,1,0.2,1.5v6.5H185.8z M181.8,246c0.4,0,0.7,0,1.1-0.1
				s0.6-0.2,0.9-0.4s0.5-0.3,0.8-0.5c0.2-0.2,0.5-0.4,0.7-0.7v-2.6c-0.9,0-1.8,0.1-2.5,0.2c-0.7,0.1-1.2,0.3-1.7,0.5
				c-0.4,0.2-0.8,0.4-1,0.7c-0.2,0.3-0.3,0.6-0.3,0.9c0,0.3,0.1,0.6,0.2,0.9c0.1,0.2,0.3,0.4,0.4,0.6c0.2,0.2,0.4,0.3,0.6,0.3
				C181.3,246,181.5,246,181.8,246z"/>
			<path fill="#231F20" d="M195.7,237.9C195.7,238,195.7,238,195.7,237.9c-0.1,0.1-0.2,0.1-0.2,0.1c-0.1,0-0.2,0-0.3-0.1
				c-0.1-0.1-0.3-0.2-0.5-0.3c-0.2-0.1-0.4-0.2-0.7-0.3c-0.3-0.1-0.6-0.1-1.1-0.1c-0.6,0-1.1,0.1-1.5,0.3c-0.4,0.2-0.8,0.5-1.1,0.9
				s-0.5,0.8-0.7,1.4c-0.2,0.5-0.2,1.1-0.2,1.8c0,0.7,0.1,1.3,0.2,1.9s0.4,1,0.7,1.4c0.3,0.4,0.7,0.7,1.1,0.8s0.9,0.3,1.4,0.3
				c0.5,0,0.9-0.1,1.2-0.2c0.3-0.1,0.6-0.2,0.8-0.4c0.2-0.1,0.4-0.3,0.5-0.4c0.1-0.1,0.2-0.2,0.3-0.2c0.1,0,0.2,0,0.2,0.1l0.3,0.3
				c-0.2,0.2-0.3,0.4-0.6,0.6c-0.2,0.2-0.5,0.3-0.8,0.5s-0.6,0.2-1,0.3c-0.3,0.1-0.7,0.1-1.1,0.1c-0.6,0-1.2-0.1-1.7-0.3
				s-1-0.6-1.4-1c-0.4-0.4-0.7-1-0.9-1.6c-0.2-0.6-0.3-1.4-0.3-2.2c0-0.8,0.1-1.5,0.3-2.1s0.5-1.2,0.9-1.6c0.4-0.5,0.9-0.8,1.4-1.1
				c0.6-0.3,1.2-0.4,1.9-0.4c0.6,0,1.2,0.1,1.7,0.3c0.5,0.2,0.9,0.5,1.3,0.8L195.7,237.9z"/>
			<path fill="#231F20" d="M202,236.4c0.6,0,1.1,0.1,1.6,0.3s0.9,0.5,1.2,0.8c0.4,0.4,0.6,0.8,0.8,1.4c0.2,0.5,0.3,1.2,0.3,1.9
				c0,0.1,0,0.2-0.1,0.3c0,0.1-0.1,0.1-0.2,0.1h-7.2v0.2c0,0.7,0.1,1.4,0.3,2c0.2,0.6,0.4,1,0.7,1.4c0.3,0.4,0.7,0.7,1.2,0.9
				c0.5,0.2,1,0.3,1.5,0.3c0.5,0,0.9-0.1,1.3-0.2s0.7-0.2,0.9-0.4c0.3-0.1,0.4-0.3,0.6-0.4c0.1-0.1,0.3-0.2,0.3-0.2
				c0.1,0,0.2,0,0.2,0.1l0.3,0.3c-0.2,0.2-0.4,0.4-0.6,0.6c-0.3,0.2-0.6,0.3-0.9,0.4c-0.3,0.1-0.7,0.2-1,0.3s-0.7,0.1-1.1,0.1
				c-0.7,0-1.3-0.1-1.9-0.4c-0.6-0.2-1-0.6-1.4-1c-0.4-0.5-0.7-1-0.9-1.7c-0.2-0.7-0.3-1.4-0.3-2.3c0-0.7,0.1-1.4,0.3-2
				c0.2-0.6,0.5-1.1,0.9-1.6c0.4-0.4,0.9-0.8,1.4-1C200.7,236.6,201.3,236.4,202,236.4z M202.1,237.2c-0.5,0-1,0.1-1.4,0.2
				c-0.4,0.2-0.8,0.4-1.1,0.7s-0.5,0.7-0.7,1.1s-0.3,0.9-0.4,1.4h6.6c0-0.5-0.1-1-0.2-1.4c-0.1-0.4-0.4-0.8-0.6-1.1
				c-0.3-0.3-0.6-0.5-1-0.7C202.9,237.2,202.5,237.2,202.1,237.2z"/>
			<path fill="#231F20" d="M211,236.6h0.7c0.1,0,0.2,0,0.2,0.1c0.1,0.1,0.1,0.1,0.1,0.2l2.5,7.9c0,0.2,0.1,0.3,0.1,0.4
				c0,0.1,0.1,0.3,0.1,0.4c0-0.1,0.1-0.3,0.1-0.4c0-0.1,0.1-0.3,0.1-0.4l2.7-7.9c0-0.1,0.1-0.2,0.3-0.2h0.4c0.1,0,0.2,0.1,0.3,0.2
				l2.6,7.9c0.1,0.3,0.2,0.6,0.2,0.9c0-0.1,0.1-0.3,0.1-0.4c0-0.1,0.1-0.3,0.1-0.4l2.5-7.9c0.1-0.2,0.2-0.2,0.3-0.2h0.7l-3.3,10
				h-0.7c-0.1,0-0.2-0.1-0.2-0.2l-2.7-8.1c0-0.1-0.1-0.2-0.1-0.3c0-0.1,0-0.2-0.1-0.3c0,0.1,0,0.2-0.1,0.3c0,0.1-0.1,0.2-0.1,0.3
				l-2.8,8.1c0,0.1-0.1,0.2-0.2,0.2h-0.7L211,236.6z"/>
			<path fill="#231F20" d="M227.2,246.6V232h1v6.3c0.5-0.6,1-1,1.6-1.4c0.6-0.3,1.3-0.5,2-0.5c0.5,0,1,0.1,1.4,0.3
				c0.4,0.2,0.8,0.4,1,0.8c0.3,0.3,0.5,0.7,0.6,1.2c0.1,0.5,0.2,1,0.2,1.6v6.4h-1v-6.4c0-0.9-0.2-1.7-0.6-2.2
				c-0.4-0.5-1.1-0.8-2-0.8c-0.7,0-1.3,0.2-1.8,0.5s-1.1,0.8-1.5,1.4v7.5H227.2z"/>
			<path fill="#231F20" d="M241.8,236.4c0.6,0,1.1,0.1,1.6,0.3s0.9,0.5,1.2,0.8c0.4,0.4,0.6,0.8,0.8,1.4c0.2,0.5,0.3,1.2,0.3,1.9
				c0,0.1,0,0.2-0.1,0.3c0,0.1-0.1,0.1-0.2,0.1h-7.2v0.2c0,0.7,0.1,1.4,0.3,2c0.2,0.6,0.4,1,0.7,1.4c0.3,0.4,0.7,0.7,1.2,0.9
				c0.5,0.2,1,0.3,1.5,0.3c0.5,0,0.9-0.1,1.3-0.2s0.7-0.2,0.9-0.4c0.3-0.1,0.4-0.3,0.6-0.4c0.1-0.1,0.3-0.2,0.3-0.2
				c0.1,0,0.2,0,0.2,0.1l0.3,0.3c-0.2,0.2-0.4,0.4-0.6,0.6c-0.3,0.2-0.6,0.3-0.9,0.4c-0.3,0.1-0.7,0.2-1,0.3s-0.7,0.1-1.1,0.1
				c-0.7,0-1.3-0.1-1.9-0.4c-0.6-0.2-1-0.6-1.4-1c-0.4-0.5-0.7-1-0.9-1.7c-0.2-0.7-0.3-1.4-0.3-2.3c0-0.7,0.1-1.4,0.3-2
				c0.2-0.6,0.5-1.1,0.9-1.6c0.4-0.4,0.9-0.8,1.4-1C240.4,236.6,241.1,236.4,241.8,236.4z M241.8,237.2c-0.5,0-1,0.1-1.4,0.2
				c-0.4,0.2-0.8,0.4-1.1,0.7s-0.5,0.7-0.7,1.1s-0.3,0.9-0.4,1.4h6.6c0-0.5-0.1-1-0.2-1.4c-0.1-0.4-0.4-0.8-0.6-1.1
				c-0.3-0.3-0.6-0.5-1-0.7C242.6,237.2,242.2,237.2,241.8,237.2z"/>
			<path fill="#231F20" d="M248.2,246.6v-10h0.5c0.1,0,0.2,0,0.2,0.1s0.1,0.1,0.1,0.2l0.1,2.1c0.3-0.8,0.7-1.4,1.3-1.9
				c0.5-0.5,1.2-0.7,2-0.7c0.3,0,0.6,0,0.8,0.1s0.5,0.2,0.7,0.3l-0.1,0.7c0,0.1-0.1,0.2-0.2,0.2c0,0-0.1,0-0.2,0
				c-0.1,0-0.2-0.1-0.3-0.1c-0.1,0-0.2-0.1-0.4-0.1c-0.2,0-0.3,0-0.6,0c-0.8,0-1.4,0.2-1.9,0.7s-0.9,1.1-1.2,2v6.5H248.2z"/>
			<path fill="#231F20" d="M260,236.4c0.6,0,1.1,0.1,1.6,0.3s0.9,0.5,1.2,0.8c0.4,0.4,0.6,0.8,0.8,1.4c0.2,0.5,0.3,1.2,0.3,1.9
				c0,0.1,0,0.2-0.1,0.3c0,0.1-0.1,0.1-0.2,0.1h-7.2v0.2c0,0.7,0.1,1.4,0.3,2c0.2,0.6,0.4,1,0.7,1.4c0.3,0.4,0.7,0.7,1.2,0.9
				c0.5,0.2,1,0.3,1.5,0.3c0.5,0,0.9-0.1,1.3-0.2s0.7-0.2,0.9-0.4c0.3-0.1,0.4-0.3,0.6-0.4c0.1-0.1,0.3-0.2,0.3-0.2
				c0.1,0,0.2,0,0.2,0.1l0.3,0.3c-0.2,0.2-0.4,0.4-0.6,0.6c-0.3,0.2-0.6,0.3-0.9,0.4c-0.3,0.1-0.7,0.2-1,0.3s-0.7,0.1-1.1,0.1
				c-0.7,0-1.3-0.1-1.9-0.4c-0.6-0.2-1-0.6-1.4-1c-0.4-0.5-0.7-1-0.9-1.7c-0.2-0.7-0.3-1.4-0.3-2.3c0-0.7,0.1-1.4,0.3-2
				c0.2-0.6,0.5-1.1,0.9-1.6c0.4-0.4,0.9-0.8,1.4-1C258.6,236.6,259.3,236.4,260,236.4z M260,237.2c-0.5,0-1,0.1-1.4,0.2
				c-0.4,0.2-0.8,0.4-1.1,0.7s-0.5,0.7-0.7,1.1s-0.3,0.9-0.4,1.4h6.6c0-0.5-0.1-1-0.2-1.4c-0.1-0.4-0.4-0.8-0.6-1.1
				c-0.3-0.3-0.6-0.5-1-0.7C260.8,237.2,260.4,237.2,260,237.2z"/>
			<path fill="#231F20" d="M277.4,246.6c-0.2,0-0.3-0.1-0.3-0.3l-0.1-1.6c-0.4,0.6-1,1.1-1.5,1.4c-0.6,0.4-1.3,0.5-2,0.5
				c-1.2,0-2.2-0.4-2.9-1.3s-1-2.1-1-3.8c0-0.7,0.1-1.4,0.3-2c0.2-0.6,0.5-1.2,0.8-1.6s0.8-0.8,1.4-1.1c0.5-0.3,1.2-0.4,1.9-0.4
				c0.7,0,1.3,0.1,1.8,0.4s0.9,0.6,1.3,1.1V232h1v14.6H277.4z M273.7,245.9c0.7,0,1.3-0.2,1.8-0.5c0.5-0.3,1-0.8,1.4-1.4v-5.3
				c-0.4-0.6-0.8-1-1.3-1.2s-1-0.4-1.6-0.4s-1.1,0.1-1.5,0.3c-0.4,0.2-0.8,0.5-1.1,0.9c-0.3,0.4-0.5,0.9-0.7,1.4s-0.2,1.1-0.2,1.8
				c0,1.5,0.3,2.6,0.8,3.3C271.9,245.6,272.7,245.9,273.7,245.9z"/>
			<path fill="#231F20" d="M285,236.4c0.6,0,1.1,0.1,1.6,0.3s0.9,0.5,1.2,0.8c0.4,0.4,0.6,0.8,0.8,1.4c0.2,0.5,0.3,1.2,0.3,1.9
				c0,0.1,0,0.2-0.1,0.3c0,0.1-0.1,0.1-0.2,0.1h-7.2v0.2c0,0.7,0.1,1.4,0.3,2c0.2,0.6,0.4,1,0.7,1.4c0.3,0.4,0.7,0.7,1.2,0.9
				c0.5,0.2,1,0.3,1.5,0.3c0.5,0,0.9-0.1,1.3-0.2s0.7-0.2,0.9-0.4c0.3-0.1,0.4-0.3,0.6-0.4c0.1-0.1,0.3-0.2,0.3-0.2
				c0.1,0,0.2,0,0.2,0.1l0.3,0.3c-0.2,0.2-0.4,0.4-0.6,0.6c-0.3,0.2-0.6,0.3-0.9,0.4c-0.3,0.1-0.7,0.2-1,0.3s-0.7,0.1-1.1,0.1
				c-0.7,0-1.3-0.1-1.9-0.4c-0.6-0.2-1-0.6-1.4-1c-0.4-0.5-0.7-1-0.9-1.7c-0.2-0.7-0.3-1.4-0.3-2.3c0-0.7,0.1-1.4,0.3-2
				c0.2-0.6,0.5-1.1,0.9-1.6c0.4-0.4,0.9-0.8,1.4-1C283.7,236.6,284.3,236.4,285,236.4z M285,237.2c-0.5,0-1,0.1-1.4,0.2
				c-0.4,0.2-0.8,0.4-1.1,0.7s-0.5,0.7-0.7,1.1s-0.3,0.9-0.4,1.4h6.6c0-0.5-0.1-1-0.2-1.4c-0.1-0.4-0.4-0.8-0.6-1.1
				c-0.3-0.3-0.6-0.5-1-0.7C285.9,237.2,285.5,237.2,285,237.2z"/>
			<path fill="#231F20" d="M297,237.8c0,0.1-0.1,0.1-0.2,0.1c-0.1,0-0.2,0-0.3-0.1s-0.3-0.2-0.5-0.3c-0.2-0.1-0.4-0.2-0.7-0.3
				s-0.6-0.1-1-0.1c-0.4,0-0.7,0.1-1,0.2c-0.3,0.1-0.6,0.2-0.8,0.4c-0.2,0.2-0.4,0.4-0.5,0.6c-0.1,0.2-0.2,0.5-0.2,0.7
				c0,0.3,0.1,0.6,0.2,0.8s0.4,0.4,0.6,0.5c0.3,0.1,0.6,0.3,0.9,0.4c0.3,0.1,0.7,0.2,1,0.3c0.3,0.1,0.7,0.2,1,0.4
				c0.3,0.1,0.6,0.3,0.9,0.5c0.3,0.2,0.5,0.4,0.6,0.7c0.2,0.3,0.2,0.6,0.2,1c0,0.4-0.1,0.8-0.2,1.2s-0.4,0.7-0.7,1
				c-0.3,0.3-0.7,0.5-1.1,0.7c-0.4,0.2-0.9,0.2-1.5,0.2c-0.7,0-1.3-0.1-1.8-0.3s-1-0.5-1.4-0.9l0.2-0.3c0-0.1,0.1-0.1,0.1-0.1
				s0.1,0,0.2,0c0.1,0,0.2,0.1,0.3,0.2s0.3,0.2,0.5,0.3s0.5,0.2,0.8,0.3s0.7,0.2,1.1,0.2c0.4,0,0.8-0.1,1.1-0.2
				c0.3-0.1,0.6-0.3,0.8-0.5c0.2-0.2,0.4-0.4,0.5-0.7c0.1-0.3,0.2-0.6,0.2-0.9c0-0.3-0.1-0.6-0.2-0.8c-0.2-0.2-0.4-0.4-0.6-0.6
				c-0.3-0.2-0.6-0.3-0.9-0.4s-0.7-0.2-1-0.3s-0.7-0.2-1-0.4c-0.3-0.1-0.6-0.3-0.9-0.5s-0.5-0.4-0.6-0.7c-0.2-0.3-0.2-0.6-0.2-1
				c0-0.4,0.1-0.7,0.2-1c0.2-0.3,0.4-0.6,0.7-0.9c0.3-0.2,0.6-0.4,1-0.6c0.4-0.1,0.9-0.2,1.4-0.2c0.6,0,1.1,0.1,1.6,0.3
				s0.9,0.4,1.3,0.8L297,237.8z"/>
			<path fill="#231F20" d="M301.8,233.2c0,0.1,0,0.2-0.1,0.3s-0.1,0.2-0.2,0.3s-0.2,0.1-0.3,0.2c-0.1,0-0.2,0.1-0.3,0.1
				c-0.1,0-0.2,0-0.3-0.1c-0.1,0-0.2-0.1-0.3-0.2s-0.1-0.2-0.2-0.3s-0.1-0.2-0.1-0.3s0-0.2,0.1-0.3s0.1-0.2,0.2-0.3s0.2-0.1,0.3-0.2
				c0.1,0,0.2-0.1,0.3-0.1c0.1,0,0.2,0,0.3,0.1c0.1,0,0.2,0.1,0.3,0.2s0.1,0.2,0.2,0.3S301.8,233,301.8,233.2z M301.4,236.6v10h-1
				v-10H301.4z"/>
			<path fill="#231F20" d="M308.2,236.4c0.4,0,0.8,0.1,1.2,0.2c0.4,0.1,0.7,0.3,1,0.5h2.6v0.3c0,0.2-0.1,0.3-0.3,0.3l-1.5,0.1
				c0.2,0.3,0.3,0.5,0.4,0.9c0.1,0.3,0.2,0.7,0.2,1c0,0.5-0.1,0.9-0.3,1.3c-0.2,0.4-0.4,0.7-0.7,1s-0.7,0.5-1.1,0.6
				c-0.4,0.2-0.9,0.2-1.4,0.2c-0.6,0-1.1-0.1-1.6-0.3c-0.3,0.2-0.5,0.4-0.7,0.6c-0.2,0.2-0.2,0.4-0.2,0.6c0,0.3,0.1,0.5,0.3,0.7
				c0.2,0.2,0.5,0.3,0.8,0.3s0.7,0.1,1.1,0.1c0.4,0,0.9,0,1.3,0.1s0.9,0.1,1.3,0.1c0.4,0.1,0.8,0.2,1.1,0.3s0.6,0.4,0.8,0.6
				s0.3,0.6,0.3,1.1c0,0.4-0.1,0.8-0.3,1.2c-0.2,0.4-0.5,0.7-0.9,1s-0.9,0.5-1.4,0.7c-0.6,0.2-1.2,0.3-1.9,0.3
				c-0.7,0-1.3-0.1-1.8-0.2c-0.5-0.1-1-0.3-1.3-0.6s-0.6-0.5-0.8-0.8s-0.3-0.7-0.3-1c0-0.5,0.2-1,0.5-1.4c0.3-0.4,0.8-0.7,1.4-0.9
				c-0.3-0.1-0.6-0.3-0.8-0.5s-0.3-0.5-0.3-0.9c0-0.1,0-0.3,0.1-0.4c0.1-0.2,0.1-0.3,0.2-0.5c0.1-0.2,0.2-0.3,0.4-0.4
				s0.3-0.3,0.5-0.4c-0.5-0.3-0.8-0.6-1.1-1.1c-0.3-0.5-0.4-1-0.4-1.6c0-0.5,0.1-0.9,0.3-1.3c0.2-0.4,0.4-0.7,0.7-1
				c0.3-0.3,0.7-0.5,1.1-0.7C307.1,236.5,307.6,236.4,308.2,236.4z M311.9,247.2c0-0.3-0.1-0.6-0.2-0.8s-0.4-0.3-0.7-0.4
				c-0.3-0.1-0.6-0.2-0.9-0.2s-0.7-0.1-1.1-0.1s-0.8,0-1.2-0.1s-0.8-0.1-1.1-0.1c-0.3,0.1-0.5,0.2-0.7,0.3c-0.2,0.1-0.4,0.3-0.6,0.4
				c-0.2,0.2-0.3,0.3-0.4,0.5c-0.1,0.2-0.1,0.4-0.1,0.6c0,0.3,0.1,0.6,0.2,0.8s0.4,0.5,0.7,0.7c0.3,0.2,0.6,0.3,1.1,0.4
				s0.9,0.2,1.5,0.2c0.5,0,1-0.1,1.4-0.2c0.4-0.1,0.8-0.3,1.1-0.5c0.3-0.2,0.6-0.5,0.8-0.7C311.8,247.9,311.9,247.6,311.9,247.2z
				 M308.2,242.2c0.4,0,0.8-0.1,1.1-0.2c0.3-0.1,0.6-0.3,0.8-0.5c0.2-0.2,0.4-0.5,0.5-0.8c0.1-0.3,0.2-0.6,0.2-1s-0.1-0.7-0.2-1
				s-0.3-0.6-0.5-0.8c-0.2-0.2-0.5-0.4-0.8-0.5c-0.3-0.1-0.7-0.2-1.1-0.2s-0.8,0.1-1.1,0.2c-0.3,0.1-0.6,0.3-0.8,0.5
				c-0.2,0.2-0.4,0.5-0.5,0.8s-0.2,0.7-0.2,1s0.1,0.7,0.2,1c0.1,0.3,0.3,0.6,0.5,0.8s0.5,0.4,0.8,0.5S307.7,242.2,308.2,242.2z"/>
			<path fill="#231F20" d="M315,246.6v-10h0.5c0.2,0,0.3,0.1,0.3,0.3l0.1,1.5c0.5-0.6,1-1,1.6-1.4c0.6-0.4,1.3-0.5,2-0.5
				c0.5,0,1,0.1,1.4,0.3c0.4,0.2,0.8,0.4,1,0.8c0.3,0.3,0.5,0.7,0.6,1.2c0.1,0.5,0.2,1,0.2,1.6v6.4h-1v-6.4c0-0.9-0.2-1.7-0.6-2.2
				c-0.4-0.5-1.1-0.8-2-0.8c-0.7,0-1.3,0.2-1.8,0.5s-1.1,0.8-1.5,1.4v7.5H315z"/>
			<path fill="#231F20" d="M329.6,236.4c0.6,0,1.1,0.1,1.6,0.3s0.9,0.5,1.2,0.8c0.4,0.4,0.6,0.8,0.8,1.4c0.2,0.5,0.3,1.2,0.3,1.9
				c0,0.1,0,0.2-0.1,0.3c0,0.1-0.1,0.1-0.2,0.1H326v0.2c0,0.7,0.1,1.4,0.3,2c0.2,0.6,0.4,1,0.7,1.4c0.3,0.4,0.7,0.7,1.2,0.9
				c0.5,0.2,1,0.3,1.5,0.3c0.5,0,0.9-0.1,1.3-0.2s0.7-0.2,0.9-0.4c0.3-0.1,0.4-0.3,0.6-0.4c0.1-0.1,0.3-0.2,0.3-0.2
				c0.1,0,0.2,0,0.2,0.1l0.3,0.3c-0.2,0.2-0.4,0.4-0.6,0.6c-0.3,0.2-0.6,0.3-0.9,0.4c-0.3,0.1-0.7,0.2-1,0.3s-0.7,0.1-1.1,0.1
				c-0.7,0-1.3-0.1-1.9-0.4c-0.6-0.2-1-0.6-1.4-1c-0.4-0.5-0.7-1-0.9-1.7c-0.2-0.7-0.3-1.4-0.3-2.3c0-0.7,0.1-1.4,0.3-2
				c0.2-0.6,0.5-1.1,0.9-1.6c0.4-0.4,0.9-0.8,1.4-1C328.3,236.6,328.9,236.4,329.6,236.4z M329.6,237.2c-0.5,0-1,0.1-1.4,0.2
				c-0.4,0.2-0.8,0.4-1.1,0.7s-0.5,0.7-0.7,1.1s-0.3,0.9-0.4,1.4h6.6c0-0.5-0.1-1-0.2-1.4c-0.1-0.4-0.4-0.8-0.6-1.1
				c-0.3-0.3-0.6-0.5-1-0.7C330.5,237.2,330.1,237.2,329.6,237.2z"/>
			<path fill="#231F20" d="M336.1,246.6v-10h0.5c0.1,0,0.2,0,0.2,0.1s0.1,0.1,0.1,0.2l0.1,2.1c0.3-0.8,0.7-1.4,1.3-1.9
				c0.5-0.5,1.2-0.7,2-0.7c0.3,0,0.6,0,0.8,0.1s0.5,0.2,0.7,0.3l-0.1,0.7c0,0.1-0.1,0.2-0.2,0.2c0,0-0.1,0-0.2,0
				c-0.1,0-0.2-0.1-0.3-0.1c-0.1,0-0.2-0.1-0.4-0.1c-0.2,0-0.3,0-0.6,0c-0.8,0-1.4,0.2-1.9,0.7s-0.9,1.1-1.2,2v6.5H336.1z"/>
			<path fill="#231F20" d="M349.5,237.8c0,0.1-0.1,0.1-0.2,0.1c-0.1,0-0.2,0-0.3-0.1s-0.3-0.2-0.5-0.3c-0.2-0.1-0.4-0.2-0.7-0.3
				s-0.6-0.1-1-0.1c-0.4,0-0.7,0.1-1,0.2c-0.3,0.1-0.6,0.2-0.8,0.4c-0.2,0.2-0.4,0.4-0.5,0.6c-0.1,0.2-0.2,0.5-0.2,0.7
				c0,0.3,0.1,0.6,0.2,0.8s0.4,0.4,0.6,0.5c0.3,0.1,0.6,0.3,0.9,0.4c0.3,0.1,0.7,0.2,1,0.3c0.3,0.1,0.7,0.2,1,0.4
				c0.3,0.1,0.6,0.3,0.9,0.5c0.3,0.2,0.5,0.4,0.6,0.7c0.2,0.3,0.2,0.6,0.2,1c0,0.4-0.1,0.8-0.2,1.2s-0.4,0.7-0.7,1
				c-0.3,0.3-0.7,0.5-1.1,0.7c-0.4,0.2-0.9,0.2-1.5,0.2c-0.7,0-1.3-0.1-1.8-0.3s-1-0.5-1.4-0.9l0.2-0.3c0-0.1,0.1-0.1,0.1-0.1
				s0.1,0,0.2,0c0.1,0,0.2,0.1,0.3,0.2s0.3,0.2,0.5,0.3s0.5,0.2,0.8,0.3s0.7,0.2,1.1,0.2c0.4,0,0.8-0.1,1.1-0.2
				c0.3-0.1,0.6-0.3,0.8-0.5c0.2-0.2,0.4-0.4,0.5-0.7c0.1-0.3,0.2-0.6,0.2-0.9c0-0.3-0.1-0.6-0.2-0.8c-0.2-0.2-0.4-0.4-0.6-0.6
				c-0.3-0.2-0.6-0.3-0.9-0.4s-0.7-0.2-1-0.3s-0.7-0.2-1-0.4c-0.3-0.1-0.6-0.3-0.9-0.5s-0.5-0.4-0.6-0.7c-0.2-0.3-0.2-0.6-0.2-1
				c0-0.4,0.1-0.7,0.2-1c0.2-0.3,0.4-0.6,0.7-0.9c0.3-0.2,0.6-0.4,1-0.6c0.4-0.1,0.9-0.2,1.4-0.2c0.6,0,1.1,0.1,1.6,0.3
				s0.9,0.4,1.3,0.8L349.5,237.8z"/>
			<path fill="#231F20" d="M363.1,237.9C363.1,238,363,238,363.1,237.9c-0.1,0.1-0.2,0.1-0.2,0.1c-0.1,0-0.2,0-0.3-0.1
				c-0.1-0.1-0.3-0.2-0.5-0.3c-0.2-0.1-0.4-0.2-0.7-0.3c-0.3-0.1-0.6-0.1-1.1-0.1c-0.6,0-1.1,0.1-1.5,0.3c-0.4,0.2-0.8,0.5-1.1,0.9
				s-0.5,0.8-0.7,1.4c-0.2,0.5-0.2,1.1-0.2,1.8c0,0.7,0.1,1.3,0.2,1.9s0.4,1,0.7,1.4c0.3,0.4,0.7,0.7,1.1,0.8s0.9,0.3,1.4,0.3
				c0.5,0,0.9-0.1,1.2-0.2c0.3-0.1,0.6-0.2,0.8-0.4c0.2-0.1,0.4-0.3,0.5-0.4c0.1-0.1,0.2-0.2,0.3-0.2c0.1,0,0.2,0,0.2,0.1l0.3,0.3
				c-0.2,0.2-0.3,0.4-0.6,0.6c-0.2,0.2-0.5,0.3-0.8,0.5s-0.6,0.2-1,0.3c-0.3,0.1-0.7,0.1-1.1,0.1c-0.6,0-1.2-0.1-1.7-0.3
				s-1-0.6-1.4-1c-0.4-0.4-0.7-1-0.9-1.6c-0.2-0.6-0.3-1.4-0.3-2.2c0-0.8,0.1-1.5,0.3-2.1s0.5-1.2,0.9-1.6c0.4-0.5,0.9-0.8,1.4-1.1
				c0.6-0.3,1.2-0.4,1.9-0.4c0.6,0,1.2,0.1,1.7,0.3c0.5,0.2,0.9,0.5,1.3,0.8L363.1,237.9z"/>
			<path fill="#231F20" d="M372,246.6c-0.2,0-0.3-0.1-0.4-0.3l-0.1-1.3c-0.3,0.3-0.5,0.5-0.8,0.7c-0.3,0.2-0.6,0.4-0.8,0.5
				s-0.6,0.3-1,0.3c-0.3,0.1-0.7,0.1-1.1,0.1c-0.3,0-0.7,0-1-0.1c-0.3-0.1-0.6-0.3-0.9-0.5c-0.2-0.2-0.4-0.5-0.6-0.8
				c-0.2-0.3-0.2-0.7-0.2-1.2c0-0.4,0.1-0.8,0.4-1.2c0.2-0.4,0.6-0.7,1.1-0.9c0.5-0.3,1.2-0.5,2-0.6c0.8-0.2,1.8-0.3,2.9-0.3v-1
				c0-0.9-0.2-1.6-0.6-2.1s-1-0.7-1.8-0.7c-0.5,0-0.9,0.1-1.2,0.2c-0.3,0.1-0.6,0.3-0.9,0.4c-0.2,0.2-0.4,0.3-0.6,0.4
				c-0.1,0.1-0.3,0.2-0.4,0.2c-0.1,0-0.2-0.1-0.3-0.2l-0.2-0.3c0.5-0.5,1.1-0.9,1.6-1.2c0.6-0.3,1.2-0.4,2-0.4c0.5,0,1,0.1,1.4,0.3
				c0.4,0.2,0.7,0.4,1,0.7c0.3,0.3,0.5,0.7,0.6,1.2c0.1,0.5,0.2,1,0.2,1.5v6.5H372z M368,246c0.4,0,0.7,0,1.1-0.1s0.6-0.2,0.9-0.4
				s0.5-0.3,0.8-0.5c0.2-0.2,0.5-0.4,0.7-0.7v-2.6c-0.9,0-1.8,0.1-2.5,0.2c-0.7,0.1-1.2,0.3-1.7,0.5c-0.4,0.2-0.8,0.4-1,0.7
				c-0.2,0.3-0.3,0.6-0.3,0.9c0,0.3,0.1,0.6,0.2,0.9c0.1,0.2,0.3,0.4,0.4,0.6c0.2,0.2,0.4,0.3,0.6,0.3C367.5,246,367.7,246,368,246z
				"/>
			<path fill="#231F20" d="M375.4,246.6v-10h0.5c0.2,0,0.3,0.1,0.3,0.3l0.1,1.5c0.5-0.6,1-1,1.6-1.4c0.6-0.4,1.3-0.5,2-0.5
				c0.5,0,1,0.1,1.4,0.3c0.4,0.2,0.8,0.4,1,0.8c0.3,0.3,0.5,0.7,0.6,1.2c0.1,0.5,0.2,1,0.2,1.6v6.4h-1v-6.4c0-0.9-0.2-1.7-0.6-2.2
				c-0.4-0.5-1.1-0.8-2-0.8c-0.7,0-1.3,0.2-1.8,0.5s-1.1,0.8-1.5,1.4v7.5H375.4z"/>
			<path fill="#231F20" d="M147.2,270.6v-8.3l-0.7-0.1c-0.2-0.1-0.4-0.1-0.6-0.3c-0.1-0.1-0.2-0.3-0.2-0.5v-1.2h1.5v-0.6
				c0-0.6,0.1-1.1,0.3-1.6c0.2-0.5,0.5-0.9,0.8-1.2s0.8-0.6,1.3-0.8c0.5-0.2,1.1-0.3,1.8-0.3c0.3,0,0.5,0,0.7,0
				c0.2,0,0.4,0.1,0.7,0.1l-0.1,1.5c0,0.1,0,0.2-0.1,0.3c0,0.1-0.1,0.1-0.2,0.2c-0.1,0-0.2,0.1-0.2,0.1s-0.2,0-0.3,0
				c-0.3,0-0.5,0-0.7,0.1c-0.2,0.1-0.4,0.1-0.5,0.3c-0.1,0.1-0.3,0.3-0.3,0.5c-0.1,0.2-0.1,0.5-0.1,0.8v0.5h2.4v2.1h-2.3v8.2H147.2z
				"/>
			<path fill="#231F20" d="M161.1,270.6c-0.3,0-0.5,0-0.7-0.1c-0.2-0.1-0.3-0.2-0.4-0.5l-0.2-0.6c-0.3,0.2-0.5,0.4-0.8,0.6
				s-0.5,0.3-0.7,0.4c-0.3,0.1-0.5,0.2-0.8,0.3c-0.3,0.1-0.6,0.1-1,0.1c-0.5,0-0.9-0.1-1.3-0.2c-0.4-0.1-0.7-0.3-1-0.5
				c-0.3-0.2-0.5-0.5-0.6-0.9c-0.1-0.4-0.2-0.8-0.2-1.2c0-0.4,0.1-0.7,0.3-1.1c0.2-0.4,0.5-0.7,1-1.1s1.1-0.6,1.9-0.8
				c0.8-0.2,1.8-0.3,3-0.3v-0.4c0-0.6-0.1-1.1-0.4-1.3c-0.3-0.3-0.6-0.4-1.1-0.4c-0.4,0-0.7,0-0.9,0.1c-0.2,0.1-0.4,0.2-0.6,0.3
				c-0.2,0.1-0.4,0.2-0.5,0.3c-0.2,0.1-0.4,0.1-0.6,0.1c-0.2,0-0.4-0.1-0.5-0.2s-0.3-0.2-0.4-0.4l-0.6-1c0.6-0.6,1.3-1,2.1-1.2
				c0.8-0.3,1.6-0.4,2.5-0.4c0.6,0,1.2,0.1,1.7,0.3c0.5,0.2,0.9,0.5,1.3,0.9c0.4,0.4,0.6,0.8,0.8,1.3c0.2,0.5,0.3,1,0.3,1.6v6.5
				H161.1z M157.6,268.7c0.4,0,0.8-0.1,1.1-0.2c0.3-0.1,0.6-0.4,0.9-0.7v-1.4c-0.6,0-1.1,0-1.5,0.1c-0.4,0.1-0.7,0.2-1,0.3
				c-0.2,0.1-0.4,0.3-0.5,0.4c-0.1,0.2-0.1,0.3-0.1,0.5c0,0.4,0.1,0.6,0.3,0.8C156.9,268.7,157.2,268.7,157.6,268.7z"/>
			<path fill="#231F20" d="M164.8,270.6v-15h3.1v5.7c0.4-0.4,0.8-0.7,1.3-0.9c0.5-0.2,1.1-0.3,1.7-0.3c0.5,0,1,0.1,1.5,0.4
				s0.9,0.6,1.2,1c0.3,0.5,0.6,1,0.8,1.7s0.3,1.4,0.3,2.2c0,0.8-0.1,1.5-0.3,2.2c-0.2,0.7-0.5,1.2-0.9,1.7s-0.9,0.9-1.4,1.1
				c-0.5,0.3-1.1,0.4-1.8,0.4c-0.3,0-0.6,0-0.8-0.1s-0.5-0.1-0.7-0.3c-0.2-0.1-0.4-0.2-0.6-0.4c-0.2-0.2-0.3-0.3-0.5-0.5l-0.1,0.5
				c0,0.2-0.1,0.4-0.3,0.4c-0.1,0.1-0.3,0.1-0.5,0.1H164.8z M169.8,262.4c-0.2,0-0.4,0-0.6,0.1s-0.4,0.1-0.5,0.2s-0.3,0.2-0.4,0.3
				c-0.1,0.1-0.3,0.3-0.4,0.4v4.4c0.2,0.3,0.5,0.4,0.8,0.5c0.3,0.1,0.6,0.2,0.9,0.2c0.3,0,0.6-0.1,0.8-0.2c0.2-0.1,0.4-0.3,0.6-0.5
				c0.2-0.3,0.3-0.6,0.4-1c0.1-0.4,0.2-0.9,0.2-1.5c0-0.5,0-1-0.1-1.4c-0.1-0.4-0.2-0.7-0.3-0.9c-0.1-0.2-0.3-0.4-0.5-0.5
				S170.1,262.4,169.8,262.4z"/>
			<path fill="#231F20" d="M176.4,270.6v-10.4h1.8c0.2,0,0.3,0,0.4,0c0.1,0,0.2,0.1,0.3,0.1s0.1,0.1,0.2,0.2c0,0.1,0.1,0.2,0.1,0.3
				l0.2,1c0.4-0.6,0.8-1.1,1.3-1.4c0.5-0.3,1-0.5,1.6-0.5c0.5,0,0.9,0.1,1.1,0.3l-0.4,2.3c0,0.1-0.1,0.2-0.2,0.3
				c-0.1,0.1-0.2,0.1-0.3,0.1c-0.1,0-0.2,0-0.4,0c-0.2,0-0.3,0-0.6,0c-0.8,0-1.5,0.4-1.9,1.3v6.4H176.4z"/>
			<path fill="#231F20" d="M188.2,257.4c0,0.2,0,0.5-0.2,0.7c-0.1,0.2-0.2,0.4-0.4,0.6c-0.2,0.2-0.4,0.3-0.6,0.4s-0.5,0.1-0.7,0.1
				c-0.3,0-0.5,0-0.7-0.1c-0.2-0.1-0.4-0.2-0.6-0.4c-0.2-0.2-0.3-0.4-0.4-0.6c-0.1-0.2-0.1-0.4-0.1-0.7c0-0.3,0-0.5,0.1-0.7
				c0.1-0.2,0.2-0.4,0.4-0.6c0.2-0.2,0.4-0.3,0.6-0.4c0.2-0.1,0.5-0.1,0.7-0.1c0.3,0,0.5,0,0.7,0.1c0.2,0.1,0.4,0.2,0.6,0.4
				s0.3,0.4,0.4,0.6C188.2,256.9,188.2,257.1,188.2,257.4z M187.9,260.2v10.4h-3.1v-10.4H187.9z"/>
			<path fill="#231F20" d="M197.9,262.7c-0.1,0.1-0.2,0.2-0.3,0.3s-0.2,0.1-0.4,0.1c-0.2,0-0.3,0-0.4-0.1c-0.1-0.1-0.3-0.2-0.4-0.2
				c-0.2-0.1-0.3-0.2-0.5-0.2c-0.2-0.1-0.5-0.1-0.8-0.1c-0.4,0-0.7,0.1-1,0.2c-0.3,0.1-0.5,0.3-0.7,0.6s-0.3,0.6-0.4,1
				c-0.1,0.4-0.1,0.8-0.1,1.3c0,1,0.2,1.8,0.6,2.3c0.4,0.5,0.9,0.8,1.6,0.8c0.4,0,0.6,0,0.9-0.1c0.2-0.1,0.4-0.2,0.5-0.3
				c0.1-0.1,0.3-0.2,0.4-0.3s0.3-0.1,0.5-0.1c0.2,0,0.4,0.1,0.6,0.3l0.9,1.1c-0.3,0.4-0.7,0.7-1,0.9s-0.7,0.4-1.1,0.5
				c-0.4,0.1-0.7,0.2-1.1,0.3c-0.4,0.1-0.7,0.1-1.1,0.1c-0.6,0-1.2-0.1-1.8-0.4c-0.6-0.2-1.1-0.6-1.5-1c-0.4-0.5-0.8-1-1-1.7
				c-0.3-0.7-0.4-1.4-0.4-2.3c0-0.7,0.1-1.4,0.3-2.1c0.2-0.7,0.6-1.2,1-1.7c0.4-0.5,1-0.9,1.6-1.1c0.6-0.3,1.4-0.4,2.2-0.4
				c0.8,0,1.5,0.1,2.1,0.4c0.6,0.3,1.2,0.6,1.7,1.1L197.9,262.7z"/>
			<path fill="#231F20" d="M207.3,270.6c-0.3,0-0.5,0-0.7-0.1c-0.2-0.1-0.3-0.2-0.4-0.5l-0.2-0.6c-0.3,0.2-0.5,0.4-0.8,0.6
				s-0.5,0.3-0.7,0.4c-0.3,0.1-0.5,0.2-0.8,0.3c-0.3,0.1-0.6,0.1-1,0.1c-0.5,0-0.9-0.1-1.3-0.2c-0.4-0.1-0.7-0.3-1-0.5
				c-0.3-0.2-0.5-0.5-0.6-0.9c-0.1-0.4-0.2-0.8-0.2-1.2c0-0.4,0.1-0.7,0.3-1.1c0.2-0.4,0.5-0.7,1-1.1s1.1-0.6,1.9-0.8
				c0.8-0.2,1.8-0.3,3-0.3v-0.4c0-0.6-0.1-1.1-0.4-1.3c-0.3-0.3-0.6-0.4-1.1-0.4c-0.4,0-0.7,0-0.9,0.1c-0.2,0.1-0.4,0.2-0.6,0.3
				c-0.2,0.1-0.4,0.2-0.5,0.3c-0.2,0.1-0.4,0.1-0.6,0.1c-0.2,0-0.4-0.1-0.5-0.2s-0.3-0.2-0.4-0.4l-0.6-1c0.6-0.6,1.3-1,2.1-1.2
				c0.8-0.3,1.6-0.4,2.5-0.4c0.6,0,1.2,0.1,1.7,0.3c0.5,0.2,0.9,0.5,1.3,0.9c0.4,0.4,0.6,0.8,0.8,1.3c0.2,0.5,0.3,1,0.3,1.6v6.5
				H207.3z M203.7,268.7c0.4,0,0.8-0.1,1.1-0.2c0.3-0.1,0.6-0.4,0.9-0.7v-1.4c-0.6,0-1.1,0-1.5,0.1c-0.4,0.1-0.7,0.2-1,0.3
				c-0.2,0.1-0.4,0.3-0.5,0.4c-0.1,0.2-0.1,0.3-0.1,0.5c0,0.4,0.1,0.6,0.3,0.8C203.1,268.7,203.4,268.7,203.7,268.7z"/>
			<path fill="#231F20" d="M214.6,270.8c-0.5,0-0.9-0.1-1.3-0.2c-0.4-0.1-0.7-0.3-1-0.6c-0.3-0.3-0.5-0.6-0.6-1
				c-0.1-0.4-0.2-0.8-0.2-1.3v-5.4h-0.9c-0.2,0-0.3-0.1-0.4-0.2c-0.1-0.1-0.2-0.3-0.2-0.5v-1.2l1.7-0.3l0.6-2.5
				c0.1-0.3,0.3-0.5,0.7-0.5h1.6v3h2.5v2.1h-2.5v5.2c0,0.2,0.1,0.4,0.2,0.6c0.1,0.2,0.3,0.2,0.5,0.2c0.1,0,0.2,0,0.3,0
				s0.1-0.1,0.2-0.1c0.1,0,0.1-0.1,0.2-0.1c0,0,0.1,0,0.2,0c0.1,0,0.2,0,0.2,0.1s0.1,0.1,0.2,0.2l0.9,1.5c-0.4,0.3-0.9,0.5-1.4,0.7
				C215.6,270.7,215.1,270.8,214.6,270.8z"/>
			<path fill="#231F20" d="M223.4,260.1c0.7,0,1.3,0.1,1.9,0.3s1.1,0.5,1.5,0.9c0.4,0.4,0.7,0.9,1,1.5c0.2,0.6,0.3,1.3,0.3,2
				c0,0.2,0,0.4,0,0.6c0,0.1-0.1,0.3-0.1,0.4s-0.1,0.1-0.2,0.2c-0.1,0-0.2,0.1-0.3,0.1h-6c0.1,0.9,0.4,1.5,0.8,1.9
				c0.4,0.4,1,0.6,1.7,0.6c0.4,0,0.7,0,0.9-0.1c0.3-0.1,0.5-0.2,0.7-0.3c0.2-0.1,0.4-0.2,0.6-0.3c0.2-0.1,0.3-0.1,0.5-0.1
				c0.2,0,0.4,0.1,0.6,0.3l0.9,1.1c-0.3,0.4-0.7,0.7-1,0.9s-0.8,0.4-1.1,0.5s-0.8,0.2-1.2,0.3c-0.4,0.1-0.8,0.1-1.1,0.1
				c-0.7,0-1.4-0.1-2-0.4c-0.6-0.2-1.2-0.6-1.7-1.1c-0.5-0.5-0.9-1-1.1-1.7c-0.3-0.7-0.4-1.5-0.4-2.4c0-0.7,0.1-1.4,0.4-2
				c0.2-0.6,0.6-1.2,1-1.6s1-0.8,1.6-1.1C221.9,260.2,222.6,260.1,223.4,260.1z M223.5,262.2c-0.6,0-1.1,0.2-1.4,0.5
				s-0.6,0.8-0.7,1.5h3.9c0-0.2,0-0.5-0.1-0.7c-0.1-0.2-0.2-0.4-0.3-0.6c-0.1-0.2-0.3-0.3-0.6-0.4
				C224.1,262.3,223.8,262.2,223.5,262.2z"/>
			<path fill="#231F20" d="M234.2,270.6v-8.3l-0.7-0.1c-0.2-0.1-0.4-0.1-0.6-0.3c-0.1-0.1-0.2-0.3-0.2-0.5v-1.2h1.5v-0.6
				c0-0.6,0.1-1.1,0.3-1.6c0.2-0.5,0.5-0.9,0.8-1.2s0.8-0.6,1.3-0.8c0.5-0.2,1.1-0.3,1.8-0.3c0.3,0,0.5,0,0.7,0
				c0.2,0,0.4,0.1,0.7,0.1l-0.1,1.5c0,0.1,0,0.2-0.1,0.3c0,0.1-0.1,0.1-0.2,0.2c-0.1,0-0.2,0.1-0.2,0.1s-0.2,0-0.3,0
				c-0.3,0-0.5,0-0.7,0.1c-0.2,0.1-0.4,0.1-0.5,0.3c-0.1,0.1-0.3,0.3-0.3,0.5c-0.1,0.2-0.1,0.5-0.1,0.8v0.5h2.4v2.1h-2.3v8.2H234.2z
				"/>
			<path fill="#231F20" d="M245.6,260.1c0.8,0,1.5,0.1,2.2,0.4c0.6,0.2,1.2,0.6,1.7,1.1c0.5,0.5,0.8,1,1.1,1.7
				c0.3,0.7,0.4,1.4,0.4,2.2c0,0.8-0.1,1.6-0.4,2.2c-0.3,0.7-0.6,1.2-1.1,1.7c-0.5,0.5-1,0.8-1.7,1.1c-0.6,0.3-1.4,0.4-2.2,0.4
				c-0.8,0-1.5-0.1-2.2-0.4s-1.2-0.6-1.7-1.1c-0.5-0.5-0.8-1-1.1-1.7c-0.3-0.7-0.4-1.4-0.4-2.2c0-0.8,0.1-1.6,0.4-2.2
				c0.3-0.7,0.6-1.2,1.1-1.7s1-0.8,1.7-1.1C244.1,260.2,244.8,260.1,245.6,260.1z M245.6,268.5c0.7,0,1.2-0.3,1.6-0.8
				c0.3-0.5,0.5-1.3,0.5-2.3c0-1-0.2-1.8-0.5-2.3c-0.3-0.5-0.9-0.8-1.6-0.8c-0.7,0-1.3,0.3-1.6,0.8s-0.5,1.3-0.5,2.3
				c0,1,0.2,1.8,0.5,2.3S244.9,268.5,245.6,268.5z"/>
			<path fill="#231F20" d="M252.6,270.6v-10.4h1.8c0.2,0,0.3,0,0.4,0c0.1,0,0.2,0.1,0.3,0.1s0.1,0.1,0.2,0.2c0,0.1,0.1,0.2,0.1,0.3
				l0.2,1c0.4-0.6,0.8-1.1,1.3-1.4c0.5-0.3,1-0.5,1.6-0.5c0.5,0,0.9,0.1,1.1,0.3l-0.4,2.3c0,0.1-0.1,0.2-0.2,0.3
				c-0.1,0.1-0.2,0.1-0.3,0.1c-0.1,0-0.2,0-0.4,0c-0.2,0-0.3,0-0.6,0c-0.8,0-1.5,0.4-1.9,1.3v6.4H252.6z"/>
			<path fill="#231F20" d="M268,255.6v15h-3.1v-15H268z"/>
			<path fill="#231F20" d="M275.1,260.1c0.8,0,1.5,0.1,2.2,0.4c0.6,0.2,1.2,0.6,1.7,1.1c0.5,0.5,0.8,1,1.1,1.7
				c0.3,0.7,0.4,1.4,0.4,2.2c0,0.8-0.1,1.6-0.4,2.2c-0.3,0.7-0.6,1.2-1.1,1.7c-0.5,0.5-1,0.8-1.7,1.1c-0.6,0.3-1.4,0.4-2.2,0.4
				c-0.8,0-1.5-0.1-2.2-0.4s-1.2-0.6-1.7-1.1c-0.5-0.5-0.8-1-1.1-1.7c-0.3-0.7-0.4-1.4-0.4-2.2c0-0.8,0.1-1.6,0.4-2.2
				c0.3-0.7,0.6-1.2,1.1-1.7s1-0.8,1.7-1.1C273.6,260.2,274.3,260.1,275.1,260.1z M275.1,268.5c0.7,0,1.2-0.3,1.6-0.8
				c0.3-0.5,0.5-1.3,0.5-2.3c0-1-0.2-1.8-0.5-2.3c-0.3-0.5-0.9-0.8-1.6-0.8c-0.7,0-1.3,0.3-1.6,0.8s-0.5,1.3-0.5,2.3
				c0,1,0.2,1.8,0.5,2.3S274.4,268.5,275.1,268.5z"/>
			<path fill="#231F20" d="M280.9,260.2h2.5c0.2,0,0.4,0.1,0.6,0.2s0.3,0.2,0.3,0.4l1,4.7c0.1,0.4,0.2,0.7,0.2,1
				c0.1,0.3,0.1,0.7,0.2,1c0.1-0.3,0.2-0.7,0.3-1c0.1-0.3,0.2-0.7,0.3-1l1.3-4.7c0-0.2,0.1-0.3,0.3-0.4s0.3-0.2,0.5-0.2h1.4
				c0.2,0,0.4,0.1,0.6,0.2s0.3,0.2,0.3,0.4l1.2,4.7c0.1,0.4,0.2,0.7,0.3,1s0.2,0.7,0.3,1c0.1-0.3,0.1-0.7,0.2-1
				c0.1-0.3,0.2-0.7,0.2-1l1.1-4.7c0-0.2,0.1-0.3,0.3-0.4s0.3-0.2,0.5-0.2h2.4l-3.2,10.4h-2.5c-0.1,0-0.2,0-0.3-0.1
				c-0.1-0.1-0.2-0.2-0.2-0.4l-1.5-5.2c-0.1-0.2-0.1-0.5-0.2-0.7c-0.1-0.2-0.1-0.5-0.2-0.7c0,0.2-0.1,0.5-0.2,0.7
				c-0.1,0.2-0.1,0.5-0.2,0.7l-1.5,5.2c-0.1,0.3-0.3,0.5-0.7,0.5h-2.4L280.9,260.2z"/>
			<path fill="#231F20" d="M309.8,262.7c-0.1,0.1-0.2,0.2-0.3,0.3s-0.2,0.1-0.4,0.1c-0.2,0-0.3,0-0.4-0.1c-0.1-0.1-0.3-0.2-0.4-0.2
				c-0.2-0.1-0.3-0.2-0.5-0.2c-0.2-0.1-0.5-0.1-0.8-0.1c-0.4,0-0.7,0.1-1,0.2c-0.3,0.1-0.5,0.3-0.7,0.6s-0.3,0.6-0.4,1
				c-0.1,0.4-0.1,0.8-0.1,1.3c0,1,0.2,1.8,0.6,2.3c0.4,0.5,0.9,0.8,1.6,0.8c0.4,0,0.6,0,0.9-0.1c0.2-0.1,0.4-0.2,0.5-0.3
				c0.1-0.1,0.3-0.2,0.4-0.3s0.3-0.1,0.5-0.1c0.2,0,0.4,0.1,0.6,0.3l0.9,1.1c-0.3,0.4-0.7,0.7-1,0.9s-0.7,0.4-1.1,0.5
				c-0.4,0.1-0.7,0.2-1.1,0.3c-0.4,0.1-0.7,0.1-1.1,0.1c-0.6,0-1.2-0.1-1.8-0.4c-0.6-0.2-1.1-0.6-1.5-1c-0.4-0.5-0.8-1-1-1.7
				c-0.3-0.7-0.4-1.4-0.4-2.3c0-0.7,0.1-1.4,0.3-2.1c0.2-0.7,0.6-1.2,1-1.7c0.4-0.5,1-0.9,1.6-1.1c0.6-0.3,1.4-0.4,2.2-0.4
				c0.8,0,1.5,0.1,2.1,0.4c0.6,0.3,1.2,0.6,1.7,1.1L309.8,262.7z"/>
			<path fill="#231F20" d="M316.6,260.1c0.8,0,1.5,0.1,2.2,0.4c0.6,0.2,1.2,0.6,1.7,1.1c0.5,0.5,0.8,1,1.1,1.7
				c0.3,0.7,0.4,1.4,0.4,2.2c0,0.8-0.1,1.6-0.4,2.2c-0.3,0.7-0.6,1.2-1.1,1.7c-0.5,0.5-1,0.8-1.7,1.1c-0.6,0.3-1.4,0.4-2.2,0.4
				c-0.8,0-1.5-0.1-2.2-0.4s-1.2-0.6-1.7-1.1c-0.5-0.5-0.8-1-1.1-1.7c-0.3-0.7-0.4-1.4-0.4-2.2c0-0.8,0.1-1.6,0.4-2.2
				c0.3-0.7,0.6-1.2,1.1-1.7s1-0.8,1.7-1.1C315.1,260.2,315.8,260.1,316.6,260.1z M316.6,268.5c0.7,0,1.2-0.3,1.6-0.8
				c0.3-0.5,0.5-1.3,0.5-2.3c0-1-0.2-1.8-0.5-2.3c-0.3-0.5-0.9-0.8-1.6-0.8c-0.7,0-1.3,0.3-1.6,0.8s-0.5,1.3-0.5,2.3
				c0,1,0.2,1.8,0.5,2.3S315.9,268.5,316.6,268.5z"/>
			<path fill="#231F20" d="M330,262.5c-0.1,0.1-0.2,0.2-0.3,0.3c-0.1,0.1-0.2,0.1-0.3,0.1c-0.1,0-0.3,0-0.4-0.1
				c-0.1-0.1-0.3-0.1-0.5-0.2c-0.2-0.1-0.4-0.1-0.6-0.2s-0.5-0.1-0.7-0.1c-0.4,0-0.7,0.1-0.9,0.2c-0.2,0.2-0.3,0.4-0.3,0.6
				c0,0.2,0.1,0.4,0.2,0.5s0.3,0.2,0.5,0.3c0.2,0.1,0.5,0.2,0.8,0.3c0.3,0.1,0.6,0.2,0.9,0.3c0.3,0.1,0.6,0.2,0.9,0.4
				c0.3,0.1,0.5,0.3,0.8,0.5c0.2,0.2,0.4,0.5,0.5,0.8c0.1,0.3,0.2,0.7,0.2,1.1c0,0.5-0.1,1-0.3,1.4c-0.2,0.4-0.5,0.8-0.8,1.1
				c-0.4,0.3-0.8,0.6-1.4,0.7c-0.5,0.2-1.2,0.3-1.9,0.3c-0.4,0-0.7,0-1.1-0.1c-0.4-0.1-0.7-0.2-1-0.3c-0.3-0.1-0.6-0.2-0.9-0.4
				c-0.3-0.2-0.5-0.3-0.7-0.5l0.7-1.1c0.1-0.1,0.2-0.2,0.3-0.3s0.3-0.1,0.5-0.1c0.2,0,0.3,0,0.5,0.1s0.3,0.2,0.5,0.3
				c0.2,0.1,0.4,0.2,0.6,0.3c0.2,0.1,0.5,0.1,0.8,0.1c0.2,0,0.4,0,0.6-0.1c0.2-0.1,0.3-0.1,0.4-0.2c0.1-0.1,0.2-0.2,0.2-0.3
				s0.1-0.2,0.1-0.3c0-0.2-0.1-0.4-0.2-0.5c-0.1-0.1-0.3-0.2-0.6-0.3c-0.2-0.1-0.5-0.2-0.8-0.3c-0.3-0.1-0.6-0.2-0.9-0.3
				c-0.3-0.1-0.6-0.2-0.9-0.4s-0.5-0.3-0.8-0.6c-0.2-0.2-0.4-0.5-0.6-0.8c-0.1-0.3-0.2-0.7-0.2-1.2c0-0.4,0.1-0.9,0.3-1.3
				c0.2-0.4,0.4-0.7,0.8-1c0.3-0.3,0.8-0.5,1.3-0.7c0.5-0.2,1.1-0.3,1.8-0.3c0.4,0,0.7,0,1.1,0.1s0.7,0.2,1,0.3
				c0.3,0.1,0.6,0.3,0.8,0.4s0.5,0.3,0.7,0.5L330,262.5z"/>
			<path fill="#231F20" d="M336.1,270.8c-0.5,0-0.9-0.1-1.3-0.2c-0.4-0.1-0.7-0.3-1-0.6c-0.3-0.3-0.5-0.6-0.6-1
				c-0.1-0.4-0.2-0.8-0.2-1.3v-5.4h-0.9c-0.2,0-0.3-0.1-0.4-0.2c-0.1-0.1-0.2-0.3-0.2-0.5v-1.2l1.7-0.3l0.6-2.5
				c0.1-0.3,0.3-0.5,0.7-0.5h1.6v3h2.5v2.1h-2.5v5.2c0,0.2,0.1,0.4,0.2,0.6c0.1,0.2,0.3,0.2,0.5,0.2c0.1,0,0.2,0,0.3,0
				s0.1-0.1,0.2-0.1c0.1,0,0.1-0.1,0.2-0.1c0,0,0.1,0,0.2,0c0.1,0,0.2,0,0.2,0.1s0.1,0.1,0.2,0.2l0.9,1.5c-0.4,0.3-0.9,0.5-1.4,0.7
				C337.1,270.7,336.6,270.8,336.1,270.8z"/>
			<path fill="#231F20" d="M352.2,270.6c-0.2,0-0.3-0.1-0.4-0.3l-0.1-1.3c-0.3,0.3-0.5,0.5-0.8,0.7c-0.3,0.2-0.6,0.4-0.8,0.5
				s-0.6,0.3-1,0.3c-0.3,0.1-0.7,0.1-1.1,0.1c-0.3,0-0.7,0-1-0.1c-0.3-0.1-0.6-0.3-0.9-0.5c-0.2-0.2-0.4-0.5-0.6-0.8
				c-0.2-0.3-0.2-0.7-0.2-1.2c0-0.4,0.1-0.8,0.4-1.2c0.2-0.4,0.6-0.7,1.1-0.9c0.5-0.3,1.2-0.5,2-0.6c0.8-0.2,1.8-0.3,2.9-0.3v-1
				c0-0.9-0.2-1.6-0.6-2.1s-1-0.7-1.8-0.7c-0.5,0-0.9,0.1-1.2,0.2c-0.3,0.1-0.6,0.3-0.9,0.4c-0.2,0.2-0.4,0.3-0.6,0.4
				c-0.1,0.1-0.3,0.2-0.4,0.2c-0.1,0-0.2-0.1-0.3-0.2l-0.2-0.3c0.5-0.5,1.1-0.9,1.6-1.2c0.6-0.3,1.2-0.4,2-0.4c0.5,0,1,0.1,1.4,0.3
				c0.4,0.2,0.7,0.4,1,0.7c0.3,0.3,0.5,0.7,0.6,1.2c0.1,0.5,0.2,1,0.2,1.5v6.5H352.2z M348.2,270.1c0.4,0,0.7,0,1.1-0.1
				s0.6-0.2,0.9-0.4s0.5-0.3,0.8-0.5c0.2-0.2,0.5-0.4,0.7-0.7v-2.6c-0.9,0-1.8,0.1-2.5,0.2c-0.7,0.1-1.2,0.3-1.7,0.5
				c-0.4,0.2-0.8,0.4-1,0.7c-0.2,0.3-0.3,0.6-0.3,0.9c0,0.3,0.1,0.6,0.2,0.9c0.1,0.2,0.3,0.4,0.4,0.6c0.2,0.2,0.4,0.3,0.6,0.3
				C347.7,270.1,347.9,270.1,348.2,270.1z"/>
			<path fill="#231F20" d="M355.6,270.6v-10h0.5c0.2,0,0.3,0.1,0.3,0.3l0.1,1.5c0.5-0.6,1-1,1.6-1.4c0.6-0.4,1.3-0.5,2-0.5
				c0.5,0,1,0.1,1.4,0.3c0.4,0.2,0.8,0.4,1,0.8c0.3,0.3,0.5,0.7,0.6,1.2c0.1,0.5,0.2,1,0.2,1.6v6.4h-1v-6.4c0-0.9-0.2-1.7-0.6-2.2
				c-0.4-0.5-1.1-0.8-2-0.8c-0.7,0-1.3,0.2-1.8,0.5s-1.1,0.8-1.5,1.4v7.5H355.6z"/>
			<path fill="#231F20" d="M373.5,270.6c-0.2,0-0.3-0.1-0.3-0.3l-0.1-1.6c-0.4,0.6-1,1.1-1.5,1.4c-0.6,0.4-1.3,0.5-2,0.5
				c-1.2,0-2.2-0.4-2.9-1.3s-1-2.1-1-3.8c0-0.7,0.1-1.4,0.3-2c0.2-0.6,0.5-1.2,0.8-1.6s0.8-0.8,1.4-1.1c0.5-0.3,1.2-0.4,1.9-0.4
				c0.7,0,1.3,0.1,1.8,0.4s0.9,0.6,1.3,1.1V256h1v14.6H373.5z M369.8,270c0.7,0,1.3-0.2,1.8-0.5c0.5-0.3,1-0.8,1.4-1.4v-5.3
				c-0.4-0.6-0.8-1-1.3-1.2s-1-0.4-1.6-0.4s-1.1,0.1-1.5,0.3c-0.4,0.2-0.8,0.5-1.1,0.9c-0.3,0.4-0.5,0.9-0.7,1.4s-0.2,1.1-0.2,1.8
				c0,1.5,0.3,2.6,0.8,3.3C368,269.6,368.8,270,369.8,270z"/>
			<path fill="#231F20" d="M386.7,261.9c0,0.1-0.1,0.1-0.2,0.1c-0.1,0-0.2,0-0.3-0.1s-0.3-0.2-0.5-0.3c-0.2-0.1-0.4-0.2-0.7-0.3
				s-0.6-0.1-1-0.1c-0.4,0-0.7,0.1-1,0.2c-0.3,0.1-0.6,0.2-0.8,0.4c-0.2,0.2-0.4,0.4-0.5,0.6c-0.1,0.2-0.2,0.5-0.2,0.7
				c0,0.3,0.1,0.6,0.2,0.8s0.4,0.4,0.6,0.5c0.3,0.1,0.6,0.3,0.9,0.4c0.3,0.1,0.7,0.2,1,0.3c0.3,0.1,0.7,0.2,1,0.4
				c0.3,0.1,0.6,0.3,0.9,0.5c0.3,0.2,0.5,0.4,0.6,0.7c0.2,0.3,0.2,0.6,0.2,1c0,0.4-0.1,0.8-0.2,1.2s-0.4,0.7-0.7,1
				c-0.3,0.3-0.7,0.5-1.1,0.7c-0.4,0.2-0.9,0.2-1.5,0.2c-0.7,0-1.3-0.1-1.8-0.3s-1-0.5-1.4-0.9l0.2-0.3c0-0.1,0.1-0.1,0.1-0.1
				s0.1,0,0.2,0c0.1,0,0.2,0.1,0.3,0.2s0.3,0.2,0.5,0.3s0.5,0.2,0.8,0.3s0.7,0.2,1.1,0.2c0.4,0,0.8-0.1,1.1-0.2
				c0.3-0.1,0.6-0.3,0.8-0.5c0.2-0.2,0.4-0.4,0.5-0.7c0.1-0.3,0.2-0.6,0.2-0.9c0-0.3-0.1-0.6-0.2-0.8c-0.2-0.2-0.4-0.4-0.6-0.6
				c-0.3-0.2-0.6-0.3-0.9-0.4s-0.7-0.2-1-0.3s-0.7-0.2-1-0.4c-0.3-0.1-0.6-0.3-0.9-0.5s-0.5-0.4-0.6-0.7c-0.2-0.3-0.2-0.6-0.2-1
				c0-0.4,0.1-0.7,0.2-1c0.2-0.3,0.4-0.6,0.7-0.9c0.3-0.2,0.6-0.4,1-0.6c0.4-0.1,0.9-0.2,1.4-0.2c0.6,0,1.1,0.1,1.6,0.3
				s0.9,0.4,1.3,0.8L386.7,261.9z"/>
			<path fill="#231F20" d="M393.6,260.5c0.6,0,1.1,0.1,1.6,0.3s0.9,0.5,1.2,0.8c0.4,0.4,0.6,0.8,0.8,1.4c0.2,0.5,0.3,1.2,0.3,1.9
				c0,0.1,0,0.2-0.1,0.3c0,0.1-0.1,0.1-0.2,0.1h-7.2v0.2c0,0.7,0.1,1.4,0.3,2c0.2,0.6,0.4,1,0.7,1.4c0.3,0.4,0.7,0.7,1.2,0.9
				c0.5,0.2,1,0.3,1.5,0.3c0.5,0,0.9-0.1,1.3-0.2s0.7-0.2,0.9-0.4c0.3-0.1,0.4-0.3,0.6-0.4c0.1-0.1,0.3-0.2,0.3-0.2
				c0.1,0,0.2,0,0.2,0.1l0.3,0.3c-0.2,0.2-0.4,0.4-0.6,0.6c-0.3,0.2-0.6,0.3-0.9,0.4c-0.3,0.1-0.7,0.2-1,0.3s-0.7,0.1-1.1,0.1
				c-0.7,0-1.3-0.1-1.9-0.4c-0.6-0.2-1-0.6-1.4-1c-0.4-0.5-0.7-1-0.9-1.7c-0.2-0.7-0.3-1.4-0.3-2.3c0-0.7,0.1-1.4,0.3-2
				c0.2-0.6,0.5-1.1,0.9-1.6c0.4-0.4,0.9-0.8,1.4-1C392.3,260.6,392.9,260.5,393.6,260.5z M393.6,261.2c-0.5,0-1,0.1-1.4,0.2
				c-0.4,0.2-0.8,0.4-1.1,0.7s-0.5,0.7-0.7,1.1s-0.3,0.9-0.4,1.4h6.6c0-0.5-0.1-1-0.2-1.4c-0.1-0.4-0.4-0.8-0.6-1.1
				c-0.3-0.3-0.6-0.5-1-0.7C394.5,261.3,394.1,261.2,393.6,261.2z"/>
			<path fill="#231F20" d="M401.3,256v14.6h-1V256H401.3z"/>
			<path fill="#231F20" d="M406.1,256v14.6h-1V256H406.1z"/>
			<path fill="#231F20" d="M149.9,294.8c-0.7,0-1.2-0.2-1.6-0.6c-0.4-0.4-0.6-1-0.6-1.7v-6.8h-1.4c-0.1,0-0.1,0-0.2-0.1
				c0,0-0.1-0.1-0.1-0.2v-0.4l1.7-0.1l0.2-3.6c0-0.1,0-0.1,0.1-0.2c0,0,0.1-0.1,0.2-0.1h0.4v3.8h3.1v0.7h-3.1v6.8
				c0,0.3,0,0.5,0.1,0.7c0.1,0.2,0.2,0.4,0.3,0.5s0.3,0.2,0.4,0.3c0.2,0.1,0.3,0.1,0.5,0.1c0.2,0,0.4,0,0.6-0.1s0.3-0.1,0.5-0.2
				s0.2-0.2,0.3-0.2c0.1-0.1,0.1-0.1,0.2-0.1c0.1,0,0.1,0,0.2,0.1l0.3,0.4c-0.3,0.3-0.6,0.5-1,0.7
				C150.7,294.8,150.3,294.8,149.9,294.8z"/>
			<path fill="#231F20" d="M154.3,294.7v-14.6h1v6.3c0.5-0.6,1-1,1.6-1.4c0.6-0.3,1.3-0.5,2-0.5c0.5,0,1,0.1,1.4,0.3
				c0.4,0.2,0.8,0.4,1,0.8c0.3,0.3,0.5,0.7,0.6,1.2c0.1,0.5,0.2,1,0.2,1.6v6.4h-1v-6.4c0-0.9-0.2-1.7-0.6-2.2
				c-0.4-0.5-1.1-0.8-2-0.8c-0.7,0-1.3,0.2-1.8,0.5s-1.1,0.8-1.5,1.4v7.5H154.3z"/>
			<path fill="#231F20" d="M168.9,284.5c0.6,0,1.1,0.1,1.6,0.3s0.9,0.5,1.2,0.8c0.4,0.4,0.6,0.8,0.8,1.4c0.2,0.5,0.3,1.2,0.3,1.9
				c0,0.1,0,0.2-0.1,0.3c0,0.1-0.1,0.1-0.2,0.1h-7.2v0.2c0,0.7,0.1,1.4,0.3,2c0.2,0.6,0.4,1,0.7,1.4c0.3,0.4,0.7,0.7,1.2,0.9
				c0.5,0.2,1,0.3,1.5,0.3c0.5,0,0.9-0.1,1.3-0.2s0.7-0.2,0.9-0.4c0.3-0.1,0.4-0.3,0.6-0.4c0.1-0.1,0.3-0.2,0.3-0.2
				c0.1,0,0.2,0,0.2,0.1l0.3,0.3c-0.2,0.2-0.4,0.4-0.6,0.6c-0.3,0.2-0.6,0.3-0.9,0.4c-0.3,0.1-0.7,0.2-1,0.3s-0.7,0.1-1.1,0.1
				c-0.7,0-1.3-0.1-1.9-0.4c-0.6-0.2-1-0.6-1.4-1c-0.4-0.5-0.7-1-0.9-1.7c-0.2-0.7-0.3-1.4-0.3-2.3c0-0.7,0.1-1.4,0.3-2
				c0.2-0.6,0.5-1.1,0.9-1.6c0.4-0.4,0.9-0.8,1.4-1C167.5,284.7,168.2,284.5,168.9,284.5z M168.9,285.3c-0.5,0-1,0.1-1.4,0.2
				c-0.4,0.2-0.8,0.4-1.1,0.7s-0.5,0.7-0.7,1.1s-0.3,0.9-0.4,1.4h6.6c0-0.5-0.1-1-0.2-1.4c-0.1-0.4-0.4-0.8-0.6-1.1
				c-0.3-0.3-0.6-0.5-1-0.7C169.8,285.3,169.4,285.3,168.9,285.3z"/>
			<path fill="#231F20" d="M177,281.3c0,0.1,0,0.2-0.1,0.3s-0.1,0.2-0.2,0.3s-0.2,0.1-0.3,0.2c-0.1,0-0.2,0.1-0.3,0.1
				c-0.1,0-0.2,0-0.3-0.1c-0.1,0-0.2-0.1-0.3-0.2s-0.1-0.2-0.2-0.3s-0.1-0.2-0.1-0.3s0-0.2,0.1-0.3s0.1-0.2,0.2-0.3s0.2-0.1,0.3-0.2
				c0.1,0,0.2-0.1,0.3-0.1c0.1,0,0.2,0,0.3,0.1c0.1,0,0.2,0.1,0.3,0.2s0.1,0.2,0.2,0.3S177,281.2,177,281.3z M176.6,284.7v10h-1v-10
				H176.6z"/>
			<path fill="#231F20" d="M180.1,294.7v-10h0.5c0.1,0,0.2,0,0.2,0.1s0.1,0.1,0.1,0.2l0.1,2.1c0.3-0.8,0.7-1.4,1.3-1.9
				c0.5-0.5,1.2-0.7,2-0.7c0.3,0,0.6,0,0.8,0.1s0.5,0.2,0.7,0.3l-0.1,0.7c0,0.1-0.1,0.2-0.2,0.2c0,0-0.1,0-0.2,0
				c-0.1,0-0.2-0.1-0.3-0.1c-0.1,0-0.2-0.1-0.4-0.1c-0.2,0-0.3,0-0.6,0c-0.8,0-1.4,0.2-1.9,0.7s-0.9,1.1-1.2,2v6.5H180.1z"/>
			<path fill="#231F20" d="M198.5,286C198.5,286.1,198.5,286.1,198.5,286c-0.1,0.1-0.2,0.1-0.2,0.1c-0.1,0-0.2,0-0.3-0.1
				c-0.1-0.1-0.3-0.2-0.5-0.3c-0.2-0.1-0.4-0.2-0.7-0.3c-0.3-0.1-0.6-0.1-1.1-0.1c-0.6,0-1.1,0.1-1.5,0.3c-0.4,0.2-0.8,0.5-1.1,0.9
				s-0.5,0.8-0.7,1.4c-0.2,0.5-0.2,1.1-0.2,1.8c0,0.7,0.1,1.3,0.2,1.9s0.4,1,0.7,1.4c0.3,0.4,0.7,0.7,1.1,0.8s0.9,0.3,1.4,0.3
				c0.5,0,0.9-0.1,1.2-0.2c0.3-0.1,0.6-0.2,0.8-0.4c0.2-0.1,0.4-0.3,0.5-0.4c0.1-0.1,0.2-0.2,0.3-0.2c0.1,0,0.2,0,0.2,0.1l0.3,0.3
				c-0.2,0.2-0.3,0.4-0.6,0.6c-0.2,0.2-0.5,0.3-0.8,0.5s-0.6,0.2-1,0.3c-0.3,0.1-0.7,0.1-1.1,0.1c-0.6,0-1.2-0.1-1.7-0.3
				s-1-0.6-1.4-1c-0.4-0.4-0.7-1-0.9-1.6c-0.2-0.6-0.3-1.4-0.3-2.2c0-0.8,0.1-1.5,0.3-2.1s0.5-1.2,0.9-1.6c0.4-0.5,0.9-0.8,1.4-1.1
				c0.6-0.3,1.2-0.4,1.9-0.4c0.6,0,1.2,0.1,1.7,0.3c0.5,0.2,0.9,0.5,1.3,0.8L198.5,286z"/>
			<path fill="#231F20" d="M201.1,294.7v-10h0.5c0.1,0,0.2,0,0.2,0.1s0.1,0.1,0.1,0.2l0.1,2.1c0.3-0.8,0.7-1.4,1.3-1.9
				c0.5-0.5,1.2-0.7,2-0.7c0.3,0,0.6,0,0.8,0.1s0.5,0.2,0.7,0.3l-0.1,0.7c0,0.1-0.1,0.2-0.2,0.2c0,0-0.1,0-0.2,0
				c-0.1,0-0.2-0.1-0.3-0.1c-0.1,0-0.2-0.1-0.4-0.1c-0.2,0-0.3,0-0.6,0c-0.8,0-1.4,0.2-1.9,0.7s-0.9,1.1-1.2,2v6.5H201.1z"/>
			<path fill="#231F20" d="M212.8,284.5c0.6,0,1.1,0.1,1.6,0.3s0.9,0.5,1.2,0.8c0.4,0.4,0.6,0.8,0.8,1.4c0.2,0.5,0.3,1.2,0.3,1.9
				c0,0.1,0,0.2-0.1,0.3c0,0.1-0.1,0.1-0.2,0.1h-7.2v0.2c0,0.7,0.1,1.4,0.3,2c0.2,0.6,0.4,1,0.7,1.4c0.3,0.4,0.7,0.7,1.2,0.9
				c0.5,0.2,1,0.3,1.5,0.3c0.5,0,0.9-0.1,1.3-0.2s0.7-0.2,0.9-0.4c0.3-0.1,0.4-0.3,0.6-0.4c0.1-0.1,0.3-0.2,0.3-0.2
				c0.1,0,0.2,0,0.2,0.1l0.3,0.3c-0.2,0.2-0.4,0.4-0.6,0.6c-0.3,0.2-0.6,0.3-0.9,0.4c-0.3,0.1-0.7,0.2-1,0.3s-0.7,0.1-1.1,0.1
				c-0.7,0-1.3-0.1-1.9-0.4c-0.6-0.2-1-0.6-1.4-1c-0.4-0.5-0.7-1-0.9-1.7c-0.2-0.7-0.3-1.4-0.3-2.3c0-0.7,0.1-1.4,0.3-2
				c0.2-0.6,0.5-1.1,0.9-1.6c0.4-0.4,0.9-0.8,1.4-1C211.4,284.7,212.1,284.5,212.8,284.5z M212.8,285.3c-0.5,0-1,0.1-1.4,0.2
				c-0.4,0.2-0.8,0.4-1.1,0.7s-0.5,0.7-0.7,1.1s-0.3,0.9-0.4,1.4h6.6c0-0.5-0.1-1-0.2-1.4c-0.1-0.4-0.4-0.8-0.6-1.1
				c-0.3-0.3-0.6-0.5-1-0.7C213.7,285.3,213.3,285.3,212.8,285.3z"/>
			<path fill="#231F20" d="M225.6,294.7c-0.2,0-0.3-0.1-0.4-0.3l-0.1-1.3c-0.3,0.3-0.5,0.5-0.8,0.7c-0.3,0.2-0.6,0.4-0.8,0.5
				s-0.6,0.3-1,0.3c-0.3,0.1-0.7,0.1-1.1,0.1c-0.3,0-0.7,0-1-0.1c-0.3-0.1-0.6-0.3-0.9-0.5c-0.2-0.2-0.4-0.5-0.6-0.8
				c-0.2-0.3-0.2-0.7-0.2-1.2c0-0.4,0.1-0.8,0.4-1.2c0.2-0.4,0.6-0.7,1.1-0.9c0.5-0.3,1.2-0.5,2-0.6c0.8-0.2,1.8-0.3,2.9-0.3v-1
				c0-0.9-0.2-1.6-0.6-2.1s-1-0.7-1.8-0.7c-0.5,0-0.9,0.1-1.2,0.2c-0.3,0.1-0.6,0.3-0.9,0.4c-0.2,0.2-0.4,0.3-0.6,0.4
				c-0.1,0.1-0.3,0.2-0.4,0.2c-0.1,0-0.2-0.1-0.3-0.2l-0.2-0.3c0.5-0.5,1.1-0.9,1.6-1.2c0.6-0.3,1.2-0.4,2-0.4c0.5,0,1,0.1,1.4,0.3
				c0.4,0.2,0.7,0.4,1,0.7c0.3,0.3,0.5,0.7,0.6,1.2c0.1,0.5,0.2,1,0.2,1.5v6.5H225.6z M221.6,294.2c0.4,0,0.7,0,1.1-0.1
				s0.6-0.2,0.9-0.4s0.5-0.3,0.8-0.5c0.2-0.2,0.5-0.4,0.7-0.7v-2.6c-0.9,0-1.8,0.1-2.5,0.2c-0.7,0.1-1.2,0.3-1.7,0.5
				c-0.4,0.2-0.8,0.4-1,0.7c-0.2,0.3-0.3,0.6-0.3,0.9c0,0.3,0.1,0.6,0.2,0.9c0.1,0.2,0.3,0.4,0.4,0.6c0.2,0.2,0.4,0.3,0.6,0.3
				C221.1,294.1,221.4,294.2,221.6,294.2z"/>
			<path fill="#231F20" d="M231.7,294.8c-0.7,0-1.2-0.2-1.6-0.6c-0.4-0.4-0.6-1-0.6-1.7v-6.8h-1.4c-0.1,0-0.1,0-0.2-0.1
				c0,0-0.1-0.1-0.1-0.2v-0.4l1.7-0.1l0.2-3.6c0-0.1,0-0.1,0.1-0.2c0,0,0.1-0.1,0.2-0.1h0.4v3.8h3.1v0.7h-3.1v6.8
				c0,0.3,0,0.5,0.1,0.7c0.1,0.2,0.2,0.4,0.3,0.5s0.3,0.2,0.4,0.3c0.2,0.1,0.3,0.1,0.5,0.1c0.2,0,0.4,0,0.6-0.1s0.3-0.1,0.5-0.2
				s0.2-0.2,0.3-0.2c0.1-0.1,0.1-0.1,0.2-0.1c0.1,0,0.1,0,0.2,0.1l0.3,0.4c-0.3,0.3-0.6,0.5-1,0.7
				C232.6,294.8,232.2,294.8,231.7,294.8z"/>
			<path fill="#231F20" d="M237.8,281.3c0,0.1,0,0.2-0.1,0.3s-0.1,0.2-0.2,0.3s-0.2,0.1-0.3,0.2c-0.1,0-0.2,0.1-0.3,0.1
				c-0.1,0-0.2,0-0.3-0.1c-0.1,0-0.2-0.1-0.3-0.2s-0.1-0.2-0.2-0.3s-0.1-0.2-0.1-0.3s0-0.2,0.1-0.3s0.1-0.2,0.2-0.3s0.2-0.1,0.3-0.2
				c0.1,0,0.2-0.1,0.3-0.1c0.1,0,0.2,0,0.3,0.1c0.1,0,0.2,0.1,0.3,0.2s0.1,0.2,0.2,0.3S237.8,281.2,237.8,281.3z M237.4,284.7v10h-1
				v-10H237.4z"/>
			<path fill="#231F20" d="M244.7,284.5c0.7,0,1.4,0.1,1.9,0.4c0.6,0.2,1,0.6,1.4,1c0.4,0.4,0.7,1,0.9,1.6s0.3,1.3,0.3,2.1
				s-0.1,1.5-0.3,2.1c-0.2,0.6-0.5,1.2-0.9,1.6s-0.9,0.8-1.4,1c-0.6,0.2-1.2,0.4-1.9,0.4s-1.4-0.1-1.9-0.4s-1-0.6-1.4-1
				s-0.7-1-0.9-1.6c-0.2-0.6-0.3-1.3-0.3-2.1s0.1-1.5,0.3-2.1c0.2-0.6,0.5-1.2,0.9-1.6c0.4-0.4,0.9-0.8,1.4-1
				C243.4,284.7,244,284.5,244.7,284.5z M244.7,294.1c0.6,0,1.1-0.1,1.6-0.3c0.4-0.2,0.8-0.5,1.1-0.9s0.5-0.8,0.7-1.4
				c0.1-0.5,0.2-1.1,0.2-1.8c0-0.7-0.1-1.3-0.2-1.8c-0.1-0.5-0.4-1-0.7-1.4s-0.7-0.7-1.1-0.9c-0.4-0.2-1-0.3-1.6-0.3
				s-1.1,0.1-1.6,0.3c-0.4,0.2-0.8,0.5-1.1,0.9s-0.5,0.8-0.7,1.4c-0.2,0.5-0.2,1.1-0.2,1.8c0,0.7,0.1,1.3,0.2,1.8
				c0.1,0.5,0.4,1,0.7,1.4s0.7,0.7,1.1,0.9C243.6,294,244.1,294.1,244.7,294.1z"/>
			<path fill="#231F20" d="M251.8,294.7v-10h0.5c0.2,0,0.3,0.1,0.3,0.3l0.1,1.5c0.5-0.6,1-1,1.6-1.4c0.6-0.4,1.3-0.5,2-0.5
				c0.5,0,1,0.1,1.4,0.3c0.4,0.2,0.8,0.4,1,0.8c0.3,0.3,0.5,0.7,0.6,1.2c0.1,0.5,0.2,1,0.2,1.6v6.4h-1v-6.4c0-0.9-0.2-1.7-0.6-2.2
				c-0.4-0.5-1.1-0.8-2-0.8c-0.7,0-1.3,0.2-1.8,0.5s-1.1,0.8-1.5,1.4v7.5H251.8z"/>
			<path fill="#231F20" d="M268.1,286c0,0.1-0.1,0.1-0.2,0.1c-0.1,0-0.2,0-0.3-0.1s-0.3-0.2-0.5-0.3c-0.2-0.1-0.4-0.2-0.7-0.3
				s-0.6-0.1-1-0.1c-0.4,0-0.7,0.1-1,0.2c-0.3,0.1-0.6,0.2-0.8,0.4c-0.2,0.2-0.4,0.4-0.5,0.6c-0.1,0.2-0.2,0.5-0.2,0.7
				c0,0.3,0.1,0.6,0.2,0.8s0.4,0.4,0.6,0.5c0.3,0.1,0.6,0.3,0.9,0.4c0.3,0.1,0.7,0.2,1,0.3c0.3,0.1,0.7,0.2,1,0.4
				c0.3,0.1,0.6,0.3,0.9,0.5c0.3,0.2,0.5,0.4,0.6,0.7c0.2,0.3,0.2,0.6,0.2,1c0,0.4-0.1,0.8-0.2,1.2s-0.4,0.7-0.7,1
				c-0.3,0.3-0.7,0.5-1.1,0.7c-0.4,0.2-0.9,0.2-1.5,0.2c-0.7,0-1.3-0.1-1.8-0.3s-1-0.5-1.4-0.9l0.2-0.3c0-0.1,0.1-0.1,0.1-0.1
				s0.1,0,0.2,0c0.1,0,0.2,0.1,0.3,0.2s0.3,0.2,0.5,0.3s0.5,0.2,0.8,0.3s0.7,0.2,1.1,0.2c0.4,0,0.8-0.1,1.1-0.2
				c0.3-0.1,0.6-0.3,0.8-0.5c0.2-0.2,0.4-0.4,0.5-0.7c0.1-0.3,0.2-0.6,0.2-0.9c0-0.3-0.1-0.6-0.2-0.8c-0.2-0.2-0.4-0.4-0.6-0.6
				c-0.3-0.2-0.6-0.3-0.9-0.4s-0.7-0.2-1-0.3s-0.7-0.2-1-0.4c-0.3-0.1-0.6-0.3-0.9-0.5s-0.5-0.4-0.6-0.7c-0.2-0.3-0.2-0.6-0.2-1
				c0-0.4,0.1-0.7,0.2-1c0.2-0.3,0.4-0.6,0.7-0.9c0.3-0.2,0.6-0.4,1-0.6c0.4-0.1,0.9-0.2,1.4-0.2c0.6,0,1.1,0.1,1.6,0.3
				s0.9,0.4,1.3,0.8L268.1,286z"/>
			<path fill="#231F20" d="M279.4,284.1c0.4,0,0.9,0,1.2,0.1c0.4,0.1,0.8,0.2,1.1,0.4h3.1v1.1c0,0.2,0,0.3-0.1,0.4s-0.3,0.2-0.5,0.2
				l-0.8,0.2c0.1,0.3,0.1,0.6,0.1,0.9c0,0.5-0.1,1-0.3,1.4c-0.2,0.4-0.5,0.8-0.9,1.1s-0.8,0.5-1.3,0.7c-0.5,0.2-1.1,0.2-1.7,0.2
				c-0.3,0-0.6,0-0.9-0.1c-0.2,0.1-0.3,0.3-0.3,0.5s0.1,0.3,0.3,0.4c0.2,0.1,0.4,0.1,0.7,0.2s0.6,0,1,0s0.8,0,1.2,0.1
				c0.4,0,0.8,0.1,1.2,0.2c0.4,0.1,0.7,0.2,1,0.4s0.5,0.5,0.7,0.8s0.3,0.7,0.3,1.2c0,0.5-0.1,0.9-0.3,1.4c-0.2,0.4-0.6,0.8-1,1.2
				c-0.4,0.3-1,0.6-1.6,0.8c-0.6,0.2-1.4,0.3-2.2,0.3c-0.8,0-1.5-0.1-2.1-0.2c-0.6-0.2-1.1-0.4-1.5-0.6s-0.7-0.5-0.9-0.9
				c-0.2-0.3-0.3-0.7-0.3-1c0-0.5,0.1-0.9,0.4-1.2c0.3-0.3,0.7-0.6,1.2-0.7c-0.2-0.2-0.4-0.4-0.6-0.6c-0.1-0.2-0.2-0.5-0.2-0.9
				c0-0.2,0-0.3,0.1-0.5c0.1-0.2,0.1-0.3,0.2-0.5c0.1-0.2,0.3-0.3,0.4-0.5c0.2-0.1,0.4-0.3,0.6-0.4c-0.5-0.3-1-0.7-1.3-1.1
				c-0.3-0.5-0.5-1-0.5-1.7c0-0.5,0.1-1,0.3-1.4s0.5-0.8,0.9-1.1c0.4-0.3,0.8-0.5,1.4-0.7C278.3,284.2,278.8,284.1,279.4,284.1z
				 M281.7,295c0-0.2-0.1-0.3-0.2-0.4s-0.2-0.2-0.4-0.2s-0.4-0.1-0.6-0.1c-0.2,0-0.5,0-0.8,0c-0.3,0-0.6,0-0.9,0s-0.6,0-0.9-0.1
				c-0.2,0.1-0.4,0.3-0.5,0.4c-0.1,0.2-0.2,0.4-0.2,0.6c0,0.1,0,0.3,0.1,0.4c0.1,0.1,0.2,0.2,0.3,0.3c0.2,0.1,0.4,0.2,0.6,0.2
				s0.6,0.1,1,0.1c0.4,0,0.8,0,1.1-0.1s0.5-0.1,0.7-0.2c0.2-0.1,0.3-0.2,0.4-0.3C281.7,295.3,281.7,295.2,281.7,295z M279.4,288.9
				c0.5,0,0.9-0.1,1.1-0.4s0.3-0.6,0.3-1c0-0.4-0.1-0.8-0.3-1c-0.2-0.2-0.6-0.4-1.1-0.4c-0.5,0-0.9,0.1-1.1,0.4
				c-0.2,0.2-0.3,0.6-0.3,1c0,0.2,0,0.4,0.1,0.6c0.1,0.2,0.1,0.3,0.3,0.4c0.1,0.1,0.3,0.2,0.5,0.3
				C279,288.9,279.2,288.9,279.4,288.9z"/>
			<path fill="#231F20" d="M289.5,279.7v15h-3.1v-15H289.5z"/>
			<path fill="#231F20" d="M296.6,284.1c0.8,0,1.5,0.1,2.2,0.4c0.6,0.2,1.2,0.6,1.7,1.1c0.5,0.5,0.8,1,1.1,1.7
				c0.3,0.7,0.4,1.4,0.4,2.2c0,0.8-0.1,1.6-0.4,2.2c-0.3,0.7-0.6,1.2-1.1,1.7c-0.5,0.5-1,0.8-1.7,1.1c-0.6,0.3-1.4,0.4-2.2,0.4
				c-0.8,0-1.5-0.1-2.2-0.4s-1.2-0.6-1.7-1.1c-0.5-0.5-0.8-1-1.1-1.7c-0.3-0.7-0.4-1.4-0.4-2.2c0-0.8,0.1-1.6,0.4-2.2
				c0.3-0.7,0.6-1.2,1.1-1.7s1-0.8,1.7-1.1C295.1,284.3,295.8,284.1,296.6,284.1z M296.6,292.5c0.7,0,1.2-0.3,1.6-0.8
				c0.3-0.5,0.5-1.3,0.5-2.3c0-1-0.2-1.8-0.5-2.3c-0.3-0.5-0.9-0.8-1.6-0.8c-0.7,0-1.3,0.3-1.6,0.8s-0.5,1.3-0.5,2.3
				c0,1,0.2,1.8,0.5,2.3S295.9,292.5,296.6,292.5z"/>
			<path fill="#231F20" d="M303.6,294.7v-15h3.1v5.7c0.4-0.4,0.8-0.7,1.3-0.9c0.5-0.2,1.1-0.3,1.7-0.3c0.5,0,1,0.1,1.5,0.4
				s0.9,0.6,1.2,1c0.3,0.5,0.6,1,0.8,1.7s0.3,1.4,0.3,2.2c0,0.8-0.1,1.5-0.3,2.2c-0.2,0.7-0.5,1.2-0.9,1.7s-0.9,0.9-1.4,1.1
				c-0.5,0.3-1.1,0.4-1.8,0.4c-0.3,0-0.6,0-0.8-0.1s-0.5-0.1-0.7-0.3c-0.2-0.1-0.4-0.2-0.6-0.4c-0.2-0.2-0.3-0.3-0.5-0.5l-0.1,0.5
				c0,0.2-0.1,0.4-0.3,0.4c-0.1,0.1-0.3,0.1-0.5,0.1H303.6z M308.7,286.5c-0.2,0-0.4,0-0.6,0.1s-0.4,0.1-0.5,0.2s-0.3,0.2-0.4,0.3
				c-0.1,0.1-0.3,0.3-0.4,0.4v4.4c0.2,0.3,0.5,0.4,0.8,0.5c0.3,0.1,0.6,0.2,0.9,0.2c0.3,0,0.6-0.1,0.8-0.2c0.2-0.1,0.4-0.3,0.6-0.5
				c0.2-0.3,0.3-0.6,0.4-1c0.1-0.4,0.2-0.9,0.2-1.5c0-0.5,0-1-0.1-1.4c-0.1-0.4-0.2-0.7-0.3-0.9c-0.1-0.2-0.3-0.4-0.5-0.5
				S308.9,286.5,308.7,286.5z"/>
			<path fill="#231F20" d="M322.4,294.7c-0.3,0-0.5,0-0.7-0.1c-0.2-0.1-0.3-0.2-0.4-0.5l-0.2-0.6c-0.3,0.2-0.5,0.4-0.8,0.6
				s-0.5,0.3-0.7,0.4c-0.3,0.1-0.5,0.2-0.8,0.3c-0.3,0.1-0.6,0.1-1,0.1c-0.5,0-0.9-0.1-1.3-0.2c-0.4-0.1-0.7-0.3-1-0.5
				c-0.3-0.2-0.5-0.5-0.6-0.9c-0.1-0.4-0.2-0.8-0.2-1.2c0-0.4,0.1-0.7,0.3-1.1c0.2-0.4,0.5-0.7,1-1.1s1.1-0.6,1.9-0.8
				c0.8-0.2,1.8-0.3,3-0.3v-0.4c0-0.6-0.1-1.1-0.4-1.3c-0.3-0.3-0.6-0.4-1.1-0.4c-0.4,0-0.7,0-0.9,0.1c-0.2,0.1-0.4,0.2-0.6,0.3
				c-0.2,0.1-0.4,0.2-0.5,0.3c-0.2,0.1-0.4,0.1-0.6,0.1c-0.2,0-0.4-0.1-0.5-0.2s-0.3-0.2-0.4-0.4l-0.6-1c0.6-0.6,1.3-1,2.1-1.2
				c0.8-0.3,1.6-0.4,2.5-0.4c0.6,0,1.2,0.1,1.7,0.3c0.5,0.2,0.9,0.5,1.3,0.9c0.4,0.4,0.6,0.8,0.8,1.3c0.2,0.5,0.3,1,0.3,1.6v6.5
				H322.4z M318.8,292.8c0.4,0,0.8-0.1,1.1-0.2c0.3-0.1,0.6-0.4,0.9-0.7v-1.4c-0.6,0-1.1,0-1.5,0.1c-0.4,0.1-0.7,0.2-1,0.3
				c-0.2,0.1-0.4,0.3-0.5,0.4c-0.1,0.2-0.1,0.3-0.1,0.5c0,0.4,0.1,0.6,0.3,0.8C318.2,292.7,318.4,292.8,318.8,292.8z"/>
			<path fill="#231F20" d="M329.2,279.7v15h-3.1v-15H329.2z"/>
			<path fill="#231F20" d="M334.9,279.7v15h-3.1v-15H334.9z"/>
			<path fill="#231F20" d="M341.7,297.4c-0.1,0.2-0.2,0.4-0.3,0.5s-0.3,0.1-0.6,0.1h-2.3l2-4.2l-4.1-9.5h2.7c0.2,0,0.4,0.1,0.6,0.2
				c0.1,0.1,0.2,0.2,0.3,0.4l1.7,4.5c0.2,0.4,0.3,0.8,0.4,1.2c0.1-0.2,0.1-0.4,0.2-0.6c0.1-0.2,0.2-0.4,0.2-0.6l1.5-4.5
				c0.1-0.2,0.2-0.3,0.3-0.4c0.2-0.1,0.3-0.2,0.5-0.2h2.5L341.7,297.4z"/>
			<path fill="#231F20" d="M153.5,318.7c-0.2,0-0.3-0.1-0.4-0.3l-0.1-1.3c-0.3,0.3-0.5,0.5-0.8,0.7c-0.3,0.2-0.6,0.4-0.8,0.5
				s-0.6,0.3-1,0.3c-0.3,0.1-0.7,0.1-1.1,0.1c-0.3,0-0.7,0-1-0.1c-0.3-0.1-0.6-0.3-0.9-0.5c-0.2-0.2-0.4-0.5-0.6-0.8
				c-0.2-0.3-0.2-0.7-0.2-1.2c0-0.4,0.1-0.8,0.4-1.2c0.2-0.4,0.6-0.7,1.1-0.9c0.5-0.3,1.2-0.5,2-0.6c0.8-0.2,1.8-0.3,2.9-0.3v-1
				c0-0.9-0.2-1.6-0.6-2.1s-1-0.7-1.8-0.7c-0.5,0-0.9,0.1-1.2,0.2c-0.3,0.1-0.6,0.3-0.9,0.4c-0.2,0.2-0.4,0.3-0.6,0.4
				c-0.1,0.1-0.3,0.2-0.4,0.2c-0.1,0-0.2-0.1-0.3-0.2l-0.2-0.3c0.5-0.5,1.1-0.9,1.6-1.2c0.6-0.3,1.2-0.4,2-0.4c0.5,0,1,0.1,1.4,0.3
				c0.4,0.2,0.7,0.4,1,0.7c0.3,0.3,0.5,0.7,0.6,1.2c0.1,0.5,0.2,1,0.2,1.5v6.5H153.5z M149.5,318.2c0.4,0,0.7,0,1.1-0.1
				s0.6-0.2,0.9-0.4s0.5-0.3,0.8-0.5c0.2-0.2,0.5-0.4,0.7-0.7v-2.6c-0.9,0-1.8,0.1-2.5,0.2c-0.7,0.1-1.2,0.3-1.7,0.5
				c-0.4,0.2-0.8,0.4-1,0.7c-0.2,0.3-0.3,0.6-0.3,0.9c0,0.3,0.1,0.6,0.2,0.9c0.1,0.2,0.3,0.4,0.4,0.6c0.2,0.2,0.4,0.3,0.6,0.3
				C149,318.2,149.2,318.2,149.5,318.2z"/>
			<path fill="#231F20" d="M159.6,318.9c-0.7,0-1.2-0.2-1.6-0.6c-0.4-0.4-0.6-1-0.6-1.7v-6.8H156c-0.1,0-0.1,0-0.2-0.1
				c0,0-0.1-0.1-0.1-0.2v-0.4l1.7-0.1l0.2-3.6c0-0.1,0-0.1,0.1-0.2c0,0,0.1-0.1,0.2-0.1h0.4v3.8h3.1v0.7h-3.1v6.8
				c0,0.3,0,0.5,0.1,0.7c0.1,0.2,0.2,0.4,0.3,0.5s0.3,0.2,0.4,0.3c0.2,0.1,0.3,0.1,0.5,0.1c0.2,0,0.4,0,0.6-0.1s0.3-0.1,0.5-0.2
				s0.2-0.2,0.3-0.2c0.1-0.1,0.1-0.1,0.2-0.1c0.1,0,0.1,0,0.2,0.1l0.3,0.4c-0.3,0.3-0.6,0.5-1,0.7
				C160.4,318.8,160,318.9,159.6,318.9z"/>
			<path fill="#231F20" d="M170.6,318.9c-0.7,0-1.2-0.2-1.6-0.6c-0.4-0.4-0.6-1-0.6-1.7v-6.8H167c-0.1,0-0.1,0-0.2-0.1
				c0,0-0.1-0.1-0.1-0.2v-0.4l1.7-0.1l0.2-3.6c0-0.1,0-0.1,0.1-0.2c0,0,0.1-0.1,0.2-0.1h0.4v3.8h3.1v0.7h-3.1v6.8
				c0,0.3,0,0.5,0.1,0.7c0.1,0.2,0.2,0.4,0.3,0.5s0.3,0.2,0.4,0.3c0.2,0.1,0.3,0.1,0.5,0.1c0.2,0,0.4,0,0.6-0.1s0.3-0.1,0.5-0.2
				s0.2-0.2,0.3-0.2c0.1-0.1,0.1-0.1,0.2-0.1c0.1,0,0.1,0,0.2,0.1l0.3,0.4c-0.3,0.3-0.6,0.5-1,0.7
				C171.4,318.8,171,318.9,170.6,318.9z"/>
			<path fill="#231F20" d="M175,318.7v-14.6h1v6.3c0.5-0.6,1-1,1.6-1.4c0.6-0.3,1.3-0.5,2-0.5c0.5,0,1,0.1,1.4,0.3
				c0.4,0.2,0.8,0.4,1,0.8c0.3,0.3,0.5,0.7,0.6,1.2c0.1,0.5,0.2,1,0.2,1.6v6.4h-1v-6.4c0-0.9-0.2-1.7-0.6-2.2
				c-0.4-0.5-1.1-0.8-2-0.8c-0.7,0-1.3,0.2-1.8,0.5s-1.1,0.8-1.5,1.4v7.5H175z"/>
			<path fill="#231F20" d="M189.6,308.6c0.6,0,1.1,0.1,1.6,0.3s0.9,0.5,1.2,0.8c0.4,0.4,0.6,0.8,0.8,1.4c0.2,0.5,0.3,1.2,0.3,1.9
				c0,0.1,0,0.2-0.1,0.3c0,0.1-0.1,0.1-0.2,0.1h-7.2v0.2c0,0.7,0.1,1.4,0.3,2c0.2,0.6,0.4,1,0.7,1.4c0.3,0.4,0.7,0.7,1.2,0.9
				c0.5,0.2,1,0.3,1.5,0.3c0.5,0,0.9-0.1,1.3-0.2s0.7-0.2,0.9-0.4c0.3-0.1,0.4-0.3,0.6-0.4c0.1-0.1,0.3-0.2,0.3-0.2
				c0.1,0,0.2,0,0.2,0.1l0.3,0.3c-0.2,0.2-0.4,0.4-0.6,0.6c-0.3,0.2-0.6,0.3-0.9,0.4c-0.3,0.1-0.7,0.2-1,0.3s-0.7,0.1-1.1,0.1
				c-0.7,0-1.3-0.1-1.9-0.4c-0.6-0.2-1-0.6-1.4-1c-0.4-0.5-0.7-1-0.9-1.7c-0.2-0.7-0.3-1.4-0.3-2.3c0-0.7,0.1-1.4,0.3-2
				c0.2-0.6,0.5-1.1,0.9-1.6c0.4-0.4,0.9-0.8,1.4-1C188.3,308.7,188.9,308.6,189.6,308.6z M189.7,309.3c-0.5,0-1,0.1-1.4,0.2
				c-0.4,0.2-0.8,0.4-1.1,0.7s-0.5,0.7-0.7,1.1s-0.3,0.9-0.4,1.4h6.6c0-0.5-0.1-1-0.2-1.4c-0.1-0.4-0.4-0.8-0.6-1.1
				c-0.3-0.3-0.6-0.5-1-0.7C190.5,309.4,190.1,309.3,189.7,309.3z"/>
			<path fill="#231F20" d="M205.5,310c0,0.1-0.1,0.1-0.2,0.1c-0.1,0-0.2,0-0.3-0.1s-0.3-0.2-0.5-0.3c-0.2-0.1-0.4-0.2-0.7-0.3
				s-0.6-0.1-1-0.1c-0.4,0-0.7,0.1-1,0.2c-0.3,0.1-0.6,0.2-0.8,0.4c-0.2,0.2-0.4,0.4-0.5,0.6c-0.1,0.2-0.2,0.5-0.2,0.7
				c0,0.3,0.1,0.6,0.2,0.8s0.4,0.4,0.6,0.5c0.3,0.1,0.6,0.3,0.9,0.4c0.3,0.1,0.7,0.2,1,0.3c0.3,0.1,0.7,0.2,1,0.4
				c0.3,0.1,0.6,0.3,0.9,0.5c0.3,0.2,0.5,0.4,0.6,0.7c0.2,0.3,0.2,0.6,0.2,1c0,0.4-0.1,0.8-0.2,1.2s-0.4,0.7-0.7,1
				c-0.3,0.3-0.7,0.5-1.1,0.7c-0.4,0.2-0.9,0.2-1.5,0.2c-0.7,0-1.3-0.1-1.8-0.3s-1-0.5-1.4-0.9l0.2-0.3c0-0.1,0.1-0.1,0.1-0.1
				s0.1,0,0.2,0c0.1,0,0.2,0.1,0.3,0.2s0.3,0.2,0.5,0.3s0.5,0.2,0.8,0.3s0.7,0.2,1.1,0.2c0.4,0,0.8-0.1,1.1-0.2
				c0.3-0.1,0.6-0.3,0.8-0.5c0.2-0.2,0.4-0.4,0.5-0.7c0.1-0.3,0.2-0.6,0.2-0.9c0-0.3-0.1-0.6-0.2-0.8c-0.2-0.2-0.4-0.4-0.6-0.6
				c-0.3-0.2-0.6-0.3-0.9-0.4s-0.7-0.2-1-0.3s-0.7-0.2-1-0.4c-0.3-0.1-0.6-0.3-0.9-0.5s-0.5-0.4-0.6-0.7c-0.2-0.3-0.2-0.6-0.2-1
				c0-0.4,0.1-0.7,0.2-1c0.2-0.3,0.4-0.6,0.7-0.9c0.3-0.2,0.6-0.4,1-0.6c0.4-0.1,0.9-0.2,1.4-0.2c0.6,0,1.1,0.1,1.6,0.3
				s0.9,0.4,1.3,0.8L205.5,310z"/>
			<path fill="#231F20" d="M215,318.7c-0.2,0-0.3-0.1-0.4-0.3l-0.1-1.3c-0.3,0.3-0.5,0.5-0.8,0.7c-0.3,0.2-0.6,0.4-0.8,0.5
				s-0.6,0.3-1,0.3c-0.3,0.1-0.7,0.1-1.1,0.1c-0.3,0-0.7,0-1-0.1c-0.3-0.1-0.6-0.3-0.9-0.5c-0.2-0.2-0.4-0.5-0.6-0.8
				c-0.2-0.3-0.2-0.7-0.2-1.2c0-0.4,0.1-0.8,0.4-1.2c0.2-0.4,0.6-0.7,1.1-0.9c0.5-0.3,1.2-0.5,2-0.6c0.8-0.2,1.8-0.3,2.9-0.3v-1
				c0-0.9-0.2-1.6-0.6-2.1s-1-0.7-1.8-0.7c-0.5,0-0.9,0.1-1.2,0.2c-0.3,0.1-0.6,0.3-0.9,0.4c-0.2,0.2-0.4,0.3-0.6,0.4
				c-0.1,0.1-0.3,0.2-0.4,0.2c-0.1,0-0.2-0.1-0.3-0.2l-0.2-0.3c0.5-0.5,1.1-0.9,1.6-1.2c0.6-0.3,1.2-0.4,2-0.4c0.5,0,1,0.1,1.4,0.3
				c0.4,0.2,0.7,0.4,1,0.7c0.3,0.3,0.5,0.7,0.6,1.2c0.1,0.5,0.2,1,0.2,1.5v6.5H215z M211,318.2c0.4,0,0.7,0,1.1-0.1s0.6-0.2,0.9-0.4
				s0.5-0.3,0.8-0.5c0.2-0.2,0.5-0.4,0.7-0.7v-2.6c-0.9,0-1.8,0.1-2.5,0.2c-0.7,0.1-1.2,0.3-1.7,0.5c-0.4,0.2-0.8,0.4-1,0.7
				c-0.2,0.3-0.3,0.6-0.3,0.9c0,0.3,0.1,0.6,0.2,0.9c0.1,0.2,0.3,0.4,0.4,0.6c0.2,0.2,0.4,0.3,0.6,0.3
				C210.5,318.2,210.7,318.2,211,318.2z"/>
			<path fill="#231F20" d="M218.4,318.7v-10h0.5c0.2,0,0.3,0.1,0.3,0.3l0.1,1.4c0.2-0.3,0.4-0.5,0.6-0.8s0.5-0.4,0.7-0.6
				c0.3-0.2,0.5-0.3,0.8-0.4s0.6-0.1,0.9-0.1c0.7,0,1.3,0.2,1.7,0.6c0.4,0.4,0.7,1,0.9,1.8c0.1-0.4,0.3-0.8,0.5-1.1
				c0.2-0.3,0.5-0.5,0.7-0.7c0.3-0.2,0.6-0.3,0.9-0.4c0.3-0.1,0.7-0.1,1-0.1c0.5,0,0.9,0.1,1.3,0.2s0.7,0.4,1,0.7
				c0.3,0.3,0.5,0.7,0.6,1.2c0.1,0.5,0.2,1,0.2,1.6v6.4h-1v-6.4c0-1-0.2-1.7-0.6-2.2s-1-0.8-1.8-0.8c-0.3,0-0.7,0.1-1,0.2
				s-0.6,0.3-0.8,0.6c-0.2,0.3-0.4,0.6-0.6,0.9c-0.1,0.4-0.2,0.8-0.2,1.3v6.4h-1v-6.4c0-1-0.2-1.7-0.6-2.2c-0.4-0.5-1-0.8-1.7-0.8
				c-0.5,0-1,0.2-1.5,0.5c-0.5,0.3-0.9,0.8-1.2,1.3v7.5H218.4z"/>
			<path fill="#231F20" d="M238.1,308.6c0.6,0,1.1,0.1,1.6,0.3s0.9,0.5,1.2,0.8c0.4,0.4,0.6,0.8,0.8,1.4c0.2,0.5,0.3,1.2,0.3,1.9
				c0,0.1,0,0.2-0.1,0.3c0,0.1-0.1,0.1-0.2,0.1h-7.2v0.2c0,0.7,0.1,1.4,0.3,2c0.2,0.6,0.4,1,0.7,1.4c0.3,0.4,0.7,0.7,1.2,0.9
				c0.5,0.2,1,0.3,1.5,0.3c0.5,0,0.9-0.1,1.3-0.2s0.7-0.2,0.9-0.4c0.3-0.1,0.4-0.3,0.6-0.4c0.1-0.1,0.3-0.2,0.3-0.2
				c0.1,0,0.2,0,0.2,0.1l0.3,0.3c-0.2,0.2-0.4,0.4-0.6,0.6c-0.3,0.2-0.6,0.3-0.9,0.4c-0.3,0.1-0.7,0.2-1,0.3s-0.7,0.1-1.1,0.1
				c-0.7,0-1.3-0.1-1.9-0.4c-0.6-0.2-1-0.6-1.4-1c-0.4-0.5-0.7-1-0.9-1.7c-0.2-0.7-0.3-1.4-0.3-2.3c0-0.7,0.1-1.4,0.3-2
				c0.2-0.6,0.5-1.1,0.9-1.6c0.4-0.4,0.9-0.8,1.4-1C236.7,308.7,237.4,308.6,238.1,308.6z M238.1,309.3c-0.5,0-1,0.1-1.4,0.2
				c-0.4,0.2-0.8,0.4-1.1,0.7s-0.5,0.7-0.7,1.1s-0.3,0.9-0.4,1.4h6.6c0-0.5-0.1-1-0.2-1.4c-0.1-0.4-0.4-0.8-0.6-1.1
				c-0.3-0.3-0.6-0.5-1-0.7C239,309.4,238.5,309.3,238.1,309.3z"/>
			<path fill="#231F20" d="M251.1,318.9c-0.7,0-1.2-0.2-1.6-0.6c-0.4-0.4-0.6-1-0.6-1.7v-6.8h-1.4c-0.1,0-0.1,0-0.2-0.1
				c0,0-0.1-0.1-0.1-0.2v-0.4l1.7-0.1l0.2-3.6c0-0.1,0-0.1,0.1-0.2c0,0,0.1-0.1,0.2-0.1h0.4v3.8h3.1v0.7H250v6.8
				c0,0.3,0,0.5,0.1,0.7c0.1,0.2,0.2,0.4,0.3,0.5s0.3,0.2,0.4,0.3c0.2,0.1,0.3,0.1,0.5,0.1c0.2,0,0.4,0,0.6-0.1s0.3-0.1,0.5-0.2
				s0.2-0.2,0.3-0.2c0.1-0.1,0.1-0.1,0.2-0.1c0.1,0,0.1,0,0.2,0.1l0.3,0.4c-0.3,0.3-0.6,0.5-1,0.7
				C252,318.8,251.6,318.9,251.1,318.9z"/>
			<path fill="#231F20" d="M257.2,305.3c0,0.1,0,0.2-0.1,0.3s-0.1,0.2-0.2,0.3s-0.2,0.1-0.3,0.2c-0.1,0-0.2,0.1-0.3,0.1
				c-0.1,0-0.2,0-0.3-0.1c-0.1,0-0.2-0.1-0.3-0.2s-0.1-0.2-0.2-0.3s-0.1-0.2-0.1-0.3s0-0.2,0.1-0.3s0.1-0.2,0.2-0.3s0.2-0.1,0.3-0.2
				c0.1,0,0.2-0.1,0.3-0.1c0.1,0,0.2,0,0.3,0.1c0.1,0,0.2,0.1,0.3,0.2s0.1,0.2,0.2,0.3S257.2,305.2,257.2,305.3z M256.8,308.8v10h-1
				v-10H256.8z"/>
			<path fill="#231F20" d="M260.3,318.7v-10h0.5c0.2,0,0.3,0.1,0.3,0.3l0.1,1.4c0.2-0.3,0.4-0.5,0.6-0.8s0.5-0.4,0.7-0.6
				c0.3-0.2,0.5-0.3,0.8-0.4s0.6-0.1,0.9-0.1c0.7,0,1.3,0.2,1.7,0.6c0.4,0.4,0.7,1,0.9,1.8c0.1-0.4,0.3-0.8,0.5-1.1
				c0.2-0.3,0.5-0.5,0.7-0.7c0.3-0.2,0.6-0.3,0.9-0.4c0.3-0.1,0.7-0.1,1-0.1c0.5,0,0.9,0.1,1.3,0.2s0.7,0.4,1,0.7
				c0.3,0.3,0.5,0.7,0.6,1.2c0.1,0.5,0.2,1,0.2,1.6v6.4h-1v-6.4c0-1-0.2-1.7-0.6-2.2s-1-0.8-1.8-0.8c-0.3,0-0.7,0.1-1,0.2
				s-0.6,0.3-0.8,0.6c-0.2,0.3-0.4,0.6-0.6,0.9c-0.1,0.4-0.2,0.8-0.2,1.3v6.4h-1v-6.4c0-1-0.2-1.7-0.6-2.2c-0.4-0.5-1-0.8-1.7-0.8
				c-0.5,0-1,0.2-1.5,0.5c-0.5,0.3-0.9,0.8-1.2,1.3v7.5H260.3z"/>
			<path fill="#231F20" d="M280,308.6c0.6,0,1.1,0.1,1.6,0.3s0.9,0.5,1.2,0.8c0.4,0.4,0.6,0.8,0.8,1.4c0.2,0.5,0.3,1.2,0.3,1.9
				c0,0.1,0,0.2-0.1,0.3c0,0.1-0.1,0.1-0.2,0.1h-7.2v0.2c0,0.7,0.1,1.4,0.3,2c0.2,0.6,0.4,1,0.7,1.4c0.3,0.4,0.7,0.7,1.2,0.9
				c0.5,0.2,1,0.3,1.5,0.3c0.5,0,0.9-0.1,1.3-0.2s0.7-0.2,0.9-0.4c0.3-0.1,0.4-0.3,0.6-0.4c0.1-0.1,0.3-0.2,0.3-0.2
				c0.1,0,0.2,0,0.2,0.1l0.3,0.3c-0.2,0.2-0.4,0.4-0.6,0.6c-0.3,0.2-0.6,0.3-0.9,0.4c-0.3,0.1-0.7,0.2-1,0.3s-0.7,0.1-1.1,0.1
				c-0.7,0-1.3-0.1-1.9-0.4c-0.6-0.2-1-0.6-1.4-1c-0.4-0.5-0.7-1-0.9-1.7c-0.2-0.7-0.3-1.4-0.3-2.3c0-0.7,0.1-1.4,0.3-2
				c0.2-0.6,0.5-1.1,0.9-1.6c0.4-0.4,0.9-0.8,1.4-1C278.7,308.7,279.3,308.6,280,308.6z M280.1,309.3c-0.5,0-1,0.1-1.4,0.2
				c-0.4,0.2-0.8,0.4-1.1,0.7s-0.5,0.7-0.7,1.1s-0.3,0.9-0.4,1.4h6.6c0-0.5-0.1-1-0.2-1.4c-0.1-0.4-0.4-0.8-0.6-1.1
				c-0.3-0.3-0.6-0.5-1-0.7C280.9,309.4,280.5,309.3,280.1,309.3z"/>
		</g>
	</g>
	<line fill="#231F20" x1="124.2" y1="231.3" x2="124.2" y2="319.6"/>
</g>
<g id="Layer_5" display="none">
</g>
</svg>
