<?xml version="1.0" encoding="utf-8"?>
<!-- Generator: Adobe Illustrator 18.0.0, SVG Export Plug-In . SVG Version: 6.00 Build 0)  -->
<!DOCTYPE svg PUBLIC "-//W3C//DTD SVG 1.1//EN" "http://www.w3.org/Graphics/SVG/1.1/DTD/svg11.dtd">
<svg version="1.1" xmlns="http://www.w3.org/2000/svg" xmlns:xlink="http://www.w3.org/1999/xlink" x="0px" y="0px"
	 viewBox="0 -48 800 531" enable-background="new 0 -48 800 531" xml:space="preserve">
<g id="Layer_10">
	<rect y="-48" fill="#B3DCC2" width="800" height="531"/>
</g>
<g id="Layer_6">
	<path fill="#FFFFFF" d="M679.5,147c0,3-2.4,5.4-5.4,5.4H466.8c-3,0-5.4-2.4-5.4-5.4v-31c0-3,2.4-5.4,5.4-5.4h207.3
		c3,0,5.4,2.4,5.4,5.4V147z"/>
	<path fill="#A2A2A3" d="M639.2,202.5v-14.2h-91.3v14.5l-4,4v26.6l99.4,3.4v-30.1L639.2,202.5z M630.5,220.6l-11.2-14.7h-50.1
		l-13.4,14.7v-21.5l74.8,0V220.6z"/>
	<polygon fill="#FFFFFF" points="647.4,241.5 619.3,205.9 569.2,205.9 536.9,241.5 	"/>
	<polygon fill="#DBDAD9" points="647.4,241.5 619.3,205.9 569.2,205.9 536.9,241.5 	"/>
	<polyline fill="#FFFFFF" points="585.7,188.2 585.7,204.4 593.5,209.8 600.7,204.3 600.7,188.2 	"/>
	
		<polyline fill="none" stroke="#717070" stroke-width="2.769" stroke-linecap="round" stroke-linejoin="round" stroke-miterlimit="10" points="
		585.7,188.2 585.7,204.4 593.5,209.8 600.7,204.3 600.7,188.2 	"/>
	<polyline fill="#676767" points="540.5,264.9 540.5,283.8 536.9,287.7 536.9,296.9 561.3,296.9 566.3,290.4 618,290.8 623,297.3 
		647.4,297.3 647.4,288.1 643.8,284.2 643.8,265.2 	"/>
	<polygon fill="#A2A2A3" points="647.4,264.9 536.9,264.9 536.9,241.5 568.3,241.5 647.4,241.5 647.4,253.1 	"/>
	<path fill="#112029" d="M519.8,264.8c0,2.2,0,4.4,0,6.6c-3.1,0-6.3,0-9.4,0c-0.4,0-0.4-0.2-0.4-0.5v-6.3c0-0.3,0.1-0.6-0.1-0.8
		c-0.1-1-0.6-1.5-1.6-1.7c-0.6-0.1-1.3-0.1-1.9,0c-0.8,0.1-1.3,0.6-1.4,1.4c-0.1,0.3-0.1,0.6-0.1,0.9c0,2.3,0,4.6,0,6.9h-9.7
		c0-2.2,0-4.5,0-6.7c0-0.2,0-0.4,0-0.6c0-7.5,0-14.9,0-22.4c0-0.8,0.2-1.4,0.6-2c2.4-3.2,3.2-7,3.2-11c0.6-0.2,1.2-0.4,1.9-0.3
		c0,0.3,0.1,0.5,0.1,0.8c0.2,1.6,0.7,2.9,2,4c1.3,1.1,2.9,1.3,4.5,1.3c0.5,0,1.1,0,1.7-0.2c1.2-0.3,2.4-0.8,3.2-1.8
		c1.1-1.2,1.4-2.7,1.5-4.2c0.6,0.1,1.2,0.2,1.9,0.3c0,0.6,0,1.3,0.1,1.9c0.1,1.2,0.3,2.4,0.6,3.5c0.5,2,1.2,4,2.6,5.6
		c0.6,0.7,0.7,1.4,0.7,2.3c0,4.8,0,9.5,0,14.3C519.8,259.2,519.8,262,519.8,264.8"/>
	<path fill="#E0B495" d="M525.4,208c-0.2,0.7-0.3,1.4-0.5,2.2c-0.5-0.5-0.8-1.1-1.1-1.7c-1.2-2.2-2-4.6-2.5-7.1
		c-0.2-1.1-0.3-2.2-0.3-3.4c0-0.3,0-0.4-0.4-0.3c-3.1,0.9-2.4-8.4-5.6-7.8c-2.5,0.5-12.1,1.6-14.7,1.9c-1.4,0.2-4.5,1.6-5.9,1.7
		c-1.4,0.1-1.5,5.3-2.9,5.3c-2.6,0.1-1.6,2.2,0,2.4c0.4,0,1.8,0.4,1.7,0.8c-0.4,1.9-1,3.8-1.8,5.6c-0.4,0.9-0.8,1.8-1.5,2.6
		c-0.3-0.8-0.4-1.5-0.5-2.2c-1.1,0-1.5,0.4-1.5,1.5c0,0.8,1.1,1.9,1.3,2.7c0.2,0.9-0.3,1.5-0.4,2.5c0,0.6,0.6,1,1.3,0.9
		c0.3,0,0.4,0,0.5,0.3c0,0.1,0.1,0.3,0.1,0.4c0.8,3,2.2,5.5,4.6,7.4c1.7,1.4,3.7,2.2,5.8,2.8c0.2,0,0.4,0,0.5,0.3
		c0,0.4,0.1,0.9,0,1.3c0,0.2-0.4,0.1-0.6,0.2c-0.1,0-0.1,0.1-0.2,0.1c0,0.3,0.1,0.5,0.1,0.8c0.2,1.6,0.7,2.9,2,4
		c1.3,1.1,2.9,1.3,4.5,1.3c0.5,0,1.1,0,1.7-0.2c1.2-0.3,2.4-0.8,3.2-1.8c1.1-1.2,1.4-2.7,1.5-4.2c-0.1,0-0.3-0.1-0.4-0.1
		c-0.4,0-0.5-0.1-0.4-0.5c0-1,0-1,0.9-1.3c0.1,0,0.2-0.1,0.3-0.1c3-0.9,5.5-2.4,7.3-4.9c1.3-1.7,2-3.6,2.5-5.6
		c0.1-0.3,0.1-0.3,0.4-0.3c0.8,0.1,1.3-0.4,1.3-1.2c0-0.5-0.4-1.4-0.3-1.9c0.4-1.1,1.3-1.9,1.2-3.1
		C526.9,208.6,526.5,207.8,525.4,208z"/>
	<path fill="#74431F" d="M525.4,208c-0.2,0.7-0.3,1.4-0.5,2.2c-0.5-0.5-0.8-1.1-1.1-1.7c-1.2-2.2-2-4.6-2.5-7.1
		c-0.2-1.1-0.3-2.2-0.3-3.4c0-0.3,0-0.4-0.4-0.3c-3.1,0.9-2.7-6.6-5.9-6c-2.5,0.5-4.6,0.1-7.2,0.5c-1.4,0.2-3.8,3-5.2,3.1
		c-1.4,0.1-2.9-0.2-4.3-0.1c-0.5,0-1.9,0-2.4,0c-0.4,0-2.3,6.5-2.4,6.8c-0.4,1.9-1,3.8-1.8,5.6c-0.4,0.9-0.8,1.8-1.5,2.6
		c-0.3-0.8-0.4-1.5-0.5-2.2c-0.6-3.5-0.7-7.1,0.2-10.6c1.2-4.7,2.1-9.2,6.5-11.3c6.6-3.1,17-2.4,23.6,1c4.5,2.3,5.1,6.5,5.9,11.4
		c0.5,3.1,0.3,6.2-0.3,9.3C525.4,207.8,525.4,207.9,525.4,208"/>
	<path fill="#E0B495" d="M550.6,241c-2.7-0.8-5.5-1.5-8.2-2.3c-4.6-1.3-7.2-1.5-11.8-2.8c-0.8-0.2-2.6-0.5-4.3-0.5
		c-2.1,0-3.8,0.2-5.4,1.1c-1.1,0.6-0.9,4.1-2.1,3.9c-0.6-0.1-3.3-6-3.1-5.4c-0.8-2-1-4.6-0.3-6c0.3-0.7,3.5,1.5,4.2,1.5
		c3.5-0.2,6.9-0.1,10.3,0.3c2.6,0.3,5.3,0.7,7.9,1.2c1.6,0.3,3.3,0.7,4.9,1.1c2.4,0.6,4.7,1.1,7.1,1.8c1.5,0.4,2.4,1.3,2.6,2.8
		c0.2,1.5-0.5,2.5-1.7,3.3C550.7,240.9,550.7,240.9,550.6,241"/>
	<path fill="#E0B495" d="M499,228.8c0,4-0.8,7.7-3.2,10.9c-0.5,0.7-0.6,1.3-0.6,2c0,7.5,0,14.9,0,22.4c0,0.2,0,0.4,0,0.6
		c-1.4,1.5-3.2,1.7-4.7,0.4c-0.6-0.5-1-1.3-1.1-2.1c-0.1-2.4,0-4.8,0.1-7.2c0.1-2.3,0.3-4.6,0.5-7c0.6-5.4,0.6-9.9,2.3-15
		c0.5-1.5,2-3.3,3.4-4C496.8,229.4,497.8,228.9,499,228.8"/>
	<path fill="#E0B495" d="M509.9,263.9c0.1,0.3,0.1,0.5,0.1,0.8v6.3c0,0.3,0,0.5,0.4,0.5c3.1,0,6.3,0,9.4,0c0,4.4,0,8.8,0,13.2
		c0,0.5,0,1,0,1.5c-0.2,0.1-0.4,0.1-0.6,0.2c-3.1,0.7-6.1,1.3-9.2,1.9c0-0.2,0-0.5,0-0.7c0-5.1,0-10.2,0-15.3c0-2.6,0-5.2,0-7.8
		C509.9,264.3,509.9,264.1,509.9,263.9"/>
	<path fill="#E0B495" d="M495.2,271.4h9.7c0,5.6,0,11.2,0,16.8c-1.9-0.4-3.8-0.8-5.7-1.2c-1.3-0.3-2.7-0.6-4-0.9v-14.1
		C495.2,271.9,495.2,271.7,495.2,271.4"/>
	<path fill="#2C3D52" d="M495.2,286.2c1.3,0.3,2.7,0.6,4,0.9c1.9,0.4,3.8,0.8,5.7,1.2c0.1,1.2,0.1,1.2-1.2,1.2c-3.4,0-6.7,0-10.1,0
		c-0.4,0-0.6-0.1-0.5-0.5C493.3,287.7,493.9,286.6,495.2,286.2"/>
	<path fill="#2C3D52" d="M510,288.3c3-0.7,6.1-1.3,9.2-1.9c0.2,0,0.4-0.1,0.6-0.2c1.4,0.5,1.9,1.6,2,3c0,0.2,0,0.4-0.3,0.4
		c-3.7,0-7.4,0-11.1,0c-0.3,0-0.4-0.1-0.4-0.4C510,288.9,510,288.6,510,288.3"/>
	
		<line fill="none" stroke="#717070" stroke-width="2.769" stroke-linecap="round" stroke-linejoin="round" stroke-miterlimit="10" x1="593.1" y1="196" x2="593.1" y2="199.8"/>
	
		<line fill="none" stroke="#868787" stroke-width="2.769" stroke-linecap="round" stroke-linejoin="round" stroke-miterlimit="10" x1="566.2" y1="274.4" x2="566.2" y2="280.1"/>
	
		<line fill="none" stroke="#868787" stroke-width="2.769" stroke-linecap="round" stroke-linejoin="round" stroke-miterlimit="10" x1="559.4" y1="274.4" x2="559.4" y2="280.1"/>
	
		<line fill="none" stroke="#868787" stroke-width="2.769" stroke-linecap="round" stroke-linejoin="round" stroke-miterlimit="10" x1="552.6" y1="274.4" x2="552.6" y2="280.1"/>
	
		<line fill="none" stroke="#241F21" stroke-width="2.769" stroke-linecap="round" stroke-linejoin="round" stroke-miterlimit="10" x1="629" y1="275.7" x2="631.2" y2="273.5"/>
	
		<line fill="none" stroke="#241F21" stroke-width="2.769" stroke-linecap="round" stroke-linejoin="round" stroke-miterlimit="10" x1="612.3" y1="275.7" x2="614.4" y2="273.5"/>
	
		<line fill="none" stroke="#717070" stroke-width="2.769" stroke-linecap="round" stroke-linejoin="round" stroke-miterlimit="10" x1="593.5" y1="214" x2="593.5" y2="209.8"/>
	
		<path fill="none" stroke="#717070" stroke-width="2.769" stroke-linecap="round" stroke-linejoin="round" stroke-miterlimit="10" d="
		M572.4,181.4c-4.6,0-8.3-3.7-8.3-8.3c0-4.6,3.7-8.3,8.3-8.3"/>
	
		<path fill="#BBBDBF" stroke="#717070" stroke-width="2.769" stroke-linecap="round" stroke-linejoin="round" stroke-miterlimit="10" d="
		M603.8,182.3v-5c0-3-2.4-5.4-5.4-5.4h-10.7c-3,0-5.4,2.4-5.4,5.4v4.5v6.4h21.5v-6.9"/>
	
		<polyline fill="none" stroke="#717070" stroke-width="2.769" stroke-linecap="round" stroke-linejoin="round" stroke-miterlimit="10" points="
		572.4,164.8 593.5,164.8 593.5,171.9 	"/>
	
		<line fill="none" stroke="#717070" stroke-width="2.769" stroke-linecap="round" stroke-linejoin="round" stroke-miterlimit="10" x1="639.2" y1="214" x2="643.3" y2="214"/>
	
		<line fill="none" stroke="#717070" stroke-width="2.769" stroke-linecap="round" stroke-linejoin="round" stroke-miterlimit="10" x1="543.8" y1="214.2" x2="547.4" y2="214.2"/>
	
		<polyline fill="none" stroke="#717070" stroke-width="2.769" stroke-linecap="round" stroke-linejoin="round" stroke-miterlimit="10" points="
		631.6,220.6 631.6,188.2 631.6,181.4 574.9,181.4 572.4,181.4 	"/>
	
		<line fill="none" stroke="#868787" stroke-width="2.769" stroke-linecap="round" stroke-linejoin="round" stroke-miterlimit="10" x1="620.8" y1="253.1" x2="647.4" y2="253.1"/>
	
		<path fill="none" stroke="#868787" stroke-width="2.769" stroke-linecap="round" stroke-linejoin="round" stroke-miterlimit="10" d="
		M630.1,278.6c0,2.3-1.9,4.2-4.2,4.2c-2.3,0-4.2-1.9-4.2-4.2c0-2.3,1.9-4.2,4.2-4.2C628.2,274.4,630.1,276.3,630.1,278.6z"/>
	
		<path fill="none" stroke="#868787" stroke-width="2.769" stroke-linecap="round" stroke-linejoin="round" stroke-miterlimit="10" d="
		M613.5,278.6c0,2.3-1.9,4.2-4.2,4.2c-2.3,0-4.2-1.9-4.2-4.2c0-2.3,1.9-4.2,4.2-4.2C611.6,274.4,613.5,276.3,613.5,278.6z"/>
	
		<circle fill="none" stroke="#868787" stroke-width="2.769" stroke-linecap="round" stroke-linejoin="round" stroke-miterlimit="10" cx="583.5" cy="253.1" r="4.2"/>
	
		<circle fill="none" stroke="#868787" stroke-width="2.769" stroke-linecap="round" stroke-linejoin="round" stroke-miterlimit="10" cx="566.7" cy="253.1" r="4.2"/>
	
		<circle fill="none" stroke="#868787" stroke-width="2.769" stroke-linecap="round" stroke-linejoin="round" stroke-miterlimit="10" cx="550.1" cy="253.1" r="4.2"/>
	<rect x="458.5" y="108.9" fill="none" width="221.5" height="211.5"/>
	<polygon fill="#B07F4A" points="475.2,263.3 668,263.3 678.3,277.2 464.1,277.2 	"/>
	<rect x="481.2" y="277.3" fill="#946138" width="6.9" height="23.7"/>
	<rect x="481.2" y="277.3" fill="none" width="6.9" height="23.7"/>
	<rect x="651.5" y="277.3" fill="#946138" width="6.9" height="23.7"/>
	<rect x="472.2" y="152.4" fill="#C99D67" width="6.9" height="166.2"/>
	<rect x="459.7" y="108.9" fill="none" width="221.5" height="211.5"/>
	<rect x="663.5" y="152.4" fill="#C99D67" width="6.9" height="166.2"/>
	<rect x="459.7" y="108.9" fill="none" width="221.5" height="211.5"/>
	<rect x="453.8" y="108.5" fill="none" width="230.6" height="220.1"/>
	<path fill="none" stroke="#1C1C1C" stroke-linecap="round" stroke-linejoin="round" stroke-miterlimit="10" d="M497.9,218
		c0,0,8.5,7.3,18.7,0"/>
	<ellipse fill="#1E1E1E" cx="501.5" cy="207.3" rx="2.5" ry="2.3"/>
	<ellipse fill="#1E1E1E" cx="512.4" cy="207.3" rx="2.5" ry="2.3"/>
	<path fill="#F6B2CF" d="M488.8,241.4c0,0,5,1.5,6,2.9c0.1,0.1-0.3,14.9,0,12.1v0.3c0,0,12.9,3.9,25.4,0.2l0-16.7l9.9-1.8l-2.1-8.1
		c0,0-4.9-0.4-7.7-0.1c0,0-3.4-1.7-6-2c0,0-5.6,7.3-13.5,0.1c0,0-6.8,0.3-8,4.7L488.8,241.4z"/>
	<text transform="matrix(1 0 0 1 494.2109 140.3819)"><tspan x="0" y="0" fill="#383939" font-family="'Graphik-Black'" font-size="26.1528">FAB</tspan><tspan x="53.2" y="0" fill="#383939" font-family="'Graphik-Light'" font-size="26.1528">MARKET</tspan></text>
	<g>
		<text transform="matrix(1 0 0 1 145.5122 189.0967)"><tspan x="0" y="0" fill="#231F20" font-family="'Lato-Light'" font-size="20.0443">A place where designers can </tspan><tspan x="0" y="24.1" fill="#231F20" font-family="'Lato-Black'" font-size="20.0443">fabricate for low cost</tspan><tspan x="193.7" y="24.1" fill="#231F20" font-family="'Graphik-Light'" font-size="20.0443"> </tspan><tspan x="198.7" y="24.1" fill="#231F20" font-family="'Lato-Light'" font-size="20.0443">and sell </tspan><tspan x="0" y="48.1" fill="#231F20" font-family="'Lato-Light'" font-size="20.0443">their creations</tspan><tspan x="124.1" y="48.1" fill="#231F20" font-family="'Graphik-Light'" font-size="20.0443"> </tspan><tspan x="129.1" y="48.1" fill="#231F20" font-family="'Lato-Black'" font-size="20.0443">globally </tspan><tspan x="0" y="72.2" fill="#231F20" font-family="'Lato-Light'" font-size="20.0443">at the same time</tspan></text>
	</g>
	<line fill="#231F20" x1="124.2" y1="173.8" x2="124.2" y2="262.1"/>
</g>
</svg>
