<?xml version="1.0" encoding="utf-8"?>
<!-- Generator: Adobe Illustrator 18.0.0, SVG Export Plug-In . SVG Version: 6.00 Build 0)  -->
<!DOCTYPE svg PUBLIC "-//W3C//DTD SVG 1.1//EN" "http://www.w3.org/Graphics/SVG/1.1/DTD/svg11.dtd">
<svg version="1.1" id="Layer_8" xmlns="http://www.w3.org/2000/svg" xmlns:xlink="http://www.w3.org/1999/xlink" x="0px" y="0px"
	 viewBox="0 -48 800 531" enable-background="new 0 -48 800 531" xml:space="preserve">
<path fill-rule="evenodd" clip-rule="evenodd" fill="#FFFFFF" d="M675.1,214.7c-1,43.3-36.9,77.7-80.2,76.7
	c-43.3-1-77.7-36.9-76.7-80.2c1-43.3,36.9-77.7,80.2-76.7C641.7,135.4,676.1,171.3,675.1,214.7z"/>
<path fill-rule="evenodd" clip-rule="evenodd" fill="#79CFE1" d="M534.8,250.4l17.5,0.4l112.2,2.5c0,0-28.3,55.1-63.4,44.6
	C601,298,535.2,277.5,534.8,250.4z"/>
<path fill-rule="evenodd" clip-rule="evenodd" fill="#343433" d="M452.4,226.7c4.2-1.7,5.4,3.1,9.8,1.8c1.2-0.4,1.3,0.6,1.5,1.4
	c0.6,2.5,4.7-0.5,5.3,2c0.3,1.5,0.9,2,2.5,1.6c9.7-2.6,19.5-5,29.2-7.4c1.4-0.3,1.6-1,1.5-2.3c-2.3-23.4,3.1-44.9,16.1-64.4
	c13.2-19.9,31.4-33.4,54.5-40c30.5-8.7,59.2-4.1,84.8,14.4c30.4,22,44.2,52.5,40.9,89.9c-4.2,46.9-41.6,84.4-88.3,88.4
	c-38.8,3.3-69.6-11.8-92-43.7c-3.5-5-6.2-10.5-8.6-16.1c-0.6-1.3-1.2-1.7-2.6-1.3c-9.6,2.5-19.3,5-29,7.4c-1.9,0.5-2.1,1.3-1.6,3
	c0.7,2.1-2.6,2.4-2,4.6c0.4,1.3,0.1,2.3-1.3,2.7c-4.1,0.9-4.5,4.3-8.7,4.8c-0.2-0.7-0.3-1.5-0.5-2.2c-2-7.2-3.4-14.5-5.7-21.5
	C456.2,242.1,454.3,234.4,452.4,226.7z M529.8,236.4c0,1.1,0.4,2.1,1,3c0,0.4,0,0.8,0.1,1.2c12.1,28.5,33.6,44.6,64.5,47.6
	c10.6,1,21-0.6,31-4.6c0.6-0.2,1.1-0.3,1.7-0.5c20.6-8.6,34.9-23.3,42.4-44.3c15.1-42.5-11.1-88.4-55.4-97.4
	c-8.5-1.7-17.1-2.3-25.6-0.4c-0.2,0-0.5,0-0.7,0c-9.6,1.4-18.5,4.6-26.8,9.7c-8.5,5.2-15.8,11.8-21.6,19.9
	c-9.5,13.2-14.3,27.9-14.1,44.2C526.1,222.1,527.2,229.4,529.8,236.4z"/>
<path fill-rule="evenodd" clip-rule="evenodd" fill="#D44627" d="M552.9,155.5c0.2-0.1,0.4-0.2,0.6-0.4c0.1,0.1,0.1,0.2,0.2,0.2
	c-0.2,0.2-0.3,0.3-0.5,0.5C553.1,155.7,553,155.6,552.9,155.5z"/>
<path fill="#3A3E42" d="M535.5,230.8l33.9,0.8l9.9,10.4l77.5,1.7l-2.2,5.5l-99.5-2.2c0,0,2.3-2.5-5-4.2
	C550.1,242.8,536.1,236.7,535.5,230.8z"/>
<path fill="#DD474F" d="M547.5,252.9c0,0,6-1.9,7.6-5.9l99.5,2.2c0,0-1.6,4-3.9,5L547.5,252.9z"/>
<polygon fill="#DAD5B4" points="541.4,231 546.4,212.8 539.1,211 539.1,208.9 544.3,209 542.9,202.7 544.8,202.8 545.3,200 
	554.8,200.2 554.8,199.3 552.4,199.2 552.4,197.9 555.1,198 555.1,197.1 552.5,197.1 552.5,195.6 555.1,195.6 555.1,194.7 
	552.5,194.7 552.5,193.4 555.2,193.5 555.2,191.6 556,191.6 556,193.5 558.6,193.6 558.6,194.8 555.8,194.7 555.8,195.6 
	558.6,195.7 558.6,197.1 555.9,197 555.9,198.1 558.5,198.2 558.5,199.3 555.7,199.3 555.7,200.1 565.6,200.3 565.5,202.2 
	568.6,202.3 566.5,208.9 573.2,209 573.1,211.6 566.5,214.2 566.4,231.5 "/>
<rect x="580.6" y="209.4" transform="matrix(0.9998 2.234583e-02 -2.234583e-02 0.9998 4.9136 -13.1585)" fill="#446B7F" width="21.3" height="7.8"/>
<rect x="602.5" y="226.4" transform="matrix(0.9998 2.229981e-02 -2.229981e-02 0.9998 5.2881 -13.6158)" fill="#446B7F" width="21.3" height="7.8"/>
<rect x="580.2" y="225.9" transform="matrix(0.9997 2.238915e-02 -2.238915e-02 0.9997 5.2932 -13.1715)" fill="#363A44" width="21.3" height="7.8"/>
<rect x="602.3" y="234.8" transform="matrix(0.9998 2.229782e-02 -2.229782e-02 0.9998 5.4739 -13.6084)" fill="#363A44" width="21.3" height="7.8"/>
<rect x="602.7" y="218.1" transform="matrix(0.9997 2.243400e-02 -2.243400e-02 0.9997 5.1357 -13.7037)" fill="#363A44" width="21.3" height="7.8"/>
<rect x="624.6" y="218.6" transform="matrix(0.9998 2.225389e-02 -2.225389e-02 0.9998 5.1095 -14.0818)" fill="#363A44" width="21.3" height="7.8"/>
<rect x="624.2" y="235.3" transform="matrix(0.9997 2.239584e-02 -2.239584e-02 0.9997 5.5151 -14.1588)" fill="#363A44" width="21.3" height="7.8"/>
<rect x="580.4" y="217.7" transform="matrix(0.9997 2.239374e-02 -2.239374e-02 0.9997 5.1095 -13.1803)" fill="#D2C23F" width="21.3" height="7.8"/>
<rect x="624.8" y="210.4" transform="matrix(0.9997 2.239219e-02 -2.239219e-02 0.9997 4.9574 -14.1752)" fill="#D2C23F" width="21.3" height="7.8"/>
<rect x="580" y="234.3" transform="matrix(0.9997 2.239279e-02 -2.239279e-02 0.9997 5.4812 -13.1673)" fill="#D95729" width="21.3" height="7.8"/>
<polygon fill="#D95729" points="624.1,217.9 602.8,217.4 603,209.7 624.2,210.1 "/>
<rect x="624.4" y="226.9" transform="matrix(0.9998 2.229981e-02 -2.229981e-02 0.9998 5.3045 -14.1046)" fill="#D95729" width="21.3" height="7.8"/>
<rect x="556.3" y="218.2" transform="matrix(0.9997 2.271045e-02 -2.271045e-02 0.9997 5.1288 -12.6037)" fill="#3A3E42" width="2.3" height="2.6"/>
<polygon fill="#3A3E42" points="547,207 544.9,206.9 544.4,204.3 547,204.4 "/>
<rect x="548" y="204.4" transform="matrix(0.9998 2.184360e-02 -2.184360e-02 0.9998 4.625 -11.9452)" fill="#3A3E42" width="2.3" height="2.6"/>
<rect x="551.1" y="204.5" transform="matrix(0.9998 2.227322e-02 -2.227322e-02 0.9998 4.721 -12.2489)" fill="#3A3E42" width="2.3" height="2.6"/>
<rect x="554.3" y="204.6" transform="matrix(0.9998 2.187238e-02 -2.187238e-02 0.9998 4.6359 -12.1)" fill="#3A3E42" width="2.3" height="2.6"/>
<rect x="557.5" y="204.7" transform="matrix(0.9998 2.182542e-02 -2.182542e-02 0.9998 4.628 -12.1432)" fill="#3A3E42" width="2.3" height="2.6"/>
<rect x="560.6" y="204.7" transform="matrix(0.9998 2.230157e-02 -2.230157e-02 0.9998 4.7343 -12.4769)" fill="#3A3E42" width="2.3" height="2.6"/>
<polygon fill="#3A3E42" points="565.8,207.4 563.8,207.4 563.9,204.8 566.5,204.8 "/>
<rect x="559.5" y="218.3" transform="matrix(0.9997 2.312408e-02 -2.312408e-02 0.9997 5.2274 -12.9046)" fill="#3A3E42" width="2.3" height="2.6"/>
<path fill-rule="evenodd" clip-rule="evenodd" fill="#E9F0F3" d="M601.8,151.9c13.3,0.3,24.7,5.1,34.4,14.2c1.2,1.1,1.5,1.9,0,3.2
	c-3.9,3.6-7.8,7.3-11.6,11c-1,1-1.6,1-2.7,0.1c-5.4-5.1-12-7.9-19.4-8.4c-8.2-0.5-15.6,2-22,7.3c-1.1,0.9-1.8,1.1-2.8-0.1
	c-3.6-3.9-7.2-7.9-11.1-11.4c-1.3-1.2-1.4-2,0.1-3.2C577,156.1,588.5,151.5,601.8,151.9z"/>
<ellipse transform="matrix(0.8123 -0.5832 0.5832 0.8123 -7.3876 360.306)" fill="#DAD5B4" cx="556.1" cy="191.6" rx="1.8" ry="2.5"/>
<rect x="298.4" y="246.1" transform="matrix(-0.9687 0.2484 -0.2484 -0.9687 808.675 414.319)" fill-rule="evenodd" clip-rule="evenodd" fill="#558D68" width="159.5" height="24.2"/>
<rect x="304.5" y="269.5" transform="matrix(-0.9687 0.2484 -0.2484 -0.9687 826.3284 458.9584)" fill-rule="evenodd" clip-rule="evenodd" fill="#2E4436" width="159.5" height="24.2"/>
<rect x="322.3" y="259.1" transform="matrix(0.9687 -0.2483 0.2483 0.9687 -60.0287 90.6102)" fill-rule="evenodd" clip-rule="evenodd" fill="#F2F2F2" width="13.7" height="48.4"/>
<rect x="353.2" y="251.1" transform="matrix(0.9687 -0.2484 0.2484 0.9687 -57.1081 98.0714)" fill-rule="evenodd" clip-rule="evenodd" fill="#F2F2F2" width="13.7" height="48.4"/>
<g>
	<text transform="matrix(1 0 0 1 146.5928 165.3116)"><tspan x="0" y="0" fill="#FFFFFF" font-family="'Lato-Light'" font-size="22.4636">To</tspan><tspan x="25.3" y="0" fill="#FFFFFF" font-family="'Graphik-Light'" font-size="22.4636"> </tspan><tspan x="30.8" y="0" fill="#FFFFFF" font-family="'Lato-Black'" font-size="22.4636">minimize</tspan><tspan x="124.7" y="0" fill="#FFFFFF" font-family="'Graphik-Bold'" font-size="22.4636"> </tspan><tspan x="129.1" y="0" fill="#FFFFFF" font-family="'Lato-Light'" font-size="22.4636">long distance </tspan><tspan x="0" y="27" fill="#FFFFFF" font-family="'Lato-Light'" font-size="22.4636">shipping of</tspan><tspan x="103.7" y="27" fill="#FFFFFF" font-family="'Graphik-Light'" font-size="22.4636"> </tspan><tspan x="109.3" y="27" fill="#FFFFFF" font-family="'Lato-Black'" font-size="22.4636">materials and stuff</tspan></text>
</g>
<line fill="#FFFFFF" x1="125.7" y1="145.2" x2="125.7" y2="198.5"/>
</svg>
