<?xml version="1.0" encoding="utf-8"?>
<!-- Generator: Adobe Illustrator 18.0.0, SVG Export Plug-In . SVG Version: 6.00 Build 0)  -->
<!DOCTYPE svg PUBLIC "-//W3C//DTD SVG 1.1//EN" "http://www.w3.org/Graphics/SVG/1.1/DTD/svg11.dtd">
<svg version="1.1" xmlns="http://www.w3.org/2000/svg" xmlns:xlink="http://www.w3.org/1999/xlink" x="0px" y="0px"
	 viewBox="0 -48 800 531" enable-background="new 0 -48 800 531" xml:space="preserve">
<g id="_x34_">
	<g id="Layer_10_1_">
		<rect y="-48" fill="#79CFE1" width="800" height="531"/>
	</g>
	<path fill-rule="evenodd" clip-rule="evenodd" fill="#FFFFFF" d="M675.1,279.6c-1,43.3-36.9,77.7-80.2,76.7
		c-43.3-1-77.7-36.9-76.7-80.2c1-43.3,36.9-77.7,80.2-76.7C641.7,200.3,676.1,236.2,675.1,279.6z"/>
	<path fill-rule="evenodd" clip-rule="evenodd" fill="#79CFE1" d="M534.8,315.3l17.5,0.4l112.2,2.5c0,0-28.3,55.1-63.4,44.6
		C601,362.9,535.2,342.4,534.8,315.3z"/>
	<path fill-rule="evenodd" clip-rule="evenodd" fill="#343433" d="M452.4,291.6c4.2-1.7,5.4,3.1,9.8,1.8c1.2-0.4,1.3,0.6,1.5,1.4
		c0.6,2.5,4.7-0.5,5.3,2c0.3,1.5,0.9,2,2.5,1.6c9.7-2.6,19.5-5,29.2-7.4c1.4-0.3,1.6-1,1.5-2.3c-2.3-23.4,3.1-44.9,16.1-64.4
		c13.2-19.9,31.4-33.4,54.5-40c30.5-8.7,59.2-4.1,84.8,14.4c30.4,22,44.2,52.5,40.9,89.9c-4.2,46.9-41.6,84.4-88.3,88.4
		c-38.8,3.3-69.6-11.8-92-43.7c-3.5-5-6.2-10.5-8.6-16.1c-0.6-1.3-1.2-1.7-2.6-1.3c-9.6,2.5-19.3,5-29,7.4c-1.9,0.5-2.1,1.3-1.6,3
		c0.7,2.1-2.6,2.4-2,4.6c0.4,1.3,0.1,2.3-1.3,2.7c-4.1,0.9-4.5,4.3-8.7,4.8c-0.2-0.7-0.3-1.5-0.5-2.2c-2-7.2-3.4-14.5-5.7-21.5
		C456.2,307,454.3,299.3,452.4,291.6z M529.8,301.3c0,1.1,0.4,2.1,1,3c0,0.4,0,0.8,0.1,1.2c12.1,28.5,33.6,44.6,64.5,47.6
		c10.6,1,21-0.6,31-4.6c0.6-0.2,1.1-0.3,1.7-0.5c20.6-8.6,34.9-23.3,42.4-44.3c15.1-42.5-11.1-88.4-55.4-97.4
		c-8.5-1.7-17.1-2.3-25.6-0.4c-0.2,0-0.5,0-0.7,0c-9.6,1.4-18.5,4.6-26.8,9.7c-8.5,5.2-15.8,11.8-21.6,19.9
		c-9.5,13.2-14.3,27.9-14.1,44.2C526.1,287,527.2,294.3,529.8,301.3z"/>
	<path fill-rule="evenodd" clip-rule="evenodd" fill="#D44627" d="M552.9,220.4c0.2-0.1,0.4-0.2,0.6-0.4c0.1,0.1,0.1,0.2,0.2,0.2
		c-0.2,0.2-0.3,0.3-0.5,0.5C553.1,220.6,553,220.5,552.9,220.4z"/>
	<path fill="#3A3E42" d="M535.5,295.7l33.9,0.8l9.9,10.4l77.5,1.7l-2.2,5.5l-99.5-2.2c0,0,2.3-2.5-5-4.2
		C550.1,307.7,536.1,301.6,535.5,295.7z"/>
	<path fill="#DD474F" d="M547.5,317.8c0,0,6-1.9,7.6-5.9l99.5,2.2c0,0-1.6,4-3.9,5L547.5,317.8z"/>
	<polygon fill="#DAD5B4" points="541.4,295.9 546.4,277.7 539.1,275.9 539.1,273.8 544.3,273.9 542.9,267.6 544.8,267.7 
		545.3,264.9 554.8,265.1 554.8,264.2 552.4,264.1 552.4,262.8 555.1,262.9 555.1,262 552.5,262 552.5,260.5 555.1,260.5 
		555.1,259.6 552.5,259.6 552.5,258.3 555.2,258.4 555.2,256.5 556,256.6 556,258.5 558.6,258.5 558.6,259.7 555.8,259.7 
		555.8,260.5 558.6,260.6 558.6,262 555.9,261.9 555.9,263 558.5,263.1 558.5,264.2 555.7,264.2 555.7,265 565.6,265.2 565.5,267.1 
		568.6,267.2 566.5,273.8 573.2,273.9 573.1,276.5 566.5,279.1 566.4,296.4 	"/>
	
		<rect x="580.6" y="274.3" transform="matrix(0.9998 2.234583e-02 -2.234583e-02 0.9998 6.364 -13.1422)" fill="#446B7F" width="21.3" height="7.8"/>
	
		<rect x="602.5" y="291.3" transform="matrix(0.9998 2.229981e-02 -2.229981e-02 0.9998 6.7355 -13.5997)" fill="#446B7F" width="21.3" height="7.8"/>
	
		<rect x="580.2" y="290.8" transform="matrix(0.9997 2.238915e-02 -2.238915e-02 0.9997 6.7464 -13.1552)" fill="#363A44" width="21.3" height="7.8"/>
	
		<rect x="602.3" y="299.7" transform="matrix(0.9998 2.229782e-02 -2.229782e-02 0.9998 6.9212 -13.5922)" fill="#363A44" width="21.3" height="7.8"/>
	
		<rect x="602.7" y="283.1" transform="matrix(0.9997 2.243400e-02 -2.243400e-02 0.9997 6.5918 -13.6873)" fill="#363A44" width="21.3" height="7.8"/>
	
		<rect x="624.6" y="283.5" transform="matrix(0.9998 2.225389e-02 -2.225389e-02 0.9998 6.554 -14.0657)" fill="#363A44" width="21.3" height="7.8"/>
	
		<rect x="624.2" y="300.2" transform="matrix(0.9997 2.239584e-02 -2.239584e-02 0.9997 6.9688 -14.1425)" fill="#363A44" width="21.3" height="7.8"/>
	
		<rect x="580.4" y="282.6" transform="matrix(0.9997 2.239374e-02 -2.239374e-02 0.9997 6.563 -13.1641)" fill="#D2C23F" width="21.3" height="7.8"/>
	
		<rect x="624.8" y="275.3" transform="matrix(0.9997 2.239219e-02 -2.239219e-02 0.9997 6.4108 -14.1589)" fill="#D2C23F" width="21.3" height="7.8"/>
	
		<rect x="580" y="299.2" transform="matrix(0.9997 2.239279e-02 -2.239279e-02 0.9997 6.9346 -13.151)" fill="#D95729" width="21.3" height="7.8"/>
	<polygon fill="#D95729" points="624.1,282.8 602.8,282.3 603,274.6 624.2,275 	"/>
	
		<rect x="624.4" y="291.8" transform="matrix(0.9998 2.229981e-02 -2.229981e-02 0.9998 6.7519 -14.0884)" fill="#D95729" width="21.3" height="7.8"/>
	
		<rect x="556.3" y="283.1" transform="matrix(0.9997 2.271045e-02 -2.271045e-02 0.9997 6.6029 -12.587)" fill="#3A3E42" width="2.3" height="2.6"/>
	<polygon fill="#3A3E42" points="547,271.9 544.9,271.8 544.4,269.2 547,269.3 	"/>
	
		<rect x="548" y="269.4" transform="matrix(0.9998 2.184360e-02 -2.184360e-02 0.9998 6.0428 -11.9297)" fill="#3A3E42" width="2.3" height="2.6"/>
	
		<rect x="551.1" y="269.4" transform="matrix(0.9998 2.227322e-02 -2.227322e-02 0.9998 6.1666 -12.2328)" fill="#3A3E42" width="2.3" height="2.6"/>
	
		<rect x="554.3" y="269.5" transform="matrix(0.9998 2.187238e-02 -2.187238e-02 0.9998 6.0556 -12.0844)" fill="#3A3E42" width="2.3" height="2.6"/>
	
		<rect x="557.5" y="269.6" transform="matrix(0.9998 2.182542e-02 -2.182542e-02 0.9998 6.0446 -12.1277)" fill="#3A3E42" width="2.3" height="2.6"/>
	
		<rect x="560.6" y="269.6" transform="matrix(0.9998 2.230157e-02 -2.230157e-02 0.9998 6.1818 -12.4607)" fill="#3A3E42" width="2.3" height="2.6"/>
	<polygon fill="#3A3E42" points="565.8,272.3 563.8,272.3 563.9,269.7 566.5,269.7 	"/>
	
		<rect x="559.5" y="283.2" transform="matrix(0.9997 2.312408e-02 -2.312408e-02 0.9997 6.7283 -12.8873)" fill="#3A3E42" width="2.3" height="2.6"/>
	<path fill-rule="evenodd" clip-rule="evenodd" fill="#E9F0F3" d="M601.8,216.8c13.3,0.3,24.7,5.1,34.4,14.2c1.2,1.1,1.5,1.9,0,3.2
		c-3.9,3.6-7.8,7.3-11.6,11c-1,1-1.6,1-2.7,0.1c-5.4-5.1-12-7.9-19.4-8.4c-8.2-0.5-15.6,2-22,7.3c-1.1,0.9-1.8,1.1-2.8-0.1
		c-3.6-3.9-7.2-7.9-11.1-11.4c-1.3-1.2-1.4-2,0.1-3.2C577,221.1,588.5,216.4,601.8,216.8z"/>
	
		<ellipse transform="matrix(0.8123 -0.5832 0.5832 0.8123 -45.2421 372.4878)" fill="#DAD5B4" cx="556.1" cy="256.5" rx="1.8" ry="2.5"/>
	
		<rect x="298.4" y="311" transform="matrix(-0.9687 0.2484 -0.2484 -0.9687 824.7971 542.0986)" fill-rule="evenodd" clip-rule="evenodd" fill="#558D68" width="159.5" height="24.2"/>
	
		<rect x="304.5" y="334.4" transform="matrix(-0.9687 0.2484 -0.2484 -0.9687 842.4506 586.7379)" fill-rule="evenodd" clip-rule="evenodd" fill="#2E4436" width="159.5" height="24.2"/>
	
		<rect x="322.3" y="324" transform="matrix(0.9687 -0.2483 0.2483 0.9687 -76.1473 92.6434)" fill-rule="evenodd" clip-rule="evenodd" fill="#F2F2F2" width="13.7" height="48.4"/>
	
		<rect x="353.2" y="316" transform="matrix(0.9687 -0.2484 0.2484 0.9687 -73.2322 100.106)" fill-rule="evenodd" clip-rule="evenodd" fill="#F2F2F2" width="13.7" height="48.4"/>
	<g>
		<g>
			<path fill="#FFFFFF" d="M159.3,214.3v1h-5.6v14.9h-1.1v-14.9H147v-1H159.3z"/>
			<path fill="#FFFFFF" d="M163.4,218.9c0.8,0,1.5,0.1,2.2,0.4s1.2,0.7,1.6,1.2c0.4,0.5,0.8,1.1,1,1.8c0.2,0.7,0.3,1.5,0.3,2.4
				s-0.1,1.7-0.3,2.4c-0.2,0.7-0.6,1.3-1,1.8c-0.4,0.5-1,0.9-1.6,1.2c-0.6,0.3-1.3,0.4-2.2,0.4c-0.8,0-1.5-0.1-2.2-0.4
				c-0.6-0.3-1.2-0.7-1.6-1.2s-0.8-1.1-1-1.8s-0.3-1.5-0.3-2.4s0.1-1.7,0.3-2.4c0.2-0.7,0.6-1.3,1-1.8c0.4-0.5,1-0.9,1.6-1.2
				S162.6,218.9,163.4,218.9z M163.4,229.5c0.7,0,1.2-0.1,1.7-0.3s0.9-0.6,1.2-1s0.6-0.9,0.7-1.5c0.2-0.6,0.2-1.3,0.2-2
				c0-0.7-0.1-1.4-0.2-2s-0.4-1.1-0.7-1.6s-0.7-0.8-1.2-1c-0.5-0.2-1.1-0.3-1.7-0.3c-0.7,0-1.2,0.1-1.7,0.3c-0.5,0.2-0.9,0.6-1.2,1
				s-0.6,0.9-0.8,1.6c-0.2,0.6-0.3,1.3-0.3,2c0,0.7,0.1,1.4,0.3,2c0.2,0.6,0.4,1.1,0.8,1.5s0.7,0.8,1.2,1S162.7,229.5,163.4,229.5z"
				/>
			<path fill="#FFFFFF" d="M176.4,230.2v-11.6h2.2c0.2,0,0.4,0,0.5,0.1c0.1,0.1,0.2,0.2,0.3,0.4l0.2,0.6c0.2-0.2,0.4-0.4,0.6-0.6
				c0.2-0.2,0.4-0.3,0.7-0.4c0.2-0.1,0.5-0.2,0.8-0.3c0.3-0.1,0.6-0.1,0.9-0.1c0.7,0,1.3,0.2,1.7,0.5c0.5,0.4,0.8,0.8,1.1,1.5
				c0.2-0.4,0.4-0.7,0.7-0.9c0.3-0.3,0.6-0.5,0.9-0.6c0.3-0.2,0.7-0.3,1-0.3s0.7-0.1,1.1-0.1c0.7,0,1.3,0.1,1.8,0.3s0.9,0.5,1.3,0.9
				c0.3,0.4,0.6,0.8,0.8,1.4c0.2,0.5,0.3,1.2,0.3,1.9v7.4h-3.5v-7.4c0-1.2-0.5-1.8-1.5-1.8c-0.5,0-0.9,0.2-1.2,0.5
				c-0.3,0.3-0.5,0.8-0.5,1.3v7.4h-3.5v-7.4c0-0.7-0.1-1.1-0.4-1.4c-0.3-0.3-0.6-0.4-1.2-0.4c-0.3,0-0.6,0.1-0.9,0.2
				c-0.3,0.1-0.5,0.3-0.8,0.6v8.4H176.4z"/>
			<path fill="#FFFFFF" d="M199.7,215.4c0,0.3-0.1,0.5-0.2,0.8s-0.3,0.5-0.5,0.6c-0.2,0.2-0.4,0.3-0.7,0.4c-0.3,0.1-0.5,0.2-0.8,0.2
				c-0.3,0-0.5-0.1-0.8-0.2s-0.5-0.3-0.7-0.4c-0.2-0.2-0.3-0.4-0.4-0.6s-0.2-0.5-0.2-0.8c0-0.3,0.1-0.6,0.2-0.8s0.3-0.5,0.4-0.7
				c0.2-0.2,0.4-0.3,0.7-0.4c0.2-0.1,0.5-0.2,0.8-0.2c0.3,0,0.6,0.1,0.8,0.2c0.3,0.1,0.5,0.3,0.7,0.4c0.2,0.2,0.3,0.4,0.5,0.7
				S199.7,215.1,199.7,215.4z M199.3,218.6v11.6h-3.5v-11.6H199.3z"/>
			<path fill="#FFFFFF" d="M202.1,230.2v-11.6h2.2c0.2,0,0.4,0,0.5,0.1c0.1,0.1,0.2,0.2,0.3,0.4l0.2,0.7c0.2-0.2,0.5-0.4,0.7-0.6
				c0.2-0.2,0.5-0.3,0.8-0.5c0.3-0.1,0.6-0.2,0.9-0.3c0.3-0.1,0.7-0.1,1-0.1c0.6,0,1.2,0.1,1.7,0.3c0.5,0.2,0.9,0.5,1.2,0.9
				c0.3,0.4,0.6,0.9,0.8,1.4c0.2,0.5,0.3,1.1,0.3,1.8v7.4h-3.5v-7.4c0-0.6-0.1-1-0.4-1.3c-0.3-0.3-0.6-0.5-1.2-0.5
				c-0.4,0-0.7,0.1-1.1,0.2s-0.7,0.4-1,0.7v8.3H202.1z"/>
			<path fill="#FFFFFF" d="M219.1,215.4c0,0.3-0.1,0.5-0.2,0.8s-0.3,0.5-0.5,0.6c-0.2,0.2-0.4,0.3-0.7,0.4c-0.3,0.1-0.5,0.2-0.8,0.2
				c-0.3,0-0.5-0.1-0.8-0.2s-0.5-0.3-0.7-0.4c-0.2-0.2-0.3-0.4-0.4-0.6s-0.2-0.5-0.2-0.8c0-0.3,0.1-0.6,0.2-0.8s0.3-0.5,0.4-0.7
				c0.2-0.2,0.4-0.3,0.7-0.4c0.2-0.1,0.5-0.2,0.8-0.2c0.3,0,0.6,0.1,0.8,0.2c0.3,0.1,0.5,0.3,0.7,0.4c0.2,0.2,0.3,0.4,0.5,0.7
				S219.1,215.1,219.1,215.4z M218.7,218.6v11.6h-3.5v-11.6H218.7z"/>
			<path fill="#FFFFFF" d="M221.5,230.2v-11.6h2.2c0.2,0,0.4,0,0.5,0.1c0.1,0.1,0.2,0.2,0.3,0.4l0.2,0.6c0.2-0.2,0.4-0.4,0.6-0.6
				c0.2-0.2,0.4-0.3,0.7-0.4c0.2-0.1,0.5-0.2,0.8-0.3c0.3-0.1,0.6-0.1,0.9-0.1c0.7,0,1.3,0.2,1.7,0.5c0.5,0.4,0.8,0.8,1.1,1.5
				c0.2-0.4,0.4-0.7,0.7-0.9c0.3-0.3,0.6-0.5,0.9-0.6c0.3-0.2,0.7-0.3,1-0.3s0.7-0.1,1.1-0.1c0.7,0,1.3,0.1,1.8,0.3s0.9,0.5,1.3,0.9
				c0.3,0.4,0.6,0.8,0.8,1.4c0.2,0.5,0.3,1.2,0.3,1.9v7.4h-3.5v-7.4c0-1.2-0.5-1.8-1.5-1.8c-0.5,0-0.9,0.2-1.2,0.5
				c-0.3,0.3-0.5,0.8-0.5,1.3v7.4h-3.5v-7.4c0-0.7-0.1-1.1-0.4-1.4c-0.3-0.3-0.6-0.4-1.2-0.4c-0.3,0-0.6,0.1-0.9,0.2
				c-0.3,0.1-0.5,0.3-0.8,0.6v8.4H221.5z"/>
			<path fill="#FFFFFF" d="M244.9,215.4c0,0.3-0.1,0.5-0.2,0.8s-0.3,0.5-0.5,0.6c-0.2,0.2-0.4,0.3-0.7,0.4c-0.3,0.1-0.5,0.2-0.8,0.2
				c-0.3,0-0.5-0.1-0.8-0.2s-0.5-0.3-0.7-0.4c-0.2-0.2-0.3-0.4-0.4-0.6s-0.2-0.5-0.2-0.8c0-0.3,0.1-0.6,0.2-0.8s0.3-0.5,0.4-0.7
				c0.2-0.2,0.4-0.3,0.7-0.4c0.2-0.1,0.5-0.2,0.8-0.2c0.3,0,0.6,0.1,0.8,0.2c0.3,0.1,0.5,0.3,0.7,0.4c0.2,0.2,0.3,0.4,0.5,0.7
				S244.9,215.1,244.9,215.4z M244.5,218.6v11.6H241v-11.6H244.5z"/>
			<path fill="#FFFFFF" d="M256,220c0,0.2,0,0.5-0.1,0.7s-0.2,0.4-0.3,0.6l-4.9,6.4h5.2v2.6h-9.2v-1.4c0-0.1,0-0.3,0.1-0.5
				c0.1-0.2,0.2-0.4,0.3-0.6l4.9-6.5h-5v-2.6h9V220z"/>
			<path fill="#FFFFFF" d="M263,218.4c0.8,0,1.5,0.1,2.1,0.4c0.6,0.2,1.2,0.6,1.7,1c0.5,0.5,0.8,1,1.1,1.7c0.3,0.7,0.4,1.4,0.4,2.3
				c0,0.3,0,0.5,0,0.6s-0.1,0.3-0.1,0.4c-0.1,0.1-0.1,0.2-0.2,0.2c-0.1,0-0.2,0.1-0.4,0.1h-6.7c0.1,1,0.4,1.7,0.9,2.1
				c0.5,0.4,1.1,0.7,1.9,0.7c0.4,0,0.8,0,1-0.1c0.3-0.1,0.6-0.2,0.8-0.3c0.2-0.1,0.4-0.2,0.6-0.3c0.2-0.1,0.4-0.1,0.6-0.1
				c0.3,0,0.5,0.1,0.6,0.3l1,1.2c-0.4,0.4-0.7,0.7-1.2,1c-0.4,0.3-0.8,0.5-1.3,0.6c-0.4,0.1-0.9,0.2-1.3,0.3
				c-0.4,0.1-0.9,0.1-1.3,0.1c-0.8,0-1.6-0.1-2.3-0.4c-0.7-0.3-1.3-0.7-1.9-1.2c-0.5-0.5-1-1.2-1.3-2c-0.3-0.8-0.5-1.7-0.5-2.7
				c0-0.8,0.1-1.5,0.4-2.2s0.6-1.3,1.1-1.8c0.5-0.5,1.1-0.9,1.8-1.2C261.3,218.5,262.1,218.4,263,218.4z M263,220.8
				c-0.7,0-1.2,0.2-1.6,0.6s-0.6,0.9-0.7,1.6h4.3c0-0.3,0-0.5-0.1-0.8c-0.1-0.3-0.2-0.5-0.3-0.7s-0.4-0.4-0.6-0.5
				C263.7,220.9,263.4,220.8,263,220.8z"/>
			<path fill="#FFFFFF" d="M276.5,213.9v16.3h-1.1v-16.3H276.5z"/>
			<path fill="#FFFFFF" d="M284.7,218.9c0.8,0,1.5,0.1,2.2,0.4s1.2,0.7,1.6,1.2c0.4,0.5,0.8,1.1,1,1.8c0.2,0.7,0.3,1.5,0.3,2.4
				s-0.1,1.7-0.3,2.4c-0.2,0.7-0.6,1.3-1,1.8c-0.4,0.5-1,0.9-1.6,1.2c-0.6,0.3-1.3,0.4-2.2,0.4c-0.8,0-1.5-0.1-2.2-0.4
				c-0.6-0.3-1.2-0.7-1.6-1.2s-0.8-1.1-1-1.8s-0.3-1.5-0.3-2.4s0.1-1.7,0.3-2.4c0.2-0.7,0.6-1.3,1-1.8c0.4-0.5,1-0.9,1.6-1.2
				S283.9,218.9,284.7,218.9z M284.7,229.5c0.7,0,1.2-0.1,1.7-0.3s0.9-0.6,1.2-1s0.6-0.9,0.7-1.5c0.2-0.6,0.2-1.3,0.2-2
				c0-0.7-0.1-1.4-0.2-2s-0.4-1.1-0.7-1.6s-0.7-0.8-1.2-1c-0.5-0.2-1.1-0.3-1.7-0.3c-0.7,0-1.2,0.1-1.7,0.3c-0.5,0.2-0.9,0.6-1.2,1
				s-0.6,0.9-0.8,1.6c-0.2,0.6-0.3,1.3-0.3,2c0,0.7,0.1,1.4,0.3,2c0.2,0.6,0.4,1.1,0.8,1.5s0.7,0.8,1.2,1S284,229.5,284.7,229.5z"/>
			<path fill="#FFFFFF" d="M292.6,230.2V219h0.6c0.2,0,0.3,0.1,0.3,0.3l0.1,1.7c0.5-0.6,1.1-1.2,1.8-1.6c0.7-0.4,1.4-0.6,2.3-0.6
				c0.6,0,1.2,0.1,1.6,0.3c0.5,0.2,0.9,0.5,1.2,0.8c0.3,0.4,0.5,0.8,0.7,1.3s0.2,1.1,0.2,1.8v7.1h-1.1v-7.1c0-1-0.2-1.9-0.7-2.5
				c-0.5-0.6-1.2-0.9-2.2-0.9c-0.7,0-1.4,0.2-2,0.6s-1.2,0.9-1.7,1.6v8.4H292.6z"/>
			<path fill="#FFFFFF" d="M308.4,218.9c0.5,0,0.9,0.1,1.4,0.2c0.4,0.1,0.8,0.3,1.1,0.5h2.9v0.4c0,0.2-0.1,0.3-0.3,0.3l-1.7,0.1
				c0.2,0.3,0.4,0.6,0.5,1s0.2,0.7,0.2,1.1c0,0.5-0.1,1-0.3,1.5c-0.2,0.4-0.5,0.8-0.8,1.1c-0.3,0.3-0.8,0.6-1.3,0.7
				c-0.5,0.2-1,0.3-1.6,0.3c-0.6,0-1.2-0.1-1.8-0.3c-0.3,0.2-0.6,0.4-0.7,0.6c-0.2,0.2-0.3,0.5-0.3,0.7c0,0.3,0.1,0.6,0.3,0.7
				c0.2,0.2,0.5,0.3,0.9,0.4c0.4,0.1,0.8,0.1,1.3,0.2s1,0,1.4,0.1s1,0.1,1.4,0.1s0.9,0.2,1.3,0.4c0.4,0.2,0.7,0.4,0.9,0.7
				c0.2,0.3,0.3,0.7,0.3,1.2c0,0.5-0.1,0.9-0.3,1.3c-0.2,0.4-0.6,0.8-1,1.1c-0.4,0.3-1,0.6-1.6,0.8c-0.6,0.2-1.3,0.3-2.1,0.3
				c-0.8,0-1.5-0.1-2.1-0.2s-1.1-0.4-1.5-0.7c-0.4-0.3-0.7-0.6-0.9-0.9s-0.3-0.7-0.3-1.1c0-0.6,0.2-1.1,0.6-1.5
				c0.4-0.4,0.9-0.8,1.6-1c-0.4-0.1-0.7-0.3-0.9-0.5c-0.2-0.2-0.3-0.6-0.3-1c0-0.2,0-0.3,0.1-0.5c0.1-0.2,0.1-0.3,0.3-0.5
				c0.1-0.2,0.3-0.3,0.4-0.5c0.2-0.1,0.4-0.3,0.6-0.4c-0.5-0.3-0.9-0.7-1.2-1.2c-0.3-0.5-0.4-1.1-0.4-1.8c0-0.5,0.1-1,0.3-1.5
				c0.2-0.4,0.5-0.8,0.8-1.1c0.3-0.3,0.8-0.6,1.3-0.7C307.3,218.9,307.8,218.9,308.4,218.9z M312.6,231c0-0.4-0.1-0.6-0.3-0.8
				c-0.2-0.2-0.4-0.4-0.7-0.5c-0.3-0.1-0.7-0.2-1.1-0.3c-0.4,0-0.8-0.1-1.3-0.1c-0.4,0-0.9,0-1.3-0.1s-0.9-0.1-1.2-0.1
				c-0.3,0.1-0.5,0.2-0.8,0.4c-0.2,0.1-0.5,0.3-0.6,0.5c-0.2,0.2-0.3,0.4-0.4,0.6c-0.1,0.2-0.1,0.5-0.1,0.7c0,0.3,0.1,0.6,0.3,0.9
				c0.2,0.3,0.4,0.5,0.7,0.7c0.3,0.2,0.7,0.4,1.2,0.5c0.5,0.1,1,0.2,1.6,0.2c0.6,0,1.1-0.1,1.6-0.2c0.5-0.1,0.9-0.3,1.3-0.5
				c0.4-0.2,0.6-0.5,0.9-0.8C312.5,231.7,312.6,231.4,312.6,231z M308.4,225.3c0.5,0,0.9-0.1,1.3-0.2c0.4-0.1,0.7-0.3,0.9-0.6
				s0.4-0.5,0.6-0.9c0.1-0.3,0.2-0.7,0.2-1.1c0-0.4-0.1-0.8-0.2-1.2c-0.1-0.3-0.3-0.6-0.6-0.9c-0.3-0.2-0.6-0.4-0.9-0.6
				c-0.4-0.1-0.8-0.2-1.3-0.2s-0.9,0.1-1.3,0.2s-0.7,0.3-0.9,0.6c-0.3,0.2-0.5,0.5-0.6,0.9c-0.1,0.3-0.2,0.7-0.2,1.2
				c0,0.4,0.1,0.8,0.2,1.1c0.1,0.3,0.3,0.6,0.6,0.9c0.3,0.2,0.6,0.4,0.9,0.6S308,225.3,308.4,225.3z"/>
			<path fill="#FFFFFF" d="M328.3,230.2c-0.2,0-0.3-0.1-0.3-0.3l-0.1-1.8c-0.5,0.7-1.1,1.2-1.7,1.6c-0.7,0.4-1.4,0.6-2.2,0.6
				c-1.4,0-2.4-0.5-3.2-1.4s-1.2-2.4-1.2-4.3c0-0.8,0.1-1.6,0.3-2.3c0.2-0.7,0.5-1.3,0.9-1.8s0.9-0.9,1.5-1.2
				c0.6-0.3,1.3-0.4,2.1-0.4c0.8,0,1.4,0.1,2,0.4c0.6,0.3,1,0.7,1.4,1.2v-6.6h1.1v16.3H328.3z M324.2,229.5c0.7,0,1.4-0.2,2-0.6
				c0.6-0.4,1.1-0.9,1.6-1.6v-5.9c-0.4-0.6-0.9-1.1-1.4-1.3c-0.5-0.3-1.1-0.4-1.8-0.4c-0.7,0-1.2,0.1-1.7,0.4
				c-0.5,0.2-0.9,0.6-1.2,1c-0.3,0.4-0.6,1-0.8,1.6s-0.3,1.3-0.3,2c0,1.7,0.3,2.9,0.9,3.7C322.2,229.1,323.1,229.5,324.2,229.5z"/>
			<path fill="#FFFFFF" d="M334.5,215.2c0,0.1,0,0.3-0.1,0.4c-0.1,0.1-0.1,0.2-0.2,0.3s-0.2,0.2-0.3,0.2c-0.1,0.1-0.2,0.1-0.4,0.1
				s-0.3,0-0.4-0.1c-0.1-0.1-0.2-0.1-0.3-0.2s-0.2-0.2-0.2-0.3c-0.1-0.1-0.1-0.2-0.1-0.4s0-0.3,0.1-0.4c0.1-0.1,0.1-0.2,0.2-0.3
				s0.2-0.2,0.3-0.2c0.1-0.1,0.2-0.1,0.4-0.1s0.3,0,0.4,0.1c0.1,0.1,0.2,0.1,0.3,0.2s0.2,0.2,0.2,0.3
				C334.5,214.9,334.5,215.1,334.5,215.2z M334.1,219v11.2H333V219H334.1z"/>
			<path fill="#FFFFFF" d="M344.2,220.4c-0.1,0.1-0.1,0.2-0.2,0.2c-0.1,0-0.2,0-0.3-0.1s-0.3-0.2-0.5-0.3c-0.2-0.1-0.5-0.2-0.8-0.3
				c-0.3-0.1-0.7-0.1-1.1-0.1c-0.4,0-0.8,0.1-1.1,0.2c-0.3,0.1-0.6,0.3-0.9,0.5c-0.2,0.2-0.4,0.4-0.6,0.7c-0.1,0.3-0.2,0.5-0.2,0.8
				c0,0.4,0.1,0.6,0.3,0.9s0.4,0.4,0.7,0.6s0.6,0.3,1,0.4c0.4,0.1,0.8,0.2,1.1,0.4c0.4,0.1,0.8,0.3,1.1,0.4c0.4,0.1,0.7,0.3,1,0.5
				c0.3,0.2,0.5,0.5,0.7,0.8c0.2,0.3,0.3,0.7,0.3,1.1c0,0.5-0.1,0.9-0.3,1.4c-0.2,0.4-0.4,0.8-0.8,1.1c-0.3,0.3-0.7,0.6-1.2,0.7
				c-0.5,0.2-1,0.3-1.7,0.3c-0.8,0-1.5-0.1-2-0.4c-0.6-0.3-1.1-0.6-1.5-1l0.3-0.4c0-0.1,0.1-0.1,0.1-0.1c0,0,0.1,0,0.2,0
				c0.1,0,0.2,0.1,0.4,0.2c0.1,0.1,0.3,0.2,0.6,0.4c0.2,0.1,0.5,0.3,0.9,0.4c0.3,0.1,0.8,0.2,1.3,0.2c0.5,0,0.9-0.1,1.2-0.2
				s0.7-0.3,0.9-0.5c0.2-0.2,0.4-0.5,0.5-0.8c0.1-0.3,0.2-0.6,0.2-1c0-0.4-0.1-0.7-0.3-0.9c-0.2-0.2-0.4-0.5-0.7-0.6
				c-0.3-0.2-0.6-0.3-1-0.4c-0.4-0.1-0.8-0.2-1.1-0.4c-0.4-0.1-0.8-0.3-1.1-0.4c-0.4-0.1-0.7-0.3-1-0.5c-0.3-0.2-0.5-0.5-0.7-0.8
				c-0.2-0.3-0.3-0.7-0.3-1.2c0-0.4,0.1-0.8,0.3-1.1s0.4-0.7,0.7-1c0.3-0.3,0.7-0.5,1.2-0.7c0.5-0.2,1-0.2,1.5-0.2
				c0.7,0,1.3,0.1,1.8,0.3c0.5,0.2,1,0.5,1.5,0.9L344.2,220.4z"/>
			<path fill="#FFFFFF" d="M350.7,230.4c-0.8,0-1.3-0.2-1.8-0.6c-0.4-0.4-0.6-1.1-0.6-1.9v-7.6h-1.6c-0.1,0-0.2,0-0.2-0.1
				c-0.1,0-0.1-0.1-0.1-0.2v-0.4l1.9-0.1l0.3-4c0-0.1,0-0.1,0.1-0.2c0-0.1,0.1-0.1,0.2-0.1h0.5v4.3h3.5v0.8h-3.5v7.6
				c0,0.3,0,0.6,0.1,0.8c0.1,0.2,0.2,0.4,0.3,0.5c0.1,0.1,0.3,0.2,0.5,0.3c0.2,0.1,0.4,0.1,0.6,0.1c0.3,0,0.5,0,0.7-0.1
				c0.2-0.1,0.4-0.2,0.5-0.3c0.1-0.1,0.3-0.2,0.3-0.3c0.1-0.1,0.2-0.1,0.2-0.1c0.1,0,0.1,0,0.2,0.1l0.3,0.5
				c-0.3,0.3-0.6,0.6-1.1,0.8C351.6,230.3,351.2,230.4,350.7,230.4z"/>
			<path fill="#FFFFFF" d="M362.8,230.2c-0.2,0-0.4-0.1-0.4-0.3l-0.2-1.4c-0.3,0.3-0.6,0.6-0.9,0.8c-0.3,0.2-0.6,0.4-0.9,0.6
				c-0.3,0.2-0.7,0.3-1.1,0.4s-0.8,0.1-1.3,0.1c-0.4,0-0.8-0.1-1.1-0.2c-0.4-0.1-0.7-0.3-1-0.5c-0.3-0.2-0.5-0.5-0.7-0.9
				c-0.2-0.4-0.3-0.8-0.3-1.3c0-0.5,0.1-0.9,0.4-1.3c0.3-0.4,0.7-0.8,1.3-1.1c0.6-0.3,1.3-0.5,2.2-0.7s2-0.3,3.3-0.3v-1.2
				c0-1-0.2-1.8-0.7-2.4c-0.4-0.6-1.1-0.8-2-0.8c-0.5,0-1,0.1-1.4,0.2c-0.4,0.2-0.7,0.3-1,0.5c-0.3,0.2-0.5,0.3-0.6,0.5
				c-0.2,0.2-0.3,0.2-0.4,0.2c-0.1,0-0.3-0.1-0.3-0.2l-0.2-0.3c0.6-0.6,1.2-1,1.8-1.3c0.6-0.3,1.4-0.4,2.2-0.4
				c0.6,0,1.1,0.1,1.6,0.3c0.4,0.2,0.8,0.5,1.1,0.8c0.3,0.4,0.5,0.8,0.7,1.3c0.1,0.5,0.2,1.1,0.2,1.7v7.3H362.8z M358.3,229.6
				c0.4,0,0.8,0,1.2-0.1s0.7-0.2,1-0.4c0.3-0.2,0.6-0.4,0.9-0.6s0.5-0.5,0.8-0.8v-2.9c-1.1,0-2,0.1-2.7,0.2s-1.4,0.3-1.9,0.5
				s-0.9,0.5-1.1,0.8c-0.2,0.3-0.4,0.7-0.4,1.1c0,0.4,0.1,0.7,0.2,1c0.1,0.3,0.3,0.5,0.5,0.7s0.4,0.3,0.7,0.4S358,229.6,358.3,229.6
				z"/>
			<path fill="#FFFFFF" d="M366.6,230.2V219h0.6c0.2,0,0.3,0.1,0.3,0.3l0.1,1.7c0.5-0.6,1.1-1.2,1.8-1.6c0.7-0.4,1.4-0.6,2.3-0.6
				c0.6,0,1.2,0.1,1.6,0.3c0.5,0.2,0.9,0.5,1.2,0.8c0.3,0.4,0.5,0.8,0.7,1.3s0.2,1.1,0.2,1.8v7.1h-1.1v-7.1c0-1-0.2-1.9-0.7-2.5
				c-0.5-0.6-1.2-0.9-2.2-0.9c-0.7,0-1.4,0.2-2,0.6s-1.2,0.9-1.7,1.6v8.4H366.6z"/>
			<path fill="#FFFFFF" d="M386.1,220.5c0,0-0.1,0.1-0.1,0.1c0,0-0.1,0-0.1,0c-0.1,0-0.2-0.1-0.3-0.2c-0.1-0.1-0.3-0.2-0.5-0.3
				c-0.2-0.1-0.5-0.2-0.8-0.3c-0.3-0.1-0.7-0.2-1.2-0.2c-0.6,0-1.2,0.1-1.7,0.3c-0.5,0.2-0.9,0.6-1.3,1s-0.6,0.9-0.8,1.5
				s-0.3,1.3-0.3,2c0,0.8,0.1,1.5,0.3,2.1c0.2,0.6,0.4,1.1,0.8,1.5c0.3,0.4,0.7,0.7,1.2,0.9c0.5,0.2,1,0.3,1.6,0.3
				c0.5,0,1-0.1,1.4-0.2c0.4-0.1,0.7-0.3,0.9-0.4c0.2-0.1,0.4-0.3,0.6-0.4c0.1-0.1,0.2-0.2,0.3-0.2c0.1,0,0.2,0,0.2,0.1l0.3,0.4
				c-0.2,0.2-0.4,0.4-0.7,0.6s-0.6,0.4-0.9,0.5c-0.3,0.1-0.7,0.3-1.1,0.3c-0.4,0.1-0.8,0.1-1.2,0.1c-0.7,0-1.4-0.1-1.9-0.4
				c-0.6-0.3-1.1-0.6-1.5-1.1c-0.4-0.5-0.8-1.1-1-1.8c-0.2-0.7-0.4-1.5-0.4-2.4c0-0.9,0.1-1.6,0.3-2.3s0.6-1.3,1-1.8
				c0.4-0.5,1-0.9,1.6-1.2c0.6-0.3,1.3-0.4,2.2-0.4c0.7,0,1.4,0.1,1.9,0.3c0.6,0.2,1.1,0.5,1.5,0.9L386.1,220.5z"/>
			<path fill="#FFFFFF" d="M393.2,218.9c0.6,0,1.2,0.1,1.7,0.3c0.5,0.2,1,0.5,1.4,0.9c0.4,0.4,0.7,0.9,0.9,1.5
				c0.2,0.6,0.3,1.3,0.3,2.1c0,0.2,0,0.3-0.1,0.3c0,0.1-0.1,0.1-0.2,0.1h-8.1v0.2c0,0.8,0.1,1.6,0.3,2.2c0.2,0.6,0.5,1.2,0.8,1.6
				s0.8,0.8,1.3,1s1.1,0.3,1.7,0.3c0.6,0,1-0.1,1.5-0.2c0.4-0.1,0.8-0.3,1-0.4c0.3-0.2,0.5-0.3,0.7-0.4c0.2-0.1,0.3-0.2,0.4-0.2
				c0.1,0,0.2,0,0.2,0.1l0.3,0.4c-0.2,0.2-0.4,0.4-0.7,0.6s-0.6,0.4-1,0.5s-0.8,0.2-1.2,0.3c-0.4,0.1-0.8,0.1-1.3,0.1
				c-0.8,0-1.5-0.1-2.1-0.4c-0.6-0.3-1.2-0.7-1.6-1.2c-0.5-0.5-0.8-1.1-1-1.9s-0.4-1.6-0.4-2.5c0-0.8,0.1-1.5,0.3-2.2s0.6-1.3,1-1.8
				c0.4-0.5,1-0.9,1.6-1.2C391.7,219,392.4,218.9,393.2,218.9z M393.2,219.7c-0.6,0-1.1,0.1-1.5,0.3s-0.9,0.4-1.2,0.8
				c-0.3,0.3-0.6,0.7-0.8,1.2c-0.2,0.5-0.3,1-0.4,1.6h7.4c0-0.6-0.1-1.1-0.2-1.6c-0.2-0.5-0.4-0.9-0.7-1.2c-0.3-0.3-0.7-0.6-1.1-0.8
				S393.7,219.7,393.2,219.7z"/>
			<path fill="#FFFFFF" d="M154.6,247.4c-0.1,0.1-0.1,0.2-0.2,0.2c-0.1,0-0.2,0-0.3-0.1s-0.3-0.2-0.5-0.3c-0.2-0.1-0.5-0.2-0.8-0.3
				c-0.3-0.1-0.7-0.1-1.1-0.1c-0.4,0-0.8,0.1-1.1,0.2c-0.3,0.1-0.6,0.3-0.9,0.5c-0.2,0.2-0.4,0.4-0.6,0.7c-0.1,0.3-0.2,0.5-0.2,0.8
				c0,0.4,0.1,0.6,0.3,0.9s0.4,0.4,0.7,0.6s0.6,0.3,1,0.4c0.4,0.1,0.8,0.2,1.1,0.4c0.4,0.1,0.8,0.3,1.1,0.4c0.4,0.1,0.7,0.3,1,0.5
				c0.3,0.2,0.5,0.5,0.7,0.8c0.2,0.3,0.3,0.7,0.3,1.1c0,0.5-0.1,0.9-0.3,1.4c-0.2,0.4-0.4,0.8-0.8,1.1c-0.3,0.3-0.7,0.6-1.2,0.7
				c-0.5,0.2-1,0.3-1.7,0.3c-0.8,0-1.5-0.1-2-0.4c-0.6-0.3-1.1-0.6-1.5-1l0.3-0.4c0-0.1,0.1-0.1,0.1-0.1c0,0,0.1,0,0.2,0
				c0.1,0,0.2,0.1,0.4,0.2c0.1,0.1,0.3,0.2,0.6,0.4c0.2,0.1,0.5,0.3,0.9,0.4c0.3,0.1,0.8,0.2,1.3,0.2c0.5,0,0.9-0.1,1.2-0.2
				s0.7-0.3,0.9-0.5c0.2-0.2,0.4-0.5,0.5-0.8c0.1-0.3,0.2-0.6,0.2-1c0-0.4-0.1-0.7-0.3-0.9c-0.2-0.2-0.4-0.5-0.7-0.6
				c-0.3-0.2-0.6-0.3-1-0.4c-0.4-0.1-0.8-0.2-1.1-0.4c-0.4-0.1-0.8-0.3-1.1-0.4c-0.4-0.1-0.7-0.3-1-0.5c-0.3-0.2-0.5-0.5-0.7-0.8
				c-0.2-0.3-0.3-0.7-0.3-1.2c0-0.4,0.1-0.8,0.3-1.1s0.4-0.7,0.7-1c0.3-0.3,0.7-0.5,1.2-0.7c0.5-0.2,1-0.2,1.5-0.2
				c0.7,0,1.3,0.1,1.8,0.3c0.5,0.2,1,0.5,1.5,0.9L154.6,247.4z"/>
			<path fill="#FFFFFF" d="M158.1,257.2v-16.3h1.1v7.1c0.5-0.6,1.1-1.1,1.8-1.5c0.7-0.4,1.4-0.6,2.2-0.6c0.6,0,1.2,0.1,1.6,0.3
				c0.5,0.2,0.9,0.5,1.2,0.8c0.3,0.4,0.5,0.8,0.7,1.3s0.2,1.1,0.2,1.8v7.1h-1.1V250c0-1-0.2-1.9-0.7-2.5c-0.5-0.6-1.2-0.9-2.2-0.9
				c-0.7,0-1.4,0.2-2,0.6s-1.2,0.9-1.7,1.6v8.4H158.1z"/>
			<path fill="#FFFFFF" d="M172.1,242.1c0,0.1,0,0.3-0.1,0.4c-0.1,0.1-0.1,0.2-0.2,0.3s-0.2,0.2-0.3,0.2c-0.1,0.1-0.2,0.1-0.4,0.1
				s-0.3,0-0.4-0.1c-0.1-0.1-0.2-0.1-0.3-0.2s-0.2-0.2-0.2-0.3c-0.1-0.1-0.1-0.2-0.1-0.4s0-0.3,0.1-0.4c0.1-0.1,0.1-0.2,0.2-0.3
				s0.2-0.2,0.3-0.2c0.1-0.1,0.2-0.1,0.4-0.1s0.3,0,0.4,0.1c0.1,0.1,0.2,0.1,0.3,0.2s0.2,0.2,0.2,0.3
				C172,241.9,172.1,242,172.1,242.1z M171.6,246v11.2h-1.1V246H171.6z"/>
			<path fill="#FFFFFF" d="M175.6,261.1V246h0.6c0.1,0,0.2,0,0.2,0.1c0.1,0,0.1,0.1,0.1,0.2l0.1,1.7c0.5-0.7,1.1-1.2,1.7-1.6
				c0.7-0.4,1.4-0.6,2.2-0.6c1.4,0,2.4,0.5,3.2,1.4c0.8,1,1.1,2.4,1.1,4.3c0,0.8-0.1,1.6-0.3,2.3c-0.2,0.7-0.5,1.3-0.9,1.8
				s-0.9,0.9-1.5,1.2c-0.6,0.3-1.3,0.5-2.1,0.5c-0.8,0-1.4-0.1-2-0.4s-1-0.7-1.4-1.2v5.5H175.6z M180.2,246.7c-0.7,0-1.4,0.2-2,0.6
				s-1.1,0.9-1.6,1.6v5.9c0.4,0.6,0.9,1.1,1.4,1.4c0.5,0.3,1.1,0.4,1.8,0.4c0.7,0,1.2-0.1,1.7-0.4s0.9-0.6,1.2-1s0.6-1,0.8-1.6
				c0.2-0.6,0.3-1.3,0.3-2c0-1.7-0.3-2.9-0.9-3.7S181.4,246.7,180.2,246.7z"/>
			<path fill="#FFFFFF" d="M187.6,261.1V246h0.6c0.1,0,0.2,0,0.2,0.1c0.1,0,0.1,0.1,0.1,0.2l0.1,1.7c0.5-0.7,1.1-1.2,1.7-1.6
				c0.7-0.4,1.4-0.6,2.2-0.6c1.4,0,2.4,0.5,3.2,1.4c0.8,1,1.1,2.4,1.1,4.3c0,0.8-0.1,1.6-0.3,2.3c-0.2,0.7-0.5,1.3-0.9,1.8
				s-0.9,0.9-1.5,1.2c-0.6,0.3-1.3,0.5-2.1,0.5c-0.8,0-1.4-0.1-2-0.4s-1-0.7-1.4-1.2v5.5H187.6z M192.3,246.7c-0.7,0-1.4,0.2-2,0.6
				s-1.1,0.9-1.6,1.6v5.9c0.4,0.6,0.9,1.1,1.4,1.4c0.5,0.3,1.1,0.4,1.8,0.4c0.7,0,1.2-0.1,1.7-0.4s0.9-0.6,1.2-1s0.6-1,0.8-1.6
				c0.2-0.6,0.3-1.3,0.3-2c0-1.7-0.3-2.9-0.9-3.7S193.4,246.7,192.3,246.7z"/>
			<path fill="#FFFFFF" d="M201.4,242.1c0,0.1,0,0.3-0.1,0.4c-0.1,0.1-0.1,0.2-0.2,0.3s-0.2,0.2-0.3,0.2c-0.1,0.1-0.2,0.1-0.4,0.1
				s-0.3,0-0.4-0.1c-0.1-0.1-0.2-0.1-0.3-0.2s-0.2-0.2-0.2-0.3c-0.1-0.1-0.1-0.2-0.1-0.4s0-0.3,0.1-0.4c0.1-0.1,0.1-0.2,0.2-0.3
				s0.2-0.2,0.3-0.2c0.1-0.1,0.2-0.1,0.4-0.1s0.3,0,0.4,0.1c0.1,0.1,0.2,0.1,0.3,0.2s0.2,0.2,0.2,0.3
				C201.4,241.9,201.4,242,201.4,242.1z M201,246v11.2h-1.1V246H201z"/>
			<path fill="#FFFFFF" d="M204.9,257.2V246h0.6c0.2,0,0.3,0.1,0.3,0.3l0.1,1.7c0.5-0.6,1.1-1.2,1.8-1.6c0.7-0.4,1.4-0.6,2.3-0.6
				c0.6,0,1.2,0.1,1.6,0.3c0.5,0.2,0.9,0.5,1.2,0.8c0.3,0.4,0.5,0.8,0.7,1.3s0.2,1.1,0.2,1.8v7.1h-1.1V250c0-1-0.2-1.9-0.7-2.5
				c-0.5-0.6-1.2-0.9-2.2-0.9c-0.7,0-1.4,0.2-2,0.6s-1.2,0.9-1.7,1.6v8.4H204.9z"/>
			<path fill="#FFFFFF" d="M220.8,245.8c0.5,0,0.9,0.1,1.4,0.2c0.4,0.1,0.8,0.3,1.1,0.5h2.9v0.4c0,0.2-0.1,0.3-0.3,0.3l-1.7,0.1
				c0.2,0.3,0.4,0.6,0.5,1s0.2,0.7,0.2,1.1c0,0.5-0.1,1-0.3,1.5c-0.2,0.4-0.5,0.8-0.8,1.1c-0.3,0.3-0.8,0.6-1.3,0.7
				c-0.5,0.2-1,0.3-1.6,0.3c-0.6,0-1.2-0.1-1.8-0.3c-0.3,0.2-0.6,0.4-0.7,0.6c-0.2,0.2-0.3,0.5-0.3,0.7c0,0.3,0.1,0.6,0.3,0.7
				c0.2,0.2,0.5,0.3,0.9,0.4c0.4,0.1,0.8,0.1,1.3,0.2s1,0,1.4,0.1s1,0.1,1.4,0.1s0.9,0.2,1.3,0.4c0.4,0.2,0.7,0.4,0.9,0.7
				c0.2,0.3,0.3,0.7,0.3,1.2c0,0.5-0.1,0.9-0.3,1.3c-0.2,0.4-0.6,0.8-1,1.1c-0.4,0.3-1,0.6-1.6,0.8c-0.6,0.2-1.3,0.3-2.1,0.3
				c-0.8,0-1.5-0.1-2.1-0.2s-1.1-0.4-1.5-0.7c-0.4-0.3-0.7-0.6-0.9-0.9s-0.3-0.7-0.3-1.1c0-0.6,0.2-1.1,0.6-1.5
				c0.4-0.4,0.9-0.8,1.6-1c-0.4-0.1-0.7-0.3-0.9-0.5c-0.2-0.2-0.3-0.6-0.3-1c0-0.2,0-0.3,0.1-0.5c0.1-0.2,0.1-0.3,0.3-0.5
				c0.1-0.2,0.3-0.3,0.4-0.5c0.2-0.1,0.4-0.3,0.6-0.4c-0.5-0.3-0.9-0.7-1.2-1.2c-0.3-0.5-0.4-1.1-0.4-1.8c0-0.5,0.1-1,0.3-1.5
				c0.2-0.4,0.5-0.8,0.8-1.1c0.3-0.3,0.8-0.6,1.3-0.7C219.6,245.9,220.2,245.8,220.8,245.8z M224.9,257.9c0-0.4-0.1-0.6-0.3-0.8
				c-0.2-0.2-0.4-0.4-0.7-0.5c-0.3-0.1-0.7-0.2-1.1-0.3c-0.4,0-0.8-0.1-1.3-0.1c-0.4,0-0.9,0-1.3-0.1s-0.9-0.1-1.2-0.1
				c-0.3,0.1-0.5,0.2-0.8,0.4c-0.2,0.1-0.5,0.3-0.6,0.5c-0.2,0.2-0.3,0.4-0.4,0.6c-0.1,0.2-0.1,0.5-0.1,0.7c0,0.3,0.1,0.6,0.3,0.9
				c0.2,0.3,0.4,0.5,0.7,0.7c0.3,0.2,0.7,0.4,1.2,0.5c0.5,0.1,1,0.2,1.6,0.2c0.6,0,1.1-0.1,1.6-0.2c0.5-0.1,0.9-0.3,1.3-0.5
				c0.4-0.2,0.6-0.5,0.9-0.8C224.8,258.7,224.9,258.3,224.9,257.9z M220.8,252.2c0.5,0,0.9-0.1,1.3-0.2c0.4-0.1,0.7-0.3,0.9-0.6
				s0.4-0.5,0.6-0.9c0.1-0.3,0.2-0.7,0.2-1.1c0-0.4-0.1-0.8-0.2-1.2c-0.1-0.3-0.3-0.6-0.6-0.9c-0.3-0.2-0.6-0.4-0.9-0.6
				c-0.4-0.1-0.8-0.2-1.3-0.2s-0.9,0.1-1.3,0.2s-0.7,0.3-0.9,0.6c-0.3,0.2-0.5,0.5-0.6,0.9c-0.1,0.3-0.2,0.7-0.2,1.2
				c0,0.4,0.1,0.8,0.2,1.1c0.1,0.3,0.3,0.6,0.6,0.9c0.3,0.2,0.6,0.4,0.9,0.6S220.3,252.2,220.8,252.2z"/>
			<path fill="#FFFFFF" d="M237,245.8c0.8,0,1.5,0.1,2.2,0.4s1.2,0.7,1.6,1.2c0.4,0.5,0.8,1.1,1,1.8c0.2,0.7,0.3,1.5,0.3,2.4
				s-0.1,1.7-0.3,2.4c-0.2,0.7-0.6,1.3-1,1.8c-0.4,0.5-1,0.9-1.6,1.2c-0.6,0.3-1.3,0.4-2.2,0.4c-0.8,0-1.5-0.1-2.2-0.4
				c-0.6-0.3-1.2-0.7-1.6-1.2s-0.8-1.1-1-1.8s-0.3-1.5-0.3-2.4s0.1-1.7,0.3-2.4c0.2-0.7,0.6-1.3,1-1.8c0.4-0.5,1-0.9,1.6-1.2
				S236.2,245.8,237,245.8z M237,256.5c0.7,0,1.2-0.1,1.7-0.3s0.9-0.6,1.2-1s0.6-0.9,0.7-1.5c0.2-0.6,0.2-1.3,0.2-2
				c0-0.7-0.1-1.4-0.2-2s-0.4-1.1-0.7-1.6s-0.7-0.8-1.2-1c-0.5-0.2-1.1-0.3-1.7-0.3c-0.7,0-1.2,0.1-1.7,0.3c-0.5,0.2-0.9,0.6-1.2,1
				s-0.6,0.9-0.8,1.6c-0.2,0.6-0.3,1.3-0.3,2c0,0.7,0.1,1.4,0.3,2c0.2,0.6,0.4,1.1,0.8,1.5s0.7,0.8,1.2,1S236.3,256.5,237,256.5z"/>
			<path fill="#FFFFFF" d="M245.3,257.2v-10l-1.6-0.1c-0.2,0-0.3-0.1-0.3-0.3v-0.4h1.9v-1.4c0-0.6,0.1-1.2,0.2-1.7
				c0.2-0.5,0.4-0.9,0.7-1.2c0.3-0.3,0.7-0.6,1.1-0.7c0.4-0.2,0.9-0.2,1.4-0.2c0.2,0,0.5,0,0.7,0.1c0.2,0,0.4,0.1,0.6,0.2l0,0.5
				c0,0.1-0.1,0.2-0.2,0.2c-0.1,0-0.2,0-0.4,0s-0.3,0-0.6,0c-0.4,0-0.7,0.1-1,0.2s-0.6,0.3-0.8,0.5c-0.2,0.2-0.4,0.6-0.5,0.9
				c-0.1,0.4-0.2,0.9-0.2,1.4v1.4h3.6v0.8h-3.6v10H245.3z"/>
			<path fill="#FFFFFF" d="M257.2,257.2v-11.6h2.2c0.2,0,0.4,0,0.5,0.1c0.1,0.1,0.2,0.2,0.3,0.4l0.2,0.6c0.2-0.2,0.4-0.4,0.6-0.6
				c0.2-0.2,0.4-0.3,0.7-0.4c0.2-0.1,0.5-0.2,0.8-0.3c0.3-0.1,0.6-0.1,0.9-0.1c0.7,0,1.3,0.2,1.7,0.5c0.5,0.4,0.8,0.8,1.1,1.5
				c0.2-0.4,0.4-0.7,0.7-0.9c0.3-0.3,0.6-0.5,0.9-0.6c0.3-0.2,0.7-0.3,1-0.3s0.7-0.1,1.1-0.1c0.7,0,1.3,0.1,1.8,0.3s0.9,0.5,1.3,0.9
				c0.3,0.4,0.6,0.8,0.8,1.4c0.2,0.5,0.3,1.2,0.3,1.9v7.4h-3.5v-7.4c0-1.2-0.5-1.8-1.5-1.8c-0.5,0-0.9,0.2-1.2,0.5
				c-0.3,0.3-0.5,0.8-0.5,1.3v7.4h-3.5v-7.4c0-0.7-0.1-1.1-0.4-1.4c-0.3-0.3-0.6-0.4-1.2-0.4c-0.3,0-0.6,0.1-0.9,0.2
				c-0.3,0.1-0.5,0.3-0.8,0.6v8.4H257.2z"/>
			<path fill="#FFFFFF" d="M284.6,257.2c-0.3,0-0.6,0-0.7-0.1c-0.2-0.1-0.3-0.3-0.4-0.6l-0.2-0.6c-0.3,0.2-0.6,0.5-0.8,0.7
				c-0.3,0.2-0.5,0.3-0.8,0.5c-0.3,0.1-0.6,0.2-0.9,0.3c-0.3,0.1-0.7,0.1-1.1,0.1c-0.5,0-1-0.1-1.4-0.2c-0.4-0.1-0.8-0.3-1.1-0.6
				s-0.5-0.6-0.7-1c-0.2-0.4-0.2-0.9-0.2-1.4c0-0.4,0.1-0.8,0.3-1.3s0.6-0.8,1.1-1.2c0.5-0.4,1.2-0.7,2.1-0.9c0.9-0.2,2-0.4,3.3-0.4
				v-0.5c0-0.7-0.1-1.2-0.4-1.5c-0.3-0.3-0.7-0.5-1.2-0.5c-0.4,0-0.7,0-1,0.1c-0.3,0.1-0.5,0.2-0.7,0.3s-0.4,0.2-0.6,0.3
				c-0.2,0.1-0.4,0.1-0.7,0.1c-0.2,0-0.4-0.1-0.6-0.2c-0.2-0.1-0.3-0.3-0.4-0.4l-0.6-1.1c0.7-0.6,1.5-1.1,2.3-1.4
				c0.9-0.3,1.8-0.5,2.8-0.5c0.7,0,1.3,0.1,1.9,0.3s1,0.5,1.4,1c0.4,0.4,0.7,0.9,0.9,1.5c0.2,0.6,0.3,1.2,0.3,1.8v7.3H284.6z
				 M280.6,255.1c0.4,0,0.8-0.1,1.2-0.2s0.7-0.4,1-0.8v-1.6c-0.7,0-1.3,0-1.7,0.1c-0.4,0.1-0.8,0.2-1.1,0.3
				c-0.3,0.1-0.4,0.3-0.5,0.5c-0.1,0.2-0.2,0.4-0.2,0.6c0,0.4,0.1,0.7,0.3,0.8S280.2,255.1,280.6,255.1z"/>
			<path fill="#FFFFFF" d="M292.7,257.4c-0.6,0-1-0.1-1.5-0.2c-0.4-0.2-0.8-0.4-1.1-0.7s-0.5-0.7-0.7-1.1c-0.1-0.4-0.2-0.9-0.2-1.4
				v-6h-1c-0.2,0-0.3-0.1-0.5-0.2c-0.1-0.1-0.2-0.3-0.2-0.5v-1.4l1.9-0.4l0.7-2.8c0.1-0.4,0.3-0.5,0.8-0.5h1.8v3.4h2.8v2.4h-2.8v5.8
				c0,0.3,0.1,0.5,0.2,0.7s0.3,0.3,0.6,0.3c0.1,0,0.2,0,0.3,0c0.1,0,0.2-0.1,0.2-0.1c0.1,0,0.1-0.1,0.2-0.1c0.1,0,0.1,0,0.2,0
				c0.1,0,0.2,0,0.3,0.1c0.1,0,0.1,0.1,0.2,0.2l1.1,1.7c-0.4,0.3-1,0.6-1.5,0.8C293.9,257.3,293.3,257.4,292.7,257.4z"/>
			<path fill="#FFFFFF" d="M302.6,245.3c0.8,0,1.5,0.1,2.1,0.4c0.6,0.2,1.2,0.6,1.7,1c0.5,0.5,0.8,1,1.1,1.7
				c0.3,0.7,0.4,1.4,0.4,2.3c0,0.3,0,0.5,0,0.6s-0.1,0.3-0.1,0.4c-0.1,0.1-0.1,0.2-0.2,0.2c-0.1,0-0.2,0.1-0.4,0.1h-6.7
				c0.1,1,0.4,1.7,0.9,2.1c0.5,0.4,1.1,0.7,1.9,0.7c0.4,0,0.8,0,1-0.1c0.3-0.1,0.6-0.2,0.8-0.3c0.2-0.1,0.4-0.2,0.6-0.3
				c0.2-0.1,0.4-0.1,0.6-0.1c0.3,0,0.5,0.1,0.6,0.3l1,1.2c-0.4,0.4-0.7,0.7-1.2,1c-0.4,0.3-0.8,0.5-1.3,0.6
				c-0.4,0.1-0.9,0.2-1.3,0.3c-0.4,0.1-0.9,0.1-1.3,0.1c-0.8,0-1.6-0.1-2.3-0.4c-0.7-0.3-1.3-0.7-1.9-1.2c-0.5-0.5-1-1.2-1.3-2
				c-0.3-0.8-0.5-1.7-0.5-2.7c0-0.8,0.1-1.5,0.4-2.2s0.6-1.3,1.1-1.8c0.5-0.5,1.1-0.9,1.8-1.2C300.9,245.5,301.7,245.3,302.6,245.3z
				 M302.7,247.8c-0.7,0-1.2,0.2-1.6,0.6s-0.6,0.9-0.7,1.6h4.3c0-0.3,0-0.5-0.1-0.8c-0.1-0.3-0.2-0.5-0.3-0.7s-0.4-0.4-0.6-0.5
				C303.4,247.8,303.1,247.8,302.7,247.8z"/>
			<path fill="#FFFFFF" d="M309.9,257.2v-11.6h2.1c0.2,0,0.3,0,0.4,0c0.1,0,0.2,0.1,0.3,0.1c0.1,0.1,0.1,0.1,0.2,0.3
				c0,0.1,0.1,0.2,0.1,0.4l0.2,1.1c0.4-0.7,0.9-1.2,1.4-1.6c0.5-0.4,1.1-0.6,1.7-0.6c0.5,0,1,0.1,1.3,0.4l-0.4,2.6
				c0,0.2-0.1,0.3-0.2,0.3s-0.2,0.1-0.4,0.1c-0.1,0-0.3,0-0.4,0c-0.2,0-0.4-0.1-0.7-0.1c-0.9,0-1.6,0.5-2.2,1.5v7.1H309.9z"/>
			<path fill="#FFFFFF" d="M323.1,242.3c0,0.3-0.1,0.5-0.2,0.8s-0.3,0.5-0.5,0.6c-0.2,0.2-0.4,0.3-0.7,0.4c-0.3,0.1-0.5,0.2-0.8,0.2
				c-0.3,0-0.5-0.1-0.8-0.2s-0.5-0.3-0.7-0.4c-0.2-0.2-0.3-0.4-0.4-0.6s-0.2-0.5-0.2-0.8c0-0.3,0.1-0.6,0.2-0.8s0.3-0.5,0.4-0.7
				c0.2-0.2,0.4-0.3,0.7-0.4c0.2-0.1,0.5-0.2,0.8-0.2c0.3,0,0.6,0.1,0.8,0.2c0.3,0.1,0.5,0.3,0.7,0.4c0.2,0.2,0.3,0.4,0.5,0.7
				S323.1,242.1,323.1,242.3z M322.7,245.5v11.6h-3.5v-11.6H322.7z"/>
			<path fill="#FFFFFF" d="M333.6,257.2c-0.3,0-0.6,0-0.7-0.1c-0.2-0.1-0.3-0.3-0.4-0.6l-0.2-0.6c-0.3,0.2-0.6,0.5-0.8,0.7
				c-0.3,0.2-0.5,0.3-0.8,0.5c-0.3,0.1-0.6,0.2-0.9,0.3c-0.3,0.1-0.7,0.1-1.1,0.1c-0.5,0-1-0.1-1.4-0.2c-0.4-0.1-0.8-0.3-1.1-0.6
				s-0.5-0.6-0.7-1c-0.2-0.4-0.2-0.9-0.2-1.4c0-0.4,0.1-0.8,0.3-1.3s0.6-0.8,1.1-1.2c0.5-0.4,1.2-0.7,2.1-0.9c0.9-0.2,2-0.4,3.3-0.4
				v-0.5c0-0.7-0.1-1.2-0.4-1.5c-0.3-0.3-0.7-0.5-1.2-0.5c-0.4,0-0.7,0-1,0.1c-0.3,0.1-0.5,0.2-0.7,0.3s-0.4,0.2-0.6,0.3
				c-0.2,0.1-0.4,0.1-0.7,0.1c-0.2,0-0.4-0.1-0.6-0.2c-0.2-0.1-0.3-0.3-0.4-0.4l-0.6-1.1c0.7-0.6,1.5-1.1,2.3-1.4
				c0.9-0.3,1.8-0.5,2.8-0.5c0.7,0,1.3,0.1,1.9,0.3s1,0.5,1.4,1c0.4,0.4,0.7,0.9,0.9,1.5c0.2,0.6,0.3,1.2,0.3,1.8v7.3H333.6z
				 M329.6,255.1c0.4,0,0.8-0.1,1.2-0.2s0.7-0.4,1-0.8v-1.6c-0.7,0-1.3,0-1.7,0.1c-0.4,0.1-0.8,0.2-1.1,0.3
				c-0.3,0.1-0.4,0.3-0.5,0.5c-0.1,0.2-0.2,0.4-0.2,0.6c0,0.4,0.1,0.7,0.3,0.8S329.2,255.1,329.6,255.1z"/>
			<path fill="#FFFFFF" d="M341.2,240.4v16.8h-3.5v-16.8H341.2z"/>
			<path fill="#FFFFFF" d="M351.2,248.1c-0.1,0.1-0.2,0.2-0.3,0.3c-0.1,0.1-0.2,0.1-0.4,0.1c-0.2,0-0.3,0-0.5-0.1
				c-0.2-0.1-0.3-0.1-0.5-0.2c-0.2-0.1-0.4-0.2-0.6-0.2c-0.2-0.1-0.5-0.1-0.8-0.1c-0.4,0-0.8,0.1-1,0.3c-0.2,0.2-0.4,0.4-0.4,0.7
				c0,0.2,0.1,0.4,0.2,0.5s0.4,0.3,0.6,0.4c0.3,0.1,0.5,0.2,0.9,0.3c0.3,0.1,0.7,0.2,1,0.3c0.3,0.1,0.7,0.3,1,0.4
				c0.3,0.2,0.6,0.4,0.9,0.6c0.3,0.2,0.5,0.5,0.6,0.9s0.2,0.7,0.2,1.2c0,0.6-0.1,1.1-0.3,1.6c-0.2,0.5-0.5,0.9-0.9,1.3
				c-0.4,0.4-0.9,0.6-1.5,0.8s-1.3,0.3-2.1,0.3c-0.4,0-0.8,0-1.2-0.1c-0.4-0.1-0.8-0.2-1.2-0.3c-0.4-0.1-0.7-0.3-1-0.5
				s-0.6-0.4-0.8-0.6l0.8-1.3c0.1-0.2,0.2-0.3,0.3-0.4c0.1-0.1,0.3-0.1,0.5-0.1c0.2,0,0.4,0,0.5,0.1s0.3,0.2,0.5,0.3
				c0.2,0.1,0.4,0.2,0.7,0.3s0.6,0.1,0.9,0.1c0.3,0,0.5,0,0.7-0.1c0.2-0.1,0.3-0.1,0.4-0.2c0.1-0.1,0.2-0.2,0.2-0.3
				c0.1-0.1,0.1-0.2,0.1-0.4c0-0.2-0.1-0.4-0.2-0.6c-0.2-0.2-0.4-0.3-0.6-0.4c-0.3-0.1-0.5-0.2-0.9-0.3c-0.3-0.1-0.7-0.2-1-0.3
				c-0.3-0.1-0.7-0.3-1-0.4c-0.3-0.2-0.6-0.4-0.9-0.6s-0.5-0.6-0.6-0.9c-0.2-0.4-0.2-0.8-0.2-1.4c0-0.5,0.1-1,0.3-1.4
				c0.2-0.4,0.5-0.8,0.9-1.2s0.9-0.6,1.4-0.8c0.6-0.2,1.3-0.3,2-0.3c0.4,0,0.8,0,1.2,0.1c0.4,0.1,0.8,0.2,1.1,0.3
				c0.3,0.1,0.7,0.3,0.9,0.5c0.3,0.2,0.5,0.4,0.8,0.6L351.2,248.1z"/>
			<path fill="#FFFFFF" d="M366.3,257.2c-0.3,0-0.6,0-0.7-0.1c-0.2-0.1-0.3-0.3-0.4-0.6l-0.2-0.6c-0.3,0.2-0.6,0.5-0.8,0.7
				c-0.3,0.2-0.5,0.3-0.8,0.5c-0.3,0.1-0.6,0.2-0.9,0.3c-0.3,0.1-0.7,0.1-1.1,0.1c-0.5,0-1-0.1-1.4-0.2c-0.4-0.1-0.8-0.3-1.1-0.6
				s-0.5-0.6-0.7-1c-0.2-0.4-0.2-0.9-0.2-1.4c0-0.4,0.1-0.8,0.3-1.3s0.6-0.8,1.1-1.2c0.5-0.4,1.2-0.7,2.1-0.9c0.9-0.2,2-0.4,3.3-0.4
				v-0.5c0-0.7-0.1-1.2-0.4-1.5c-0.3-0.3-0.7-0.5-1.2-0.5c-0.4,0-0.7,0-1,0.1c-0.3,0.1-0.5,0.2-0.7,0.3s-0.4,0.2-0.6,0.3
				c-0.2,0.1-0.4,0.1-0.7,0.1c-0.2,0-0.4-0.1-0.6-0.2c-0.2-0.1-0.3-0.3-0.4-0.4l-0.6-1.1c0.7-0.6,1.5-1.1,2.3-1.4
				c0.9-0.3,1.8-0.5,2.8-0.5c0.7,0,1.3,0.1,1.9,0.3s1,0.5,1.4,1c0.4,0.4,0.7,0.9,0.9,1.5c0.2,0.6,0.3,1.2,0.3,1.8v7.3H366.3z
				 M362.3,255.1c0.4,0,0.8-0.1,1.2-0.2s0.7-0.4,1-0.8v-1.6c-0.7,0-1.3,0-1.7,0.1c-0.4,0.1-0.8,0.2-1.1,0.3
				c-0.3,0.1-0.4,0.3-0.5,0.5c-0.1,0.2-0.2,0.4-0.2,0.6c0,0.4,0.1,0.7,0.3,0.8S361.9,255.1,362.3,255.1z"/>
			<path fill="#FFFFFF" d="M370.4,257.2v-11.6h2.2c0.2,0,0.4,0,0.5,0.1c0.1,0.1,0.2,0.2,0.3,0.4l0.2,0.7c0.2-0.2,0.5-0.4,0.7-0.6
				c0.2-0.2,0.5-0.3,0.8-0.5c0.3-0.1,0.6-0.2,0.9-0.3c0.3-0.1,0.7-0.1,1-0.1c0.6,0,1.2,0.1,1.7,0.3c0.5,0.2,0.9,0.5,1.2,0.9
				c0.3,0.4,0.6,0.9,0.8,1.4c0.2,0.5,0.3,1.1,0.3,1.8v7.4h-3.5v-7.4c0-0.6-0.1-1-0.4-1.3c-0.3-0.3-0.6-0.5-1.2-0.5
				c-0.4,0-0.7,0.1-1.1,0.2s-0.7,0.4-1,0.7v8.3H370.4z"/>
			<path fill="#FFFFFF" d="M391.6,257.2c-0.2,0-0.4,0-0.5-0.1c-0.1-0.1-0.2-0.2-0.3-0.4l-0.3-0.9c-0.2,0.2-0.5,0.5-0.7,0.7
				c-0.3,0.2-0.5,0.4-0.8,0.5c-0.3,0.1-0.6,0.3-1,0.3c-0.3,0.1-0.7,0.1-1.1,0.1c-0.6,0-1.2-0.1-1.7-0.4s-1-0.7-1.3-1.2
				c-0.4-0.5-0.7-1.1-0.9-1.9c-0.2-0.7-0.3-1.6-0.3-2.5c0-0.9,0.1-1.7,0.4-2.4s0.6-1.4,1-1.9s1-1,1.6-1.3c0.6-0.3,1.3-0.5,2-0.5
				c0.6,0,1.1,0.1,1.5,0.3c0.4,0.2,0.8,0.4,1.1,0.7v-5.9h3.5v16.8H391.6z M388.1,254.7c0.3,0,0.5,0,0.7-0.1s0.4-0.1,0.6-0.2
				c0.2-0.1,0.3-0.2,0.5-0.3s0.3-0.3,0.5-0.5v-4.9c-0.3-0.3-0.6-0.5-0.9-0.6c-0.3-0.1-0.6-0.2-1-0.2c-0.3,0-0.6,0.1-0.9,0.2
				s-0.5,0.3-0.7,0.6c-0.2,0.3-0.4,0.6-0.5,1.1s-0.2,1-0.2,1.6c0,0.6,0,1.1,0.1,1.5s0.2,0.8,0.4,1c0.2,0.3,0.4,0.4,0.6,0.6
				S387.8,254.7,388.1,254.7z"/>
			<path fill="#FFFFFF" d="M407.9,248.1c-0.1,0.1-0.2,0.2-0.3,0.3c-0.1,0.1-0.2,0.1-0.4,0.1c-0.2,0-0.3,0-0.5-0.1
				c-0.2-0.1-0.3-0.1-0.5-0.2c-0.2-0.1-0.4-0.2-0.6-0.2c-0.2-0.1-0.5-0.1-0.8-0.1c-0.4,0-0.8,0.1-1,0.3c-0.2,0.2-0.4,0.4-0.4,0.7
				c0,0.2,0.1,0.4,0.2,0.5s0.4,0.3,0.6,0.4c0.3,0.1,0.5,0.2,0.9,0.3c0.3,0.1,0.7,0.2,1,0.3c0.3,0.1,0.7,0.3,1,0.4
				c0.3,0.2,0.6,0.4,0.9,0.6c0.3,0.2,0.5,0.5,0.6,0.9s0.2,0.7,0.2,1.2c0,0.6-0.1,1.1-0.3,1.6c-0.2,0.5-0.5,0.9-0.9,1.3
				c-0.4,0.4-0.9,0.6-1.5,0.8s-1.3,0.3-2.1,0.3c-0.4,0-0.8,0-1.2-0.1c-0.4-0.1-0.8-0.2-1.2-0.3c-0.4-0.1-0.7-0.3-1-0.5
				s-0.6-0.4-0.8-0.6l0.8-1.3c0.1-0.2,0.2-0.3,0.3-0.4c0.1-0.1,0.3-0.1,0.5-0.1c0.2,0,0.4,0,0.5,0.1s0.3,0.2,0.5,0.3
				c0.2,0.1,0.4,0.2,0.7,0.3s0.6,0.1,0.9,0.1c0.3,0,0.5,0,0.7-0.1c0.2-0.1,0.3-0.1,0.4-0.2c0.1-0.1,0.2-0.2,0.2-0.3
				c0.1-0.1,0.1-0.2,0.1-0.4c0-0.2-0.1-0.4-0.2-0.6c-0.2-0.2-0.4-0.3-0.6-0.4c-0.3-0.1-0.5-0.2-0.9-0.3c-0.3-0.1-0.7-0.2-1-0.3
				c-0.3-0.1-0.7-0.3-1-0.4c-0.3-0.2-0.6-0.4-0.9-0.6s-0.5-0.6-0.6-0.9c-0.2-0.4-0.2-0.8-0.2-1.4c0-0.5,0.1-1,0.3-1.4
				c0.2-0.4,0.5-0.8,0.9-1.2s0.9-0.6,1.4-0.8c0.6-0.2,1.3-0.3,2-0.3c0.4,0,0.8,0,1.2,0.1c0.4,0.1,0.8,0.2,1.1,0.3
				c0.3,0.1,0.7,0.3,0.9,0.5c0.3,0.2,0.5,0.4,0.8,0.6L407.9,248.1z"/>
			<path fill="#FFFFFF" d="M414.7,257.4c-0.6,0-1-0.1-1.5-0.2c-0.4-0.2-0.8-0.4-1.1-0.7s-0.5-0.7-0.7-1.1c-0.1-0.4-0.2-0.9-0.2-1.4
				v-6h-1c-0.2,0-0.3-0.1-0.5-0.2c-0.1-0.1-0.2-0.3-0.2-0.5v-1.4l1.9-0.4l0.7-2.8c0.1-0.4,0.3-0.5,0.8-0.5h1.8v3.4h2.8v2.4h-2.8v5.8
				c0,0.3,0.1,0.5,0.2,0.7s0.3,0.3,0.6,0.3c0.1,0,0.2,0,0.3,0c0.1,0,0.2-0.1,0.2-0.1c0.1,0,0.1-0.1,0.2-0.1c0.1,0,0.1,0,0.2,0
				c0.1,0,0.2,0,0.3,0.1c0.1,0,0.1,0.1,0.2,0.2l1.1,1.7c-0.4,0.3-1,0.6-1.5,0.8C415.9,257.3,415.3,257.4,414.7,257.4z"/>
			<path fill="#FFFFFF" d="M422.9,245.5v7.4c0,0.6,0.1,1,0.4,1.3s0.6,0.5,1.2,0.5c0.4,0,0.7-0.1,1.1-0.2s0.7-0.4,1-0.7v-8.3h3.5
				v11.6h-2.2c-0.4,0-0.7-0.2-0.9-0.6l-0.2-0.7c-0.2,0.2-0.5,0.4-0.7,0.6c-0.2,0.2-0.5,0.3-0.8,0.4c-0.3,0.1-0.6,0.2-0.9,0.3
				s-0.7,0.1-1,0.1c-0.6,0-1.2-0.1-1.7-0.3c-0.5-0.2-0.9-0.5-1.2-0.9s-0.6-0.9-0.8-1.4c-0.2-0.5-0.3-1.1-0.3-1.8v-7.4H422.9z"/>
			<path fill="#FFFFFF" d="M433.2,257.2v-9.3l-0.8-0.2c-0.3-0.1-0.5-0.2-0.6-0.3c-0.2-0.1-0.2-0.3-0.2-0.6v-1.4h1.6v-0.7
				c0-0.7,0.1-1.3,0.3-1.8s0.5-1,0.9-1.4s0.9-0.7,1.5-0.9c0.6-0.2,1.2-0.3,2-0.3c0.3,0,0.5,0,0.8,0.1c0.2,0,0.5,0.1,0.8,0.2
				l-0.1,1.7c0,0.1,0,0.2-0.1,0.3c-0.1,0.1-0.1,0.1-0.2,0.2c-0.1,0-0.2,0.1-0.3,0.1c-0.1,0-0.2,0-0.3,0c-0.3,0-0.6,0-0.8,0.1
				c-0.2,0.1-0.4,0.2-0.6,0.3c-0.2,0.2-0.3,0.4-0.4,0.6s-0.1,0.6-0.1,0.9v0.6h2.7v2.4h-2.6v9.2H433.2z"/>
			<path fill="#FFFFFF" d="M441.3,257.2v-9.3l-0.8-0.2c-0.3-0.1-0.5-0.2-0.6-0.3c-0.2-0.1-0.2-0.3-0.2-0.6v-1.4h1.6v-0.7
				c0-0.7,0.1-1.3,0.3-1.8s0.5-1,0.9-1.4s0.9-0.7,1.5-0.9c0.6-0.2,1.2-0.3,2-0.3c0.3,0,0.5,0,0.8,0.1c0.2,0,0.5,0.1,0.8,0.2
				l-0.1,1.7c0,0.1,0,0.2-0.1,0.3c-0.1,0.1-0.1,0.1-0.2,0.2c-0.1,0-0.2,0.1-0.3,0.1c-0.1,0-0.2,0-0.3,0c-0.3,0-0.6,0-0.8,0.1
				c-0.2,0.1-0.4,0.2-0.6,0.3c-0.2,0.2-0.3,0.4-0.4,0.6s-0.1,0.6-0.1,0.9v0.6h2.7v2.4h-2.6v9.2H441.3z"/>
		</g>
	</g>
	<line fill="#FFFFFF" x1="125.7" y1="210.1" x2="125.7" y2="263.4"/>
</g>
<g id="Layer_5" display="none">
</g>
</svg>
