<?xml version="1.0" encoding="utf-8"?>
<!-- Generator: Adobe Illustrator 18.0.0, SVG Export Plug-In . SVG Version: 6.00 Build 0)  -->
<!DOCTYPE svg PUBLIC "-//W3C//DTD SVG 1.1//EN" "http://www.w3.org/Graphics/SVG/1.1/DTD/svg11.dtd">
<svg version="1.1" id="Texto_copy" xmlns="http://www.w3.org/2000/svg" xmlns:xlink="http://www.w3.org/1999/xlink" x="0px" y="0px"
	 viewBox="0 0 117 82.5" enable-background="new 0 0 117 82.5" xml:space="preserve">
<g>
	<g>
		<path fill="#383939" d="M5.9,56.9l7.9,18.9l7.9-18.9h2.4v21.4h-1.8V69l0.1-9.5l-8,18.8h-1.4L5.2,59.5l0.1,9.4v9.4H3.5V56.9H5.9z"
			/>
		<path fill="#383939" d="M40.5,72.3h-9.7l-2.2,6h-1.9l8.1-21.4h1.7l8.1,21.4h-1.9L40.5,72.3z M31.4,70.8h8.6l-4.3-11.6L31.4,70.8z"
			/>
		<path fill="#383939" d="M54.9,69.4h-6.2v8.9h-1.8V56.9h6.9c2.3,0,4.1,0.6,5.3,1.7c1.3,1.1,1.9,2.6,1.9,4.6c0,1.4-0.4,2.6-1.2,3.6
			c-0.8,1-1.9,1.8-3.2,2.2l5.3,9.1v0.2h-1.9L54.9,69.4z M48.7,67.9h5.5c1.5,0,2.7-0.4,3.7-1.3c0.9-0.9,1.4-2,1.4-3.3
			c0-1.5-0.5-2.7-1.4-3.5s-2.3-1.2-4-1.2h-5.1V67.9z"/>
		<path fill="#383939" d="M70,67.7l-3,3v7.6h-1.8V56.9H67v11.5l10.9-11.5h2.3l-8.9,9.5l9.6,11.9h-2.2L70,67.7z"/>
		<path fill="#383939" d="M95.1,68h-10v8.7h11.5v1.5H83.3V56.9h13.2v1.5H85.1v8.1h10V68z"/>
		<path fill="#383939" d="M114.4,58.5h-7.3v19.8h-1.8V58.5H98v-1.5h16.4V58.5z"/>
	</g>
</g>
<g>
	<polygon fill="#383939" points="33.5,22 15.5,22 15.5,13 35.5,13 35.5,3 3.5,3 3.5,50 15.5,50 15.5,32 33.5,32 	"/>
	<path fill="#383939" d="M58,3H46.8L29.4,50h13l2.7-8h14.6l2.7,8h13.1L58.1,3.1L58,3z M56.7,32h-8.6l4.3-13.9L56.7,32z"/>
	<path fill="#383939" d="M112.6,29.5c-1.1-1.5-2.7-2.6-4.6-3.3c1.6-0.8,2.9-2,3.9-3.4c1.2-1.8,1.7-3.9,1.7-6.4
		c0-4.3-1.6-7.6-4.9-9.9C105.6,4.1,100.9,3,94.9,3H77.5v47H97h0c5.7,0,10.2-1.1,13.1-3.4c3-2.4,4.5-5.9,4.5-10.5
		C114.7,33.4,114,31.3,112.6,29.5z M89.5,31h7.7c3.5,0,5.3,1.6,5.3,5.2c0,1.5-0.5,2.7-1.5,3.6c-1,0.8-2.4,1.3-4.3,1.3h-7.2V31z
		 M100.1,20.9c-0.9,0.8-2.6,1.1-4.9,1.1h-5.7v-9h5.4c2.4,0,4.1,0.2,5.1,1c1,0.8,1.5,1.8,1.5,3.7C101.5,19.2,101.1,20.1,100.1,20.9z"
		/>
</g>
</svg>
