<?xml version="1.0" encoding="utf-8"?>
<!-- Generator: Adobe Illustrator 18.0.0, SVG Export Plug-In . SVG Version: 6.00 Build 0)  -->
<!DOCTYPE svg PUBLIC "-//W3C//DTD SVG 1.1//EN" "http://www.w3.org/Graphics/SVG/1.1/DTD/svg11.dtd">
<svg version="1.1" id="Texto_copy" xmlns="http://www.w3.org/2000/svg" xmlns:xlink="http://www.w3.org/1999/xlink" x="0px" y="0px"
	 viewBox="0 0 361.9 51.6" enable-background="new 0 0 361.9 51.6" xml:space="preserve">
<g>
	<g>
		<path fill="#FAFAFA" d="M124.3,3l17.2,41.1L158.8,3h5.3v46.6h-3.9V29.3l0.3-20.8l-17.4,41.1h-3L122.7,8.7l0.3,20.5v20.4h-3.9V3
			H124.3z"/>
		<path fill="#FAFAFA" d="M199.8,36.5h-21.2l-4.8,13.1h-4.1L187.4,3h3.7l17.6,46.6h-4.1L199.8,36.5z M179.9,33.2h18.7l-9.3-25.4
			L179.9,33.2z"/>
		<path fill="#FAFAFA" d="M231.2,30.2h-13.5v19.4h-4V3h15.1c5,0,8.9,1.2,11.7,3.6c2.8,2.4,4.2,5.8,4.2,10.1c0,3-0.9,5.6-2.6,7.9
			c-1.7,2.3-4.1,3.9-7,4.7l11.7,19.8v0.4h-4.2L231.2,30.2z M217.7,26.9h12.1c3.3,0,6-0.9,8-2.8c2-1.9,3-4.3,3-7.3
			c0-3.3-1-5.8-3.1-7.7c-2.1-1.8-5-2.7-8.8-2.7h-11.1V26.9z"/>
		<path fill="#FAFAFA" d="M264.2,26.5l-6.6,6.5v16.7h-3.9V3h3.9v25.1L281.5,3h5l-19.5,20.7l21,25.9h-4.8L264.2,26.5z"/>
		<path fill="#FAFAFA" d="M319,27.3h-21.8v19h25.1v3.3h-29V3h28.8v3.3h-24.9v17.6H319V27.3z"/>
		<path fill="#FAFAFA" d="M361.1,6.3h-16v43.3h-3.9V6.3h-15.9V3h35.9V6.3z"/>
	</g>
</g>
<g>
	<polygon fill="#FAFAFA" points="33.5,22 15.5,22 15.5,13 35.5,13 35.5,3 3.5,3 3.5,50 15.5,50 15.5,32 33.5,32 	"/>
	<path fill="#FAFAFA" d="M58,3H46.8L29.4,50h13l2.7-8h14.6l2.7,8h13.1L58.1,3.1L58,3z M56.7,32h-8.6l4.3-13.9L56.7,32z"/>
	<path fill="#FAFAFA" d="M112.6,29.5c-1.1-1.5-2.7-2.6-4.6-3.3c1.6-0.8,2.9-2,3.9-3.4c1.2-1.8,1.7-3.9,1.7-6.4
		c0-4.3-1.6-7.6-4.9-9.9C105.6,4.1,100.9,3,94.9,3H77.5v47H97h0c5.7,0,10.2-1.1,13.1-3.4c3-2.4,4.5-5.9,4.5-10.5
		C114.7,33.4,114,31.3,112.6,29.5z M89.5,31h7.7c3.5,0,5.3,1.6,5.3,5.2c0,1.5-0.5,2.7-1.5,3.6c-1,0.8-2.4,1.3-4.3,1.3h-7.2V31z
		 M100.1,20.9c-0.9,0.8-2.6,1.1-4.9,1.1h-5.7v-9h5.4c2.4,0,4.1,0.2,5.1,1c1,0.8,1.5,1.8,1.5,3.7C101.5,19.2,101.1,20.1,100.1,20.9z"
		/>
</g>
</svg>
