<?xml version="1.0" encoding="utf-8"?>
<!-- Generator: Adobe Illustrator 18.0.0, SVG Export Plug-In . SVG Version: 6.00 Build 0)  -->
<!DOCTYPE svg PUBLIC "-//W3C//DTD SVG 1.1//EN" "http://www.w3.org/Graphics/SVG/1.1/DTD/svg11.dtd">
<svg version="1.1" xmlns="http://www.w3.org/2000/svg" xmlns:xlink="http://www.w3.org/1999/xlink" x="0px" y="0px"
	 viewBox="0 0 267 229.2" enable-background="new 0 0 267 229.2" xml:space="preserve">
<g id="Layer_1">
	<g>
		<rect x="71.3" y="140.3" fill="none" stroke="#FFFFFF" stroke-miterlimit="10" width="185.3" height="81.7"/>
		<path fill="none" stroke="#FFFFFF" stroke-miterlimit="10" d="M71.4,184.5c0,3.8,0,7.6,0,11.5c-5.4,0-10.8,0-16.3,0.1
			c-0.7,0-0.7-0.4-0.7-0.8v-10.9c0-0.5,0.1-1-0.1-1.4c-0.2-1.8-1-2.6-2.7-2.9c-1.1-0.2-2.2-0.2-3.3,0c-1.4,0.2-2.2,1-2.5,2.4
			c-0.1,0.5-0.1,1.1-0.1,1.6c0,4,0,8,0,11.9H28.8c0-3.9,0-7.8-0.1-11.6c0-0.3,0-0.7,0-1c0-12.9,0-25.9,0-38.8c0-1.3,0.3-2.4,1.1-3.5
			c4.2-5.6,5.5-12.1,5.5-19c1.1-0.3,2.1-0.7,3.3-0.5c-0.1,0.5,0.2,0.9,0.2,1.4c0.3,2.7,1.3,5.1,3.5,6.8c2.3,1.9,5.1,2.2,7.9,2.3
			c1,0,2-0.1,3-0.3c2.2-0.5,4.1-1.4,5.6-3.1c1.9-2.1,2.4-4.7,2.5-7.3c1.1,0.2,2.2,0.4,3.2,0.5c0,1.1,0.1,2.2,0.2,3.3
			c0.2,2.1,0.5,4.1,1,6.1c0.8,3.5,2.1,6.8,4.5,9.6c1,1.2,1.3,2.4,1.2,3.9c-0.1,8.3,0,16.5,0,24.8C71.3,174.7,71.4,179.6,71.4,184.5"
			/>
		<path fill="none" stroke="#FFFFFF" stroke-miterlimit="10" d="M81.1,86.1c-0.3,1.2-0.5,2.5-0.8,3.8C79.3,89,78.8,88,78.3,87
			c-2.1-3.9-3.5-8-4.3-12.4c-0.3-1.9-0.6-3.9-0.5-5.8c0-0.5,0-0.8-0.7-0.6c-5.3,1.5-4.2-14.5-9.7-13.5c-4.4,0.8-21,2.7-25.4,3.3
			c-2.3,0.3-7.8,2.8-10.2,3c-2.4,0.2-2.7,9.1-5,9.2c-4.6,0.2-2.8,3.9,0,4.1c0.7,0.1,3.1,0.8,3,1.3c-0.8,3.3-1.8,6.6-3.1,9.7
			c-0.7,1.6-1.4,3.1-2.6,4.5c-0.5-1.3-0.6-2.6-0.8-3.8c-1.9,0-2.6,0.7-2.7,2.7c-0.1,1.5,0.2,2.8,0.6,4.2c0.4,1.6,1.1,3.1,1.1,4.8
			c0,1,1,1.8,2.2,1.6c0.6-0.1,0.8,0.1,0.8,0.6c0,0.3,0.1,0.5,0.2,0.8c1.3,5.1,3.8,9.5,8,12.9c3,2.4,6.4,3.9,10.1,4.9
			c0.3,0.1,0.8,0,0.8,0.4c0.1,0.7,0.1,1.5,0,2.2c-0.1,0.4-0.8,0.1-1.1,0.4c-0.1,0.1-0.2,0.1-0.3,0.2c-0.1,0.5,0.2,0.9,0.2,1.4
			c0.3,2.7,1.3,5.1,3.5,6.8c2.3,1.9,5.1,2.2,7.9,2.3c0.9,0,2-0.1,3-0.3c2.2-0.5,4.1-1.4,5.6-3.1c1.9-2.1,2.4-4.7,2.5-7.3
			c-0.2-0.1-0.5-0.2-0.7-0.2c-0.6,0-0.8-0.3-0.8-0.9c0-1.8,0-1.8,1.6-2.2c0.2-0.1,0.3-0.1,0.5-0.2c5.1-1.5,9.5-4.2,12.7-8.5
			c2.2-2.9,3.5-6.2,4.3-9.7c0.1-0.5,0.2-0.6,0.7-0.5c1.4,0.2,2.3-0.6,2.3-2.1c0-0.9,0.2-1.7,0.5-2.5c0.6-2,1.2-3.9,1.1-6
			C83.7,87.2,83,85.9,81.1,86.1"/>
		<path fill="none" stroke="#FFFFFF" stroke-miterlimit="10" d="M81.1,86.1c-0.3,1.2-0.5,2.5-0.8,3.8C79.3,89,78.8,88,78.3,87
			c-2.1-3.9-3.5-8-4.3-12.4c-0.3-1.9-0.6-3.9-0.5-5.8c0-0.5,0-0.8-0.7-0.6c-5.3,1.5-4.7-11.4-10.1-10.4c-4.4,0.8-8,0.2-12.5,0.8
			c-2.3,0.3-7.1,1.3-9.4,1.5c-2.4,0.2-4.6,3.6-7,3.7c-0.9,0-3.2,0.1-4.1,0c-0.7-0.1-3.9,11.2-4.1,11.8c-0.8,3.3-1.8,6.6-3.1,9.7
			c-0.7,1.6-1.4,3.1-2.6,4.5c-0.5-1.3-3.3,0.1-3.5-1.2c-1-6.1-7.4-22.5-5.8-28.6C12.7,52,19.4,49.4,27,45.8
			c11.5-5.4,34.5-5.9,45.8,0c7.8,4,15.7,15.2,17.1,23.7c0.9,5.4-5.3,13.8-6.2,19.2C83.7,88.8,81.1,86,81.1,86.1"/>
		<path fill="none" stroke="#FFFFFF" stroke-miterlimit="10" d="M35.4,122.1c0,6.9-1.3,13.4-5.5,19c-0.8,1.1-1.1,2.2-1.1,3.5
			c0,12.9,0,25.9,0,38.8c0,0.3,0,0.7,0,1c-2.5,2.6-5.5,2.9-8.2,0.7c-1.1-0.9-1.8-2.2-1.8-3.7c-0.1-4.2,0-8.3,0.2-12.5
			c0.2-4,0.5-8,0.9-12c1-9.3,2.4-18.4,5.3-27.3c0.8-2.5,2.2-4.4,4.6-5.6C31.5,123.1,33.4,122.4,35.4,122.1"/>
		<path fill="none" stroke="#FFFFFF" stroke-miterlimit="10" d="M54.3,182.9c0.2,0.5,0.1,0.9,0.1,1.4v10.9c0,0.5-0.1,0.9,0.7,0.8
			c5.4,0,10.8,0,16.3-0.1c0,7.7,0,15.3,0,22.9c0,0.9,0,1.7,0,2.6c-0.4,0.1-0.7,0.2-1.1,0.3c-5.3,1.1-10.6,2.2-15.8,3.4
			c0-0.4-0.1-0.8-0.1-1.2c0-8.8,0-17.7,0-26.5c0-4.5,0-9-0.1-13.6C54.3,183.6,54.3,183.2,54.3,182.9"/>
		<path fill="none" stroke="#FFFFFF" stroke-miterlimit="10" d="M28.8,196h16.8c0,9.7,0,19.4,0,29.1c-3.3-0.7-6.6-1.4-9.9-2.1
			c-2.3-0.5-4.6-1-6.9-1.5v-24.3C28.8,196.8,28.8,196.4,28.8,196"/>
		<path fill="none" stroke="#FFFFFF" stroke-miterlimit="10" d="M28.8,221.5c2.3,0.5,4.6,1,6.9,1.5c3.3,0.7,6.6,1.4,9.9,2.1
			c0.1,2.2,0.1,2.2-2.1,2.2c-5.8,0-11.6,0-17.4,0c-0.8,0-1-0.2-0.9-1C25.6,224.1,26.5,222.3,28.8,221.5"/>
		<path fill="none" stroke="#FFFFFF" stroke-miterlimit="10" d="M54.4,225.2c5.3-1.1,10.6-2.2,15.8-3.4c0.4-0.1,0.7-0.2,1.1-0.3
			c2.4,0.9,3.3,2.8,3.4,5.2c0,0.4,0,0.6-0.5,0.6c-6.4,0-12.8,0-19.3,0c-0.5,0-0.6-0.2-0.6-0.6C54.4,226.2,54.4,225.7,54.4,225.2"/>
		<path fill="none" stroke="#FFFFFF" stroke-miterlimit="10" d="M124.8,143.3c-4.7-1.3-9.4-2.7-14.2-4c-7.9-2.3-12.4-2.6-20.3-4.9
			c-1.4-0.4-4.4-0.9-7.4-0.8c-3.6,0-6.5,0.3-9.4,1.8c-1.8,1-1.5,7.2-3.6,6.7c-1.1-0.2-5.7-10.4-5.3-9.4c-1.5-3.4-1.8-8-0.6-10.4
			c0.6-1.2,6.1,2.7,7.3,2.6c6-0.4,11.9-0.1,17.9,0.6c4.6,0.5,9.1,1.2,13.6,2.1c2.8,0.5,5.7,1.2,8.5,1.8c4.1,1,8.2,1.9,12.3,3.1
			c2.5,0.7,4.1,2.3,4.4,4.9c0.3,2.5-0.8,4.4-3,5.6C124.9,143.1,124.9,143.2,124.8,143.3"/>
		<path fill="none" stroke="#FFFFFF" stroke-miterlimit="10" d="M18.7,143.8c0,0,8.4,2.5,10.1,4.9c0.1,0.2-0.4,24.9,0,20.3v0.5
			c0,0,21.6,6.6,42.6,0.3l0-28.1l16.6-3.1L84.4,125c0,0-8.2-0.7-13-0.1c0,0-5.7-2.8-10.1-3.4c0,0-9.4,12.3-22.7,0.2
			c0,0-11.4,0.5-13.5,7.9L18.7,143.8z"/>
		<rect x="80.3" y="148" fill="none" stroke="#FFFFFF" stroke-miterlimit="10" width="82.5" height="20.7"/>
		<path fill="none" stroke="#FFFFFF" stroke-miterlimit="10" d="M124.6,158.4c0,1.7-1.3,3-3,3c-1.6,0-3-1.3-3-3c0-1.6,1.3-3,3-3
			C123.2,155.4,124.6,156.7,124.6,158.4"/>
		<rect x="80.3" y="170.4" fill="none" stroke="#FFFFFF" stroke-miterlimit="10" width="82.5" height="20.7"/>
		<path fill="none" stroke="#FFFFFF" stroke-miterlimit="10" d="M124.6,180.8c0,1.7-1.3,3-3,3c-1.6,0-3-1.3-3-3c0-1.6,1.3-3,3-3
			C123.2,177.8,124.6,179.2,124.6,180.8"/>
		<rect x="80.3" y="193.3" fill="none" stroke="#FFFFFF" stroke-miterlimit="10" width="82.5" height="20.7"/>
		<path fill="none" stroke="#FFFFFF" stroke-miterlimit="10" d="M124.6,203.7c0,1.6-1.3,3-3,3c-1.6,0-3-1.3-3-3s1.3-3,3-3
			C123.2,200.7,124.6,202,124.6,203.7"/>
		<rect x="165.2" y="148" fill="none" stroke="#FFFFFF" stroke-miterlimit="10" width="82.5" height="20.7"/>
		<rect x="165.2" y="170.4" fill="none" stroke="#FFFFFF" stroke-miterlimit="10" width="82.5" height="20.7"/>
		<rect x="165.2" y="193.3" fill="none" stroke="#FFFFFF" stroke-miterlimit="10" width="82.5" height="20.7"/>
		<path fill="none" stroke="#FFFFFF" stroke-miterlimit="10" d="M209.4,203.7c0,1.6-1.3,3-3,3c-1.6,0-3-1.3-3-3s1.3-3,3-3
			C208.1,200.7,209.4,202,209.4,203.7"/>
		<path fill="none" stroke="#FFFFFF" stroke-miterlimit="10" d="M125.8,65.5c0-0.1-0.1-0.1-0.1-0.2c-1.6-3.3-3.3-6.6-5-9.8
			c-1-1.9-2-3.8-2.9-5.7c-0.7-1.4-1.3-2.9-1.8-4.5c-0.6-1.9-0.7-3.9-0.5-5.9c0.1-0.8,0.3-1.6,0.5-2.4c0.3-0.9,0.6-1.8,0.9-2.7
			c1.5-3.6,4.8-6,8.7-6.2c1,0,2,0.1,2.9,0.3c1.9,0.5,3.5,1.4,4.9,2.8c1,1,1.7,2.1,2.2,3.3c0.4,0.9,0.7,1.9,0.9,2.9c0,0,0,0.1,0,0.1
			c0,0,0.1-0.1,0.1-0.1c1.3-1,2.7-1.7,4.3-2.1c1.7-0.5,3.3-0.5,5-0.1c0.9,0.2,1.7,0.5,2.5,0.9c1.4,0.7,2.6,1.7,3.5,3
			c1.4,2,2,4.2,1.8,6.7c-0.1,1-0.3,2-0.7,2.9c-0.3,0.7-0.6,1.5-1,2.2c-1,2-2.4,3.8-4.2,5.2c-1.1,0.8-2.2,1.5-3.5,2.1
			c-1.4,0.7-2.9,1.3-4.4,1.8c-2.3,0.9-4.7,1.7-7,2.5c-2.4,0.9-4.9,1.8-7.3,2.8C125.8,65.5,125.8,65.5,125.8,65.5"/>
		<path fill="none" stroke="#FFFFFF" stroke-miterlimit="10" d="M101.4,76.7C101.4,76.7,101.4,76.7,101.4,76.7
			c-0.7-1.6-1.5-3-2.2-4.4c-0.4-0.8-0.9-1.7-1.3-2.5c-0.3-0.6-0.6-1.3-0.8-2c-0.2-0.9-0.3-1.7-0.2-2.6c0-0.4,0.1-0.7,0.2-1
			c0.1-0.4,0.2-0.8,0.4-1.2c0.7-1.6,2.1-2.7,3.9-2.8c0.4,0,0.9,0,1.3,0.1c0.8,0.2,1.6,0.6,2.2,1.2c0.4,0.4,0.7,0.9,1,1.5
			c0.2,0.4,0.3,0.9,0.4,1.3c0,0,0,0,0,0.1c0,0,0,0,0,0c0.6-0.4,1.2-0.8,1.9-1c0.7-0.2,1.5-0.2,2.2-0.1c0.4,0.1,0.8,0.2,1.1,0.4
			c0.6,0.3,1.2,0.8,1.6,1.3c0.6,0.9,0.9,1.9,0.8,3c0,0.4-0.1,0.9-0.3,1.3c-0.1,0.3-0.3,0.7-0.4,1c-0.5,0.9-1.1,1.7-1.9,2.3
			c-0.5,0.4-1,0.7-1.5,0.9c-0.6,0.3-1.3,0.6-1.9,0.8c-1,0.4-2.1,0.7-3.1,1.1C103.6,75.9,102.6,76.3,101.4,76.7
			C101.5,76.7,101.5,76.7,101.4,76.7"/>
		<path fill="none" stroke="#FFFFFF" stroke-miterlimit="10" d="M85.4,34.6c-0.1,0-0.1,0-0.1,0c-2.8-1-5.6-1.9-8.4-2.7
			c-1.6-0.5-3.3-1-4.9-1.6c-1.2-0.4-2.4-0.9-3.5-1.5c-1.4-0.8-2.6-1.8-3.6-3c-0.4-0.5-0.7-1-1.1-1.6c-0.4-0.7-0.7-1.4-1-2.1
			c-1.2-2.9-0.7-6.1,1.4-8.4c0.5-0.6,1.1-1.1,1.8-1.5c1.3-0.8,2.8-1.2,4.3-1.2c1.1,0,2.1,0.2,3.1,0.6c0.8,0.3,1.5,0.7,2.2,1.2
			c0,0,0.1,0,0.1,0.1c0,0,0-0.1,0-0.1c0.2-1.3,0.6-2.5,1.2-3.6c0.7-1.2,1.6-2.2,2.8-2.9c0.6-0.4,1.3-0.7,1.9-0.9
			c1.2-0.4,2.4-0.5,3.7-0.3c1.9,0.3,3.5,1.2,4.8,2.7c0.5,0.6,0.9,1.3,1.3,2.1c0.2,0.6,0.5,1.2,0.7,1.8c0.6,1.7,0.8,3.5,0.6,5.3
			c-0.1,1.1-0.4,2.1-0.8,3.1c-0.4,1.2-0.9,2.3-1.4,3.5c-0.8,1.8-1.7,3.6-2.5,5.4C87,30.7,86.2,32.6,85.4,34.6
			C85.4,34.5,85.4,34.5,85.4,34.6"/>
		<rect x="28.8" y="194.1" fill="none" stroke="#FFFFFF" stroke-miterlimit="10" width="16.9" height="24"/>
		<rect x="54.4" y="195.2" fill="none" stroke="#FFFFFF" stroke-miterlimit="10" width="16.9" height="23.7"/>
		<path fill="none" stroke="#FFFFFF" stroke-miterlimit="10" d="M209.4,158.4c0,1.7-1.3,3-3,3c-1.6,0-3-1.3-3-3c0-1.6,1.3-3,3-3
			C208.1,155.4,209.4,156.7,209.4,158.4"/>
		<path fill="none" stroke="#FFFFFF" stroke-miterlimit="10" d="M209.4,180.8c0,1.7-1.3,3-3,3c-1.6,0-3-1.3-3-3c0-1.6,1.3-3,3-3
			C208.1,177.8,209.4,179.2,209.4,180.8"/>
	</g>
</g>
<g id="Layer_3" display="none">
</g>
<g id="Layer_2" display="none">
</g>
<g id="Layer_4" display="none">
</g>
<g id="Layer_5" display="none">
</g>
</svg>
