<?xml version="1.0" encoding="utf-8"?>
<!-- Generator: Adobe Illustrator 18.0.0, SVG Export Plug-In . SVG Version: 6.00 Build 0)  -->
<!DOCTYPE svg PUBLIC "-//W3C//DTD SVG 1.1//EN" "http://www.w3.org/Graphics/SVG/1.1/DTD/svg11.dtd">
<svg version="1.1" xmlns="http://www.w3.org/2000/svg" xmlns:xlink="http://www.w3.org/1999/xlink" x="0px" y="0px"
	 viewBox="0 -48 800 531" enable-background="new 0 -48 800 531" xml:space="preserve">
<g id="Layer_2_1_" display="none">
	<rect x="126" y="175" display="inline" fill="none" width="552" height="88"/>
	<text transform="matrix(1 0 0 1 185.8355 204.9604)" display="inline"><tspan x="0" y="0" fill="#231F20" font-family="'Lato-Light'" font-size="40">To push for usage of </tspan><tspan x="346" y="0" fill="#231F20" font-family="'Lato-Black'" font-size="40">local </tspan><tspan x="-9.6" y="48" fill="#231F20" font-family="'Lato-Black'" font-size="40">materials </tspan><tspan x="168.7" y="48" fill="#231F20" font-family="'Lato-Light'" font-size="40">and</tspan><tspan x="231.2" y="48" fill="#231F20" font-family="'Graphik-Light'" font-size="40"> </tspan><tspan x="240.9" y="48" fill="#231F20" font-family="'Lato-Black'" font-size="40">production</tspan></text>
</g>
<g id="Layer_3" display="none">
	<g id="Layer_10" display="inline">
		<rect x="-0.5" y="-48.5" fill="#B3DCC2" width="800" height="531"/>
	</g>
	<rect x="81" y="127" display="inline" fill="none" width="640" height="184"/>
	<text transform="matrix(1 0 0 1 149.1661 156.1396)" display="inline"><tspan x="0" y="0" font-family="'Lato-Light'" font-size="40">To offer makers a place where</tspan><tspan x="-33.3" y="48" font-family="'Lato-Light'" font-size="40">they can </tspan><tspan x="115.8" y="48" font-family="'Lato-Black'" font-size="40">fabricate for lower cost </tspan><tspan x="49.8" y="96" font-family="'Lato-Light'" font-size="40">and </tspan><tspan x="119.8" y="96" font-family="'Lato-Black'" font-size="40">sell their creations</tspan><tspan x="110.2" y="144" font-family="'Lato-Black'" font-size="40"> </tspan><tspan x="117.7" y="144" font-family="'Lato-Light'" font-size="40">at the same time</tspan></text>
</g>
<g id="_x34_" display="none">
	<g id="Layer_10_2_" display="inline">
		<rect x="1.8" y="-47.5" fill="#F2E5AB" width="798.4" height="531"/>
	</g>
	<rect x="81" y="176" display="inline" fill="none" width="640" height="82"/>
	<text transform="matrix(1 0 0 1 185.5245 205.9601)" display="inline"><tspan x="0" y="0" font-family="'Lato-Light'" font-size="40">To create a </tspan><tspan x="194.4" y="0" font-family="'Lato-Black'" font-size="40">market place</tspan><tspan x="-4.8" y="48" font-family="'Lato-Light'" font-size="40">of </tspan><tspan x="36.9" y="48" font-family="'Lato-Black'" font-size="40">customizable</tspan><tspan x="277.3" y="48" font-family="'Lato-Light'" font-size="40"> products</tspan></text>
</g>
<g id="_x35_" display="none">
	<g id="Layer_10_3_" display="inline">
		<rect y="-48.5" fill="#79CFE1" width="800" height="531"/>
	</g>
	<rect x="81" y="176" display="inline" fill="none" width="640" height="82"/>
	<text transform="matrix(1 0 0 1 185.5245 205.9601)" display="inline"><tspan x="0" y="0" font-family="'Lato-Light'" font-size="40">To create a </tspan><tspan x="194.4" y="0" font-family="'Lato-Black'" font-size="40">market place</tspan><tspan x="31.7" y="48" font-family="'Lato-Light'" font-size="40">of </tspan><tspan x="73.5" y="48" font-family="'Lato-Black'" font-size="40">personal products</tspan></text>
</g>
<g id="_x35__copy" display="none">
	<g id="Layer_10_1_" display="inline">
		<rect y="-48.5" fill="#EEA074" width="800" height="531"/>
	</g>
	<rect x="81" y="176" display="inline" fill="none" width="640" height="82"/>
	<text transform="matrix(1 0 0 1 110.2667 205.9601)" display="inline"><tspan x="0" y="0" font-family="'Lato-Light'" font-size="40">So</tspan><tspan x="42.2" y="0" font-family="'Lato-Black'" font-size="40"> communities</tspan><tspan x="284.1" y="0" font-family="'Lato-Light'" font-size="40"> around the world</tspan><tspan x="-4.2" y="48" font-family="'Lato-Light'" font-size="40">can </tspan><tspan x="62.1" y="48" font-family="'Lato-Black'" font-size="40">increase</tspan><tspan x="214.1" y="48" font-family="'Lato-Light'" font-size="40"> their </tspan><tspan x="310.1" y="48" font-family="'Lato-Black'" font-size="40">self-sufficiency</tspan></text>
</g>
<g id="_x35__copy_2" display="none">
	<g id="Layer_10_4_" display="inline">
		<rect x="1" y="-48.5" fill="#B3DCC2" width="800" height="531"/>
	</g>
	<rect x="81" y="176" display="inline" fill="none" width="640" height="82"/>
	<text transform="matrix(1 0 0 1 119.7164 205.9601)" display="inline"><tspan x="0" y="0" font-family="'Lato-Light'" font-size="40">So </tspan><tspan x="49.8" y="0" font-family="'Lato-Black'" font-size="40">FabLabs</tspan><tspan x="198.8" y="0" font-family="'Lato-Light'" font-size="40"> around the world can</tspan><tspan x="19.5" y="48" font-family="'Lato-Black'" font-size="40">increase</tspan><tspan x="171.4" y="48" font-family="'Lato-Light'" font-size="40"> their </tspan><tspan x="267.5" y="48" font-family="'Lato-Black'" font-size="40">self-sufficiency</tspan></text>
</g>
<g id="_x35__copy_3">
	<rect x="81" y="200.1" fill="none" width="640" height="34.1"/>
	<text transform="matrix(1 0 0 1 120.6465 230.0161)"><tspan x="0" y="0" font-family="'Lato-Light'" font-size="40">This is the </tspan><tspan x="176" y="0" font-family="'Lato-Black'" font-size="40">Fab Market </tspan><tspan x="393.2" y="0" font-family="'Lato-Light'" font-size="40">manifesto</tspan></text>
</g>
<g id="Layer_5">
</g>
</svg>
