<?xml version="1.0" encoding="utf-8"?>
<!-- Generator: Adobe Illustrator 18.0.0, SVG Export Plug-In . SVG Version: 6.00 Build 0)  -->
<!DOCTYPE svg PUBLIC "-//W3C//DTD SVG 1.1//EN" "http://www.w3.org/Graphics/SVG/1.1/DTD/svg11.dtd">
<svg version="1.1" xmlns="http://www.w3.org/2000/svg" xmlns:xlink="http://www.w3.org/1999/xlink" x="0px" y="0px"
	 viewBox="0 -48 800 531" enable-background="new 0 -48 800 531" xml:space="preserve">
<g id="_x30_">
	<g>
		<path d="M143.9,201.7v1.7H134V230h-2v-26.6h-10v-1.7H143.9z"/>
		<path d="M147.7,230v-29.1h1.9v12.6c0.9-1.1,2-2,3.1-2.7s2.5-1,4-1c1.1,0,2.1,0.2,2.9,0.5c0.8,0.3,1.5,0.8,2.1,1.5
			c0.5,0.7,1,1.4,1.2,2.4c0.3,0.9,0.4,2,0.4,3.1V230h-1.9v-12.7c0-1.9-0.4-3.3-1.3-4.4c-0.9-1.1-2.2-1.6-3.9-1.6
			c-1.3,0-2.5,0.3-3.6,1c-1.1,0.7-2.1,1.6-3,2.8V230H147.7z"/>
		<path d="M172.5,203.3c0,0.2,0,0.5-0.1,0.7s-0.2,0.4-0.4,0.5s-0.3,0.3-0.6,0.4c-0.2,0.1-0.4,0.1-0.7,0.1c-0.2,0-0.5,0-0.7-0.1
			c-0.2-0.1-0.4-0.2-0.6-0.4s-0.3-0.3-0.4-0.5c-0.1-0.2-0.1-0.4-0.1-0.7c0-0.2,0-0.5,0.1-0.7c0.1-0.2,0.2-0.4,0.4-0.6
			s0.3-0.3,0.6-0.4c0.2-0.1,0.4-0.1,0.7-0.1c0.2,0,0.5,0,0.7,0.1s0.4,0.2,0.6,0.4s0.3,0.4,0.4,0.6
			C172.4,202.8,172.5,203,172.5,203.3z M171.6,210.1V230h-1.9v-19.9H171.6z"/>
		<path d="M189.5,212.6c-0.1,0.2-0.2,0.3-0.4,0.3c-0.1,0-0.3-0.1-0.6-0.2c-0.2-0.2-0.5-0.4-0.9-0.6c-0.4-0.2-0.8-0.4-1.4-0.6
			c-0.6-0.2-1.2-0.2-2-0.2c-0.7,0-1.4,0.1-2,0.3c-0.6,0.2-1.1,0.5-1.5,0.8c-0.4,0.3-0.7,0.7-1,1.2c-0.2,0.5-0.4,0.9-0.4,1.4
			c0,0.6,0.2,1.1,0.5,1.6s0.7,0.8,1.3,1.1c0.5,0.3,1.1,0.5,1.8,0.8c0.7,0.2,1.3,0.4,2,0.6c0.7,0.2,1.4,0.5,2,0.7
			c0.7,0.3,1.2,0.6,1.8,1s0.9,0.9,1.3,1.4c0.3,0.6,0.5,1.2,0.5,2c0,0.9-0.2,1.7-0.5,2.4s-0.8,1.4-1.4,1.9c-0.6,0.5-1.3,1-2.2,1.3
			c-0.9,0.3-1.9,0.5-3,0.5c-1.4,0-2.6-0.2-3.6-0.7c-1-0.4-1.9-1-2.7-1.8l0.5-0.7c0.1-0.1,0.1-0.2,0.2-0.2s0.2-0.1,0.3-0.1
			c0.2,0,0.4,0.1,0.6,0.3s0.6,0.4,1,0.7c0.4,0.2,0.9,0.5,1.5,0.7c0.6,0.2,1.4,0.3,2.2,0.3c0.8,0,1.6-0.1,2.2-0.4
			c0.6-0.2,1.2-0.5,1.6-0.9s0.8-0.9,1-1.4c0.2-0.5,0.3-1.1,0.3-1.7c0-0.7-0.2-1.2-0.5-1.7c-0.3-0.4-0.7-0.8-1.3-1.1
			s-1.1-0.6-1.8-0.8c-0.7-0.2-1.3-0.4-2-0.6c-0.7-0.2-1.4-0.4-2-0.7s-1.2-0.6-1.8-1s-0.9-0.9-1.3-1.4c-0.3-0.6-0.5-1.2-0.5-2.1
			c0-0.7,0.2-1.4,0.5-2c0.3-0.7,0.7-1.2,1.3-1.7c0.6-0.5,1.3-0.9,2.1-1.2c0.8-0.3,1.7-0.4,2.7-0.4c1.2,0,2.3,0.2,3.2,0.5
			c0.9,0.4,1.8,0.9,2.6,1.6L189.5,212.6z"/>
		<path d="M206.4,203.3c0,0.2,0,0.5-0.1,0.7s-0.2,0.4-0.4,0.5s-0.3,0.3-0.6,0.4c-0.2,0.1-0.4,0.1-0.7,0.1c-0.2,0-0.5,0-0.7-0.1
			c-0.2-0.1-0.4-0.2-0.6-0.4s-0.3-0.3-0.4-0.5c-0.1-0.2-0.1-0.4-0.1-0.7c0-0.2,0-0.5,0.1-0.7c0.1-0.2,0.2-0.4,0.4-0.6
			s0.3-0.3,0.6-0.4c0.2-0.1,0.4-0.1,0.7-0.1c0.2,0,0.5,0,0.7,0.1s0.4,0.2,0.6,0.4s0.3,0.4,0.4,0.6
			C206.4,202.8,206.4,203,206.4,203.3z M205.6,210.1V230h-1.9v-19.9H205.6z"/>
		<path d="M223.4,212.6c-0.1,0.2-0.2,0.3-0.4,0.3c-0.1,0-0.3-0.1-0.6-0.2c-0.2-0.2-0.5-0.4-0.9-0.6c-0.4-0.2-0.8-0.4-1.4-0.6
			c-0.6-0.2-1.2-0.2-2-0.2c-0.7,0-1.4,0.1-2,0.3c-0.6,0.2-1.1,0.5-1.5,0.8c-0.4,0.3-0.7,0.7-1,1.2c-0.2,0.5-0.4,0.9-0.4,1.4
			c0,0.6,0.2,1.1,0.5,1.6s0.7,0.8,1.3,1.1c0.5,0.3,1.1,0.5,1.8,0.8c0.7,0.2,1.3,0.4,2,0.6c0.7,0.2,1.4,0.5,2,0.7
			c0.7,0.3,1.2,0.6,1.8,1s0.9,0.9,1.3,1.4c0.3,0.6,0.5,1.2,0.5,2c0,0.9-0.2,1.7-0.5,2.4s-0.8,1.4-1.4,1.9c-0.6,0.5-1.3,1-2.2,1.3
			c-0.9,0.3-1.9,0.5-3,0.5c-1.4,0-2.6-0.2-3.6-0.7c-1-0.4-1.9-1-2.7-1.8l0.5-0.7c0.1-0.1,0.1-0.2,0.2-0.2s0.2-0.1,0.3-0.1
			c0.2,0,0.4,0.1,0.6,0.3s0.6,0.4,1,0.7c0.4,0.2,0.9,0.5,1.5,0.7c0.6,0.2,1.4,0.3,2.2,0.3c0.8,0,1.6-0.1,2.2-0.4
			c0.6-0.2,1.2-0.5,1.6-0.9s0.8-0.9,1-1.4c0.2-0.5,0.3-1.1,0.3-1.7c0-0.7-0.2-1.2-0.5-1.7c-0.3-0.4-0.7-0.8-1.3-1.1
			s-1.1-0.6-1.8-0.8c-0.7-0.2-1.3-0.4-2-0.6c-0.7-0.2-1.4-0.4-2-0.7s-1.2-0.6-1.8-1s-0.9-0.9-1.3-1.4c-0.3-0.6-0.5-1.2-0.5-2.1
			c0-0.7,0.2-1.4,0.5-2c0.3-0.7,0.7-1.2,1.3-1.7c0.6-0.5,1.3-0.9,2.1-1.2c0.8-0.3,1.7-0.4,2.7-0.4c1.2,0,2.3,0.2,3.2,0.5
			c0.9,0.4,1.8,0.9,2.6,1.6L223.4,212.6z"/>
		<path d="M242.5,230.3c-1.3,0-2.4-0.4-3.1-1.1c-0.7-0.7-1.1-1.9-1.1-3.5v-13.6h-2.9c-0.1,0-0.3,0-0.4-0.1c-0.1-0.1-0.1-0.2-0.1-0.3
			V211l3.4-0.2l0.5-7.1c0-0.1,0.1-0.2,0.1-0.3c0.1-0.1,0.2-0.1,0.3-0.1h0.9v7.6h6.3v1.4h-6.3v13.5c0,0.5,0.1,1,0.2,1.4
			c0.1,0.4,0.3,0.7,0.6,1c0.2,0.3,0.5,0.4,0.9,0.6c0.3,0.1,0.7,0.2,1.1,0.2c0.5,0,0.9-0.1,1.2-0.2c0.3-0.1,0.6-0.3,0.9-0.5
			c0.3-0.2,0.5-0.3,0.6-0.5c0.2-0.1,0.3-0.2,0.4-0.2c0.1,0,0.2,0.1,0.3,0.2l0.5,0.8c-0.5,0.6-1.1,1-1.9,1.4
			C244.1,230.2,243.3,230.3,242.5,230.3z"/>
		<path d="M251.2,230v-29.1h1.9v12.6c0.9-1.1,2-2,3.1-2.7s2.5-1,4-1c1.1,0,2.1,0.2,2.9,0.5c0.8,0.3,1.5,0.8,2.1,1.5
			c0.5,0.7,1,1.4,1.2,2.4c0.3,0.9,0.4,2,0.4,3.1V230h-1.9v-12.7c0-1.9-0.4-3.3-1.3-4.4c-0.9-1.1-2.2-1.6-3.9-1.6
			c-1.3,0-2.5,0.3-3.6,1c-1.1,0.7-2.1,1.6-3,2.8V230H251.2z"/>
		<path d="M280.1,209.8c1.1,0,2.2,0.2,3.1,0.6c1,0.4,1.8,1,2.5,1.7c0.7,0.7,1.2,1.7,1.6,2.7c0.4,1.1,0.6,2.3,0.6,3.7
			c0,0.3,0,0.5-0.1,0.6c-0.1,0.1-0.2,0.2-0.4,0.2h-14.4v0.4c0,1.5,0.2,2.8,0.5,3.9c0.3,1.1,0.8,2.1,1.5,2.9c0.6,0.8,1.4,1.3,2.3,1.7
			s1.9,0.6,3,0.6c1,0,1.9-0.1,2.6-0.3c0.7-0.2,1.4-0.5,1.9-0.7c0.5-0.3,0.9-0.5,1.2-0.7c0.3-0.2,0.5-0.3,0.6-0.3
			c0.2,0,0.3,0.1,0.4,0.2l0.5,0.6c-0.3,0.4-0.7,0.8-1.3,1.1c-0.5,0.3-1.1,0.6-1.8,0.9c-0.6,0.2-1.3,0.4-2.1,0.6
			c-0.7,0.1-1.5,0.2-2.2,0.2c-1.4,0-2.6-0.2-3.7-0.7c-1.1-0.5-2.1-1.2-2.9-2.1c-0.8-0.9-1.4-2-1.9-3.3c-0.4-1.3-0.7-2.8-0.7-4.5
			c0-1.4,0.2-2.7,0.6-4c0.4-1.2,1-2.2,1.8-3.1c0.8-0.9,1.7-1.6,2.8-2C277.5,210,278.7,209.8,280.1,209.8z M280.2,211.2
			c-1,0-1.9,0.2-2.8,0.5c-0.8,0.3-1.5,0.8-2.1,1.4c-0.6,0.6-1.1,1.3-1.4,2.2c-0.4,0.8-0.6,1.8-0.7,2.8h13.1c0-1.1-0.1-2-0.4-2.9
			c-0.3-0.8-0.7-1.6-1.2-2.1c-0.5-0.6-1.2-1-1.9-1.4C281.9,211.4,281.1,211.2,280.2,211.2z"/>
		<path d="M318.4,200.9v5.2h-12v7.4h10v5.2h-10V230h-6.8v-29.1H318.4z"/>
		<path d="M336.1,230c-0.6,0-1-0.1-1.3-0.2c-0.3-0.2-0.6-0.5-0.8-1l-0.4-1.1c-0.5,0.4-1,0.8-1.5,1.2c-0.5,0.3-1,0.6-1.5,0.9
			c-0.5,0.2-1.1,0.4-1.6,0.5c-0.6,0.1-1.2,0.2-1.9,0.2c-0.9,0-1.8-0.1-2.6-0.4c-0.8-0.2-1.4-0.6-2-1.1c-0.5-0.5-1-1.1-1.2-1.8
			c-0.3-0.7-0.4-1.5-0.4-2.5c0-0.7,0.2-1.5,0.6-2.3c0.4-0.8,1-1.5,1.9-2.1c0.9-0.6,2.2-1.2,3.7-1.6s3.5-0.6,5.9-0.6v-0.9
			c0-1.2-0.2-2.1-0.8-2.7s-1.2-0.8-2.1-0.8c-0.7,0-1.3,0.1-1.8,0.2c-0.5,0.2-0.9,0.3-1.2,0.5c-0.4,0.2-0.7,0.4-1.1,0.5
			s-0.8,0.2-1.2,0.2c-0.4,0-0.8-0.1-1.1-0.3c-0.3-0.2-0.5-0.5-0.7-0.8l-1.1-1.9c1.3-1.1,2.6-1.9,4.2-2.5s3.2-0.8,4.9-0.8
			c1.3,0,2.4,0.2,3.4,0.6c1,0.4,1.9,1,2.6,1.7c0.7,0.7,1.2,1.6,1.6,2.6c0.4,1,0.6,2.1,0.6,3.3v13H336.1z M329,226.2
			c0.8,0,1.5-0.1,2.1-0.4c0.6-0.3,1.2-0.7,1.8-1.4v-2.8c-1.2,0-2.3,0.1-3.1,0.2s-1.4,0.4-1.9,0.6c-0.5,0.2-0.8,0.5-1,0.8
			c-0.2,0.3-0.3,0.6-0.3,1c0,0.7,0.2,1.2,0.6,1.5C327.6,226.1,328.2,226.2,329,226.2z"/>
		<path d="M343.2,230v-29.9h6.2v11.4c0.8-0.8,1.6-1.4,2.6-1.8s2.1-0.7,3.5-0.7c1.1,0,2.1,0.2,3,0.7c0.9,0.5,1.7,1.1,2.4,2
			c0.7,0.9,1.2,2,1.6,3.3s0.6,2.8,0.6,4.5c0,1.6-0.2,3-0.7,4.3c-0.4,1.3-1,2.5-1.8,3.4s-1.7,1.7-2.8,2.3c-1.1,0.5-2.3,0.8-3.6,0.8
			c-0.6,0-1.2-0.1-1.6-0.2c-0.5-0.1-0.9-0.3-1.3-0.5c-0.4-0.2-0.8-0.5-1.1-0.8c-0.3-0.3-0.7-0.6-1-1l-0.2,1
			c-0.1,0.4-0.3,0.7-0.5,0.9c-0.2,0.2-0.6,0.2-1,0.2H343.2z M353.3,213.6c-0.5,0-0.9,0-1.2,0.1c-0.4,0.1-0.7,0.2-1,0.4
			c-0.3,0.2-0.6,0.4-0.9,0.6c-0.3,0.2-0.5,0.5-0.8,0.9v8.8c0.5,0.5,1,0.9,1.5,1.1c0.5,0.2,1.1,0.3,1.7,0.3c0.6,0,1.1-0.1,1.6-0.3
			c0.5-0.2,0.9-0.6,1.2-1.1c0.4-0.5,0.6-1.1,0.8-2c0.2-0.8,0.3-1.8,0.3-2.9c0-1.1-0.1-2-0.2-2.8s-0.4-1.4-0.7-1.8
			c-0.3-0.5-0.6-0.8-1-1C354.2,213.7,353.8,213.6,353.3,213.6z"/>
		<path d="M389.4,218.3c0.2,0.5,0.5,1.1,0.7,1.7c0.2-0.6,0.5-1.2,0.7-1.7c0.3-0.6,0.5-1.1,0.8-1.6l7.5-14.7c0.1-0.3,0.3-0.5,0.4-0.6
			s0.3-0.2,0.5-0.3c0.2-0.1,0.4-0.1,0.6-0.1c0.2,0,0.5,0,0.8,0h5.2V230h-6v-16.8c0-0.8,0-1.7,0.1-2.6l-7.7,15
			c-0.2,0.5-0.6,0.8-1,1.1c-0.4,0.2-0.9,0.4-1.4,0.4h-0.9c-0.5,0-1-0.1-1.4-0.4c-0.4-0.2-0.7-0.6-1-1.1l-7.8-15
			c0.1,0.5,0.1,0.9,0.1,1.4c0,0.5,0,0.9,0,1.3V230h-6v-29.1h5.2c0.3,0,0.5,0,0.8,0c0.2,0,0.4,0,0.6,0.1s0.3,0.2,0.5,0.3
			c0.1,0.1,0.3,0.3,0.4,0.6l7.5,14.8C388.9,217.2,389.2,217.7,389.4,218.3z"/>
		<path d="M425.5,230c-0.6,0-1-0.1-1.3-0.2c-0.3-0.2-0.6-0.5-0.8-1l-0.4-1.1c-0.5,0.4-1,0.8-1.5,1.2c-0.5,0.3-1,0.6-1.5,0.9
			c-0.5,0.2-1.1,0.4-1.6,0.5s-1.2,0.2-1.9,0.2c-0.9,0-1.8-0.1-2.6-0.4c-0.8-0.2-1.4-0.6-2-1.1c-0.5-0.5-1-1.1-1.2-1.8
			c-0.3-0.7-0.4-1.5-0.4-2.5c0-0.7,0.2-1.5,0.6-2.3c0.4-0.8,1-1.5,1.9-2.1c0.9-0.6,2.2-1.2,3.7-1.6c1.6-0.4,3.5-0.6,5.9-0.6v-0.9
			c0-1.2-0.2-2.1-0.8-2.7s-1.2-0.8-2.1-0.8c-0.7,0-1.3,0.1-1.8,0.2c-0.5,0.2-0.9,0.3-1.2,0.5c-0.4,0.2-0.7,0.4-1.1,0.5
			s-0.8,0.2-1.2,0.2c-0.4,0-0.8-0.1-1.1-0.3s-0.5-0.5-0.7-0.8l-1.1-1.9c1.3-1.1,2.6-1.9,4.2-2.5c1.5-0.5,3.2-0.8,4.9-0.8
			c1.3,0,2.4,0.2,3.4,0.6s1.9,1,2.6,1.7c0.7,0.7,1.2,1.6,1.6,2.6s0.6,2.1,0.6,3.3v13H425.5z M418.4,226.2c0.8,0,1.5-0.1,2.1-0.4
			c0.6-0.3,1.2-0.7,1.8-1.4v-2.8c-1.2,0-2.3,0.1-3.1,0.2s-1.4,0.4-1.9,0.6c-0.5,0.2-0.8,0.5-1,0.8c-0.2,0.3-0.3,0.6-0.3,1
			c0,0.7,0.2,1.2,0.6,1.5C417,226.1,417.6,226.2,418.4,226.2z"/>
		<path d="M432.6,230v-20.7h3.7c0.3,0,0.6,0,0.8,0.1c0.2,0.1,0.4,0.1,0.5,0.2c0.1,0.1,0.2,0.3,0.3,0.5c0.1,0.2,0.1,0.4,0.2,0.7
			l0.3,1.9c0.8-1.2,1.6-2.1,2.6-2.8c0.9-0.7,2-1,3.1-1c0.9,0,1.7,0.2,2.3,0.7l-0.8,4.6c-0.1,0.3-0.2,0.5-0.3,0.6s-0.4,0.2-0.6,0.2
			c-0.2,0-0.5,0-0.8-0.1c-0.3-0.1-0.7-0.1-1.2-0.1c-1.6,0-2.9,0.9-3.8,2.6V230H432.6z"/>
		<path d="M455.1,200.1v16.8h0.9c0.4,0,0.7-0.1,0.9-0.2s0.4-0.3,0.6-0.6l3.9-5.8c0.2-0.3,0.5-0.6,0.8-0.8c0.3-0.2,0.7-0.2,1.2-0.2
			h5.7l-5.4,7.4c-0.3,0.3-0.5,0.7-0.8,0.9s-0.6,0.5-1,0.7c0.6,0.5,1.1,1.1,1.6,1.8l5.8,9.9h-5.6c-0.5,0-0.9-0.1-1.2-0.2
			s-0.6-0.4-0.8-0.8l-3.9-7.3c-0.2-0.3-0.4-0.6-0.6-0.6c-0.2-0.1-0.5-0.2-0.9-0.2h-1.2v9.2h-6.2v-29.9H455.1z"/>
		<path d="M479.5,209c1.4,0,2.6,0.2,3.8,0.6c1.1,0.4,2.1,1,2.9,1.9c0.8,0.8,1.5,1.8,1.9,3c0.5,1.2,0.7,2.5,0.7,4
			c0,0.5,0,0.8-0.1,1.1c0,0.3-0.1,0.5-0.2,0.7c-0.1,0.2-0.2,0.3-0.4,0.4c-0.2,0.1-0.4,0.1-0.7,0.1h-12c0.2,1.7,0.7,3,1.6,3.8
			c0.9,0.8,2,1.2,3.3,1.2c0.7,0,1.3-0.1,1.9-0.3c0.5-0.2,1-0.4,1.4-0.6c0.4-0.2,0.8-0.4,1.1-0.6c0.3-0.2,0.7-0.3,1.1-0.3
			c0.5,0,0.9,0.2,1.1,0.5l1.8,2.2c-0.6,0.7-1.3,1.3-2.1,1.8s-1.5,0.8-2.3,1.1c-0.8,0.3-1.6,0.4-2.3,0.5s-1.5,0.1-2.2,0.1
			c-1.5,0-2.8-0.2-4.1-0.7s-2.4-1.2-3.3-2.1c-1-0.9-1.7-2.1-2.3-3.5c-0.6-1.4-0.8-3-0.8-4.8c0-1.4,0.2-2.7,0.7-3.9
			c0.5-1.2,1.2-2.3,2-3.3c0.9-0.9,2-1.7,3.2-2.2C476.5,209.2,477.9,209,479.5,209z M479.6,213.2c-1.2,0-2.1,0.3-2.8,1
			c-0.7,0.7-1.1,1.6-1.3,2.9h7.7c0-0.5-0.1-1-0.2-1.4s-0.3-0.9-0.6-1.2c-0.3-0.4-0.7-0.7-1.1-0.9
			C480.8,213.4,480.3,213.2,479.6,213.2z"/>
		<path d="M499.5,230.3c-1,0-1.9-0.1-2.6-0.4c-0.8-0.3-1.4-0.7-1.9-1.2c-0.5-0.5-0.9-1.2-1.2-1.9c-0.3-0.7-0.4-1.6-0.4-2.5v-10.7
			h-1.8c-0.3,0-0.6-0.1-0.8-0.3c-0.2-0.2-0.3-0.5-0.3-0.9v-2.4l3.3-0.6l1.2-5.1c0.2-0.6,0.6-1,1.4-1h3.2v6.1h5v4.2h-5v10.3
			c0,0.5,0.1,0.9,0.4,1.2c0.2,0.3,0.6,0.5,1,0.5c0.2,0,0.4,0,0.6-0.1c0.2,0,0.3-0.1,0.4-0.2s0.2-0.1,0.3-0.2c0.1,0,0.2-0.1,0.3-0.1
			c0.2,0,0.3,0,0.5,0.1c0.1,0.1,0.2,0.2,0.3,0.4l1.9,2.9c-0.8,0.6-1.7,1-2.7,1.4C501.6,230.2,500.5,230.3,499.5,230.3z"/>
		<path d="M516.4,230v-19.9h1c0.3,0,0.5,0.2,0.6,0.5l0.2,2.9c0.4-0.5,0.8-1,1.2-1.5c0.4-0.5,0.9-0.8,1.4-1.2s1-0.6,1.6-0.8
			c0.6-0.2,1.2-0.3,1.8-0.3c1.5,0,2.6,0.4,3.5,1.3c0.9,0.8,1.5,2,1.8,3.5c0.2-0.8,0.6-1.5,1-2.1s0.9-1.1,1.5-1.5
			c0.6-0.4,1.2-0.7,1.8-0.9c0.7-0.2,1.3-0.3,2-0.3c1,0,1.9,0.2,2.7,0.5s1.5,0.8,2,1.5c0.6,0.6,1,1.4,1.3,2.4c0.3,0.9,0.4,2,0.4,3.2
			V230h-1.9v-12.7c0-1.9-0.4-3.4-1.3-4.4c-0.8-1-2-1.5-3.6-1.5c-0.7,0-1.4,0.1-2,0.4c-0.6,0.3-1.2,0.6-1.7,1.1s-0.9,1.1-1.2,1.9
			c-0.3,0.7-0.4,1.6-0.4,2.6V230h-1.9v-12.7c0-1.9-0.4-3.4-1.2-4.4c-0.8-1-1.9-1.5-3.4-1.5c-1.1,0-2.1,0.3-3,1
			c-0.9,0.6-1.7,1.5-2.5,2.7v15H516.4z"/>
		<path d="M560.8,230c-0.4,0-0.6-0.2-0.7-0.6l-0.3-2.5c-0.5,0.5-1.1,1-1.6,1.4c-0.5,0.4-1.1,0.8-1.7,1.1c-0.6,0.3-1.2,0.5-1.9,0.7
			c-0.7,0.2-1.4,0.2-2.2,0.2c-0.7,0-1.3-0.1-2-0.3c-0.6-0.2-1.2-0.5-1.7-0.9c-0.5-0.4-0.9-0.9-1.2-1.6c-0.3-0.6-0.5-1.4-0.5-2.3
			c0-0.8,0.2-1.6,0.7-2.3c0.5-0.7,1.2-1.3,2.2-1.9c1-0.5,2.3-1,3.9-1.3c1.6-0.3,3.5-0.5,5.8-0.6v-2.1c0-1.8-0.4-3.3-1.2-4.2
			c-0.8-1-2-1.5-3.5-1.5c-1,0-1.8,0.1-2.5,0.4c-0.7,0.3-1.2,0.6-1.7,0.9c-0.5,0.3-0.8,0.6-1.1,0.9c-0.3,0.3-0.5,0.4-0.7,0.4
			c-0.3,0-0.5-0.1-0.6-0.4l-0.3-0.6c1-1,2.1-1.8,3.3-2.4s2.4-0.8,3.9-0.8c1.1,0,2,0.2,2.8,0.5s1.5,0.8,2,1.5
			c0.5,0.6,0.9,1.4,1.2,2.3c0.3,0.9,0.4,1.9,0.4,3v13H560.8z M552.8,229c0.8,0,1.5-0.1,2.1-0.2c0.6-0.2,1.2-0.4,1.8-0.7
			c0.6-0.3,1.1-0.7,1.5-1.1c0.5-0.4,1-0.9,1.4-1.3v-5.2c-1.9,0.1-3.5,0.2-4.9,0.4c-1.4,0.2-2.5,0.5-3.4,0.9c-0.9,0.4-1.5,0.9-2,1.4
			c-0.4,0.6-0.6,1.2-0.6,1.9c0,0.7,0.1,1.2,0.3,1.7c0.2,0.5,0.5,0.9,0.9,1.2c0.4,0.3,0.8,0.5,1.3,0.7
			C551.8,228.9,552.3,229,552.8,229z"/>
		<path d="M567.4,230v-19.9h1c0.3,0,0.5,0.2,0.6,0.5l0.2,3c0.9-1.1,2-2.1,3.2-2.8c1.2-0.7,2.5-1.1,4-1.1c1.1,0,2.1,0.2,2.9,0.5
			c0.8,0.3,1.5,0.8,2.1,1.5c0.5,0.7,1,1.4,1.2,2.4s0.4,2,0.4,3.1V230h-1.9v-12.7c0-1.9-0.4-3.3-1.3-4.4c-0.9-1.1-2.2-1.6-3.9-1.6
			c-1.3,0-2.5,0.3-3.6,1s-2.1,1.6-3,2.8V230H567.4z"/>
		<path d="M592.2,203.3c0,0.2,0,0.5-0.2,0.7c-0.1,0.2-0.2,0.4-0.4,0.5s-0.3,0.3-0.6,0.4c-0.2,0.1-0.4,0.1-0.7,0.1s-0.5,0-0.7-0.1
			c-0.2-0.1-0.4-0.2-0.6-0.4c-0.2-0.2-0.3-0.3-0.4-0.5c-0.1-0.2-0.1-0.4-0.1-0.7c0-0.2,0-0.5,0.1-0.7c0.1-0.2,0.2-0.4,0.4-0.6
			c0.2-0.2,0.3-0.3,0.6-0.4c0.2-0.1,0.4-0.1,0.7-0.1s0.5,0,0.7,0.1c0.2,0.1,0.4,0.2,0.6,0.4s0.3,0.4,0.4,0.6
			C592.1,202.8,592.2,203,592.2,203.3z M591.3,210.1V230h-1.9v-19.9H591.3z"/>
		<path d="M599,230v-17.8l-2.8-0.2c-0.4,0-0.6-0.2-0.6-0.5v-0.8h3.4v-2.5c0-1.1,0.1-2.1,0.4-3s0.7-1.6,1.2-2.1s1.2-1,1.9-1.3
			s1.6-0.4,2.5-0.4c0.4,0,0.8,0,1.2,0.1s0.8,0.2,1.1,0.3l-0.1,0.9c0,0.2-0.1,0.3-0.4,0.3c-0.2,0-0.4,0-0.7-0.1s-0.6-0.1-1-0.1
			c-0.7,0-1.3,0.1-1.8,0.3c-0.6,0.2-1,0.5-1.4,0.9c-0.4,0.4-0.7,1-0.9,1.7c-0.2,0.7-0.3,1.5-0.3,2.5v2.5h6.5v1.4h-6.4V230H599z"/>
		<path d="M618.4,209.8c1.1,0,2.2,0.2,3.1,0.6c1,0.4,1.8,1,2.5,1.7c0.7,0.7,1.2,1.7,1.6,2.7c0.4,1.1,0.6,2.3,0.6,3.7
			c0,0.3,0,0.5-0.1,0.6c-0.1,0.1-0.2,0.2-0.4,0.2h-14.4v0.4c0,1.5,0.2,2.8,0.5,3.9s0.8,2.1,1.5,2.9c0.6,0.8,1.4,1.3,2.3,1.7
			c0.9,0.4,1.9,0.6,3,0.6c1,0,1.9-0.1,2.6-0.3c0.7-0.2,1.3-0.5,1.8-0.7c0.5-0.3,0.9-0.5,1.2-0.7c0.3-0.2,0.5-0.3,0.6-0.3
			c0.2,0,0.3,0.1,0.4,0.2l0.5,0.6c-0.3,0.4-0.7,0.8-1.3,1.1c-0.5,0.3-1.1,0.6-1.8,0.9c-0.6,0.2-1.3,0.4-2.1,0.6
			c-0.7,0.1-1.5,0.2-2.2,0.2c-1.4,0-2.6-0.2-3.7-0.7s-2.1-1.2-2.9-2.1c-0.8-0.9-1.4-2-1.9-3.3c-0.4-1.3-0.7-2.8-0.7-4.5
			c0-1.4,0.2-2.7,0.6-4c0.4-1.2,1-2.2,1.8-3.1c0.8-0.9,1.7-1.6,2.8-2C615.8,210,617,209.8,618.4,209.8z M618.5,211.2
			c-1,0-1.9,0.2-2.8,0.5c-0.8,0.3-1.5,0.8-2.1,1.4c-0.6,0.6-1.1,1.3-1.4,2.2c-0.4,0.8-0.6,1.8-0.7,2.8h13.1c0-1.1-0.1-2-0.4-2.9
			c-0.3-0.8-0.7-1.6-1.2-2.1c-0.5-0.6-1.2-1-1.9-1.4C620.2,211.4,619.4,211.2,618.5,211.2z"/>
		<path d="M642.2,212.6c-0.1,0.2-0.2,0.3-0.4,0.3c-0.1,0-0.3-0.1-0.6-0.2c-0.2-0.2-0.5-0.4-0.9-0.6c-0.4-0.2-0.8-0.4-1.4-0.6
			c-0.6-0.2-1.2-0.2-2-0.2c-0.7,0-1.4,0.1-2,0.3c-0.6,0.2-1.1,0.5-1.5,0.8c-0.4,0.3-0.7,0.7-1,1.2c-0.2,0.5-0.4,0.9-0.4,1.4
			c0,0.6,0.2,1.1,0.5,1.6s0.7,0.8,1.3,1.1c0.5,0.3,1.1,0.5,1.8,0.8s1.3,0.4,2,0.6s1.4,0.5,2,0.7s1.2,0.6,1.8,1
			c0.5,0.4,0.9,0.9,1.3,1.4s0.5,1.2,0.5,2c0,0.9-0.2,1.7-0.5,2.4s-0.8,1.4-1.4,1.9c-0.6,0.5-1.3,1-2.2,1.3c-0.9,0.3-1.9,0.5-3,0.5
			c-1.4,0-2.6-0.2-3.6-0.7c-1-0.4-1.9-1-2.7-1.8l0.5-0.7c0.1-0.1,0.1-0.2,0.2-0.2s0.2-0.1,0.3-0.1c0.2,0,0.4,0.1,0.6,0.3
			c0.3,0.2,0.6,0.4,1,0.7c0.4,0.2,0.9,0.5,1.5,0.7c0.6,0.2,1.4,0.3,2.2,0.3c0.8,0,1.6-0.1,2.2-0.4c0.6-0.2,1.2-0.5,1.6-0.9
			s0.8-0.9,1-1.4c0.2-0.5,0.3-1.1,0.3-1.7c0-0.7-0.2-1.2-0.5-1.7s-0.7-0.8-1.3-1.1c-0.5-0.3-1.1-0.6-1.8-0.8c-0.7-0.2-1.3-0.4-2-0.6
			c-0.7-0.2-1.4-0.4-2-0.7c-0.7-0.3-1.2-0.6-1.8-1c-0.5-0.4-0.9-0.9-1.3-1.4c-0.3-0.6-0.5-1.2-0.5-2.1c0-0.7,0.2-1.4,0.5-2
			s0.7-1.2,1.3-1.7c0.6-0.5,1.3-0.9,2.1-1.2s1.7-0.4,2.7-0.4c1.2,0,2.3,0.2,3.2,0.5c0.9,0.4,1.8,0.9,2.6,1.6L642.2,212.6z"/>
		<path d="M653.7,230.3c-1.3,0-2.4-0.4-3.1-1.1c-0.7-0.7-1.1-1.9-1.1-3.5v-13.6h-2.9c-0.1,0-0.3,0-0.4-0.1c-0.1-0.1-0.1-0.2-0.1-0.3
			V211l3.4-0.2l0.5-7.1c0-0.1,0.1-0.2,0.1-0.3c0.1-0.1,0.2-0.1,0.3-0.1h0.9v7.6h6.3v1.4h-6.3v13.5c0,0.5,0.1,1,0.2,1.4
			c0.1,0.4,0.3,0.7,0.6,1c0.2,0.3,0.5,0.4,0.9,0.6s0.7,0.2,1.1,0.2c0.5,0,0.9-0.1,1.2-0.2c0.3-0.1,0.6-0.3,0.9-0.5
			c0.3-0.2,0.5-0.3,0.6-0.5c0.2-0.1,0.3-0.2,0.4-0.2c0.1,0,0.2,0.1,0.3,0.2l0.5,0.8c-0.5,0.6-1.1,1-1.9,1.4S654.5,230.3,653.7,230.3
			z"/>
		<path d="M669.9,209.8c1.4,0,2.7,0.2,3.8,0.7c1.1,0.5,2.1,1.2,2.8,2.1c0.8,0.9,1.4,2,1.8,3.2c0.4,1.3,0.6,2.7,0.6,4.2
			s-0.2,3-0.6,4.2c-0.4,1.3-1,2.3-1.8,3.2c-0.8,0.9-1.7,1.6-2.8,2.1c-1.1,0.5-2.4,0.7-3.8,0.7c-1.4,0-2.7-0.2-3.8-0.7
			c-1.1-0.5-2.1-1.2-2.9-2.1c-0.8-0.9-1.4-2-1.8-3.2c-0.4-1.3-0.6-2.7-0.6-4.2s0.2-3,0.6-4.2c0.4-1.3,1-2.3,1.8-3.2
			c0.8-0.9,1.7-1.6,2.9-2.1C667.2,210,668.5,209.8,669.9,209.8z M669.9,228.8c1.2,0,2.2-0.2,3.1-0.6c0.9-0.4,1.6-1,2.2-1.8
			c0.6-0.8,1-1.7,1.3-2.8c0.3-1.1,0.4-2.3,0.4-3.6c0-1.3-0.1-2.5-0.4-3.6c-0.3-1.1-0.7-2-1.3-2.8c-0.6-0.8-1.3-1.4-2.2-1.8
			c-0.9-0.4-1.9-0.6-3.1-0.6c-1.2,0-2.2,0.2-3.1,0.6c-0.9,0.4-1.6,1-2.2,1.8c-0.6,0.8-1,1.7-1.3,2.8c-0.3,1.1-0.5,2.3-0.5,3.6
			c0,1.3,0.1,2.5,0.5,3.6c0.3,1.1,0.7,2,1.3,2.8c0.6,0.8,1.3,1.3,2.2,1.8C667.7,228.6,668.7,228.8,669.9,228.8z"/>
	</g>
</g>
<g id="Layer_5">
</g>
</svg>
