<?xml version="1.0" encoding="utf-8"?>
<!-- Generator: Adobe Illustrator 18.0.0, SVG Export Plug-In . SVG Version: 6.00 Build 0)  -->
<!DOCTYPE svg PUBLIC "-//W3C//DTD SVG 1.1//EN" "http://www.w3.org/Graphics/SVG/1.1/DTD/svg11.dtd">
<svg version="1.1" xmlns="http://www.w3.org/2000/svg" xmlns:xlink="http://www.w3.org/1999/xlink" x="0px" y="0px"
	 viewBox="0 -48 800 531" enable-background="new 0 -48 800 531" xml:space="preserve">
<g id="_x31_">
	<g>
		<path fill="#231F20" d="M210.7,176.7v1.7h-9.9V205h-2v-26.6h-10v-1.7H210.7z"/>
		<path fill="#231F20" d="M217.7,184.7c1.4,0,2.7,0.2,3.8,0.7c1.1,0.5,2.1,1.2,2.9,2.1c0.8,0.9,1.4,2,1.8,3.2
			c0.4,1.3,0.6,2.7,0.6,4.2s-0.2,3-0.6,4.2c-0.4,1.3-1,2.3-1.8,3.2c-0.8,0.9-1.7,1.6-2.9,2.1c-1.1,0.5-2.4,0.7-3.8,0.7
			s-2.7-0.2-3.8-0.7c-1.1-0.5-2.1-1.2-2.9-2.1c-0.8-0.9-1.4-2-1.8-3.2c-0.4-1.3-0.6-2.7-0.6-4.2s0.2-3,0.6-4.2
			c0.4-1.3,1-2.3,1.8-3.2c0.8-0.9,1.7-1.6,2.9-2.1C215,185,216.3,184.7,217.7,184.7z M217.7,203.7c1.2,0,2.2-0.2,3.1-0.6
			c0.9-0.4,1.6-1,2.2-1.8c0.6-0.8,1-1.7,1.3-2.8c0.3-1.1,0.4-2.3,0.4-3.6c0-1.3-0.1-2.5-0.4-3.6c-0.3-1.1-0.7-2-1.3-2.8
			c-0.6-0.8-1.3-1.4-2.2-1.8c-0.9-0.4-1.9-0.6-3.1-0.6s-2.2,0.2-3.1,0.6c-0.9,0.4-1.6,1-2.2,1.8c-0.6,0.8-1,1.7-1.3,2.8
			c-0.3,1.1-0.4,2.3-0.4,3.6c0,1.3,0.1,2.5,0.4,3.6c0.3,1.1,0.7,2,1.3,2.8c0.6,0.8,1.3,1.3,2.2,1.8
			C215.5,203.5,216.5,203.7,217.7,203.7z"/>
		<path fill="#231F20" d="M239.2,212v-26.9h1c0.2,0,0.3,0,0.4,0.1c0.1,0.1,0.2,0.2,0.2,0.4l0.2,3.1c0.9-1.2,1.9-2.2,3.1-2.9
			c1.2-0.7,2.5-1.1,4-1.1c2.5,0,4.4,0.8,5.7,2.5c1.4,1.7,2,4.2,2,7.6c0,1.5-0.2,2.8-0.6,4.1c-0.4,1.3-0.9,2.4-1.7,3.3
			c-0.7,0.9-1.6,1.7-2.7,2.2c-1.1,0.5-2.3,0.8-3.7,0.8c-1.4,0-2.5-0.2-3.5-0.7c-1-0.5-1.8-1.2-2.6-2.2v9.7H239.2z M247.5,186.3
			c-1.3,0-2.5,0.3-3.6,1c-1.1,0.7-2,1.6-2.9,2.9v10.4c0.8,1.1,1.6,2,2.5,2.4s2,0.7,3.2,0.7c1.2,0,2.2-0.2,3.1-0.6s1.6-1,2.2-1.8
			c0.6-0.8,1-1.7,1.3-2.8c0.3-1.1,0.4-2.3,0.4-3.6c0-3-0.5-5.1-1.6-6.5C251.1,187,249.6,186.3,247.5,186.3z"/>
		<path fill="#231F20" d="M261.8,185.1v12.7c0,1.9,0.4,3.3,1.3,4.4c0.9,1.1,2.2,1.6,3.9,1.6c1.3,0,2.5-0.3,3.6-1
			c1.1-0.7,2.1-1.6,3-2.8v-15h1.9V205h-1c-0.4,0-0.6-0.2-0.6-0.5l-0.2-3c-0.9,1.1-2,2.1-3.2,2.8c-1.2,0.7-2.6,1-4,1
			c-1.1,0-2.1-0.2-2.9-0.5c-0.8-0.3-1.5-0.8-2.1-1.5c-0.5-0.7-1-1.4-1.2-2.4c-0.3-0.9-0.4-2-0.4-3.1v-12.7H261.8z"/>
		<path fill="#231F20" d="M292.9,187.5c-0.1,0.2-0.2,0.3-0.4,0.3c-0.1,0-0.3-0.1-0.6-0.2c-0.2-0.2-0.5-0.4-0.9-0.6
			c-0.4-0.2-0.8-0.4-1.4-0.6c-0.6-0.2-1.2-0.2-2-0.2c-0.7,0-1.4,0.1-2,0.3c-0.6,0.2-1.1,0.5-1.5,0.8c-0.4,0.3-0.7,0.7-1,1.2
			c-0.2,0.5-0.4,0.9-0.4,1.4c0,0.6,0.2,1.1,0.5,1.6s0.7,0.8,1.3,1.1c0.5,0.3,1.1,0.5,1.8,0.8c0.7,0.2,1.3,0.4,2,0.6
			c0.7,0.2,1.4,0.5,2,0.7c0.7,0.3,1.2,0.6,1.8,1s0.9,0.9,1.3,1.4c0.3,0.6,0.5,1.2,0.5,2c0,0.9-0.2,1.7-0.5,2.4s-0.8,1.4-1.4,1.9
			c-0.6,0.5-1.3,1-2.2,1.3c-0.9,0.3-1.9,0.5-3,0.5c-1.4,0-2.6-0.2-3.6-0.7c-1-0.4-1.9-1-2.7-1.8l0.5-0.7c0.1-0.1,0.1-0.2,0.2-0.2
			s0.2-0.1,0.3-0.1c0.2,0,0.4,0.1,0.6,0.3s0.6,0.4,1,0.7c0.4,0.2,0.9,0.5,1.5,0.7c0.6,0.2,1.4,0.3,2.2,0.3c0.8,0,1.6-0.1,2.2-0.4
			c0.6-0.2,1.2-0.5,1.6-0.9s0.8-0.9,1-1.4c0.2-0.5,0.3-1.1,0.3-1.7c0-0.7-0.2-1.2-0.5-1.7c-0.3-0.4-0.7-0.8-1.3-1.1
			s-1.1-0.6-1.8-0.8c-0.7-0.2-1.3-0.4-2-0.6c-0.7-0.2-1.4-0.4-2-0.7s-1.2-0.6-1.8-1s-0.9-0.9-1.3-1.4c-0.3-0.6-0.5-1.2-0.5-2.1
			c0-0.7,0.2-1.4,0.5-2c0.3-0.7,0.7-1.2,1.3-1.7c0.6-0.5,1.3-0.9,2.1-1.2c0.8-0.3,1.7-0.4,2.7-0.4c1.2,0,2.3,0.2,3.2,0.5
			c0.9,0.4,1.8,0.9,2.6,1.6L292.9,187.5z"/>
		<path fill="#231F20" d="M298.9,205v-29.1h1.9v12.6c0.9-1.1,2-2,3.1-2.7s2.5-1,4-1c1.1,0,2.1,0.2,2.9,0.5c0.8,0.3,1.5,0.8,2.1,1.5
			c0.5,0.7,1,1.4,1.2,2.4c0.3,0.9,0.4,2,0.4,3.1V205h-1.9v-12.7c0-1.9-0.4-3.3-1.3-4.4c-0.9-1.1-2.2-1.6-3.9-1.6
			c-1.3,0-2.5,0.3-3.6,1c-1.1,0.7-2.1,1.6-3,2.8V205H298.9z"/>
		<path fill="#231F20" d="M328.7,205v-17.8l-2.8-0.2c-0.4,0-0.6-0.2-0.6-0.5v-0.8h3.4v-2.5c0-1.1,0.1-2.1,0.4-3
			c0.3-0.9,0.7-1.6,1.2-2.1c0.5-0.6,1.2-1,1.9-1.3s1.6-0.4,2.5-0.4c0.4,0,0.8,0,1.2,0.1s0.8,0.2,1.1,0.3l-0.1,0.9
			c0,0.2-0.1,0.3-0.4,0.3c-0.2,0-0.4,0-0.6-0.1c-0.3,0-0.6-0.1-1-0.1c-0.7,0-1.3,0.1-1.8,0.3c-0.6,0.2-1,0.5-1.4,0.9s-0.7,1-0.9,1.7
			c-0.2,0.7-0.3,1.5-0.3,2.5v2.5h6.5v1.4h-6.4V205H328.7z"/>
		<path fill="#231F20" d="M348.3,184.7c1.4,0,2.7,0.2,3.8,0.7c1.1,0.5,2.1,1.2,2.9,2.1c0.8,0.9,1.4,2,1.8,3.2
			c0.4,1.3,0.6,2.7,0.6,4.2s-0.2,3-0.6,4.2c-0.4,1.3-1,2.3-1.8,3.2c-0.8,0.9-1.7,1.6-2.9,2.1c-1.1,0.5-2.4,0.7-3.8,0.7
			s-2.7-0.2-3.8-0.7c-1.1-0.5-2.1-1.2-2.9-2.1c-0.8-0.9-1.4-2-1.8-3.2c-0.4-1.3-0.6-2.7-0.6-4.2s0.2-3,0.6-4.2
			c0.4-1.3,1-2.3,1.8-3.2c0.8-0.9,1.7-1.6,2.9-2.1C345.6,185,346.9,184.7,348.3,184.7z M348.3,203.7c1.2,0,2.2-0.2,3.1-0.6
			c0.9-0.4,1.6-1,2.2-1.8c0.6-0.8,1-1.7,1.3-2.8c0.3-1.1,0.4-2.3,0.4-3.6c0-1.3-0.1-2.5-0.4-3.6c-0.3-1.1-0.7-2-1.3-2.8
			c-0.6-0.8-1.3-1.4-2.2-1.8c-0.9-0.4-1.9-0.6-3.1-0.6s-2.2,0.2-3.1,0.6c-0.9,0.4-1.6,1-2.2,1.8c-0.6,0.8-1,1.7-1.3,2.8
			c-0.3,1.1-0.4,2.3-0.4,3.6c0,1.3,0.1,2.5,0.4,3.6c0.3,1.1,0.7,2,1.3,2.8c0.6,0.8,1.3,1.3,2.2,1.8
			C346.1,203.5,347.1,203.7,348.3,203.7z"/>
		<path fill="#231F20" d="M362.2,205v-19.9h1c0.2,0,0.4,0,0.5,0.1s0.2,0.3,0.2,0.5l0.2,4.2c0.6-1.6,1.5-2.9,2.6-3.8
			c1.1-0.9,2.4-1.4,3.9-1.4c0.6,0,1.2,0.1,1.7,0.2c0.5,0.1,1,0.3,1.4,0.5l-0.3,1.3c0,0.2-0.2,0.3-0.4,0.3c-0.1,0-0.2,0-0.3-0.1
			c-0.1-0.1-0.3-0.1-0.6-0.2c-0.2-0.1-0.5-0.1-0.8-0.2c-0.3-0.1-0.7-0.1-1.1-0.1c-1.5,0-2.7,0.5-3.7,1.4c-1,0.9-1.8,2.3-2.4,4V205
			H362.2z"/>
		<path fill="#231F20" d="M386.9,185.1v12.7c0,1.9,0.4,3.3,1.3,4.4c0.9,1.1,2.2,1.6,3.9,1.6c1.3,0,2.5-0.3,3.6-1
			c1.1-0.7,2.1-1.6,3-2.8v-15h1.9V205h-1c-0.4,0-0.6-0.2-0.6-0.5l-0.2-3c-0.9,1.1-2,2.1-3.2,2.8c-1.2,0.7-2.6,1-4,1
			c-1.1,0-2.1-0.2-2.9-0.5c-0.8-0.3-1.5-0.8-2.1-1.5c-0.5-0.7-1-1.4-1.2-2.4c-0.3-0.9-0.4-2-0.4-3.1v-12.7H386.9z"/>
		<path fill="#231F20" d="M417.9,187.5c-0.1,0.2-0.2,0.3-0.4,0.3c-0.1,0-0.3-0.1-0.6-0.2c-0.2-0.2-0.5-0.4-0.9-0.6
			c-0.4-0.2-0.8-0.4-1.4-0.6c-0.6-0.2-1.2-0.2-2-0.2c-0.7,0-1.4,0.1-2,0.3c-0.6,0.2-1.1,0.5-1.5,0.8c-0.4,0.3-0.7,0.7-1,1.2
			c-0.2,0.5-0.3,0.9-0.3,1.4c0,0.6,0.2,1.1,0.5,1.6c0.3,0.4,0.7,0.8,1.3,1.1c0.5,0.3,1.1,0.5,1.8,0.8s1.3,0.4,2,0.6
			c0.7,0.2,1.4,0.5,2,0.7c0.7,0.3,1.2,0.6,1.8,1c0.5,0.4,0.9,0.9,1.3,1.4s0.5,1.2,0.5,2c0,0.9-0.2,1.7-0.5,2.4s-0.8,1.4-1.4,1.9
			c-0.6,0.5-1.3,1-2.2,1.3c-0.9,0.3-1.9,0.5-3,0.5c-1.4,0-2.6-0.2-3.6-0.7c-1-0.4-1.9-1-2.7-1.8l0.5-0.7c0.1-0.1,0.1-0.2,0.2-0.2
			s0.2-0.1,0.3-0.1c0.2,0,0.4,0.1,0.6,0.3c0.3,0.2,0.6,0.4,1,0.7c0.4,0.2,0.9,0.5,1.5,0.7s1.4,0.3,2.2,0.3c0.8,0,1.6-0.1,2.2-0.4
			c0.6-0.2,1.2-0.5,1.6-0.9s0.8-0.9,1-1.4s0.3-1.1,0.3-1.7c0-0.7-0.2-1.2-0.5-1.7c-0.3-0.4-0.7-0.8-1.3-1.1
			c-0.5-0.3-1.1-0.6-1.8-0.8c-0.7-0.2-1.3-0.4-2-0.6c-0.7-0.2-1.4-0.4-2-0.7s-1.2-0.6-1.8-1c-0.5-0.4-0.9-0.9-1.3-1.4
			s-0.5-1.2-0.5-2.1c0-0.7,0.2-1.4,0.5-2c0.3-0.7,0.7-1.2,1.3-1.7c0.6-0.5,1.3-0.9,2.1-1.2c0.8-0.3,1.7-0.4,2.7-0.4
			c1.2,0,2.3,0.2,3.2,0.5c0.9,0.4,1.8,0.9,2.6,1.6L417.9,187.5z"/>
		<path fill="#231F20" d="M436.7,205c-0.4,0-0.6-0.2-0.7-0.6l-0.3-2.5c-0.5,0.5-1.1,1-1.6,1.4c-0.5,0.4-1.1,0.8-1.7,1.1
			c-0.6,0.3-1.2,0.5-1.9,0.7c-0.7,0.2-1.4,0.2-2.2,0.2c-0.7,0-1.3-0.1-2-0.3c-0.6-0.2-1.2-0.5-1.7-0.9c-0.5-0.4-0.9-0.9-1.2-1.6
			c-0.3-0.6-0.5-1.4-0.5-2.3c0-0.8,0.2-1.6,0.7-2.3c0.5-0.7,1.2-1.3,2.2-1.9c1-0.5,2.3-1,3.9-1.3c1.6-0.3,3.5-0.5,5.8-0.6V192
			c0-1.8-0.4-3.3-1.2-4.2c-0.8-1-2-1.5-3.5-1.5c-1,0-1.8,0.1-2.5,0.4c-0.7,0.3-1.2,0.6-1.7,0.9c-0.5,0.3-0.8,0.6-1.1,0.9
			c-0.3,0.3-0.5,0.4-0.7,0.4c-0.3,0-0.5-0.1-0.6-0.4l-0.3-0.6c1-1,2.1-1.8,3.3-2.4c1.1-0.5,2.4-0.8,3.9-0.8c1.1,0,2,0.2,2.8,0.5
			c0.8,0.3,1.5,0.8,2,1.5c0.5,0.6,0.9,1.4,1.2,2.3c0.3,0.9,0.4,1.9,0.4,3v13H436.7z M428.7,203.9c0.8,0,1.5-0.1,2.1-0.2
			c0.6-0.2,1.2-0.4,1.8-0.7c0.6-0.3,1.1-0.7,1.5-1.1c0.5-0.4,1-0.9,1.4-1.3v-5.2c-1.9,0.1-3.5,0.2-4.9,0.4c-1.4,0.2-2.5,0.5-3.4,0.9
			c-0.9,0.4-1.5,0.9-2,1.4c-0.4,0.6-0.6,1.2-0.6,1.9c0,0.7,0.1,1.2,0.3,1.7s0.5,0.9,0.9,1.2c0.4,0.3,0.8,0.5,1.3,0.7
			C427.7,203.8,428.2,203.9,428.7,203.9z"/>
		<path fill="#231F20" d="M449.8,184.7c0.9,0,1.7,0.1,2.4,0.3c0.7,0.2,1.4,0.5,2,0.9h5.1v0.7c0,0.3-0.2,0.5-0.6,0.5l-3,0.2
			c0.4,0.5,0.7,1.1,0.9,1.7c0.2,0.6,0.3,1.3,0.3,2c0,1-0.2,1.8-0.5,2.6s-0.8,1.4-1.5,2s-1.4,1-2.2,1.3c-0.9,0.3-1.8,0.5-2.9,0.5
			c-1.1,0-2.2-0.2-3.1-0.5c-0.6,0.3-1,0.7-1.3,1.1s-0.5,0.9-0.5,1.3c0,0.6,0.2,1,0.6,1.3c0.4,0.3,0.9,0.5,1.6,0.7
			c0.7,0.1,1.4,0.2,2.3,0.3s1.7,0.1,2.6,0.1c0.9,0,1.7,0.1,2.6,0.2s1.6,0.3,2.3,0.6c0.7,0.3,1.2,0.7,1.6,1.3
			c0.4,0.5,0.6,1.3,0.6,2.1c0,0.8-0.2,1.6-0.6,2.4c-0.4,0.8-1,1.4-1.8,2c-0.8,0.6-1.7,1.1-2.8,1.4c-1.1,0.4-2.3,0.5-3.7,0.5
			c-1.4,0-2.6-0.1-3.7-0.4c-1.1-0.3-1.9-0.7-2.6-1.2c-0.7-0.5-1.2-1.1-1.6-1.7c-0.4-0.6-0.5-1.3-0.5-2c0-1.1,0.3-2,1-2.7
			c0.7-0.8,1.6-1.3,2.9-1.8c-0.7-0.2-1.2-0.6-1.6-1c-0.4-0.4-0.6-1-0.6-1.8c0-0.3,0.1-0.6,0.2-0.9c0.1-0.3,0.3-0.6,0.5-0.9
			c0.2-0.3,0.5-0.6,0.8-0.8c0.3-0.3,0.7-0.5,1.1-0.7c-0.9-0.5-1.7-1.3-2.2-2.2c-0.5-0.9-0.8-2-0.8-3.2c0-1,0.2-1.8,0.5-2.6
			c0.3-0.8,0.8-1.4,1.4-2s1.4-1,2.2-1.3S448.8,184.7,449.8,184.7z M457.2,206.3c0-0.6-0.2-1.1-0.5-1.5c-0.3-0.4-0.8-0.7-1.3-0.9
			c-0.5-0.2-1.2-0.4-1.9-0.4c-0.7-0.1-1.5-0.2-2.2-0.2c-0.8,0-1.6-0.1-2.3-0.1c-0.8,0-1.5-0.1-2.2-0.2c-0.5,0.2-1,0.4-1.4,0.7
			c-0.4,0.3-0.8,0.6-1.1,0.9c-0.3,0.3-0.5,0.7-0.7,1.1c-0.2,0.4-0.3,0.8-0.3,1.3c0,0.6,0.2,1.1,0.5,1.6s0.7,0.9,1.3,1.3
			c0.6,0.4,1.3,0.7,2.1,0.9c0.8,0.2,1.8,0.3,2.9,0.3c1,0,2-0.1,2.8-0.3c0.9-0.2,1.6-0.5,2.3-1c0.6-0.4,1.2-0.9,1.5-1.5
			C457,207.6,457.2,207,457.2,206.3z M449.8,196.2c0.9,0,1.6-0.1,2.3-0.4s1.2-0.6,1.7-1c0.5-0.4,0.8-1,1-1.6s0.4-1.3,0.4-2
			s-0.1-1.4-0.4-2.1s-0.6-1.1-1-1.6s-1-0.8-1.7-1c-0.7-0.2-1.4-0.4-2.2-0.4c-0.8,0-1.6,0.1-2.3,0.4c-0.7,0.2-1.2,0.6-1.7,1
			s-0.8,1-1.1,1.6c-0.2,0.6-0.4,1.3-0.4,2.1s0.1,1.4,0.4,2c0.2,0.6,0.6,1.1,1.1,1.6c0.5,0.4,1,0.8,1.7,1S449,196.2,449.8,196.2z"/>
		<path fill="#231F20" d="M470.8,184.7c1.1,0,2.2,0.2,3.1,0.6c1,0.4,1.8,1,2.5,1.7c0.7,0.7,1.2,1.7,1.6,2.7c0.4,1.1,0.6,2.3,0.6,3.7
			c0,0.3,0,0.5-0.1,0.6c-0.1,0.1-0.2,0.2-0.4,0.2h-14.4v0.4c0,1.5,0.2,2.8,0.5,3.9s0.8,2.1,1.5,2.9c0.6,0.8,1.4,1.3,2.3,1.7
			s1.9,0.6,3,0.6c1,0,1.9-0.1,2.6-0.3c0.7-0.2,1.3-0.5,1.8-0.7c0.5-0.3,0.9-0.5,1.2-0.7c0.3-0.2,0.5-0.3,0.6-0.3
			c0.2,0,0.3,0.1,0.4,0.2l0.5,0.6c-0.3,0.4-0.7,0.8-1.3,1.1c-0.5,0.3-1.1,0.6-1.8,0.9c-0.6,0.2-1.3,0.4-2.1,0.6
			c-0.7,0.1-1.5,0.2-2.2,0.2c-1.4,0-2.6-0.2-3.7-0.7c-1.1-0.5-2.1-1.2-2.9-2.1s-1.4-2-1.9-3.3c-0.4-1.3-0.7-2.8-0.7-4.5
			c0-1.4,0.2-2.7,0.6-4c0.4-1.2,1-2.2,1.8-3.1c0.8-0.9,1.7-1.6,2.8-2C468.1,185,469.4,184.7,470.8,184.7z M470.8,186.2
			c-1,0-1.9,0.2-2.8,0.5c-0.8,0.3-1.5,0.8-2.1,1.4s-1.1,1.3-1.4,2.2c-0.4,0.8-0.6,1.8-0.7,2.8h13.1c0-1.1-0.1-2-0.4-2.9
			c-0.3-0.8-0.7-1.6-1.2-2.1c-0.5-0.6-1.2-1-1.9-1.4C472.6,186.3,471.7,186.2,470.8,186.2z"/>
		<path fill="#231F20" d="M498.7,184.7c1.4,0,2.7,0.2,3.8,0.7c1.1,0.5,2.1,1.2,2.8,2.1c0.8,0.9,1.4,2,1.8,3.2
			c0.4,1.3,0.6,2.7,0.6,4.2s-0.2,3-0.6,4.2c-0.4,1.3-1,2.3-1.8,3.2c-0.8,0.9-1.7,1.6-2.8,2.1c-1.1,0.5-2.4,0.7-3.8,0.7
			c-1.4,0-2.7-0.2-3.8-0.7c-1.1-0.5-2.1-1.2-2.9-2.1c-0.8-0.9-1.4-2-1.8-3.2c-0.4-1.3-0.6-2.7-0.6-4.2s0.2-3,0.6-4.2
			c0.4-1.3,1-2.3,1.8-3.2c0.8-0.9,1.7-1.6,2.9-2.1C496,185,497.3,184.7,498.7,184.7z M498.7,203.7c1.2,0,2.2-0.2,3.1-0.6
			c0.9-0.4,1.6-1,2.2-1.8c0.6-0.8,1-1.7,1.3-2.8c0.3-1.1,0.4-2.3,0.4-3.6c0-1.3-0.1-2.5-0.4-3.6c-0.3-1.1-0.7-2-1.3-2.8
			c-0.6-0.8-1.3-1.4-2.2-1.8c-0.9-0.4-1.9-0.6-3.1-0.6c-1.2,0-2.2,0.2-3.1,0.6c-0.9,0.4-1.6,1-2.2,1.8c-0.6,0.8-1,1.7-1.3,2.8
			c-0.3,1.1-0.5,2.3-0.5,3.6c0,1.3,0.1,2.5,0.5,3.6c0.3,1.1,0.7,2,1.3,2.8c0.6,0.8,1.3,1.3,2.2,1.8
			C496.5,203.5,497.5,203.7,498.7,203.7z"/>
		<path fill="#231F20" d="M513.4,205v-17.8l-2.8-0.2c-0.4,0-0.6-0.2-0.6-0.5v-0.8h3.4v-2.5c0-1.1,0.1-2.1,0.4-3s0.7-1.6,1.2-2.1
			s1.2-1,1.9-1.3s1.6-0.4,2.5-0.4c0.4,0,0.8,0,1.2,0.1s0.8,0.2,1.1,0.3l-0.1,0.9c0,0.2-0.1,0.3-0.4,0.3c-0.2,0-0.4,0-0.7-0.1
			s-0.6-0.1-1-0.1c-0.7,0-1.3,0.1-1.8,0.3c-0.6,0.2-1,0.5-1.4,0.9c-0.4,0.4-0.7,1-0.9,1.7c-0.2,0.7-0.3,1.5-0.3,2.5v2.5h6.5v1.4
			h-6.4V205H513.4z"/>
		<path fill="#231F20" d="M538.5,175V205h-6.2V175H538.5z"/>
		<path fill="#231F20" d="M552.5,183.9c1.6,0,3,0.2,4.3,0.7c1.3,0.5,2.4,1.2,3.3,2.1c0.9,0.9,1.6,2,2.2,3.4c0.5,1.3,0.8,2.8,0.8,4.4
			c0,1.7-0.3,3.1-0.8,4.5c-0.5,1.3-1.2,2.5-2.2,3.4s-2,1.6-3.3,2.1c-1.3,0.5-2.7,0.8-4.3,0.8c-1.6,0-3-0.2-4.3-0.8
			c-1.3-0.5-2.4-1.2-3.4-2.1c-0.9-0.9-1.7-2.1-2.2-3.4c-0.5-1.3-0.8-2.8-0.8-4.5c0-1.6,0.3-3.1,0.8-4.4c0.5-1.3,1.2-2.4,2.2-3.4
			c0.9-0.9,2.1-1.6,3.4-2.1C549.5,184.1,550.9,183.9,552.5,183.9z M552.5,200.7c1.4,0,2.5-0.5,3.2-1.5c0.7-1,1-2.5,1-4.6
			s-0.3-3.6-1-4.6c-0.7-1-1.7-1.5-3.2-1.5c-1.5,0-2.5,0.5-3.2,1.5s-1,2.5-1,4.6s0.3,3.6,1,4.6C550,200.2,551.1,200.7,552.5,200.7z"
			/>
		<path fill="#231F20" d="M581.3,189.1c-0.2,0.2-0.4,0.4-0.5,0.5c-0.2,0.1-0.4,0.2-0.7,0.2c-0.3,0-0.6-0.1-0.8-0.2
			c-0.2-0.1-0.5-0.3-0.8-0.5s-0.7-0.3-1.1-0.5c-0.4-0.1-0.9-0.2-1.5-0.2c-0.8,0-1.4,0.1-2,0.4c-0.6,0.3-1,0.7-1.4,1.2
			s-0.6,1.2-0.8,1.9c-0.2,0.8-0.3,1.6-0.3,2.6c0,2,0.4,3.5,1.1,4.6s1.8,1.6,3.2,1.6c0.7,0,1.3-0.1,1.7-0.3c0.4-0.2,0.8-0.4,1.1-0.6
			c0.3-0.2,0.6-0.4,0.8-0.6c0.2-0.2,0.6-0.3,0.9-0.3c0.5,0,0.9,0.2,1.1,0.5l1.8,2.2c-0.6,0.7-1.3,1.3-2,1.8
			c-0.7,0.5-1.4,0.8-2.2,1.1c-0.7,0.3-1.5,0.4-2.2,0.5c-0.7,0.1-1.5,0.1-2.2,0.1c-1.3,0-2.5-0.2-3.6-0.7s-2.2-1.2-3-2.1
			c-0.9-0.9-1.6-2-2.1-3.4c-0.5-1.3-0.8-2.9-0.8-4.6c0-1.5,0.2-2.9,0.7-4.2c0.4-1.3,1.1-2.4,2-3.4c0.9-1,2-1.7,3.2-2.2
			c1.3-0.5,2.8-0.8,4.5-0.8c1.6,0,3.1,0.3,4.3,0.8s2.3,1.3,3.3,2.3L581.3,189.1z"/>
		<path fill="#231F20" d="M599.9,205c-0.6,0-1-0.1-1.3-0.2c-0.3-0.2-0.5-0.5-0.8-1l-0.4-1.1c-0.5,0.4-1,0.8-1.5,1.2
			c-0.5,0.3-1,0.6-1.5,0.9c-0.5,0.2-1.1,0.4-1.6,0.5s-1.2,0.2-1.9,0.2c-0.9,0-1.8-0.1-2.6-0.4s-1.4-0.6-2-1.1
			c-0.5-0.5-1-1.1-1.2-1.8c-0.3-0.7-0.4-1.5-0.4-2.5c0-0.7,0.2-1.5,0.6-2.3c0.4-0.8,1-1.5,1.9-2.1c0.9-0.6,2.2-1.2,3.7-1.6
			c1.6-0.4,3.5-0.6,5.9-0.6V192c0-1.2-0.2-2.1-0.8-2.7s-1.2-0.8-2.1-0.8c-0.7,0-1.3,0.1-1.8,0.2c-0.5,0.2-0.9,0.3-1.2,0.5
			c-0.4,0.2-0.7,0.4-1.1,0.5s-0.8,0.2-1.2,0.2c-0.4,0-0.8-0.1-1.1-0.3c-0.3-0.2-0.5-0.5-0.7-0.8l-1.1-1.9c1.3-1.1,2.6-1.9,4.2-2.5
			c1.5-0.5,3.2-0.8,4.9-0.8c1.3,0,2.4,0.2,3.4,0.6s1.9,1,2.6,1.7c0.7,0.7,1.2,1.6,1.6,2.6s0.6,2.1,0.6,3.3v13H599.9z M592.8,201.2
			c0.8,0,1.5-0.1,2.1-0.4c0.6-0.3,1.2-0.7,1.8-1.4v-2.8c-1.2,0-2.3,0.1-3.1,0.2s-1.4,0.4-1.9,0.6s-0.8,0.5-1,0.8
			c-0.2,0.3-0.3,0.6-0.3,1c0,0.7,0.2,1.2,0.6,1.5C591.5,201,592.1,201.2,592.8,201.2z"/>
		<path fill="#231F20" d="M613.4,175V205h-6.2V175H613.4z"/>
		<path fill="#231F20" d="M178.6,253v-20.7h3.8c0.4,0,0.7,0.1,1,0.3c0.3,0.2,0.4,0.4,0.5,0.8l0.3,1.1c0.3-0.4,0.7-0.7,1.1-1
			c0.4-0.3,0.8-0.6,1.2-0.8c0.4-0.2,0.9-0.4,1.4-0.5c0.5-0.1,1-0.2,1.6-0.2c1.3,0,2.3,0.3,3.1,1c0.8,0.6,1.4,1.5,1.9,2.6
			c0.3-0.6,0.8-1.2,1.3-1.6c0.5-0.5,1-0.8,1.6-1.1c0.6-0.3,1.2-0.5,1.8-0.6c0.6-0.1,1.3-0.2,1.9-0.2c1.2,0,2.2,0.2,3.2,0.5
			c0.9,0.4,1.7,0.9,2.3,1.5c0.6,0.7,1.1,1.5,1.4,2.5c0.3,1,0.5,2.1,0.5,3.3V253h-6.2v-13.2c0-2.1-0.9-3.2-2.8-3.2
			c-0.8,0-1.5,0.3-2.1,0.8c-0.6,0.6-0.8,1.3-0.8,2.4V253h-6.2v-13.2c0-1.2-0.2-2-0.7-2.5c-0.5-0.5-1.2-0.7-2.1-0.7
			c-0.6,0-1.1,0.1-1.6,0.4c-0.5,0.3-1,0.6-1.4,1v15H178.6z"/>
		<path fill="#231F20" d="M227.2,253c-0.6,0-1-0.1-1.3-0.2c-0.3-0.2-0.6-0.5-0.8-1l-0.4-1.1c-0.5,0.4-1,0.8-1.5,1.2
			c-0.5,0.3-1,0.6-1.5,0.9c-0.5,0.2-1.1,0.4-1.6,0.5c-0.6,0.1-1.2,0.2-1.9,0.2c-0.9,0-1.8-0.1-2.6-0.4c-0.8-0.2-1.4-0.6-2-1.1
			c-0.5-0.5-1-1.1-1.2-1.8c-0.3-0.7-0.4-1.5-0.4-2.5c0-0.7,0.2-1.5,0.6-2.3c0.4-0.8,1-1.5,1.9-2.1c0.9-0.6,2.2-1.2,3.7-1.6
			s3.5-0.6,5.9-0.6V240c0-1.2-0.2-2.1-0.8-2.7s-1.2-0.8-2.1-0.8c-0.7,0-1.3,0.1-1.8,0.2c-0.5,0.2-0.9,0.3-1.2,0.5
			c-0.4,0.2-0.7,0.4-1.1,0.5s-0.8,0.2-1.2,0.2c-0.4,0-0.8-0.1-1.1-0.3c-0.3-0.2-0.5-0.5-0.7-0.8l-1.1-1.9c1.3-1.1,2.6-1.9,4.2-2.5
			s3.2-0.8,4.9-0.8c1.3,0,2.4,0.2,3.4,0.6c1,0.4,1.9,1,2.6,1.7c0.7,0.7,1.2,1.6,1.6,2.6c0.4,1,0.6,2.1,0.6,3.3v13H227.2z
			 M220.1,249.2c0.8,0,1.5-0.1,2.1-0.4c0.6-0.3,1.2-0.7,1.8-1.4v-2.8c-1.2,0-2.3,0.1-3.1,0.2s-1.4,0.4-1.9,0.6
			c-0.5,0.2-0.8,0.5-1,0.8c-0.2,0.3-0.3,0.6-0.3,1c0,0.7,0.2,1.2,0.6,1.5C218.8,249,219.3,249.2,220.1,249.2z"/>
		<path fill="#231F20" d="M241.6,253.3c-1,0-1.9-0.1-2.6-0.4s-1.4-0.7-1.9-1.2c-0.5-0.5-0.9-1.2-1.2-1.9c-0.3-0.7-0.4-1.6-0.4-2.5
			v-10.7h-1.8c-0.3,0-0.6-0.1-0.8-0.3c-0.2-0.2-0.3-0.5-0.3-0.9v-2.4l3.3-0.6l1.2-5.1c0.2-0.6,0.6-1,1.4-1h3.2v6.1h5v4.2h-5v10.3
			c0,0.5,0.1,0.9,0.4,1.2c0.2,0.3,0.6,0.5,1,0.5c0.2,0,0.4,0,0.6-0.1s0.3-0.1,0.4-0.2s0.2-0.1,0.3-0.2c0.1,0,0.2-0.1,0.3-0.1
			c0.2,0,0.3,0,0.5,0.1c0.1,0.1,0.2,0.2,0.4,0.4l1.9,2.9c-0.8,0.6-1.7,1-2.7,1.4C243.7,253.1,242.6,253.3,241.6,253.3z"/>
		<path fill="#231F20" d="M259,231.9c1.4,0,2.6,0.2,3.8,0.6c1.1,0.4,2.1,1,2.9,1.9c0.8,0.8,1.5,1.8,1.9,3c0.5,1.2,0.7,2.5,0.7,4
			c0,0.5,0,0.8-0.1,1.1c0,0.3-0.1,0.5-0.2,0.7c-0.1,0.2-0.2,0.3-0.4,0.4c-0.2,0.1-0.4,0.1-0.7,0.1h-12c0.2,1.7,0.7,3,1.6,3.8
			c0.9,0.8,2,1.2,3.3,1.2c0.7,0,1.3-0.1,1.9-0.3c0.5-0.2,1-0.4,1.4-0.6c0.4-0.2,0.8-0.4,1.1-0.6c0.3-0.2,0.7-0.3,1.1-0.3
			c0.5,0,0.9,0.2,1.1,0.5l1.8,2.2c-0.6,0.7-1.3,1.3-2.1,1.8c-0.7,0.5-1.5,0.8-2.3,1.1c-0.8,0.3-1.6,0.4-2.3,0.5
			c-0.8,0.1-1.5,0.1-2.2,0.1c-1.5,0-2.8-0.2-4.1-0.7c-1.3-0.5-2.4-1.2-3.3-2.1c-1-0.9-1.7-2.1-2.3-3.5c-0.6-1.4-0.8-3-0.8-4.8
			c0-1.4,0.2-2.7,0.7-3.9c0.5-1.2,1.2-2.3,2-3.3c0.9-0.9,2-1.7,3.2-2.2C256,232.2,257.4,231.9,259,231.9z M259.1,236.2
			c-1.2,0-2.1,0.3-2.8,1c-0.7,0.7-1.1,1.6-1.3,2.9h7.7c0-0.5-0.1-1-0.2-1.4c-0.1-0.5-0.3-0.9-0.6-1.2s-0.7-0.7-1.1-0.9
			C260.4,236.3,259.8,236.2,259.1,236.2z"/>
		<path fill="#231F20" d="M271.7,253v-20.7h3.7c0.3,0,0.6,0,0.8,0.1c0.2,0.1,0.4,0.1,0.5,0.2c0.1,0.1,0.2,0.3,0.3,0.5
			c0.1,0.2,0.1,0.4,0.2,0.7l0.3,1.9c0.8-1.2,1.6-2.1,2.6-2.8c0.9-0.7,2-1,3.1-1c0.9,0,1.7,0.2,2.3,0.7l-0.8,4.6
			c-0.1,0.3-0.2,0.5-0.3,0.6s-0.4,0.2-0.6,0.2c-0.2,0-0.5,0-0.8-0.1c-0.3-0.1-0.7-0.1-1.2-0.1c-1.6,0-2.9,0.9-3.8,2.6V253H271.7z"/>
		<path fill="#231F20" d="M295.2,226.5c0,0.5-0.1,1-0.3,1.4c-0.2,0.4-0.5,0.8-0.8,1.1c-0.3,0.3-0.8,0.6-1.2,0.8s-0.9,0.3-1.5,0.3
			c-0.5,0-1-0.1-1.4-0.3c-0.4-0.2-0.8-0.5-1.2-0.8c-0.3-0.3-0.6-0.7-0.8-1.1c-0.2-0.4-0.3-0.9-0.3-1.4c0-0.5,0.1-1,0.3-1.4
			c0.2-0.4,0.5-0.8,0.8-1.2c0.3-0.3,0.7-0.6,1.2-0.8c0.4-0.2,0.9-0.3,1.4-0.3c0.5,0,1,0.1,1.5,0.3c0.5,0.2,0.9,0.4,1.2,0.8
			c0.3,0.3,0.6,0.7,0.8,1.2C295.1,225.6,295.2,226,295.2,226.5z M294.5,232.2V253h-6.2v-20.7H294.5z"/>
		<path fill="#231F20" d="M313.7,253c-0.6,0-1-0.1-1.3-0.2c-0.3-0.2-0.6-0.5-0.8-1l-0.4-1.1c-0.5,0.4-1,0.8-1.5,1.2
			c-0.5,0.3-1,0.6-1.5,0.9c-0.5,0.2-1.1,0.4-1.6,0.5c-0.6,0.1-1.2,0.2-1.9,0.2c-0.9,0-1.8-0.1-2.6-0.4c-0.8-0.2-1.4-0.6-2-1.1
			c-0.5-0.5-1-1.1-1.2-1.8c-0.3-0.7-0.4-1.5-0.4-2.5c0-0.7,0.2-1.5,0.6-2.3c0.4-0.8,1-1.5,1.9-2.1c0.9-0.6,2.2-1.2,3.7-1.6
			s3.5-0.6,5.9-0.6V240c0-1.2-0.2-2.1-0.8-2.7s-1.2-0.8-2.1-0.8c-0.7,0-1.3,0.1-1.8,0.2c-0.5,0.2-0.9,0.3-1.2,0.5
			c-0.4,0.2-0.7,0.4-1.1,0.5s-0.8,0.2-1.2,0.2c-0.4,0-0.8-0.1-1.1-0.3c-0.3-0.2-0.5-0.5-0.7-0.8l-1.1-1.9c1.3-1.1,2.6-1.9,4.2-2.5
			s3.2-0.8,4.9-0.8c1.3,0,2.4,0.2,3.4,0.6c1,0.4,1.9,1,2.6,1.7c0.7,0.7,1.2,1.6,1.6,2.6c0.4,1,0.6,2.1,0.6,3.3v13H313.7z
			 M306.5,249.2c0.8,0,1.5-0.1,2.1-0.4c0.6-0.3,1.2-0.7,1.8-1.4v-2.8c-1.2,0-2.3,0.1-3.1,0.2s-1.4,0.4-1.9,0.6
			c-0.5,0.2-0.8,0.5-1,0.8c-0.2,0.3-0.3,0.6-0.3,1c0,0.7,0.2,1.2,0.6,1.5C305.2,249,305.8,249.2,306.5,249.2z"/>
		<path fill="#231F20" d="M327.1,223V253h-6.2V223H327.1z"/>
		<path fill="#231F20" d="M344.7,236.8c-0.2,0.3-0.3,0.4-0.5,0.5c-0.2,0.1-0.4,0.2-0.7,0.2c-0.3,0-0.6-0.1-0.9-0.2
			c-0.3-0.1-0.6-0.3-1-0.4c-0.3-0.1-0.7-0.3-1.1-0.4c-0.4-0.1-0.9-0.2-1.5-0.2c-0.8,0-1.4,0.2-1.8,0.5s-0.6,0.7-0.6,1.2
			c0,0.4,0.1,0.7,0.4,1c0.3,0.3,0.6,0.5,1.1,0.7c0.5,0.2,1,0.4,1.5,0.6s1.2,0.4,1.8,0.6c0.6,0.2,1.2,0.5,1.8,0.8
			c0.6,0.3,1.1,0.6,1.5,1.1c0.5,0.4,0.8,0.9,1.1,1.5c0.3,0.6,0.4,1.3,0.4,2.2c0,1-0.2,2-0.6,2.8c-0.4,0.9-0.9,1.6-1.7,2.2
			c-0.7,0.6-1.7,1.1-2.7,1.5c-1.1,0.3-2.3,0.5-3.8,0.5c-0.7,0-1.4-0.1-2.1-0.2c-0.7-0.1-1.4-0.3-2-0.5s-1.3-0.5-1.8-0.8
			c-0.6-0.3-1-0.6-1.4-1l1.4-2.3c0.2-0.3,0.4-0.5,0.6-0.6s0.6-0.2,0.9-0.2c0.4,0,0.7,0.1,1,0.2c0.3,0.2,0.6,0.3,0.9,0.5
			c0.3,0.2,0.7,0.4,1.2,0.5c0.4,0.2,1,0.2,1.7,0.2c0.5,0,0.9-0.1,1.2-0.1c0.3-0.1,0.6-0.2,0.8-0.4c0.2-0.2,0.3-0.4,0.4-0.6
			c0.1-0.2,0.1-0.4,0.1-0.7c0-0.4-0.1-0.8-0.4-1c-0.3-0.3-0.6-0.5-1.1-0.7c-0.5-0.2-1-0.4-1.5-0.5c-0.6-0.2-1.2-0.4-1.8-0.6
			s-1.2-0.5-1.8-0.8s-1.1-0.7-1.5-1.1c-0.5-0.5-0.8-1-1.1-1.7c-0.3-0.7-0.4-1.5-0.4-2.4c0-0.9,0.2-1.7,0.5-2.5
			c0.3-0.8,0.9-1.5,1.5-2.1c0.7-0.6,1.5-1.1,2.6-1.4c1-0.4,2.2-0.5,3.6-0.5c0.7,0,1.5,0.1,2.2,0.2c0.7,0.1,1.4,0.3,2,0.6
			c0.6,0.2,1.2,0.5,1.7,0.8c0.5,0.3,1,0.7,1.3,1.1L344.7,236.8z"/>
		<path fill="#231F20" d="M370.5,253c-0.4,0-0.6-0.2-0.7-0.6l-0.3-2.5c-0.5,0.5-1.1,1-1.6,1.4c-0.5,0.4-1.1,0.8-1.7,1.1
			c-0.6,0.3-1.2,0.5-1.9,0.7c-0.7,0.2-1.4,0.2-2.2,0.2c-0.7,0-1.3-0.1-2-0.3s-1.2-0.5-1.7-0.9c-0.5-0.4-0.9-0.9-1.2-1.6
			c-0.3-0.6-0.4-1.4-0.4-2.3c0-0.8,0.2-1.6,0.7-2.3c0.5-0.7,1.2-1.3,2.2-1.9c1-0.5,2.3-1,3.9-1.3c1.6-0.3,3.5-0.5,5.8-0.6V240
			c0-1.8-0.4-3.3-1.2-4.2s-2-1.5-3.5-1.5c-1,0-1.8,0.1-2.5,0.4s-1.2,0.6-1.7,0.9c-0.5,0.3-0.8,0.6-1.1,0.9c-0.3,0.3-0.5,0.4-0.7,0.4
			c-0.3,0-0.5-0.1-0.6-0.4l-0.3-0.6c1-1,2.1-1.8,3.3-2.4c1.1-0.5,2.4-0.8,3.9-0.8c1.1,0,2,0.2,2.8,0.5c0.8,0.3,1.5,0.8,2,1.5
			s0.9,1.4,1.2,2.3c0.3,0.9,0.4,1.9,0.4,3v13H370.5z M362.5,251.9c0.8,0,1.5-0.1,2.1-0.2c0.6-0.2,1.2-0.4,1.8-0.7
			c0.6-0.3,1.1-0.7,1.5-1.1c0.5-0.4,1-0.9,1.4-1.3v-5.2c-1.9,0.1-3.5,0.2-4.9,0.4c-1.4,0.2-2.5,0.5-3.4,0.9c-0.9,0.4-1.5,0.9-2,1.4
			c-0.4,0.6-0.6,1.2-0.6,1.9c0,0.7,0.1,1.2,0.3,1.7c0.2,0.5,0.5,0.9,0.9,1.2c0.4,0.3,0.8,0.5,1.3,0.7
			C361.5,251.8,362,251.9,362.5,251.9z"/>
		<path fill="#231F20" d="M377.1,253v-19.9h1c0.3,0,0.5,0.2,0.6,0.5l0.2,3c0.9-1.1,2-2.1,3.2-2.8c1.2-0.7,2.5-1.1,4-1.1
			c1.1,0,2.1,0.2,2.9,0.5c0.8,0.3,1.5,0.8,2.1,1.5c0.5,0.7,1,1.4,1.2,2.4c0.3,0.9,0.4,2,0.4,3.1V253h-1.9v-12.7
			c0-1.9-0.4-3.3-1.3-4.4c-0.9-1.1-2.2-1.6-3.9-1.6c-1.3,0-2.5,0.3-3.6,1c-1.1,0.7-2.1,1.6-3,2.8V253H377.1z"/>
		<path fill="#231F20" d="M412.7,253c-0.3,0-0.5-0.2-0.6-0.5l-0.2-3.1c-0.9,1.2-1.9,2.2-3.1,2.9s-2.5,1.1-4,1.1
			c-2.4,0-4.3-0.8-5.7-2.5c-1.4-1.7-2.1-4.2-2.1-7.6c0-1.5,0.2-2.8,0.6-4.1c0.4-1.3,0.9-2.4,1.7-3.3c0.7-0.9,1.6-1.7,2.7-2.2
			c1.1-0.5,2.3-0.8,3.7-0.8c1.3,0,2.5,0.2,3.5,0.8c1,0.5,1.8,1.2,2.6,2.2v-11.8h1.9V253H412.7z M405.4,251.7c1.3,0,2.5-0.3,3.6-1
			c1.1-0.7,2-1.6,2.9-2.8v-10.5c-0.8-1.1-1.6-1.9-2.6-2.4c-0.9-0.5-2-0.7-3.2-0.7c-1.2,0-2.2,0.2-3.1,0.6c-0.9,0.4-1.6,1-2.2,1.8
			c-0.6,0.8-1,1.7-1.3,2.8c-0.3,1.1-0.5,2.3-0.5,3.6c0,3,0.5,5.1,1.6,6.5C401.8,251,403.4,251.7,405.4,251.7z"/>
		<path fill="#231F20" d="M429.1,259.5v-27.3h3.8c0.4,0,0.7,0.1,1,0.3s0.4,0.4,0.5,0.8l0.5,1.5c0.4-0.4,0.8-0.8,1.3-1.2
			c0.5-0.4,1-0.7,1.5-0.9c0.5-0.3,1.1-0.5,1.7-0.6c0.6-0.1,1.3-0.2,2-0.2c1.1,0,2.1,0.2,3,0.7s1.7,1.2,2.4,2.1s1.2,2,1.6,3.3
			c0.4,1.3,0.6,2.8,0.6,4.5c0,1.6-0.2,3-0.7,4.3c-0.4,1.3-1,2.5-1.8,3.4c-0.8,1-1.7,1.7-2.8,2.3s-2.3,0.8-3.6,0.8
			c-1.1,0-2-0.2-2.7-0.5s-1.4-0.7-2-1.2v8H429.1z M439.3,236.6c-0.5,0-0.9,0-1.2,0.1c-0.4,0.1-0.7,0.2-1,0.4
			c-0.3,0.2-0.6,0.4-0.9,0.6c-0.3,0.2-0.5,0.5-0.8,0.9v8.8c0.5,0.5,1,0.9,1.5,1.1c0.5,0.2,1.1,0.3,1.7,0.3c0.6,0,1.1-0.1,1.6-0.3
			c0.5-0.2,0.9-0.6,1.2-1.1c0.4-0.5,0.6-1.1,0.8-2c0.2-0.8,0.3-1.8,0.3-2.9c0-1.1-0.1-2-0.2-2.8s-0.4-1.4-0.7-1.8s-0.6-0.8-1-1
			C440.2,236.7,439.8,236.6,439.3,236.6z"/>
		<path fill="#231F20" d="M452.1,253v-20.7h3.7c0.3,0,0.6,0,0.8,0.1c0.2,0.1,0.4,0.1,0.5,0.2c0.1,0.1,0.2,0.3,0.3,0.5
			c0.1,0.2,0.1,0.4,0.2,0.7l0.3,1.9c0.8-1.2,1.6-2.1,2.6-2.8c0.9-0.7,2-1,3.1-1c0.9,0,1.7,0.2,2.3,0.7l-0.8,4.6
			c-0.1,0.3-0.2,0.5-0.3,0.6s-0.4,0.2-0.6,0.2c-0.2,0-0.5,0-0.8-0.1c-0.3-0.1-0.7-0.1-1.2-0.1c-1.6,0-2.9,0.9-3.8,2.6V253H452.1z"/>
		<path fill="#231F20" d="M477.7,231.9c1.6,0,3,0.2,4.3,0.7c1.3,0.5,2.4,1.2,3.3,2.1c0.9,0.9,1.6,2,2.2,3.4c0.5,1.3,0.8,2.8,0.8,4.4
			c0,1.7-0.3,3.1-0.8,4.5c-0.5,1.3-1.2,2.5-2.2,3.4c-0.9,0.9-2,1.6-3.3,2.1c-1.3,0.5-2.7,0.8-4.3,0.8c-1.6,0-3-0.2-4.3-0.8
			s-2.4-1.2-3.4-2.1c-0.9-0.9-1.7-2.1-2.2-3.4c-0.5-1.3-0.8-2.8-0.8-4.5c0-1.6,0.3-3.1,0.8-4.4c0.5-1.3,1.2-2.4,2.2-3.4
			c0.9-0.9,2.1-1.6,3.4-2.1S476.1,231.9,477.7,231.9z M477.7,248.7c1.4,0,2.5-0.5,3.2-1.5c0.7-1,1-2.5,1-4.6s-0.3-3.6-1-4.6
			c-0.7-1-1.7-1.5-3.2-1.5c-1.5,0-2.5,0.5-3.2,1.5s-1,2.5-1,4.6s0.3,3.6,1,4.6C475.2,248.2,476.2,248.7,477.7,248.7z"/>
		<path fill="#231F20" d="M506.1,253c-0.4,0-0.7-0.1-1-0.3s-0.4-0.4-0.5-0.8l-0.5-1.6c-0.4,0.4-0.8,0.8-1.3,1.2s-0.9,0.7-1.5,0.9
			c-0.5,0.3-1.1,0.5-1.7,0.6c-0.6,0.1-1.3,0.2-2,0.2c-1.1,0-2.1-0.2-3-0.7c-0.9-0.5-1.7-1.2-2.4-2.1s-1.2-2-1.6-3.3
			c-0.4-1.3-0.6-2.8-0.6-4.5c0-1.5,0.2-3,0.6-4.3s1-2.5,1.8-3.4s1.7-1.7,2.8-2.3c1.1-0.5,2.3-0.8,3.6-0.8c1.1,0,2,0.2,2.7,0.5
			c0.7,0.3,1.4,0.7,2,1.2V223h6.2V253H506.1z M499.8,248.5c0.5,0,0.9,0,1.2-0.1c0.4-0.1,0.7-0.2,1-0.4s0.6-0.4,0.9-0.6
			c0.3-0.2,0.5-0.5,0.8-0.8v-8.8c-0.5-0.5-1-0.9-1.5-1.1c-0.5-0.2-1.1-0.3-1.7-0.3c-0.6,0-1.1,0.1-1.6,0.3c-0.5,0.2-0.9,0.6-1.2,1.1
			c-0.4,0.5-0.6,1.1-0.8,1.9c-0.2,0.8-0.3,1.8-0.3,2.9c0,1.1,0.1,2,0.2,2.8c0.2,0.7,0.4,1.4,0.7,1.8c0.3,0.5,0.6,0.8,1,1
			C498.8,248.4,499.3,248.5,499.8,248.5z"/>
		<path fill="#231F20" d="M520.3,232.2v13.2c0,1,0.2,1.8,0.7,2.4c0.5,0.6,1.2,0.8,2.1,0.8c0.7,0,1.3-0.1,1.9-0.4
			c0.6-0.3,1.2-0.7,1.7-1.2v-14.8h6.2V253h-3.8c-0.8,0-1.3-0.3-1.5-1l-0.4-1.2c-0.4,0.4-0.8,0.7-1.2,1.1c-0.4,0.3-0.9,0.6-1.4,0.8
			c-0.5,0.2-1,0.4-1.6,0.5c-0.6,0.1-1.2,0.2-1.8,0.2c-1.1,0-2.1-0.2-3-0.6c-0.9-0.4-1.6-0.9-2.2-1.6c-0.6-0.7-1.1-1.5-1.4-2.5
			s-0.5-2-0.5-3.2v-13.2H520.3z"/>
		<path fill="#231F20" d="M552.5,237.1c-0.2,0.2-0.4,0.4-0.5,0.5c-0.2,0.1-0.4,0.2-0.7,0.2c-0.3,0-0.6-0.1-0.8-0.2
			c-0.2-0.1-0.5-0.3-0.8-0.5s-0.7-0.3-1.1-0.5c-0.4-0.1-0.9-0.2-1.5-0.2c-0.8,0-1.4,0.1-2,0.4c-0.6,0.3-1,0.7-1.4,1.2
			s-0.6,1.2-0.8,1.9c-0.2,0.8-0.3,1.6-0.3,2.6c0,2,0.4,3.5,1.1,4.6s1.8,1.6,3.2,1.6c0.7,0,1.3-0.1,1.7-0.3c0.4-0.2,0.8-0.4,1.1-0.6
			c0.3-0.2,0.6-0.4,0.8-0.6c0.2-0.2,0.6-0.3,0.9-0.3c0.5,0,0.9,0.2,1.1,0.5l1.8,2.2c-0.6,0.7-1.3,1.3-2,1.8
			c-0.7,0.5-1.4,0.8-2.2,1.1c-0.7,0.3-1.5,0.4-2.2,0.5c-0.7,0.1-1.5,0.1-2.2,0.1c-1.3,0-2.5-0.2-3.6-0.7s-2.2-1.2-3-2.1
			c-0.9-0.9-1.6-2-2.1-3.4c-0.5-1.3-0.8-2.9-0.8-4.6c0-1.5,0.2-2.9,0.7-4.2c0.4-1.3,1.1-2.4,2-3.4c0.9-1,2-1.7,3.2-2.2
			c1.3-0.5,2.8-0.8,4.5-0.8c1.6,0,3.1,0.3,4.3,0.8s2.3,1.3,3.3,2.3L552.5,237.1z"/>
		<path fill="#231F20" d="M564.1,253.3c-1,0-1.9-0.1-2.6-0.4c-0.8-0.3-1.4-0.7-1.9-1.2c-0.5-0.5-0.9-1.2-1.2-1.9
			c-0.3-0.7-0.4-1.6-0.4-2.5v-10.7h-1.8c-0.3,0-0.6-0.1-0.8-0.3c-0.2-0.2-0.3-0.5-0.3-0.9v-2.4l3.3-0.6l1.2-5.1c0.2-0.6,0.6-1,1.4-1
			h3.2v6.1h5v4.2h-5v10.3c0,0.5,0.1,0.9,0.4,1.2c0.2,0.3,0.6,0.5,1,0.5c0.2,0,0.4,0,0.6-0.1c0.2,0,0.3-0.1,0.4-0.2s0.2-0.1,0.3-0.2
			c0.1,0,0.2-0.1,0.3-0.1c0.2,0,0.3,0,0.5,0.1c0.1,0.1,0.2,0.2,0.3,0.4l1.9,2.9c-0.8,0.6-1.7,1-2.7,1.4
			C566.2,253.1,565.2,253.3,564.1,253.3z"/>
		<path fill="#231F20" d="M579.8,226.5c0,0.5-0.1,1-0.3,1.4s-0.5,0.8-0.8,1.1c-0.3,0.3-0.8,0.6-1.2,0.8s-1,0.3-1.5,0.3
			c-0.5,0-1-0.1-1.4-0.3c-0.4-0.2-0.8-0.5-1.2-0.8c-0.3-0.3-0.6-0.7-0.8-1.1s-0.3-0.9-0.3-1.4c0-0.5,0.1-1,0.3-1.4s0.5-0.8,0.8-1.2
			c0.3-0.3,0.7-0.6,1.2-0.8c0.4-0.2,0.9-0.3,1.4-0.3c0.5,0,1,0.1,1.5,0.3c0.5,0.2,0.9,0.4,1.2,0.8c0.3,0.3,0.6,0.7,0.8,1.2
			S579.8,226,579.8,226.5z M579.1,232.2V253h-6.2v-20.7H579.1z"/>
		<path fill="#231F20" d="M593.2,231.9c1.6,0,3,0.2,4.3,0.7c1.3,0.5,2.4,1.2,3.3,2.1c0.9,0.9,1.6,2,2.2,3.4c0.5,1.3,0.8,2.8,0.8,4.4
			c0,1.7-0.3,3.1-0.8,4.5c-0.5,1.3-1.2,2.5-2.2,3.4s-2,1.6-3.3,2.1c-1.3,0.5-2.7,0.8-4.3,0.8c-1.6,0-3-0.2-4.3-0.8
			c-1.3-0.5-2.4-1.2-3.4-2.1c-0.9-0.9-1.7-2.1-2.2-3.4c-0.5-1.3-0.8-2.8-0.8-4.5c0-1.6,0.3-3.1,0.8-4.4c0.5-1.3,1.2-2.4,2.2-3.4
			c0.9-0.9,2.1-1.6,3.4-2.1C590.2,232.1,591.6,231.9,593.2,231.9z M593.2,248.7c1.4,0,2.5-0.5,3.2-1.5c0.7-1,1-2.5,1-4.6
			s-0.3-3.6-1-4.6c-0.7-1-1.7-1.5-3.2-1.5c-1.5,0-2.5,0.5-3.2,1.5s-1,2.5-1,4.6s0.3,3.6,1,4.6C590.6,248.2,591.7,248.7,593.2,248.7z
			"/>
		<path fill="#231F20" d="M607,253v-20.7h3.8c0.4,0,0.7,0.1,1,0.3s0.4,0.4,0.5,0.8l0.4,1.2c0.4-0.4,0.8-0.7,1.2-1
			c0.4-0.3,0.9-0.6,1.4-0.8c0.5-0.2,1-0.4,1.6-0.5c0.6-0.1,1.2-0.2,1.9-0.2c1.1,0,2.1,0.2,3,0.6c0.9,0.4,1.6,0.9,2.2,1.6
			c0.6,0.7,1.1,1.5,1.4,2.5c0.3,1,0.5,2,0.5,3.1V253h-6.2v-13.2c0-1-0.2-1.8-0.7-2.4s-1.2-0.9-2.1-0.9c-0.7,0-1.3,0.1-1.9,0.4
			c-0.6,0.3-1.2,0.7-1.7,1.2V253H607z"/>
	</g>
</g>
<g id="Layer_5">
</g>
</svg>
