<?xml version="1.0" encoding="utf-8"?>
<!-- Generator: Adobe Illustrator 18.0.0, SVG Export Plug-In . SVG Version: 6.00 Build 0)  -->
<!DOCTYPE svg PUBLIC "-//W3C//DTD SVG 1.1//EN" "http://www.w3.org/Graphics/SVG/1.1/DTD/svg11.dtd">
<svg version="1.1" xmlns="http://www.w3.org/2000/svg" xmlns:xlink="http://www.w3.org/1999/xlink" x="0px" y="0px"
	 viewBox="0 -48 800 531" enable-background="new 0 -48 800 531" xml:space="preserve">
<g id="_x32_">
	<g>
		<path d="M174.6,127.8v1.7h-9.9v26.6h-2v-26.6h-10v-1.7H174.6z"/>
		<path d="M181.7,135.9c1.4,0,2.7,0.2,3.8,0.7c1.1,0.5,2.1,1.2,2.9,2.1c0.8,0.9,1.4,2,1.8,3.2c0.4,1.3,0.6,2.7,0.6,4.2
			s-0.2,3-0.6,4.2c-0.4,1.3-1,2.3-1.8,3.2c-0.8,0.9-1.7,1.6-2.9,2.1c-1.1,0.5-2.4,0.7-3.8,0.7s-2.7-0.2-3.8-0.7
			c-1.1-0.5-2.1-1.2-2.9-2.1c-0.8-0.9-1.4-2-1.8-3.2c-0.4-1.3-0.6-2.7-0.6-4.2s0.2-3,0.6-4.2c0.4-1.3,1-2.3,1.8-3.2
			c0.8-0.9,1.7-1.6,2.9-2.1C179,136.2,180.2,135.9,181.7,135.9z M181.7,154.9c1.2,0,2.2-0.2,3.1-0.6c0.9-0.4,1.6-1,2.2-1.8
			c0.6-0.8,1-1.7,1.3-2.8c0.3-1.1,0.4-2.3,0.4-3.6c0-1.3-0.1-2.5-0.4-3.6c-0.3-1.1-0.7-2-1.3-2.8c-0.6-0.8-1.3-1.4-2.2-1.8
			c-0.9-0.4-1.9-0.6-3.1-0.6s-2.2,0.2-3.1,0.6c-0.9,0.4-1.6,1-2.2,1.8c-0.6,0.8-1,1.7-1.3,2.8c-0.3,1.1-0.4,2.3-0.4,3.6
			c0,1.3,0.1,2.5,0.4,3.6c0.3,1.1,0.7,2,1.3,2.8c0.6,0.8,1.3,1.3,2.2,1.8C179.4,154.7,180.5,154.9,181.7,154.9z"/>
		<path d="M210.7,135.9c1.4,0,2.7,0.2,3.8,0.7c1.1,0.5,2.1,1.2,2.9,2.1c0.8,0.9,1.4,2,1.8,3.2c0.4,1.3,0.6,2.7,0.6,4.2
			s-0.2,3-0.6,4.2c-0.4,1.3-1,2.3-1.8,3.2c-0.8,0.9-1.7,1.6-2.9,2.1c-1.1,0.5-2.4,0.7-3.8,0.7s-2.7-0.2-3.8-0.7
			c-1.1-0.5-2.1-1.2-2.9-2.1c-0.8-0.9-1.4-2-1.8-3.2c-0.4-1.3-0.6-2.7-0.6-4.2s0.2-3,0.6-4.2c0.4-1.3,1-2.3,1.8-3.2
			c0.8-0.9,1.7-1.6,2.9-2.1C208,136.2,209.3,135.9,210.7,135.9z M210.7,154.9c1.2,0,2.2-0.2,3.1-0.6c0.9-0.4,1.6-1,2.2-1.8
			c0.6-0.8,1-1.7,1.3-2.8c0.3-1.1,0.4-2.3,0.4-3.6c0-1.3-0.1-2.5-0.4-3.6c-0.3-1.1-0.7-2-1.3-2.8c-0.6-0.8-1.3-1.4-2.2-1.8
			c-0.9-0.4-1.9-0.6-3.1-0.6s-2.2,0.2-3.1,0.6c-0.9,0.4-1.6,1-2.2,1.8c-0.6,0.8-1,1.7-1.3,2.8c-0.3,1.1-0.4,2.3-0.4,3.6
			c0,1.3,0.1,2.5,0.4,3.6c0.3,1.1,0.7,2,1.3,2.8c0.6,0.8,1.3,1.3,2.2,1.8C208.5,154.7,209.5,154.9,210.7,154.9z"/>
		<path d="M225.3,156.1v-17.8l-2.8-0.2c-0.4,0-0.6-0.2-0.6-0.5v-0.8h3.4v-2.5c0-1.1,0.1-2.1,0.4-3c0.3-0.9,0.7-1.6,1.2-2.1
			c0.5-0.6,1.2-1,1.9-1.3s1.6-0.4,2.5-0.4c0.4,0,0.8,0,1.2,0.1s0.8,0.2,1.1,0.3l-0.1,0.9c0,0.2-0.1,0.3-0.4,0.3
			c-0.2,0-0.4,0-0.6-0.1c-0.3,0-0.6-0.1-1-0.1c-0.7,0-1.3,0.1-1.8,0.3c-0.6,0.2-1,0.5-1.4,0.9s-0.7,1-0.9,1.7
			c-0.2,0.7-0.3,1.5-0.3,2.5v2.5h6.5v1.4h-6.4v17.9H225.3z"/>
		<path d="M238.1,156.1v-17.8l-2.8-0.2c-0.4,0-0.6-0.2-0.6-0.5v-0.8h3.4v-2.5c0-1.1,0.1-2.1,0.4-3c0.3-0.9,0.7-1.6,1.2-2.1
			c0.5-0.6,1.2-1,1.9-1.3s1.6-0.4,2.5-0.4c0.4,0,0.8,0,1.2,0.1s0.8,0.2,1.1,0.3l-0.1,0.9c0,0.2-0.1,0.3-0.4,0.3
			c-0.2,0-0.4,0-0.6-0.1c-0.3,0-0.6-0.1-1-0.1c-0.7,0-1.3,0.1-1.8,0.3c-0.6,0.2-1,0.5-1.4,0.9s-0.7,1-0.9,1.7
			c-0.2,0.7-0.3,1.5-0.3,2.5v2.5h6.5v1.4H240v17.9H238.1z"/>
		<path d="M257.5,135.9c1.1,0,2.2,0.2,3.1,0.6c1,0.4,1.8,1,2.5,1.7c0.7,0.7,1.2,1.7,1.6,2.7c0.4,1.1,0.6,2.3,0.6,3.7
			c0,0.3,0,0.5-0.1,0.6c-0.1,0.1-0.2,0.2-0.4,0.2h-14.4v0.4c0,1.5,0.2,2.8,0.5,3.9c0.3,1.1,0.8,2.1,1.5,2.9c0.6,0.8,1.4,1.3,2.3,1.7
			s1.9,0.6,3,0.6c1,0,1.9-0.1,2.6-0.3c0.7-0.2,1.4-0.5,1.9-0.7c0.5-0.3,0.9-0.5,1.2-0.7c0.3-0.2,0.5-0.3,0.6-0.3
			c0.2,0,0.3,0.1,0.4,0.2l0.5,0.6c-0.3,0.4-0.7,0.8-1.3,1.1c-0.5,0.3-1.1,0.6-1.8,0.9c-0.6,0.2-1.3,0.4-2.1,0.6
			c-0.7,0.1-1.5,0.2-2.2,0.2c-1.4,0-2.6-0.2-3.7-0.7c-1.1-0.5-2.1-1.2-2.9-2.1c-0.8-0.9-1.4-2-1.9-3.3c-0.4-1.3-0.7-2.8-0.7-4.5
			c0-1.4,0.2-2.7,0.6-4c0.4-1.2,1-2.2,1.8-3.1c0.8-0.9,1.7-1.6,2.8-2C254.9,136.2,256.1,135.9,257.5,135.9z M257.6,137.3
			c-1,0-1.9,0.2-2.8,0.5c-0.8,0.3-1.5,0.8-2.1,1.4c-0.6,0.6-1.1,1.3-1.4,2.2c-0.4,0.8-0.6,1.8-0.7,2.8h13.1c0-1.1-0.1-2-0.4-2.9
			c-0.3-0.8-0.7-1.6-1.2-2.1c-0.5-0.6-1.2-1-1.9-1.4C259.3,137.5,258.5,137.3,257.6,137.3z"/>
		<path d="M270.3,156.1v-19.9h1c0.2,0,0.4,0,0.5,0.1s0.2,0.3,0.2,0.5l0.2,4.2c0.6-1.6,1.5-2.9,2.6-3.8c1.1-0.9,2.4-1.4,3.9-1.4
			c0.6,0,1.2,0.1,1.7,0.2c0.5,0.1,1,0.3,1.4,0.5l-0.3,1.3c0,0.2-0.2,0.3-0.4,0.3c-0.1,0-0.2,0-0.3-0.1c-0.1-0.1-0.3-0.1-0.6-0.2
			c-0.2-0.1-0.5-0.1-0.8-0.2c-0.3-0.1-0.7-0.1-1.1-0.1c-1.5,0-2.7,0.5-3.7,1.4c-1,0.9-1.8,2.3-2.4,4v12.9H270.3z"/>
		<path d="M293.6,156.1v-19.9h1c0.3,0,0.5,0.2,0.6,0.5l0.2,2.9c0.4-0.5,0.8-1,1.2-1.5c0.4-0.5,0.9-0.8,1.4-1.2s1-0.6,1.6-0.8
			c0.6-0.2,1.2-0.3,1.8-0.3c1.5,0,2.6,0.4,3.5,1.3c0.9,0.8,1.5,2,1.8,3.5c0.2-0.8,0.6-1.5,1-2.1c0.4-0.6,0.9-1.1,1.5-1.5
			c0.6-0.4,1.2-0.7,1.8-0.9c0.7-0.2,1.3-0.3,2-0.3c1,0,1.9,0.2,2.7,0.5c0.8,0.3,1.5,0.8,2,1.5c0.6,0.6,1,1.4,1.3,2.4
			c0.3,0.9,0.4,2,0.4,3.2v12.7h-1.9v-12.7c0-1.9-0.4-3.4-1.3-4.4c-0.8-1-2-1.5-3.6-1.5c-0.7,0-1.4,0.1-2,0.4s-1.2,0.6-1.7,1.1
			s-0.9,1.1-1.2,1.9c-0.3,0.7-0.4,1.6-0.4,2.6v12.7h-1.9v-12.7c0-1.9-0.4-3.4-1.2-4.4c-0.8-1-1.9-1.5-3.4-1.5c-1.1,0-2.1,0.3-3,1
			c-0.9,0.6-1.7,1.5-2.5,2.7v15H293.6z"/>
		<path d="M338,156.1c-0.4,0-0.6-0.2-0.7-0.6l-0.3-2.5c-0.5,0.5-1.1,1-1.6,1.4c-0.5,0.4-1.1,0.8-1.7,1.1c-0.6,0.3-1.2,0.5-1.9,0.7
			c-0.7,0.2-1.4,0.2-2.2,0.2c-0.7,0-1.3-0.1-2-0.3s-1.2-0.5-1.7-0.9c-0.5-0.4-0.9-0.9-1.2-1.6c-0.3-0.6-0.4-1.4-0.4-2.3
			c0-0.8,0.2-1.6,0.7-2.3c0.5-0.7,1.2-1.3,2.2-1.9c1-0.5,2.3-1,3.9-1.3c1.6-0.3,3.5-0.5,5.8-0.6v-2.1c0-1.8-0.4-3.3-1.2-4.2
			s-2-1.5-3.5-1.5c-1,0-1.8,0.1-2.5,0.4s-1.2,0.6-1.7,0.9c-0.5,0.3-0.8,0.6-1.1,0.9c-0.3,0.3-0.5,0.4-0.7,0.4
			c-0.3,0-0.5-0.1-0.6-0.4l-0.3-0.6c1-1,2.1-1.8,3.3-2.4c1.1-0.5,2.4-0.8,3.9-0.8c1.1,0,2,0.2,2.8,0.5c0.8,0.3,1.5,0.8,2,1.5
			s0.9,1.4,1.2,2.3c0.3,0.9,0.4,1.9,0.4,3v13H338z M330,155.1c0.8,0,1.5-0.1,2.1-0.2c0.6-0.2,1.2-0.4,1.8-0.7
			c0.6-0.3,1.1-0.7,1.5-1.1c0.5-0.4,1-0.9,1.4-1.3v-5.2c-1.9,0.1-3.5,0.2-4.9,0.4c-1.4,0.2-2.5,0.5-3.4,0.9c-0.9,0.4-1.5,0.9-2,1.4
			c-0.4,0.6-0.6,1.2-0.6,1.9c0,0.7,0.1,1.2,0.3,1.7c0.2,0.5,0.5,0.9,0.9,1.2c0.4,0.3,0.8,0.5,1.3,0.7
			C328.9,155,329.4,155.1,330,155.1z"/>
		<path d="M346.7,127v17.7h0.9c0.2,0,0.4,0,0.5-0.1c0.2-0.1,0.4-0.2,0.5-0.4l8-7.6c0.1-0.1,0.3-0.3,0.5-0.4s0.4-0.1,0.6-0.1h1.7
			l-8.8,8.3c-0.1,0.1-0.3,0.3-0.4,0.4s-0.3,0.2-0.4,0.3c0.2,0.1,0.4,0.2,0.5,0.4c0.1,0.1,0.3,0.3,0.5,0.5l9.2,10h-1.7
			c-0.2,0-0.4,0-0.5-0.1c-0.1-0.1-0.3-0.2-0.4-0.4l-8.4-9c-0.2-0.2-0.4-0.4-0.6-0.5c-0.2-0.1-0.5-0.1-0.9-0.1h-0.9v10h-1.9V127
			H346.7z"/>
		<path d="M370.4,135.9c1.1,0,2.2,0.2,3.1,0.6c1,0.4,1.8,1,2.5,1.7c0.7,0.7,1.2,1.7,1.6,2.7c0.4,1.1,0.6,2.3,0.6,3.7
			c0,0.3,0,0.5-0.1,0.6c-0.1,0.1-0.2,0.2-0.4,0.2h-14.4v0.4c0,1.5,0.2,2.8,0.5,3.9c0.3,1.1,0.8,2.1,1.5,2.9c0.6,0.8,1.4,1.3,2.3,1.7
			s1.9,0.6,3,0.6c1,0,1.9-0.1,2.6-0.3c0.7-0.2,1.4-0.5,1.9-0.7c0.5-0.3,0.9-0.5,1.2-0.7c0.3-0.2,0.5-0.3,0.6-0.3
			c0.2,0,0.3,0.1,0.4,0.2l0.5,0.6c-0.3,0.4-0.7,0.8-1.3,1.1c-0.5,0.3-1.1,0.6-1.8,0.9c-0.6,0.2-1.3,0.4-2.1,0.6
			c-0.7,0.1-1.5,0.2-2.2,0.2c-1.4,0-2.6-0.2-3.7-0.7c-1.1-0.5-2.1-1.2-2.9-2.1c-0.8-0.9-1.4-2-1.9-3.3c-0.4-1.3-0.7-2.8-0.7-4.5
			c0-1.4,0.2-2.7,0.6-4c0.4-1.2,1-2.2,1.8-3.1c0.8-0.9,1.7-1.6,2.8-2C367.7,136.2,369,135.9,370.4,135.9z M370.4,137.3
			c-1,0-1.9,0.2-2.8,0.5c-0.8,0.3-1.5,0.8-2.1,1.4c-0.6,0.6-1.1,1.3-1.4,2.2c-0.4,0.8-0.6,1.8-0.7,2.8h13.1c0-1.1-0.1-2-0.4-2.9
			c-0.3-0.8-0.7-1.6-1.2-2.1c-0.5-0.6-1.2-1-1.9-1.4C372.1,137.5,371.3,137.3,370.4,137.3z"/>
		<path d="M383.2,156.1v-19.9h1c0.2,0,0.4,0,0.5,0.1s0.2,0.3,0.2,0.5l0.2,4.2c0.6-1.6,1.5-2.9,2.6-3.8c1.1-0.9,2.4-1.4,3.9-1.4
			c0.6,0,1.2,0.1,1.7,0.2c0.5,0.1,1,0.3,1.4,0.5l-0.3,1.3c0,0.2-0.2,0.3-0.4,0.3c-0.1,0-0.2,0-0.3-0.1c-0.1-0.1-0.3-0.1-0.6-0.2
			c-0.2-0.1-0.5-0.1-0.8-0.2c-0.3-0.1-0.7-0.1-1.1-0.1c-1.5,0-2.7,0.5-3.7,1.4c-1,0.9-1.8,2.3-2.4,4v12.9H383.2z"/>
		<path d="M409.8,138.7c-0.1,0.2-0.2,0.3-0.4,0.3c-0.1,0-0.3-0.1-0.6-0.2c-0.2-0.2-0.5-0.4-0.9-0.6c-0.4-0.2-0.8-0.4-1.4-0.6
			c-0.6-0.2-1.2-0.2-2-0.2c-0.7,0-1.4,0.1-2,0.3c-0.6,0.2-1.1,0.5-1.5,0.8c-0.4,0.3-0.7,0.7-1,1.2c-0.2,0.5-0.4,0.9-0.4,1.4
			c0,0.6,0.2,1.1,0.5,1.6c0.3,0.4,0.7,0.8,1.3,1.1c0.5,0.3,1.1,0.5,1.8,0.8s1.3,0.4,2,0.6c0.7,0.2,1.4,0.5,2,0.7
			c0.7,0.3,1.2,0.6,1.8,1c0.5,0.4,0.9,0.9,1.3,1.4s0.5,1.2,0.5,2c0,0.9-0.2,1.7-0.5,2.4s-0.8,1.4-1.4,1.9c-0.6,0.5-1.3,1-2.2,1.3
			c-0.9,0.3-1.9,0.5-3,0.5c-1.4,0-2.6-0.2-3.6-0.7c-1-0.4-1.9-1-2.7-1.8l0.5-0.7c0.1-0.1,0.1-0.2,0.2-0.2s0.2-0.1,0.3-0.1
			c0.2,0,0.4,0.1,0.6,0.3s0.6,0.4,1,0.7c0.4,0.2,0.9,0.5,1.5,0.7s1.4,0.3,2.2,0.3c0.8,0,1.6-0.1,2.2-0.4c0.6-0.2,1.2-0.5,1.6-0.9
			s0.8-0.9,1-1.4s0.3-1.1,0.3-1.7c0-0.7-0.2-1.2-0.5-1.7c-0.3-0.4-0.7-0.8-1.3-1.1c-0.5-0.3-1.1-0.6-1.8-0.8c-0.7-0.2-1.3-0.4-2-0.6
			c-0.7-0.2-1.4-0.4-2-0.7s-1.2-0.6-1.8-1c-0.5-0.4-0.9-0.9-1.3-1.4c-0.3-0.6-0.5-1.2-0.5-2.1c0-0.7,0.2-1.4,0.5-2
			c0.3-0.7,0.7-1.2,1.3-1.7c0.6-0.5,1.3-0.9,2.1-1.2c0.8-0.3,1.7-0.4,2.7-0.4c1.2,0,2.3,0.2,3.2,0.5c0.9,0.4,1.8,0.9,2.6,1.6
			L409.8,138.7z"/>
		<path d="M436.2,156.1c-0.4,0-0.6-0.2-0.7-0.6l-0.3-2.5c-0.5,0.5-1.1,1-1.6,1.4c-0.5,0.4-1.1,0.8-1.7,1.1c-0.6,0.3-1.2,0.5-1.9,0.7
			c-0.7,0.2-1.4,0.2-2.2,0.2c-0.7,0-1.3-0.1-2-0.3c-0.6-0.2-1.2-0.5-1.7-0.9c-0.5-0.4-0.9-0.9-1.2-1.6c-0.3-0.6-0.4-1.4-0.4-2.3
			c0-0.8,0.2-1.6,0.7-2.3c0.5-0.7,1.2-1.3,2.2-1.9c1-0.5,2.3-1,3.9-1.3c1.6-0.3,3.5-0.5,5.8-0.6v-2.1c0-1.8-0.4-3.3-1.2-4.2
			c-0.8-1-2-1.5-3.5-1.5c-1,0-1.8,0.1-2.5,0.4c-0.7,0.3-1.2,0.6-1.7,0.9c-0.5,0.3-0.8,0.6-1.1,0.9c-0.3,0.3-0.5,0.4-0.7,0.4
			c-0.3,0-0.5-0.1-0.6-0.4l-0.3-0.6c1-1,2.1-1.8,3.3-2.4s2.4-0.8,3.9-0.8c1.1,0,2,0.2,2.8,0.5s1.5,0.8,2,1.5
			c0.5,0.6,0.9,1.4,1.2,2.3c0.3,0.9,0.4,1.9,0.4,3v13H436.2z M428.2,155.1c0.8,0,1.5-0.1,2.1-0.2c0.6-0.2,1.2-0.4,1.8-0.7
			c0.6-0.3,1.1-0.7,1.5-1.1c0.5-0.4,1-0.9,1.4-1.3v-5.2c-1.9,0.1-3.5,0.2-4.9,0.4c-1.4,0.2-2.5,0.5-3.4,0.9c-0.9,0.4-1.5,0.9-2,1.4
			c-0.4,0.6-0.6,1.2-0.6,1.9c0,0.7,0.1,1.2,0.3,1.7c0.2,0.5,0.5,0.9,0.9,1.2c0.4,0.3,0.8,0.5,1.3,0.7
			C427.1,155,427.6,155.1,428.2,155.1z"/>
		<path d="M450.3,163.2v-26.9h1c0.2,0,0.3,0,0.4,0.1c0.1,0.1,0.2,0.2,0.2,0.4l0.2,3.1c0.9-1.2,1.9-2.2,3.1-2.9
			c1.2-0.7,2.5-1.1,4-1.1c2.5,0,4.4,0.8,5.7,2.5c1.4,1.7,2,4.2,2,7.6c0,1.5-0.2,2.8-0.6,4.1c-0.4,1.3-0.9,2.4-1.7,3.3
			s-1.6,1.7-2.7,2.2c-1.1,0.5-2.3,0.8-3.7,0.8c-1.4,0-2.5-0.2-3.5-0.7c-1-0.5-1.8-1.2-2.6-2.2v9.7H450.3z M458.7,137.4
			c-1.3,0-2.5,0.3-3.6,1c-1.1,0.7-2,1.6-2.9,2.9v10.4c0.8,1.1,1.6,2,2.5,2.4s2,0.7,3.2,0.7c1.2,0,2.2-0.2,3.1-0.6s1.6-1,2.2-1.8
			c0.6-0.8,1-1.7,1.3-2.8c0.3-1.1,0.5-2.3,0.5-3.6c0-3-0.5-5.1-1.6-6.5C462.3,138.1,460.7,137.4,458.7,137.4z"/>
		<path d="M474,127v29.1h-1.9V127H474z"/>
		<path d="M493.6,156.1c-0.4,0-0.6-0.2-0.7-0.6l-0.3-2.5c-0.5,0.5-1.1,1-1.6,1.4c-0.5,0.4-1.1,0.8-1.7,1.1c-0.6,0.3-1.2,0.5-1.9,0.7
			c-0.7,0.2-1.4,0.2-2.2,0.2c-0.7,0-1.3-0.1-2-0.3c-0.6-0.2-1.2-0.5-1.7-0.9c-0.5-0.4-0.9-0.9-1.2-1.6c-0.3-0.6-0.5-1.4-0.5-2.3
			c0-0.8,0.2-1.6,0.7-2.3c0.5-0.7,1.2-1.3,2.2-1.9c1-0.5,2.3-1,3.9-1.3c1.6-0.3,3.5-0.5,5.8-0.6v-2.1c0-1.8-0.4-3.3-1.2-4.2
			c-0.8-1-2-1.5-3.5-1.5c-1,0-1.8,0.1-2.5,0.4c-0.7,0.3-1.2,0.6-1.7,0.9c-0.5,0.3-0.8,0.6-1.1,0.9c-0.3,0.3-0.5,0.4-0.7,0.4
			c-0.3,0-0.5-0.1-0.6-0.4l-0.3-0.6c1-1,2.1-1.8,3.3-2.4s2.4-0.8,3.9-0.8c1.1,0,2,0.2,2.8,0.5s1.5,0.8,2,1.5
			c0.5,0.6,0.9,1.4,1.2,2.3c0.3,0.9,0.4,1.9,0.4,3v13H493.6z M485.6,155.1c0.8,0,1.5-0.1,2.1-0.2c0.6-0.2,1.2-0.4,1.8-0.7
			c0.6-0.3,1.1-0.7,1.5-1.1c0.5-0.4,1-0.9,1.4-1.3v-5.2c-1.9,0.1-3.5,0.2-4.9,0.4c-1.4,0.2-2.5,0.5-3.4,0.9c-0.9,0.4-1.5,0.9-2,1.4
			c-0.4,0.6-0.6,1.2-0.6,1.9c0,0.7,0.1,1.2,0.3,1.7c0.2,0.5,0.5,0.9,0.9,1.2c0.4,0.3,0.8,0.5,1.3,0.7
			C484.6,155,485.1,155.1,485.6,155.1z"/>
		<path d="M513.3,138.9c-0.1,0.1-0.1,0.1-0.2,0.2c-0.1,0-0.1,0.1-0.2,0.1c-0.1,0-0.3-0.1-0.6-0.3s-0.5-0.4-0.9-0.6s-0.9-0.4-1.5-0.6
			c-0.6-0.2-1.3-0.3-2.1-0.3c-1.1,0-2.2,0.2-3.1,0.6s-1.6,1-2.2,1.8c-0.6,0.8-1.1,1.7-1.4,2.8c-0.3,1.1-0.5,2.3-0.5,3.6
			c0,1.4,0.2,2.6,0.5,3.7c0.3,1.1,0.8,2,1.4,2.7c0.6,0.7,1.3,1.3,2.2,1.7s1.8,0.6,2.8,0.6c1,0,1.8-0.1,2.4-0.3
			c0.6-0.2,1.2-0.5,1.6-0.7s0.8-0.5,1-0.7c0.2-0.2,0.4-0.3,0.6-0.3c0.2,0,0.3,0.1,0.4,0.2l0.5,0.6c-0.3,0.4-0.7,0.8-1.2,1.1
			s-1,0.6-1.6,0.9c-0.6,0.3-1.2,0.5-1.9,0.6c-0.7,0.1-1.4,0.2-2.1,0.2c-1.3,0-2.4-0.2-3.5-0.7s-1.9-1.1-2.7-2
			c-0.8-0.9-1.3-1.9-1.8-3.2c-0.4-1.3-0.6-2.7-0.6-4.3c0-1.5,0.2-2.9,0.6-4.2c0.4-1.3,1-2.3,1.8-3.2c0.8-0.9,1.7-1.6,2.8-2.1
			s2.4-0.8,3.8-0.8c1.3,0,2.4,0.2,3.5,0.6c1,0.4,1.9,1,2.6,1.7L513.3,138.9z"/>
		<path d="M525.7,135.9c1.1,0,2.2,0.2,3.1,0.6c1,0.4,1.8,1,2.5,1.7c0.7,0.7,1.2,1.7,1.6,2.7c0.4,1.1,0.6,2.3,0.6,3.7
			c0,0.3,0,0.5-0.1,0.6c-0.1,0.1-0.2,0.2-0.4,0.2h-14.4v0.4c0,1.5,0.2,2.8,0.5,3.9s0.8,2.1,1.5,2.9c0.6,0.8,1.4,1.3,2.3,1.7
			c0.9,0.4,1.9,0.6,3,0.6c1,0,1.9-0.1,2.6-0.3c0.7-0.2,1.3-0.5,1.8-0.7c0.5-0.3,0.9-0.5,1.2-0.7c0.3-0.2,0.5-0.3,0.6-0.3
			c0.2,0,0.3,0.1,0.4,0.2l0.5,0.6c-0.3,0.4-0.7,0.8-1.3,1.1c-0.5,0.3-1.1,0.6-1.8,0.9c-0.6,0.2-1.3,0.4-2.1,0.6
			c-0.7,0.1-1.5,0.2-2.2,0.2c-1.4,0-2.6-0.2-3.7-0.7s-2.1-1.2-2.9-2.1c-0.8-0.9-1.4-2-1.9-3.3c-0.4-1.3-0.7-2.8-0.7-4.5
			c0-1.4,0.2-2.7,0.6-4c0.4-1.2,1-2.2,1.8-3.1c0.8-0.9,1.7-1.6,2.8-2C523.1,136.2,524.3,135.9,525.7,135.9z M525.8,137.3
			c-1,0-1.9,0.2-2.8,0.5c-0.8,0.3-1.5,0.8-2.1,1.4c-0.6,0.6-1.1,1.3-1.4,2.2c-0.4,0.8-0.6,1.8-0.7,2.8h13.1c0-1.1-0.1-2-0.4-2.9
			c-0.3-0.8-0.7-1.6-1.2-2.1c-0.5-0.6-1.2-1-1.9-1.4C527.5,137.5,526.7,137.3,525.8,137.3z"/>
		<path d="M543.3,136.2h1.5c0.2,0,0.3,0,0.5,0.1s0.2,0.2,0.2,0.3l5,15.7c0.1,0.3,0.2,0.6,0.2,0.9c0.1,0.3,0.1,0.6,0.2,0.8
			c0.1-0.3,0.1-0.6,0.2-0.8c0.1-0.3,0.2-0.6,0.3-0.9l5.3-15.8c0.1-0.3,0.3-0.4,0.6-0.4h0.8c0.3,0,0.5,0.1,0.6,0.4l5.3,15.8
			c0.2,0.6,0.4,1.2,0.5,1.7c0.1-0.3,0.1-0.6,0.2-0.9c0.1-0.3,0.1-0.6,0.2-0.9l5-15.7c0.1-0.3,0.3-0.5,0.7-0.5h1.4l-6.7,19.9h-1.4
			c-0.2,0-0.4-0.1-0.5-0.4l-5.5-16.2c-0.1-0.2-0.1-0.4-0.2-0.6c-0.1-0.2-0.1-0.4-0.1-0.6c0,0.2-0.1,0.4-0.1,0.6
			c0,0.2-0.1,0.4-0.2,0.6l-5.5,16.2c-0.1,0.3-0.2,0.4-0.5,0.4h-1.3L543.3,136.2z"/>
		<path d="M575.4,156.1V127h1.9v12.6c0.9-1.1,2-2,3.2-2.7s2.5-1,4-1c1.1,0,2.1,0.2,2.9,0.5c0.8,0.3,1.5,0.8,2.1,1.5
			c0.5,0.7,1,1.4,1.2,2.4s0.4,2,0.4,3.1v12.7h-1.9v-12.7c0-1.9-0.4-3.3-1.3-4.4c-0.9-1.1-2.2-1.6-3.9-1.6c-1.3,0-2.5,0.3-3.6,1
			s-2.1,1.6-3,2.8v14.9H575.4z"/>
		<path d="M604.4,135.9c1.1,0,2.2,0.2,3.1,0.6c1,0.4,1.8,1,2.5,1.7c0.7,0.7,1.2,1.7,1.6,2.7c0.4,1.1,0.6,2.3,0.6,3.7
			c0,0.3,0,0.5-0.1,0.6c-0.1,0.1-0.2,0.2-0.4,0.2h-14.4v0.4c0,1.5,0.2,2.8,0.5,3.9s0.8,2.1,1.5,2.9c0.6,0.8,1.4,1.3,2.3,1.7
			c0.9,0.4,1.9,0.6,3,0.6c1,0,1.9-0.1,2.6-0.3c0.7-0.2,1.3-0.5,1.8-0.7c0.5-0.3,0.9-0.5,1.2-0.7c0.3-0.2,0.5-0.3,0.6-0.3
			c0.2,0,0.3,0.1,0.4,0.2l0.5,0.6c-0.3,0.4-0.7,0.8-1.3,1.1c-0.5,0.3-1.1,0.6-1.8,0.9c-0.6,0.2-1.3,0.4-2.1,0.6
			c-0.7,0.1-1.5,0.2-2.2,0.2c-1.4,0-2.6-0.2-3.7-0.7s-2.1-1.2-2.9-2.1c-0.8-0.9-1.4-2-1.9-3.3c-0.4-1.3-0.7-2.8-0.7-4.5
			c0-1.4,0.2-2.7,0.6-4c0.4-1.2,1-2.2,1.8-3.1c0.8-0.9,1.7-1.6,2.8-2C601.7,136.2,603,135.9,604.4,135.9z M604.4,137.3
			c-1,0-1.9,0.2-2.8,0.5c-0.8,0.3-1.5,0.8-2.1,1.4c-0.6,0.6-1.1,1.3-1.4,2.2c-0.4,0.8-0.6,1.8-0.7,2.8h13.1c0-1.1-0.1-2-0.4-2.9
			c-0.3-0.8-0.7-1.6-1.2-2.1c-0.5-0.6-1.2-1-1.9-1.4C606.1,137.5,605.3,137.3,604.4,137.3z"/>
		<path d="M617.2,156.1v-19.9h1c0.2,0,0.4,0,0.5,0.1c0.1,0.1,0.2,0.3,0.2,0.5l0.2,4.2c0.6-1.6,1.5-2.9,2.6-3.8
			c1.1-0.9,2.4-1.4,3.9-1.4c0.6,0,1.2,0.1,1.7,0.2c0.5,0.1,1,0.3,1.4,0.5l-0.3,1.3c0,0.2-0.2,0.3-0.4,0.3c-0.1,0-0.2,0-0.3-0.1
			c-0.1-0.1-0.3-0.1-0.5-0.2c-0.2-0.1-0.5-0.1-0.8-0.2c-0.3-0.1-0.7-0.1-1.1-0.1c-1.5,0-2.7,0.5-3.7,1.4c-1,0.9-1.8,2.3-2.4,4v12.9
			H617.2z"/>
		<path d="M640.4,135.9c1.1,0,2.2,0.2,3.1,0.6c1,0.4,1.8,1,2.5,1.7c0.7,0.7,1.2,1.7,1.6,2.7c0.4,1.1,0.6,2.3,0.6,3.7
			c0,0.3,0,0.5-0.1,0.6c-0.1,0.1-0.2,0.2-0.4,0.2h-14.4v0.4c0,1.5,0.2,2.8,0.5,3.9s0.8,2.1,1.5,2.9c0.6,0.8,1.4,1.3,2.3,1.7
			c0.9,0.4,1.9,0.6,3,0.6c1,0,1.9-0.1,2.6-0.3c0.7-0.2,1.3-0.5,1.8-0.7c0.5-0.3,0.9-0.5,1.2-0.7c0.3-0.2,0.5-0.3,0.6-0.3
			c0.2,0,0.3,0.1,0.4,0.2l0.5,0.6c-0.3,0.4-0.7,0.8-1.3,1.1c-0.5,0.3-1.1,0.6-1.8,0.9c-0.6,0.2-1.3,0.4-2.1,0.6
			c-0.7,0.1-1.5,0.2-2.2,0.2c-1.4,0-2.6-0.2-3.7-0.7s-2.1-1.2-2.9-2.1c-0.8-0.9-1.4-2-1.9-3.3c-0.4-1.3-0.7-2.8-0.7-4.5
			c0-1.4,0.2-2.7,0.6-4c0.4-1.2,1-2.2,1.8-3.1c0.8-0.9,1.7-1.6,2.8-2C637.7,136.2,639,135.9,640.4,135.9z M640.4,137.3
			c-1,0-1.9,0.2-2.8,0.5c-0.8,0.3-1.5,0.8-2.1,1.4c-0.6,0.6-1.1,1.3-1.4,2.2c-0.4,0.8-0.6,1.8-0.7,2.8h13.1c0-1.1-0.1-2-0.4-2.9
			c-0.3-0.8-0.7-1.6-1.2-2.1c-0.5-0.6-1.2-1-1.9-1.4C642.1,137.5,641.3,137.3,640.4,137.3z"/>
		<path d="M124.7,204.5c-1.3,0-2.4-0.4-3.1-1.1c-0.7-0.7-1.1-1.9-1.1-3.5v-13.6h-2.9c-0.1,0-0.3,0-0.4-0.1c-0.1-0.1-0.1-0.2-0.1-0.3
			v-0.7l3.4-0.2l0.5-7.1c0-0.1,0.1-0.2,0.1-0.3c0.1-0.1,0.2-0.1,0.3-0.1h0.9v7.6h6.3v1.4h-6.3v13.5c0,0.5,0.1,1,0.2,1.4
			c0.1,0.4,0.3,0.7,0.6,1c0.2,0.3,0.5,0.4,0.9,0.6c0.3,0.1,0.7,0.2,1.1,0.2c0.5,0,0.9-0.1,1.2-0.2c0.3-0.1,0.6-0.3,0.9-0.5
			c0.3-0.2,0.5-0.3,0.6-0.5c0.2-0.1,0.3-0.2,0.4-0.2c0.1,0,0.2,0.1,0.3,0.2l0.5,0.8c-0.5,0.6-1.1,1-1.9,1.4
			C126.3,204.3,125.5,204.5,124.7,204.5z"/>
		<path d="M133.3,204.1V175h1.9v12.6c0.9-1.1,2-2,3.1-2.7s2.5-1,4-1c1.1,0,2.1,0.2,2.9,0.5c0.8,0.3,1.5,0.8,2.1,1.5
			c0.5,0.7,1,1.4,1.2,2.4c0.3,0.9,0.4,2,0.4,3.1v12.7h-1.9v-12.7c0-1.9-0.4-3.3-1.3-4.4c-0.9-1.1-2.2-1.6-3.9-1.6
			c-1.3,0-2.5,0.3-3.6,1c-1.1,0.7-2.1,1.6-3,2.8v14.9H133.3z"/>
		<path d="M162.3,183.9c1.1,0,2.2,0.2,3.1,0.6c1,0.4,1.8,1,2.5,1.7c0.7,0.7,1.2,1.7,1.6,2.7c0.4,1.1,0.6,2.3,0.6,3.7
			c0,0.3,0,0.5-0.1,0.6c-0.1,0.1-0.2,0.2-0.4,0.2h-14.4v0.4c0,1.5,0.2,2.8,0.5,3.9c0.3,1.1,0.8,2.1,1.5,2.9c0.6,0.8,1.4,1.3,2.3,1.7
			s1.9,0.6,3,0.6c1,0,1.9-0.1,2.6-0.3c0.7-0.2,1.4-0.5,1.9-0.7c0.5-0.3,0.9-0.5,1.2-0.7c0.3-0.2,0.5-0.3,0.6-0.3
			c0.2,0,0.3,0.1,0.4,0.2l0.5,0.6c-0.3,0.4-0.7,0.8-1.3,1.1c-0.5,0.3-1.1,0.6-1.8,0.9c-0.6,0.2-1.3,0.4-2.1,0.6
			c-0.7,0.1-1.5,0.2-2.2,0.2c-1.4,0-2.6-0.2-3.7-0.7c-1.1-0.5-2.1-1.2-2.9-2.1c-0.8-0.9-1.4-2-1.9-3.3c-0.4-1.3-0.7-2.8-0.7-4.5
			c0-1.4,0.2-2.7,0.6-4c0.4-1.2,1-2.2,1.8-3.1c0.8-0.9,1.7-1.6,2.8-2C159.6,184.2,160.9,183.9,162.3,183.9z M162.4,185.3
			c-1,0-1.9,0.2-2.8,0.5c-0.8,0.3-1.5,0.8-2.1,1.4c-0.6,0.6-1.1,1.3-1.4,2.2c-0.4,0.8-0.6,1.8-0.7,2.8h13.1c0-1.1-0.1-2-0.4-2.9
			c-0.3-0.8-0.7-1.6-1.2-2.1c-0.5-0.6-1.2-1-1.9-1.4C164.1,185.5,163.3,185.3,162.4,185.3z"/>
		<path d="M179.1,210.5c-0.1,0.2-0.2,0.3-0.3,0.5c-0.1,0.1-0.3,0.2-0.5,0.2h-1.4l3.5-7.8l-8.4-19.2h1.6c0.2,0,0.4,0,0.5,0.1
			c0.1,0.1,0.2,0.2,0.2,0.3l6.7,15.5c0.1,0.2,0.1,0.4,0.2,0.6c0.1,0.2,0.1,0.4,0.2,0.6c0.1-0.2,0.1-0.4,0.2-0.6
			c0.1-0.2,0.2-0.4,0.2-0.6l6.6-15.5c0.1-0.1,0.2-0.3,0.3-0.4c0.1-0.1,0.3-0.1,0.4-0.1h1.5L179.1,210.5z"/>
		<path d="M214.7,186.9c-0.1,0.1-0.1,0.1-0.2,0.2s-0.1,0.1-0.2,0.1c-0.1,0-0.3-0.1-0.5-0.3c-0.2-0.2-0.5-0.4-0.9-0.6
			s-0.9-0.4-1.4-0.6c-0.6-0.2-1.3-0.3-2.1-0.3c-1.1,0-2.2,0.2-3,0.6s-1.6,1-2.2,1.8c-0.6,0.8-1.1,1.7-1.4,2.8
			c-0.3,1.1-0.5,2.3-0.5,3.6c0,1.4,0.2,2.6,0.5,3.7c0.3,1.1,0.8,2,1.4,2.7c0.6,0.7,1.3,1.3,2.2,1.7c0.9,0.4,1.8,0.6,2.8,0.6
			c1,0,1.8-0.1,2.4-0.3c0.6-0.2,1.2-0.5,1.6-0.7s0.8-0.5,1-0.7c0.2-0.2,0.4-0.3,0.6-0.3c0.2,0,0.3,0.1,0.4,0.2l0.5,0.6
			c-0.3,0.4-0.7,0.8-1.2,1.1s-1,0.6-1.6,0.9c-0.6,0.3-1.2,0.5-1.9,0.6c-0.7,0.1-1.4,0.2-2.2,0.2c-1.3,0-2.4-0.2-3.5-0.7
			c-1-0.5-1.9-1.1-2.7-2c-0.8-0.9-1.3-1.9-1.8-3.2c-0.4-1.3-0.6-2.7-0.6-4.3c0-1.5,0.2-2.9,0.6-4.2c0.4-1.3,1-2.3,1.8-3.2
			s1.7-1.6,2.8-2.1c1.1-0.5,2.4-0.8,3.8-0.8c1.3,0,2.4,0.2,3.5,0.6c1,0.4,1.9,1,2.6,1.7L214.7,186.9z"/>
		<path d="M232.4,204.1c-0.4,0-0.6-0.2-0.7-0.6l-0.3-2.5c-0.5,0.5-1.1,1-1.6,1.4c-0.5,0.4-1.1,0.8-1.7,1.1c-0.6,0.3-1.2,0.5-1.9,0.7
			c-0.7,0.2-1.4,0.2-2.2,0.2c-0.7,0-1.3-0.1-2-0.3s-1.2-0.5-1.7-0.9c-0.5-0.4-0.9-0.9-1.2-1.6c-0.3-0.6-0.4-1.4-0.4-2.3
			c0-0.8,0.2-1.6,0.7-2.3c0.5-0.7,1.2-1.3,2.2-1.9c1-0.5,2.3-1,3.9-1.3c1.6-0.3,3.5-0.5,5.8-0.6v-2.1c0-1.8-0.4-3.3-1.2-4.2
			s-2-1.5-3.5-1.5c-1,0-1.8,0.1-2.5,0.4s-1.2,0.6-1.7,0.9c-0.5,0.3-0.8,0.6-1.1,0.9c-0.3,0.3-0.5,0.4-0.7,0.4
			c-0.3,0-0.5-0.1-0.6-0.4l-0.3-0.6c1-1,2.1-1.8,3.3-2.4c1.1-0.5,2.4-0.8,3.9-0.8c1.1,0,2,0.2,2.8,0.5c0.8,0.3,1.5,0.8,2,1.5
			s0.9,1.4,1.2,2.3c0.3,0.9,0.4,1.9,0.4,3v13H232.4z M224.4,203.1c0.8,0,1.5-0.1,2.1-0.2c0.6-0.2,1.2-0.4,1.8-0.7
			c0.6-0.3,1.1-0.7,1.5-1.1c0.5-0.4,1-0.9,1.4-1.3v-5.2c-1.9,0.1-3.5,0.2-4.9,0.4c-1.4,0.2-2.5,0.5-3.4,0.9c-0.9,0.4-1.5,0.9-2,1.4
			c-0.4,0.6-0.6,1.2-0.6,1.9c0,0.7,0.1,1.2,0.3,1.7c0.2,0.5,0.5,0.9,0.9,1.2c0.4,0.3,0.8,0.5,1.3,0.7
			C223.3,203,223.8,203.1,224.4,203.1z"/>
		<path d="M239,204.1v-19.9h1c0.3,0,0.5,0.2,0.6,0.5l0.2,3c0.9-1.1,2-2.1,3.2-2.8c1.2-0.7,2.5-1.1,4-1.1c1.1,0,2.1,0.2,2.9,0.5
			c0.8,0.3,1.5,0.8,2.1,1.5c0.5,0.7,1,1.4,1.2,2.4c0.3,0.9,0.4,2,0.4,3.1v12.7h-1.9v-12.7c0-1.9-0.4-3.3-1.3-4.4
			c-0.9-1.1-2.2-1.6-3.9-1.6c-1.3,0-2.5,0.3-3.6,1c-1.1,0.7-2.1,1.6-3,2.8v14.9H239z"/>
		<path d="M268.1,204.1v-16.5l-1.4-0.3c-0.5-0.1-0.8-0.3-1.1-0.5c-0.3-0.2-0.4-0.6-0.4-1v-2.4h2.9v-1.2c0-1.2,0.2-2.3,0.6-3.2
			c0.4-1,0.9-1.8,1.6-2.5s1.6-1.2,2.6-1.6c1-0.4,2.2-0.6,3.5-0.6c0.5,0,1,0,1.4,0.1s0.9,0.2,1.4,0.3l-0.1,3c0,0.2-0.1,0.4-0.2,0.5
			s-0.2,0.3-0.4,0.3c-0.1,0.1-0.3,0.2-0.5,0.2c-0.2,0-0.4,0.1-0.5,0.1c-0.5,0-1,0.1-1.5,0.2c-0.4,0.1-0.8,0.3-1.1,0.6
			c-0.3,0.3-0.5,0.6-0.6,1.1c-0.1,0.4-0.2,1-0.2,1.7v1h4.9v4.2h-4.7v16.5H268.1z"/>
		<path d="M295.8,204.1c-0.6,0-1-0.1-1.3-0.2c-0.3-0.2-0.6-0.5-0.8-1l-0.4-1.1c-0.5,0.4-1,0.8-1.5,1.2c-0.5,0.3-1,0.6-1.5,0.9
			c-0.5,0.2-1.1,0.4-1.6,0.5c-0.6,0.1-1.2,0.2-1.9,0.2c-0.9,0-1.8-0.1-2.6-0.4c-0.8-0.2-1.4-0.6-2-1.1c-0.5-0.5-1-1.1-1.2-1.8
			c-0.3-0.7-0.4-1.5-0.4-2.5c0-0.7,0.2-1.5,0.6-2.3c0.4-0.8,1-1.5,1.9-2.1c0.9-0.6,2.2-1.2,3.7-1.6s3.5-0.6,5.9-0.6v-0.9
			c0-1.2-0.2-2.1-0.8-2.7s-1.2-0.8-2.1-0.8c-0.7,0-1.3,0.1-1.8,0.2c-0.5,0.2-0.9,0.3-1.2,0.5c-0.4,0.2-0.7,0.4-1.1,0.5
			s-0.8,0.2-1.2,0.2c-0.4,0-0.8-0.1-1.1-0.3c-0.3-0.2-0.5-0.5-0.7-0.8l-1.1-1.9c1.3-1.1,2.6-1.9,4.2-2.5s3.2-0.8,4.9-0.8
			c1.3,0,2.4,0.2,3.4,0.6c1,0.4,1.9,1,2.6,1.7c0.7,0.7,1.2,1.6,1.6,2.6c0.4,1,0.6,2.1,0.6,3.3v13H295.8z M288.7,200.4
			c0.8,0,1.5-0.1,2.1-0.4c0.6-0.3,1.2-0.7,1.8-1.4v-2.8c-1.2,0-2.3,0.1-3.1,0.2s-1.4,0.4-1.9,0.6c-0.5,0.2-0.8,0.5-1,0.8
			c-0.2,0.3-0.3,0.6-0.3,1c0,0.7,0.2,1.2,0.6,1.5C287.4,200.2,287.9,200.4,288.7,200.4z"/>
		<path d="M302.9,204.1v-29.9h6.2v11.4c0.8-0.8,1.6-1.4,2.6-1.8s2.1-0.7,3.5-0.7c1.1,0,2.1,0.2,3,0.7c0.9,0.5,1.7,1.1,2.4,2
			c0.7,0.9,1.2,2,1.6,3.3s0.6,2.8,0.6,4.5c0,1.6-0.2,3-0.7,4.3c-0.4,1.3-1,2.5-1.8,3.4s-1.7,1.7-2.8,2.3c-1.1,0.5-2.3,0.8-3.6,0.8
			c-0.6,0-1.2-0.1-1.6-0.2c-0.5-0.1-0.9-0.3-1.3-0.5c-0.4-0.2-0.8-0.5-1.1-0.8c-0.3-0.3-0.7-0.6-1-1l-0.2,1
			c-0.1,0.4-0.3,0.7-0.5,0.9c-0.2,0.2-0.6,0.2-1,0.2H302.9z M313,187.7c-0.5,0-0.9,0-1.2,0.1c-0.4,0.1-0.7,0.2-1,0.4
			c-0.3,0.2-0.6,0.4-0.9,0.6c-0.3,0.2-0.5,0.5-0.8,0.9v8.8c0.5,0.5,1,0.9,1.5,1.1c0.5,0.2,1.1,0.3,1.7,0.3c0.6,0,1.1-0.1,1.6-0.3
			c0.5-0.2,0.9-0.6,1.2-1.1c0.4-0.5,0.6-1.1,0.8-2c0.2-0.8,0.3-1.8,0.3-2.9c0-1.1-0.1-2-0.2-2.8s-0.4-1.4-0.7-1.8
			c-0.3-0.5-0.6-0.8-1-1C313.9,187.8,313.5,187.7,313,187.7z"/>
		<path d="M325.9,204.1v-20.7h3.7c0.3,0,0.6,0,0.8,0.1c0.2,0.1,0.4,0.1,0.5,0.2c0.1,0.1,0.2,0.3,0.3,0.5c0.1,0.2,0.1,0.4,0.2,0.7
			l0.3,1.9c0.8-1.2,1.6-2.1,2.6-2.8c0.9-0.7,2-1,3.1-1c0.9,0,1.7,0.2,2.3,0.7l-0.8,4.6c-0.1,0.3-0.2,0.5-0.3,0.6s-0.4,0.2-0.6,0.2
			c-0.2,0-0.5,0-0.8-0.1c-0.3-0.1-0.7-0.1-1.2-0.1c-1.6,0-2.9,0.9-3.8,2.6v12.7H325.9z"/>
		<path d="M349.4,177.7c0,0.5-0.1,1-0.3,1.4c-0.2,0.4-0.5,0.8-0.8,1.1c-0.3,0.3-0.8,0.6-1.2,0.8s-0.9,0.3-1.5,0.3
			c-0.5,0-1-0.1-1.4-0.3c-0.4-0.2-0.8-0.5-1.2-0.8c-0.3-0.3-0.6-0.7-0.8-1.1c-0.2-0.4-0.3-0.9-0.3-1.4c0-0.5,0.1-1,0.3-1.4
			c0.2-0.4,0.5-0.8,0.8-1.2c0.3-0.3,0.7-0.6,1.2-0.8c0.4-0.2,0.9-0.3,1.4-0.3c0.5,0,1,0.1,1.5,0.3c0.5,0.2,0.9,0.4,1.2,0.8
			c0.3,0.3,0.6,0.7,0.8,1.2C349.3,176.7,349.4,177.2,349.4,177.7z M348.7,183.4v20.7h-6.2v-20.7H348.7z"/>
		<path d="M368.5,188.3c-0.2,0.2-0.4,0.4-0.5,0.5s-0.4,0.2-0.7,0.2c-0.3,0-0.6-0.1-0.8-0.2c-0.2-0.1-0.5-0.3-0.8-0.5
			s-0.7-0.3-1.1-0.5c-0.4-0.1-0.9-0.2-1.5-0.2c-0.8,0-1.4,0.1-2,0.4c-0.6,0.3-1,0.7-1.4,1.2s-0.6,1.2-0.8,1.9
			c-0.2,0.8-0.3,1.6-0.3,2.6c0,2,0.4,3.5,1.1,4.6s1.8,1.6,3.2,1.6c0.7,0,1.3-0.1,1.7-0.3c0.4-0.2,0.8-0.4,1.1-0.6
			c0.3-0.2,0.6-0.4,0.8-0.6c0.2-0.2,0.6-0.3,0.9-0.3c0.5,0,0.9,0.2,1.1,0.5l1.8,2.2c-0.6,0.7-1.3,1.3-2,1.8
			c-0.7,0.5-1.4,0.8-2.2,1.1c-0.7,0.3-1.5,0.4-2.2,0.5c-0.7,0.1-1.5,0.1-2.2,0.1c-1.3,0-2.5-0.2-3.6-0.7c-1.2-0.5-2.2-1.2-3-2.1
			c-0.9-0.9-1.6-2-2.1-3.4c-0.5-1.3-0.8-2.9-0.8-4.6c0-1.5,0.2-2.9,0.7-4.2c0.4-1.3,1.1-2.4,2-3.4c0.9-1,2-1.7,3.2-2.2
			c1.3-0.5,2.8-0.8,4.5-0.8c1.6,0,3.1,0.3,4.3,0.8c1.2,0.5,2.3,1.3,3.3,2.3L368.5,188.3z"/>
		<path d="M387.1,204.1c-0.6,0-1-0.1-1.3-0.2c-0.3-0.2-0.6-0.5-0.8-1l-0.4-1.1c-0.5,0.4-1,0.8-1.5,1.2c-0.5,0.3-1,0.6-1.5,0.9
			c-0.5,0.2-1.1,0.4-1.6,0.5c-0.6,0.1-1.2,0.2-1.9,0.2c-0.9,0-1.8-0.1-2.6-0.4c-0.8-0.2-1.4-0.6-2-1.1c-0.5-0.5-1-1.1-1.2-1.8
			c-0.3-0.7-0.4-1.5-0.4-2.5c0-0.7,0.2-1.5,0.6-2.3c0.4-0.8,1-1.5,1.9-2.1c0.9-0.6,2.2-1.2,3.7-1.6s3.5-0.6,5.9-0.6v-0.9
			c0-1.2-0.2-2.1-0.8-2.7s-1.2-0.8-2.1-0.8c-0.7,0-1.3,0.1-1.8,0.2c-0.5,0.2-0.9,0.3-1.2,0.5c-0.4,0.2-0.7,0.4-1.1,0.5
			s-0.8,0.2-1.2,0.2c-0.4,0-0.8-0.1-1.1-0.3c-0.3-0.2-0.5-0.5-0.7-0.8l-1.1-1.9c1.3-1.1,2.6-1.9,4.2-2.5s3.2-0.8,4.9-0.8
			c1.3,0,2.4,0.2,3.4,0.6c1,0.4,1.9,1,2.6,1.7c0.7,0.7,1.2,1.6,1.6,2.6c0.4,1,0.6,2.1,0.6,3.3v13H387.1z M380,200.4
			c0.8,0,1.5-0.1,2.1-0.4c0.6-0.3,1.2-0.7,1.8-1.4v-2.8c-1.2,0-2.3,0.1-3.1,0.2s-1.4,0.4-1.9,0.6c-0.5,0.2-0.8,0.5-1,0.8
			c-0.2,0.3-0.3,0.6-0.3,1c0,0.7,0.2,1.2,0.6,1.5C378.7,200.2,379.3,200.4,380,200.4z"/>
		<path d="M401.5,204.5c-1,0-1.9-0.1-2.6-0.4s-1.4-0.7-1.9-1.2c-0.5-0.5-0.9-1.2-1.2-1.9c-0.3-0.7-0.4-1.6-0.4-2.5v-10.7h-1.8
			c-0.3,0-0.6-0.1-0.8-0.3c-0.2-0.2-0.3-0.5-0.3-0.9V184l3.3-0.6l1.2-5.1c0.2-0.6,0.6-1,1.4-1h3.2v6.1h5v4.2h-5V198
			c0,0.5,0.1,0.9,0.4,1.2c0.2,0.3,0.6,0.5,1,0.5c0.2,0,0.4,0,0.6-0.1s0.3-0.1,0.4-0.2s0.2-0.1,0.3-0.2c0.1,0,0.2-0.1,0.3-0.1
			c0.2,0,0.3,0,0.5,0.1c0.1,0.1,0.2,0.2,0.4,0.4l1.9,2.9c-0.8,0.6-1.7,1-2.7,1.4C403.6,204.3,402.5,204.5,401.5,204.5z"/>
		<path d="M418.9,183.1c1.4,0,2.6,0.2,3.8,0.6s2.1,1,2.9,1.9c0.8,0.8,1.5,1.8,1.9,3c0.5,1.2,0.7,2.5,0.7,4c0,0.5,0,0.8-0.1,1.1
			c0,0.3-0.1,0.5-0.2,0.7c-0.1,0.2-0.2,0.3-0.4,0.4s-0.4,0.1-0.7,0.1h-12c0.2,1.7,0.7,3,1.6,3.8c0.9,0.8,2,1.2,3.3,1.2
			c0.7,0,1.3-0.1,1.9-0.3c0.5-0.2,1-0.4,1.4-0.6c0.4-0.2,0.8-0.4,1.1-0.6c0.3-0.2,0.7-0.3,1.1-0.3c0.5,0,0.9,0.2,1.1,0.5l1.8,2.2
			c-0.6,0.7-1.3,1.3-2.1,1.8c-0.7,0.5-1.5,0.8-2.3,1.1c-0.8,0.3-1.6,0.4-2.3,0.5c-0.8,0.1-1.5,0.1-2.2,0.1c-1.5,0-2.8-0.2-4.1-0.7
			s-2.4-1.2-3.3-2.1c-1-0.9-1.7-2.1-2.3-3.5c-0.6-1.4-0.8-3-0.8-4.8c0-1.4,0.2-2.7,0.7-3.9c0.5-1.2,1.2-2.3,2-3.3
			c0.9-0.9,2-1.7,3.2-2.2C415.9,183.4,417.3,183.1,418.9,183.1z M419,187.4c-1.2,0-2.1,0.3-2.8,1c-0.7,0.7-1.1,1.6-1.3,2.9h7.7
			c0-0.5-0.1-1-0.2-1.4s-0.3-0.9-0.6-1.2c-0.3-0.4-0.7-0.7-1.1-0.9C420.3,187.5,419.7,187.4,419,187.4z"/>
		<path d="M440.1,204.1v-16.5l-1.4-0.3c-0.5-0.1-0.8-0.3-1.1-0.5c-0.3-0.2-0.4-0.6-0.4-1v-2.4h2.9v-1.2c0-1.2,0.2-2.3,0.6-3.2
			s0.9-1.8,1.6-2.5c0.7-0.7,1.6-1.2,2.6-1.6c1-0.4,2.2-0.6,3.5-0.6c0.5,0,1,0,1.4,0.1c0.4,0.1,0.9,0.2,1.3,0.3l-0.1,3
			c0,0.2-0.1,0.4-0.2,0.5c-0.1,0.1-0.2,0.3-0.4,0.3c-0.1,0.1-0.3,0.2-0.5,0.2c-0.2,0-0.4,0.1-0.5,0.1c-0.5,0-1,0.1-1.5,0.2
			c-0.4,0.1-0.8,0.3-1.1,0.6c-0.3,0.3-0.5,0.6-0.6,1.1c-0.1,0.4-0.2,1-0.2,1.7v1h4.9v4.2h-4.7v16.5H440.1z"/>
		<path d="M462.8,183.1c1.6,0,3,0.2,4.3,0.7s2.4,1.2,3.3,2.1c0.9,0.9,1.6,2,2.2,3.4c0.5,1.3,0.8,2.8,0.8,4.4c0,1.7-0.3,3.1-0.8,4.5
			c-0.5,1.3-1.2,2.5-2.2,3.4c-0.9,0.9-2,1.6-3.3,2.1s-2.7,0.8-4.3,0.8c-1.6,0-3-0.2-4.3-0.8s-2.4-1.2-3.4-2.1
			c-0.9-0.9-1.7-2.1-2.2-3.4c-0.5-1.3-0.8-2.8-0.8-4.5c0-1.6,0.3-3.1,0.8-4.4c0.5-1.3,1.2-2.4,2.2-3.4c0.9-0.9,2.1-1.6,3.4-2.1
			S461.2,183.1,462.8,183.1z M462.8,199.9c1.4,0,2.5-0.5,3.2-1.5c0.7-1,1-2.5,1-4.6s-0.3-3.6-1-4.6c-0.7-1-1.7-1.5-3.2-1.5
			c-1.5,0-2.5,0.5-3.2,1.5s-1,2.5-1,4.6s0.3,3.6,1,4.6C460.2,199.4,461.3,199.9,462.8,199.9z"/>
		<path d="M476.6,204.1v-20.7h3.7c0.3,0,0.6,0,0.8,0.1c0.2,0.1,0.4,0.1,0.5,0.2c0.1,0.1,0.2,0.3,0.3,0.5c0.1,0.2,0.1,0.4,0.2,0.7
			l0.3,1.9c0.8-1.2,1.6-2.1,2.6-2.8c0.9-0.7,2-1,3.1-1c0.9,0,1.7,0.2,2.3,0.7l-0.8,4.6c-0.1,0.3-0.2,0.5-0.3,0.6s-0.4,0.2-0.6,0.2
			c-0.2,0-0.5,0-0.8-0.1s-0.7-0.1-1.2-0.1c-1.6,0-2.9,0.9-3.8,2.6v12.7H476.6z"/>
		<path d="M506.9,174.2v29.9h-6.2v-29.9H506.9z"/>
		<path d="M521,183.1c1.6,0,3,0.2,4.3,0.7c1.3,0.5,2.4,1.2,3.3,2.1c0.9,0.9,1.6,2,2.2,3.4c0.5,1.3,0.8,2.8,0.8,4.4
			c0,1.7-0.3,3.1-0.8,4.5c-0.5,1.3-1.2,2.5-2.2,3.4s-2,1.6-3.3,2.1c-1.3,0.5-2.7,0.8-4.3,0.8c-1.6,0-3-0.2-4.3-0.8
			c-1.3-0.5-2.4-1.2-3.4-2.1c-0.9-0.9-1.7-2.1-2.2-3.4c-0.5-1.3-0.8-2.8-0.8-4.5c0-1.6,0.3-3.1,0.8-4.4c0.5-1.3,1.2-2.4,2.2-3.4
			c0.9-0.9,2.1-1.6,3.4-2.1C517.9,183.3,519.4,183.1,521,183.1z M521,199.9c1.4,0,2.5-0.5,3.2-1.5c0.7-1,1-2.5,1-4.6s-0.3-3.6-1-4.6
			c-0.7-1-1.7-1.5-3.2-1.5c-1.5,0-2.5,0.5-3.2,1.5s-1,2.5-1,4.6s0.3,3.6,1,4.6C518.4,199.4,519.5,199.9,521,199.9z"/>
		<path d="M532.4,183.4h5c0.4,0,0.8,0.1,1.1,0.3c0.3,0.2,0.5,0.5,0.6,0.8l2.1,9.3c0.2,0.7,0.3,1.4,0.4,2.1c0.1,0.7,0.3,1.3,0.4,2
			c0.2-0.7,0.4-1.3,0.6-2c0.2-0.7,0.4-1.4,0.6-2.1l2.6-9.3c0.1-0.3,0.3-0.6,0.6-0.8c0.3-0.2,0.7-0.3,1.1-0.3h2.8
			c0.4,0,0.8,0.1,1.1,0.3c0.3,0.2,0.5,0.5,0.6,0.8l2.5,9.3c0.2,0.7,0.4,1.4,0.6,2.1c0.2,0.7,0.4,1.3,0.5,2c0.1-0.7,0.2-1.3,0.4-2
			s0.3-1.4,0.5-2.1l2.2-9.3c0.1-0.3,0.3-0.6,0.6-0.8c0.3-0.2,0.7-0.3,1.1-0.3h4.7l-6.4,20.7h-5c-0.3,0-0.5-0.1-0.7-0.2
			c-0.2-0.2-0.3-0.4-0.4-0.8l-3-10.3c-0.1-0.5-0.3-0.9-0.4-1.4s-0.2-0.9-0.3-1.4c-0.1,0.5-0.2,0.9-0.3,1.4s-0.2,0.9-0.4,1.4l-3,10.3
			c-0.2,0.7-0.6,1-1.3,1h-4.8L532.4,183.4z"/>
		<path d="M576,183.1c1.4,0,2.6,0.2,3.8,0.6c1.1,0.4,2.1,1,2.9,1.9c0.8,0.8,1.5,1.8,1.9,3c0.5,1.2,0.7,2.5,0.7,4
			c0,0.5,0,0.8-0.1,1.1c0,0.3-0.1,0.5-0.2,0.7c-0.1,0.2-0.2,0.3-0.4,0.4c-0.2,0.1-0.4,0.1-0.7,0.1h-12c0.2,1.7,0.7,3,1.6,3.8
			c0.9,0.8,2,1.2,3.3,1.2c0.7,0,1.3-0.1,1.9-0.3c0.5-0.2,1-0.4,1.4-0.6c0.4-0.2,0.8-0.4,1.1-0.6c0.3-0.2,0.7-0.3,1.1-0.3
			c0.5,0,0.9,0.2,1.1,0.5l1.8,2.2c-0.6,0.7-1.3,1.3-2.1,1.8s-1.5,0.8-2.3,1.1c-0.8,0.3-1.6,0.4-2.3,0.5s-1.5,0.1-2.2,0.1
			c-1.5,0-2.8-0.2-4.1-0.7s-2.4-1.2-3.3-2.1c-1-0.9-1.7-2.1-2.3-3.5c-0.6-1.4-0.8-3-0.8-4.8c0-1.4,0.2-2.7,0.7-3.9
			c0.5-1.2,1.2-2.3,2-3.3c0.9-0.9,2-1.7,3.2-2.2C573,183.4,574.4,183.1,576,183.1z M576.1,187.4c-1.2,0-2.1,0.3-2.8,1
			c-0.7,0.7-1.1,1.6-1.3,2.9h7.7c0-0.5-0.1-1-0.2-1.4s-0.3-0.9-0.6-1.2c-0.3-0.4-0.7-0.7-1.1-0.9
			C577.4,187.5,576.8,187.4,576.1,187.4z"/>
		<path d="M588.7,204.1v-20.7h3.7c0.3,0,0.6,0,0.8,0.1c0.2,0.1,0.4,0.1,0.5,0.2c0.1,0.1,0.2,0.3,0.3,0.5c0.1,0.2,0.1,0.4,0.2,0.7
			l0.3,1.9c0.8-1.2,1.6-2.1,2.6-2.8c0.9-0.7,2-1,3.1-1c0.9,0,1.7,0.2,2.3,0.7l-0.8,4.6c-0.1,0.3-0.2,0.5-0.3,0.6s-0.4,0.2-0.6,0.2
			c-0.2,0-0.5,0-0.8-0.1s-0.7-0.1-1.2-0.1c-1.6,0-2.9,0.9-3.8,2.6v12.7H588.7z"/>
		<path d="M627.6,188.3c-0.2,0.2-0.4,0.4-0.5,0.5c-0.2,0.1-0.4,0.2-0.7,0.2c-0.3,0-0.6-0.1-0.8-0.2c-0.2-0.1-0.5-0.3-0.8-0.5
			s-0.7-0.3-1.1-0.5c-0.4-0.1-0.9-0.2-1.5-0.2c-0.8,0-1.4,0.1-2,0.4c-0.6,0.3-1,0.7-1.4,1.2s-0.6,1.2-0.8,1.9
			c-0.2,0.8-0.3,1.6-0.3,2.6c0,2,0.4,3.5,1.1,4.6s1.8,1.6,3.2,1.6c0.7,0,1.3-0.1,1.7-0.3c0.4-0.2,0.8-0.4,1.1-0.6
			c0.3-0.2,0.6-0.4,0.8-0.6c0.2-0.2,0.6-0.3,0.9-0.3c0.5,0,0.9,0.2,1.1,0.5l1.8,2.2c-0.6,0.7-1.3,1.3-2,1.8
			c-0.7,0.5-1.4,0.8-2.2,1.1c-0.7,0.3-1.5,0.4-2.2,0.5c-0.7,0.1-1.5,0.1-2.2,0.1c-1.3,0-2.5-0.2-3.6-0.7s-2.2-1.2-3-2.1
			c-0.9-0.9-1.6-2-2.1-3.4c-0.5-1.3-0.8-2.9-0.8-4.6c0-1.5,0.2-2.9,0.7-4.2c0.4-1.3,1.1-2.4,2-3.4c0.9-1,2-1.7,3.2-2.2
			c1.3-0.5,2.8-0.8,4.5-0.8c1.6,0,3.1,0.3,4.3,0.8s2.3,1.3,3.3,2.3L627.6,188.3z"/>
		<path d="M641.2,183.1c1.6,0,3,0.2,4.3,0.7c1.3,0.5,2.4,1.2,3.3,2.1c0.9,0.9,1.6,2,2.2,3.4c0.5,1.3,0.8,2.8,0.8,4.4
			c0,1.7-0.3,3.1-0.8,4.5c-0.5,1.3-1.2,2.5-2.2,3.4s-2,1.6-3.3,2.1c-1.3,0.5-2.7,0.8-4.3,0.8c-1.6,0-3-0.2-4.3-0.8
			c-1.3-0.5-2.4-1.2-3.4-2.1c-0.9-0.9-1.7-2.1-2.2-3.4c-0.5-1.3-0.8-2.8-0.8-4.5c0-1.6,0.3-3.1,0.8-4.4c0.5-1.3,1.2-2.4,2.2-3.4
			c0.9-0.9,2.1-1.6,3.4-2.1C638.1,183.3,639.6,183.1,641.2,183.1z M641.2,199.9c1.4,0,2.5-0.5,3.2-1.5c0.7-1,1-2.5,1-4.6
			s-0.3-3.6-1-4.6c-0.7-1-1.7-1.5-3.2-1.5c-1.5,0-2.5,0.5-3.2,1.5s-1,2.5-1,4.6s0.3,3.6,1,4.6C638.6,199.4,639.7,199.9,641.2,199.9z
			"/>
		<path d="M667.6,187.9c-0.2,0.3-0.3,0.4-0.5,0.5c-0.2,0.1-0.4,0.2-0.7,0.2c-0.3,0-0.6-0.1-0.9-0.2c-0.3-0.1-0.6-0.3-1-0.4
			c-0.3-0.1-0.7-0.3-1.1-0.4c-0.4-0.1-0.9-0.2-1.5-0.2c-0.8,0-1.4,0.2-1.8,0.5s-0.6,0.7-0.6,1.2c0,0.4,0.1,0.7,0.4,1
			c0.3,0.3,0.6,0.5,1.1,0.7c0.5,0.2,1,0.4,1.5,0.6s1.2,0.4,1.8,0.6c0.6,0.2,1.2,0.5,1.8,0.8c0.6,0.3,1.1,0.6,1.5,1.1
			c0.5,0.4,0.8,0.9,1.1,1.5c0.3,0.6,0.4,1.3,0.4,2.2c0,1-0.2,2-0.6,2.8s-0.9,1.6-1.7,2.2c-0.7,0.6-1.7,1.1-2.7,1.5
			c-1.1,0.3-2.3,0.5-3.8,0.5c-0.7,0-1.4-0.1-2.1-0.2c-0.7-0.1-1.4-0.3-2-0.5s-1.3-0.5-1.8-0.8c-0.6-0.3-1-0.6-1.4-1l1.4-2.3
			c0.2-0.3,0.4-0.5,0.6-0.6s0.6-0.2,0.9-0.2c0.4,0,0.7,0.1,1,0.2c0.3,0.2,0.6,0.3,0.9,0.5c0.3,0.2,0.7,0.4,1.2,0.5
			c0.4,0.2,1,0.2,1.7,0.2c0.5,0,0.9-0.1,1.2-0.1c0.3-0.1,0.6-0.2,0.8-0.4s0.3-0.4,0.4-0.6c0.1-0.2,0.1-0.4,0.1-0.7
			c0-0.4-0.1-0.8-0.4-1c-0.3-0.3-0.6-0.5-1.1-0.7c-0.5-0.2-1-0.4-1.5-0.5c-0.6-0.2-1.2-0.4-1.8-0.6s-1.2-0.5-1.8-0.8
			c-0.6-0.3-1.1-0.7-1.6-1.1s-0.8-1-1.1-1.7c-0.3-0.7-0.4-1.5-0.4-2.4c0-0.9,0.2-1.7,0.5-2.5c0.3-0.8,0.9-1.5,1.5-2.1
			s1.5-1.1,2.6-1.4c1-0.4,2.2-0.5,3.6-0.5c0.7,0,1.5,0.1,2.2,0.2s1.4,0.3,2,0.6c0.6,0.2,1.2,0.5,1.7,0.8c0.5,0.3,1,0.7,1.3,1.1
			L667.6,187.9z"/>
		<path d="M679.7,204.5c-1,0-1.9-0.1-2.6-0.4c-0.8-0.3-1.4-0.7-1.9-1.2c-0.5-0.5-0.9-1.2-1.2-1.9c-0.3-0.7-0.4-1.6-0.4-2.5v-10.7
			h-1.8c-0.3,0-0.6-0.1-0.8-0.3c-0.2-0.2-0.3-0.5-0.3-0.9V184l3.3-0.6l1.2-5.1c0.2-0.6,0.6-1,1.4-1h3.2v6.1h5v4.2h-5V198
			c0,0.5,0.1,0.9,0.4,1.2c0.2,0.3,0.6,0.5,1,0.5c0.2,0,0.4,0,0.6-0.1c0.2,0,0.3-0.1,0.4-0.2s0.2-0.1,0.3-0.2c0.1,0,0.2-0.1,0.3-0.1
			c0.2,0,0.3,0,0.5,0.1c0.1,0.1,0.2,0.2,0.3,0.4l1.9,2.9c-0.8,0.6-1.7,1-2.7,1.4C681.8,204.3,680.7,204.5,679.7,204.5z"/>
		<path d="M214.9,252.1c-0.4,0-0.6-0.2-0.7-0.6l-0.3-2.5c-0.5,0.5-1.1,1-1.6,1.4c-0.5,0.4-1.1,0.8-1.7,1.1c-0.6,0.3-1.2,0.5-1.9,0.7
			c-0.7,0.2-1.4,0.2-2.2,0.2c-0.7,0-1.3-0.1-2-0.3s-1.2-0.5-1.7-0.9c-0.5-0.4-0.9-0.9-1.2-1.6c-0.3-0.6-0.4-1.4-0.4-2.3
			c0-0.8,0.2-1.6,0.7-2.3c0.5-0.7,1.2-1.3,2.2-1.9c1-0.5,2.3-1,3.9-1.3c1.6-0.3,3.5-0.5,5.8-0.6v-2.1c0-1.8-0.4-3.3-1.2-4.2
			s-2-1.5-3.5-1.5c-1,0-1.8,0.1-2.5,0.4s-1.2,0.6-1.7,0.9c-0.5,0.3-0.8,0.6-1.1,0.9c-0.3,0.3-0.5,0.4-0.7,0.4
			c-0.3,0-0.5-0.1-0.6-0.4l-0.3-0.6c1-1,2.1-1.8,3.3-2.4c1.1-0.5,2.4-0.8,3.9-0.8c1.1,0,2,0.2,2.8,0.5c0.8,0.3,1.5,0.8,2,1.5
			s0.9,1.4,1.2,2.3c0.3,0.9,0.4,1.9,0.4,3v13H214.9z M206.9,251.1c0.8,0,1.5-0.1,2.1-0.2c0.6-0.2,1.2-0.4,1.8-0.7
			c0.6-0.3,1.1-0.7,1.5-1.1c0.5-0.4,1-0.9,1.4-1.3v-5.2c-1.9,0.1-3.5,0.2-4.9,0.4c-1.4,0.2-2.5,0.5-3.4,0.9c-0.9,0.4-1.5,0.9-2,1.4
			c-0.4,0.6-0.6,1.2-0.6,1.9c0,0.7,0.1,1.2,0.3,1.7c0.2,0.5,0.5,0.9,0.9,1.2c0.4,0.3,0.8,0.5,1.3,0.7
			C205.9,251,206.4,251.1,206.9,251.1z"/>
		<path d="M221.5,252.1v-19.9h1c0.3,0,0.5,0.2,0.6,0.5l0.2,3c0.9-1.1,2-2.1,3.2-2.8c1.2-0.7,2.5-1.1,4-1.1c1.1,0,2.1,0.2,2.9,0.5
			c0.8,0.3,1.5,0.8,2.1,1.5c0.5,0.7,1,1.4,1.2,2.4c0.3,0.9,0.4,2,0.4,3.1v12.7h-1.9v-12.7c0-1.9-0.4-3.3-1.3-4.4
			c-0.9-1.1-2.2-1.6-3.9-1.6c-1.3,0-2.5,0.3-3.6,1c-1.1,0.7-2.1,1.6-3,2.8v14.9H221.5z"/>
		<path d="M257.1,252.1c-0.3,0-0.5-0.2-0.6-0.5l-0.2-3.1c-0.9,1.2-1.9,2.2-3.1,2.9s-2.5,1.1-4,1.1c-2.4,0-4.3-0.8-5.7-2.5
			s-2.1-4.2-2.1-7.6c0-1.5,0.2-2.8,0.6-4.1c0.4-1.3,0.9-2.4,1.7-3.3c0.7-0.9,1.6-1.7,2.7-2.2s2.3-0.8,3.7-0.8c1.3,0,2.5,0.2,3.5,0.8
			c1,0.5,1.8,1.2,2.6,2.2V223h1.9v29.1H257.1z M249.8,250.9c1.3,0,2.5-0.3,3.6-1c1.1-0.7,2-1.6,2.9-2.8v-10.5
			c-0.8-1.1-1.6-1.9-2.6-2.4c-0.9-0.5-2-0.7-3.2-0.7c-1.2,0-2.2,0.2-3.1,0.6c-0.9,0.4-1.6,1-2.2,1.8c-0.6,0.8-1,1.7-1.3,2.8
			c-0.3,1.1-0.5,2.3-0.5,3.6c0,3,0.5,5.1,1.6,6.5C246.2,250.2,247.7,250.9,249.8,250.9z"/>
		<path d="M284,235.9c-0.2,0.3-0.3,0.4-0.5,0.5c-0.2,0.1-0.4,0.2-0.7,0.2c-0.3,0-0.6-0.1-0.9-0.2c-0.3-0.1-0.6-0.3-1-0.4
			c-0.3-0.1-0.7-0.3-1.1-0.4c-0.4-0.1-0.9-0.2-1.5-0.2c-0.8,0-1.4,0.2-1.8,0.5s-0.6,0.7-0.6,1.2c0,0.4,0.1,0.7,0.4,1
			c0.3,0.3,0.6,0.5,1.1,0.7c0.5,0.2,1,0.4,1.5,0.6s1.2,0.4,1.8,0.6c0.6,0.2,1.2,0.5,1.8,0.8c0.6,0.3,1.1,0.6,1.5,1.1
			c0.5,0.4,0.8,0.9,1.1,1.5c0.3,0.6,0.4,1.3,0.4,2.2c0,1-0.2,2-0.6,2.8c-0.4,0.9-0.9,1.6-1.7,2.2c-0.7,0.6-1.7,1.1-2.7,1.5
			c-1.1,0.3-2.3,0.5-3.8,0.5c-0.7,0-1.4-0.1-2.1-0.2c-0.7-0.1-1.4-0.3-2-0.5s-1.3-0.5-1.8-0.8c-0.6-0.3-1-0.6-1.4-1l1.4-2.3
			c0.2-0.3,0.4-0.5,0.6-0.6s0.6-0.2,0.9-0.2c0.4,0,0.7,0.1,1,0.2c0.3,0.2,0.6,0.3,0.9,0.5c0.3,0.2,0.7,0.4,1.2,0.5
			c0.4,0.2,1,0.2,1.7,0.2c0.5,0,0.9-0.1,1.2-0.1c0.3-0.1,0.6-0.2,0.8-0.4c0.2-0.2,0.3-0.4,0.4-0.6c0.1-0.2,0.1-0.4,0.1-0.7
			c0-0.4-0.1-0.8-0.4-1c-0.3-0.3-0.6-0.5-1.1-0.7c-0.5-0.2-1-0.4-1.5-0.5c-0.6-0.2-1.2-0.4-1.8-0.6s-1.2-0.5-1.8-0.8
			s-1.1-0.7-1.5-1.1c-0.5-0.5-0.8-1-1.1-1.7c-0.3-0.7-0.4-1.5-0.4-2.4c0-0.9,0.2-1.7,0.5-2.5c0.3-0.8,0.9-1.5,1.5-2.1
			c0.7-0.6,1.5-1.1,2.6-1.4c1-0.4,2.2-0.5,3.6-0.5c0.7,0,1.5,0.1,2.2,0.2c0.7,0.1,1.4,0.3,2,0.6c0.6,0.2,1.2,0.5,1.7,0.8
			c0.5,0.3,1,0.7,1.3,1.1L284,235.9z"/>
		<path d="M297.7,231.1c1.4,0,2.6,0.2,3.8,0.6c1.1,0.4,2.1,1,2.9,1.9c0.8,0.8,1.5,1.8,1.9,3c0.5,1.2,0.7,2.5,0.7,4
			c0,0.5,0,0.8-0.1,1.1c0,0.3-0.1,0.5-0.2,0.7c-0.1,0.2-0.2,0.3-0.4,0.4c-0.2,0.1-0.4,0.1-0.7,0.1h-12c0.2,1.7,0.7,3,1.6,3.8
			c0.9,0.8,2,1.2,3.3,1.2c0.7,0,1.3-0.1,1.9-0.3c0.5-0.2,1-0.4,1.4-0.6c0.4-0.2,0.8-0.4,1.1-0.6c0.3-0.2,0.7-0.3,1.1-0.3
			c0.5,0,0.9,0.2,1.1,0.5l1.8,2.2c-0.6,0.7-1.3,1.3-2.1,1.8c-0.7,0.5-1.5,0.8-2.3,1.1c-0.8,0.3-1.6,0.4-2.3,0.5
			c-0.8,0.1-1.5,0.1-2.2,0.1c-1.5,0-2.8-0.2-4.1-0.7c-1.3-0.5-2.4-1.2-3.3-2.1c-1-0.9-1.7-2.1-2.3-3.5c-0.6-1.4-0.8-3-0.8-4.8
			c0-1.4,0.2-2.7,0.7-3.9c0.5-1.2,1.2-2.3,2-3.3c0.9-0.9,2-1.7,3.2-2.2C294.7,231.4,296.1,231.1,297.7,231.1z M297.8,235.4
			c-1.2,0-2.1,0.3-2.8,1c-0.7,0.7-1.1,1.6-1.3,2.9h7.7c0-0.5-0.1-1-0.2-1.4c-0.1-0.5-0.3-0.9-0.6-1.2s-0.7-0.7-1.1-0.9
			C299,235.5,298.5,235.4,297.8,235.4z"/>
		<path d="M316.8,222.2v29.9h-6.2v-29.9H316.8z"/>
		<path d="M328,222.2v29.9h-6.2v-29.9H328z"/>
		<path d="M347.7,252.5c-1,0-1.9-0.1-2.6-0.4s-1.4-0.7-1.9-1.2c-0.5-0.5-0.9-1.2-1.2-1.9c-0.3-0.7-0.4-1.6-0.4-2.5v-10.7h-1.8
			c-0.3,0-0.6-0.1-0.8-0.3c-0.2-0.2-0.3-0.5-0.3-0.9V232l3.3-0.6l1.2-5.1c0.2-0.6,0.6-1,1.4-1h3.2v6.1h5v4.2h-5V246
			c0,0.5,0.1,0.9,0.4,1.2c0.2,0.3,0.6,0.5,1,0.5c0.2,0,0.4,0,0.6-0.1s0.3-0.1,0.4-0.2s0.2-0.1,0.3-0.2c0.1,0,0.2-0.1,0.3-0.1
			c0.2,0,0.3,0,0.5,0.1c0.1,0.1,0.2,0.2,0.4,0.4l1.9,2.9c-0.8,0.6-1.7,1-2.7,1.4C349.8,252.3,348.8,252.5,347.7,252.5z"/>
		<path d="M356.3,252.1v-29.9h6.2v11c0.7-0.6,1.6-1.2,2.4-1.6c0.9-0.4,1.9-0.6,3.1-0.6c1.1,0,2.1,0.2,3,0.6c0.9,0.4,1.6,0.9,2.2,1.6
			c0.6,0.7,1.1,1.5,1.4,2.5c0.3,1,0.5,2,0.5,3.1v13.2h-6.2V239c0-1-0.2-1.8-0.7-2.4s-1.2-0.9-2.1-0.9c-0.7,0-1.3,0.1-1.9,0.4
			c-0.6,0.3-1.2,0.7-1.7,1.2v14.8H356.3z"/>
		<path d="M388.2,231.1c1.4,0,2.6,0.2,3.8,0.6c1.1,0.4,2.1,1,2.9,1.9c0.8,0.8,1.5,1.8,1.9,3c0.5,1.2,0.7,2.5,0.7,4
			c0,0.5,0,0.8-0.1,1.1c0,0.3-0.1,0.5-0.2,0.7c-0.1,0.2-0.2,0.3-0.4,0.4c-0.2,0.1-0.4,0.1-0.7,0.1h-12c0.2,1.7,0.7,3,1.6,3.8
			c0.9,0.8,2,1.2,3.3,1.2c0.7,0,1.3-0.1,1.9-0.3c0.5-0.2,1-0.4,1.4-0.6c0.4-0.2,0.8-0.4,1.1-0.6c0.3-0.2,0.7-0.3,1.1-0.3
			c0.5,0,0.9,0.2,1.1,0.5l1.8,2.2c-0.6,0.7-1.3,1.3-2.1,1.8c-0.7,0.5-1.5,0.8-2.3,1.1c-0.8,0.3-1.6,0.4-2.3,0.5
			c-0.8,0.1-1.5,0.1-2.2,0.1c-1.5,0-2.8-0.2-4.1-0.7c-1.3-0.5-2.4-1.2-3.3-2.1c-1-0.9-1.7-2.1-2.3-3.5c-0.6-1.4-0.8-3-0.8-4.8
			c0-1.4,0.2-2.7,0.7-3.9c0.5-1.2,1.2-2.3,2-3.3c0.9-0.9,2-1.7,3.2-2.2C385.2,231.4,386.6,231.1,388.2,231.1z M388.3,235.4
			c-1.2,0-2.1,0.3-2.8,1c-0.7,0.7-1.1,1.6-1.3,2.9h7.7c0-0.5-0.1-1-0.2-1.4c-0.1-0.5-0.3-0.9-0.6-1.2s-0.7-0.7-1.1-0.9
			C389.5,235.5,389,235.4,388.3,235.4z"/>
		<path d="M408,225.7c0,0.5-0.1,1-0.3,1.4s-0.5,0.8-0.8,1.1c-0.3,0.3-0.8,0.6-1.2,0.8s-0.9,0.3-1.5,0.3c-0.5,0-1-0.1-1.4-0.3
			s-0.8-0.5-1.2-0.8c-0.3-0.3-0.6-0.7-0.8-1.1c-0.2-0.4-0.3-0.9-0.3-1.4c0-0.5,0.1-1,0.3-1.4c0.2-0.4,0.5-0.8,0.8-1.2
			c0.3-0.3,0.7-0.6,1.2-0.8c0.4-0.2,0.9-0.3,1.4-0.3c0.5,0,1,0.1,1.5,0.3c0.5,0.2,0.9,0.4,1.2,0.8c0.3,0.3,0.6,0.7,0.8,1.2
			S408,225.2,408,225.7z M407.3,231.4v20.7h-6.2v-20.7H407.3z"/>
		<path d="M412.1,252.1v-20.7h3.7c0.3,0,0.6,0,0.8,0.1c0.2,0.1,0.4,0.1,0.5,0.2c0.1,0.1,0.2,0.3,0.3,0.5c0.1,0.2,0.1,0.4,0.2,0.7
			l0.3,1.9c0.8-1.2,1.6-2.1,2.6-2.8c0.9-0.7,2-1,3.1-1c0.9,0,1.7,0.2,2.3,0.7l-0.8,4.6c-0.1,0.3-0.2,0.5-0.3,0.6s-0.4,0.2-0.6,0.2
			c-0.2,0-0.5,0-0.8-0.1s-0.7-0.1-1.2-0.1c-1.6,0-2.9,0.9-3.8,2.6v12.7H412.1z"/>
		<path d="M451,236.3c-0.2,0.2-0.4,0.4-0.5,0.5c-0.2,0.1-0.4,0.2-0.7,0.2c-0.3,0-0.6-0.1-0.8-0.2c-0.2-0.1-0.5-0.3-0.8-0.5
			s-0.7-0.3-1.1-0.5c-0.4-0.1-0.9-0.2-1.5-0.2c-0.8,0-1.4,0.1-2,0.4c-0.6,0.3-1,0.7-1.4,1.2c-0.4,0.5-0.6,1.2-0.8,1.9
			c-0.2,0.8-0.3,1.6-0.3,2.6c0,2,0.4,3.5,1.1,4.6s1.8,1.6,3.2,1.6c0.7,0,1.3-0.1,1.7-0.3c0.4-0.2,0.8-0.4,1.1-0.6
			c0.3-0.2,0.6-0.4,0.8-0.6c0.2-0.2,0.6-0.3,0.9-0.3c0.5,0,0.9,0.2,1.1,0.5l1.8,2.2c-0.6,0.7-1.3,1.3-2,1.8
			c-0.7,0.5-1.4,0.8-2.2,1.1c-0.7,0.3-1.5,0.4-2.2,0.5c-0.7,0.1-1.5,0.1-2.2,0.1c-1.3,0-2.5-0.2-3.6-0.7c-1.2-0.5-2.2-1.2-3-2.1
			c-0.9-0.9-1.6-2-2.1-3.4c-0.5-1.3-0.8-2.9-0.8-4.6c0-1.5,0.2-2.9,0.7-4.2c0.4-1.3,1.1-2.4,2-3.4c0.9-1,2-1.7,3.2-2.2
			c1.3-0.5,2.8-0.8,4.5-0.8c1.6,0,3.1,0.3,4.3,0.8c1.2,0.5,2.3,1.3,3.3,2.3L451,236.3z"/>
		<path d="M455.3,252.1v-20.7h3.7c0.3,0,0.6,0,0.8,0.1c0.2,0.1,0.4,0.1,0.5,0.2c0.1,0.1,0.2,0.3,0.3,0.5c0.1,0.2,0.1,0.4,0.2,0.7
			l0.3,1.9c0.8-1.2,1.6-2.1,2.6-2.8c0.9-0.7,2-1,3.1-1c0.9,0,1.7,0.2,2.3,0.7l-0.8,4.6c-0.1,0.3-0.2,0.5-0.3,0.6s-0.4,0.2-0.6,0.2
			c-0.2,0-0.5,0-0.8-0.1c-0.3-0.1-0.7-0.1-1.2-0.1c-1.6,0-2.9,0.9-3.8,2.6v12.7H455.3z"/>
		<path d="M480.6,231.1c1.4,0,2.6,0.2,3.8,0.6c1.1,0.4,2.1,1,2.9,1.9c0.8,0.8,1.5,1.8,1.9,3c0.5,1.2,0.7,2.5,0.7,4
			c0,0.5,0,0.8-0.1,1.1c0,0.3-0.1,0.5-0.2,0.7c-0.1,0.2-0.2,0.3-0.4,0.4c-0.2,0.1-0.4,0.1-0.7,0.1h-12c0.2,1.7,0.7,3,1.6,3.8
			c0.9,0.8,2,1.2,3.3,1.2c0.7,0,1.3-0.1,1.9-0.3c0.5-0.2,1-0.4,1.4-0.6c0.4-0.2,0.8-0.4,1.1-0.6c0.3-0.2,0.7-0.3,1.1-0.3
			c0.5,0,0.9,0.2,1.1,0.5l1.8,2.2c-0.6,0.7-1.3,1.3-2.1,1.8s-1.5,0.8-2.3,1.1c-0.8,0.3-1.6,0.4-2.3,0.5s-1.5,0.1-2.2,0.1
			c-1.5,0-2.8-0.2-4.1-0.7s-2.4-1.2-3.3-2.1c-1-0.9-1.7-2.1-2.3-3.5c-0.6-1.4-0.8-3-0.8-4.8c0-1.4,0.2-2.7,0.7-3.9
			c0.5-1.2,1.2-2.3,2-3.3c0.9-0.9,2-1.7,3.2-2.2C477.6,231.4,479,231.1,480.6,231.1z M480.7,235.4c-1.2,0-2.1,0.3-2.8,1
			c-0.7,0.7-1.1,1.6-1.3,2.9h7.7c0-0.5-0.1-1-0.2-1.4s-0.3-0.9-0.6-1.2c-0.3-0.4-0.7-0.7-1.1-0.9
			C481.9,235.5,481.4,235.4,480.7,235.4z"/>
		<path d="M507.6,252.1c-0.6,0-1-0.1-1.3-0.2c-0.3-0.2-0.5-0.5-0.8-1l-0.4-1.1c-0.5,0.4-1,0.8-1.5,1.2c-0.5,0.3-1,0.6-1.5,0.9
			c-0.5,0.2-1.1,0.4-1.6,0.5s-1.2,0.2-1.9,0.2c-0.9,0-1.8-0.1-2.6-0.4s-1.4-0.6-2-1.1c-0.5-0.5-1-1.1-1.2-1.8
			c-0.3-0.7-0.4-1.5-0.4-2.5c0-0.7,0.2-1.5,0.6-2.3c0.4-0.8,1-1.5,1.9-2.1c0.9-0.6,2.2-1.2,3.7-1.6c1.6-0.4,3.5-0.6,5.9-0.6v-0.9
			c0-1.2-0.2-2.1-0.8-2.7s-1.2-0.8-2.1-0.8c-0.7,0-1.3,0.1-1.8,0.2c-0.5,0.2-0.9,0.3-1.2,0.5c-0.4,0.2-0.7,0.4-1.1,0.5
			s-0.8,0.2-1.2,0.2c-0.4,0-0.8-0.1-1.1-0.3c-0.3-0.2-0.5-0.5-0.7-0.8l-1.1-1.9c1.3-1.1,2.6-1.9,4.2-2.5c1.5-0.5,3.2-0.8,4.9-0.8
			c1.3,0,2.4,0.2,3.4,0.6s1.9,1,2.6,1.7c0.7,0.7,1.2,1.6,1.6,2.6s0.6,2.1,0.6,3.3v13H507.6z M500.5,248.4c0.8,0,1.5-0.1,2.1-0.4
			c0.6-0.3,1.2-0.7,1.8-1.4v-2.8c-1.2,0-2.3,0.1-3.1,0.2s-1.4,0.4-1.9,0.6s-0.8,0.5-1,0.8c-0.2,0.3-0.3,0.6-0.3,1
			c0,0.7,0.2,1.2,0.6,1.5C499.2,248.2,499.8,248.4,500.5,248.4z"/>
		<path d="M522,252.5c-1,0-1.9-0.1-2.6-0.4c-0.8-0.3-1.4-0.7-1.9-1.2c-0.5-0.5-0.9-1.2-1.2-1.9c-0.3-0.7-0.4-1.6-0.4-2.5v-10.7h-1.8
			c-0.3,0-0.6-0.1-0.8-0.3c-0.2-0.2-0.3-0.5-0.3-0.9V232l3.3-0.6l1.2-5.1c0.2-0.6,0.6-1,1.4-1h3.2v6.1h5v4.2h-5V246
			c0,0.5,0.1,0.9,0.4,1.2c0.2,0.3,0.6,0.5,1,0.5c0.2,0,0.4,0,0.6-0.1c0.2,0,0.3-0.1,0.4-0.2s0.2-0.1,0.3-0.2c0.1,0,0.2-0.1,0.3-0.1
			c0.2,0,0.3,0,0.5,0.1c0.1,0.1,0.2,0.2,0.3,0.4l1.9,2.9c-0.8,0.6-1.7,1-2.7,1.4C524.1,252.3,523.1,252.5,522,252.5z"/>
		<path d="M537.7,225.7c0,0.5-0.1,1-0.3,1.4s-0.5,0.8-0.8,1.1c-0.3,0.3-0.8,0.6-1.2,0.8s-1,0.3-1.5,0.3c-0.5,0-1-0.1-1.4-0.3
			c-0.4-0.2-0.8-0.5-1.2-0.8c-0.3-0.3-0.6-0.7-0.8-1.1s-0.3-0.9-0.3-1.4c0-0.5,0.1-1,0.3-1.4s0.5-0.8,0.8-1.2
			c0.3-0.3,0.7-0.6,1.2-0.8c0.4-0.2,0.9-0.3,1.4-0.3c0.5,0,1,0.1,1.5,0.3c0.5,0.2,0.9,0.4,1.2,0.8c0.3,0.3,0.6,0.7,0.8,1.2
			S537.7,225.2,537.7,225.7z M536.9,231.4v20.7h-6.2v-20.7H536.9z"/>
		<path d="M551,231.1c1.6,0,3,0.2,4.3,0.7c1.3,0.5,2.4,1.2,3.3,2.1c0.9,0.9,1.6,2,2.2,3.4c0.5,1.3,0.8,2.8,0.8,4.4
			c0,1.7-0.3,3.1-0.8,4.5c-0.5,1.3-1.2,2.5-2.2,3.4s-2,1.6-3.3,2.1c-1.3,0.5-2.7,0.8-4.3,0.8c-1.6,0-3-0.2-4.3-0.8
			c-1.3-0.5-2.4-1.2-3.4-2.1c-0.9-0.9-1.7-2.1-2.2-3.4c-0.5-1.3-0.8-2.8-0.8-4.5c0-1.6,0.3-3.1,0.8-4.4c0.5-1.3,1.2-2.4,2.2-3.4
			c0.9-0.9,2.1-1.6,3.4-2.1C548,231.3,549.4,231.1,551,231.1z M551,247.9c1.4,0,2.5-0.5,3.2-1.5c0.7-1,1-2.5,1-4.6s-0.3-3.6-1-4.6
			c-0.7-1-1.7-1.5-3.2-1.5c-1.5,0-2.5,0.5-3.2,1.5s-1,2.5-1,4.6s0.3,3.6,1,4.6C548.5,247.4,549.6,247.9,551,247.9z"/>
		<path d="M564.8,252.1v-20.7h3.8c0.4,0,0.7,0.1,1,0.3s0.4,0.4,0.5,0.8l0.4,1.2c0.4-0.4,0.8-0.7,1.2-1c0.4-0.3,0.9-0.6,1.4-0.8
			c0.5-0.2,1-0.4,1.6-0.5c0.6-0.1,1.2-0.2,1.9-0.2c1.1,0,2.1,0.2,3,0.6c0.9,0.4,1.6,0.9,2.2,1.6c0.6,0.7,1.1,1.5,1.4,2.5
			c0.3,1,0.5,2,0.5,3.1v13.2h-6.2V239c0-1-0.2-1.8-0.7-2.4s-1.2-0.9-2.1-0.9c-0.7,0-1.3,0.1-1.9,0.4c-0.6,0.3-1.2,0.7-1.7,1.2v14.8
			H564.8z"/>
		<path d="M600.5,235.9c-0.2,0.3-0.3,0.4-0.5,0.5c-0.2,0.1-0.4,0.2-0.7,0.2c-0.3,0-0.6-0.1-0.9-0.2c-0.3-0.1-0.6-0.3-1-0.4
			c-0.3-0.1-0.7-0.3-1.1-0.4c-0.4-0.1-0.9-0.2-1.5-0.2c-0.8,0-1.4,0.2-1.8,0.5s-0.6,0.7-0.6,1.2c0,0.4,0.1,0.7,0.4,1
			c0.3,0.3,0.6,0.5,1.1,0.7c0.5,0.2,1,0.4,1.5,0.6s1.2,0.4,1.8,0.6c0.6,0.2,1.2,0.5,1.8,0.8c0.6,0.3,1.1,0.6,1.5,1.1
			c0.5,0.4,0.8,0.9,1.1,1.5c0.3,0.6,0.4,1.3,0.4,2.2c0,1-0.2,2-0.6,2.8s-0.9,1.6-1.7,2.2c-0.7,0.6-1.7,1.1-2.7,1.5
			c-1.1,0.3-2.3,0.5-3.8,0.5c-0.7,0-1.4-0.1-2.1-0.2c-0.7-0.1-1.4-0.3-2-0.5s-1.3-0.5-1.8-0.8c-0.6-0.3-1-0.6-1.4-1l1.4-2.3
			c0.2-0.3,0.4-0.5,0.6-0.6s0.6-0.2,0.9-0.2c0.4,0,0.7,0.1,1,0.2c0.3,0.2,0.6,0.3,0.9,0.5c0.3,0.2,0.7,0.4,1.2,0.5
			c0.4,0.2,1,0.2,1.7,0.2c0.5,0,0.9-0.1,1.2-0.1c0.3-0.1,0.6-0.2,0.8-0.4s0.3-0.4,0.4-0.6c0.1-0.2,0.1-0.4,0.1-0.7
			c0-0.4-0.1-0.8-0.4-1c-0.3-0.3-0.6-0.5-1.1-0.7c-0.5-0.2-1-0.4-1.5-0.5c-0.6-0.2-1.2-0.4-1.8-0.6s-1.2-0.5-1.8-0.8
			c-0.6-0.3-1.1-0.7-1.6-1.1s-0.8-1-1.1-1.7c-0.3-0.7-0.4-1.5-0.4-2.4c0-0.9,0.2-1.7,0.5-2.5c0.3-0.8,0.9-1.5,1.5-2.1
			s1.5-1.1,2.6-1.4c1-0.4,2.2-0.5,3.6-0.5c0.7,0,1.5,0.1,2.2,0.2s1.4,0.3,2,0.6c0.6,0.2,1.2,0.5,1.7,0.8c0.5,0.3,1,0.7,1.3,1.1
			L600.5,235.9z"/>
		<path d="M282.8,300.1c-0.4,0-0.6-0.2-0.7-0.6l-0.3-2.5c-0.5,0.5-1.1,1-1.6,1.4c-0.5,0.4-1.1,0.8-1.7,1.1c-0.6,0.3-1.2,0.5-1.9,0.7
			c-0.7,0.2-1.4,0.2-2.2,0.2c-0.7,0-1.3-0.1-2-0.3s-1.2-0.5-1.7-0.9c-0.5-0.4-0.9-0.9-1.2-1.6c-0.3-0.6-0.4-1.4-0.4-2.3
			c0-0.8,0.2-1.6,0.7-2.3c0.5-0.7,1.2-1.3,2.2-1.9c1-0.5,2.3-1,3.9-1.3c1.6-0.3,3.5-0.5,5.8-0.6v-2.1c0-1.8-0.4-3.3-1.2-4.2
			s-2-1.5-3.5-1.5c-1,0-1.8,0.1-2.5,0.4s-1.2,0.6-1.7,0.9c-0.5,0.3-0.8,0.6-1.1,0.9c-0.3,0.3-0.5,0.4-0.7,0.4
			c-0.3,0-0.5-0.1-0.6-0.4l-0.3-0.6c1-1,2.1-1.8,3.3-2.4c1.1-0.5,2.4-0.8,3.9-0.8c1.1,0,2,0.2,2.8,0.5c0.8,0.3,1.5,0.8,2,1.5
			s0.9,1.4,1.2,2.3c0.3,0.9,0.4,1.9,0.4,3v13H282.8z M274.8,299.1c0.8,0,1.5-0.1,2.1-0.2c0.6-0.2,1.2-0.4,1.8-0.7
			c0.6-0.3,1.1-0.7,1.5-1.1c0.5-0.4,1-0.9,1.4-1.3v-5.2c-1.9,0.1-3.5,0.2-4.9,0.4c-1.4,0.2-2.5,0.5-3.4,0.9c-0.9,0.4-1.5,0.9-2,1.4
			c-0.4,0.6-0.6,1.2-0.6,1.9c0,0.7,0.1,1.2,0.3,1.7c0.2,0.5,0.5,0.9,0.9,1.2c0.4,0.3,0.8,0.5,1.3,0.7
			C273.8,299,274.3,299.1,274.8,299.1z"/>
		<path d="M294.9,300.5c-1.3,0-2.4-0.4-3.1-1.1c-0.7-0.7-1.1-1.9-1.1-3.5v-13.6h-2.9c-0.1,0-0.3,0-0.4-0.1c-0.1-0.1-0.1-0.2-0.1-0.3
			v-0.7l3.4-0.2l0.5-7.1c0-0.1,0.1-0.2,0.1-0.3c0.1-0.1,0.2-0.1,0.3-0.1h0.9v7.6h6.3v1.4h-6.3v13.5c0,0.5,0.1,1,0.2,1.4
			c0.1,0.4,0.3,0.7,0.6,1c0.2,0.3,0.5,0.4,0.9,0.6c0.3,0.1,0.7,0.2,1.1,0.2c0.5,0,0.9-0.1,1.2-0.2c0.3-0.1,0.6-0.3,0.9-0.5
			c0.3-0.2,0.5-0.3,0.6-0.5c0.2-0.1,0.3-0.2,0.4-0.2c0.1,0,0.2,0.1,0.3,0.2l0.5,0.8c-0.5,0.6-1.1,1-1.9,1.4
			C296.5,300.3,295.7,300.5,294.9,300.5z"/>
		<path d="M316.5,300.5c-1.3,0-2.4-0.4-3.1-1.1c-0.7-0.7-1.1-1.9-1.1-3.5v-13.6h-2.9c-0.1,0-0.3,0-0.4-0.1c-0.1-0.1-0.1-0.2-0.1-0.3
			v-0.7l3.4-0.2l0.5-7.1c0-0.1,0.1-0.2,0.1-0.3c0.1-0.1,0.2-0.1,0.3-0.1h0.9v7.6h6.3v1.4h-6.3v13.5c0,0.5,0.1,1,0.2,1.4
			c0.1,0.4,0.3,0.7,0.6,1c0.2,0.3,0.5,0.4,0.9,0.6c0.3,0.1,0.7,0.2,1.1,0.2c0.5,0,0.9-0.1,1.2-0.2c0.3-0.1,0.6-0.3,0.9-0.5
			c0.3-0.2,0.5-0.3,0.6-0.5c0.2-0.1,0.3-0.2,0.4-0.2c0.1,0,0.2,0.1,0.3,0.2l0.5,0.8c-0.5,0.6-1.1,1-1.9,1.4
			C318.2,300.3,317.4,300.5,316.5,300.5z"/>
		<path d="M325.2,300.1V271h1.9v12.6c0.9-1.1,2-2,3.1-2.7s2.5-1,4-1c1.1,0,2.1,0.2,2.9,0.5c0.8,0.3,1.5,0.8,2.1,1.5
			c0.5,0.7,1,1.4,1.2,2.4c0.3,0.9,0.4,2,0.4,3.1v12.7h-1.9v-12.7c0-1.9-0.4-3.3-1.3-4.4c-0.9-1.1-2.2-1.6-3.9-1.6
			c-1.3,0-2.5,0.3-3.6,1c-1.1,0.7-2.1,1.6-3,2.8v14.9H325.2z"/>
		<path d="M354.2,279.9c1.1,0,2.2,0.2,3.1,0.6c1,0.4,1.8,1,2.5,1.7c0.7,0.7,1.2,1.7,1.6,2.7c0.4,1.1,0.6,2.3,0.6,3.7
			c0,0.3,0,0.5-0.1,0.6c-0.1,0.1-0.2,0.2-0.4,0.2h-14.4v0.4c0,1.5,0.2,2.8,0.5,3.9c0.3,1.1,0.8,2.1,1.5,2.9c0.6,0.8,1.4,1.3,2.3,1.7
			s1.9,0.6,3,0.6c1,0,1.9-0.1,2.6-0.3c0.7-0.2,1.4-0.5,1.9-0.7c0.5-0.3,0.9-0.5,1.2-0.7c0.3-0.2,0.5-0.3,0.6-0.3
			c0.2,0,0.3,0.1,0.4,0.2l0.5,0.6c-0.3,0.4-0.7,0.8-1.3,1.1c-0.5,0.3-1.1,0.6-1.8,0.9c-0.6,0.2-1.3,0.4-2.1,0.6
			c-0.7,0.1-1.5,0.2-2.2,0.2c-1.4,0-2.6-0.2-3.7-0.7c-1.1-0.5-2.1-1.2-2.9-2.1c-0.8-0.9-1.4-2-1.9-3.3c-0.4-1.3-0.7-2.8-0.7-4.5
			c0-1.4,0.2-2.7,0.6-4c0.4-1.2,1-2.2,1.8-3.1c0.8-0.9,1.7-1.6,2.8-2C351.5,280.2,352.8,279.9,354.2,279.9z M354.2,281.3
			c-1,0-1.9,0.2-2.8,0.5c-0.8,0.3-1.5,0.8-2.1,1.4c-0.6,0.6-1.1,1.3-1.4,2.2c-0.4,0.8-0.6,1.8-0.7,2.8h13.1c0-1.1-0.1-2-0.4-2.9
			c-0.3-0.8-0.7-1.6-1.2-2.1c-0.5-0.6-1.2-1-1.9-1.4C355.9,281.5,355.1,281.3,354.2,281.3z"/>
		<path d="M385.5,282.7c-0.1,0.2-0.2,0.3-0.4,0.3c-0.1,0-0.3-0.1-0.6-0.2c-0.2-0.2-0.5-0.4-0.9-0.6c-0.4-0.2-0.8-0.4-1.4-0.6
			c-0.6-0.2-1.2-0.2-2-0.2c-0.7,0-1.4,0.1-2,0.3c-0.6,0.2-1.1,0.5-1.5,0.8c-0.4,0.3-0.7,0.7-1,1.2c-0.2,0.5-0.4,0.9-0.4,1.4
			c0,0.6,0.2,1.1,0.5,1.6s0.7,0.8,1.3,1.1c0.5,0.3,1.1,0.5,1.8,0.8c0.7,0.2,1.3,0.4,2,0.6c0.7,0.2,1.4,0.5,2,0.7
			c0.7,0.3,1.2,0.6,1.8,1s0.9,0.9,1.3,1.4c0.3,0.6,0.5,1.2,0.5,2c0,0.9-0.2,1.7-0.5,2.4s-0.8,1.4-1.4,1.9c-0.6,0.5-1.3,1-2.2,1.3
			c-0.9,0.3-1.9,0.5-3,0.5c-1.4,0-2.6-0.2-3.6-0.7c-1-0.4-1.9-1-2.7-1.8l0.5-0.7c0.1-0.1,0.1-0.2,0.2-0.2s0.2-0.1,0.3-0.1
			c0.2,0,0.4,0.1,0.6,0.3s0.6,0.4,1,0.7c0.4,0.2,0.9,0.5,1.5,0.7c0.6,0.2,1.4,0.3,2.2,0.3c0.8,0,1.6-0.1,2.2-0.4
			c0.6-0.2,1.2-0.5,1.6-0.9s0.8-0.9,1-1.4c0.2-0.5,0.3-1.1,0.3-1.7c0-0.7-0.2-1.2-0.5-1.7c-0.3-0.4-0.7-0.8-1.3-1.1
			s-1.1-0.6-1.8-0.8c-0.7-0.2-1.3-0.4-2-0.6c-0.7-0.2-1.4-0.4-2-0.7s-1.2-0.6-1.8-1s-0.9-0.9-1.3-1.4c-0.3-0.6-0.5-1.2-0.5-2.1
			c0-0.7,0.2-1.4,0.5-2c0.3-0.7,0.7-1.2,1.3-1.7c0.6-0.5,1.3-0.9,2.1-1.2c0.8-0.3,1.7-0.4,2.7-0.4c1.2,0,2.3,0.2,3.2,0.5
			c0.9,0.4,1.8,0.9,2.6,1.6L385.5,282.7z"/>
		<path d="M404.3,300.1c-0.4,0-0.6-0.2-0.7-0.6l-0.3-2.5c-0.5,0.5-1.1,1-1.6,1.4c-0.5,0.4-1.1,0.8-1.7,1.1c-0.6,0.3-1.2,0.5-1.9,0.7
			c-0.7,0.2-1.4,0.2-2.2,0.2c-0.7,0-1.3-0.1-2-0.3s-1.2-0.5-1.7-0.9c-0.5-0.4-0.9-0.9-1.2-1.6c-0.3-0.6-0.4-1.4-0.4-2.3
			c0-0.8,0.2-1.6,0.7-2.3c0.5-0.7,1.2-1.3,2.2-1.9c1-0.5,2.3-1,3.9-1.3c1.6-0.3,3.5-0.5,5.8-0.6v-2.1c0-1.8-0.4-3.3-1.2-4.2
			c-0.8-1-2-1.5-3.5-1.5c-1,0-1.8,0.1-2.5,0.4s-1.2,0.6-1.7,0.9c-0.5,0.3-0.8,0.6-1.1,0.9c-0.3,0.3-0.5,0.4-0.7,0.4
			c-0.3,0-0.5-0.1-0.6-0.4l-0.3-0.6c1-1,2.1-1.8,3.3-2.4c1.1-0.5,2.4-0.8,3.9-0.8c1.1,0,2,0.2,2.8,0.5s1.5,0.8,2,1.5
			c0.5,0.6,0.9,1.4,1.2,2.3c0.3,0.9,0.4,1.9,0.4,3v13H404.3z M396.3,299.1c0.8,0,1.5-0.1,2.1-0.2c0.6-0.2,1.2-0.4,1.8-0.7
			c0.6-0.3,1.1-0.7,1.5-1.1c0.5-0.4,1-0.9,1.4-1.3v-5.2c-1.9,0.1-3.5,0.2-4.9,0.4c-1.4,0.2-2.5,0.5-3.4,0.9c-0.9,0.4-1.5,0.9-2,1.4
			c-0.4,0.6-0.6,1.2-0.6,1.9c0,0.7,0.1,1.2,0.3,1.7c0.2,0.5,0.5,0.9,0.9,1.2c0.4,0.3,0.8,0.5,1.3,0.7
			C395.2,299,395.7,299.1,396.3,299.1z"/>
		<path d="M410.9,300.1v-19.9h1c0.3,0,0.5,0.2,0.6,0.5l0.2,2.9c0.4-0.5,0.8-1,1.2-1.5c0.4-0.5,0.9-0.8,1.4-1.2s1-0.6,1.6-0.8
			c0.6-0.2,1.2-0.3,1.8-0.3c1.5,0,2.6,0.4,3.5,1.3c0.9,0.8,1.5,2,1.8,3.5c0.2-0.8,0.6-1.5,1-2.1s0.9-1.1,1.5-1.5
			c0.6-0.4,1.2-0.7,1.8-0.9c0.7-0.2,1.3-0.3,2-0.3c1,0,1.9,0.2,2.7,0.5c0.8,0.3,1.5,0.8,2,1.5c0.6,0.6,1,1.4,1.3,2.4
			c0.3,0.9,0.4,2,0.4,3.2v12.7h-1.9v-12.7c0-1.9-0.4-3.4-1.3-4.4s-2-1.5-3.6-1.5c-0.7,0-1.4,0.1-2,0.4c-0.6,0.3-1.2,0.6-1.7,1.1
			c-0.5,0.5-0.9,1.1-1.2,1.9c-0.3,0.7-0.4,1.6-0.4,2.6v12.7h-1.9v-12.7c0-1.9-0.4-3.4-1.2-4.4c-0.8-1-1.9-1.5-3.4-1.5
			c-1.1,0-2.1,0.3-3,1c-0.9,0.6-1.7,1.5-2.5,2.7v15H410.9z"/>
		<path d="M450,279.9c1.1,0,2.2,0.2,3.1,0.6c1,0.4,1.8,1,2.5,1.7c0.7,0.7,1.2,1.7,1.6,2.7c0.4,1.1,0.6,2.3,0.6,3.7
			c0,0.3,0,0.5-0.1,0.6c-0.1,0.1-0.2,0.2-0.4,0.2h-14.4v0.4c0,1.5,0.2,2.8,0.5,3.9c0.3,1.1,0.8,2.1,1.5,2.9s1.4,1.3,2.3,1.7
			c0.9,0.4,1.9,0.6,3,0.6c1,0,1.9-0.1,2.6-0.3c0.7-0.2,1.4-0.5,1.9-0.7c0.5-0.3,0.9-0.5,1.2-0.7c0.3-0.2,0.5-0.3,0.6-0.3
			c0.2,0,0.3,0.1,0.4,0.2l0.5,0.6c-0.3,0.4-0.7,0.8-1.3,1.1s-1.1,0.6-1.8,0.9c-0.6,0.2-1.3,0.4-2.1,0.6s-1.5,0.2-2.2,0.2
			c-1.4,0-2.6-0.2-3.7-0.7s-2.1-1.2-2.9-2.1c-0.8-0.9-1.4-2-1.9-3.3c-0.4-1.3-0.7-2.8-0.7-4.5c0-1.4,0.2-2.7,0.6-4
			c0.4-1.2,1-2.2,1.8-3.1c0.8-0.9,1.7-1.6,2.8-2C447.3,280.2,448.6,279.9,450,279.9z M450,281.3c-1,0-1.9,0.2-2.8,0.5
			c-0.8,0.3-1.5,0.8-2.1,1.4c-0.6,0.6-1.1,1.3-1.4,2.2c-0.4,0.8-0.6,1.8-0.7,2.8h13.1c0-1.1-0.1-2-0.4-2.9c-0.3-0.8-0.7-1.6-1.2-2.1
			c-0.5-0.6-1.2-1-1.9-1.4C451.8,281.5,451,281.3,450,281.3z"/>
		<path d="M475.8,300.5c-1.3,0-2.4-0.4-3.1-1.1c-0.7-0.7-1.1-1.9-1.1-3.5v-13.6h-2.9c-0.1,0-0.3,0-0.4-0.1c-0.1-0.1-0.1-0.2-0.1-0.3
			v-0.7l3.4-0.2l0.5-7.1c0-0.1,0.1-0.2,0.1-0.3c0.1-0.1,0.2-0.1,0.3-0.1h0.9v7.6h6.3v1.4h-6.3v13.5c0,0.5,0.1,1,0.2,1.4
			c0.1,0.4,0.3,0.7,0.6,1c0.2,0.3,0.5,0.4,0.9,0.6s0.7,0.2,1.1,0.2c0.5,0,0.9-0.1,1.2-0.2c0.3-0.1,0.6-0.3,0.9-0.5
			c0.3-0.2,0.5-0.3,0.6-0.5c0.2-0.1,0.3-0.2,0.4-0.2c0.1,0,0.2,0.1,0.3,0.2l0.5,0.8c-0.5,0.6-1.1,1-1.9,1.4S476.6,300.5,475.8,300.5
			z"/>
		<path d="M487.8,273.4c0,0.2,0,0.5-0.2,0.7c-0.1,0.2-0.2,0.4-0.4,0.5s-0.3,0.3-0.6,0.4c-0.2,0.1-0.4,0.1-0.7,0.1s-0.5,0-0.7-0.1
			c-0.2-0.1-0.4-0.2-0.6-0.4c-0.2-0.2-0.3-0.3-0.4-0.5c-0.1-0.2-0.1-0.4-0.1-0.7c0-0.2,0-0.5,0.1-0.7c0.1-0.2,0.2-0.4,0.4-0.6
			c0.2-0.2,0.3-0.3,0.6-0.4c0.2-0.1,0.4-0.1,0.7-0.1s0.5,0,0.7,0.1c0.2,0.1,0.4,0.2,0.6,0.4s0.3,0.4,0.4,0.6
			C487.7,272.9,487.8,273.1,487.8,273.4z M486.9,280.2v19.9H485v-19.9H486.9z"/>
		<path d="M493.8,300.1v-19.9h1c0.3,0,0.5,0.2,0.6,0.5l0.2,2.9c0.4-0.5,0.8-1,1.2-1.5c0.4-0.5,0.9-0.8,1.4-1.2s1-0.6,1.6-0.8
			c0.6-0.2,1.2-0.3,1.8-0.3c1.5,0,2.6,0.4,3.5,1.3c0.9,0.8,1.5,2,1.8,3.5c0.2-0.8,0.6-1.5,1-2.1s0.9-1.1,1.5-1.5
			c0.6-0.4,1.2-0.7,1.8-0.9c0.7-0.2,1.3-0.3,2-0.3c1,0,1.9,0.2,2.7,0.5s1.5,0.8,2,1.5c0.6,0.6,1,1.4,1.3,2.4c0.3,0.9,0.4,2,0.4,3.2
			v12.7h-1.9v-12.7c0-1.9-0.4-3.4-1.3-4.4c-0.8-1-2-1.5-3.6-1.5c-0.7,0-1.4,0.1-2,0.4c-0.6,0.3-1.2,0.6-1.7,1.1s-0.9,1.1-1.2,1.9
			c-0.3,0.7-0.4,1.6-0.4,2.6v12.7h-1.9v-12.7c0-1.9-0.4-3.4-1.2-4.4c-0.8-1-1.9-1.5-3.4-1.5c-1.1,0-2.1,0.3-3,1
			c-0.9,0.6-1.7,1.5-2.5,2.7v15H493.8z"/>
		<path d="M533,279.9c1.1,0,2.2,0.2,3.1,0.6c1,0.4,1.8,1,2.5,1.7c0.7,0.7,1.2,1.7,1.6,2.7c0.4,1.1,0.6,2.3,0.6,3.7
			c0,0.3,0,0.5-0.1,0.6c-0.1,0.1-0.2,0.2-0.4,0.2h-14.4v0.4c0,1.5,0.2,2.8,0.5,3.9s0.8,2.1,1.5,2.9c0.6,0.8,1.4,1.3,2.3,1.7
			c0.9,0.4,1.9,0.6,3,0.6c1,0,1.9-0.1,2.6-0.3c0.7-0.2,1.3-0.5,1.8-0.7c0.5-0.3,0.9-0.5,1.2-0.7c0.3-0.2,0.5-0.3,0.6-0.3
			c0.2,0,0.3,0.1,0.4,0.2l0.5,0.6c-0.3,0.4-0.7,0.8-1.3,1.1c-0.5,0.3-1.1,0.6-1.8,0.9c-0.6,0.2-1.3,0.4-2.1,0.6
			c-0.7,0.1-1.5,0.2-2.2,0.2c-1.4,0-2.6-0.2-3.7-0.7s-2.1-1.2-2.9-2.1c-0.8-0.9-1.4-2-1.9-3.3c-0.4-1.3-0.7-2.8-0.7-4.5
			c0-1.4,0.2-2.7,0.6-4c0.4-1.2,1-2.2,1.8-3.1c0.8-0.9,1.7-1.6,2.8-2C530.3,280.2,531.5,279.9,533,279.9z M533,281.3
			c-1,0-1.9,0.2-2.8,0.5c-0.8,0.3-1.5,0.8-2.1,1.4c-0.6,0.6-1.1,1.3-1.4,2.2c-0.4,0.8-0.6,1.8-0.7,2.8h13.1c0-1.1-0.1-2-0.4-2.9
			c-0.3-0.8-0.7-1.6-1.2-2.1c-0.5-0.6-1.2-1-1.9-1.4C534.7,281.5,533.9,281.3,533,281.3z"/>
	</g>
</g>
<g id="Layer_5">
</g>
</svg>
