<?xml version="1.0" encoding="utf-8"?>
<!-- Generator: Adobe Illustrator 18.0.0, SVG Export Plug-In . SVG Version: 6.00 Build 0)  -->
<!DOCTYPE svg PUBLIC "-//W3C//DTD SVG 1.1//EN" "http://www.w3.org/Graphics/SVG/1.1/DTD/svg11.dtd">
<svg version="1.1" xmlns="http://www.w3.org/2000/svg" xmlns:xlink="http://www.w3.org/1999/xlink" x="0px" y="0px"
	 viewBox="0 -48 800 531" enable-background="new 0 -48 800 531" xml:space="preserve">
<g id="_x34_">
	<g>
		<path d="M211,177.7v1.7H201V206h-2v-26.6h-10v-1.7H211z"/>
		<path d="M218,185.7c1.4,0,2.7,0.2,3.8,0.7c1.1,0.5,2.1,1.2,2.9,2.1c0.8,0.9,1.4,2,1.8,3.2c0.4,1.3,0.6,2.7,0.6,4.2s-0.2,3-0.6,4.2
			c-0.4,1.3-1,2.3-1.8,3.2c-0.8,0.9-1.7,1.6-2.9,2.1c-1.1,0.5-2.4,0.7-3.8,0.7s-2.7-0.2-3.8-0.7c-1.1-0.5-2.1-1.2-2.9-2.1
			c-0.8-0.9-1.4-2-1.8-3.2c-0.4-1.3-0.6-2.7-0.6-4.2s0.2-3,0.6-4.2c0.4-1.3,1-2.3,1.8-3.2c0.8-0.9,1.7-1.6,2.9-2.1
			C215.3,186,216.6,185.7,218,185.7z M218,204.7c1.2,0,2.2-0.2,3.1-0.6c0.9-0.4,1.6-1,2.2-1.8c0.6-0.8,1-1.7,1.3-2.8
			c0.3-1.1,0.4-2.3,0.4-3.6c0-1.3-0.1-2.5-0.4-3.6c-0.3-1.1-0.7-2-1.3-2.8c-0.6-0.8-1.3-1.4-2.2-1.8c-0.9-0.4-1.9-0.6-3.1-0.6
			s-2.2,0.2-3.1,0.6c-0.9,0.4-1.6,1-2.2,1.8c-0.6,0.8-1,1.7-1.3,2.8c-0.3,1.1-0.4,2.3-0.4,3.6c0,1.3,0.1,2.5,0.4,3.6
			c0.3,1.1,0.7,2,1.3,2.8c0.6,0.8,1.3,1.3,2.2,1.8C215.8,204.5,216.8,204.7,218,204.7z"/>
		<path d="M252.6,188.7c-0.1,0.1-0.1,0.1-0.2,0.2s-0.1,0.1-0.2,0.1c-0.1,0-0.3-0.1-0.5-0.3c-0.2-0.2-0.5-0.4-0.9-0.6
			s-0.9-0.4-1.4-0.6c-0.6-0.2-1.3-0.3-2.1-0.3c-1.1,0-2.2,0.2-3,0.6s-1.6,1-2.2,1.8c-0.6,0.8-1.1,1.7-1.4,2.8
			c-0.3,1.1-0.5,2.3-0.5,3.6c0,1.4,0.2,2.6,0.5,3.7c0.3,1.1,0.8,2,1.4,2.7c0.6,0.7,1.3,1.3,2.2,1.7c0.9,0.4,1.8,0.6,2.8,0.6
			c1,0,1.8-0.1,2.4-0.3c0.6-0.2,1.2-0.5,1.6-0.7s0.8-0.5,1-0.7c0.2-0.2,0.4-0.3,0.6-0.3c0.2,0,0.3,0.1,0.4,0.2l0.5,0.6
			c-0.3,0.4-0.7,0.8-1.2,1.1s-1,0.6-1.6,0.9c-0.6,0.3-1.2,0.5-1.9,0.6c-0.7,0.1-1.4,0.2-2.2,0.2c-1.3,0-2.4-0.2-3.5-0.7
			c-1-0.5-1.9-1.1-2.7-2c-0.8-0.9-1.3-1.9-1.8-3.2c-0.4-1.3-0.6-2.7-0.6-4.3c0-1.5,0.2-2.9,0.6-4.2c0.4-1.3,1-2.3,1.8-3.2
			s1.7-1.6,2.8-2.1c1.1-0.5,2.4-0.8,3.8-0.8c1.3,0,2.4,0.2,3.5,0.6c1,0.4,1.9,1,2.6,1.7L252.6,188.7z"/>
		<path d="M257.5,206v-19.9h1c0.2,0,0.4,0,0.5,0.1s0.2,0.3,0.2,0.5l0.2,4.2c0.6-1.6,1.5-2.9,2.6-3.8c1.1-0.9,2.4-1.4,3.9-1.4
			c0.6,0,1.2,0.1,1.7,0.2c0.5,0.1,1,0.3,1.4,0.5l-0.3,1.3c0,0.2-0.2,0.3-0.4,0.3c-0.1,0-0.2,0-0.3-0.1c-0.1-0.1-0.3-0.1-0.6-0.2
			c-0.2-0.1-0.5-0.1-0.8-0.2c-0.3-0.1-0.7-0.1-1.1-0.1c-1.5,0-2.7,0.5-3.7,1.4c-1,0.9-1.8,2.3-2.4,4V206H257.5z"/>
		<path d="M280.7,185.7c1.1,0,2.2,0.2,3.1,0.6c1,0.4,1.8,1,2.5,1.7c0.7,0.7,1.2,1.7,1.6,2.7c0.4,1.1,0.6,2.3,0.6,3.7
			c0,0.3,0,0.5-0.1,0.6c-0.1,0.1-0.2,0.2-0.4,0.2h-14.4v0.4c0,1.5,0.2,2.8,0.5,3.9c0.3,1.1,0.8,2.1,1.5,2.9c0.6,0.8,1.4,1.3,2.3,1.7
			s1.9,0.6,3,0.6c1,0,1.9-0.1,2.6-0.3c0.7-0.2,1.4-0.5,1.9-0.7c0.5-0.3,0.9-0.5,1.2-0.7c0.3-0.2,0.5-0.3,0.6-0.3
			c0.2,0,0.3,0.1,0.4,0.2l0.5,0.6c-0.3,0.4-0.7,0.8-1.3,1.1c-0.5,0.3-1.1,0.6-1.8,0.9c-0.6,0.2-1.3,0.4-2.1,0.6
			c-0.7,0.1-1.5,0.2-2.2,0.2c-1.4,0-2.6-0.2-3.7-0.7c-1.1-0.5-2.1-1.2-2.9-2.1c-0.8-0.9-1.4-2-1.9-3.3c-0.4-1.3-0.7-2.8-0.7-4.5
			c0-1.4,0.2-2.7,0.6-4c0.4-1.2,1-2.2,1.8-3.1c0.8-0.9,1.7-1.6,2.8-2C278.1,186,279.3,185.7,280.7,185.7z M280.8,187.2
			c-1,0-1.9,0.2-2.8,0.5c-0.8,0.3-1.5,0.8-2.1,1.4c-0.6,0.6-1.1,1.3-1.4,2.2c-0.4,0.8-0.6,1.8-0.7,2.8h13.1c0-1.1-0.1-2-0.4-2.9
			c-0.3-0.8-0.7-1.6-1.2-2.1c-0.5-0.6-1.2-1-1.9-1.4C282.5,187.3,281.7,187.2,280.8,187.2z"/>
		<path d="M306.2,206c-0.4,0-0.6-0.2-0.7-0.6l-0.3-2.5c-0.5,0.5-1.1,1-1.6,1.4c-0.5,0.4-1.1,0.8-1.7,1.1c-0.6,0.3-1.2,0.5-1.9,0.7
			c-0.7,0.2-1.4,0.2-2.2,0.2c-0.7,0-1.3-0.1-2-0.3s-1.2-0.5-1.7-0.9c-0.5-0.4-0.9-0.9-1.2-1.6c-0.3-0.6-0.4-1.4-0.4-2.3
			c0-0.8,0.2-1.6,0.7-2.3c0.5-0.7,1.2-1.3,2.2-1.9c1-0.5,2.3-1,3.9-1.3c1.6-0.3,3.5-0.5,5.8-0.6V193c0-1.8-0.4-3.3-1.2-4.2
			s-2-1.5-3.5-1.5c-1,0-1.8,0.1-2.5,0.4s-1.2,0.6-1.7,0.9c-0.5,0.3-0.8,0.6-1.1,0.9c-0.3,0.3-0.5,0.4-0.7,0.4
			c-0.3,0-0.5-0.1-0.6-0.4l-0.3-0.6c1-1,2.1-1.8,3.3-2.4c1.1-0.5,2.4-0.8,3.9-0.8c1.1,0,2,0.2,2.8,0.5c0.8,0.3,1.5,0.8,2,1.5
			s0.9,1.4,1.2,2.3c0.3,0.9,0.4,1.9,0.4,3v13H306.2z M298.2,204.9c0.8,0,1.5-0.1,2.1-0.2c0.6-0.2,1.2-0.4,1.8-0.7
			c0.6-0.3,1.1-0.7,1.5-1.1c0.5-0.4,1-0.9,1.4-1.3v-5.2c-1.9,0.1-3.5,0.2-4.9,0.4c-1.4,0.2-2.5,0.5-3.4,0.9c-0.9,0.4-1.5,0.9-2,1.4
			c-0.4,0.6-0.6,1.2-0.6,1.9c0,0.7,0.1,1.2,0.3,1.7c0.2,0.5,0.5,0.9,0.9,1.2c0.4,0.3,0.8,0.5,1.3,0.7
			C297.2,204.8,297.7,204.9,298.2,204.9z"/>
		<path d="M318.2,206.3c-1.3,0-2.4-0.4-3.1-1.1c-0.7-0.7-1.1-1.9-1.1-3.5v-13.6h-2.9c-0.1,0-0.3,0-0.4-0.1c-0.1-0.1-0.1-0.2-0.1-0.3
			v-0.7l3.4-0.2l0.5-7.1c0-0.1,0.1-0.2,0.1-0.3c0.1-0.1,0.2-0.1,0.3-0.1h0.9v7.6h6.3v1.4h-6.3v13.5c0,0.5,0.1,1,0.2,1.4
			c0.1,0.4,0.3,0.7,0.6,1c0.2,0.3,0.5,0.4,0.9,0.6c0.3,0.1,0.7,0.2,1.1,0.2c0.5,0,0.9-0.1,1.2-0.2c0.3-0.1,0.6-0.3,0.9-0.5
			c0.3-0.2,0.5-0.3,0.6-0.5c0.2-0.1,0.3-0.2,0.4-0.2c0.1,0,0.2,0.1,0.3,0.2l0.5,0.8c-0.5,0.6-1.1,1-1.9,1.4
			C319.9,206.1,319.1,206.3,318.2,206.3z"/>
		<path d="M334.4,185.7c1.1,0,2.2,0.2,3.1,0.6c1,0.4,1.8,1,2.5,1.7c0.7,0.7,1.2,1.7,1.6,2.7c0.4,1.1,0.6,2.3,0.6,3.7
			c0,0.3,0,0.5-0.1,0.6c-0.1,0.1-0.2,0.2-0.4,0.2h-14.4v0.4c0,1.5,0.2,2.8,0.5,3.9c0.3,1.1,0.8,2.1,1.5,2.9c0.6,0.8,1.4,1.3,2.3,1.7
			s1.9,0.6,3,0.6c1,0,1.9-0.1,2.6-0.3c0.7-0.2,1.4-0.5,1.9-0.7c0.5-0.3,0.9-0.5,1.2-0.7c0.3-0.2,0.5-0.3,0.6-0.3
			c0.2,0,0.3,0.1,0.4,0.2l0.5,0.6c-0.3,0.4-0.7,0.8-1.3,1.1c-0.5,0.3-1.1,0.6-1.8,0.9c-0.6,0.2-1.3,0.4-2.1,0.6
			c-0.7,0.1-1.5,0.2-2.2,0.2c-1.4,0-2.6-0.2-3.7-0.7c-1.1-0.5-2.1-1.2-2.9-2.1c-0.8-0.9-1.4-2-1.9-3.3c-0.4-1.3-0.7-2.8-0.7-4.5
			c0-1.4,0.2-2.7,0.6-4c0.4-1.2,1-2.2,1.8-3.1c0.8-0.9,1.7-1.6,2.8-2C331.7,186,333,185.7,334.4,185.7z M334.4,187.2
			c-1,0-1.9,0.2-2.8,0.5c-0.8,0.3-1.5,0.8-2.1,1.4c-0.6,0.6-1.1,1.3-1.4,2.2c-0.4,0.8-0.6,1.8-0.7,2.8h13.1c0-1.1-0.1-2-0.4-2.9
			c-0.3-0.8-0.7-1.6-1.2-2.1c-0.5-0.6-1.2-1-1.9-1.4C336.2,187.3,335.3,187.2,334.4,187.2z"/>
		<path d="M367.4,206c-0.4,0-0.6-0.2-0.7-0.6l-0.3-2.5c-0.5,0.5-1.1,1-1.6,1.4c-0.5,0.4-1.1,0.8-1.7,1.1c-0.6,0.3-1.2,0.5-1.9,0.7
			c-0.7,0.2-1.4,0.2-2.2,0.2c-0.7,0-1.3-0.1-2-0.3s-1.2-0.5-1.7-0.9c-0.5-0.4-0.9-0.9-1.2-1.6c-0.3-0.6-0.4-1.4-0.4-2.3
			c0-0.8,0.2-1.6,0.7-2.3c0.5-0.7,1.2-1.3,2.2-1.9c1-0.5,2.3-1,3.9-1.3c1.6-0.3,3.5-0.5,5.8-0.6V193c0-1.8-0.4-3.3-1.2-4.2
			s-2-1.5-3.5-1.5c-1,0-1.8,0.1-2.5,0.4s-1.2,0.6-1.7,0.9c-0.5,0.3-0.8,0.6-1.1,0.9c-0.3,0.3-0.5,0.4-0.7,0.4
			c-0.3,0-0.5-0.1-0.6-0.4l-0.3-0.6c1-1,2.1-1.8,3.3-2.4c1.1-0.5,2.4-0.8,3.9-0.8c1.1,0,2,0.2,2.8,0.5c0.8,0.3,1.5,0.8,2,1.5
			s0.9,1.4,1.2,2.3c0.3,0.9,0.4,1.9,0.4,3v13H367.4z M359.4,204.9c0.8,0,1.5-0.1,2.1-0.2c0.6-0.2,1.2-0.4,1.8-0.7
			c0.6-0.3,1.1-0.7,1.5-1.1c0.5-0.4,1-0.9,1.4-1.3v-5.2c-1.9,0.1-3.5,0.2-4.9,0.4c-1.4,0.2-2.5,0.5-3.4,0.9c-0.9,0.4-1.5,0.9-2,1.4
			c-0.4,0.6-0.6,1.2-0.6,1.9c0,0.7,0.1,1.2,0.3,1.7c0.2,0.5,0.5,0.9,0.9,1.2c0.4,0.3,0.8,0.5,1.3,0.7
			C358.4,204.8,358.9,204.9,359.4,204.9z"/>
		<path d="M380.8,206v-20.7h3.8c0.4,0,0.7,0.1,1,0.3c0.3,0.2,0.4,0.4,0.5,0.8l0.3,1.1c0.3-0.4,0.7-0.7,1.1-1
			c0.4-0.3,0.8-0.6,1.2-0.8c0.4-0.2,0.9-0.4,1.4-0.5c0.5-0.1,1-0.2,1.6-0.2c1.3,0,2.3,0.3,3.1,1c0.8,0.6,1.4,1.5,1.9,2.6
			c0.3-0.6,0.8-1.2,1.3-1.6c0.5-0.5,1-0.8,1.6-1.1c0.6-0.3,1.2-0.5,1.8-0.6s1.3-0.2,1.9-0.2c1.2,0,2.2,0.2,3.2,0.5
			c0.9,0.4,1.7,0.9,2.3,1.5c0.6,0.7,1.1,1.5,1.4,2.5c0.3,1,0.5,2.1,0.5,3.3V206h-6.2v-13.2c0-2.1-0.9-3.2-2.8-3.2
			c-0.8,0-1.5,0.3-2.1,0.8s-0.8,1.3-0.8,2.4V206h-6.2v-13.2c0-1.2-0.2-2-0.7-2.5c-0.5-0.5-1.2-0.7-2.1-0.7c-0.6,0-1.1,0.1-1.6,0.4
			c-0.5,0.3-1,0.6-1.4,1v15H380.8z"/>
		<path d="M429.4,206c-0.6,0-1-0.1-1.3-0.2c-0.3-0.2-0.6-0.5-0.8-1l-0.4-1.1c-0.5,0.4-1,0.8-1.5,1.2c-0.5,0.3-1,0.6-1.5,0.9
			c-0.5,0.2-1.1,0.4-1.6,0.5s-1.2,0.2-1.9,0.2c-0.9,0-1.8-0.1-2.6-0.4c-0.8-0.2-1.4-0.6-2-1.1c-0.5-0.5-1-1.1-1.2-1.8
			c-0.3-0.7-0.4-1.5-0.4-2.5c0-0.7,0.2-1.5,0.6-2.3c0.4-0.8,1-1.5,1.9-2.1c0.9-0.6,2.2-1.2,3.7-1.6c1.6-0.4,3.5-0.6,5.9-0.6V193
			c0-1.2-0.2-2.1-0.8-2.7s-1.2-0.8-2.1-0.8c-0.7,0-1.3,0.1-1.8,0.2c-0.5,0.2-0.9,0.3-1.2,0.5c-0.4,0.2-0.7,0.4-1.1,0.5
			s-0.8,0.2-1.2,0.2c-0.4,0-0.8-0.1-1.1-0.3s-0.5-0.5-0.7-0.8l-1.1-1.9c1.3-1.1,2.6-1.9,4.2-2.5c1.5-0.5,3.2-0.8,4.9-0.8
			c1.3,0,2.4,0.2,3.4,0.6s1.9,1,2.6,1.7c0.7,0.7,1.2,1.6,1.6,2.6s0.6,2.1,0.6,3.3v13H429.4z M422.2,202.2c0.8,0,1.5-0.1,2.1-0.4
			c0.6-0.3,1.2-0.7,1.8-1.4v-2.8c-1.2,0-2.3,0.1-3.1,0.2s-1.4,0.4-1.9,0.6c-0.5,0.2-0.8,0.5-1,0.8c-0.2,0.3-0.3,0.6-0.3,1
			c0,0.7,0.2,1.2,0.6,1.5C420.9,202,421.5,202.2,422.2,202.2z"/>
		<path d="M436.4,206v-20.7h3.7c0.3,0,0.6,0,0.8,0.1c0.2,0.1,0.4,0.1,0.5,0.2c0.1,0.1,0.2,0.3,0.3,0.5c0.1,0.2,0.1,0.4,0.2,0.7
			l0.3,1.9c0.8-1.2,1.6-2.1,2.6-2.8c0.9-0.7,2-1,3.1-1c0.9,0,1.7,0.2,2.3,0.7l-0.8,4.6c-0.1,0.3-0.2,0.5-0.3,0.6s-0.4,0.2-0.6,0.2
			c-0.2,0-0.5,0-0.8-0.1s-0.7-0.1-1.2-0.1c-1.6,0-2.9,0.9-3.8,2.6V206H436.4z"/>
		<path d="M459,176v16.8h0.9c0.4,0,0.7-0.1,0.9-0.2c0.2-0.1,0.4-0.3,0.6-0.6l3.9-5.8c0.2-0.3,0.5-0.6,0.8-0.8s0.7-0.2,1.2-0.2h5.7
			l-5.4,7.4c-0.3,0.3-0.5,0.7-0.8,0.9c-0.3,0.3-0.6,0.5-1,0.7c0.6,0.5,1.1,1.1,1.6,1.8l5.8,9.9h-5.6c-0.5,0-0.9-0.1-1.2-0.2
			c-0.3-0.2-0.6-0.4-0.8-0.8l-3.9-7.3c-0.2-0.3-0.4-0.6-0.6-0.6c-0.2-0.1-0.5-0.2-0.9-0.2H459v9.2h-6.2V176H459z"/>
		<path d="M483.4,184.9c1.4,0,2.6,0.2,3.8,0.6c1.1,0.4,2.1,1,2.9,1.9c0.8,0.8,1.5,1.8,1.9,3c0.5,1.2,0.7,2.5,0.7,4
			c0,0.5,0,0.8-0.1,1.1c0,0.3-0.1,0.5-0.2,0.7c-0.1,0.2-0.2,0.3-0.4,0.4c-0.2,0.1-0.4,0.1-0.7,0.1h-12c0.2,1.7,0.7,3,1.6,3.8
			c0.9,0.8,2,1.2,3.3,1.2c0.7,0,1.3-0.1,1.9-0.3c0.5-0.2,1-0.4,1.4-0.6c0.4-0.2,0.8-0.4,1.1-0.6c0.3-0.2,0.7-0.3,1.1-0.3
			c0.5,0,0.9,0.2,1.1,0.5l1.8,2.2c-0.6,0.7-1.3,1.3-2.1,1.8s-1.5,0.8-2.3,1.1c-0.8,0.3-1.6,0.4-2.3,0.5s-1.5,0.1-2.2,0.1
			c-1.5,0-2.8-0.2-4.1-0.7s-2.4-1.2-3.3-2.1c-1-0.9-1.7-2.1-2.3-3.5c-0.6-1.4-0.8-3-0.8-4.8c0-1.4,0.2-2.7,0.7-3.9
			c0.5-1.2,1.2-2.3,2-3.3c0.9-0.9,2-1.7,3.2-2.2C480.4,185.2,481.8,184.9,483.4,184.9z M483.5,189.2c-1.2,0-2.1,0.3-2.8,1
			c-0.7,0.7-1.1,1.6-1.3,2.9h7.7c0-0.5-0.1-1-0.2-1.4s-0.3-0.9-0.6-1.2c-0.3-0.4-0.7-0.7-1.1-0.9
			C484.7,189.3,484.2,189.2,483.5,189.2z"/>
		<path d="M503.4,206.3c-1,0-1.9-0.1-2.6-0.4c-0.8-0.3-1.4-0.7-1.9-1.2c-0.5-0.5-0.9-1.2-1.2-1.9c-0.3-0.7-0.4-1.6-0.4-2.5v-10.7
			h-1.8c-0.3,0-0.6-0.1-0.8-0.3c-0.2-0.2-0.3-0.5-0.3-0.9v-2.4l3.3-0.6l1.2-5.1c0.2-0.6,0.6-1,1.4-1h3.2v6.1h5v4.2h-5v10.3
			c0,0.5,0.1,0.9,0.4,1.2c0.2,0.3,0.6,0.5,1,0.5c0.2,0,0.4,0,0.6-0.1c0.2,0,0.3-0.1,0.4-0.2s0.2-0.1,0.3-0.2c0.1,0,0.2-0.1,0.3-0.1
			c0.2,0,0.3,0,0.5,0.1c0.1,0.1,0.2,0.2,0.3,0.4l1.9,2.9c-0.8,0.6-1.7,1-2.7,1.4C505.5,206.1,504.4,206.3,503.4,206.3z"/>
		<path d="M519.5,212.5v-27.3h3.8c0.4,0,0.7,0.1,1,0.3s0.4,0.4,0.5,0.8l0.5,1.5c0.4-0.4,0.8-0.8,1.3-1.2c0.5-0.4,1-0.7,1.5-0.9
			c0.5-0.3,1.1-0.5,1.7-0.6c0.6-0.1,1.3-0.2,2-0.2c1.1,0,2.1,0.2,3,0.7s1.7,1.2,2.4,2.1c0.7,0.9,1.2,2,1.6,3.3
			c0.4,1.3,0.6,2.8,0.6,4.5c0,1.6-0.2,3-0.7,4.3c-0.4,1.3-1,2.5-1.8,3.4c-0.8,1-1.7,1.7-2.8,2.3s-2.3,0.8-3.6,0.8
			c-1.1,0-2-0.2-2.7-0.5s-1.4-0.7-2-1.2v8H519.5z M529.6,189.6c-0.5,0-0.9,0-1.2,0.1c-0.4,0.1-0.7,0.2-1,0.4
			c-0.3,0.2-0.6,0.4-0.9,0.6c-0.3,0.2-0.5,0.5-0.8,0.9v8.8c0.5,0.5,1,0.9,1.5,1.1s1.1,0.3,1.7,0.3c0.6,0,1.1-0.1,1.6-0.3
			c0.5-0.2,0.9-0.6,1.2-1.1s0.6-1.1,0.8-2c0.2-0.8,0.3-1.8,0.3-2.9c0-1.1-0.1-2-0.2-2.8c-0.2-0.7-0.4-1.4-0.7-1.8
			c-0.3-0.5-0.6-0.8-1-1C530.5,189.7,530.1,189.6,529.6,189.6z"/>
		<path d="M548.8,176V206h-6.2V176H548.8z"/>
		<path d="M568,206c-0.6,0-1-0.1-1.3-0.2c-0.3-0.2-0.5-0.5-0.8-1l-0.4-1.1c-0.5,0.4-1,0.8-1.5,1.2c-0.5,0.3-1,0.6-1.5,0.9
			c-0.5,0.2-1.1,0.4-1.6,0.5s-1.2,0.2-1.9,0.2c-0.9,0-1.8-0.1-2.6-0.4s-1.4-0.6-2-1.1c-0.5-0.5-1-1.1-1.2-1.8
			c-0.3-0.7-0.4-1.5-0.4-2.5c0-0.7,0.2-1.5,0.6-2.3c0.4-0.8,1-1.5,1.9-2.1c0.9-0.6,2.2-1.2,3.7-1.6c1.6-0.4,3.5-0.6,5.9-0.6V193
			c0-1.2-0.2-2.1-0.8-2.7s-1.2-0.8-2.1-0.8c-0.7,0-1.3,0.1-1.8,0.2c-0.5,0.2-0.9,0.3-1.2,0.5c-0.4,0.2-0.7,0.4-1.1,0.5
			s-0.8,0.2-1.2,0.2c-0.4,0-0.8-0.1-1.1-0.3c-0.3-0.2-0.5-0.5-0.7-0.8l-1.1-1.9c1.3-1.1,2.6-1.9,4.2-2.5c1.5-0.5,3.2-0.8,4.9-0.8
			c1.3,0,2.4,0.2,3.4,0.6s1.9,1,2.6,1.7c0.7,0.7,1.2,1.6,1.6,2.6s0.6,2.1,0.6,3.3v13H568z M560.9,202.2c0.8,0,1.5-0.1,2.1-0.4
			c0.6-0.3,1.2-0.7,1.8-1.4v-2.8c-1.2,0-2.3,0.1-3.1,0.2s-1.4,0.4-1.9,0.6s-0.8,0.5-1,0.8c-0.2,0.3-0.3,0.6-0.3,1
			c0,0.7,0.2,1.2,0.6,1.5C559.6,202,560.1,202.2,560.9,202.2z"/>
		<path d="M590,190.1c-0.2,0.2-0.4,0.4-0.5,0.5c-0.2,0.1-0.4,0.2-0.7,0.2c-0.3,0-0.6-0.1-0.8-0.2c-0.2-0.1-0.5-0.3-0.8-0.5
			s-0.7-0.3-1.1-0.5c-0.4-0.1-0.9-0.2-1.5-0.2c-0.8,0-1.4,0.1-2,0.4c-0.6,0.3-1,0.7-1.4,1.2s-0.6,1.2-0.8,1.9
			c-0.2,0.8-0.3,1.6-0.3,2.6c0,2,0.4,3.5,1.1,4.6s1.8,1.6,3.2,1.6c0.7,0,1.3-0.1,1.7-0.3c0.4-0.2,0.8-0.4,1.1-0.6
			c0.3-0.2,0.6-0.4,0.8-0.6c0.2-0.2,0.6-0.3,0.9-0.3c0.5,0,0.9,0.2,1.1,0.5l1.8,2.2c-0.6,0.7-1.3,1.3-2,1.8
			c-0.7,0.5-1.4,0.8-2.2,1.1c-0.7,0.3-1.5,0.4-2.2,0.5c-0.7,0.1-1.5,0.1-2.2,0.1c-1.3,0-2.5-0.2-3.6-0.7s-2.2-1.2-3-2.1
			c-0.9-0.9-1.6-2-2.1-3.4c-0.5-1.3-0.8-2.9-0.8-4.6c0-1.5,0.2-2.9,0.7-4.2c0.4-1.3,1.1-2.4,2-3.4c0.9-1,2-1.7,3.2-2.2
			c1.3-0.5,2.8-0.8,4.5-0.8c1.6,0,3.1,0.3,4.3,0.8s2.3,1.3,3.3,2.3L590,190.1z"/>
		<path d="M603.2,184.9c1.4,0,2.6,0.2,3.8,0.6c1.1,0.4,2.1,1,2.9,1.9c0.8,0.8,1.5,1.8,1.9,3c0.5,1.2,0.7,2.5,0.7,4
			c0,0.5,0,0.8-0.1,1.1c0,0.3-0.1,0.5-0.2,0.7c-0.1,0.2-0.2,0.3-0.4,0.4c-0.2,0.1-0.4,0.1-0.7,0.1h-12c0.2,1.7,0.7,3,1.6,3.8
			c0.9,0.8,2,1.2,3.3,1.2c0.7,0,1.3-0.1,1.9-0.3c0.5-0.2,1-0.4,1.4-0.6c0.4-0.2,0.8-0.4,1.1-0.6c0.3-0.2,0.7-0.3,1.1-0.3
			c0.5,0,0.9,0.2,1.1,0.5l1.8,2.2c-0.6,0.7-1.3,1.3-2.1,1.8s-1.5,0.8-2.3,1.1c-0.8,0.3-1.6,0.4-2.3,0.5s-1.5,0.1-2.2,0.1
			c-1.5,0-2.8-0.2-4.1-0.7s-2.4-1.2-3.3-2.1c-1-0.9-1.7-2.1-2.3-3.5c-0.6-1.4-0.8-3-0.8-4.8c0-1.4,0.2-2.7,0.7-3.9
			c0.5-1.2,1.2-2.3,2-3.3c0.9-0.9,2-1.7,3.2-2.2C600.2,185.2,601.7,184.9,603.2,184.9z M603.4,189.2c-1.2,0-2.1,0.3-2.8,1
			c-0.7,0.7-1.1,1.6-1.3,2.9h7.7c0-0.5-0.1-1-0.2-1.4s-0.3-0.9-0.6-1.2c-0.3-0.4-0.7-0.7-1.1-0.9C604.6,189.3,604,189.2,603.4,189.2
			z"/>
		<path d="M228,233.7c1.4,0,2.7,0.2,3.8,0.7c1.1,0.5,2.1,1.2,2.9,2.1c0.8,0.9,1.4,2,1.8,3.2c0.4,1.3,0.6,2.7,0.6,4.2s-0.2,3-0.6,4.2
			c-0.4,1.3-1,2.3-1.8,3.2c-0.8,0.9-1.7,1.6-2.9,2.1c-1.1,0.5-2.4,0.7-3.8,0.7s-2.7-0.2-3.8-0.7c-1.1-0.5-2.1-1.2-2.9-2.1
			c-0.8-0.9-1.4-2-1.8-3.2c-0.4-1.3-0.6-2.7-0.6-4.2s0.2-3,0.6-4.2c0.4-1.3,1-2.3,1.8-3.2c0.8-0.9,1.7-1.6,2.9-2.1
			C225.3,234,226.6,233.7,228,233.7z M228,252.7c1.2,0,2.2-0.2,3.1-0.6c0.9-0.4,1.6-1,2.2-1.8c0.6-0.8,1-1.7,1.3-2.8
			c0.3-1.1,0.4-2.3,0.4-3.6c0-1.3-0.1-2.5-0.4-3.6c-0.3-1.1-0.7-2-1.3-2.8c-0.6-0.8-1.3-1.4-2.2-1.8c-0.9-0.4-1.9-0.6-3.1-0.6
			s-2.2,0.2-3.1,0.6c-0.9,0.4-1.6,1-2.2,1.8c-0.6,0.8-1,1.7-1.3,2.8c-0.3,1.1-0.4,2.3-0.4,3.6c0,1.3,0.1,2.5,0.4,3.6
			c0.3,1.1,0.7,2,1.3,2.8c0.6,0.8,1.3,1.3,2.2,1.8C225.8,252.5,226.9,252.7,228,252.7z"/>
		<path d="M242.7,254v-17.8l-2.8-0.2c-0.4,0-0.6-0.2-0.6-0.5v-0.8h3.4v-2.5c0-1.1,0.1-2.1,0.4-3c0.3-0.9,0.7-1.6,1.2-2.1
			c0.5-0.6,1.2-1,1.9-1.3s1.6-0.4,2.5-0.4c0.4,0,0.8,0,1.2,0.1s0.8,0.2,1.1,0.3l-0.1,0.9c0,0.2-0.1,0.3-0.4,0.3
			c-0.2,0-0.4,0-0.6-0.1c-0.3,0-0.6-0.1-1-0.1c-0.7,0-1.3,0.1-1.8,0.3c-0.6,0.2-1,0.5-1.4,0.9s-0.7,1-0.9,1.7
			c-0.2,0.7-0.3,1.5-0.3,2.5v2.5h6.5v1.4h-6.4V254H242.7z"/>
		<path d="M261.4,260.5v-27.3h3.8c0.4,0,0.7,0.1,1,0.3c0.3,0.2,0.4,0.4,0.5,0.8l0.5,1.5c0.4-0.4,0.8-0.8,1.3-1.2
			c0.5-0.4,1-0.7,1.5-0.9c0.5-0.3,1.1-0.5,1.7-0.6c0.6-0.1,1.3-0.2,2-0.2c1.1,0,2.1,0.2,3,0.7c0.9,0.5,1.7,1.2,2.4,2.1
			c0.7,0.9,1.2,2,1.6,3.3c0.4,1.3,0.6,2.8,0.6,4.5c0,1.6-0.2,3-0.7,4.3c-0.4,1.3-1,2.5-1.8,3.4s-1.7,1.7-2.8,2.3
			c-1.1,0.5-2.3,0.8-3.6,0.8c-1.1,0-2-0.2-2.7-0.5c-0.7-0.3-1.4-0.7-2-1.2v8H261.4z M271.5,237.6c-0.5,0-0.9,0-1.2,0.1
			c-0.4,0.1-0.7,0.2-1,0.4c-0.3,0.2-0.6,0.4-0.9,0.6c-0.3,0.2-0.5,0.5-0.8,0.9v8.8c0.5,0.5,1,0.9,1.5,1.1c0.5,0.2,1.1,0.3,1.7,0.3
			c0.6,0,1.1-0.1,1.6-0.3c0.5-0.2,0.9-0.6,1.2-1.1c0.4-0.5,0.6-1.1,0.8-2c0.2-0.8,0.3-1.8,0.3-2.9c0-1.1-0.1-2-0.2-2.8
			s-0.4-1.4-0.7-1.8c-0.3-0.5-0.6-0.8-1-1C272.4,237.7,272,237.6,271.5,237.6z"/>
		<path d="M293.2,232.9c1.4,0,2.6,0.2,3.8,0.6c1.1,0.4,2.1,1,2.9,1.9c0.8,0.8,1.5,1.8,1.9,3c0.5,1.2,0.7,2.5,0.7,4
			c0,0.5,0,0.8-0.1,1.1c0,0.3-0.1,0.5-0.2,0.7c-0.1,0.2-0.2,0.3-0.4,0.4c-0.2,0.1-0.4,0.1-0.7,0.1h-12c0.2,1.7,0.7,3,1.6,3.8
			c0.9,0.8,2,1.2,3.3,1.2c0.7,0,1.3-0.1,1.9-0.3c0.5-0.2,1-0.4,1.4-0.6c0.4-0.2,0.8-0.4,1.1-0.6c0.3-0.2,0.7-0.3,1.1-0.3
			c0.5,0,0.9,0.2,1.1,0.5l1.8,2.2c-0.6,0.7-1.3,1.3-2.1,1.8c-0.7,0.5-1.5,0.8-2.3,1.1c-0.8,0.3-1.6,0.4-2.3,0.5
			c-0.8,0.1-1.5,0.1-2.2,0.1c-1.5,0-2.8-0.2-4.1-0.7c-1.3-0.5-2.4-1.2-3.3-2.1c-1-0.9-1.7-2.1-2.3-3.5c-0.6-1.4-0.8-3-0.8-4.8
			c0-1.4,0.2-2.7,0.7-3.9c0.5-1.2,1.2-2.3,2-3.3c0.9-0.9,2-1.7,3.2-2.2C290.2,233.2,291.6,232.9,293.2,232.9z M293.3,237.2
			c-1.2,0-2.1,0.3-2.8,1c-0.7,0.7-1.1,1.6-1.3,2.9h7.7c0-0.5-0.1-1-0.2-1.4c-0.1-0.5-0.3-0.9-0.6-1.2s-0.7-0.7-1.1-0.9
			C294.6,237.3,294,237.2,293.3,237.2z"/>
		<path d="M305.9,254v-20.7h3.7c0.3,0,0.6,0,0.8,0.1c0.2,0.1,0.4,0.1,0.5,0.2c0.1,0.1,0.2,0.3,0.3,0.5c0.1,0.2,0.1,0.4,0.2,0.7
			l0.3,1.9c0.8-1.2,1.6-2.1,2.6-2.8c0.9-0.7,2-1,3.1-1c0.9,0,1.7,0.2,2.3,0.7l-0.8,4.6c-0.1,0.3-0.2,0.5-0.3,0.6s-0.4,0.2-0.6,0.2
			c-0.2,0-0.5,0-0.8-0.1c-0.3-0.1-0.7-0.1-1.2-0.1c-1.6,0-2.9,0.9-3.8,2.6V254H305.9z"/>
		<path d="M335,237.8c-0.2,0.3-0.3,0.4-0.5,0.5c-0.2,0.1-0.4,0.2-0.7,0.2c-0.3,0-0.6-0.1-0.9-0.2c-0.3-0.1-0.6-0.3-1-0.4
			c-0.3-0.1-0.7-0.3-1.1-0.4c-0.4-0.1-0.9-0.2-1.5-0.2c-0.8,0-1.4,0.2-1.8,0.5s-0.6,0.7-0.6,1.2c0,0.4,0.1,0.7,0.4,1
			c0.3,0.3,0.6,0.5,1.1,0.7c0.5,0.2,1,0.4,1.5,0.6s1.2,0.4,1.8,0.6c0.6,0.2,1.2,0.5,1.8,0.8c0.6,0.3,1.1,0.6,1.5,1.1
			c0.5,0.4,0.8,0.9,1.1,1.5c0.3,0.6,0.4,1.3,0.4,2.2c0,1-0.2,2-0.6,2.8c-0.4,0.9-0.9,1.6-1.7,2.2c-0.7,0.6-1.7,1.1-2.7,1.5
			c-1.1,0.3-2.3,0.5-3.8,0.5c-0.7,0-1.4-0.1-2.1-0.2c-0.7-0.1-1.4-0.3-2-0.5s-1.3-0.5-1.8-0.8c-0.6-0.3-1-0.6-1.4-1l1.4-2.3
			c0.2-0.3,0.4-0.5,0.6-0.6s0.6-0.2,0.9-0.2c0.4,0,0.7,0.1,1,0.2c0.3,0.2,0.6,0.3,0.9,0.5c0.3,0.2,0.7,0.4,1.2,0.5
			c0.4,0.2,1,0.2,1.7,0.2c0.5,0,0.9-0.1,1.2-0.1c0.3-0.1,0.6-0.2,0.8-0.4c0.2-0.2,0.3-0.4,0.4-0.6c0.1-0.2,0.1-0.4,0.1-0.7
			c0-0.4-0.1-0.8-0.4-1c-0.3-0.3-0.6-0.5-1.1-0.7c-0.5-0.2-1-0.4-1.5-0.5c-0.6-0.2-1.2-0.4-1.8-0.6s-1.2-0.5-1.8-0.8
			s-1.1-0.7-1.5-1.1c-0.5-0.5-0.8-1-1.1-1.7c-0.3-0.7-0.4-1.5-0.4-2.4c0-0.9,0.2-1.7,0.5-2.5c0.3-0.8,0.9-1.5,1.5-2.1
			c0.7-0.6,1.5-1.1,2.6-1.4c1-0.4,2.2-0.5,3.6-0.5c0.7,0,1.5,0.1,2.2,0.2c0.7,0.1,1.4,0.3,2,0.6c0.6,0.2,1.2,0.5,1.7,0.8
			c0.5,0.3,1,0.7,1.3,1.1L335,237.8z"/>
		<path d="M349,232.9c1.6,0,3,0.2,4.3,0.7c1.3,0.5,2.4,1.2,3.3,2.1c0.9,0.9,1.6,2,2.2,3.4c0.5,1.3,0.8,2.8,0.8,4.4
			c0,1.7-0.3,3.1-0.8,4.5c-0.5,1.3-1.2,2.5-2.2,3.4s-2,1.6-3.3,2.1c-1.3,0.5-2.7,0.8-4.3,0.8c-1.6,0-3-0.2-4.3-0.8
			c-1.3-0.5-2.4-1.2-3.4-2.1c-0.9-0.9-1.7-2.1-2.2-3.4c-0.5-1.3-0.8-2.8-0.8-4.5c0-1.6,0.3-3.1,0.8-4.4c0.5-1.3,1.2-2.4,2.2-3.4
			c0.9-0.9,2.1-1.6,3.4-2.1C346,233.1,347.4,232.9,349,232.9z M349,249.7c1.4,0,2.5-0.5,3.1-1.5c0.7-1,1-2.5,1-4.6s-0.3-3.6-1-4.6
			c-0.7-1-1.7-1.5-3.1-1.5c-1.5,0-2.5,0.5-3.2,1.5c-0.7,1-1,2.5-1,4.6s0.3,3.6,1,4.6C346.4,249.2,347.5,249.7,349,249.7z"/>
		<path d="M362.8,254v-20.7h3.8c0.4,0,0.7,0.1,1,0.3c0.3,0.2,0.4,0.4,0.5,0.8l0.4,1.2c0.4-0.4,0.8-0.7,1.2-1s0.9-0.6,1.4-0.8
			c0.5-0.2,1-0.4,1.6-0.5c0.6-0.1,1.2-0.2,1.9-0.2c1.1,0,2.1,0.2,3,0.6c0.9,0.4,1.6,0.9,2.2,1.6c0.6,0.7,1.1,1.5,1.4,2.5
			c0.3,1,0.5,2,0.5,3.1V254h-6.2v-13.2c0-1-0.2-1.8-0.7-2.4s-1.2-0.9-2.1-0.9c-0.7,0-1.3,0.1-1.9,0.4c-0.6,0.3-1.2,0.7-1.7,1.2V254
			H362.8z"/>
		<path d="M400.1,254c-0.6,0-1-0.1-1.3-0.2c-0.3-0.2-0.6-0.5-0.8-1l-0.4-1.1c-0.5,0.4-1,0.8-1.5,1.2c-0.5,0.3-1,0.6-1.5,0.9
			c-0.5,0.2-1.1,0.4-1.6,0.5c-0.6,0.1-1.2,0.2-1.9,0.2c-0.9,0-1.8-0.1-2.6-0.4c-0.8-0.2-1.4-0.6-2-1.1c-0.5-0.5-1-1.1-1.2-1.8
			c-0.3-0.7-0.4-1.5-0.4-2.5c0-0.7,0.2-1.5,0.6-2.3c0.4-0.8,1-1.5,1.9-2.1c0.9-0.6,2.2-1.2,3.7-1.6s3.5-0.6,5.9-0.6V241
			c0-1.2-0.2-2.1-0.8-2.7s-1.2-0.8-2.1-0.8c-0.7,0-1.3,0.1-1.8,0.2c-0.5,0.2-0.9,0.3-1.2,0.5c-0.4,0.2-0.7,0.4-1.1,0.5
			s-0.8,0.2-1.2,0.2c-0.4,0-0.8-0.1-1.1-0.3c-0.3-0.2-0.5-0.5-0.7-0.8l-1.1-1.9c1.3-1.1,2.6-1.9,4.2-2.5s3.2-0.8,4.9-0.8
			c1.3,0,2.4,0.2,3.4,0.6c1,0.4,1.9,1,2.6,1.7c0.7,0.7,1.2,1.6,1.6,2.6s0.6,2.1,0.6,3.3v13H400.1z M393,250.2c0.8,0,1.5-0.1,2.1-0.4
			c0.6-0.3,1.2-0.7,1.8-1.4v-2.8c-1.2,0-2.3,0.1-3.1,0.2s-1.4,0.4-1.9,0.6c-0.5,0.2-0.8,0.5-1,0.8c-0.2,0.3-0.3,0.6-0.3,1
			c0,0.7,0.2,1.2,0.6,1.5C391.7,250,392.3,250.2,393,250.2z"/>
		<path d="M413.6,224V254h-6.2V224H413.6z"/>
		<path d="M426,260.5v-27.3h3.8c0.4,0,0.7,0.1,1,0.3s0.4,0.4,0.5,0.8l0.5,1.5c0.4-0.4,0.8-0.8,1.3-1.2c0.5-0.4,1-0.7,1.5-0.9
			c0.5-0.3,1.1-0.5,1.7-0.6c0.6-0.1,1.3-0.2,2-0.2c1.1,0,2.1,0.2,3,0.7s1.7,1.2,2.4,2.1s1.2,2,1.6,3.3c0.4,1.3,0.6,2.8,0.6,4.5
			c0,1.6-0.2,3-0.7,4.3c-0.4,1.3-1,2.5-1.8,3.4c-0.8,1-1.7,1.7-2.8,2.3s-2.3,0.8-3.6,0.8c-1.1,0-2-0.2-2.7-0.5s-1.4-0.7-2-1.2v8H426
			z M436.1,237.6c-0.5,0-0.9,0-1.2,0.1c-0.4,0.1-0.7,0.2-1,0.4c-0.3,0.2-0.6,0.4-0.9,0.6c-0.3,0.2-0.5,0.5-0.8,0.9v8.8
			c0.5,0.5,1,0.9,1.5,1.1c0.5,0.2,1.1,0.3,1.7,0.3c0.6,0,1.1-0.1,1.6-0.3c0.5-0.2,0.9-0.6,1.2-1.1c0.4-0.5,0.6-1.1,0.8-2
			c0.2-0.8,0.3-1.8,0.3-2.9c0-1.1-0.1-2-0.2-2.8s-0.4-1.4-0.7-1.8s-0.6-0.8-1-1C437.1,237.7,436.6,237.6,436.1,237.6z"/>
		<path d="M449,254v-20.7h3.7c0.3,0,0.6,0,0.8,0.1c0.2,0.1,0.4,0.1,0.5,0.2c0.1,0.1,0.2,0.3,0.3,0.5c0.1,0.2,0.1,0.4,0.2,0.7
			l0.3,1.9c0.8-1.2,1.6-2.1,2.6-2.8c0.9-0.7,2-1,3.1-1c0.9,0,1.7,0.2,2.3,0.7l-0.8,4.6c-0.1,0.3-0.2,0.5-0.3,0.6s-0.4,0.2-0.6,0.2
			c-0.2,0-0.5,0-0.8-0.1c-0.3-0.1-0.7-0.1-1.2-0.1c-1.6,0-2.9,0.9-3.8,2.6V254H449z"/>
		<path d="M474.6,232.9c1.6,0,3,0.2,4.3,0.7c1.3,0.5,2.4,1.2,3.3,2.1c0.9,0.9,1.6,2,2.2,3.4c0.5,1.3,0.8,2.8,0.8,4.4
			c0,1.7-0.3,3.1-0.8,4.5c-0.5,1.3-1.2,2.5-2.2,3.4s-2,1.6-3.3,2.1c-1.3,0.5-2.7,0.8-4.3,0.8c-1.6,0-3-0.2-4.3-0.8
			c-1.3-0.5-2.4-1.2-3.4-2.1c-0.9-0.9-1.7-2.1-2.2-3.4c-0.5-1.3-0.8-2.8-0.8-4.5c0-1.6,0.3-3.1,0.8-4.4c0.5-1.3,1.2-2.4,2.2-3.4
			c0.9-0.9,2.1-1.6,3.4-2.1C471.5,233.1,473,232.9,474.6,232.9z M474.6,249.7c1.4,0,2.5-0.5,3.2-1.5c0.7-1,1-2.5,1-4.6
			s-0.3-3.6-1-4.6c-0.7-1-1.7-1.5-3.2-1.5c-1.5,0-2.5,0.5-3.2,1.5s-1,2.5-1,4.6s0.3,3.6,1,4.6C472,249.2,473.1,249.7,474.6,249.7z"
			/>
		<path d="M502.9,254c-0.4,0-0.7-0.1-1-0.3s-0.4-0.4-0.5-0.8l-0.5-1.6c-0.4,0.4-0.8,0.8-1.3,1.2s-0.9,0.7-1.5,0.9
			c-0.5,0.3-1.1,0.5-1.7,0.6c-0.6,0.1-1.3,0.2-2,0.2c-1.1,0-2.1-0.2-3-0.7c-0.9-0.5-1.7-1.2-2.4-2.1s-1.2-2-1.6-3.3
			c-0.4-1.3-0.6-2.8-0.6-4.5c0-1.5,0.2-3,0.6-4.3s1-2.5,1.8-3.4s1.7-1.7,2.8-2.3c1.1-0.5,2.3-0.8,3.6-0.8c1.1,0,2,0.2,2.7,0.5
			c0.7,0.3,1.4,0.7,2,1.2V224h6.2V254H502.9z M496.7,249.5c0.5,0,0.9,0,1.2-0.1c0.4-0.1,0.7-0.2,1-0.4s0.6-0.4,0.9-0.6
			c0.3-0.2,0.5-0.5,0.8-0.8v-8.8c-0.5-0.5-1-0.9-1.5-1.1c-0.5-0.2-1.1-0.3-1.7-0.3c-0.6,0-1.1,0.1-1.6,0.3c-0.5,0.2-0.9,0.6-1.2,1.1
			c-0.4,0.5-0.6,1.1-0.8,1.9c-0.2,0.8-0.3,1.8-0.3,2.9c0,1.1,0.1,2,0.2,2.8c0.2,0.7,0.4,1.4,0.7,1.8c0.3,0.5,0.6,0.8,1,1
			C495.7,249.4,496.2,249.5,496.7,249.5z"/>
		<path d="M517.2,233.2v13.2c0,1,0.2,1.8,0.7,2.4c0.5,0.6,1.2,0.8,2.1,0.8c0.7,0,1.3-0.1,1.9-0.4c0.6-0.3,1.2-0.7,1.7-1.2v-14.8h6.2
			V254H526c-0.8,0-1.3-0.3-1.5-1l-0.4-1.2c-0.4,0.4-0.8,0.7-1.2,1.1c-0.4,0.3-0.9,0.6-1.4,0.8c-0.5,0.2-1,0.4-1.6,0.5
			c-0.6,0.1-1.2,0.2-1.8,0.2c-1.1,0-2.1-0.2-3-0.6c-0.9-0.4-1.6-0.9-2.2-1.6c-0.6-0.7-1.1-1.5-1.4-2.5s-0.5-2-0.5-3.2v-13.2H517.2z"
			/>
		<path d="M549.4,238.1c-0.2,0.2-0.4,0.4-0.5,0.5c-0.2,0.1-0.4,0.2-0.7,0.2c-0.3,0-0.6-0.1-0.8-0.2c-0.2-0.1-0.5-0.3-0.8-0.5
			s-0.7-0.3-1.1-0.5c-0.4-0.1-0.9-0.2-1.5-0.2c-0.8,0-1.4,0.1-2,0.4c-0.6,0.3-1,0.7-1.4,1.2s-0.6,1.2-0.8,1.9
			c-0.2,0.8-0.3,1.6-0.3,2.6c0,2,0.4,3.5,1.1,4.6s1.8,1.6,3.2,1.6c0.7,0,1.3-0.1,1.7-0.3c0.4-0.2,0.8-0.4,1.1-0.6
			c0.3-0.2,0.6-0.4,0.8-0.6c0.2-0.2,0.6-0.3,0.9-0.3c0.5,0,0.9,0.2,1.1,0.5l1.8,2.2c-0.6,0.7-1.3,1.3-2,1.8
			c-0.7,0.5-1.4,0.8-2.2,1.1c-0.7,0.3-1.5,0.4-2.2,0.5c-0.7,0.1-1.5,0.1-2.2,0.1c-1.3,0-2.5-0.2-3.6-0.7s-2.2-1.2-3-2.1
			c-0.9-0.9-1.6-2-2.1-3.4c-0.5-1.3-0.8-2.9-0.8-4.6c0-1.5,0.2-2.9,0.7-4.2c0.4-1.3,1.1-2.4,2-3.4c0.9-1,2-1.7,3.2-2.2
			c1.3-0.5,2.8-0.8,4.5-0.8c1.6,0,3.1,0.3,4.3,0.8s2.3,1.3,3.3,2.3L549.4,238.1z"/>
		<path d="M561,254.3c-1,0-1.9-0.1-2.6-0.4c-0.8-0.3-1.4-0.7-1.9-1.2c-0.5-0.5-0.9-1.2-1.2-1.9c-0.3-0.7-0.4-1.6-0.4-2.5v-10.7h-1.8
			c-0.3,0-0.6-0.1-0.8-0.3c-0.2-0.2-0.3-0.5-0.3-0.9v-2.4l3.3-0.6l1.2-5.1c0.2-0.6,0.6-1,1.4-1h3.2v6.1h5v4.2h-5v10.3
			c0,0.5,0.1,0.9,0.4,1.2c0.2,0.3,0.6,0.5,1,0.5c0.2,0,0.4,0,0.6-0.1c0.2,0,0.3-0.1,0.4-0.2s0.2-0.1,0.3-0.2c0.1,0,0.2-0.1,0.3-0.1
			c0.2,0,0.3,0,0.5,0.1c0.1,0.1,0.2,0.2,0.3,0.4l1.9,2.9c-0.8,0.6-1.7,1-2.7,1.4C563.1,254.1,562.1,254.3,561,254.3z"/>
		<path d="M582.3,237.8c-0.2,0.3-0.3,0.4-0.5,0.5c-0.2,0.1-0.4,0.2-0.7,0.2c-0.3,0-0.6-0.1-0.9-0.2c-0.3-0.1-0.6-0.3-1-0.4
			c-0.3-0.1-0.7-0.3-1.1-0.4c-0.4-0.1-0.9-0.2-1.5-0.2c-0.8,0-1.4,0.2-1.8,0.5s-0.6,0.7-0.6,1.2c0,0.4,0.1,0.7,0.4,1
			c0.3,0.3,0.6,0.5,1.1,0.7c0.5,0.2,1,0.4,1.5,0.6s1.2,0.4,1.8,0.6c0.6,0.2,1.2,0.5,1.8,0.8c0.6,0.3,1.1,0.6,1.5,1.1
			c0.5,0.4,0.8,0.9,1.1,1.5c0.3,0.6,0.4,1.3,0.4,2.2c0,1-0.2,2-0.6,2.8s-0.9,1.6-1.7,2.2c-0.7,0.6-1.7,1.1-2.7,1.5
			c-1.1,0.3-2.3,0.5-3.8,0.5c-0.7,0-1.4-0.1-2.1-0.2c-0.7-0.1-1.4-0.3-2-0.5s-1.3-0.5-1.8-0.8c-0.6-0.3-1-0.6-1.4-1l1.4-2.3
			c0.2-0.3,0.4-0.5,0.6-0.6s0.6-0.2,0.9-0.2c0.4,0,0.7,0.1,1,0.2c0.3,0.2,0.6,0.3,0.9,0.5c0.3,0.2,0.7,0.4,1.2,0.5
			c0.4,0.2,1,0.2,1.7,0.2c0.5,0,0.9-0.1,1.2-0.1c0.3-0.1,0.6-0.2,0.8-0.4s0.3-0.4,0.4-0.6c0.1-0.2,0.1-0.4,0.1-0.7
			c0-0.4-0.1-0.8-0.4-1c-0.3-0.3-0.6-0.5-1.1-0.7c-0.5-0.2-1-0.4-1.5-0.5c-0.6-0.2-1.2-0.4-1.8-0.6s-1.2-0.5-1.8-0.8
			c-0.6-0.3-1.1-0.7-1.6-1.1s-0.8-1-1.1-1.7c-0.3-0.7-0.4-1.5-0.4-2.4c0-0.9,0.2-1.7,0.5-2.5c0.3-0.8,0.9-1.5,1.5-2.1
			s1.5-1.1,2.6-1.4c1-0.4,2.2-0.5,3.6-0.5c0.7,0,1.5,0.1,2.2,0.2s1.4,0.3,2,0.6c0.6,0.2,1.2,0.5,1.7,0.8c0.5,0.3,1,0.7,1.3,1.1
			L582.3,237.8z"/>
	</g>
</g>
<g id="Layer_5">
</g>
</svg>
