<?xml version="1.0" encoding="utf-8"?>
<!-- Generator: Adobe Illustrator 18.0.0, SVG Export Plug-In . SVG Version: 6.00 Build 0)  -->
<!DOCTYPE svg PUBLIC "-//W3C//DTD SVG 1.1//EN" "http://www.w3.org/Graphics/SVG/1.1/DTD/svg11.dtd">
<svg version="1.1" xmlns="http://www.w3.org/2000/svg" xmlns:xlink="http://www.w3.org/1999/xlink" x="0px" y="0px"
	 viewBox="0 -48 800 531" enable-background="new 0 -48 800 531" xml:space="preserve">
<g id="_x35_">
	<g>
		<path d="M128.2,181.1c-0.1,0.2-0.3,0.3-0.5,0.3c-0.2,0-0.4-0.1-0.7-0.4c-0.3-0.2-0.6-0.5-1.1-0.8c-0.5-0.3-1.1-0.6-1.8-0.8
			c-0.7-0.3-1.6-0.4-2.6-0.4c-1,0-1.9,0.1-2.7,0.4c-0.8,0.3-1.4,0.7-2,1.2c-0.5,0.5-0.9,1.1-1.2,1.8c-0.3,0.7-0.4,1.4-0.4,2.1
			c0,1,0.2,1.8,0.6,2.4c0.4,0.6,0.9,1.2,1.6,1.6c0.7,0.4,1.4,0.8,2.3,1.1c0.8,0.3,1.7,0.6,2.6,0.9c0.9,0.3,1.8,0.6,2.6,1
			c0.8,0.4,1.6,0.8,2.3,1.3c0.7,0.5,1.2,1.2,1.6,2c0.4,0.8,0.6,1.8,0.6,2.9c0,1.2-0.2,2.3-0.6,3.3c-0.4,1-1,2-1.8,2.7
			c-0.8,0.8-1.7,1.4-2.8,1.8c-1.1,0.4-2.4,0.7-3.8,0.7c-1.9,0-3.5-0.3-4.8-1s-2.5-1.6-3.5-2.7l0.6-0.9c0.2-0.2,0.3-0.3,0.6-0.3
			c0.1,0,0.3,0.1,0.5,0.2c0.2,0.2,0.4,0.4,0.7,0.6c0.3,0.2,0.6,0.5,1,0.8c0.4,0.3,0.8,0.5,1.3,0.8c0.5,0.2,1.1,0.4,1.7,0.6
			c0.6,0.2,1.4,0.2,2.2,0.2c1.1,0,2.1-0.2,3-0.5c0.9-0.3,1.6-0.8,2.2-1.4c0.6-0.6,1.1-1.3,1.4-2.1c0.3-0.8,0.5-1.7,0.5-2.6
			c0-1-0.2-1.8-0.6-2.5c-0.4-0.6-0.9-1.2-1.6-1.6s-1.4-0.8-2.3-1.1c-0.8-0.3-1.7-0.6-2.6-0.9s-1.8-0.6-2.6-0.9
			c-0.8-0.3-1.6-0.8-2.3-1.3c-0.7-0.5-1.2-1.2-1.6-2c-0.4-0.8-0.6-1.8-0.6-3c0-0.9,0.2-1.9,0.5-2.7c0.4-0.9,0.9-1.7,1.6-2.3
			c0.7-0.7,1.6-1.2,2.6-1.6s2.2-0.6,3.5-0.6c1.5,0,2.8,0.2,4,0.7c1.2,0.5,2.2,1.2,3.2,2.1L128.2,181.1z"/>
		<path d="M141.8,185.7c1.4,0,2.7,0.2,3.8,0.7c1.1,0.5,2.1,1.2,2.9,2.1c0.8,0.9,1.4,2,1.8,3.2c0.4,1.3,0.6,2.7,0.6,4.2
			s-0.2,3-0.6,4.2c-0.4,1.3-1,2.3-1.8,3.2c-0.8,0.9-1.7,1.6-2.9,2.1c-1.1,0.5-2.4,0.7-3.8,0.7s-2.7-0.2-3.8-0.7
			c-1.1-0.5-2.1-1.2-2.9-2.1c-0.8-0.9-1.4-2-1.8-3.2c-0.4-1.3-0.6-2.7-0.6-4.2s0.2-3,0.6-4.2c0.4-1.3,1-2.3,1.8-3.2
			c0.8-0.9,1.7-1.6,2.9-2.1C139.1,186,140.4,185.7,141.8,185.7z M141.8,204.7c1.2,0,2.2-0.2,3.1-0.6c0.9-0.4,1.6-1,2.2-1.8
			c0.6-0.8,1-1.7,1.3-2.8c0.3-1.1,0.4-2.3,0.4-3.6c0-1.3-0.1-2.5-0.4-3.6c-0.3-1.1-0.7-2-1.3-2.8c-0.6-0.8-1.3-1.4-2.2-1.8
			c-0.9-0.4-1.9-0.6-3.1-0.6s-2.2,0.2-3.1,0.6c-0.9,0.4-1.6,1-2.2,1.8c-0.6,0.8-1,1.7-1.3,2.8c-0.3,1.1-0.4,2.3-0.4,3.6
			c0,1.3,0.1,2.5,0.4,3.6c0.3,1.1,0.7,2,1.3,2.8c0.6,0.8,1.3,1.3,2.2,1.8C139.6,204.5,140.6,204.7,141.8,204.7z"/>
		<path d="M177.4,190.1c-0.2,0.2-0.4,0.4-0.5,0.5s-0.4,0.2-0.7,0.2c-0.3,0-0.6-0.1-0.8-0.2c-0.2-0.1-0.5-0.3-0.8-0.5
			s-0.7-0.3-1.1-0.5c-0.4-0.1-0.9-0.2-1.5-0.2c-0.8,0-1.4,0.1-2,0.4c-0.6,0.3-1,0.7-1.4,1.2s-0.6,1.2-0.8,1.9
			c-0.2,0.8-0.3,1.6-0.3,2.6c0,2,0.4,3.5,1.1,4.6s1.8,1.6,3.2,1.6c0.7,0,1.3-0.1,1.7-0.3c0.4-0.2,0.8-0.4,1.1-0.6
			c0.3-0.2,0.6-0.4,0.8-0.6c0.2-0.2,0.6-0.3,0.9-0.3c0.5,0,0.9,0.2,1.1,0.5l1.8,2.2c-0.6,0.7-1.3,1.3-2,1.8
			c-0.7,0.5-1.4,0.8-2.2,1.1c-0.7,0.3-1.5,0.4-2.2,0.5c-0.7,0.1-1.5,0.1-2.2,0.1c-1.3,0-2.5-0.2-3.6-0.7c-1.2-0.5-2.2-1.2-3-2.1
			c-0.9-0.9-1.6-2-2.1-3.4c-0.5-1.3-0.8-2.9-0.8-4.6c0-1.5,0.2-2.9,0.7-4.2c0.4-1.3,1.1-2.4,2-3.4c0.9-1,2-1.7,3.2-2.2
			c1.3-0.5,2.8-0.8,4.5-0.8c1.6,0,3.1,0.3,4.3,0.8c1.2,0.5,2.3,1.3,3.3,2.3L177.4,190.1z"/>
		<path d="M191,184.9c1.6,0,3,0.2,4.3,0.7c1.3,0.5,2.4,1.2,3.3,2.1c0.9,0.9,1.6,2,2.2,3.4c0.5,1.3,0.8,2.8,0.8,4.4
			c0,1.7-0.3,3.1-0.8,4.5c-0.5,1.3-1.2,2.5-2.2,3.4s-2,1.6-3.3,2.1c-1.3,0.5-2.7,0.8-4.3,0.8c-1.6,0-3-0.2-4.3-0.8
			c-1.3-0.5-2.4-1.2-3.4-2.1c-0.9-0.9-1.7-2.1-2.2-3.4c-0.5-1.3-0.8-2.8-0.8-4.5c0-1.6,0.3-3.1,0.8-4.4c0.5-1.3,1.2-2.4,2.2-3.4
			c0.9-0.9,2.1-1.6,3.4-2.1C187.9,185.1,189.4,184.9,191,184.9z M191,201.7c1.4,0,2.5-0.5,3.1-1.5c0.7-1,1-2.5,1-4.6s-0.3-3.6-1-4.6
			c-0.7-1-1.7-1.5-3.1-1.5c-1.5,0-2.5,0.5-3.2,1.5c-0.7,1-1,2.5-1,4.6s0.3,3.6,1,4.6C188.4,201.2,189.5,201.7,191,201.7z"/>
		<path d="M204.8,206v-20.7h3.8c0.4,0,0.7,0.1,1,0.3c0.3,0.2,0.4,0.4,0.5,0.8l0.3,1.1c0.3-0.4,0.7-0.7,1.1-1
			c0.4-0.3,0.8-0.6,1.2-0.8c0.4-0.2,0.9-0.4,1.4-0.5c0.5-0.1,1-0.2,1.6-0.2c1.3,0,2.3,0.3,3.1,1c0.8,0.6,1.4,1.5,1.9,2.6
			c0.3-0.6,0.8-1.2,1.3-1.6c0.5-0.5,1-0.8,1.6-1.1c0.6-0.3,1.2-0.5,1.8-0.6c0.6-0.1,1.3-0.2,1.9-0.2c1.2,0,2.2,0.2,3.2,0.5
			c0.9,0.4,1.7,0.9,2.3,1.5c0.6,0.7,1.1,1.5,1.4,2.5c0.3,1,0.5,2.1,0.5,3.3V206h-6.2v-13.2c0-2.1-0.9-3.2-2.8-3.2
			c-0.8,0-1.5,0.3-2.1,0.8c-0.6,0.6-0.8,1.3-0.8,2.4V206h-6.2v-13.2c0-1.2-0.2-2-0.7-2.5c-0.5-0.5-1.2-0.7-2.1-0.7
			c-0.6,0-1.1,0.1-1.6,0.4c-0.5,0.3-1,0.6-1.4,1v15H204.8z"/>
		<path d="M239,206v-20.7h3.8c0.4,0,0.7,0.1,1,0.3c0.3,0.2,0.4,0.4,0.5,0.8l0.3,1.1c0.3-0.4,0.7-0.7,1.1-1c0.4-0.3,0.8-0.6,1.2-0.8
			c0.4-0.2,0.9-0.4,1.4-0.5c0.5-0.1,1-0.2,1.6-0.2c1.3,0,2.3,0.3,3.1,1c0.8,0.6,1.4,1.5,1.9,2.6c0.3-0.6,0.8-1.2,1.3-1.6
			c0.5-0.5,1-0.8,1.6-1.1c0.6-0.3,1.2-0.5,1.8-0.6c0.6-0.1,1.3-0.2,1.9-0.2c1.2,0,2.2,0.2,3.2,0.5c0.9,0.4,1.7,0.9,2.3,1.5
			c0.6,0.7,1.1,1.5,1.4,2.5c0.3,1,0.5,2.1,0.5,3.3V206h-6.2v-13.2c0-2.1-0.9-3.2-2.8-3.2c-0.8,0-1.5,0.3-2.1,0.8
			c-0.6,0.6-0.8,1.3-0.8,2.4V206H251v-13.2c0-1.2-0.2-2-0.7-2.5c-0.5-0.5-1.2-0.7-2.1-0.7c-0.6,0-1.1,0.1-1.6,0.4
			c-0.5,0.3-1,0.6-1.4,1v15H239z"/>
		<path d="M279.1,185.2v13.2c0,1,0.2,1.8,0.7,2.4c0.5,0.6,1.2,0.8,2.1,0.8c0.7,0,1.3-0.1,1.9-0.4c0.6-0.3,1.2-0.7,1.7-1.2v-14.8h6.2
			V206h-3.8c-0.8,0-1.3-0.3-1.5-1l-0.4-1.2c-0.4,0.4-0.8,0.7-1.2,1.1c-0.4,0.3-0.9,0.6-1.4,0.8c-0.5,0.2-1,0.4-1.6,0.5
			c-0.6,0.1-1.2,0.2-1.8,0.2c-1.1,0-2.1-0.2-3-0.6c-0.9-0.4-1.6-0.9-2.2-1.6c-0.6-0.7-1.1-1.5-1.4-2.5s-0.5-2-0.5-3.2v-13.2H279.1z"
			/>
		<path d="M296.4,206v-20.7h3.8c0.4,0,0.7,0.1,1,0.3c0.3,0.2,0.4,0.4,0.5,0.8l0.4,1.2c0.4-0.4,0.8-0.7,1.2-1s0.9-0.6,1.4-0.8
			c0.5-0.2,1-0.4,1.6-0.5c0.6-0.1,1.2-0.2,1.9-0.2c1.1,0,2.1,0.2,3,0.6c0.9,0.4,1.6,0.9,2.2,1.6c0.6,0.7,1.1,1.5,1.4,2.5
			c0.3,1,0.5,2,0.5,3.1V206H309v-13.2c0-1-0.2-1.8-0.7-2.4s-1.2-0.9-2.1-0.9c-0.7,0-1.3,0.1-1.9,0.4c-0.6,0.3-1.2,0.7-1.7,1.2V206
			H296.4z"/>
		<path d="M326.5,179.5c0,0.5-0.1,1-0.3,1.4c-0.2,0.4-0.5,0.8-0.8,1.1c-0.3,0.3-0.8,0.6-1.2,0.8s-0.9,0.3-1.5,0.3
			c-0.5,0-1-0.1-1.4-0.3c-0.4-0.2-0.8-0.5-1.2-0.8c-0.3-0.3-0.6-0.7-0.8-1.1c-0.2-0.4-0.3-0.9-0.3-1.4c0-0.5,0.1-1,0.3-1.4
			c0.2-0.4,0.5-0.8,0.8-1.2c0.3-0.3,0.7-0.6,1.2-0.8c0.4-0.2,0.9-0.3,1.4-0.3c0.5,0,1,0.1,1.5,0.3c0.5,0.2,0.9,0.4,1.2,0.8
			c0.3,0.3,0.6,0.7,0.8,1.2C326.4,178.6,326.5,179,326.5,179.5z M325.8,185.2V206h-6.2v-20.7H325.8z"/>
		<path d="M337.9,206.3c-1,0-1.9-0.1-2.6-0.4s-1.4-0.7-1.9-1.2c-0.5-0.5-0.9-1.2-1.2-1.9c-0.3-0.7-0.4-1.6-0.4-2.5v-10.7h-1.8
			c-0.3,0-0.6-0.1-0.8-0.3c-0.2-0.2-0.3-0.5-0.3-0.9v-2.4l3.3-0.6l1.2-5.1c0.2-0.6,0.6-1,1.4-1h3.2v6.1h5v4.2h-5v10.3
			c0,0.5,0.1,0.9,0.4,1.2c0.2,0.3,0.6,0.5,1,0.5c0.2,0,0.4,0,0.6-0.1s0.3-0.1,0.4-0.2s0.2-0.1,0.3-0.2c0.1,0,0.2-0.1,0.3-0.1
			c0.2,0,0.3,0,0.5,0.1c0.1,0.1,0.2,0.2,0.4,0.4l1.9,2.9c-0.8,0.6-1.7,1-2.7,1.4C340,206.1,339,206.3,337.9,206.3z"/>
		<path d="M353.6,179.5c0,0.5-0.1,1-0.3,1.4c-0.2,0.4-0.5,0.8-0.8,1.1c-0.3,0.3-0.8,0.6-1.2,0.8s-0.9,0.3-1.5,0.3
			c-0.5,0-1-0.1-1.4-0.3c-0.4-0.2-0.8-0.5-1.2-0.8c-0.3-0.3-0.6-0.7-0.8-1.1c-0.2-0.4-0.3-0.9-0.3-1.4c0-0.5,0.1-1,0.3-1.4
			c0.2-0.4,0.5-0.8,0.8-1.2c0.3-0.3,0.7-0.6,1.2-0.8c0.4-0.2,0.9-0.3,1.4-0.3c0.5,0,1,0.1,1.5,0.3c0.5,0.2,0.9,0.4,1.2,0.8
			c0.3,0.3,0.6,0.7,0.8,1.2C353.5,178.6,353.6,179,353.6,179.5z M352.9,185.2V206h-6.2v-20.7H352.9z"/>
		<path d="M366.6,184.9c1.4,0,2.6,0.2,3.8,0.6c1.1,0.4,2.1,1,2.9,1.9c0.8,0.8,1.5,1.8,1.9,3c0.5,1.2,0.7,2.5,0.7,4
			c0,0.5,0,0.8-0.1,1.1c0,0.3-0.1,0.5-0.2,0.7c-0.1,0.2-0.2,0.3-0.4,0.4c-0.2,0.1-0.4,0.1-0.7,0.1h-12c0.2,1.7,0.7,3,1.6,3.8
			c0.9,0.8,2,1.2,3.3,1.2c0.7,0,1.3-0.1,1.9-0.3c0.5-0.2,1-0.4,1.4-0.6c0.4-0.2,0.8-0.4,1.1-0.6c0.3-0.2,0.7-0.3,1.1-0.3
			c0.5,0,0.9,0.2,1.1,0.5l1.8,2.2c-0.6,0.7-1.3,1.3-2.1,1.8c-0.7,0.5-1.5,0.8-2.3,1.1c-0.8,0.3-1.6,0.4-2.3,0.5
			c-0.8,0.1-1.5,0.1-2.2,0.1c-1.5,0-2.8-0.2-4.1-0.7c-1.3-0.5-2.4-1.2-3.3-2.1c-1-0.9-1.7-2.1-2.3-3.5c-0.6-1.4-0.8-3-0.8-4.8
			c0-1.4,0.2-2.7,0.7-3.9c0.5-1.2,1.2-2.3,2-3.3c0.9-0.9,2-1.7,3.2-2.2C363.6,185.2,365,184.9,366.6,184.9z M366.7,189.2
			c-1.2,0-2.1,0.3-2.8,1c-0.7,0.7-1.1,1.6-1.3,2.9h7.7c0-0.5-0.1-1-0.2-1.4c-0.1-0.5-0.3-0.9-0.6-1.2s-0.7-0.7-1.1-0.9
			C368,189.3,367.4,189.2,366.7,189.2z"/>
		<path d="M392,189.8c-0.2,0.3-0.3,0.4-0.5,0.5c-0.2,0.1-0.4,0.2-0.7,0.2c-0.3,0-0.6-0.1-0.9-0.2c-0.3-0.1-0.6-0.3-1-0.4
			c-0.3-0.1-0.7-0.3-1.1-0.4c-0.4-0.1-0.9-0.2-1.5-0.2c-0.8,0-1.4,0.2-1.8,0.5s-0.6,0.7-0.6,1.2c0,0.4,0.1,0.7,0.4,1
			c0.3,0.3,0.6,0.5,1.1,0.7c0.5,0.2,1,0.4,1.5,0.6s1.2,0.4,1.8,0.6c0.6,0.2,1.2,0.5,1.8,0.8c0.6,0.3,1.1,0.6,1.5,1.1
			c0.5,0.4,0.8,0.9,1.1,1.5c0.3,0.6,0.4,1.3,0.4,2.2c0,1-0.2,2-0.6,2.8c-0.4,0.9-0.9,1.6-1.7,2.2c-0.7,0.6-1.7,1.1-2.7,1.5
			c-1.1,0.3-2.3,0.5-3.8,0.5c-0.7,0-1.4-0.1-2.1-0.2c-0.7-0.1-1.4-0.3-2-0.5s-1.3-0.5-1.8-0.8c-0.6-0.3-1-0.6-1.4-1l1.4-2.3
			c0.2-0.3,0.4-0.5,0.6-0.6s0.6-0.2,0.9-0.2c0.4,0,0.7,0.1,1,0.2c0.3,0.2,0.6,0.3,0.9,0.5c0.3,0.2,0.7,0.4,1.2,0.5
			c0.4,0.2,1,0.2,1.7,0.2c0.5,0,0.9-0.1,1.2-0.1c0.3-0.1,0.6-0.2,0.8-0.4c0.2-0.2,0.3-0.4,0.4-0.6c0.1-0.2,0.1-0.4,0.1-0.7
			c0-0.4-0.1-0.8-0.4-1c-0.3-0.3-0.6-0.5-1.1-0.7c-0.5-0.2-1-0.4-1.5-0.5c-0.6-0.2-1.2-0.4-1.8-0.6s-1.2-0.5-1.8-0.8
			s-1.1-0.7-1.5-1.1c-0.5-0.5-0.8-1-1.1-1.7c-0.3-0.7-0.4-1.5-0.4-2.4c0-0.9,0.2-1.7,0.5-2.5c0.3-0.8,0.9-1.5,1.5-2.1
			c0.7-0.6,1.5-1.1,2.6-1.4c1-0.4,2.2-0.5,3.6-0.5c0.7,0,1.5,0.1,2.2,0.2c0.7,0.1,1.4,0.3,2,0.6c0.6,0.2,1.2,0.5,1.7,0.8
			c0.5,0.3,1,0.7,1.3,1.1L392,189.8z"/>
		<path d="M417.9,206c-0.4,0-0.6-0.2-0.7-0.6l-0.3-2.5c-0.5,0.5-1.1,1-1.6,1.4c-0.5,0.4-1.1,0.8-1.7,1.1c-0.6,0.3-1.2,0.5-1.9,0.7
			c-0.7,0.2-1.4,0.2-2.2,0.2c-0.7,0-1.3-0.1-2-0.3c-0.6-0.2-1.2-0.5-1.7-0.9c-0.5-0.4-0.9-0.9-1.2-1.6c-0.3-0.6-0.4-1.4-0.4-2.3
			c0-0.8,0.2-1.6,0.7-2.3c0.5-0.7,1.2-1.3,2.2-1.9c1-0.5,2.3-1,3.9-1.3c1.6-0.3,3.5-0.5,5.8-0.6V193c0-1.8-0.4-3.3-1.2-4.2
			c-0.8-1-2-1.5-3.5-1.5c-1,0-1.8,0.1-2.5,0.4c-0.7,0.3-1.2,0.6-1.7,0.9c-0.5,0.3-0.8,0.6-1.1,0.9c-0.3,0.3-0.5,0.4-0.7,0.4
			c-0.3,0-0.5-0.1-0.6-0.4l-0.3-0.6c1-1,2.1-1.8,3.3-2.4s2.4-0.8,3.9-0.8c1.1,0,2,0.2,2.8,0.5s1.5,0.8,2,1.5
			c0.5,0.6,0.9,1.4,1.2,2.3c0.3,0.9,0.4,1.9,0.4,3v13H417.9z M409.9,204.9c0.8,0,1.5-0.1,2.1-0.2c0.6-0.2,1.2-0.4,1.8-0.7
			c0.6-0.3,1.1-0.7,1.5-1.1c0.5-0.4,1-0.9,1.4-1.3v-5.2c-1.9,0.1-3.5,0.2-4.9,0.4c-1.4,0.2-2.5,0.5-3.4,0.9c-0.9,0.4-1.5,0.9-2,1.4
			c-0.4,0.6-0.6,1.2-0.6,1.9c0,0.7,0.1,1.2,0.3,1.7c0.2,0.5,0.5,0.9,0.9,1.2c0.4,0.3,0.8,0.5,1.3,0.7
			C408.8,204.8,409.3,204.9,409.9,204.9z"/>
		<path d="M424.5,206v-19.9h1c0.2,0,0.4,0,0.5,0.1c0.1,0.1,0.2,0.3,0.2,0.5l0.2,4.2c0.6-1.6,1.5-2.9,2.6-3.8
			c1.1-0.9,2.4-1.4,3.9-1.4c0.6,0,1.2,0.1,1.7,0.2c0.5,0.1,1,0.3,1.4,0.5l-0.3,1.3c0,0.2-0.2,0.3-0.4,0.3c-0.1,0-0.2,0-0.3-0.1
			c-0.1-0.1-0.3-0.1-0.6-0.2c-0.2-0.1-0.5-0.1-0.8-0.2s-0.7-0.1-1.1-0.1c-1.5,0-2.7,0.5-3.7,1.4c-1,0.9-1.8,2.3-2.4,4V206H424.5z"/>
		<path d="M447.8,185.7c1.4,0,2.7,0.2,3.8,0.7c1.1,0.5,2.1,1.2,2.8,2.1c0.8,0.9,1.4,2,1.8,3.2c0.4,1.3,0.6,2.7,0.6,4.2
			s-0.2,3-0.6,4.2c-0.4,1.3-1,2.3-1.8,3.2c-0.8,0.9-1.7,1.6-2.8,2.1c-1.1,0.5-2.4,0.7-3.8,0.7s-2.7-0.2-3.8-0.7s-2.1-1.2-2.9-2.1
			c-0.8-0.9-1.4-2-1.8-3.2c-0.4-1.3-0.6-2.7-0.6-4.2s0.2-3,0.6-4.2c0.4-1.3,1-2.3,1.8-3.2c0.8-0.9,1.7-1.6,2.9-2.1
			C445.1,186,446.3,185.7,447.8,185.7z M447.8,204.7c1.2,0,2.2-0.2,3.1-0.6c0.9-0.4,1.6-1,2.2-1.8c0.6-0.8,1-1.7,1.3-2.8
			c0.3-1.1,0.4-2.3,0.4-3.6c0-1.3-0.1-2.5-0.4-3.6c-0.3-1.1-0.7-2-1.3-2.8c-0.6-0.8-1.3-1.4-2.2-1.8c-0.9-0.4-1.9-0.6-3.1-0.6
			s-2.2,0.2-3.1,0.6c-0.9,0.4-1.6,1-2.2,1.8c-0.6,0.8-1,1.7-1.3,2.8s-0.5,2.3-0.5,3.6c0,1.3,0.2,2.5,0.5,3.6c0.3,1.1,0.7,2,1.3,2.8
			c0.6,0.8,1.3,1.3,2.2,1.8C445.5,204.5,446.6,204.7,447.8,204.7z"/>
		<path d="M463.1,186.1v12.7c0,1.9,0.4,3.3,1.3,4.4c0.9,1.1,2.2,1.6,3.9,1.6c1.3,0,2.5-0.3,3.6-1c1.1-0.7,2.1-1.6,3-2.8v-15h1.9V206
			h-1c-0.4,0-0.6-0.2-0.6-0.5l-0.2-3c-0.9,1.1-2,2.1-3.2,2.8c-1.2,0.7-2.6,1-4,1c-1.1,0-2.1-0.2-2.9-0.5c-0.8-0.3-1.5-0.8-2.1-1.5
			c-0.5-0.7-1-1.4-1.2-2.4s-0.4-2-0.4-3.1v-12.7H463.1z"/>
		<path d="M483.1,206v-19.9h1c0.3,0,0.5,0.2,0.6,0.5l0.2,3c0.9-1.1,2-2.1,3.2-2.8c1.2-0.7,2.5-1.1,4-1.1c1.1,0,2.1,0.2,2.9,0.5
			c0.8,0.3,1.5,0.8,2.1,1.5c0.5,0.7,1,1.4,1.2,2.4s0.4,2,0.4,3.1V206h-1.9v-12.7c0-1.9-0.4-3.3-1.3-4.4c-0.9-1.1-2.2-1.6-3.9-1.6
			c-1.3,0-2.5,0.3-3.6,1s-2.1,1.6-3,2.8V206H483.1z"/>
		<path d="M518.7,206c-0.3,0-0.5-0.2-0.6-0.5l-0.2-3.1c-0.9,1.2-1.9,2.2-3.1,2.9s-2.5,1.1-4,1.1c-2.4,0-4.3-0.8-5.7-2.5
			c-1.4-1.7-2.1-4.2-2.1-7.6c0-1.5,0.2-2.8,0.6-4.1c0.4-1.3,0.9-2.4,1.7-3.3s1.6-1.7,2.7-2.2s2.3-0.8,3.7-0.8c1.3,0,2.5,0.2,3.5,0.8
			s1.8,1.2,2.6,2.2v-11.8h1.9V206H518.7z M511.4,204.7c1.3,0,2.5-0.3,3.6-1c1.1-0.7,2-1.6,2.9-2.8v-10.5c-0.8-1.1-1.6-1.9-2.6-2.4
			c-0.9-0.5-2-0.7-3.2-0.7s-2.2,0.2-3.1,0.6c-0.9,0.4-1.6,1-2.2,1.8c-0.6,0.8-1,1.7-1.3,2.8c-0.3,1.1-0.5,2.3-0.5,3.6
			c0,3,0.5,5.1,1.6,6.5C507.8,204,509.4,204.7,511.4,204.7z"/>
		<path d="M539.3,206.3c-1.3,0-2.4-0.4-3.1-1.1c-0.7-0.7-1.1-1.9-1.1-3.5v-13.6h-2.9c-0.1,0-0.3,0-0.4-0.1c-0.1-0.1-0.1-0.2-0.1-0.3
			v-0.7l3.4-0.2l0.5-7.1c0-0.1,0.1-0.2,0.1-0.3c0.1-0.1,0.2-0.1,0.3-0.1h0.9v7.6h6.3v1.4h-6.3v13.5c0,0.5,0.1,1,0.2,1.4
			c0.1,0.4,0.3,0.7,0.6,1c0.2,0.3,0.5,0.4,0.9,0.6s0.7,0.2,1.1,0.2c0.5,0,0.9-0.1,1.2-0.2c0.3-0.1,0.6-0.3,0.9-0.5
			c0.3-0.2,0.5-0.3,0.6-0.5c0.2-0.1,0.3-0.2,0.4-0.2c0.1,0,0.2,0.1,0.3,0.2l0.5,0.8c-0.5,0.6-1.1,1-1.9,1.4S540.1,206.3,539.3,206.3
			z"/>
		<path d="M548,206v-29.1h1.9v12.6c0.9-1.1,2-2,3.2-2.7s2.5-1,4-1c1.1,0,2.1,0.2,2.9,0.5c0.8,0.3,1.5,0.8,2.1,1.5
			c0.5,0.7,1,1.4,1.2,2.4s0.4,2,0.4,3.1V206h-1.9v-12.7c0-1.9-0.4-3.3-1.3-4.4c-0.9-1.1-2.2-1.6-3.9-1.6c-1.3,0-2.5,0.3-3.6,1
			s-2.1,1.6-3,2.8V206H548z"/>
		<path d="M576.9,185.7c1.1,0,2.2,0.2,3.1,0.6c1,0.4,1.8,1,2.5,1.7c0.7,0.7,1.2,1.7,1.6,2.7c0.4,1.1,0.6,2.3,0.6,3.7
			c0,0.3,0,0.5-0.1,0.6c-0.1,0.1-0.2,0.2-0.4,0.2h-14.4v0.4c0,1.5,0.2,2.8,0.5,3.9s0.8,2.1,1.5,2.9c0.6,0.8,1.4,1.3,2.3,1.7
			c0.9,0.4,1.9,0.6,3,0.6c1,0,1.9-0.1,2.6-0.3c0.7-0.2,1.3-0.5,1.8-0.7c0.5-0.3,0.9-0.5,1.2-0.7c0.3-0.2,0.5-0.3,0.6-0.3
			c0.2,0,0.3,0.1,0.4,0.2l0.5,0.6c-0.3,0.4-0.7,0.8-1.3,1.1c-0.5,0.3-1.1,0.6-1.8,0.9c-0.6,0.2-1.3,0.4-2.1,0.6
			c-0.7,0.1-1.5,0.2-2.2,0.2c-1.4,0-2.6-0.2-3.7-0.7s-2.1-1.2-2.9-2.1c-0.8-0.9-1.4-2-1.9-3.3c-0.4-1.3-0.7-2.8-0.7-4.5
			c0-1.4,0.2-2.7,0.6-4c0.4-1.2,1-2.2,1.8-3.1c0.8-0.9,1.7-1.6,2.8-2C574.3,186,575.5,185.7,576.9,185.7z M577,187.2
			c-1,0-1.9,0.2-2.8,0.5c-0.8,0.3-1.5,0.8-2.1,1.4c-0.6,0.6-1.1,1.3-1.4,2.2c-0.4,0.8-0.6,1.8-0.7,2.8H583c0-1.1-0.1-2-0.4-2.9
			c-0.3-0.8-0.7-1.6-1.2-2.1c-0.5-0.6-1.2-1-1.9-1.4C578.7,187.3,577.9,187.2,577,187.2z"/>
		<path d="M594.5,186.1h1.5c0.2,0,0.3,0,0.5,0.1s0.2,0.2,0.2,0.3l5,15.7c0.1,0.3,0.2,0.6,0.2,0.9c0.1,0.3,0.1,0.6,0.2,0.8
			c0.1-0.3,0.1-0.6,0.2-0.8c0.1-0.3,0.2-0.6,0.3-0.9l5.3-15.8c0.1-0.3,0.3-0.4,0.6-0.4h0.8c0.3,0,0.5,0.1,0.6,0.4l5.3,15.8
			c0.2,0.6,0.4,1.2,0.5,1.7c0.1-0.3,0.1-0.6,0.2-0.9c0.1-0.3,0.1-0.6,0.2-0.9l5-15.7c0.1-0.3,0.3-0.5,0.7-0.5h1.4l-6.7,19.9H615
			c-0.2,0-0.4-0.1-0.5-0.4l-5.5-16.2c-0.1-0.2-0.1-0.4-0.2-0.6c-0.1-0.2-0.1-0.4-0.1-0.6c0,0.2-0.1,0.4-0.1,0.6
			c0,0.2-0.1,0.4-0.2,0.6l-5.5,16.2c-0.1,0.3-0.2,0.4-0.5,0.4h-1.3L594.5,186.1z"/>
		<path d="M634.2,185.7c1.4,0,2.7,0.2,3.8,0.7c1.1,0.5,2.1,1.2,2.8,2.1c0.8,0.9,1.4,2,1.8,3.2c0.4,1.3,0.6,2.7,0.6,4.2
			s-0.2,3-0.6,4.2c-0.4,1.3-1,2.3-1.8,3.2c-0.8,0.9-1.7,1.6-2.8,2.1c-1.1,0.5-2.4,0.7-3.8,0.7c-1.4,0-2.7-0.2-3.8-0.7
			c-1.1-0.5-2.1-1.2-2.9-2.1c-0.8-0.9-1.4-2-1.8-3.2c-0.4-1.3-0.6-2.7-0.6-4.2s0.2-3,0.6-4.2c0.4-1.3,1-2.3,1.8-3.2
			c0.8-0.9,1.7-1.6,2.9-2.1C631.5,186,632.7,185.7,634.2,185.7z M634.2,204.7c1.2,0,2.2-0.2,3.1-0.6c0.9-0.4,1.6-1,2.2-1.8
			c0.6-0.8,1-1.7,1.3-2.8c0.3-1.1,0.4-2.3,0.4-3.6c0-1.3-0.1-2.5-0.4-3.6c-0.3-1.1-0.7-2-1.3-2.8c-0.6-0.8-1.3-1.4-2.2-1.8
			c-0.9-0.4-1.9-0.6-3.1-0.6c-1.2,0-2.2,0.2-3.1,0.6c-0.9,0.4-1.6,1-2.2,1.8c-0.6,0.8-1,1.7-1.3,2.8c-0.3,1.1-0.5,2.3-0.5,3.6
			c0,1.3,0.1,2.5,0.5,3.6c0.3,1.1,0.7,2,1.3,2.8c0.6,0.8,1.3,1.3,2.2,1.8C632,204.5,633,204.7,634.2,204.7z"/>
		<path d="M648.1,206v-19.9h1c0.2,0,0.4,0,0.5,0.1c0.1,0.1,0.2,0.3,0.2,0.5l0.2,4.2c0.6-1.6,1.5-2.9,2.6-3.8
			c1.1-0.9,2.4-1.4,3.9-1.4c0.6,0,1.2,0.1,1.7,0.2c0.5,0.1,1,0.3,1.4,0.5l-0.3,1.3c0,0.2-0.2,0.3-0.4,0.3c-0.1,0-0.2,0-0.3-0.1
			c-0.1-0.1-0.3-0.1-0.5-0.2c-0.2-0.1-0.5-0.1-0.8-0.2c-0.3-0.1-0.7-0.1-1.1-0.1c-1.5,0-2.7,0.5-3.7,1.4c-1,0.9-1.8,2.3-2.4,4V206
			H648.1z"/>
		<path d="M666.3,176.9V206h-1.9v-29.1H666.3z"/>
		<path d="M687.2,206c-0.3,0-0.5-0.2-0.6-0.5l-0.2-3.1c-0.9,1.2-1.9,2.2-3.1,2.9s-2.5,1.1-4,1.1c-2.4,0-4.3-0.8-5.7-2.5
			c-1.4-1.7-2.1-4.2-2.1-7.6c0-1.5,0.2-2.8,0.6-4.1c0.4-1.3,0.9-2.4,1.7-3.3s1.6-1.7,2.7-2.2s2.3-0.8,3.7-0.8c1.3,0,2.5,0.2,3.5,0.8
			s1.8,1.2,2.6,2.2v-11.8h1.9V206H687.2z M679.9,204.7c1.3,0,2.5-0.3,3.6-1c1.1-0.7,2-1.6,2.9-2.8v-10.5c-0.8-1.1-1.6-1.9-2.6-2.4
			c-0.9-0.5-2-0.7-3.2-0.7s-2.2,0.2-3.1,0.6c-0.9,0.4-1.6,1-2.2,1.8c-0.6,0.8-1,1.7-1.3,2.8c-0.3,1.1-0.5,2.3-0.5,3.6
			c0,3,0.5,5.1,1.6,6.5C676.3,204,677.9,204.7,679.9,204.7z"/>
		<path d="M122.4,236.7c-0.1,0.1-0.1,0.1-0.2,0.2s-0.1,0.1-0.2,0.1c-0.1,0-0.3-0.1-0.5-0.3c-0.2-0.2-0.5-0.4-0.9-0.6
			s-0.9-0.4-1.4-0.6c-0.6-0.2-1.3-0.3-2.1-0.3c-1.1,0-2.2,0.2-3,0.6s-1.6,1-2.2,1.8c-0.6,0.8-1.1,1.7-1.4,2.8
			c-0.3,1.1-0.5,2.3-0.5,3.6c0,1.4,0.2,2.6,0.5,3.7c0.3,1.1,0.8,2,1.4,2.7c0.6,0.7,1.3,1.3,2.2,1.7c0.9,0.4,1.8,0.6,2.8,0.6
			c1,0,1.8-0.1,2.4-0.3c0.6-0.2,1.2-0.5,1.6-0.7s0.8-0.5,1-0.7c0.2-0.2,0.4-0.3,0.6-0.3c0.2,0,0.3,0.1,0.4,0.2l0.5,0.6
			c-0.3,0.4-0.7,0.8-1.2,1.1s-1,0.6-1.6,0.9c-0.6,0.3-1.2,0.5-1.9,0.6c-0.7,0.1-1.4,0.2-2.2,0.2c-1.3,0-2.4-0.2-3.5-0.7
			c-1-0.5-1.9-1.1-2.7-2c-0.8-0.9-1.3-1.9-1.8-3.2c-0.4-1.3-0.6-2.7-0.6-4.3c0-1.5,0.2-2.9,0.6-4.2c0.4-1.3,1-2.3,1.8-3.2
			s1.7-1.6,2.8-2.1c1.1-0.5,2.4-0.8,3.8-0.8c1.3,0,2.4,0.2,3.5,0.6c1,0.4,1.9,1,2.6,1.7L122.4,236.7z"/>
		<path d="M140,254c-0.4,0-0.6-0.2-0.7-0.6l-0.3-2.5c-0.5,0.5-1.1,1-1.6,1.4c-0.5,0.4-1.1,0.8-1.7,1.1c-0.6,0.3-1.2,0.5-1.9,0.7
			c-0.7,0.2-1.4,0.2-2.2,0.2c-0.7,0-1.3-0.1-2-0.3s-1.2-0.5-1.7-0.9c-0.5-0.4-0.9-0.9-1.2-1.6c-0.3-0.6-0.4-1.4-0.4-2.3
			c0-0.8,0.2-1.6,0.7-2.3c0.5-0.7,1.2-1.3,2.2-1.9c1-0.5,2.3-1,3.9-1.3c1.6-0.3,3.5-0.5,5.8-0.6V241c0-1.8-0.4-3.3-1.2-4.2
			s-2-1.5-3.5-1.5c-1,0-1.8,0.1-2.5,0.4s-1.2,0.6-1.7,0.9c-0.5,0.3-0.8,0.6-1.1,0.9c-0.3,0.3-0.5,0.4-0.7,0.4
			c-0.3,0-0.5-0.1-0.6-0.4l-0.3-0.6c1-1,2.1-1.8,3.3-2.4c1.1-0.5,2.4-0.8,3.9-0.8c1.1,0,2,0.2,2.8,0.5c0.8,0.3,1.5,0.8,2,1.5
			s0.9,1.4,1.2,2.3c0.3,0.9,0.4,1.9,0.4,3v13H140z M132,252.9c0.8,0,1.5-0.1,2.1-0.2c0.6-0.2,1.2-0.4,1.8-0.7
			c0.6-0.3,1.1-0.7,1.5-1.1c0.5-0.4,1-0.9,1.4-1.3v-5.2c-1.9,0.1-3.5,0.2-4.9,0.4c-1.4,0.2-2.5,0.5-3.4,0.9c-0.9,0.4-1.5,0.9-2,1.4
			c-0.4,0.6-0.6,1.2-0.6,1.9c0,0.7,0.1,1.2,0.3,1.7c0.2,0.5,0.5,0.9,0.9,1.2c0.4,0.3,0.8,0.5,1.3,0.7
			C131,252.8,131.5,252.9,132,252.9z"/>
		<path d="M146.6,254v-19.9h1c0.3,0,0.5,0.2,0.6,0.5l0.2,3c0.9-1.1,2-2.1,3.2-2.8c1.2-0.7,2.5-1.1,4-1.1c1.1,0,2.1,0.2,2.9,0.5
			c0.8,0.3,1.5,0.8,2.1,1.5c0.5,0.7,1,1.4,1.2,2.4c0.3,0.9,0.4,2,0.4,3.1V254h-1.9v-12.7c0-1.9-0.4-3.3-1.3-4.4
			c-0.9-1.1-2.2-1.6-3.9-1.6c-1.3,0-2.5,0.3-3.6,1c-1.1,0.7-2.1,1.6-3,2.8V254H146.6z"/>
		<path d="M181.9,227.5c0,0.5-0.1,1-0.3,1.4c-0.2,0.4-0.5,0.8-0.8,1.1c-0.3,0.3-0.8,0.6-1.2,0.8s-0.9,0.3-1.5,0.3
			c-0.5,0-1-0.1-1.4-0.3c-0.4-0.2-0.8-0.5-1.2-0.8c-0.3-0.3-0.6-0.7-0.8-1.1c-0.2-0.4-0.3-0.9-0.3-1.4c0-0.5,0.1-1,0.3-1.4
			c0.2-0.4,0.5-0.8,0.8-1.2c0.3-0.3,0.7-0.6,1.2-0.8c0.4-0.2,0.9-0.3,1.4-0.3c0.5,0,1,0.1,1.5,0.3c0.5,0.2,0.9,0.4,1.2,0.8
			c0.3,0.3,0.6,0.7,0.8,1.2C181.8,226.6,181.9,227,181.9,227.5z M181.2,233.2V254H175v-20.7H181.2z"/>
		<path d="M186,254v-20.7h3.8c0.4,0,0.7,0.1,1,0.3c0.3,0.2,0.4,0.4,0.5,0.8l0.4,1.2c0.4-0.4,0.8-0.7,1.2-1s0.9-0.6,1.4-0.8
			c0.5-0.2,1-0.4,1.6-0.5c0.6-0.1,1.2-0.2,1.9-0.2c1.1,0,2.1,0.2,3,0.6c0.9,0.4,1.6,0.9,2.2,1.6c0.6,0.7,1.1,1.5,1.4,2.5
			c0.3,1,0.5,2,0.5,3.1V254h-6.2v-13.2c0-1-0.2-1.8-0.7-2.4s-1.2-0.9-2.1-0.9c-0.7,0-1.3,0.1-1.9,0.4c-0.6,0.3-1.2,0.7-1.7,1.2V254
			H186z"/>
		<path d="M224,238.1c-0.2,0.2-0.4,0.4-0.5,0.5s-0.4,0.2-0.7,0.2c-0.3,0-0.6-0.1-0.8-0.2c-0.2-0.1-0.5-0.3-0.8-0.5s-0.7-0.3-1.1-0.5
			c-0.4-0.1-0.9-0.2-1.5-0.2c-0.8,0-1.4,0.1-2,0.4c-0.6,0.3-1,0.7-1.4,1.2s-0.6,1.2-0.8,1.9c-0.2,0.8-0.3,1.6-0.3,2.6
			c0,2,0.4,3.5,1.1,4.6s1.8,1.6,3.2,1.6c0.7,0,1.3-0.1,1.7-0.3c0.4-0.2,0.8-0.4,1.1-0.6c0.3-0.2,0.6-0.4,0.8-0.6
			c0.2-0.2,0.6-0.3,0.9-0.3c0.5,0,0.9,0.2,1.1,0.5l1.8,2.2c-0.6,0.7-1.3,1.3-2,1.8c-0.7,0.5-1.4,0.8-2.2,1.1
			c-0.7,0.3-1.5,0.4-2.2,0.5c-0.7,0.1-1.5,0.1-2.2,0.1c-1.3,0-2.5-0.2-3.6-0.7c-1.2-0.5-2.2-1.2-3-2.1c-0.9-0.9-1.6-2-2.1-3.4
			c-0.5-1.3-0.8-2.9-0.8-4.6c0-1.5,0.2-2.9,0.7-4.2c0.4-1.3,1.1-2.4,2-3.4c0.9-1,2-1.7,3.2-2.2c1.3-0.5,2.8-0.8,4.5-0.8
			c1.6,0,3.1,0.3,4.3,0.8c1.2,0.5,2.3,1.3,3.3,2.3L224,238.1z"/>
		<path d="M228.4,254v-20.7h3.7c0.3,0,0.6,0,0.8,0.1c0.2,0.1,0.4,0.1,0.5,0.2c0.1,0.1,0.2,0.3,0.3,0.5c0.1,0.2,0.1,0.4,0.2,0.7
			l0.3,1.9c0.8-1.2,1.6-2.1,2.6-2.8c0.9-0.7,2-1,3.1-1c0.9,0,1.7,0.2,2.3,0.7l-0.8,4.6c-0.1,0.3-0.2,0.5-0.3,0.6s-0.4,0.2-0.6,0.2
			c-0.2,0-0.5,0-0.8-0.1c-0.3-0.1-0.7-0.1-1.2-0.1c-1.6,0-2.9,0.9-3.8,2.6V254H228.4z"/>
		<path d="M253.6,232.9c1.4,0,2.6,0.2,3.8,0.6c1.1,0.4,2.1,1,2.9,1.9c0.8,0.8,1.5,1.8,1.9,3c0.5,1.2,0.7,2.5,0.7,4
			c0,0.5,0,0.8-0.1,1.1c0,0.3-0.1,0.5-0.2,0.7c-0.1,0.2-0.2,0.3-0.4,0.4c-0.2,0.1-0.4,0.1-0.7,0.1h-12c0.2,1.7,0.7,3,1.6,3.8
			c0.9,0.8,2,1.2,3.3,1.2c0.7,0,1.3-0.1,1.9-0.3c0.5-0.2,1-0.4,1.4-0.6c0.4-0.2,0.8-0.4,1.1-0.6c0.3-0.2,0.7-0.3,1.1-0.3
			c0.5,0,0.9,0.2,1.1,0.5l1.8,2.2c-0.6,0.7-1.3,1.3-2.1,1.8c-0.7,0.5-1.5,0.8-2.3,1.1c-0.8,0.3-1.6,0.4-2.3,0.5
			c-0.8,0.1-1.5,0.1-2.2,0.1c-1.5,0-2.8-0.2-4.1-0.7c-1.3-0.5-2.4-1.2-3.3-2.1c-1-0.9-1.7-2.1-2.3-3.5c-0.6-1.4-0.8-3-0.8-4.8
			c0-1.4,0.2-2.7,0.7-3.9c0.5-1.2,1.2-2.3,2-3.3c0.9-0.9,2-1.7,3.2-2.2C250.6,233.2,252,232.9,253.6,232.9z M253.7,237.2
			c-1.2,0-2.1,0.3-2.8,1c-0.7,0.7-1.1,1.6-1.3,2.9h7.7c0-0.5-0.1-1-0.2-1.4c-0.1-0.5-0.3-0.9-0.6-1.2s-0.7-0.7-1.1-0.9
			C254.9,237.3,254.4,237.2,253.7,237.2z"/>
		<path d="M280.6,254c-0.6,0-1-0.1-1.3-0.2c-0.3-0.2-0.6-0.5-0.8-1l-0.4-1.1c-0.5,0.4-1,0.8-1.5,1.2c-0.5,0.3-1,0.6-1.5,0.9
			c-0.5,0.2-1.1,0.4-1.6,0.5c-0.6,0.1-1.2,0.2-1.9,0.2c-0.9,0-1.8-0.1-2.6-0.4c-0.8-0.2-1.4-0.6-2-1.1c-0.5-0.5-1-1.1-1.2-1.8
			c-0.3-0.7-0.4-1.5-0.4-2.5c0-0.7,0.2-1.5,0.6-2.3c0.4-0.8,1-1.5,1.9-2.1c0.9-0.6,2.2-1.2,3.7-1.6s3.5-0.6,5.9-0.6V241
			c0-1.2-0.2-2.1-0.8-2.7s-1.2-0.8-2.1-0.8c-0.7,0-1.3,0.1-1.8,0.2c-0.5,0.2-0.9,0.3-1.2,0.5c-0.4,0.2-0.7,0.4-1.1,0.5
			s-0.8,0.2-1.2,0.2c-0.4,0-0.8-0.1-1.1-0.3c-0.3-0.2-0.5-0.5-0.7-0.8l-1.1-1.9c1.3-1.1,2.6-1.9,4.2-2.5s3.2-0.8,4.9-0.8
			c1.3,0,2.4,0.2,3.4,0.6c1,0.4,1.9,1,2.6,1.7c0.7,0.7,1.2,1.6,1.6,2.6c0.4,1,0.6,2.1,0.6,3.3v13H280.6z M273.5,250.2
			c0.8,0,1.5-0.1,2.1-0.4c0.6-0.3,1.2-0.7,1.8-1.4v-2.8c-1.2,0-2.3,0.1-3.1,0.2s-1.4,0.4-1.9,0.6c-0.5,0.2-0.8,0.5-1,0.8
			c-0.2,0.3-0.3,0.6-0.3,1c0,0.7,0.2,1.2,0.6,1.5C272.2,250,272.8,250.2,273.5,250.2z"/>
		<path d="M300.4,237.8c-0.2,0.3-0.3,0.4-0.5,0.5c-0.2,0.1-0.4,0.2-0.7,0.2c-0.3,0-0.6-0.1-0.9-0.2c-0.3-0.1-0.6-0.3-1-0.4
			c-0.3-0.1-0.7-0.3-1.1-0.4c-0.4-0.1-0.9-0.2-1.5-0.2c-0.8,0-1.4,0.2-1.8,0.5s-0.6,0.7-0.6,1.2c0,0.4,0.1,0.7,0.4,1
			c0.3,0.3,0.6,0.5,1.1,0.7c0.5,0.2,1,0.4,1.5,0.6s1.2,0.4,1.8,0.6c0.6,0.2,1.2,0.5,1.8,0.8c0.6,0.3,1.1,0.6,1.5,1.1
			c0.5,0.4,0.8,0.9,1.1,1.5c0.3,0.6,0.4,1.3,0.4,2.2c0,1-0.2,2-0.6,2.8c-0.4,0.9-0.9,1.6-1.7,2.2c-0.7,0.6-1.7,1.1-2.7,1.5
			c-1.1,0.3-2.3,0.5-3.8,0.5c-0.7,0-1.4-0.1-2.1-0.2c-0.7-0.1-1.4-0.3-2-0.5s-1.3-0.5-1.8-0.8c-0.6-0.3-1-0.6-1.4-1l1.4-2.3
			c0.2-0.3,0.4-0.5,0.6-0.6s0.6-0.2,0.9-0.2c0.4,0,0.7,0.1,1,0.2c0.3,0.2,0.6,0.3,0.9,0.5c0.3,0.2,0.7,0.4,1.2,0.5
			c0.4,0.2,1,0.2,1.7,0.2c0.5,0,0.9-0.1,1.2-0.1c0.3-0.1,0.6-0.2,0.8-0.4c0.2-0.2,0.3-0.4,0.4-0.6c0.1-0.2,0.1-0.4,0.1-0.7
			c0-0.4-0.1-0.8-0.4-1c-0.3-0.3-0.6-0.5-1.1-0.7c-0.5-0.2-1-0.4-1.5-0.5c-0.6-0.2-1.2-0.4-1.8-0.6s-1.2-0.5-1.8-0.8
			s-1.1-0.7-1.5-1.1c-0.5-0.5-0.8-1-1.1-1.7c-0.3-0.7-0.4-1.5-0.4-2.4c0-0.9,0.2-1.7,0.5-2.5c0.3-0.8,0.9-1.5,1.5-2.1
			c0.7-0.6,1.5-1.1,2.6-1.4c1-0.4,2.2-0.5,3.6-0.5c0.7,0,1.5,0.1,2.2,0.2c0.7,0.1,1.4,0.3,2,0.6c0.6,0.2,1.2,0.5,1.7,0.8
			c0.5,0.3,1,0.7,1.3,1.1L300.4,237.8z"/>
		<path d="M314,232.9c1.4,0,2.6,0.2,3.8,0.6c1.1,0.4,2.1,1,2.9,1.9c0.8,0.8,1.5,1.8,1.9,3c0.5,1.2,0.7,2.5,0.7,4
			c0,0.5,0,0.8-0.1,1.1c0,0.3-0.1,0.5-0.2,0.7c-0.1,0.2-0.2,0.3-0.4,0.4c-0.2,0.1-0.4,0.1-0.7,0.1h-12c0.2,1.7,0.7,3,1.6,3.8
			c0.9,0.8,2,1.2,3.3,1.2c0.7,0,1.3-0.1,1.9-0.3c0.5-0.2,1-0.4,1.4-0.6c0.4-0.2,0.8-0.4,1.1-0.6c0.3-0.2,0.7-0.3,1.1-0.3
			c0.5,0,0.9,0.2,1.1,0.5l1.8,2.2c-0.6,0.7-1.3,1.3-2.1,1.8c-0.7,0.5-1.5,0.8-2.3,1.1c-0.8,0.3-1.6,0.4-2.3,0.5
			c-0.8,0.1-1.5,0.1-2.2,0.1c-1.5,0-2.8-0.2-4.1-0.7c-1.3-0.5-2.4-1.2-3.3-2.1c-1-0.9-1.7-2.1-2.3-3.5c-0.6-1.4-0.8-3-0.8-4.8
			c0-1.4,0.2-2.7,0.7-3.9c0.5-1.2,1.2-2.3,2-3.3c0.9-0.9,2-1.7,3.2-2.2C311,233.2,312.4,232.9,314,232.9z M314.2,237.2
			c-1.2,0-2.1,0.3-2.8,1c-0.7,0.7-1.1,1.6-1.3,2.9h7.7c0-0.5-0.1-1-0.2-1.4c-0.1-0.5-0.3-0.9-0.6-1.2s-0.7-0.7-1.1-0.9
			C315.4,237.3,314.8,237.2,314.2,237.2z"/>
		<path d="M340.6,254.3c-1.3,0-2.4-0.4-3.1-1.1c-0.7-0.7-1.1-1.9-1.1-3.5v-13.6h-2.9c-0.1,0-0.3,0-0.4-0.1c-0.1-0.1-0.1-0.2-0.1-0.3
			v-0.7l3.4-0.2l0.5-7.1c0-0.1,0.1-0.2,0.1-0.3c0.1-0.1,0.2-0.1,0.3-0.1h0.9v7.6h6.3v1.4h-6.3v13.5c0,0.5,0.1,1,0.2,1.4
			c0.1,0.4,0.3,0.7,0.6,1c0.2,0.3,0.5,0.4,0.9,0.6c0.3,0.1,0.7,0.2,1.1,0.2c0.5,0,0.9-0.1,1.2-0.2c0.3-0.1,0.6-0.3,0.9-0.5
			c0.3-0.2,0.5-0.3,0.6-0.5c0.2-0.1,0.3-0.2,0.4-0.2c0.1,0,0.2,0.1,0.3,0.2l0.5,0.8c-0.5,0.6-1.1,1-1.9,1.4
			C342.2,254.1,341.4,254.3,340.6,254.3z"/>
		<path d="M349.3,254v-29.1h1.9v12.6c0.9-1.1,2-2,3.1-2.7s2.5-1,4-1c1.1,0,2.1,0.2,2.9,0.5c0.8,0.3,1.5,0.8,2.1,1.5
			c0.5,0.7,1,1.4,1.2,2.4c0.3,0.9,0.4,2,0.4,3.1V254H363v-12.7c0-1.9-0.4-3.3-1.3-4.4c-0.9-1.1-2.2-1.6-3.9-1.6
			c-1.3,0-2.5,0.3-3.6,1c-1.1,0.7-2.1,1.6-3,2.8V254H349.3z"/>
		<path d="M378.2,233.7c1.1,0,2.2,0.2,3.1,0.6c1,0.4,1.8,1,2.5,1.7c0.7,0.7,1.2,1.7,1.6,2.7c0.4,1.1,0.6,2.3,0.6,3.7
			c0,0.3,0,0.5-0.1,0.6c-0.1,0.1-0.2,0.2-0.4,0.2h-14.4v0.4c0,1.5,0.2,2.8,0.5,3.9c0.3,1.1,0.8,2.1,1.5,2.9c0.6,0.8,1.4,1.3,2.3,1.7
			s1.9,0.6,3,0.6c1,0,1.9-0.1,2.6-0.3c0.7-0.2,1.4-0.5,1.9-0.7c0.5-0.3,0.9-0.5,1.2-0.7c0.3-0.2,0.5-0.3,0.6-0.3
			c0.2,0,0.3,0.1,0.4,0.2l0.5,0.6c-0.3,0.4-0.7,0.8-1.3,1.1c-0.5,0.3-1.1,0.6-1.8,0.9c-0.6,0.2-1.3,0.4-2.1,0.6
			c-0.7,0.1-1.5,0.2-2.2,0.2c-1.4,0-2.6-0.2-3.7-0.7c-1.1-0.5-2.1-1.2-2.9-2.1c-0.8-0.9-1.4-2-1.9-3.3c-0.4-1.3-0.7-2.8-0.7-4.5
			c0-1.4,0.2-2.7,0.6-4c0.4-1.2,1-2.2,1.8-3.1c0.8-0.9,1.7-1.6,2.8-2C375.6,234,376.8,233.7,378.2,233.7z M378.3,235.2
			c-1,0-1.9,0.2-2.8,0.5c-0.8,0.3-1.5,0.8-2.1,1.4c-0.6,0.6-1.1,1.3-1.4,2.2c-0.4,0.8-0.6,1.8-0.7,2.8h13.1c0-1.1-0.1-2-0.4-2.9
			c-0.3-0.8-0.7-1.6-1.2-2.1c-0.5-0.6-1.2-1-1.9-1.4C380,235.3,379.2,235.2,378.3,235.2z"/>
		<path d="M394.3,227.2c0,0.2,0,0.5-0.1,0.7s-0.2,0.4-0.4,0.5s-0.3,0.3-0.6,0.4c-0.2,0.1-0.4,0.1-0.7,0.1c-0.2,0-0.5,0-0.7-0.1
			c-0.2-0.1-0.4-0.2-0.6-0.4s-0.3-0.3-0.4-0.5c-0.1-0.2-0.1-0.4-0.1-0.7c0-0.2,0-0.5,0.1-0.7c0.1-0.2,0.2-0.4,0.4-0.6
			s0.3-0.3,0.6-0.4c0.2-0.1,0.4-0.1,0.7-0.1c0.2,0,0.5,0,0.7,0.1s0.4,0.2,0.6,0.4s0.3,0.4,0.4,0.6
			C394.3,226.7,394.3,227,394.3,227.2z M393.5,234.1V254h-1.9v-19.9H393.5z"/>
		<path d="M400.4,254v-19.9h1c0.2,0,0.4,0,0.5,0.1c0.1,0.1,0.2,0.3,0.2,0.5l0.2,4.2c0.6-1.6,1.5-2.9,2.6-3.8
			c1.1-0.9,2.4-1.4,3.9-1.4c0.6,0,1.2,0.1,1.7,0.2c0.5,0.1,1,0.3,1.4,0.5l-0.3,1.3c0,0.2-0.2,0.3-0.4,0.3c-0.1,0-0.2,0-0.3-0.1
			c-0.1-0.1-0.3-0.1-0.6-0.2c-0.2-0.1-0.5-0.1-0.8-0.2s-0.7-0.1-1.1-0.1c-1.5,0-2.7,0.5-3.7,1.4c-1,0.9-1.8,2.3-2.4,4V254H400.4z"/>
		<path d="M435.5,237.8c-0.2,0.3-0.3,0.4-0.5,0.5c-0.2,0.1-0.4,0.2-0.7,0.2c-0.3,0-0.6-0.1-0.9-0.2c-0.3-0.1-0.6-0.3-1-0.4
			c-0.3-0.1-0.7-0.3-1.1-0.4c-0.4-0.1-0.9-0.2-1.5-0.2c-0.8,0-1.4,0.2-1.8,0.5s-0.6,0.7-0.6,1.2c0,0.4,0.1,0.7,0.4,1
			c0.3,0.3,0.6,0.5,1.1,0.7c0.5,0.2,1,0.4,1.5,0.6s1.2,0.4,1.8,0.6c0.6,0.2,1.2,0.5,1.8,0.8c0.6,0.3,1.1,0.6,1.5,1.1
			c0.5,0.4,0.8,0.9,1.1,1.5c0.3,0.6,0.4,1.3,0.4,2.2c0,1-0.2,2-0.6,2.8s-0.9,1.6-1.7,2.2c-0.7,0.6-1.7,1.1-2.7,1.5
			c-1.1,0.3-2.3,0.5-3.8,0.5c-0.7,0-1.4-0.1-2.1-0.2c-0.7-0.1-1.4-0.3-2-0.5s-1.3-0.5-1.8-0.8c-0.6-0.3-1-0.6-1.4-1l1.4-2.3
			c0.2-0.3,0.4-0.5,0.6-0.6s0.6-0.2,0.9-0.2c0.4,0,0.7,0.1,1,0.2c0.3,0.2,0.6,0.3,0.9,0.5c0.3,0.2,0.7,0.4,1.2,0.5
			c0.4,0.2,1,0.2,1.7,0.2c0.5,0,0.9-0.1,1.2-0.1c0.3-0.1,0.6-0.2,0.8-0.4c0.2-0.2,0.3-0.4,0.4-0.6c0.1-0.2,0.1-0.4,0.1-0.7
			c0-0.4-0.1-0.8-0.4-1c-0.3-0.3-0.6-0.5-1.1-0.7c-0.5-0.2-1-0.4-1.5-0.5c-0.6-0.2-1.2-0.4-1.8-0.6c-0.6-0.2-1.2-0.5-1.8-0.8
			s-1.1-0.7-1.5-1.1c-0.5-0.5-0.8-1-1.1-1.7c-0.3-0.7-0.4-1.5-0.4-2.4c0-0.9,0.2-1.7,0.5-2.5c0.3-0.8,0.9-1.5,1.5-2.1
			s1.5-1.1,2.6-1.4c1-0.4,2.2-0.5,3.6-0.5c0.7,0,1.5,0.1,2.2,0.2s1.4,0.3,2,0.6c0.6,0.2,1.2,0.5,1.7,0.8c0.5,0.3,1,0.7,1.3,1.1
			L435.5,237.8z"/>
		<path d="M449.1,232.9c1.4,0,2.6,0.2,3.8,0.6c1.1,0.4,2.1,1,2.9,1.9c0.8,0.8,1.5,1.8,1.9,3c0.5,1.2,0.7,2.5,0.7,4
			c0,0.5,0,0.8-0.1,1.1c0,0.3-0.1,0.5-0.2,0.7c-0.1,0.2-0.2,0.3-0.4,0.4c-0.2,0.1-0.4,0.1-0.7,0.1h-12c0.2,1.7,0.7,3,1.6,3.8
			c0.9,0.8,2,1.2,3.3,1.2c0.7,0,1.3-0.1,1.9-0.3c0.5-0.2,1-0.4,1.4-0.6c0.4-0.2,0.8-0.4,1.1-0.6c0.3-0.2,0.7-0.3,1.1-0.3
			c0.5,0,0.9,0.2,1.1,0.5l1.8,2.2c-0.6,0.7-1.3,1.3-2.1,1.8s-1.5,0.8-2.3,1.1c-0.8,0.3-1.6,0.4-2.3,0.5s-1.5,0.1-2.2,0.1
			c-1.5,0-2.8-0.2-4.1-0.7c-1.3-0.5-2.4-1.2-3.3-2.1c-1-0.9-1.7-2.1-2.3-3.5s-0.8-3-0.8-4.8c0-1.4,0.2-2.7,0.7-3.9
			c0.5-1.2,1.2-2.3,2-3.3c0.9-0.9,2-1.7,3.2-2.2C446.1,233.2,447.5,232.9,449.1,232.9z M449.2,237.2c-1.2,0-2.1,0.3-2.8,1
			s-1.1,1.6-1.3,2.9h7.7c0-0.5-0.1-1-0.2-1.4c-0.1-0.5-0.3-0.9-0.6-1.2c-0.3-0.4-0.7-0.7-1.1-0.9
			C450.5,237.3,449.9,237.2,449.2,237.2z"/>
		<path d="M468.2,224V254H462V224H468.2z"/>
		<path d="M474,254v-16.5l-1.4-0.3c-0.5-0.1-0.8-0.3-1.1-0.5c-0.3-0.2-0.4-0.6-0.4-1v-2.4h2.9v-1.2c0-1.2,0.2-2.3,0.6-3.2
			s0.9-1.8,1.6-2.5c0.7-0.7,1.6-1.2,2.6-1.6c1-0.4,2.2-0.6,3.5-0.6c0.5,0,1,0,1.4,0.1s0.9,0.2,1.4,0.3l-0.1,3c0,0.2-0.1,0.4-0.2,0.5
			c-0.1,0.1-0.2,0.3-0.4,0.3c-0.1,0.1-0.3,0.2-0.5,0.2c-0.2,0-0.4,0.1-0.5,0.1c-0.5,0-1,0.1-1.5,0.2c-0.4,0.1-0.8,0.3-1.1,0.6
			c-0.3,0.3-0.5,0.6-0.7,1.1c-0.1,0.4-0.2,1-0.2,1.7v1h4.9v4.2h-4.7V254H474z"/>
		<path d="M487,239.3h10.8v5H487V239.3z"/>
		<path d="M514.7,237.8c-0.2,0.3-0.3,0.4-0.5,0.5c-0.2,0.1-0.4,0.2-0.7,0.2c-0.3,0-0.6-0.1-0.9-0.2c-0.3-0.1-0.6-0.3-1-0.4
			c-0.3-0.1-0.7-0.3-1.1-0.4c-0.4-0.1-0.9-0.2-1.5-0.2c-0.8,0-1.4,0.2-1.8,0.5s-0.6,0.7-0.6,1.2c0,0.4,0.1,0.7,0.4,1
			c0.3,0.3,0.6,0.5,1.1,0.7c0.5,0.2,1,0.4,1.5,0.6s1.2,0.4,1.8,0.6c0.6,0.2,1.2,0.5,1.8,0.8c0.6,0.3,1.1,0.6,1.5,1.1
			c0.5,0.4,0.8,0.9,1.1,1.5c0.3,0.6,0.4,1.3,0.4,2.2c0,1-0.2,2-0.6,2.8s-0.9,1.6-1.7,2.2c-0.7,0.6-1.7,1.1-2.7,1.5
			c-1.1,0.3-2.3,0.5-3.8,0.5c-0.7,0-1.4-0.1-2.1-0.2c-0.7-0.1-1.4-0.3-2-0.5s-1.3-0.5-1.8-0.8c-0.6-0.3-1-0.6-1.4-1l1.4-2.3
			c0.2-0.3,0.4-0.5,0.6-0.6s0.6-0.2,0.9-0.2c0.4,0,0.7,0.1,1,0.2c0.3,0.2,0.6,0.3,0.9,0.5c0.3,0.2,0.7,0.4,1.2,0.5
			c0.4,0.2,1,0.2,1.7,0.2c0.5,0,0.9-0.1,1.2-0.1c0.3-0.1,0.6-0.2,0.8-0.4s0.3-0.4,0.4-0.6c0.1-0.2,0.1-0.4,0.1-0.7
			c0-0.4-0.1-0.8-0.4-1c-0.3-0.3-0.6-0.5-1.1-0.7c-0.5-0.2-1-0.4-1.5-0.5c-0.6-0.2-1.2-0.4-1.8-0.6s-1.2-0.5-1.8-0.8
			c-0.6-0.3-1.1-0.7-1.6-1.1s-0.8-1-1.1-1.7c-0.3-0.7-0.4-1.5-0.4-2.4c0-0.9,0.2-1.7,0.5-2.5c0.3-0.8,0.9-1.5,1.5-2.1
			s1.5-1.1,2.6-1.4c1-0.4,2.2-0.5,3.6-0.5c0.7,0,1.5,0.1,2.2,0.2s1.4,0.3,2,0.6c0.6,0.2,1.2,0.5,1.7,0.8c0.5,0.3,1,0.7,1.3,1.1
			L514.7,237.8z"/>
		<path d="M525.3,233.2v13.2c0,1,0.2,1.8,0.7,2.4c0.5,0.6,1.2,0.8,2.1,0.8c0.7,0,1.3-0.1,1.9-0.4c0.6-0.3,1.2-0.7,1.7-1.2v-14.8h6.2
			V254H534c-0.8,0-1.3-0.3-1.5-1l-0.4-1.2c-0.4,0.4-0.8,0.7-1.2,1.1c-0.4,0.3-0.9,0.6-1.4,0.8c-0.5,0.2-1,0.4-1.6,0.5
			c-0.6,0.1-1.2,0.2-1.8,0.2c-1.1,0-2.1-0.2-3-0.6c-0.9-0.4-1.6-0.9-2.2-1.6c-0.6-0.7-1.1-1.5-1.4-2.5s-0.5-2-0.5-3.2v-13.2H525.3z"
			/>
		<path d="M543.4,254v-16.5l-1.4-0.3c-0.5-0.1-0.8-0.3-1.1-0.5c-0.3-0.2-0.4-0.6-0.4-1v-2.4h2.9v-1.2c0-1.2,0.2-2.3,0.6-3.2
			s0.9-1.8,1.6-2.5c0.7-0.7,1.6-1.2,2.6-1.6c1-0.4,2.2-0.6,3.5-0.6c0.5,0,1,0,1.4,0.1s0.9,0.2,1.4,0.3l-0.1,3c0,0.2-0.1,0.4-0.2,0.5
			c-0.1,0.1-0.2,0.3-0.4,0.3c-0.1,0.1-0.3,0.2-0.5,0.2c-0.2,0-0.4,0.1-0.5,0.1c-0.5,0-1,0.1-1.5,0.2c-0.4,0.1-0.8,0.3-1.1,0.6
			c-0.3,0.3-0.5,0.6-0.7,1.1c-0.1,0.4-0.2,1-0.2,1.7v1h4.9v4.2h-4.7V254H543.4z"/>
		<path d="M557.7,254v-16.5l-1.4-0.3c-0.5-0.1-0.8-0.3-1.1-0.5c-0.3-0.2-0.4-0.6-0.4-1v-2.4h2.9V233c0-1.3,0.2-2.4,0.6-3.5
			s1.1-2.1,2-2.9c0.9-0.8,2.1-1.5,3.5-1.9c1.4-0.5,3.1-0.7,5-0.7c0.6,0,1.2,0,1.9,0.1c0.6,0.1,1.2,0.1,1.7,0.3l-0.2,3.1
			c0,0.3-0.2,0.6-0.5,0.7c-0.3,0.1-0.6,0.2-1,0.2c-1.4,0-2.5,0.1-3.4,0.3c-0.9,0.2-1.6,0.5-2.1,1c-0.5,0.4-0.9,0.9-1.1,1.6
			c-0.2,0.6-0.3,1.3-0.3,2.2v0.1h13.2V254h-6.2v-16.5h-6.8V254H557.7z"/>
		<path d="M596.8,238.1c-0.2,0.2-0.4,0.4-0.5,0.5c-0.2,0.1-0.4,0.2-0.7,0.2c-0.3,0-0.6-0.1-0.8-0.2c-0.2-0.1-0.5-0.3-0.8-0.5
			s-0.7-0.3-1.1-0.5c-0.4-0.1-0.9-0.2-1.5-0.2c-0.8,0-1.4,0.1-2,0.4c-0.6,0.3-1,0.7-1.4,1.2s-0.6,1.2-0.8,1.9
			c-0.2,0.8-0.3,1.6-0.3,2.6c0,2,0.4,3.5,1.1,4.6s1.8,1.6,3.2,1.6c0.7,0,1.3-0.1,1.7-0.3c0.4-0.2,0.8-0.4,1.1-0.6
			c0.3-0.2,0.6-0.4,0.8-0.6c0.2-0.2,0.6-0.3,0.9-0.3c0.5,0,0.9,0.2,1.1,0.5l1.8,2.2c-0.6,0.7-1.3,1.3-2,1.8
			c-0.7,0.5-1.4,0.8-2.2,1.1c-0.7,0.3-1.5,0.4-2.2,0.5c-0.7,0.1-1.5,0.1-2.2,0.1c-1.3,0-2.5-0.2-3.6-0.7s-2.2-1.2-3-2.1
			c-0.9-0.9-1.6-2-2.1-3.4c-0.5-1.3-0.8-2.9-0.8-4.6c0-1.5,0.2-2.9,0.7-4.2c0.4-1.3,1.1-2.4,2-3.4c0.9-1,2-1.7,3.2-2.2
			c1.3-0.5,2.8-0.8,4.5-0.8c1.6,0,3.1,0.3,4.3,0.8s2.3,1.3,3.3,2.3L596.8,238.1z"/>
		<path d="M608.2,227.5c0,0.5-0.1,1-0.3,1.4s-0.5,0.8-0.8,1.1c-0.3,0.3-0.8,0.6-1.2,0.8s-1,0.3-1.5,0.3c-0.5,0-1-0.1-1.4-0.3
			c-0.4-0.2-0.8-0.5-1.2-0.8c-0.3-0.3-0.6-0.7-0.8-1.1s-0.3-0.9-0.3-1.4c0-0.5,0.1-1,0.3-1.4s0.5-0.8,0.8-1.2
			c0.3-0.3,0.7-0.6,1.2-0.8c0.4-0.2,0.9-0.3,1.4-0.3c0.5,0,1,0.1,1.5,0.3c0.5,0.2,0.9,0.4,1.2,0.8c0.3,0.3,0.6,0.7,0.8,1.2
			S608.2,227,608.2,227.5z M607.5,233.2V254h-6.2v-20.7H607.5z"/>
		<path d="M621.2,232.9c1.4,0,2.6,0.2,3.8,0.6c1.1,0.4,2.1,1,2.9,1.9c0.8,0.8,1.5,1.8,1.9,3c0.5,1.2,0.7,2.5,0.7,4
			c0,0.5,0,0.8-0.1,1.1c0,0.3-0.1,0.5-0.2,0.7c-0.1,0.2-0.2,0.3-0.4,0.4c-0.2,0.1-0.4,0.1-0.7,0.1h-12c0.2,1.7,0.7,3,1.6,3.8
			c0.9,0.8,2,1.2,3.3,1.2c0.7,0,1.3-0.1,1.9-0.3c0.5-0.2,1-0.4,1.4-0.6c0.4-0.2,0.8-0.4,1.1-0.6c0.3-0.2,0.7-0.3,1.1-0.3
			c0.5,0,0.9,0.2,1.1,0.5l1.8,2.2c-0.6,0.7-1.3,1.3-2.1,1.8s-1.5,0.8-2.3,1.1c-0.8,0.3-1.6,0.4-2.3,0.5s-1.5,0.1-2.2,0.1
			c-1.5,0-2.8-0.2-4.1-0.7s-2.4-1.2-3.3-2.1c-1-0.9-1.7-2.1-2.3-3.5c-0.6-1.4-0.8-3-0.8-4.8c0-1.4,0.2-2.7,0.7-3.9
			c0.5-1.2,1.2-2.3,2-3.3c0.9-0.9,2-1.7,3.2-2.2C618.2,233.2,619.6,232.9,621.2,232.9z M621.3,237.2c-1.2,0-2.1,0.3-2.8,1
			c-0.7,0.7-1.1,1.6-1.3,2.9h7.7c0-0.5-0.1-1-0.2-1.4s-0.3-0.9-0.6-1.2c-0.3-0.4-0.7-0.7-1.1-0.9C622.6,237.3,622,237.2,621.3,237.2
			z"/>
		<path d="M633.9,254v-20.7h3.8c0.4,0,0.7,0.1,1,0.3s0.4,0.4,0.5,0.8l0.4,1.2c0.4-0.4,0.8-0.7,1.2-1c0.4-0.3,0.9-0.6,1.4-0.8
			c0.5-0.2,1-0.4,1.6-0.5c0.6-0.1,1.2-0.2,1.9-0.2c1.1,0,2.1,0.2,3,0.6c0.9,0.4,1.6,0.9,2.2,1.6c0.6,0.7,1.1,1.5,1.4,2.5
			c0.3,1,0.5,2,0.5,3.1V254h-6.2v-13.2c0-1-0.2-1.8-0.7-2.4s-1.2-0.9-2.1-0.9c-0.7,0-1.3,0.1-1.9,0.4c-0.6,0.3-1.2,0.7-1.7,1.2V254
			H633.9z"/>
		<path d="M671.9,238.1c-0.2,0.2-0.4,0.4-0.5,0.5c-0.2,0.1-0.4,0.2-0.7,0.2c-0.3,0-0.6-0.1-0.8-0.2c-0.2-0.1-0.5-0.3-0.8-0.5
			s-0.7-0.3-1.1-0.5c-0.4-0.1-0.9-0.2-1.5-0.2c-0.8,0-1.4,0.1-2,0.4c-0.6,0.3-1,0.7-1.4,1.2s-0.6,1.2-0.8,1.9
			c-0.2,0.8-0.3,1.6-0.3,2.6c0,2,0.4,3.5,1.1,4.6s1.8,1.6,3.2,1.6c0.7,0,1.3-0.1,1.7-0.3c0.4-0.2,0.8-0.4,1.1-0.6
			c0.3-0.2,0.6-0.4,0.8-0.6c0.2-0.2,0.6-0.3,0.9-0.3c0.5,0,0.9,0.2,1.1,0.5l1.8,2.2c-0.6,0.7-1.3,1.3-2,1.8
			c-0.7,0.5-1.4,0.8-2.2,1.1c-0.7,0.3-1.5,0.4-2.2,0.5c-0.7,0.1-1.5,0.1-2.2,0.1c-1.3,0-2.5-0.2-3.6-0.7s-2.2-1.2-3-2.1
			c-0.9-0.9-1.6-2-2.1-3.4c-0.5-1.3-0.8-2.9-0.8-4.6c0-1.5,0.2-2.9,0.7-4.2c0.4-1.3,1.1-2.4,2-3.4c0.9-1,2-1.7,3.2-2.2
			c1.3-0.5,2.8-0.8,4.5-0.8c1.6,0,3.1,0.3,4.3,0.8s2.3,1.3,3.3,2.3L671.9,238.1z"/>
		<path d="M684.7,259.3c-0.2,0.4-0.4,0.7-0.7,0.9c-0.3,0.2-0.7,0.3-1.3,0.3h-4.6l4-8.4l-8.3-18.9h5.5c0.5,0,0.9,0.1,1.1,0.3
			s0.5,0.5,0.6,0.8l3.4,8.9c0.3,0.8,0.6,1.7,0.8,2.5c0.1-0.4,0.3-0.8,0.4-1.3c0.2-0.4,0.3-0.8,0.5-1.3l3.1-8.9
			c0.1-0.3,0.3-0.6,0.6-0.8c0.3-0.2,0.6-0.3,1-0.3h5L684.7,259.3z"/>
	</g>
</g>
<g id="Layer_5">
</g>
</svg>
