<?xml version="1.0" encoding="utf-8"?>
<!-- Generator: Adobe Illustrator 18.0.0, SVG Export Plug-In . SVG Version: 6.00 Build 0)  -->
<!DOCTYPE svg PUBLIC "-//W3C//DTD SVG 1.1//EN" "http://www.w3.org/Graphics/SVG/1.1/DTD/svg11.dtd">
<svg version="1.1" xmlns="http://www.w3.org/2000/svg" xmlns:xlink="http://www.w3.org/1999/xlink" x="0px" y="0px"
	 viewBox="0 -48 800 531" enable-background="new 0 -48 800 531" xml:space="preserve">
<g id="_x36_">
	<g>
		<path d="M137.6,181.1c-0.1,0.2-0.3,0.3-0.5,0.3c-0.2,0-0.4-0.1-0.7-0.4c-0.3-0.2-0.6-0.5-1.1-0.8c-0.5-0.3-1.1-0.6-1.8-0.8
			c-0.7-0.3-1.6-0.4-2.6-0.4c-1,0-1.9,0.1-2.7,0.4c-0.8,0.3-1.4,0.7-2,1.2c-0.5,0.5-0.9,1.1-1.2,1.8c-0.3,0.7-0.4,1.4-0.4,2.1
			c0,1,0.2,1.8,0.6,2.4c0.4,0.6,0.9,1.2,1.6,1.6c0.7,0.4,1.4,0.8,2.3,1.1c0.8,0.3,1.7,0.6,2.6,0.9c0.9,0.3,1.8,0.6,2.6,1
			c0.8,0.4,1.6,0.8,2.3,1.3c0.7,0.5,1.2,1.2,1.6,2c0.4,0.8,0.6,1.8,0.6,2.9c0,1.2-0.2,2.3-0.6,3.3c-0.4,1-1,2-1.8,2.7
			c-0.8,0.8-1.7,1.4-2.8,1.8c-1.1,0.4-2.4,0.7-3.8,0.7c-1.9,0-3.5-0.3-4.8-1s-2.5-1.6-3.5-2.7l0.6-0.9c0.2-0.2,0.3-0.3,0.6-0.3
			c0.1,0,0.3,0.1,0.5,0.2c0.2,0.2,0.4,0.4,0.7,0.6c0.3,0.2,0.6,0.5,1,0.8c0.4,0.3,0.8,0.5,1.3,0.8c0.5,0.2,1.1,0.4,1.7,0.6
			c0.6,0.2,1.4,0.2,2.2,0.2c1.1,0,2.1-0.2,3-0.5c0.9-0.3,1.6-0.8,2.2-1.4c0.6-0.6,1.1-1.3,1.4-2.1c0.3-0.8,0.5-1.7,0.5-2.6
			c0-1-0.2-1.8-0.6-2.5c-0.4-0.6-0.9-1.2-1.6-1.6s-1.4-0.8-2.3-1.1c-0.8-0.3-1.7-0.6-2.6-0.9s-1.8-0.6-2.6-0.9
			c-0.8-0.3-1.6-0.8-2.3-1.3c-0.7-0.5-1.2-1.2-1.6-2c-0.4-0.8-0.6-1.8-0.6-3c0-0.9,0.2-1.9,0.5-2.7c0.4-0.9,0.9-1.7,1.6-2.3
			c0.7-0.7,1.6-1.2,2.6-1.6s2.2-0.6,3.5-0.6c1.5,0,2.8,0.2,4,0.7c1.2,0.5,2.2,1.2,3.2,2.1L137.6,181.1z"/>
		<path d="M151.3,185.7c1.4,0,2.7,0.2,3.8,0.7c1.1,0.5,2.1,1.2,2.9,2.1c0.8,0.9,1.4,2,1.8,3.2c0.4,1.3,0.6,2.7,0.6,4.2
			s-0.2,3-0.6,4.2c-0.4,1.3-1,2.3-1.8,3.2c-0.8,0.9-1.7,1.6-2.9,2.1c-1.1,0.5-2.4,0.7-3.8,0.7s-2.7-0.2-3.8-0.7
			c-1.1-0.5-2.1-1.2-2.9-2.1c-0.8-0.9-1.4-2-1.8-3.2c-0.4-1.3-0.6-2.7-0.6-4.2s0.2-3,0.6-4.2c0.4-1.3,1-2.3,1.8-3.2
			c0.8-0.9,1.7-1.6,2.9-2.1C148.6,186,149.8,185.7,151.3,185.7z M151.3,204.7c1.2,0,2.2-0.2,3.1-0.6c0.9-0.4,1.6-1,2.2-1.8
			c0.6-0.8,1-1.7,1.3-2.8c0.3-1.1,0.4-2.3,0.4-3.6c0-1.3-0.1-2.5-0.4-3.6c-0.3-1.1-0.7-2-1.3-2.8c-0.6-0.8-1.3-1.4-2.2-1.8
			c-0.9-0.4-1.9-0.6-3.1-0.6s-2.2,0.2-3.1,0.6c-0.9,0.4-1.6,1-2.2,1.8c-0.6,0.8-1,1.7-1.3,2.8c-0.3,1.1-0.4,2.3-0.4,3.6
			c0,1.3,0.1,2.5,0.4,3.6c0.3,1.1,0.7,2,1.3,2.8c0.6,0.8,1.3,1.3,2.2,1.8C149.1,204.5,150.1,204.7,151.3,204.7z"/>
		<path d="M190.7,176.8v5.2h-12v7.4h10v5.2h-10V206h-6.8v-29.1H190.7z"/>
		<path d="M208.3,206c-0.6,0-1-0.1-1.3-0.2c-0.3-0.2-0.6-0.5-0.8-1l-0.4-1.1c-0.5,0.4-1,0.8-1.5,1.2c-0.5,0.3-1,0.6-1.5,0.9
			c-0.5,0.2-1.1,0.4-1.6,0.5c-0.6,0.1-1.2,0.2-1.9,0.2c-0.9,0-1.8-0.1-2.6-0.4c-0.8-0.2-1.4-0.6-2-1.1c-0.5-0.5-1-1.1-1.2-1.8
			c-0.3-0.7-0.4-1.5-0.4-2.5c0-0.7,0.2-1.5,0.6-2.3c0.4-0.8,1-1.5,1.9-2.1c0.9-0.6,2.2-1.2,3.7-1.6s3.5-0.6,5.9-0.6V193
			c0-1.2-0.2-2.1-0.8-2.7s-1.2-0.8-2.1-0.8c-0.7,0-1.3,0.1-1.8,0.2c-0.5,0.2-0.9,0.3-1.2,0.5c-0.4,0.2-0.7,0.4-1.1,0.5
			s-0.8,0.2-1.2,0.2c-0.4,0-0.8-0.1-1.1-0.3c-0.3-0.2-0.5-0.5-0.7-0.8l-1.1-1.9c1.3-1.1,2.6-1.9,4.2-2.5s3.2-0.8,4.9-0.8
			c1.3,0,2.4,0.2,3.4,0.6c1,0.4,1.9,1,2.6,1.7c0.7,0.7,1.2,1.6,1.6,2.6c0.4,1,0.6,2.1,0.6,3.3v13H208.3z M201.2,202.2
			c0.8,0,1.5-0.1,2.1-0.4c0.6-0.3,1.2-0.7,1.8-1.4v-2.8c-1.2,0-2.3,0.1-3.1,0.2s-1.4,0.4-1.9,0.6c-0.5,0.2-0.8,0.5-1,0.8
			c-0.2,0.3-0.3,0.6-0.3,1c0,0.7,0.2,1.2,0.6,1.5C199.9,202,200.5,202.2,201.2,202.2z"/>
		<path d="M215.4,206V176h6.2v11.4c0.8-0.8,1.6-1.4,2.6-1.8s2.1-0.7,3.5-0.7c1.1,0,2.1,0.2,3,0.7c0.9,0.5,1.7,1.1,2.4,2
			c0.7,0.9,1.2,2,1.6,3.3s0.6,2.8,0.6,4.5c0,1.6-0.2,3-0.7,4.3c-0.4,1.3-1,2.5-1.8,3.4s-1.7,1.7-2.8,2.3c-1.1,0.5-2.3,0.8-3.6,0.8
			c-0.6,0-1.2-0.1-1.6-0.2c-0.5-0.1-0.9-0.3-1.3-0.5c-0.4-0.2-0.8-0.5-1.1-0.8c-0.3-0.3-0.7-0.6-1-1l-0.2,1
			c-0.1,0.4-0.3,0.7-0.5,0.9c-0.2,0.2-0.6,0.2-1,0.2H215.4z M225.5,189.6c-0.5,0-0.9,0-1.2,0.1c-0.4,0.1-0.7,0.2-1,0.4
			c-0.3,0.2-0.6,0.4-0.9,0.6c-0.3,0.2-0.5,0.5-0.8,0.9v8.8c0.5,0.5,1,0.9,1.5,1.1c0.5,0.2,1.1,0.3,1.7,0.3c0.6,0,1.1-0.1,1.6-0.3
			c0.5-0.2,0.9-0.6,1.2-1.1c0.4-0.5,0.6-1.1,0.8-2c0.2-0.8,0.3-1.8,0.3-2.9c0-1.1-0.1-2-0.2-2.8s-0.4-1.4-0.7-1.8
			c-0.3-0.5-0.6-0.8-1-1C226.5,189.7,226,189.6,225.5,189.6z"/>
		<path d="M245.2,200.6H256v5.4h-17.6v-29.1h6.8V200.6z"/>
		<path d="M273.4,206c-0.6,0-1-0.1-1.3-0.2c-0.3-0.2-0.6-0.5-0.8-1l-0.4-1.1c-0.5,0.4-1,0.8-1.5,1.2c-0.5,0.3-1,0.6-1.5,0.9
			c-0.5,0.2-1.1,0.4-1.6,0.5c-0.6,0.1-1.2,0.2-1.9,0.2c-0.9,0-1.8-0.1-2.6-0.4c-0.8-0.2-1.4-0.6-2-1.1c-0.5-0.5-1-1.1-1.2-1.8
			c-0.3-0.7-0.4-1.5-0.4-2.5c0-0.7,0.2-1.5,0.6-2.3c0.4-0.8,1-1.5,1.9-2.1c0.9-0.6,2.2-1.2,3.7-1.6s3.5-0.6,5.9-0.6V193
			c0-1.2-0.2-2.1-0.8-2.7s-1.2-0.8-2.1-0.8c-0.7,0-1.3,0.1-1.8,0.2c-0.5,0.2-0.9,0.3-1.2,0.5c-0.4,0.2-0.7,0.4-1.1,0.5
			s-0.8,0.2-1.2,0.2c-0.4,0-0.8-0.1-1.1-0.3c-0.3-0.2-0.5-0.5-0.7-0.8l-1.1-1.9c1.3-1.1,2.6-1.9,4.2-2.5s3.2-0.8,4.9-0.8
			c1.3,0,2.4,0.2,3.4,0.6c1,0.4,1.9,1,2.6,1.7c0.7,0.7,1.2,1.6,1.6,2.6c0.4,1,0.6,2.1,0.6,3.3v13H273.4z M266.3,202.2
			c0.8,0,1.5-0.1,2.1-0.4c0.6-0.3,1.2-0.7,1.8-1.4v-2.8c-1.2,0-2.3,0.1-3.1,0.2s-1.4,0.4-1.9,0.6c-0.5,0.2-0.8,0.5-1,0.8
			c-0.2,0.3-0.3,0.6-0.3,1c0,0.7,0.2,1.2,0.6,1.5C264.9,202,265.5,202.2,266.3,202.2z"/>
		<path d="M280.5,206V176h6.2v11.4c0.8-0.8,1.6-1.4,2.6-1.8s2.1-0.7,3.5-0.7c1.1,0,2.1,0.2,3,0.7c0.9,0.5,1.7,1.1,2.4,2
			c0.7,0.9,1.2,2,1.6,3.3s0.6,2.8,0.6,4.5c0,1.6-0.2,3-0.7,4.3c-0.4,1.3-1,2.5-1.8,3.4s-1.7,1.7-2.8,2.3c-1.1,0.5-2.3,0.8-3.6,0.8
			c-0.6,0-1.2-0.1-1.6-0.2c-0.5-0.1-0.9-0.3-1.3-0.5c-0.4-0.2-0.8-0.5-1.1-0.8c-0.3-0.3-0.7-0.6-1-1l-0.2,1
			c-0.1,0.4-0.3,0.7-0.5,0.9c-0.2,0.2-0.6,0.2-1,0.2H280.5z M290.6,189.6c-0.5,0-0.9,0-1.2,0.1c-0.4,0.1-0.7,0.2-1,0.4
			c-0.3,0.2-0.6,0.4-0.9,0.6c-0.3,0.2-0.5,0.5-0.8,0.9v8.8c0.5,0.5,1,0.9,1.5,1.1c0.5,0.2,1.1,0.3,1.7,0.3c0.6,0,1.1-0.1,1.6-0.3
			c0.5-0.2,0.9-0.6,1.2-1.1c0.4-0.5,0.6-1.1,0.8-2c0.2-0.8,0.3-1.8,0.3-2.9c0-1.1-0.1-2-0.2-2.8s-0.4-1.4-0.7-1.8
			c-0.3-0.5-0.6-0.8-1-1C291.5,189.7,291.1,189.6,290.6,189.6z"/>
		<path d="M316.2,189.8c-0.2,0.3-0.3,0.4-0.5,0.5c-0.2,0.1-0.4,0.2-0.7,0.2c-0.3,0-0.6-0.1-0.9-0.2c-0.3-0.1-0.6-0.3-1-0.4
			c-0.3-0.1-0.7-0.3-1.1-0.4c-0.4-0.1-0.9-0.2-1.5-0.2c-0.8,0-1.4,0.2-1.8,0.5s-0.6,0.7-0.6,1.2c0,0.4,0.1,0.7,0.4,1
			c0.3,0.3,0.6,0.5,1.1,0.7c0.5,0.2,1,0.4,1.5,0.6s1.2,0.4,1.8,0.6c0.6,0.2,1.2,0.5,1.8,0.8c0.6,0.3,1.1,0.6,1.5,1.1
			c0.5,0.4,0.8,0.9,1.1,1.5c0.3,0.6,0.4,1.3,0.4,2.2c0,1-0.2,2-0.6,2.8c-0.4,0.9-0.9,1.6-1.7,2.2c-0.7,0.6-1.7,1.1-2.7,1.5
			c-1.1,0.3-2.3,0.5-3.8,0.5c-0.7,0-1.4-0.1-2.1-0.2c-0.7-0.1-1.4-0.3-2-0.5s-1.3-0.5-1.8-0.8c-0.6-0.3-1-0.6-1.4-1l1.4-2.3
			c0.2-0.3,0.4-0.5,0.6-0.6s0.6-0.2,0.9-0.2c0.4,0,0.7,0.1,1,0.2c0.3,0.2,0.6,0.3,0.9,0.5c0.3,0.2,0.7,0.4,1.2,0.5
			c0.4,0.2,1,0.2,1.7,0.2c0.5,0,0.9-0.1,1.2-0.1c0.3-0.1,0.6-0.2,0.8-0.4c0.2-0.2,0.3-0.4,0.4-0.6c0.1-0.2,0.1-0.4,0.1-0.7
			c0-0.4-0.1-0.8-0.4-1c-0.3-0.3-0.6-0.5-1.1-0.7c-0.5-0.2-1-0.4-1.5-0.5c-0.6-0.2-1.2-0.4-1.8-0.6s-1.2-0.5-1.8-0.8
			s-1.1-0.7-1.5-1.1c-0.5-0.5-0.8-1-1.1-1.7c-0.3-0.7-0.4-1.5-0.4-2.4c0-0.9,0.2-1.7,0.5-2.5c0.3-0.8,0.9-1.5,1.5-2.1
			c0.7-0.6,1.5-1.1,2.6-1.4c1-0.4,2.2-0.5,3.6-0.5c0.7,0,1.5,0.1,2.2,0.2c0.7,0.1,1.4,0.3,2,0.6c0.6,0.2,1.2,0.5,1.7,0.8
			c0.5,0.3,1,0.7,1.3,1.1L316.2,189.8z"/>
		<path d="M342,206c-0.4,0-0.6-0.2-0.7-0.6l-0.3-2.5c-0.5,0.5-1.1,1-1.6,1.4c-0.5,0.4-1.1,0.8-1.7,1.1c-0.6,0.3-1.2,0.5-1.9,0.7
			c-0.7,0.2-1.4,0.2-2.2,0.2c-0.7,0-1.3-0.1-2-0.3s-1.2-0.5-1.7-0.9c-0.5-0.4-0.9-0.9-1.2-1.6c-0.3-0.6-0.4-1.4-0.4-2.3
			c0-0.8,0.2-1.6,0.7-2.3c0.5-0.7,1.2-1.3,2.2-1.9c1-0.5,2.3-1,3.9-1.3c1.6-0.3,3.5-0.5,5.8-0.6V193c0-1.8-0.4-3.3-1.2-4.2
			s-2-1.5-3.5-1.5c-1,0-1.8,0.1-2.5,0.4s-1.2,0.6-1.7,0.9c-0.5,0.3-0.8,0.6-1.1,0.9c-0.3,0.3-0.5,0.4-0.7,0.4
			c-0.3,0-0.5-0.1-0.6-0.4l-0.3-0.6c1-1,2.1-1.8,3.3-2.4c1.1-0.5,2.4-0.8,3.9-0.8c1.1,0,2,0.2,2.8,0.5c0.8,0.3,1.5,0.8,2,1.5
			s0.9,1.4,1.2,2.3c0.3,0.9,0.4,1.9,0.4,3v13H342z M334,204.9c0.8,0,1.5-0.1,2.1-0.2c0.6-0.2,1.2-0.4,1.8-0.7
			c0.6-0.3,1.1-0.7,1.5-1.1c0.5-0.4,1-0.9,1.4-1.3v-5.2c-1.9,0.1-3.5,0.2-4.9,0.4c-1.4,0.2-2.5,0.5-3.4,0.9c-0.9,0.4-1.5,0.9-2,1.4
			c-0.4,0.6-0.6,1.2-0.6,1.9c0,0.7,0.1,1.2,0.3,1.7c0.2,0.5,0.5,0.9,0.9,1.2c0.4,0.3,0.8,0.5,1.3,0.7
			C333,204.8,333.5,204.9,334,204.9z"/>
		<path d="M348.6,206v-19.9h1c0.2,0,0.4,0,0.5,0.1s0.2,0.3,0.2,0.5l0.2,4.2c0.6-1.6,1.5-2.9,2.6-3.8c1.1-0.9,2.4-1.4,3.9-1.4
			c0.6,0,1.2,0.1,1.7,0.2c0.5,0.1,1,0.3,1.4,0.5l-0.3,1.3c0,0.2-0.2,0.3-0.4,0.3c-0.1,0-0.2,0-0.3-0.1c-0.1-0.1-0.3-0.1-0.6-0.2
			c-0.2-0.1-0.5-0.1-0.8-0.2c-0.3-0.1-0.7-0.1-1.1-0.1c-1.5,0-2.7,0.5-3.7,1.4c-1,0.9-1.8,2.3-2.4,4V206H348.6z"/>
		<path d="M371.9,185.7c1.4,0,2.7,0.2,3.8,0.7c1.1,0.5,2.1,1.2,2.9,2.1c0.8,0.9,1.4,2,1.8,3.2c0.4,1.3,0.6,2.7,0.6,4.2
			s-0.2,3-0.6,4.2c-0.4,1.3-1,2.3-1.8,3.2c-0.8,0.9-1.7,1.6-2.9,2.1c-1.1,0.5-2.4,0.7-3.8,0.7s-2.7-0.2-3.8-0.7
			c-1.1-0.5-2.1-1.2-2.9-2.1c-0.8-0.9-1.4-2-1.8-3.2c-0.4-1.3-0.6-2.7-0.6-4.2s0.2-3,0.6-4.2c0.4-1.3,1-2.3,1.8-3.2
			c0.8-0.9,1.7-1.6,2.9-2.1C369.2,186,370.5,185.7,371.9,185.7z M371.9,204.7c1.2,0,2.2-0.2,3.1-0.6c0.9-0.4,1.6-1,2.2-1.8
			c0.6-0.8,1-1.7,1.3-2.8c0.3-1.1,0.4-2.3,0.4-3.6c0-1.3-0.1-2.5-0.4-3.6c-0.3-1.1-0.7-2-1.3-2.8c-0.6-0.8-1.3-1.4-2.2-1.8
			c-0.9-0.4-1.9-0.6-3.1-0.6s-2.2,0.2-3.1,0.6c-0.9,0.4-1.6,1-2.2,1.8c-0.6,0.8-1,1.7-1.3,2.8c-0.3,1.1-0.4,2.3-0.4,3.6
			c0,1.3,0.1,2.5,0.4,3.6c0.3,1.1,0.7,2,1.3,2.8c0.6,0.8,1.3,1.3,2.2,1.8C369.7,204.5,370.7,204.7,371.9,204.7z"/>
		<path d="M387.2,186.1v12.7c0,1.9,0.4,3.3,1.3,4.4c0.9,1.1,2.2,1.6,3.9,1.6c1.3,0,2.5-0.3,3.6-1c1.1-0.7,2.1-1.6,3-2.8v-15h1.9V206
			h-1c-0.4,0-0.6-0.2-0.6-0.5l-0.2-3c-0.9,1.1-2,2.1-3.2,2.8c-1.2,0.7-2.6,1-4,1c-1.1,0-2.1-0.2-2.9-0.5c-0.8-0.3-1.5-0.8-2.1-1.5
			c-0.5-0.7-1-1.4-1.2-2.4c-0.3-0.9-0.4-2-0.4-3.1v-12.7H387.2z"/>
		<path d="M407.3,206v-19.9h1c0.3,0,0.5,0.2,0.6,0.5l0.2,3c0.9-1.1,2-2.1,3.2-2.8c1.2-0.7,2.5-1.1,4-1.1c1.1,0,2.1,0.2,2.9,0.5
			c0.8,0.3,1.5,0.8,2.1,1.5c0.5,0.7,1,1.4,1.2,2.4c0.3,0.9,0.4,2,0.4,3.1V206h-1.9v-12.7c0-1.9-0.4-3.3-1.3-4.4s-2.2-1.6-3.9-1.6
			c-1.3,0-2.5,0.3-3.6,1c-1.1,0.7-2.1,1.6-3,2.8V206H407.3z"/>
		<path d="M442.9,206c-0.3,0-0.5-0.2-0.6-0.5l-0.2-3.1c-0.9,1.2-1.9,2.2-3.1,2.9s-2.5,1.1-4,1.1c-2.4,0-4.3-0.8-5.7-2.5
			c-1.4-1.7-2.1-4.2-2.1-7.6c0-1.5,0.2-2.8,0.6-4.1c0.4-1.3,0.9-2.4,1.7-3.3s1.6-1.7,2.7-2.2c1.1-0.5,2.3-0.8,3.7-0.8
			c1.3,0,2.5,0.2,3.5,0.8s1.8,1.2,2.6,2.2v-11.8h1.9V206H442.9z M435.6,204.7c1.3,0,2.5-0.3,3.6-1c1.1-0.7,2-1.6,2.9-2.8v-10.5
			c-0.8-1.1-1.6-1.9-2.6-2.4c-0.9-0.5-2-0.7-3.2-0.7s-2.2,0.2-3.1,0.6c-0.9,0.4-1.6,1-2.2,1.8c-0.6,0.8-1,1.7-1.3,2.8
			c-0.3,1.1-0.5,2.3-0.5,3.6c0,3,0.5,5.1,1.6,6.5C432,204,433.6,204.7,435.6,204.7z"/>
		<path d="M463.5,206.3c-1.3,0-2.4-0.4-3.1-1.1s-1.1-1.9-1.1-3.5v-13.6h-2.9c-0.1,0-0.3,0-0.4-0.1c-0.1-0.1-0.1-0.2-0.1-0.3v-0.7
			l3.4-0.2l0.5-7.1c0-0.1,0.1-0.2,0.1-0.3c0.1-0.1,0.2-0.1,0.3-0.1h0.9v7.6h6.3v1.4h-6.3v13.5c0,0.5,0.1,1,0.2,1.4
			c0.1,0.4,0.3,0.7,0.6,1c0.2,0.3,0.5,0.4,0.9,0.6c0.3,0.1,0.7,0.2,1.1,0.2c0.5,0,0.9-0.1,1.2-0.2c0.3-0.1,0.6-0.3,0.9-0.5
			c0.3-0.2,0.5-0.3,0.6-0.5c0.2-0.1,0.3-0.2,0.4-0.2c0.1,0,0.2,0.1,0.3,0.2l0.5,0.8c-0.5,0.6-1.1,1-1.9,1.4S464.3,206.3,463.5,206.3
			z"/>
		<path d="M472.1,206v-29.1h1.9v12.6c0.9-1.1,2-2,3.2-2.7s2.5-1,4-1c1.1,0,2.1,0.2,2.9,0.5c0.8,0.3,1.5,0.8,2.1,1.5
			c0.5,0.7,1,1.4,1.2,2.4s0.4,2,0.4,3.1V206h-1.9v-12.7c0-1.9-0.4-3.3-1.3-4.4c-0.9-1.1-2.2-1.6-3.9-1.6c-1.3,0-2.5,0.3-3.6,1
			s-2.1,1.6-3,2.8V206H472.1z"/>
		<path d="M501.1,185.7c1.1,0,2.2,0.2,3.1,0.6c1,0.4,1.8,1,2.5,1.7c0.7,0.7,1.2,1.7,1.6,2.7c0.4,1.1,0.6,2.3,0.6,3.7
			c0,0.3,0,0.5-0.1,0.6c-0.1,0.1-0.2,0.2-0.4,0.2H494v0.4c0,1.5,0.2,2.8,0.5,3.9s0.8,2.1,1.5,2.9c0.6,0.8,1.4,1.3,2.3,1.7
			c0.9,0.4,1.9,0.6,3,0.6c1,0,1.9-0.1,2.6-0.3c0.7-0.2,1.3-0.5,1.8-0.7c0.5-0.3,0.9-0.5,1.2-0.7c0.3-0.2,0.5-0.3,0.6-0.3
			c0.2,0,0.3,0.1,0.4,0.2l0.5,0.6c-0.3,0.4-0.7,0.8-1.3,1.1c-0.5,0.3-1.1,0.6-1.8,0.9c-0.6,0.2-1.3,0.4-2.1,0.6
			c-0.7,0.1-1.5,0.2-2.2,0.2c-1.4,0-2.6-0.2-3.7-0.7s-2.1-1.2-2.9-2.1c-0.8-0.9-1.4-2-1.9-3.3c-0.4-1.3-0.7-2.8-0.7-4.5
			c0-1.4,0.2-2.7,0.6-4c0.4-1.2,1-2.2,1.8-3.1c0.8-0.9,1.7-1.6,2.8-2C498.4,186,499.7,185.7,501.1,185.7z M501.1,187.2
			c-1,0-1.9,0.2-2.8,0.5c-0.8,0.3-1.5,0.8-2.1,1.4c-0.6,0.6-1.1,1.3-1.4,2.2c-0.4,0.8-0.6,1.8-0.7,2.8h13.1c0-1.1-0.1-2-0.4-2.9
			c-0.3-0.8-0.7-1.6-1.2-2.1c-0.5-0.6-1.2-1-1.9-1.4C502.9,187.3,502,187.2,501.1,187.2z"/>
		<path d="M518.6,186.1h1.5c0.2,0,0.3,0,0.5,0.1s0.2,0.2,0.2,0.3l5,15.7c0.1,0.3,0.2,0.6,0.2,0.9c0.1,0.3,0.1,0.6,0.2,0.8
			c0.1-0.3,0.1-0.6,0.2-0.8c0.1-0.3,0.2-0.6,0.3-0.9l5.3-15.8c0.1-0.3,0.3-0.4,0.6-0.4h0.8c0.3,0,0.5,0.1,0.6,0.4l5.3,15.8
			c0.2,0.6,0.4,1.2,0.5,1.7c0.1-0.3,0.1-0.6,0.2-0.9c0.1-0.3,0.1-0.6,0.2-0.9l5-15.7c0.1-0.3,0.3-0.5,0.7-0.5h1.4l-6.7,19.9h-1.4
			c-0.2,0-0.4-0.1-0.5-0.4l-5.5-16.2c-0.1-0.2-0.1-0.4-0.2-0.6c-0.1-0.2-0.1-0.4-0.1-0.6c0,0.2-0.1,0.4-0.1,0.6
			c0,0.2-0.1,0.4-0.2,0.6l-5.5,16.2c-0.1,0.3-0.2,0.4-0.5,0.4h-1.3L518.6,186.1z"/>
		<path d="M558.3,185.7c1.4,0,2.7,0.2,3.8,0.7c1.1,0.5,2.1,1.2,2.8,2.1c0.8,0.9,1.4,2,1.8,3.2c0.4,1.3,0.6,2.7,0.6,4.2
			s-0.2,3-0.6,4.2c-0.4,1.3-1,2.3-1.8,3.2c-0.8,0.9-1.7,1.6-2.8,2.1c-1.1,0.5-2.4,0.7-3.8,0.7c-1.4,0-2.7-0.2-3.8-0.7
			c-1.1-0.5-2.1-1.2-2.9-2.1c-0.8-0.9-1.4-2-1.8-3.2c-0.4-1.3-0.6-2.7-0.6-4.2s0.2-3,0.6-4.2c0.4-1.3,1-2.3,1.8-3.2
			c0.8-0.9,1.7-1.6,2.9-2.1C555.6,186,556.9,185.7,558.3,185.7z M558.3,204.7c1.2,0,2.2-0.2,3.1-0.6c0.9-0.4,1.6-1,2.2-1.8
			c0.6-0.8,1-1.7,1.3-2.8c0.3-1.1,0.4-2.3,0.4-3.6c0-1.3-0.1-2.5-0.4-3.6c-0.3-1.1-0.7-2-1.3-2.8c-0.6-0.8-1.3-1.4-2.2-1.8
			c-0.9-0.4-1.9-0.6-3.1-0.6c-1.2,0-2.2,0.2-3.1,0.6c-0.9,0.4-1.6,1-2.2,1.8c-0.6,0.8-1,1.7-1.3,2.8c-0.3,1.1-0.5,2.3-0.5,3.6
			c0,1.3,0.1,2.5,0.5,3.6c0.3,1.1,0.7,2,1.3,2.8c0.6,0.8,1.3,1.3,2.2,1.8C556.1,204.5,557.2,204.7,558.3,204.7z"/>
		<path d="M572.2,206v-19.9h1c0.2,0,0.4,0,0.5,0.1c0.1,0.1,0.2,0.3,0.2,0.5l0.2,4.2c0.6-1.6,1.5-2.9,2.6-3.8
			c1.1-0.9,2.4-1.4,3.9-1.4c0.6,0,1.2,0.1,1.7,0.2c0.5,0.1,1,0.3,1.4,0.5l-0.3,1.3c0,0.2-0.2,0.3-0.4,0.3c-0.1,0-0.2,0-0.3-0.1
			c-0.1-0.1-0.3-0.1-0.5-0.2c-0.2-0.1-0.5-0.1-0.8-0.2c-0.3-0.1-0.7-0.1-1.1-0.1c-1.5,0-2.7,0.5-3.7,1.4c-1,0.9-1.8,2.3-2.4,4V206
			H572.2z"/>
		<path d="M590.4,176.9V206h-1.9v-29.1H590.4z"/>
		<path d="M611.4,206c-0.3,0-0.5-0.2-0.6-0.5l-0.2-3.1c-0.9,1.2-1.9,2.2-3.1,2.9s-2.5,1.1-4,1.1c-2.4,0-4.3-0.8-5.7-2.5
			c-1.4-1.7-2.1-4.2-2.1-7.6c0-1.5,0.2-2.8,0.6-4.1c0.4-1.3,0.9-2.4,1.7-3.3s1.6-1.7,2.7-2.2s2.3-0.8,3.7-0.8c1.3,0,2.5,0.2,3.5,0.8
			s1.8,1.2,2.6,2.2v-11.8h1.9V206H611.4z M604.1,204.7c1.3,0,2.5-0.3,3.6-1c1.1-0.7,2-1.6,2.9-2.8v-10.5c-0.8-1.1-1.6-1.9-2.6-2.4
			c-0.9-0.5-2-0.7-3.2-0.7s-2.2,0.2-3.1,0.6c-0.9,0.4-1.6,1-2.2,1.8c-0.6,0.8-1,1.7-1.3,2.8c-0.3,1.1-0.5,2.3-0.5,3.6
			c0,3,0.5,5.1,1.6,6.5C600.5,204,602.1,204.7,604.1,204.7z"/>
		<path d="M639.6,188.7c-0.1,0.1-0.1,0.1-0.2,0.2c-0.1,0-0.1,0.1-0.2,0.1c-0.1,0-0.3-0.1-0.6-0.3s-0.5-0.4-0.9-0.6s-0.9-0.4-1.5-0.6
			c-0.6-0.2-1.3-0.3-2.1-0.3c-1.1,0-2.2,0.2-3.1,0.6s-1.6,1-2.2,1.8c-0.6,0.8-1.1,1.7-1.4,2.8c-0.3,1.1-0.5,2.3-0.5,3.6
			c0,1.4,0.2,2.6,0.5,3.7c0.3,1.1,0.8,2,1.4,2.7c0.6,0.7,1.3,1.3,2.2,1.7s1.8,0.6,2.8,0.6c1,0,1.8-0.1,2.4-0.3
			c0.6-0.2,1.2-0.5,1.6-0.7s0.8-0.5,1-0.7c0.2-0.2,0.4-0.3,0.6-0.3c0.2,0,0.3,0.1,0.4,0.2l0.5,0.6c-0.3,0.4-0.7,0.8-1.2,1.1
			s-1,0.6-1.6,0.9c-0.6,0.3-1.2,0.5-1.9,0.6c-0.7,0.1-1.4,0.2-2.1,0.2c-1.3,0-2.4-0.2-3.5-0.7s-1.9-1.1-2.7-2
			c-0.8-0.9-1.3-1.9-1.8-3.2c-0.4-1.3-0.6-2.7-0.6-4.3c0-1.5,0.2-2.9,0.6-4.2c0.4-1.3,1-2.3,1.8-3.2c0.8-0.9,1.7-1.6,2.8-2.1
			s2.4-0.8,3.8-0.8c1.3,0,2.4,0.2,3.5,0.6c1,0.4,1.9,1,2.6,1.7L639.6,188.7z"/>
		<path d="M657.3,206c-0.4,0-0.6-0.2-0.7-0.6l-0.3-2.5c-0.5,0.5-1.1,1-1.6,1.4c-0.5,0.4-1.1,0.8-1.7,1.1c-0.6,0.3-1.2,0.5-1.9,0.7
			c-0.7,0.2-1.4,0.2-2.2,0.2c-0.7,0-1.3-0.1-2-0.3c-0.6-0.2-1.2-0.5-1.7-0.9c-0.5-0.4-0.9-0.9-1.2-1.6c-0.3-0.6-0.5-1.4-0.5-2.3
			c0-0.8,0.2-1.6,0.7-2.3c0.5-0.7,1.2-1.3,2.2-1.9c1-0.5,2.3-1,3.9-1.3c1.6-0.3,3.5-0.5,5.8-0.6V193c0-1.8-0.4-3.3-1.2-4.2
			c-0.8-1-2-1.5-3.5-1.5c-1,0-1.8,0.1-2.5,0.4c-0.7,0.3-1.2,0.6-1.7,0.9c-0.5,0.3-0.8,0.6-1.1,0.9c-0.3,0.3-0.5,0.4-0.7,0.4
			c-0.3,0-0.5-0.1-0.6-0.4l-0.3-0.6c1-1,2.1-1.8,3.3-2.4s2.4-0.8,3.9-0.8c1.1,0,2,0.2,2.8,0.5s1.5,0.8,2,1.5
			c0.5,0.6,0.9,1.4,1.2,2.3c0.3,0.9,0.4,1.9,0.4,3v13H657.3z M649.3,204.9c0.8,0,1.5-0.1,2.1-0.2c0.6-0.2,1.2-0.4,1.8-0.7
			c0.6-0.3,1.1-0.7,1.5-1.1c0.5-0.4,1-0.9,1.4-1.3v-5.2c-1.9,0.1-3.5,0.2-4.9,0.4c-1.4,0.2-2.5,0.5-3.4,0.9c-0.9,0.4-1.5,0.9-2,1.4
			c-0.4,0.6-0.6,1.2-0.6,1.9c0,0.7,0.1,1.2,0.3,1.7c0.2,0.5,0.5,0.9,0.9,1.2c0.4,0.3,0.8,0.5,1.3,0.7
			C648.3,204.8,648.8,204.9,649.3,204.9z"/>
		<path d="M663.9,206v-19.9h1c0.3,0,0.5,0.2,0.6,0.5l0.2,3c0.9-1.1,2-2.1,3.2-2.8c1.2-0.7,2.5-1.1,4-1.1c1.1,0,2.1,0.2,2.9,0.5
			c0.8,0.3,1.5,0.8,2.1,1.5c0.5,0.7,1,1.4,1.2,2.4s0.4,2,0.4,3.1V206h-1.9v-12.7c0-1.9-0.4-3.3-1.3-4.4c-0.9-1.1-2.2-1.6-3.9-1.6
			c-1.3,0-2.5,0.3-3.6,1s-2.1,1.6-3,2.8V206H663.9z"/>
		<path d="M148.7,227.5c0,0.5-0.1,1-0.3,1.4c-0.2,0.4-0.5,0.8-0.8,1.1c-0.3,0.3-0.8,0.6-1.2,0.8s-0.9,0.3-1.5,0.3
			c-0.5,0-1-0.1-1.4-0.3c-0.4-0.2-0.8-0.5-1.2-0.8c-0.3-0.3-0.6-0.7-0.8-1.1c-0.2-0.4-0.3-0.9-0.3-1.4c0-0.5,0.1-1,0.3-1.4
			c0.2-0.4,0.5-0.8,0.8-1.2c0.3-0.3,0.7-0.6,1.2-0.8c0.4-0.2,0.9-0.3,1.4-0.3c0.5,0,1,0.1,1.5,0.3c0.5,0.2,0.9,0.4,1.2,0.8
			c0.3,0.3,0.6,0.7,0.8,1.2C148.6,226.6,148.7,227,148.7,227.5z M148,233.2V254h-6.2v-20.7H148z"/>
		<path d="M152.8,254v-20.7h3.8c0.4,0,0.7,0.1,1,0.3c0.3,0.2,0.4,0.4,0.5,0.8l0.4,1.2c0.4-0.4,0.8-0.7,1.2-1s0.9-0.6,1.4-0.8
			c0.5-0.2,1-0.4,1.6-0.5c0.6-0.1,1.2-0.2,1.9-0.2c1.1,0,2.1,0.2,3,0.6c0.9,0.4,1.6,0.9,2.2,1.6c0.6,0.7,1.1,1.5,1.4,2.5
			c0.3,1,0.5,2,0.5,3.1V254h-6.2v-13.2c0-1-0.2-1.8-0.7-2.4s-1.2-0.9-2.1-0.9c-0.7,0-1.3,0.1-1.9,0.4c-0.6,0.3-1.2,0.7-1.7,1.2V254
			H152.8z"/>
		<path d="M190.8,238.1c-0.2,0.2-0.4,0.4-0.5,0.5s-0.4,0.2-0.7,0.2c-0.3,0-0.6-0.1-0.8-0.2c-0.2-0.1-0.5-0.3-0.8-0.5
			s-0.7-0.3-1.1-0.5c-0.4-0.1-0.9-0.2-1.5-0.2c-0.8,0-1.4,0.1-2,0.4c-0.6,0.3-1,0.7-1.4,1.2s-0.6,1.2-0.8,1.9
			c-0.2,0.8-0.3,1.6-0.3,2.6c0,2,0.4,3.5,1.1,4.6s1.8,1.6,3.2,1.6c0.7,0,1.3-0.1,1.7-0.3c0.4-0.2,0.8-0.4,1.1-0.6
			c0.3-0.2,0.6-0.4,0.8-0.6c0.2-0.2,0.6-0.3,0.9-0.3c0.5,0,0.9,0.2,1.1,0.5l1.8,2.2c-0.6,0.7-1.3,1.3-2,1.8
			c-0.7,0.5-1.4,0.8-2.2,1.1c-0.7,0.3-1.5,0.4-2.2,0.5c-0.7,0.1-1.5,0.1-2.2,0.1c-1.3,0-2.5-0.2-3.6-0.7c-1.2-0.5-2.2-1.2-3-2.1
			c-0.9-0.9-1.6-2-2.1-3.4c-0.5-1.3-0.8-2.9-0.8-4.6c0-1.5,0.2-2.9,0.7-4.2c0.4-1.3,1.1-2.4,2-3.4c0.9-1,2-1.7,3.2-2.2
			c1.3-0.5,2.8-0.8,4.5-0.8c1.6,0,3.1,0.3,4.3,0.8c1.2,0.5,2.3,1.3,3.3,2.3L190.8,238.1z"/>
		<path d="M195.2,254v-20.7h3.7c0.3,0,0.6,0,0.8,0.1c0.2,0.1,0.4,0.1,0.5,0.2c0.1,0.1,0.2,0.3,0.3,0.5c0.1,0.2,0.1,0.4,0.2,0.7
			l0.3,1.9c0.8-1.2,1.6-2.1,2.6-2.8c0.9-0.7,2-1,3.1-1c0.9,0,1.7,0.2,2.3,0.7l-0.8,4.6c-0.1,0.3-0.2,0.5-0.3,0.6s-0.4,0.2-0.6,0.2
			c-0.2,0-0.5,0-0.8-0.1c-0.3-0.1-0.7-0.1-1.2-0.1c-1.6,0-2.9,0.9-3.8,2.6V254H195.2z"/>
		<path d="M220.4,232.9c1.4,0,2.6,0.2,3.8,0.6c1.1,0.4,2.1,1,2.9,1.9c0.8,0.8,1.5,1.8,1.9,3c0.5,1.2,0.7,2.5,0.7,4
			c0,0.5,0,0.8-0.1,1.1c0,0.3-0.1,0.5-0.2,0.7c-0.1,0.2-0.2,0.3-0.4,0.4c-0.2,0.1-0.4,0.1-0.7,0.1h-12c0.2,1.7,0.7,3,1.6,3.8
			c0.9,0.8,2,1.2,3.3,1.2c0.7,0,1.3-0.1,1.9-0.3c0.5-0.2,1-0.4,1.4-0.6c0.4-0.2,0.8-0.4,1.1-0.6c0.3-0.2,0.7-0.3,1.1-0.3
			c0.5,0,0.9,0.2,1.1,0.5l1.8,2.2c-0.6,0.7-1.3,1.3-2.1,1.8c-0.7,0.5-1.5,0.8-2.3,1.1c-0.8,0.3-1.6,0.4-2.3,0.5
			c-0.8,0.1-1.5,0.1-2.2,0.1c-1.5,0-2.8-0.2-4.1-0.7c-1.3-0.5-2.4-1.2-3.3-2.1c-1-0.9-1.7-2.1-2.3-3.5c-0.6-1.4-0.8-3-0.8-4.8
			c0-1.4,0.2-2.7,0.7-3.9c0.5-1.2,1.2-2.3,2-3.3c0.9-0.9,2-1.7,3.2-2.2C217.4,233.2,218.8,232.9,220.4,232.9z M220.5,237.2
			c-1.2,0-2.1,0.3-2.8,1c-0.7,0.7-1.1,1.6-1.3,2.9h7.7c0-0.5-0.1-1-0.2-1.4c-0.1-0.5-0.3-0.9-0.6-1.2s-0.7-0.7-1.1-0.9
			C221.8,237.3,221.2,237.2,220.5,237.2z"/>
		<path d="M247.4,254c-0.6,0-1-0.1-1.3-0.2c-0.3-0.2-0.6-0.5-0.8-1l-0.4-1.1c-0.5,0.4-1,0.8-1.5,1.2c-0.5,0.3-1,0.6-1.5,0.9
			c-0.5,0.2-1.1,0.4-1.6,0.5c-0.6,0.1-1.2,0.2-1.9,0.2c-0.9,0-1.8-0.1-2.6-0.4c-0.8-0.2-1.4-0.6-2-1.1c-0.5-0.5-1-1.1-1.2-1.8
			c-0.3-0.7-0.4-1.5-0.4-2.5c0-0.7,0.2-1.5,0.6-2.3c0.4-0.8,1-1.5,1.9-2.1c0.9-0.6,2.2-1.2,3.7-1.6s3.5-0.6,5.9-0.6V241
			c0-1.2-0.2-2.1-0.8-2.7s-1.2-0.8-2.1-0.8c-0.7,0-1.3,0.1-1.8,0.2c-0.5,0.2-0.9,0.3-1.2,0.5c-0.4,0.2-0.7,0.4-1.1,0.5
			s-0.8,0.2-1.2,0.2c-0.4,0-0.8-0.1-1.1-0.3c-0.3-0.2-0.5-0.5-0.7-0.8l-1.1-1.9c1.3-1.1,2.6-1.9,4.2-2.5s3.2-0.8,4.9-0.8
			c1.3,0,2.4,0.2,3.4,0.6c1,0.4,1.9,1,2.6,1.7c0.7,0.7,1.2,1.6,1.6,2.6c0.4,1,0.6,2.1,0.6,3.3v13H247.4z M240.3,250.2
			c0.8,0,1.5-0.1,2.1-0.4c0.6-0.3,1.2-0.7,1.8-1.4v-2.8c-1.2,0-2.3,0.1-3.1,0.2s-1.4,0.4-1.9,0.6c-0.5,0.2-0.8,0.5-1,0.8
			c-0.2,0.3-0.3,0.6-0.3,1c0,0.7,0.2,1.2,0.6,1.5C239,250,239.6,250.2,240.3,250.2z"/>
		<path d="M267.2,237.8c-0.2,0.3-0.3,0.4-0.5,0.5c-0.2,0.1-0.4,0.2-0.7,0.2c-0.3,0-0.6-0.1-0.9-0.2c-0.3-0.1-0.6-0.3-1-0.4
			c-0.3-0.1-0.7-0.3-1.1-0.4c-0.4-0.1-0.9-0.2-1.5-0.2c-0.8,0-1.4,0.2-1.8,0.5s-0.6,0.7-0.6,1.2c0,0.4,0.1,0.7,0.4,1
			c0.3,0.3,0.6,0.5,1.1,0.7c0.5,0.2,1,0.4,1.5,0.6s1.2,0.4,1.8,0.6c0.6,0.2,1.2,0.5,1.8,0.8c0.6,0.3,1.1,0.6,1.5,1.1
			c0.5,0.4,0.8,0.9,1.1,1.5c0.3,0.6,0.4,1.3,0.4,2.2c0,1-0.2,2-0.6,2.8c-0.4,0.9-0.9,1.6-1.7,2.2c-0.7,0.6-1.7,1.1-2.7,1.5
			c-1.1,0.3-2.3,0.5-3.8,0.5c-0.7,0-1.4-0.1-2.1-0.2c-0.7-0.1-1.4-0.3-2-0.5s-1.3-0.5-1.8-0.8c-0.6-0.3-1-0.6-1.4-1l1.4-2.3
			c0.2-0.3,0.4-0.5,0.6-0.6s0.6-0.2,0.9-0.2c0.4,0,0.7,0.1,1,0.2c0.3,0.2,0.6,0.3,0.9,0.5c0.3,0.2,0.7,0.4,1.2,0.5
			c0.4,0.2,1,0.2,1.7,0.2c0.5,0,0.9-0.1,1.2-0.1c0.3-0.1,0.6-0.2,0.8-0.4c0.2-0.2,0.3-0.4,0.4-0.6c0.1-0.2,0.1-0.4,0.1-0.7
			c0-0.4-0.1-0.8-0.4-1c-0.3-0.3-0.6-0.5-1.1-0.7c-0.5-0.2-1-0.4-1.5-0.5c-0.6-0.2-1.2-0.4-1.8-0.6s-1.2-0.5-1.8-0.8
			s-1.1-0.7-1.5-1.1c-0.5-0.5-0.8-1-1.1-1.7c-0.3-0.7-0.4-1.5-0.4-2.4c0-0.9,0.2-1.7,0.5-2.5c0.3-0.8,0.9-1.5,1.5-2.1
			c0.7-0.6,1.5-1.1,2.6-1.4c1-0.4,2.2-0.5,3.6-0.5c0.7,0,1.5,0.1,2.2,0.2c0.7,0.1,1.4,0.3,2,0.6c0.6,0.2,1.2,0.5,1.7,0.8
			c0.5,0.3,1,0.7,1.3,1.1L267.2,237.8z"/>
		<path d="M280.8,232.9c1.4,0,2.6,0.2,3.8,0.6c1.1,0.4,2.1,1,2.9,1.9c0.8,0.8,1.5,1.8,1.9,3c0.5,1.2,0.7,2.5,0.7,4
			c0,0.5,0,0.8-0.1,1.1c0,0.3-0.1,0.5-0.2,0.7c-0.1,0.2-0.2,0.3-0.4,0.4c-0.2,0.1-0.4,0.1-0.7,0.1h-12c0.2,1.7,0.7,3,1.6,3.8
			c0.9,0.8,2,1.2,3.3,1.2c0.7,0,1.3-0.1,1.9-0.3c0.5-0.2,1-0.4,1.4-0.6c0.4-0.2,0.8-0.4,1.1-0.6c0.3-0.2,0.7-0.3,1.1-0.3
			c0.5,0,0.9,0.2,1.1,0.5l1.8,2.2c-0.6,0.7-1.3,1.3-2.1,1.8c-0.7,0.5-1.5,0.8-2.3,1.1c-0.8,0.3-1.6,0.4-2.3,0.5
			c-0.8,0.1-1.5,0.1-2.2,0.1c-1.5,0-2.8-0.2-4.1-0.7c-1.3-0.5-2.4-1.2-3.3-2.1c-1-0.9-1.7-2.1-2.3-3.5c-0.6-1.4-0.8-3-0.8-4.8
			c0-1.4,0.2-2.7,0.7-3.9c0.5-1.2,1.2-2.3,2-3.3c0.9-0.9,2-1.7,3.2-2.2C277.8,233.2,279.3,232.9,280.8,232.9z M281,237.2
			c-1.2,0-2.1,0.3-2.8,1c-0.7,0.7-1.1,1.6-1.3,2.9h7.7c0-0.5-0.1-1-0.2-1.4c-0.1-0.5-0.3-0.9-0.6-1.2s-0.7-0.7-1.1-0.9
			C282.2,237.3,281.6,237.2,281,237.2z"/>
		<path d="M307.4,254.3c-1.3,0-2.4-0.4-3.1-1.1c-0.7-0.7-1.1-1.9-1.1-3.5v-13.6h-2.9c-0.1,0-0.3,0-0.4-0.1c-0.1-0.1-0.1-0.2-0.1-0.3
			v-0.7l3.4-0.2l0.5-7.1c0-0.1,0.1-0.2,0.1-0.3c0.1-0.1,0.2-0.1,0.3-0.1h0.9v7.6h6.3v1.4H305v13.5c0,0.5,0.1,1,0.2,1.4
			c0.1,0.4,0.3,0.7,0.6,1c0.2,0.3,0.5,0.4,0.9,0.6c0.3,0.1,0.7,0.2,1.1,0.2c0.5,0,0.9-0.1,1.2-0.2c0.3-0.1,0.6-0.3,0.9-0.5
			c0.3-0.2,0.5-0.3,0.6-0.5c0.2-0.1,0.3-0.2,0.4-0.2c0.1,0,0.2,0.1,0.3,0.2l0.5,0.8c-0.5,0.6-1.1,1-1.9,1.4
			C309,254.1,308.2,254.3,307.4,254.3z"/>
		<path d="M316.1,254v-29.1h1.9v12.6c0.9-1.1,2-2,3.1-2.7s2.5-1,4-1c1.1,0,2.1,0.2,2.9,0.5c0.8,0.3,1.5,0.8,2.1,1.5
			c0.5,0.7,1,1.4,1.2,2.4c0.3,0.9,0.4,2,0.4,3.1V254h-1.9v-12.7c0-1.9-0.4-3.3-1.3-4.4c-0.9-1.1-2.2-1.6-3.9-1.6
			c-1.3,0-2.5,0.3-3.6,1c-1.1,0.7-2.1,1.6-3,2.8V254H316.1z"/>
		<path d="M345,233.7c1.1,0,2.2,0.2,3.1,0.6c1,0.4,1.8,1,2.5,1.7c0.7,0.7,1.2,1.7,1.6,2.7c0.4,1.1,0.6,2.3,0.6,3.7
			c0,0.3,0,0.5-0.1,0.6c-0.1,0.1-0.2,0.2-0.4,0.2H338v0.4c0,1.5,0.2,2.8,0.5,3.9c0.3,1.1,0.8,2.1,1.5,2.9c0.6,0.8,1.4,1.3,2.3,1.7
			s1.9,0.6,3,0.6c1,0,1.9-0.1,2.6-0.3c0.7-0.2,1.4-0.5,1.9-0.7c0.5-0.3,0.9-0.5,1.2-0.7c0.3-0.2,0.5-0.3,0.6-0.3
			c0.2,0,0.3,0.1,0.4,0.2l0.5,0.6c-0.3,0.4-0.7,0.8-1.3,1.1c-0.5,0.3-1.1,0.6-1.8,0.9c-0.6,0.2-1.3,0.4-2.1,0.6
			c-0.7,0.1-1.5,0.2-2.2,0.2c-1.4,0-2.6-0.2-3.7-0.7c-1.1-0.5-2.1-1.2-2.9-2.1c-0.8-0.9-1.4-2-1.9-3.3c-0.4-1.3-0.7-2.8-0.7-4.5
			c0-1.4,0.2-2.7,0.6-4c0.4-1.2,1-2.2,1.8-3.1c0.8-0.9,1.7-1.6,2.8-2C342.4,234,343.6,233.7,345,233.7z M345.1,235.2
			c-1,0-1.9,0.2-2.8,0.5c-0.8,0.3-1.5,0.8-2.1,1.4c-0.6,0.6-1.1,1.3-1.4,2.2c-0.4,0.8-0.6,1.8-0.7,2.8h13.1c0-1.1-0.1-2-0.4-2.9
			c-0.3-0.8-0.7-1.6-1.2-2.1c-0.5-0.6-1.2-1-1.9-1.4C346.8,235.3,346,235.2,345.1,235.2z"/>
		<path d="M361.1,227.2c0,0.2,0,0.5-0.1,0.7s-0.2,0.4-0.4,0.5s-0.3,0.3-0.6,0.4c-0.2,0.1-0.4,0.1-0.7,0.1c-0.2,0-0.5,0-0.7-0.1
			c-0.2-0.1-0.4-0.2-0.6-0.4s-0.3-0.3-0.4-0.5c-0.1-0.2-0.1-0.4-0.1-0.7c0-0.2,0-0.5,0.1-0.7c0.1-0.2,0.2-0.4,0.4-0.6
			s0.3-0.3,0.6-0.4c0.2-0.1,0.4-0.1,0.7-0.1c0.2,0,0.5,0,0.7,0.1s0.4,0.2,0.6,0.4s0.3,0.4,0.4,0.6
			C361.1,226.7,361.1,227,361.1,227.2z M360.3,234.1V254h-1.9v-19.9H360.3z"/>
		<path d="M367.2,254v-19.9h1c0.2,0,0.4,0,0.5,0.1s0.2,0.3,0.2,0.5l0.2,4.2c0.6-1.6,1.5-2.9,2.6-3.8c1.1-0.9,2.4-1.4,3.9-1.4
			c0.6,0,1.2,0.1,1.7,0.2c0.5,0.1,1,0.3,1.4,0.5l-0.3,1.3c0,0.2-0.2,0.3-0.4,0.3c-0.1,0-0.2,0-0.3-0.1c-0.1-0.1-0.3-0.1-0.6-0.2
			c-0.2-0.1-0.5-0.1-0.8-0.2c-0.3-0.1-0.7-0.1-1.1-0.1c-1.5,0-2.7,0.5-3.7,1.4c-1,0.9-1.8,2.3-2.4,4V254H367.2z"/>
		<path d="M402.3,237.8c-0.2,0.3-0.3,0.4-0.5,0.5c-0.2,0.1-0.4,0.2-0.7,0.2c-0.3,0-0.6-0.1-0.9-0.2c-0.3-0.1-0.6-0.3-1-0.4
			c-0.3-0.1-0.7-0.3-1.1-0.4c-0.4-0.1-0.9-0.2-1.5-0.2c-0.8,0-1.4,0.2-1.8,0.5s-0.6,0.7-0.6,1.2c0,0.4,0.1,0.7,0.4,1
			c0.3,0.3,0.6,0.5,1.1,0.7c0.5,0.2,1,0.4,1.5,0.6s1.2,0.4,1.8,0.6c0.6,0.2,1.2,0.5,1.8,0.8c0.6,0.3,1.1,0.6,1.5,1.1
			c0.5,0.4,0.8,0.9,1.1,1.5c0.3,0.6,0.4,1.3,0.4,2.2c0,1-0.2,2-0.6,2.8s-0.9,1.6-1.7,2.2c-0.7,0.6-1.7,1.1-2.7,1.5
			c-1.1,0.3-2.3,0.5-3.8,0.5c-0.7,0-1.4-0.1-2.1-0.2c-0.7-0.1-1.4-0.3-2-0.5s-1.3-0.5-1.8-0.8c-0.6-0.3-1-0.6-1.4-1l1.4-2.3
			c0.2-0.3,0.4-0.5,0.6-0.6s0.6-0.2,0.9-0.2c0.4,0,0.7,0.1,1,0.2c0.3,0.2,0.6,0.3,0.9,0.5c0.3,0.2,0.7,0.4,1.2,0.5
			c0.4,0.2,1,0.2,1.7,0.2c0.5,0,0.9-0.1,1.2-0.1c0.3-0.1,0.6-0.2,0.8-0.4c0.2-0.2,0.3-0.4,0.4-0.6c0.1-0.2,0.1-0.4,0.1-0.7
			c0-0.4-0.1-0.8-0.4-1c-0.3-0.3-0.6-0.5-1.1-0.7c-0.5-0.2-1-0.4-1.5-0.5c-0.6-0.2-1.2-0.4-1.8-0.6s-1.2-0.5-1.8-0.8
			s-1.1-0.7-1.5-1.1c-0.5-0.5-0.8-1-1.1-1.7c-0.3-0.7-0.4-1.5-0.4-2.4c0-0.9,0.2-1.7,0.5-2.5c0.3-0.8,0.9-1.5,1.5-2.1
			c0.7-0.6,1.5-1.1,2.6-1.4c1-0.4,2.2-0.5,3.6-0.5c0.7,0,1.5,0.1,2.2,0.2c0.7,0.1,1.4,0.3,2,0.6c0.6,0.2,1.2,0.5,1.7,0.8
			c0.5,0.3,1,0.7,1.3,1.1L402.3,237.8z"/>
		<path d="M415.9,232.9c1.4,0,2.6,0.2,3.8,0.6c1.1,0.4,2.1,1,2.9,1.9c0.8,0.8,1.5,1.8,1.9,3c0.5,1.2,0.7,2.5,0.7,4
			c0,0.5,0,0.8-0.1,1.1c0,0.3-0.1,0.5-0.2,0.7c-0.1,0.2-0.2,0.3-0.4,0.4c-0.2,0.1-0.4,0.1-0.7,0.1h-12c0.2,1.7,0.7,3,1.6,3.8
			c0.9,0.8,2,1.2,3.3,1.2c0.7,0,1.3-0.1,1.9-0.3c0.5-0.2,1-0.4,1.4-0.6c0.4-0.2,0.8-0.4,1.1-0.6c0.3-0.2,0.7-0.3,1.1-0.3
			c0.5,0,0.9,0.2,1.1,0.5l1.8,2.2c-0.6,0.7-1.3,1.3-2.1,1.8s-1.5,0.8-2.3,1.1c-0.8,0.3-1.6,0.4-2.3,0.5s-1.5,0.1-2.2,0.1
			c-1.5,0-2.8-0.2-4.1-0.7c-1.3-0.5-2.4-1.2-3.3-2.1c-1-0.9-1.7-2.1-2.3-3.5s-0.8-3-0.8-4.8c0-1.4,0.2-2.7,0.7-3.9
			c0.5-1.2,1.2-2.3,2-3.3c0.9-0.9,2-1.7,3.2-2.2C412.9,233.2,414.3,232.9,415.9,232.9z M416,237.2c-1.2,0-2.1,0.3-2.8,1
			s-1.1,1.6-1.3,2.9h7.7c0-0.5-0.1-1-0.2-1.4c-0.1-0.5-0.3-0.9-0.6-1.2c-0.3-0.4-0.7-0.7-1.1-0.9C417.3,237.3,416.7,237.2,416,237.2
			z"/>
		<path d="M435,224V254h-6.2V224H435z"/>
		<path d="M440.8,254v-16.5l-1.4-0.3c-0.5-0.1-0.8-0.3-1.1-0.5c-0.3-0.2-0.4-0.6-0.4-1v-2.4h2.9v-1.2c0-1.2,0.2-2.3,0.6-3.2
			s0.9-1.8,1.6-2.5c0.7-0.7,1.6-1.2,2.6-1.6c1-0.4,2.2-0.6,3.5-0.6c0.5,0,1,0,1.4,0.1c0.4,0.1,0.9,0.2,1.3,0.3l-0.1,3
			c0,0.2-0.1,0.4-0.2,0.5c-0.1,0.1-0.2,0.3-0.4,0.3c-0.1,0.1-0.3,0.2-0.5,0.2c-0.2,0-0.4,0.1-0.5,0.1c-0.5,0-1,0.1-1.5,0.2
			c-0.4,0.1-0.8,0.3-1.1,0.6c-0.3,0.3-0.5,0.6-0.6,1.1c-0.1,0.4-0.2,1-0.2,1.7v1h4.9v4.2H447V254H440.8z"/>
		<path d="M453.8,239.3h10.8v5h-10.8V239.3z"/>
		<path d="M481.5,237.8c-0.2,0.3-0.3,0.4-0.5,0.5c-0.2,0.1-0.4,0.2-0.7,0.2c-0.3,0-0.6-0.1-0.9-0.2c-0.3-0.1-0.6-0.3-1-0.4
			c-0.3-0.1-0.7-0.3-1.1-0.4c-0.4-0.1-0.9-0.2-1.5-0.2c-0.8,0-1.4,0.2-1.8,0.5s-0.6,0.7-0.6,1.2c0,0.4,0.1,0.7,0.4,1
			c0.3,0.3,0.6,0.5,1.1,0.7c0.5,0.2,1,0.4,1.5,0.6s1.2,0.4,1.8,0.6c0.6,0.2,1.2,0.5,1.8,0.8c0.6,0.3,1.1,0.6,1.5,1.1
			c0.5,0.4,0.8,0.9,1.1,1.5c0.3,0.6,0.4,1.3,0.4,2.2c0,1-0.2,2-0.6,2.8s-0.9,1.6-1.7,2.2c-0.7,0.6-1.7,1.1-2.7,1.5
			c-1.1,0.3-2.3,0.5-3.8,0.5c-0.7,0-1.4-0.1-2.1-0.2c-0.7-0.1-1.4-0.3-2-0.5s-1.3-0.5-1.8-0.8c-0.6-0.3-1-0.6-1.4-1l1.4-2.3
			c0.2-0.3,0.4-0.5,0.6-0.6s0.6-0.2,0.9-0.2c0.4,0,0.7,0.1,1,0.2c0.3,0.2,0.6,0.3,0.9,0.5c0.3,0.2,0.7,0.4,1.2,0.5
			c0.4,0.2,1,0.2,1.7,0.2c0.5,0,0.9-0.1,1.2-0.1c0.3-0.1,0.6-0.2,0.8-0.4s0.3-0.4,0.4-0.6c0.1-0.2,0.1-0.4,0.1-0.7
			c0-0.4-0.1-0.8-0.4-1c-0.3-0.3-0.6-0.5-1.1-0.7c-0.5-0.2-1-0.4-1.5-0.5c-0.6-0.2-1.2-0.4-1.8-0.6s-1.2-0.5-1.8-0.8
			c-0.6-0.3-1.1-0.7-1.6-1.1s-0.8-1-1.1-1.7c-0.3-0.7-0.4-1.5-0.4-2.4c0-0.9,0.2-1.7,0.5-2.5c0.3-0.8,0.9-1.5,1.5-2.1
			s1.5-1.1,2.6-1.4c1-0.4,2.2-0.5,3.6-0.5c0.7,0,1.5,0.1,2.2,0.2s1.4,0.3,2,0.6c0.6,0.2,1.2,0.5,1.7,0.8c0.5,0.3,1,0.7,1.3,1.1
			L481.5,237.8z"/>
		<path d="M492.1,233.2v13.2c0,1,0.2,1.8,0.7,2.4c0.5,0.6,1.2,0.8,2.1,0.8c0.7,0,1.3-0.1,1.9-0.4c0.6-0.3,1.2-0.7,1.7-1.2v-14.8h6.2
			V254h-3.8c-0.8,0-1.3-0.3-1.5-1l-0.4-1.2c-0.4,0.4-0.8,0.7-1.2,1.1c-0.4,0.3-0.9,0.6-1.4,0.8c-0.5,0.2-1,0.4-1.6,0.5
			c-0.6,0.1-1.2,0.2-1.8,0.2c-1.1,0-2.1-0.2-3-0.6c-0.9-0.4-1.6-0.9-2.2-1.6c-0.6-0.7-1.1-1.5-1.4-2.5s-0.5-2-0.5-3.2v-13.2H492.1z"
			/>
		<path d="M510.2,254v-16.5l-1.4-0.3c-0.5-0.1-0.8-0.3-1.1-0.5c-0.3-0.2-0.4-0.6-0.4-1v-2.4h2.9v-1.2c0-1.2,0.2-2.3,0.6-3.2
			s0.9-1.8,1.6-2.5c0.7-0.7,1.6-1.2,2.6-1.6c1-0.4,2.2-0.6,3.5-0.6c0.5,0,1,0,1.4,0.1s0.9,0.2,1.4,0.3l-0.1,3c0,0.2-0.1,0.4-0.2,0.5
			c-0.1,0.1-0.2,0.3-0.4,0.3c-0.1,0.1-0.3,0.2-0.5,0.2c-0.2,0-0.4,0.1-0.5,0.1c-0.5,0-1,0.1-1.5,0.2c-0.4,0.1-0.8,0.3-1.1,0.6
			c-0.3,0.3-0.5,0.6-0.7,1.1c-0.1,0.4-0.2,1-0.2,1.7v1h4.9v4.2h-4.7V254H510.2z"/>
		<path d="M524.6,254v-16.5l-1.4-0.3c-0.5-0.1-0.8-0.3-1.1-0.5c-0.3-0.2-0.4-0.6-0.4-1v-2.4h2.9V233c0-1.3,0.2-2.4,0.6-3.5
			s1.1-2.1,2-2.9c0.9-0.8,2.1-1.5,3.5-1.9c1.4-0.5,3.1-0.7,5-0.7c0.6,0,1.2,0,1.9,0.1c0.6,0.1,1.2,0.1,1.7,0.3l-0.2,3.1
			c0,0.3-0.2,0.6-0.5,0.7c-0.3,0.1-0.6,0.2-1,0.2c-1.4,0-2.5,0.1-3.4,0.3c-0.9,0.2-1.6,0.5-2.1,1c-0.5,0.4-0.9,0.9-1.1,1.6
			c-0.2,0.6-0.3,1.3-0.3,2.2v0.1h13.2V254h-6.2v-16.5h-6.8V254H524.6z"/>
		<path d="M563.6,238.1c-0.2,0.2-0.4,0.4-0.5,0.5c-0.2,0.1-0.4,0.2-0.7,0.2c-0.3,0-0.6-0.1-0.8-0.2c-0.2-0.1-0.5-0.3-0.8-0.5
			s-0.7-0.3-1.1-0.5c-0.4-0.1-0.9-0.2-1.5-0.2c-0.8,0-1.4,0.1-2,0.4c-0.6,0.3-1,0.7-1.4,1.2s-0.6,1.2-0.8,1.9
			c-0.2,0.8-0.3,1.6-0.3,2.6c0,2,0.4,3.5,1.1,4.6s1.8,1.6,3.2,1.6c0.7,0,1.3-0.1,1.7-0.3c0.4-0.2,0.8-0.4,1.1-0.6
			c0.3-0.2,0.6-0.4,0.8-0.6c0.2-0.2,0.6-0.3,0.9-0.3c0.5,0,0.9,0.2,1.1,0.5l1.8,2.2c-0.6,0.7-1.3,1.3-2,1.8
			c-0.7,0.5-1.4,0.8-2.2,1.1c-0.7,0.3-1.5,0.4-2.2,0.5c-0.7,0.1-1.5,0.1-2.2,0.1c-1.3,0-2.5-0.2-3.6-0.7s-2.2-1.2-3-2.1
			c-0.9-0.9-1.6-2-2.1-3.4c-0.5-1.3-0.8-2.9-0.8-4.6c0-1.5,0.2-2.9,0.7-4.2c0.4-1.3,1.1-2.4,2-3.4c0.9-1,2-1.7,3.2-2.2
			c1.3-0.5,2.8-0.8,4.5-0.8c1.6,0,3.1,0.3,4.3,0.8s2.3,1.3,3.3,2.3L563.6,238.1z"/>
		<path d="M575,227.5c0,0.5-0.1,1-0.3,1.4s-0.5,0.8-0.8,1.1c-0.3,0.3-0.8,0.6-1.2,0.8s-1,0.3-1.5,0.3c-0.5,0-1-0.1-1.4-0.3
			c-0.4-0.2-0.8-0.5-1.2-0.8c-0.3-0.3-0.6-0.7-0.8-1.1s-0.3-0.9-0.3-1.4c0-0.5,0.1-1,0.3-1.4s0.5-0.8,0.8-1.2
			c0.3-0.3,0.7-0.6,1.2-0.8c0.4-0.2,0.9-0.3,1.4-0.3c0.5,0,1,0.1,1.5,0.3c0.5,0.2,0.9,0.4,1.2,0.8c0.3,0.3,0.6,0.7,0.8,1.2
			S575,227,575,227.5z M574.3,233.2V254h-6.2v-20.7H574.3z"/>
		<path d="M588,232.9c1.4,0,2.6,0.2,3.8,0.6c1.1,0.4,2.1,1,2.9,1.9c0.8,0.8,1.5,1.8,1.9,3c0.5,1.2,0.7,2.5,0.7,4
			c0,0.5,0,0.8-0.1,1.1c0,0.3-0.1,0.5-0.2,0.7c-0.1,0.2-0.2,0.3-0.4,0.4c-0.2,0.1-0.4,0.1-0.7,0.1h-12c0.2,1.7,0.7,3,1.6,3.8
			c0.9,0.8,2,1.2,3.3,1.2c0.7,0,1.3-0.1,1.9-0.3c0.5-0.2,1-0.4,1.4-0.6c0.4-0.2,0.8-0.4,1.1-0.6c0.3-0.2,0.7-0.3,1.1-0.3
			c0.5,0,0.9,0.2,1.1,0.5l1.8,2.2c-0.6,0.7-1.3,1.3-2.1,1.8s-1.5,0.8-2.3,1.1c-0.8,0.3-1.6,0.4-2.3,0.5s-1.5,0.1-2.2,0.1
			c-1.5,0-2.8-0.2-4.1-0.7s-2.4-1.2-3.3-2.1c-1-0.9-1.7-2.1-2.3-3.5c-0.6-1.4-0.8-3-0.8-4.8c0-1.4,0.2-2.7,0.7-3.9
			c0.5-1.2,1.2-2.3,2-3.3c0.9-0.9,2-1.7,3.2-2.2C585,233.2,586.5,232.9,588,232.9z M588.2,237.2c-1.2,0-2.1,0.3-2.8,1
			c-0.7,0.7-1.1,1.6-1.3,2.9h7.7c0-0.5-0.1-1-0.2-1.4s-0.3-0.9-0.6-1.2c-0.3-0.4-0.7-0.7-1.1-0.9
			C589.4,237.3,588.8,237.2,588.2,237.2z"/>
		<path d="M600.8,254v-20.7h3.8c0.4,0,0.7,0.1,1,0.3s0.4,0.4,0.5,0.8l0.4,1.2c0.4-0.4,0.8-0.7,1.2-1c0.4-0.3,0.9-0.6,1.4-0.8
			c0.5-0.2,1-0.4,1.6-0.5c0.6-0.1,1.2-0.2,1.9-0.2c1.1,0,2.1,0.2,3,0.6c0.9,0.4,1.6,0.9,2.2,1.6c0.6,0.7,1.1,1.5,1.4,2.5
			c0.3,1,0.5,2,0.5,3.1V254h-6.2v-13.2c0-1-0.2-1.8-0.7-2.4s-1.2-0.9-2.1-0.9c-0.7,0-1.3,0.1-1.9,0.4c-0.6,0.3-1.2,0.7-1.7,1.2V254
			H600.8z"/>
		<path d="M638.8,238.1c-0.2,0.2-0.4,0.4-0.5,0.5c-0.2,0.1-0.4,0.2-0.7,0.2c-0.3,0-0.6-0.1-0.8-0.2c-0.2-0.1-0.5-0.3-0.8-0.5
			s-0.7-0.3-1.1-0.5c-0.4-0.1-0.9-0.2-1.5-0.2c-0.8,0-1.4,0.1-2,0.4c-0.6,0.3-1,0.7-1.4,1.2s-0.6,1.2-0.8,1.9
			c-0.2,0.8-0.3,1.6-0.3,2.6c0,2,0.4,3.5,1.1,4.6s1.8,1.6,3.2,1.6c0.7,0,1.3-0.1,1.7-0.3c0.4-0.2,0.8-0.4,1.1-0.6
			c0.3-0.2,0.6-0.4,0.8-0.6c0.2-0.2,0.6-0.3,0.9-0.3c0.5,0,0.9,0.2,1.1,0.5l1.8,2.2c-0.6,0.7-1.3,1.3-2,1.8
			c-0.7,0.5-1.4,0.8-2.2,1.1c-0.7,0.3-1.5,0.4-2.2,0.5c-0.7,0.1-1.5,0.1-2.2,0.1c-1.3,0-2.5-0.2-3.6-0.7s-2.2-1.2-3-2.1
			c-0.9-0.9-1.6-2-2.1-3.4c-0.5-1.3-0.8-2.9-0.8-4.6c0-1.5,0.2-2.9,0.7-4.2c0.4-1.3,1.1-2.4,2-3.4c0.9-1,2-1.7,3.2-2.2
			c1.3-0.5,2.8-0.8,4.5-0.8c1.6,0,3.1,0.3,4.3,0.8s2.3,1.3,3.3,2.3L638.8,238.1z"/>
		<path d="M651.6,259.3c-0.2,0.4-0.4,0.7-0.7,0.9c-0.3,0.2-0.7,0.3-1.3,0.3H645l4-8.4l-8.3-18.9h5.5c0.5,0,0.9,0.1,1.1,0.3
			s0.5,0.5,0.6,0.8l3.4,8.9c0.3,0.8,0.6,1.7,0.8,2.5c0.1-0.4,0.3-0.8,0.4-1.3c0.2-0.4,0.3-0.8,0.5-1.3l3.1-8.9
			c0.1-0.3,0.3-0.6,0.6-0.8c0.3-0.2,0.6-0.3,1-0.3h5L651.6,259.3z"/>
	</g>
</g>
<g id="Layer_5">
</g>
</svg>
