<?xml version="1.0" encoding="utf-8"?>
<!-- Generator: Adobe Illustrator 18.0.0, SVG Export Plug-In . SVG Version: 6.00 Build 0)  -->
<!DOCTYPE svg PUBLIC "-//W3C//DTD SVG 1.1//EN" "http://www.w3.org/Graphics/SVG/1.1/DTD/svg11.dtd">
<svg version="1.1" id="Layer_1" xmlns="http://www.w3.org/2000/svg" xmlns:xlink="http://www.w3.org/1999/xlink" x="0px" y="0px"
	 viewBox="0 0 428.3 154.7" enable-background="new 0 0 428.3 154.7" xml:space="preserve">
<rect x="12.7" y="15.7" fill="none" width="150.6" height="141.1"/>
<path fill="#5A93B7" d="M44,123.5c0,2.5,0,4.9,0,7.4c-3.5,0-7,0-10.5,0c-0.5,0-0.4-0.2-0.4-0.5v-7c0-0.3,0.1-0.6-0.1-0.9
	c-0.1-1.1-0.6-1.7-1.8-1.9c-0.7-0.1-1.4-0.1-2.1,0c-0.9,0.2-1.4,0.6-1.6,1.6c-0.1,0.3-0.1,0.7-0.1,1c0,2.6,0,5.1,0,7.7H16.5
	c0-2.5,0-5,0-7.5c0-0.2,0-0.4,0-0.6c0-8.3,0-16.7,0-25c0-0.9,0.2-1.5,0.7-2.3c2.7-3.6,3.6-7.8,3.6-12.2c0.7-0.2,1.4-0.4,2.1-0.3
	c0,0.3,0.1,0.6,0.1,0.9c0.2,1.8,0.8,3.3,2.3,4.4c1.5,1.2,3.3,1.4,5.1,1.5c0.6,0,1.3-0.1,1.9-0.2c1.4-0.3,2.6-0.9,3.6-2
	c1.2-1.4,1.5-3,1.6-4.7c0.7,0.1,1.4,0.2,2.1,0.3c0,0.7,0,1.4,0.1,2.1c0.1,1.3,0.3,2.7,0.6,4c0.5,2.3,1.4,4.4,2.9,6.2
	c0.6,0.8,0.8,1.6,0.8,2.6c0,5.3,0,10.7,0,16C43.9,117.2,43.9,120.4,44,123.5"/>
<path fill="#D29674" d="M50.2,60c-0.2,0.8-0.3,1.6-0.5,2.5c-0.6-0.6-0.9-1.2-1.2-1.9c-1.3-2.5-2.3-5.2-2.8-8
	c-0.2-1.2-0.4-2.5-0.3-3.8c0-0.3,0-0.5-0.4-0.4c-1.4,0.4-0.7-9.8-6.2-8.7c-2.8,0.5-13.6,1.8-16.4,2.2c-1.5,0.2-5,1.8-6.6,2
	c-1.5,0.1-1.7,5.9-3.2,5.9c-3,0.2-1.8,2.5,0,2.7c0.4,0,2,0.5,1.9,0.9c-0.5,2.2-1.1,4.3-2,6.3c-0.4,1-0.9,2-1.7,2.9
	c-0.3-0.9-0.4-1.7-0.5-2.5c-1.2,0-1.7,0.5-1.7,1.7c0,0.9,0.2,1.8,0.4,2.7c0.2,1,0.7,2,0.7,3.1c0,0.7,0.7,1.1,1.4,1
	c0.4-0.1,0.5,0,0.5,0.4c0,0.2,0.1,0.3,0.1,0.5c0.8,3.3,2.5,6.1,5.1,8.3c1.9,1.6,4.1,2.5,6.5,3.1c0.2,0.1,0.5,0,0.5,0.3
	c0,0.5,0.1,1,0,1.4c-0.1,0.3-0.5,0.1-0.7,0.3c-0.1,0-0.1,0.1-0.2,0.1c0,0.3,0.1,0.6,0.1,0.9c0.2,1.8,0.8,3.3,2.3,4.4
	c1.5,1.2,3.3,1.4,5.1,1.5c0.6,0,1.3,0,1.9-0.2c1.4-0.3,2.6-0.9,3.6-2c1.2-1.4,1.5-3,1.6-4.7c-0.1,0-0.3-0.1-0.4-0.1
	c-0.4,0-0.5-0.2-0.5-0.6c0-1.1,0-1.1,1.1-1.5c0.1,0,0.2-0.1,0.3-0.1c3.3-1,6.1-2.7,8.2-5.5c1.4-1.9,2.3-4,2.8-6.3
	c0.1-0.3,0.1-0.4,0.5-0.3c0.9,0.1,1.5-0.4,1.5-1.3c0-0.6,0.1-1.1,0.3-1.6c0.4-1.3,0.8-2.5,0.7-3.9C51.9,60.7,51.5,59.8,50.2,60"/>
<path fill="#D8D43A" d="M50.2,60c-0.2,0.8-0.3,1.6-0.5,2.5c-0.6-0.6-0.9-1.2-1.2-1.9c-1.3-2.5-2.3-5.2-2.8-8
	c-0.2-1.2-0.5-0.8-0.5-2.1c0-0.3-0.2-1.7-0.5-2c-1.6-1.6-1.3-7.7-6.3-6.7c-2.8,0.5-5.2,0.1-8,0.5c-1.5,0.2-6.6,0-8.2,0.1
	c-1.5,0.1-4.2,2.7-5.7,2.8c-0.6,0-1.1,2.9-1.7,2.9c-0.4,0-0.3,4.9-0.4,5.2c-0.5,2.2-1.1,4.3-2,6.3c-0.4,1-0.9,2-1.7,2.9
	c-0.3-0.9-2.1,0-2.2-0.8c-0.6-4-2-13.8-1-17.7c1.4-5.3,3-7.7,7.9-10c7.4-3.5,22.3-3.8,29.6,0c5,2.6,7.4,10.1,8.3,15.6
	c0.6,3.5-0.7,8.6-1.3,12.1C51.9,61.7,50.2,59.9,50.2,60"/>
<path fill="#D29674" d="M20.7,83.3c0,4.4-0.9,8.6-3.6,12.2c-0.5,0.7-0.7,1.4-0.7,2.3c0,8.3,0,16.7,0,25c0,0.2,0,0.4,0,0.6
	c-1.6,1.7-3.6,1.9-5.3,0.5c-0.7-0.6-1.2-1.4-1.2-2.4c-0.1-2.7,0-5.4,0.1-8c0.1-2.6,0.3-5.2,0.6-7.8c0.6-6,1.6-11.9,3.4-17.6
	c0.5-1.6,1.4-2.8,2.9-3.6C18.2,83.9,19.4,83.4,20.7,83.3"/>
<path fill="#D29674" d="M32.9,122.5c0.1,0.3,0.1,0.6,0.1,0.9v7c0,0.3,0,0.5,0.4,0.5c3.5,0,7,0,10.5,0c0,4.9,0,9.9,0,14.8
	c0,0.6,0,1.1,0,1.7c-0.2,0.1-0.5,0.1-0.7,0.2c-3.4,0.7-6.8,1.4-10.2,2.2c0-0.3,0-0.5,0-0.8c0-5.7,0-11.4,0-17.1c0-2.9,0-5.8,0-8.8
	C32.9,122.9,32.9,122.7,32.9,122.5"/>
<path fill="#D29674" d="M16.5,131h10.9c0,6.3,0,12.5,0,18.8c-2.1-0.4-4.3-0.9-6.4-1.4c-1.5-0.3-3-0.7-4.5-1v-15.7
	C16.5,131.5,16.5,131.2,16.5,131"/>
<path fill="#2C3D52" d="M16.5,147.4c1.5,0.3,3,0.7,4.5,1c2.1,0.5,4.3,0.9,6.4,1.4c0.1,1.4,0.1,1.4-1.3,1.4c-3.8,0-7.5,0-11.2,0
	c-0.5,0-0.6-0.1-0.6-0.6C14.4,149.1,15,147.9,16.5,147.4"/>
<path fill="#2C3D52" d="M33,149.8c3.4-0.7,6.8-1.4,10.2-2.2c0.2-0.1,0.5-0.1,0.7-0.2c1.6,0.6,2.1,1.8,2.2,3.3c0,0.3,0,0.4-0.4,0.4
	c-4.1,0-8.3,0-12.4,0c-0.3,0-0.4-0.1-0.4-0.4C33,150.4,33,150.1,33,149.8"/>
<path fill="none" stroke="#1C1C1C" stroke-width="1.4985" stroke-linecap="round" stroke-linejoin="round" stroke-miterlimit="10" d="
	M21.8,71.9c0,0,7.5,6.5,16.4,0"/>
<path fill="#1F1F1F" d="M26.3,59.3c0,1.4-1.2,2.6-2.8,2.6c-1.5,0-2.8-1.2-2.8-2.6c0-1.4,1.2-2.6,2.8-2.6
	C25,56.7,26.3,57.8,26.3,59.3"/>
<path fill="#1F1F1F" d="M38.5,59.3c0,1.4-1.2,2.6-2.8,2.6S33,60.7,33,59.3c0-1.4,1.2-2.6,2.8-2.6S38.5,57.8,38.5,59.3"/>
<path fill="#D29674" d="M80.3,86.5c-3-0.3-6-0.5-9-0.8c-5-0.5-7.8-0.2-12.8-0.7c-0.9-0.1-2.8,0-4.5,0.3c-2.2,0.4-3.9,0.9-5.4,2.1
	c-1,0.8-4.5,9-5.5,8.2c-2.3-1.9-3.5-7-3.3-6.3c-1-2.9-0.8-4.4-0.3-6c0.2-0.8,5.9-1.7,6.7-1.9c3.5-0.9,7.2-1.4,10.8-1.7
	c2.8-0.2,5.6-0.3,8.4-0.3c1.8,0,3.5,0.1,5.3,0.1c2.6,0.1,5.1,0.3,7.7,0.5c1.6,0.2,2.7,0.9,3.2,2.5c0.5,1.5,0,2.7-1.2,3.7
	C80.4,86.4,80.4,86.5,80.3,86.5"/>
<rect x="12.7" y="15.7" fill="none" width="150.6" height="141.1"/>
<rect x="16.5" y="129.7" fill="#5A93B7" width="10.9" height="15.5"/>
<rect x="33" y="130.4" fill="#5A93B7" width="10.9" height="15.3"/>
<ellipse fill="#D8D43A" cx="29.5" cy="30" rx="6.9" ry="6"/>
<path fill="#E4B4A2" d="M123.5,71.6c-5.2,0-10.2,1-14.5,4.2c-0.9,0.6-1.7,0.9-2.7,0.9c-9.9,0-19.8,0-29.6,0c-0.3,0-0.5,0-0.8,0
	c-2,1.9-2.2,4.2-0.5,6.2c0.7,0.9,1.7,1.4,2.8,1.4c3.2,0.1,6.3,0,9.5-0.2c3.1-0.1,6.1-0.3,9.2-0.7c7.1-0.7,14.1-1.8,20.9-4.1
	c1.9-0.6,3.4-1.7,4.2-3.5C122.7,74.5,123.3,73.1,123.5,71.6"/>
<path fill="#112029" d="M93.9,121.8c0,2.6,0,5.2,0,7.9c-3.7,0-7.4,0-11.2,0c-0.5,0-0.4-0.3-0.4-0.6v-7.5c0-0.3,0.1-0.7-0.1-1
	c-0.1-1.2-0.7-1.8-1.9-2c-0.8-0.1-1.5-0.1-2.3,0c-1,0.2-1.5,0.7-1.7,1.7c-0.1,0.4-0.1,0.7-0.1,1.1c0,2.7,0,5.5,0,8.2H64.7
	c0-2.7,0-5.3,0-8c0-0.2,0-0.5,0-0.7c0-8.9,0-17.7,0-26.6c0-0.9,0.2-1.6,0.8-2.4c2.9-3.8,3.8-8.3,3.8-13c0.7-0.2,1.5-0.5,2.2-0.3
	c0,0.3,0.1,0.6,0.1,1c0.2,1.9,0.9,3.5,2.4,4.7c1.6,1.3,3.5,1.5,5.4,1.6c0.7,0,1.4-0.1,2-0.2c1.5-0.3,2.8-0.9,3.8-2.1
	c1.3-1.4,1.6-3.2,1.7-5c0.7,0.1,1.5,0.2,2.2,0.4c0,0.8,0,1.5,0.1,2.3c0.1,1.4,0.3,2.8,0.7,4.2c0.6,2.4,1.5,4.7,3.1,6.6
	c0.7,0.8,0.9,1.7,0.9,2.7c0,5.7,0,11.3,0,17C93.9,115,93.9,118.4,93.9,121.8"/>
<path fill="#E0B495" d="M100.6,54.2c-0.2,0.8-0.4,1.7-0.6,2.6c-0.6-0.6-1-1.3-1.3-2c-1.4-2.7-2.4-5.5-2.9-8.5
	c-0.2-1.3-0.4-2.7-0.4-4c0-0.4,0-0.5-0.5-0.4c-3.6,1-2.9-10-6.6-9.3c-3,0.5-14.4,1.9-17.4,2.3c-1.6,0.2-5.4,1.9-7,2.1
	c-1.6,0.1-1.8,6.2-3.4,6.3c-3.1,0.2-1.9,2.7,0,2.8c0.5,0,2.2,0.5,2.1,0.9c-0.5,2.3-1.2,4.5-2.1,6.7c-0.5,1.1-0.9,2.1-1.8,3.1
	c-0.3-0.9-0.4-1.8-0.6-2.6c-1.3,0-1.8,0.5-1.8,1.8c0,1,0.2,2,0.4,2.9c0.3,1.1,0.8,2.1,0.7,3.3c0,0.7,0.7,1.2,1.5,1.1
	c0.4-0.1,0.5,0,0.6,0.4c0,0.2,0.1,0.4,0.1,0.5c0.9,3.5,2.6,6.5,5.5,8.8c2,1.7,4.4,2.7,6.9,3.3c0.2,0.1,0.5,0,0.5,0.3
	c0,0.5,0.1,1,0,1.5c-0.1,0.3-0.5,0.1-0.8,0.3c-0.1,0-0.1,0.1-0.2,0.1c0,0.3,0.1,0.6,0.1,1c0.2,1.9,0.9,3.5,2.4,4.7
	c1.6,1.3,3.5,1.5,5.4,1.6c0.7,0,1.4-0.1,2-0.2c1.5-0.3,2.8-0.9,3.8-2.1c1.3-1.4,1.6-3.2,1.7-5c-0.2,0-0.3-0.1-0.5-0.1
	c-0.4,0-0.5-0.2-0.5-0.6c0-1.2,0-1.2,1.1-1.5c0.1,0,0.2-0.1,0.4-0.1c3.5-1,6.5-2.9,8.7-5.8c1.5-2,2.4-4.3,3-6.7
	c0.1-0.3,0.1-0.4,0.5-0.4c0.9,0.1,1.6-0.4,1.6-1.4c0-0.6,0.2-1.2,0.3-1.7c0.4-1.3,0.8-2.7,0.8-4.1C102.4,54.9,101.9,54,100.6,54.2"
	/>
<path fill="#2C2B24" d="M100.6,54.2c-0.2,0.8-0.4,1.7-0.6,2.6c-0.6-0.6-1-1.3-1.3-2c-1.4-2.7-2.4-5.5-2.9-8.5
	c-0.2-1.3-0.4-2.7-0.4-4c0-0.4,0-0.5-0.5-0.4c-3.6,1-3.2-7.8-7-7.1c-3,0.5-5.5,0.1-8.6,0.5c-1.6,0.2-4.9,0.9-6.5,1
	c-1.6,0.1-3.2,2.5-4.8,2.5c-0.6,0-2.2,0.1-2.8,0c-0.5,0-2.7,7.7-2.8,8.1c-0.5,2.3-1.2,4.5-2.1,6.7c-0.5,1.1-0.9,2.1-1.8,3.1
	c-0.3-0.9-2.2,0-2.4-0.8c-0.7-4.2-5-15.4-4-19.6c1.4-5.6,6.1-7.4,11.3-9.9c7.9-3.7,23.7-4,31.5,0c5.3,2.7,10.8,10.4,11.7,16.3
	c0.6,3.7-3.6,9.5-4.3,13.2C102.4,56,100.6,54.1,100.6,54.2"/>
<path fill="#E0B495" d="M69.2,78.9c0,4.7-0.9,9.2-3.8,13c-0.6,0.8-0.8,1.5-0.8,2.4c0,8.9,0,17.8,0,26.6c0,0.2,0,0.5,0,0.7
	c-1.7,1.8-3.8,2-5.6,0.5c-0.8-0.6-1.2-1.5-1.3-2.5c-0.1-2.9,0-5.7,0.2-8.6c0.1-2.8,0.3-5.5,0.6-8.3c0.7-6.4,1.7-12.7,3.7-18.8
	c0.6-1.7,1.5-3,3.1-3.8C66.6,79.6,67.8,79.1,69.2,78.9"/>
<path fill="#E0B495" d="M82.2,120.7c0.1,0.3,0.1,0.6,0.1,1v7.5c0,0.3,0,0.6,0.5,0.6c3.7,0,7.4,0,11.2,0c0,5.3,0,10.5,0,15.7
	c0,0.6,0,1.2,0,1.8c-0.3,0.1-0.5,0.1-0.8,0.2c-3.6,0.8-7.3,1.5-10.9,2.3c0-0.3,0-0.6,0-0.9c0-6.1,0-12.1,0-18.2c0-3.1,0-6.2,0-9.3
	C82.2,121.1,82.2,120.9,82.2,120.7"/>
<path fill="#E0B495" d="M64.7,129.6h11.6c0,6.7,0,13.3,0,20c-2.3-0.5-4.5-1-6.8-1.4c-1.6-0.3-3.2-0.7-4.8-1.1v-16.7
	C64.7,130.2,64.7,129.9,64.7,129.6"/>
<path fill="#2C3D52" d="M64.7,147.2c1.6,0.4,3.2,0.7,4.8,1.1c2.3,0.5,4.5,1,6.8,1.4c0.1,1.5,0.1,1.5-1.4,1.5c-4,0-8,0-12,0
	c-0.5,0-0.7-0.1-0.6-0.7C62.5,148.9,63.1,147.7,64.7,147.2"/>
<path fill="#2C3D52" d="M82.3,149.7c3.6-0.8,7.2-1.5,10.9-2.3c0.3-0.1,0.5-0.1,0.8-0.2c1.7,0.6,2.3,1.9,2.4,3.5c0,0.3,0,0.4-0.4,0.4
	c-4.4,0-8.8,0-13.2,0c-0.3,0-0.4-0.1-0.4-0.4C82.3,150.4,82.3,150,82.3,149.7"/>
<path fill="none" stroke="#1C1C1C" stroke-width="1.6828" stroke-linecap="round" stroke-linejoin="round" stroke-miterlimit="10" d="
	M67.9,66.1c0,0,10.1,8.6,22.2,0"/>
<path fill="#1F1F1F" d="M75.1,53.4c0,0.9-1.3,1.7-2.9,1.7c-1.6,0-2.9-0.8-2.9-1.7c0-0.9,1.3-1.7,2.9-1.7
	C73.8,51.7,75.1,52.5,75.1,53.4"/>
<path fill="#1F1F1F" d="M88.1,53.4c0,0.9-1.3,1.7-2.9,1.7c-1.6,0-2.9-0.8-2.9-1.7c0-0.9,1.3-1.7,2.9-1.7
	C86.8,51.7,88.1,52.5,88.1,53.4"/>
<path fill="#E0B495" d="M130.6,93.4c-3.2-0.9-6.5-1.8-9.7-2.7c-5.5-1.6-8.5-1.8-14-3.4c-1-0.3-3-0.6-5.1-0.6c-2.5,0-4.5,0.2-6.4,1.3
	c-1.3,0.7-1,4.9-2.5,4.6c-0.7-0.1-3.9-7.1-3.7-6.4c-1-2.4-1.2-5.5-0.4-7.1c0.4-0.8,4.2,1.8,5,1.8c4.1-0.3,8.2-0.1,12.3,0.4
	c3.1,0.4,6.2,0.8,9.3,1.4c2,0.4,3.9,0.8,5.8,1.3c2.8,0.7,5.6,1.3,8.4,2.1c1.7,0.5,2.8,1.6,3.1,3.4c0.2,1.7-0.6,3-2.1,3.9
	C130.7,93.3,130.6,93.4,130.6,93.4"/>
<path fill="#4A6CA2" d="M57.8,93.8c0,0,5.7,1.7,6.9,3.4c0.1,0.1-0.3,17.1,0,13.9v0.3c0,0,14.8,4.5,29.2,0.2l0-19.3l11.4-2.1
	l-2.5-9.4c0,0-5.6-0.5-8.9-0.1c0,0-3.9-1.9-6.9-2.3c0,0-6.4,8.5-15.6,0.1c0,0-7.8,0.3-9.3,5.4L57.8,93.8z"/>
<rect x="64.7" y="128.3" fill="#112029" width="11.6" height="16.5"/>
<rect x="82.3" y="129.1" fill="#112029" width="11.6" height="16.3"/>
<path fill="#CE9374" d="M280.9,75.8c3.2,0.7,6.5,1.4,9.7,2.1c5.4,1.2,8.2,2.4,13.7,3.5c1,0.2,2.9,0.9,4.7,1.8c2.2,1.2,3.8,2.2,5,4
	c0.8,1.2,2.1,2.7,3.5,3.1c0.7,0.2,3.2-2.4,2.6-1.9c1.9-1.6,3.6-4.2,3.6-6c0-0.9-4.5-0.3-5.2-0.8c-3.4-2.1-7.1-3.8-10.8-5.3
	c-2.9-1.1-5.8-2.1-8.8-3.1c-1.9-0.6-3.7-1.1-5.6-1.6c-2.8-0.7-5.5-1.4-8.3-2c-1.7-0.4-3.2,0.1-4.2,1.5c-1,1.4-0.9,2.9,0,4.3
	C280.8,75.6,280.8,75.7,280.9,75.8"/>
<path fill="#DEB595" d="M336,74.3c3.2,0.7,6.5,1.4,9.7,2.1c5.4,1.2,8.2,2.4,13.7,3.5c1,0.2,2.9,0.9,4.7,1.8c2.2,1.2,3.8,2.2,5,4
	c0.8,1.2,2.1,2.7,3.5,3.1c0.7,0.2,3.2-2.4,2.6-1.9c1.9-1.6,3.6-4.2,3.6-6c0-0.9-4.5-0.3-5.2-0.8c-3.4-2.1-7.1-3.8-10.8-5.3
	c-2.9-1.1-5.8-2.1-8.8-3.1c-1.9-0.6-3.8-1.1-5.6-1.6c-2.8-0.7-5.5-1.4-8.3-2c-1.7-0.4-3.2,0.1-4.2,1.5c-1,1.4-0.9,2.9,0,4.3
	C335.9,74.1,336,74.2,336,74.3"/>
<path fill="#112029" d="M319,122.2c0,2.6,0,5.2,0,7.7c3.7,0,7.3,0,11,0c0.5,0,0.4-0.3,0.4-0.6V122c0-0.3-0.1-0.6,0.1-1
	c0.1-1.2,0.7-1.8,1.8-2c0.7-0.1,1.5-0.1,2.2,0c1,0.2,1.5,0.7,1.7,1.6c0.1,0.4,0.1,0.7,0.1,1.1c0,2.7,0,5.4,0,8.1h11.4
	c0-2.6,0-5.2,0-7.8c0-0.2,0-0.4,0-0.7c0-8.7,0-17.4,0-26.1c0-0.9-0.2-1.6-0.8-2.4c-2.8-3.8-3.7-8.2-3.7-12.8
	c-0.7-0.2-1.4-0.4-2.2-0.3c0,0.3-0.1,0.6-0.1,0.9c-0.2,1.8-0.9,3.4-2.4,4.6c-1.6,1.3-3.4,1.5-5.3,1.5c-0.6,0-1.3-0.1-2-0.2
	c-1.5-0.3-2.8-0.9-3.8-2.1c-1.3-1.4-1.6-3.1-1.7-4.9c-0.7,0.1-1.5,0.2-2.2,0.4c0,0.7,0,1.5-0.1,2.2c-0.1,1.4-0.3,2.8-0.6,4.1
	c-0.6,2.4-1.4,4.6-3,6.5c-0.7,0.8-0.9,1.6-0.8,2.7c0,5.6,0,11.1,0,16.7C319,115.5,319,118.9,319,122.2"/>
<path fill="#CE9374" d="M343.2,80.1c0,4.6,0.9,9,3.7,12.8c0.6,0.8,0.8,1.5,0.8,2.4c0,8.7,0,17.4,0,26.2c0,0.2,0,0.4,0,0.7
	c1.7,1.8,3.7,2,5.5,0.5c0.8-0.6,1.2-1.5,1.2-2.5c0.1-2.8,0-5.6-0.1-8.4c-0.1-2.7-0.3-5.4-0.6-8.1c-0.6-6.3-1.6-12.4-3.6-18.4
	c-0.6-1.7-1.5-3-3.1-3.8C345.8,80.8,344.6,80.3,343.2,80.1"/>
<path fill="#CE9374" d="M330.5,121.1c-0.1,0.3-0.1,0.6-0.1,1v7.3c0,0.3,0,0.6-0.4,0.6c-3.7,0-7.3,0-11,0c0,5.2,0,10.3,0,15.5
	c0,0.6,0,1.2,0,1.8c0.2,0.1,0.5,0.1,0.8,0.2c3.6,0.8,7.1,1.5,10.7,2.3c0-0.3,0-0.6,0-0.8c0-5.9,0-11.9,0-17.9c0-3,0-6.1,0-9.1
	C330.5,121.5,330.5,121.3,330.5,121.1"/>
<path fill="#112029" d="M338.2,71.2c0,0,2.3,0,2.4,0c0.1-0.1,0.5,6.8,1.3,8.4l-3.1,0.1C338.8,79.7,338.7,73,338.2,71.2z"/>
<path fill="#CE9374" d="M312.4,55.8c0.2,0.8,0.4,1.7,0.6,2.6c0.6-0.6,0.9-1.3,1.3-2c1.4-2.6,2.4-5.4,2.9-8.3
	c0.2-1.3,0.4-2.6,0.4-3.9c0-0.4,0-0.5,0.5-0.4c3.6,1,2.8-9.8,6.5-9.1c3,0.5,14.3,0.2,17.3,0.6c1.6,0.2,4.4-0.1,5.9,0.1
	c1.6,0.1,2.6,9.7,4.2,9.8c3.1,0.2,1.9,2.6,0,2.8c-0.4,0-2.1,0.5-2,0.9c0.5,2.2,1.2,4.5,2.1,6.6c0.4,1,0.9,2.1,1.8,3
	c0.3-0.9,0.4-1.7,0.5-2.6c1.3,0,1.8,0.5,1.8,1.8c0,1-0.2,1.9-0.4,2.9c-0.3,1.1-0.8,2.1-0.7,3.2c0,0.7-0.7,1.2-1.5,1.1
	c-0.4-0.1-0.5,0-0.6,0.4c0,0.2-0.1,0.3-0.1,0.5c-0.9,3.5-2.6,6.4-5.4,8.7c-2,1.6-4.3,2.6-6.8,3.3c-0.2,0.1-0.5,0-0.5,0.3
	c0,0.5-0.1,1,0,1.5c0.1,0.3,0.5,0.1,0.7,0.3c0.1,0,0.1,0.1,0.2,0.1c0,0.3-0.1,0.6-0.1,0.9c-0.2,1.8-0.9,3.4-2.4,4.6
	c-1.6,1.3-3.4,1.5-5.3,1.5c-0.6,0-1.3-0.1-2-0.2c-1.5-0.3-2.7-0.9-3.8-2.1c-1.3-1.4-1.6-3.1-1.7-4.9c0.2,0,0.3-0.1,0.5-0.1
	c0.4,0,0.5-0.2,0.5-0.6c0-1.2,0-1.2-1.1-1.5c-0.1,0-0.2-0.1-0.3-0.1c-3.5-1-6.4-2.8-8.6-5.7c-1.5-2-2.4-4.2-2.9-6.6
	c-0.1-0.3-0.1-0.4-0.5-0.4c-0.9,0.1-1.6-0.4-1.6-1.4c0-0.6-0.1-1.1-0.3-1.7c-0.4-1.3-0.8-2.7-0.8-4.1
	C310.7,56.5,311.1,55.6,312.4,55.8"/>
<path fill="#CE9374" d="M347.7,129.9h-11.4c0,6.5,0,13.1,0,19.7c2.2-0.5,4.5-0.9,6.7-1.4c1.6-0.3,3.1-0.7,4.7-1v-16.4
	C347.7,130.4,347.7,130.2,347.7,129.9"/>
<path fill="#2C3D52" d="M347.7,147.1c-1.6,0.3-3.1,0.7-4.7,1c-2.2,0.5-4.5,0.9-6.7,1.4c-0.1,1.5-0.1,1.5,1.4,1.5c3.9,0,7.8,0,11.7,0
	c0.5,0,0.7-0.1,0.6-0.6C349.8,148.8,349.2,147.6,347.7,147.1"/>
<path fill="#2C3D52" d="M330.4,149.6c-3.6-0.8-7.1-1.5-10.7-2.3c-0.3-0.1-0.5-0.1-0.8-0.2c-1.6,0.6-2.2,1.9-2.3,3.5
	c0,0.3,0,0.4,0.4,0.4c4.3,0,8.7,0,13,0c0.3,0,0.4-0.1,0.4-0.4C330.4,150.3,330.4,149.9,330.4,149.6"/>
<path fill="none" stroke="#1C1C1C" stroke-linecap="round" stroke-linejoin="round" stroke-miterlimit="10" d="M342.1,68.2
	c0,0-7.8,6.8-17.2,0"/>
<path fill="#1F1F1F" d="M337.4,55c0,1.5,1.3,2.7,2.9,2.7c1.6,0,2.9-1.2,2.9-2.7c0-1.5-1.3-2.7-2.9-2.7
	C338.7,52.3,337.4,53.5,337.4,55"/>
<path fill="#1F1F1F" d="M324.6,55c0,1.5,1.3,2.7,2.9,2.7c1.6,0,2.9-1.2,2.9-2.7c0-1.5-1.3-2.7-2.9-2.7
	C325.9,52.3,324.6,53.5,324.6,55"/>
<rect x="336.3" y="128.6" fill="#112029" width="11.4" height="16.2"/>
<rect x="319" y="129.4" fill="#131C28" width="11.4" height="16"/>
<path fill="#2D2D2D" d="M355.5,101.1c0,0-5.9,2.5-7,5c-0.1,0.2,0.3,25.1,0,20.4v0.5c0,0-15.1,6.6-29.8,0.3l0-28.2l-9.8-10.9l1.5-8.4
	c0,0,4.4-3.6,8.9,0c0,0,3.3-0.4,6.4-1.1c0,0,6.5,12.4,15.8,0.2c0,0,8,0.5,9.4,7.9L355.5,101.1z"/>
<path fill="#232323" d="M337.1,36.3c2.7-0.2-10.3,1.8-10.3,1.8c-3.8,1.1-0.4,2.5-7.2,6.2c-2.7,1.4-6.3,17-6.3,20s-2.6,6.2-2.6,6.2
	c-0.7,2.8-1.5-6-1.5-6c-2,1.4-1.1,5.2-1.1,5.2c-3.1-3.2-0.6-9.7-0.6-9.7c-2.1-6.4,1.5-16.8,1.5-16.8c-4.1-3.4,1.8-10,1.8-10
	c-0.1-8.4,9.4-7.6,9.4-7.6c3.2-3.5,9.8-1.4,9.8-1.4l0.7,0.8c0,0-2.4-5.9,0-7.4c0,0-0.9-3,1.1-3.2c0,0,5.8-3,5.2,2.7
	c0,0,2.3,3,0.7,6.5c0,0,7.6-1.6,10.3,2.1c0,0,8.6,1.6,9.8,9.9c0,0,5,4.2,1.9,15c0,0,3.3,7.6,1,12.5c0,0,1.4,3.4-1.4,8.9
	c0,0-0.1-3.6-0.9-5s0,0.8-1.1,2.7c-1.1,1.8-1.1-5.2-1.9-8.2s-6.7-10.4-5.6-13.9c1.1-3.6-6.8-4.9-5.2-9.2c0,0-2.8-3.5-5.5-2.6"/>
<path fill="none" stroke="#D62049" stroke-miterlimit="10" d="M328.8,22.9c0,0,8-2.3,9.8-1.2"/>
<path fill="none" stroke="#A81F28" stroke-miterlimit="10" d="M338.6,22.9c0,0-7.5-0.2-9.1,1.3"/>
<path fill="#E4B4A2" d="M155.1,43.3c-0.2,0.9-0.4,1.9-0.6,2.9c-0.7-0.7-1.1-1.5-1.5-2.2c-1.6-3-2.7-6.1-3.3-9.4
	c-0.2-1.5-0.4-3-0.4-4.4c0-0.4,0-0.3-0.5-0.4c-4.2-1.2-3.2-11.1-7.4-10.4c-3.4,0.6-16,2.1-19.4,2.5c-4.1,0.6-10.1,0-8.2-0.2
	c1.8-0.2-1.6,9.5-3.4,9.5c-3.5,0.2-2.2,3,0,3.2c0.5,0.1,2.4,0.6,2.3,1c-0.6,2.5-1.4,5-2.4,7.4c-0.5,1.2-1,2.4-2,3.4
	c-0.4-1-0.5-2-0.6-2.9c-1.5,0-2,0.6-2,2c0,1.1,0.2,2.2,0.4,3.2c0.3,1.2,0.9,2.3,0.8,3.6c0,0.8,0.8,1.3,1.7,1.2
	c0.4-0.1,0.6,0,0.6,0.4c0,0.2,0.1,0.4,0.1,0.6c1.7,3.8,3.5,6.1,6.7,8.7c2.3,1.8,4.3,4.1,7.1,4.9c0.2,0.1,0.6,0,0.6,0.3
	c0,0.6,0.1,1.2,0,1.7c-0.1,0.3-0.6,0.1-0.8,0.3c-0.1,0.1-0.2,0.1-0.2,0.1c-0.1,0.4,0.1,0.7,0.2,1.1c0.2,2.1,1,3.9,2.7,5.2
	c1.8,1.4,3.9,1.7,6,1.7c0.7,0,1.5-0.1,2.3-0.2c1.6-0.4,3.1-1,4.3-2.3c1.4-1.6,1.8-3.6,1.9-5.6c-0.2,0-0.4-0.1-0.5-0.1
	c-0.5,0-0.6-0.2-0.6-0.7c0-1.3,0-1.3,1.2-1.7c0.1,0,0.3-0.1,0.4-0.1c3.9-1.2,6.2-3.6,8.7-6.9c1.7-2.2,3.7-4.3,4.3-7
	c0.1-0.4,0.2-0.5,0.6-0.4c1,0.2,1.8-0.5,1.8-1.6c0-0.7,0.2-1.3,0.4-1.9c0.5-1.5,0.9-3,0.9-4.6C157.1,44.1,156.6,43.1,155.1,43.3"/>
<path fill="#161617" d="M147.7,118.5c0,2.9,0,5.8,0,8.8c-4.1,0-8.3,0-12.4,0c-0.5,0-0.5-0.3-0.5-0.6v-8.3c0-0.4,0.1-0.7-0.1-1.1
	c-0.1-1.3-0.7-2-2.1-2.2c-0.8-0.1-1.7-0.1-2.5,0c-1.1,0.2-1.7,0.8-1.9,1.9c-0.1,0.4-0.1,0.8-0.1,1.2c0,3,0,6.1,0,9.1h-12.9
	c0-3,0-5.9,0-8.9c0-0.3,0-0.5,0-0.8c0-9.9,0-19.7,0-29.6c0-1,0.2-1.8,0.9-2.7c3.2-4.3,4.2-9.2,4.2-14.5c0.8-0.2,1.6-0.5,2.5-0.4
	c-0.1,0.4,0.1,0.7,0.2,1.1c0.2,2.1,1,3.9,2.7,5.2c1.8,1.4,3.9,1.7,6,1.7c0.7,0,1.5-0.1,2.3-0.2c1.6-0.4,3.1-1,4.3-2.3
	c1.4-1.6,1.8-3.6,1.9-5.6c0.8,0.1,1.6,0.3,2.5,0.4c0,0.8,0.1,1.7,0.1,2.5c0.1,1.6,0.4,3.2,0.7,4.7c0.7,2.7,1.6,5.2,3.4,7.4
	c0.8,0.9,1,1.9,0.9,3c0,6.3,0,12.6,0,18.9C147.7,111,147.7,114.7,147.7,118.5"/>
<path fill="#846445" d="M157.1,65.5c-0.2,0.9-2.2-2.8-2.4-1.7c-0.7-0.7-0.8-19-1.2-19.8c-1.6-3-3.2-3-3.8-6.3
	c-0.2-1.5-2.1-3.8-2.1-5.2c0-0.4-0.9-1.5-1.4-1.7c-4.8-1.2-6.2-9.1-8.7-8.7c-3.4,0.6-2.2-0.2-5.5,0.3c-1.8,0.2-6.1-0.1-7.9,0
	c-1.8,0.2-5.6-0.5-7.5-0.4c-0.7,0,0.5,8.2-0.2,8.2c-0.5-0.1-1.4,5.6-1.5,6c-0.6,2.5-3.3,4.3-4.3,6.7c-0.4,0.9-1.1,13.4-2.1,19.1
	c-0.3,2.1-1.5-10-1.8-9.8c-0.2-0.6-0.4,15.5-1.3,11.8c-0.6-2.7-1.8-13.4-1.1-18.5c0.4-2.9,0.7-5.7,0.9-8.5c0.2-2.2-1.4-0.5-1.1-2.5
	c0.3-2.6,0.7-8.4,1.3-10.7c1.6-6.3,8.7-9.2,14.5-12c8.8-4.1,16.6-2,25.3,2.5c5.9,3.1,12.7,10.2,13.7,16.7c0.7,4.1-0.4,28.7-1.1,32.8
	c0,0.1-1.2-10-1.2-9.9"/>
<path fill="#E4B4A2" d="M134.7,117.2c0.1,0.4,0.1,0.7,0.1,1.1v8.3c0,0.4,0,0.7,0.5,0.6c4.1,0,8.3,0,12.4,0c0,5.8,0,11.7,0,17.5
	c0,0.7,0,1.3,0,2c-0.3,0.1-0.6,0.2-0.9,0.2c-4,0.9-8.1,1.7-12.1,2.6c0-0.3,0-0.6,0-1c0-6.7,0-13.5,0-20.2c0-3.5,0-6.9,0-10.4
	C134.6,117.7,134.7,117.5,134.7,117.2"/>
<path fill="#E4B4A2" d="M115.2,127.3H128c0,7.4,0,14.8,0,22.3c-2.5-0.5-5.1-1.1-7.6-1.6c-1.8-0.4-3.5-0.8-5.3-1.2v-18.6
	C115.2,127.8,115.2,127.5,115.2,127.3"/>
<path fill="#282827" d="M115.2,146.7c1.8,0.4,3.5,0.8,5.3,1.2c2.5,0.5,5.1,1.1,7.6,1.6c0.1,1.6,0.1,1.6-1.6,1.6c-4.4,0-8.9,0-13.3,0
	c-0.6,0-0.7-0.1-0.7-0.7C112.7,148.7,113.4,147.3,115.2,146.7"/>
<path fill="#282827" d="M134.7,149.5c4-0.9,8.1-1.7,12.1-2.6c0.3-0.1,0.6-0.1,0.9-0.2c1.8,0.7,2.5,2.1,2.6,3.9c0,0.3,0,0.5-0.4,0.5
	c-4.9,0-9.8,0-14.7,0c-0.4,0-0.5-0.1-0.5-0.5C134.7,150.3,134.7,149.9,134.7,149.5"/>
<path fill="none" stroke="#1C1C1C" stroke-linecap="round" stroke-linejoin="round" stroke-miterlimit="10" d="M121.4,57.4
	c0,0,8.9,7.7,19.5,0"/>
<path fill="#1F1F1F" d="M126.8,42.4c0,1.7-1.5,3-3.3,3c-1.8,0-3.3-1.4-3.3-3c0-1.7,1.5-3,3.3-3C125.3,39.4,126.8,40.7,126.8,42.4"/>
<path fill="#1F1F1F" d="M141.3,42.4c0,1.7-1.5,3-3.3,3c-1.8,0-3.3-1.4-3.3-3c0-1.7,1.5-3,3.3-3C139.8,39.4,141.3,40.7,141.3,42.4"/>
<path fill="#D6A38E" d="M187,96.5c-3.3-1.8-6.5-3.7-9.8-5.5c-5.5-3.1-8.8-4.1-14.2-7.2c-1-0.6-3.1-1.4-5.4-1.9
	c-2.7-0.6-4.9-0.9-7.3-0.3c-1.5,0.4-2.4,5.1-3.9,4.4c-0.8-0.3-2.4-8.7-2.3-7.9c-0.5-2.8-0.2-2.8,1.1-4.3c0.6-0.8,4.4-0.4,5.3-0.3
	c4.5,0.8,8.9,2,13.2,3.6c3.3,1.2,6.5,2.5,9.7,4c2,0.9,4,1.9,6,2.9c2.9,1.4,5.7,2.9,8.6,4.5c1.7,1,2.7,2.4,2.4,4.4
	c-0.2,1.9-1.4,3.1-3.2,3.7C187.2,96.4,187.1,96.4,187,96.5"/>
<path fill="#282827" d="M158.1,84.8L158,74.3c0,0-6.5-2.1-10.2-1.6c0,0-4.6-2.3-7.8-2.3c0,0-7.2,9.4-17.3,0.1c0,0-5.4-0.3-9.6,2
	l-4.1,2.3c0,0,0.8,4,2.6,9.2c1,2.8,3.1,4.3,3.6,5c0.1,0.2-0.3,21.3,0,17.7v0.4c0,0,16.5,5,32.5,0.2l0-21.4
	C147.7,85.8,146.9,84.7,158.1,84.8z"/>
<path fill="none" stroke="#000000" stroke-miterlimit="10" d="M112.1,112.9"/>
<path fill="none" stroke="#000000" stroke-miterlimit="10" d="M111.6,101.9"/>
<path fill="none" stroke="#1C1C1C" stroke-linecap="round" stroke-linejoin="round" stroke-miterlimit="10" d="M121.8,57.3
	c0,0,8.8,7.8,19.4,0"/>
<path fill="#161616" d="M119.6,70.8l9,9.1c0,0,1.6-5.3,2.3-5c0,0-4.9-2.3-6.1-3.2c0,0-2-1.6-2.6-1.6L119.6,70.8z"/>
<path fill="#161616" d="M143.2,70.5l-9,9.1c0,0-1.6-5.3-2.3-5c0,0,4.9-2.3,6.1-3.2c0,0,2-1.6,2.6-1.6L143.2,70.5z"/>
<path fill="#1F1F1F" d="M128,149.5"/>
<line stroke="#020202" stroke-width="0.5" stroke-miterlimit="10" x1="132.6" y1="79.7" x2="132.6" y2="107.1"/>
<circle fill="#112029" cx="130.6" cy="81.8" r="0.8"/>
<circle fill="#112029" cx="130.6" cy="89.7" r="0.8"/>
<circle fill="#112029" cx="130.6" cy="105.6" r="0.8"/>
<circle fill="#112029" cx="130.5" cy="97.7" r="0.8"/>
<path fill="#161617" d="M134.7,117.2c0.1,0.3,0.1,0.6,0.1,0.9v7.1c0,0.3,0,0.6,0.5,0.6c4.1,0,8.3,0,12.4,0c0,5,0,10.1,0,15.1
	c0,0.6,0,2.8,0,3.3c-0.3,0.1-0.6,0.2-0.9,0.2c-4,0.7-8.1-0.2-12.1,0.5c0-0.3,0-0.5,0-0.8c0-5.8,0-11.6,0-17.4c0-3,0-5.9,0-8.9
	C134.6,117.7,134.7,117.5,134.7,117.2"/>
<path fill="#161617" d="M115.2,125.9H128c0,6.4,0,12.8,0,19.2c-2.5-0.5-5.1-0.9-7.6-1.4c-1.8-0.3-3.5,0.7-5.3,0.4v-17.4
	C115.2,126.4,115.2,126.1,115.2,125.9"/>
<path fill="#997457" d="M116.7,21.9c0,0-10.8-9.8-2.9-13.5c7.9-3.7,16.2-3.2,22.9-2.7s11.8,6.8,14.8,10.5c3,3.7-5.4-4.8-7.6-5.8
	c-2.2-1,8.5,6.2,10.6,11.3c0,0-6.8-7.4-9.7-8.9c0,0,11.5,11.5,12.3,17.2c0,0-9-13.6-17.5-14c0,0-7.5-0.2-10.3,1.6
	c0,0,8.8-1.9,11.9,0.5c0,0-10.4,0.2-15.3,3.2C126,21.5,117.8,23,116.7,21.9z"/>
<path fill="#9B5E37" d="M230.5,76c3.2,0.7,6.5,1.4,9.7,2.1c5.4,1.2,8.2,2.4,13.7,3.5c1,0.2,2.9,0.9,4.7,1.8c2.2,1.2,3.8,2.2,5,4
	c0.8,1.2,2.1,2.7,3.5,3.1c0.7,0.2,3.2-2.4,2.6-1.9c1.9-1.6,3.6-4.2,3.6-6c0-0.9-4.5-0.3-5.2-0.8c-3.4-2.1-7.1-3.8-10.8-5.3
	c-2.9-1.1-5.8-2.1-8.8-3.1c-1.9-0.6-3.7-1.1-5.6-1.6c-2.8-0.7-5.5-1.4-8.3-2c-1.7-0.4-3.2,0.1-4.2,1.5c-1,1.4-0.9,2.9,0,4.3
	C230.5,75.8,230.5,75.9,230.5,76"/>
<path fill="#B68C63" d="M236.4,81.6c-3.3,0.4-6.6,0.9-9.8,1.3c-5.5,0.7-8.4,1.7-13.9,2.4c-1,0.1-3,0.7-4.8,1.5c-2.2,1-4,1.9-5.3,3.6
	c-0.9,1.1-1.7-0.3-3.1,0c-0.7,0.2-3.6,0.2-3.1,0.8c-1.8-1.7-3.2-4.5-3.1-6.3c0.1-0.9,4.5,0,5.2-0.4c3.6-1.8,7.4-3.2,11.2-4.4
	c3-0.9,6-1.7,9-2.4c1.9-0.4,3.8-0.8,5.7-1.1c2.8-0.5,5.6-1,8.4-1.4c1.8-0.2,3.2,0.3,4.1,1.8c0.9,1.5,0.7,2.9-0.4,4.3
	C236.4,81.4,236.4,81.5,236.4,81.6"/>
<path fill="#D3A57F" d="M257.7,43.3c-0.2,0.9-0.4,1.9-0.6,2.9c-0.7-0.7-1.1-1.5-1.5-2.2c-1.6-3-2.7-6.1-3.3-9.4
	c-0.2-1.5-0.4-3-0.4-4.4c0-0.4,0-0.3-0.5-0.4c-4.2-1.2-3.2-11.1-7.4-10.4c-3.4,0.6-16,2.1-19.4,2.5c-1.8,0.2-6,2.2-7.8,2.3
	c-1.8,0.2-2,6.9-3.8,7c-3.5,0.2-2.2,3,0,3.2c0.5,0.1,2.4,0.6,2.3,1c-0.6,2.5-1.4,5-2.4,7.4c-0.5,1.2-1,2.4-2,3.4
	c-0.4-1-0.5-2-0.6-2.9c-1.5,0-2,0.6-2,2c0,1.1,0.2,2.2,0.4,3.2c0.3,1.2,0.9,2.3,0.8,3.6c0,0.8,0.8,1.3,1.7,1.2
	c0.4-0.1,0.6,0,0.6,0.4c0,0.2,0.1,0.4,0.1,0.6c1,3.9,2.9,7.3,6.1,9.8c2.3,1.8,4.9,3,7.7,3.7c0.2,0.1,0.6,0,0.6,0.3
	c0,0.6,0.1,1.2,0,1.7c-0.1,0.3-0.6,0.1-0.8,0.3c-0.1,0.1-0.2,0.1-0.2,0.1c-0.1,0.4,0.1,0.7,0.2,1.1c0.2,2.1,1,3.9,2.7,5.2
	c1.8,1.4,3.9,1.7,6,1.7c0.7,0,1.5-0.1,2.3-0.2c1.6-0.4,3.1-1,4.3-2.3c1.4-1.6,1.8-3.6,1.9-5.6c-0.2,0-0.4-0.1-0.5-0.1
	c-0.5,0-0.6-0.2-0.6-0.7c0-1.3,0-1.3,1.2-1.7c0.1,0,0.3-0.1,0.4-0.1c3.9-1.2,7.2-3.2,9.7-6.5c1.7-2.2,2.7-4.8,3.3-7.4
	c0.1-0.4,0.2-0.5,0.6-0.4c1,0.2,1.8-0.5,1.8-1.6c0-0.7,0.2-1.3,0.4-1.9c0.5-1.5,0.9-3,0.9-4.6C259.7,44.1,259.1,43.1,257.7,43.3"/>
<path fill="#112029" d="M268.6,122.3c0,2.6,0,5.2,0,7.7c3.7,0,7.3,0,11,0c0.5,0,0.4-0.3,0.4-0.6v-7.3c0-0.3-0.1-0.6,0.1-1
	c0.1-1.2,0.7-1.8,1.8-2c0.7-0.1,1.5-0.1,2.2,0c1,0.2,1.5,0.7,1.7,1.6c0.1,0.4,0.1,0.7,0.1,1.1c0,2.7,0,5.4,0,8.1h11.4
	c0-2.6,0-5.2,0-7.8c0-0.2,0-0.4,0-0.7c0-8.7,0-17.4,0-26.1c0-0.9-0.2-1.6-0.8-2.4c-2.8-3.8-3.7-8.2-3.7-12.8
	c-0.7-0.2-1.4-0.4-2.2-0.3c0,0.3-0.1,0.6-0.1,0.9c-0.2,1.8-0.9,3.4-2.4,4.6c-1.6,1.3-3.4,1.5-5.3,1.5c-0.6,0-1.3-0.1-2-0.2
	c-1.5-0.3-2.8-0.9-3.8-2.1c-1.3-1.4-1.6-3.1-1.7-4.9c-0.7,0.1-1.5,0.2-2.2,0.4c0,0.7,0,1.5-0.1,2.2c-0.1,1.4-0.3,2.8-0.6,4.1
	c-0.6,2.4-1.4,4.6-3,6.5c-0.7,0.8-0.9,1.6-0.8,2.7c0,5.6,0,11.1,0,16.7C268.6,115.7,268.6,119,268.6,122.3"/>
<path fill="#9B5E37" d="M292.9,80.3c0,4.6,0.9,9,3.7,12.8c0.6,0.8,0.8,1.5,0.8,2.4c0,8.7,0,17.4,0,26.2c0,0.2,0,0.4,0,0.7
	c1.7,1.8,3.7,2,5.5,0.5c0.8-0.6,1.2-1.5,1.2-2.5c0.1-2.8,0-5.6-0.1-8.4c-0.1-2.7-0.3-5.4-0.6-8.1c-0.6-6.3-1.6-12.4-3.6-18.4
	c-0.6-1.7-1.5-3-3.1-3.8C295.5,81,294.2,80.5,292.9,80.3"/>
<path fill="none" stroke="#000000" stroke-miterlimit="10" d="M300.5,108.6c0,0,0.1,7.4-0.5,9.7"/>
<path fill="#9B5E37" d="M280.1,121.3c-0.1,0.3-0.1,0.6-0.1,1v7.3c0,0.3,0,0.6-0.4,0.6c-3.7,0-7.3,0-11,0c0,5.2,0,10.3,0,15.5
	c0,0.6,0,1.2,0,1.8c0.2,0.1,0.5,0.1,0.8,0.2c3.6,0.8,7.1,1.5,10.7,2.3c0-0.3,0-0.6,0-0.8c0-5.9,0-11.9,0-17.9c0-3,0-6.1,0-9.1
	C280.1,121.7,280.1,121.5,280.1,121.3"/>
<path fill="none" stroke="#000000" stroke-miterlimit="10" d="M250.8,77.9c0,0-8-3.5-10.9-2.9"/>
<path fill="none" stroke="#C6C5C5" stroke-width="0.5" stroke-linecap="round" stroke-linejoin="round" stroke-miterlimit="10" d="
	M225.4,74.6c-0.3-0.2-0.6-0.2-0.9-0.2c-1.3,0.1-2.2,1.9-2,4.1c0.2,2.2,1.3,3.8,2.6,3.7c0.6,0,1.1-0.4,1.4-1"/>
<path fill="none" stroke="#A4A4A4" stroke-linecap="round" stroke-linejoin="round" stroke-miterlimit="10" d="M229.9,74.4
	c-0.4-0.3-0.8-0.5-1.2-0.5c-1.3,0.1-2.2,1.9-2,4.1c0.2,2.2,1.3,3.8,2.6,3.7c0.4,0,0.8-0.3,1.2-0.7"/>
<path fill="#D3A57F" d="M226.7,80.2c-5.2,0.8-10.2,0.6-15-1.9c-1-0.5-1.8-0.6-2.8-0.4c-9.8,1.6-19.5,3.1-29.3,4.6
	c-0.3,0-0.5,0.1-0.8,0.1c-2.3-1.6-2.9-3.8-1.5-6.1c0.6-1,1.4-1.6,2.5-1.8c3.1-0.6,6.3-1,9.4-1.3c3.1-0.3,6.1-0.6,9.2-0.8
	c7.1-0.4,14.2-0.4,21.3,0.8c2,0.3,3.6,1.1,4.7,2.8C225.4,77.4,226.2,78.7,226.7,80.2"/>
<path fill="#D3A57F" d="M296.6,79c-3.7-0.1-7.5-0.1-11.2-0.2c-6.3-0.1-9.7,0.5-16,0.4c-1.2,0-3.4,0.2-5.6,0.8
	c-2.7,0.8-4.7,1.5-6.6,3.2c-1.2,1.1-3.3-0.8-4.9-0.7c-0.8,0.1-2.7-0.1-2.2,0.5c-1.8-2.2-1.5-2.3-1.1-4.3c0.2-1,3.6-2.4,4.6-2.8
	c4.3-1.5,8.8-2.4,13.3-3.1c3.5-0.5,7-0.9,10.5-1.2c2.2-0.2,4.4-0.3,6.6-0.3c3.2-0.1,6.4-0.2,9.7-0.1c2,0,3.5,0.9,4.3,2.7
	c0.7,1.8,0.3,3.4-1.1,4.8C296.6,78.8,296.6,78.9,296.6,79"/>
<path fill="#112029" d="M287.9,70c0,0,2.3,0,2.4,0s0.5,6.8,1.3,8.4l-3.1,0.1C288.5,78.4,288.3,71.7,287.9,70z"/>
<path fill="#112029" d="M250.3,118.5c0,2.9,0,5.8,0,8.8c-4.1,0-8.3,0-12.4,0c-0.5,0-0.5-0.3-0.5-0.6v-8.3c0-0.4,0.1-0.7-0.1-1.1
	c-0.1-1.3-0.7-2-2.1-2.2c-0.8-0.1-1.7-0.1-2.5,0c-1.1,0.2-1.7,0.8-1.9,1.9c-0.1,0.4-0.1,0.8-0.1,1.2c0,3,0,6.1,0,9.1h-12.9
	c0-3,0-5.9,0-8.9c0-0.3,0-0.5,0-0.8c0-9.9,1.3-19.6,1.3-29.5c0-1-1.1-1.9-0.4-2.8c3.2-4.3,4.2-9.2,4.2-14.5c0.8-0.2,1.6-0.5,2.5-0.4
	c-0.1,0.4,0.1,0.7,0.2,1.1c0.2,2.1,1,3.9,2.7,5.2c1.8,1.4,3.9,1.7,6,1.7c0.7,0,1.5-0.1,2.3-0.2c1.6-0.4,3.1-1,4.3-2.3
	c1.4-1.6,1.8-3.6,1.9-5.6c0.8,0.1,1.6,0.3,2.5,0.4c0,0.8,0.1,1.7,0.1,2.5c0.1,1.6,0.4,3.2,0.7,4.7c0.7,2.7,1.6,5.2,3.4,7.4
	c0.8,0.9,1,1.9,0.9,3c0,6.3,0,12.6,0,18.9C250.2,111,250.3,114.8,250.3,118.5"/>
<path fill="#2C2B24" d="M257.7,43.3c-0.2,0.9-0.4,1.9-0.6,2.9c-0.7-0.7-1.1-1.5-1.5-2.2c-1.6-3-2.7-6.1-3.3-9.4
	c-0.2-1.5-0.4-3-0.4-4.4c0-0.4,0-0.3-0.5-0.4c-4.8-1.2-5.3-8.4-7.7-7.9c-3.4,0.6-6.2,0.2-9.5,0.6c-1.8,0.2-7.9,0-9.7,0.2
	c-1.8,0.2-4.9,3-6.7,3c-0.7,0,0,4.2-0.7,4.2c-0.5-0.1-1.6,5.2-1.7,5.7c-0.6,2.5-1.4,5-2.4,7.4c-0.5,1.2-1,2.4-2,3.4
	c-0.4-1-2.5,0-2.6-0.9c-0.7-4.7-2.4-16.3-1.2-21c1.6-6.3,3.5-9.1,9.3-11.8c8.8-4.1,26.4-4.5,35,0c5.9,3.1,8.8,12,9.8,18.5
	c0.7,4.1-0.8,10.2-1.6,14.3C259.7,45.4,257.7,43.2,257.7,43.3"/>
<path fill="#D3A57F" d="M237.3,117.3c0.1,0.4,0.1,0.7,0.1,1.1v8.3c0,0.4,0,0.7,0.5,0.6c4.1,0,8.2,0,12.3,0c0,5.8,0,11.7,0,17.5
	c0,0.7,0,1.3,0,2c-0.3,0.1-0.6,0.2-0.8,0.2c-4,0.9-8,1.7-12,2.6c0-0.3,0-0.6,0-1c0-6.7,0-13.5,0-20.2c0-3.5,0-6.9,0-10.4
	C237.3,117.8,237.3,117.5,237.3,117.3"/>
<path fill="#D3A57F" d="M217.8,127.3h12.9c0,7.4,0,14.8,0,22.3c-2.5-0.5-5.1-1.1-7.6-1.6c-1.8-0.4-3.5-0.8-5.3-1.2v-18.6
	C217.7,127.9,217.7,127.6,217.8,127.3"/>
<path fill="#D8D4C2" d="M217.7,146.8c1.8,0.4,3.5,0.8,5.3,1.2c2.5,0.5,5.1,1.1,7.6,1.6c0.1,1.6,0.1,1.6-1.6,1.6c-4.4,0-8.9,0-13.3,0
	c-0.6,0-0.7-0.1-0.7-0.7C215.3,148.7,216,147.4,217.7,146.8"/>
<path fill="#D8D4C2" d="M237.3,149.6c4-0.9,8.1-1.7,12.1-2.6c0.3-0.1,0.6-0.1,0.9-0.2c1.8,0.7,2.5,2.1,2.6,3.9c0,0.3,0,0.5-0.4,0.5
	c-4.9,0-9.8,0-14.7,0c-0.4,0-0.5-0.1-0.5-0.5C237.3,150.3,237.3,150,237.3,149.6"/>
<path fill="none" stroke="#1C1C1C" stroke-linecap="round" stroke-linejoin="round" stroke-miterlimit="10" d="M224,57.4
	c0,0,8.9,7.7,19.5,0"/>
<path fill="#1F1F1F" d="M229.3,42.4c0,1.7-1.5,3-3.3,3c-1.8,0-3.3-1.4-3.3-3c0-1.7,1.5-3,3.3-3C227.9,39.4,229.3,40.8,229.3,42.4"/>
<path fill="#1F1F1F" d="M243.8,42.4c0,1.7-1.5,3-3.3,3c-1.8,0-3.3-1.4-3.3-3c0-1.7,1.5-3,3.3-3C242.4,39.4,243.8,40.8,243.8,42.4"/>
<path fill="#C093C1" d="M260.6,83.6L260,72.8c0,0-5.9-0.6-9.6-0.1c0,0-4.6-2.3-7.8-2.3c0,0-7.2,9.4-17.3,0.1c0,0-8.6-0.5-14,0.8
	l-0.9,10.6c0,0,6.4,1.9,7.7,3.8c0.1,0.2-0.7,24.7-0.3,21.1v0.4c0,0,16.5,5,32.5,0.2l0-21.4C250.3,85.8,249.4,83.6,260.6,83.6z"/>
<path fill="none" stroke="#000000" stroke-miterlimit="10" d="M214.7,113.4"/>
<path fill="none" stroke="#000000" stroke-miterlimit="10" d="M214.2,102.4"/>
<path fill="none" stroke="#1C1C1C" stroke-linecap="round" stroke-linejoin="round" stroke-miterlimit="10" d="M224.4,57.4
	c0,0,8.8,7.8,19.4,0"/>
<path fill="#D1A6C2" d="M222.2,70.8l9,9.1c0,0,1.6-5.3,2.3-5c0,0-4.9-2.3-6.1-3.2c0,0-2-1.6-2.6-1.6L222.2,70.8z"/>
<path fill="#D1A6C2" d="M245.8,70.6l-9,9.1c0,0-1.6-5.3-2.3-5c0,0,4.9-2.3,6.1-3.2c0,0,2-1.6,2.6-1.6L245.8,70.6z"/>
<ellipse fill="#2C2B24" cx="223.6" cy="9.9" rx="2.4" ry="1.8"/>
<ellipse fill="#2C2B24" cx="226.9" cy="10.4" rx="2.4" ry="1.8"/>
<ellipse fill="#2C2B24" cx="230.7" cy="9.9" rx="2.4" ry="1.8"/>
<ellipse fill="#2C2B24" cx="234.9" cy="8.6" rx="2.4" ry="1.8"/>
<ellipse fill="#2C2B24" cx="238.7" cy="9.3" rx="2.4" ry="1.8"/>
<ellipse fill="#2C2B24" cx="241.9" cy="10.4" rx="2.4" ry="1.8"/>
<ellipse fill="#2C2B24" cx="243.6" cy="8.6" rx="2.4" ry="1.8"/>
<ellipse fill="#2C2B24" cx="247.4" cy="9.3" rx="2.4" ry="1.8"/>
<ellipse fill="#2C2B24" cx="249.1" cy="11.7" rx="2.4" ry="1.8"/>
<ellipse fill="#2C2B24" cx="253.5" cy="15.2" rx="2.4" ry="2.6"/>
<ellipse fill="#2C2B24" cx="256" cy="17.3" rx="2.4" ry="2.6"/>
<ellipse fill="#2C2B24" cx="258.7" cy="23.6" rx="2.4" ry="2.6"/>
<ellipse fill="#2C2B24" cx="256.8" cy="21" rx="2.4" ry="2.6"/>
<ellipse fill="#2C2B24" cx="261.1" cy="27.6" rx="2.4" ry="2.6"/>
<ellipse fill="#2C2B24" cx="261.4" cy="32.2" rx="2.1" ry="2.6"/>
<ellipse fill="#2C2B24" cx="262.1" cy="36.3" rx="2.1" ry="2.6"/>
<ellipse fill="#2C2B24" cx="259.7" cy="39.4" rx="2.1" ry="2.6"/>
<ellipse fill="#2C2B24" cx="237.8" cy="9.5" rx="2.4" ry="2.6"/>
<ellipse fill="#2C2B24" cx="251.1" cy="13.4" rx="2.4" ry="1.8"/>
<ellipse fill="#2C2B24" cx="240.6" cy="8.1" rx="2.4" ry="1.8"/>
<ellipse fill="#2C2B24" cx="246.3" cy="11.2" rx="2.4" ry="1.8"/>
<ellipse fill="#2C2B24" cx="207.8" cy="32.2" rx="2.4" ry="1.8"/>
<path fill="#2C2B24" d="M205.8,33.2c0.8-0.5,2.1,0.1,2.7,1.2c0.7,1.2,0.5,2.5-0.3,3c-0.8,0.5-2.1-0.1-2.7-1.2
	C204.8,35.1,204.9,33.7,205.8,33.2z"/>
<ellipse transform="matrix(-0.4996 -0.8663 0.8663 -0.4996 277.6131 238.9568)" fill="#2C2B24" cx="207.8" cy="39.3" rx="2.4" ry="1.8"/>
<ellipse transform="matrix(-0.4997 -0.8662 0.8662 -0.4997 276.0052 243.3101)" fill="#2C2B24" cx="208.3" cy="42" rx="2.4" ry="1.8"/>
<ellipse fill="#2C2B24" cx="220.1" cy="11.7" rx="3.4" ry="2.5"/>
<ellipse fill="#2C2B24" cx="216" cy="13" rx="2.4" ry="1.8"/>
<ellipse fill="#2C2B24" cx="213.6" cy="14.7" rx="2.4" ry="1.8"/>
<ellipse fill="#2C2B24" cx="211.8" cy="16.5" rx="2.4" ry="1.8"/>
<ellipse fill="#2C2B24" cx="210.7" cy="19.1" rx="2.4" ry="1.8"/>
<ellipse fill="#2C2B24" cx="207.4" cy="21.5" rx="2.4" ry="1.8"/>
<path fill="#2C2B24" d="M204.4,29.1c0-1.3,1-2.3,2.3-2.3c1.2,0,2.2,1,2.2,2.3c0,1.3-1,2.3-2.2,2.3C205.4,31.4,204.4,30.3,204.4,29.1
	z"/>
<ellipse transform="matrix(-0.9377 0.3474 -0.3474 -0.9377 411.2785 -24.4091)" fill="#2C2B24" cx="207.8" cy="24.7" rx="2.4" ry="1.8"/>
<ellipse transform="matrix(-0.9378 0.3473 -0.3473 -0.9378 411.204 -29.7066)" fill="#2C2B24" cx="208.3" cy="22" rx="2.4" ry="1.8"/>
<ellipse transform="matrix(-0.9379 0.347 -0.347 -0.9379 411.1463 -25.9263)" fill="#2C2B24" cx="207.9" cy="23.9" rx="2.4" ry="1.8"/>
<ellipse transform="matrix(-0.9377 0.3473 -0.3473 -0.9377 411.2465 -36.8896)" fill="#2C2B24" cx="208.9" cy="18.4" rx="2.4" ry="1.8"/>
<path fill="#2C2B24" d="M205.3,27.3c-0.9-0.3-1.2-1.6-0.8-2.9c0.4-1.3,1.5-2,2.3-1.6c0.9,0.3,1.2,1.6,0.8,2.9
	C207.2,26.9,206.2,27.6,205.3,27.3z"/>
<path fill="#2C2B24" d="M206,27.4c-0.3-0.9,0.4-2,1.7-2.5c1.3-0.5,2.5-0.1,2.9,0.8c0.3,0.9-0.4,2-1.7,2.5
	C207.6,28.6,206.3,28.3,206,27.4z"/>
<path fill="#1F1F1F" d="M230.6,149.5"/>
<polygon fill="#638EC4" points="217.7,139.8 230.6,139.7 230.6,149.6 217.7,146.8 "/>
<polygon fill="#638EC4" points="250.3,139.8 237.3,139.7 237.4,149.6 250.3,146.8 "/>
<line stroke="#B281B0" stroke-width="0.5" stroke-miterlimit="10" x1="235.2" y1="79.2" x2="235.2" y2="106.6"/>
<circle fill="#112029" cx="233.1" cy="81.3" r="0.8"/>
<circle fill="#112029" cx="233.1" cy="89.3" r="0.8"/>
<circle fill="#112029" cx="233.1" cy="105.1" r="0.8"/>
<circle fill="#112029" cx="233.1" cy="97.2" r="0.8"/>
<path fill="#9B5E37" d="M262.1,56c0.2,0.8,0.4,1.7,0.6,2.6c0.6-0.6,0.9-1.3,1.3-2c1.4-2.6,2.4-5.4,2.9-8.3c0.2-1.3,0.4-2.6,0.4-3.9
	c0-0.4,0-0.5,0.5-0.4c3.6,1,2.8-9.8,6.5-9.1c3,0.5,14.2,1.8,17.1,2.2c1.6,0.2,5.3,1.9,6.9,2c1.6,0.1,1.8,6.1,3.4,6.2
	c3.1,0.2,1.9,2.6,0,2.8c-0.4,0-2.1,0.5-2,0.9c0.5,2.2,1.2,4.5,2.1,6.6c0.4,1,0.9,2.1,1.8,3c0.3-0.9,0.4-1.7,0.5-2.6
	c1.3,0,1.8,0.5,1.8,1.8c0,1-0.2,1.9-0.4,2.9c-0.3,1.1-0.8,2.1-0.7,3.2c0,0.7-0.7,1.2-1.5,1.1c-0.4-0.1-0.5,0-0.6,0.4
	c0,0.2-0.1,0.3-0.1,0.5c-0.9,3.5-2.6,6.4-5.4,8.7c-2,1.6-4.3,2.6-6.8,3.3c-0.2,0.1-0.5,0-0.5,0.3c0,0.5-0.1,1,0,1.5
	c0.1,0.3,0.5,0.1,0.7,0.3c0.1,0,0.1,0.1,0.2,0.1c0,0.3-0.1,0.6-0.1,0.9c-0.2,1.8-0.9,3.4-2.4,4.6c-1.6,1.3-3.4,1.5-5.3,1.5
	c-0.6,0-1.3-0.1-2-0.2c-1.5-0.3-2.7-0.9-3.8-2.1c-1.3-1.4-1.6-3.1-1.7-4.9c0.2,0,0.3-0.1,0.5-0.1c0.4,0,0.5-0.2,0.5-0.6
	c0-1.2,0-1.2-1.1-1.5c-0.1,0-0.2-0.1-0.3-0.1c-3.5-1-6.4-2.8-8.6-5.7c-1.5-2-2.4-4.2-2.9-6.6c-0.1-0.3-0.1-0.4-0.5-0.4
	c-0.9,0.1-1.6-0.4-1.6-1.4c0-0.6-0.1-1.1-0.3-1.7c-0.4-1.3-0.8-2.7-0.8-4.1C260.3,56.7,260.8,55.8,262.1,56"/>
<path fill="#232323" d="M262.1,56c0.2,0.8,0.4,1.7,0.6,2.6c0.6-0.6,0.9-1.3,1.3-2c1.4-2.6,2.4-5.4,2.9-8.3c0.2-1.3,0.4-2.6,0.4-3.9
	c0-0.4,0-0.5,0.5-0.4c5.3,1.5,4.7-7.4,6.8-7c3,0.5,5.4,0.1,8.4,0.5c1.6,0.2,6.9,0,8.5,0.1c1.6,0.1,1.6,5.1,3.2,5.2
	c0.6,0,2.8,1.2,3.4,1.2c0.4,0,1.4,4.6,1.5,5c0.5,2.2,1.2,4.5,2.1,6.6c0.4,1,0.9,2.1,1.8,3c0.3-0.9,2.2,0,2.3-0.8
	c0.6-4.1,2.1-14.4,1.1-18.5c-1.4-5.5-3.1-8-8.2-10.4c-7.7-3.7-23.3-3.9-30.9,0c-5.2,2.7-7.8,10.6-8.7,16.3c-0.6,3.6,0.7,9,1.4,12.6
	C260.3,57.8,262.1,55.9,262.1,56"/>
<path fill="#9B5E37" d="M297.3,130.1H286c0,6.5,0,13.1,0,19.7c2.2-0.5,4.5-0.9,6.7-1.4c1.6-0.3,3.1-0.7,4.7-1v-16.4
	C297.3,130.6,297.3,130.4,297.3,130.1"/>
<path fill="#2C3D52" d="M297.3,147.3c-1.6,0.3-3.1,0.7-4.7,1c-2.2,0.5-4.5,0.9-6.7,1.4c-0.1,1.5-0.1,1.5,1.4,1.5c3.9,0,7.8,0,11.7,0
	c0.5,0,0.7-0.1,0.6-0.6C299.5,149,298.9,147.8,297.3,147.3"/>
<path fill="#2C3D52" d="M280.1,149.8c-3.6-0.8-7.1-1.5-10.7-2.3c-0.3-0.1-0.5-0.1-0.8-0.2c-1.6,0.6-2.2,1.9-2.3,3.5
	c0,0.3,0,0.4,0.4,0.4c4.3,0,8.7,0,13,0c0.3,0,0.4-0.1,0.4-0.4C280.1,150.4,280.1,150.1,280.1,149.8"/>
<path fill="none" stroke="#1C1C1C" stroke-linecap="round" stroke-linejoin="round" stroke-miterlimit="10" d="M291.8,68.4
	c0,0-7.8,6.8-17.2,0"/>
<path fill="#1F1F1F" d="M287.1,55.2c0,1.5,1.3,2.7,2.9,2.7c1.6,0,2.9-1.2,2.9-2.7c0-1.5-1.3-2.7-2.9-2.7
	C288.4,52.5,287.1,53.7,287.1,55.2"/>
<path fill="#1F1F1F" d="M274.3,55.2c0,1.5,1.3,2.7,2.9,2.7c1.6,0,2.9-1.2,2.9-2.7c0-1.5-1.3-2.7-2.9-2.7
	C275.6,52.5,274.3,53.7,274.3,55.2"/>
<rect x="286" y="128.8" fill="#112029" width="11.4" height="16.2"/>
<rect x="268.6" y="129.5" fill="#131C28" width="11.4" height="16"/>
<path fill="#232323" d="M264.1,67.5c0.2,1,0.8,1.8,1.2,2.8c0.4,0.9,0.6,1.6,1.4,2.2c1.5,1,1.3,1.6,2.9,2.6c0.7,0.4,3.2,1.7,3.9,2
	c0.5,1,2.4,1,3.4,1c1.6,0,2.1-0.2,3.7-0.2c2.9,0,5.7,0.2,8.7,0.2c0.9,0,2,0.1,2.8-0.4c0.3-0.2,0.4-0.6,0.7-0.8
	c0.4-0.3,1-0.2,1.5-0.4c0.4-0.2,0.8-0.5,1.2-0.7c1-0.5,1.9-1.2,2.8-1.9c1-0.8,1.4-1.5,2-2.6c0.6-1,1.1-1.7,1.3-2.9
	c0.2-1.3,1-2.4,1.3-3.7l-0.4-0.2c-0.3,0.5-1.5,0.6-2,1.1c-0.9,0.9-1.1,2.3-1.8,3.3c-0.3,0.5-1.2,1.4-1.9,1.3
	c-0.7-0.1-0.7-1.1-0.8-1.7c-0.1-0.9-0.1-1.7-0.4-2.5c-0.6-1.5-1.3-2-2.9-2.1c-1.9-0.2-3.9-0.4-5.8-0.2c-2.4,0.3-5.1,0.7-7.5,0.3
	c-1.2-0.2-2.2-0.4-3.4-0.2c-1.1,0.1-1.9,0.6-2.8,1c-0.8,0.3-1.8,0.8-2.4,1.4c-0.8,0.7-0.7,1.5-0.7,2.5c0,0.9,0.2,1.8-0.7,2.2
	c-0.3,0.2-1.4,0.3-1.8,0.1c-0.4-0.2-0.4-0.5-0.5-0.9c-0.3-0.8-0.8-1.4-1.3-2.2c-0.2-0.3-0.5-0.6-0.6-0.9c-0.2-0.5,0.1-1.2-0.2-1.7
	c-0.3-0.5-1.7-0.7-2-0.1C262.8,65.9,264,66.9,264.1,67.5z M273.9,67.1c1.5-1,3.8-1,5.5-0.8c1.8,0.1,3.3,0.6,5,0.6
	c1.3,0,2.7-0.1,4-0.4c0.7-0.1,1.5-0.2,2.3-0.1c0.4,0,0.6,0,1,0.2c0.2,0.1,0.2,0.4,0.6,0.3h0.5c0.2,0.6,1.1,0.9,1.4,1.5
	c0.1,0.2,0.1,1.1,0.1,1.3c-0.2,0.7-1.1,1.2-1.7,1.5c-0.9,0.5-1.9,0.4-2.9,0.7c-0.9,0.2-1.7,0.4-2.5,0.8c-0.6,0.3-1.1,0.6-1.6,0.8
	c-2,0.6-4.8,0.2-6.6-0.5c-0.8-0.3-1.5-0.6-2.3-0.9c-0.7-0.3-2.5-0.5-3.1-1.2C272.5,69.8,272.8,67.9,273.9,67.1z"/>
<ellipse fill="#232323" cx="283.7" cy="24.6" rx="7.2" ry="6.2"/>
<ellipse fill="#2C2B24" cx="232.4" cy="8.6" rx="8.3" ry="7.2"/>
<path fill="#112029" d="M198.4,121.8c0,2.6,0,5.2,0,7.7c-3.7,0-7.3,0-11,0c-0.5,0-0.4-0.3-0.4-0.6v-7.3c0-0.3,0.1-0.6-0.1-1
	c-0.1-1.2-0.7-1.8-1.8-2c-0.7-0.1-1.5-0.1-2.2,0c-1,0.2-1.5,0.7-1.7,1.6c-0.1,0.4-0.1,0.7-0.1,1.1c0,2.7,0,5.4,0,8.1h-11.4
	c0-2.6,0-5.2,0-7.8c0-0.2,0-0.4,0-0.7c0-8.7,0-17.4,0-26.1c0-0.9,0.2-1.6,0.8-2.4c2.8-3.8,3.7-8.2,3.7-12.8c0.7-0.2,1.4-0.4,2.2-0.3
	c0,0.3,0.1,0.6,0.1,0.9c0.2,1.8,0.9,3.4,2.4,4.6c1.6,1.3,3.4,1.5,5.3,1.5c0.6,0,1.3-0.1,2-0.2c1.5-0.3,2.8-0.9,3.8-2.1
	c1.3-1.4,1.6-3.1,1.7-4.9c0.7,0.1,1.5,0.2,2.2,0.4c0,0.7,0,1.5,0.1,2.2c0.1,1.4,0.3,2.8,0.6,4.1c0.6,2.4,1.4,4.6,3,6.5
	c0.7,0.8,0.9,1.6,0.8,2.7c0,5.6,0,11.1,0,16.7C198.4,115.2,198.4,118.5,198.4,121.8"/>
<path fill="#B68C63" d="M203.5,55.5c-0.2,0.8-0.3,1.7-0.5,2.6c-0.6-0.6-0.9-1.3-1.2-2c-1.3-2.6-2.2-5.4-2.7-8.3
	c-0.2-1.3-0.3-2.6-0.3-3.9c0-0.4-0.5,0.1-0.4-0.4c0.6-3.2-2.6-9.8-6.1-9.1c-2.8,0.5-13.2,1.8-15.9,2.2c-1.5,0.2-4.9,1.9-6.4,2
	c-1.5,0.1-1.7,6.1-3.2,6.2c-2.9,0.2-1.8,2.6,0,2.8c0.4,0,2,0.5,1.9,0.9c-0.5,2.2-1.1,4.5-2,6.6c-0.4,1-0.9,2.1-1.7,3
	c-0.3-0.9-0.4-1.7-0.5-2.6c-1.2,0-1.6,0.5-1.7,1.8c0,1,0.1,1.9,0.4,2.9c0.2,1.1,0.7,2.1,0.7,3.2c0,0.7,0.6,1.2,1.4,1.1
	c0.3-0.1,0.5,0,0.5,0.4c0,0.2,0.1,0.3,0.1,0.5c0.8,3.5,2.4,6.4,5,8.7c1.9,1.6,4,2.6,6.3,3.3c0.2,0.1,0.5,0,0.5,0.3
	c0,0.5,0.1,1,0,1.5c-0.1,0.3-0.5,0.1-0.7,0.3c-0.1,0-0.1,0.1-0.2,0.1c0,0.3,0.1,0.6,0.1,0.9c0.2,1.8,0.8,3.4,2.2,4.6
	c1.5,1.3,3.2,1.5,4.9,1.5c0.6,0,1.2-0.1,1.9-0.2c1.4-0.3,2.6-0.9,3.5-2.1c1.2-1.4,1.5-3.1,1.6-4.9c-0.1,0-0.3-0.1-0.4-0.1
	c-0.4,0-0.5-0.2-0.5-0.6c0-1.2,0-1.2,1-1.5c0.1,0,0.2-0.1,0.3-0.1c3.2-1,5.9-2.8,8-5.7c1.4-2,2.2-4.2,2.7-6.6
	c0.1-0.3,0.1-0.4,0.5-0.4c0.9,0.1,1.5-0.4,1.5-1.4c0-0.6,0.1-1.1,0.3-1.7c0.4-1.3,0.8-2.7,0.7-4.1C205.1,56.2,204.7,55.3,203.5,55.5
	"/>
<path fill="#161616" d="M203.5,55.5c-0.2,0.8-0.3,1.7-0.5,2.6c-0.6-0.6-0.9-1.3-1.2-2c-1.3-2.6-2.2-5.4-2.7-8.3
	c-0.2-1.3-0.3-2.6-0.3-3.9c0-0.4-0.3,0-0.4-0.4c-0.9-2.6,1.5-6.3-6.4-7c-2.8-0.3-5.1,0.1-7.8,0.5c-1.5,0.2-6.5,0-7.9,0.1
	c-1.5,0.1-4.8,1.4-6.3,1.5c-0.6,0-0.7,4.3-1.3,4.2c-0.4,0,0.1,5.3,0,5.6c-0.5,2.2-1.1,4.5-2,6.6c-0.4,1-0.9,2.1-1.7,3
	c-0.3-0.9-2.1,0-2.2-0.8c-0.6-4.1-2-14.4-1-18.5c1.3-5.5,2.9-10.9,7.7-13.3c7.2-3.7,21.5-4.1,28.6-0.2c4.9,2.7,7.4,13.6,8.3,19.4
	c0.5,3.6-0.7,9-1.3,12.6C205.2,57.3,203.5,55.4,203.5,55.5"/>
<path fill="#B68C63" d="M174.2,79.8c0,4.6-0.9,9-3.7,12.8c-0.6,0.8-0.8,1.5-0.8,2.4c0,8.7,0,17.4,0,26.2c0,0.2,0,0.4,0,0.7
	c-1.7,1.8-3.7,2-5.5,0.5c-0.8-0.6-1.2-1.5-1.2-2.5c-0.1-2.8,0-5.6,0.1-8.4c0.1-2.7,0.3-5.4,0.6-8.1c0.6-6.3,1.6-12.4,3.6-18.4
	c0.6-1.7,1.5-3,3.1-3.8C171.6,80.5,172.8,80,174.2,79.8"/>
<path fill="#B68C63" d="M186.9,120.8c0.1,0.3,0.1,0.6,0.1,1v7.3c0,0.3,0,0.6,0.4,0.6c3.7,0,7.3,0,11,0c0,5.2,0,10.3,0,15.5
	c0,0.6,0,1.2,0,1.8c-0.2,0.1-0.5,0.1-0.8,0.2c-3.6,0.8-7.1,1.5-10.7,2.3c0-0.3,0-0.6,0-0.8c0-5.9,0-11.9,0-17.9c0-3,0-6.1,0-9.1
	C186.9,121.2,186.9,121,186.9,120.8"/>
<path fill="#B68C63" d="M169.7,129.6h11.4c0,6.5,0,13.1,0,19.7c-2.2-0.5-4.5-0.9-6.7-1.4c-1.6-0.3-3.1-0.7-4.7-1v-16.4
	C169.7,130.1,169.7,129.8,169.7,129.6"/>
<path fill="#2C3D52" d="M169.7,146.8c1.6,0.3,3.1,0.7,4.7,1c2.2,0.5,4.5,0.9,6.7,1.4c0.1,1.5,0.1,1.5-1.4,1.5c-3.9,0-7.8,0-11.7,0
	c-0.5,0-0.7-0.1-0.6-0.6C167.6,148.5,168.1,147.3,169.7,146.8"/>
<path fill="#2C3D52" d="M187,149.3c3.6-0.8,7.1-1.5,10.7-2.3c0.3-0.1,0.5-0.1,0.8-0.2c1.6,0.6,2.2,1.9,2.3,3.5c0,0.3,0,0.4-0.4,0.4
	c-4.3,0-8.7,0-13,0c-0.3,0-0.4-0.1-0.4-0.4C187,149.9,187,149.6,187,149.3"/>
<path fill="none" stroke="#1C1C1C" stroke-linecap="round" stroke-linejoin="round" stroke-miterlimit="10" d="M175.8,67.9
	c0,0,7.3,6.8,16,0"/>
<path fill="#1F1F1F" d="M180.2,54.7c0,1.5-1.2,2.7-2.7,2.7c-1.5,0-2.7-1.2-2.7-2.7c0-1.5,1.2-2.7,2.7-2.7
	C179,52,180.2,53.2,180.2,54.7"/>
<path fill="#1F1F1F" d="M192.1,54.7c0,1.5-1.2,2.7-2.7,2.7c-1.5,0-2.7-1.2-2.7-2.7c0-1.5,1.2-2.7,2.7-2.7
	C190.9,52,192.1,53.2,192.1,54.7"/>
<path fill="#1C7C73" d="M163,94.4c0,0,5.6,1.7,6.8,3.3c0.1,0.1-0.3,16.8,0,13.7v0.3c0,0,14.6,4.4,28.7,0.2l0-18.9l10.9-4.3l-2.6-8.6
	c0,0-5,1.2-8.3,1.6c0,0-3.8-1.9-6.8-2.3c0,0-6.3,8.3-15.3,0.1c0,0-7.7,0.3-9.1,5.3L163,94.4z"/>
<rect x="169.7" y="128.3" fill="#112029" width="11.4" height="16.2"/>
<rect x="187" y="129" fill="#131C28" width="11.4" height="16"/>
<path fill="#161616" d="M202.5,64.8c-0.3-0.7,0.4-9.7,0-9.2c-0.3,0.5-1.9,10.4-2.1,10.9c-0.1,0.3-0.4,0.6-0.6,0.9
	c-0.4,0.7-0.9,1.4-1.2,2.2c-0.2,0.4-0.1,0.7-0.5,0.9c-0.4,0.2-1.3,0-1.6-0.1c-0.8-0.4-0.6-1.3-0.6-2.2c0-1,0.1-1.8-0.6-2.5
	c-0.6-0.6-1.5-1-2.2-1.4c-0.9-0.4-1.6-0.9-2.6-1c-1.1-0.2-2.1,0.1-3.2,0.2c-2.3,0.3-4.7-0.1-7-0.3c-1.7-0.2-3.6,0.1-5.4,0.2
	c-1.5,0.1-2.1,0.6-2.7,2.1c-0.3,0.8-0.3,1.6-0.4,2.5c-0.1,0.5-0.1,1.6-0.7,1.7c-0.6,0.1-1.5-0.8-1.8-1.3c-0.6-1-3-11.9-3.8-12.8
	c-0.5-0.5,0.7,8.9,0.4,8.4l-0.4,0.2c0.3,1.3,1,2.4,1.2,3.7c0.2,1.2,0.7,1.9,1.2,2.9c0.6,1.1,1,1.8,1.9,2.6c0.8,0.7,1.7,1.4,2.6,1.9
	c0.4,0.2,0.7,0.5,1.1,0.7c0.4,0.2,1,0.1,1.4,0.4c0.3,0.2,0.4,0.6,0.7,0.8c0.7,0.5,1.8,0.4,2.6,0.4c2.7,0,5.4-0.2,8.1-0.2
	c1.5,0,1.9,0.2,3.4,0.2c1,0,2.8,0,3.2-1c0.7-0.3,3-1.6,3.6-2c1.5-1.1,1.3-1.6,2.7-2.6c0.8-0.6,1-1.3,1.3-2.2
	c0.3-0.9,0.9-1.8,1.1-2.8C201.7,66.4,202.8,65.4,202.5,64.8z M192.9,70.4c-0.6,0.6-2.2,0.9-2.9,1.2c-0.8,0.3-1.4,0.6-2.2,0.9
	c-1.7,0.7-4.3,1-6.2,0.5c-0.6-0.2-1-0.5-1.5-0.8c-0.8-0.4-1.5-0.6-2.4-0.8c-0.9-0.3-1.8-0.2-2.7-0.7c-0.6-0.3-1.4-0.8-1.6-1.5
	c-0.1-0.2,0-1.1,0.1-1.3c0.2-0.6,1.1-0.9,1.3-1.5h0.4c0.4,0.1,0.4-0.2,0.6-0.3c0.3-0.1,0.6-0.2,0.9-0.2c0.8,0,1.5,0,2.2,0.1
	c1.2,0.2,2.5,0.4,3.7,0.4c1.7,0,3-0.5,4.7-0.6c1.6-0.1,3.7-0.2,5.1,0.8C193.5,67.4,193.8,69.3,192.9,70.4z"/>
<path fill="none" stroke="#B2B2B2" stroke-linecap="round" stroke-linejoin="round" stroke-miterlimit="10" d="M176.6,77
	c0,0-1.6,8.7,8,8.7c0,0,7.5-0.6,7.5-8.2"/>
<path fill="#2D2D2D" d="M182.8,86.1c0,0-1.3,3.1-0.4,4.8c0,0-0.2,0.6,0.1,0.9c0,0-0.9,2.9,0.4,5.2l0.7-0.2l0.2-0.5l1.9-0.3
	c0,0,1,0.1,1-1.8c0,0-0.1-1.9-1.5-2.1l-2-0.4c0.1,0.1-0.2-0.2,0-0.5l1.9-0.2c0,0,1.4-0.1,1.5-2c0,0,0.3-1.7-1.7-2.4l-1.3-0.1
	l-0.1-0.6c0,0-0.5,0-0.5,0C182.9,85.9,182.8,86.1,182.8,86.1z"/>
<path d="M183.2,85.1c0,0-0.8,2.1-0.2,3.6l1.9-0.1c0,0,1.5-0.5,0.8-2.6C185.7,86,185.4,85.2,183.2,85.1z"/>
<path d="M183,92.4c0,0-0.3,2.7,0.4,3.5l1.9-0.4c0,0,0.8-0.2,0.5-1.4C185.9,94,186,92.2,183,92.4z"/>
<path fill="#2D2D2D" d="M184,84.6l0.7,0c0,0,0-0.4,0.2-0.5c0,0-0.1-0.2-0.5-0.1C184.1,84.1,184,84.6,184,84.6z"/>
<path d="M184.1,84.2"/>
<polygon fill="#2D2D2D" points="183.8,89.4 183.4,89.4 183.4,89.8 183.8,90 183.9,89.4 "/>
<path fill="#B68C63" d="M168.3,148.2l1.4,2h1.4l-1.8-2.8C169.3,147.4,168.7,147.7,168.3,148.2z"/>
<polygon fill="#B68C63" points="171.2,147.7 172.4,150.2 173.9,150.2 173.9,148.2 "/>
<path fill="#B68C63" d="M199.9,148.2l-1.4,2h-1.4l1.8-2.8C198.9,147.3,199.6,147.7,199.9,148.2z"/>
<polygon fill="#B68C63" points="197.1,147.6 195.8,150.2 194.3,150.2 194.3,148.1 "/>
<path fill="#161616" d="M180.2,50.3"/>
<path fill="#9C9FA4" d="M304.1,94.9c0,0-5.6,1.7-6.8,3.3c-0.1,0.1,0.3,16.8,0,13.7v0.3c0,0-14.6,4.4-28.7,0.2l0-18.9l-9.4-7.3
	l1.5-5.6c0,0,4.2-2.4,8.6,0c0,0,3.2-0.3,6.1-0.7c0,0,6.3,8.3,15.3,0.1c0,0,7.7,0.3,9.1,5.3L304.1,94.9z"/>
<path fill-rule="evenodd" clip-rule="evenodd" fill="#DEB595" d="M402.9,87.1c0,0,8.9-0.5,13.1-1.7c0,0,3.9-1,4.8-5.7l1.8-13.9
	c0,0,1.8-1.5,1.5-3.1c-0.4-1.6-6.6-1.4-6.6-1.4l0.9,3.8c0,0-2.4,9.2-2.8,13c0,0-10.3,0.8-14.9,2c-4.6,1.2-0.2,5.8-0.2,5.8
	L402.9,87.1z"/>
<path fill-rule="evenodd" clip-rule="evenodd" fill="#F28AAC" d="M404.7,122.2c0.1,2.5,0.1,5.1,0.2,7.6c0,0.8-0.2,1.1-1,1.1
	c-1.7,0.1-3.4,0.4-5.1,0.5c-3.3,0.3-6.6,0.6-9.9,0.6c-0.7,0-1.5-0.1-2.2,0.1c-0.3,0-0.6,0-0.8,0.1c-0.2-0.1-0.3-0.2-0.5-0.2
	c-3.8,0-7.6-0.2-11.4-0.6c-1.7-0.2-3.4-0.4-5.1-0.6c-0.9-0.1-1.2-0.4-1.1-1.3c0.1-2.5,0.1-5,0.2-7.4c0.2-1.7,0.3-3.4,0.5-5.1
	c0.6-5,1.3-9.9,3-14.6c10,0,19.9,0,29.9,0c1,3.1,1.7,6.3,2.3,9.6C404.2,115.4,404.4,118.8,404.7,122.2z"/>
<path fill-rule="evenodd" clip-rule="evenodd" fill="#0F1E28" d="M380.8,44.9"/>
<path fill-rule="evenodd" clip-rule="evenodd" fill="#0F1E28" d="M368.8,47.2c-0.8,3.7-1.6,7.4-2.4,11.1c-0.1,0.5-0.1,1-0.8,1.3
	c-0.6-2.3-0.8-4.6-0.9-6.9c-0.7,0.2-1.3,0.3-1.9,0.5c-0.1,0-0.2,0-0.3,0c0-1.8-0.6-3.5-0.7-5.2c-0.2-2.6-0.2-5.2,0.5-7.8
	c1.5-5.8,5.5-9.6,11.5-11.6c8.2-2.7,16.5-2.8,24.8-0.1c8.7,2.8,13.1,9.5,12.5,18.2c-0.2,2.2-0.6,4.3-0.9,6.4l0,0
	c-0.7,0.1-1.3-0.4-2.1-0.4c-0.3,2.6-0.4,5.2-1.2,7.7c-0.9-4.1-1.7-8.1-2.7-12.2"/>
<path fill-rule="evenodd" clip-rule="evenodd" fill="#F28AAC" d="M401.3,102.5c-10,0-19.9,0-29.9,0c0-3.7,0-7.4-0.1-11.1
	c0-0.5,0.1-1-0.3-1.4c-1.1-1.4-3.1-12-4.3-13.3c2.6-1.6,7.6-1,8.5,0.2c1.3-0.6,0,0,1.4-0.2c1.2,3.2,3.2,5.5,6.4,6.8
	c1.1,0.5,2,0.5,2.5-0.8c0.1-0.4,0.3-0.9,0.8-1.2c0.5,0.3,0.7,0.8,0.9,1.3c0.5,1.1,1.1,1.2,2.2,0.8c3.3-1.3,5.5-3.5,6.6-6.9
	c1.5,0.1,1.4,0.6,2.8,0.8c2.7,0,4.8-1.1,8.7,1.1c-1.1,1-4.4,9.6-5.3,10.7c-0.6,0.7-0.8,1.5-0.8,2.4
	C401.4,95.2,401.4,98.9,401.3,102.5z"/>
<path fill-rule="evenodd" clip-rule="evenodd" fill="#DEB595" d="M386.7,132.2c0.7-0.2,1.5-0.1,2.2-0.1c3.3,0,6.6-0.3,9.9-0.6
	c0,5.5,0,11-0.1,16.5c-0.6,0.1-1.3,0.3-1.9,0.4c-3.3,0.7-6.5,1.7-9.9,2.1c0-4.6-0.1-9.1-0.1-13.7C386.9,135.3,387,133.8,386.7,132.2
	z"/>
<path fill-rule="evenodd" clip-rule="evenodd" fill="#DEB595" d="M374,131.5c3.8,0.4,7.6,0.6,11.4,0.6c0.2,0,0.3,0.1,0.5,0.2
	c0,6.1,0.1,12.2-0.1,18.2c-4-0.7-7.9-1.7-11.8-2.6C374,142.4,374,137,374,131.5z"/>
<path fill-rule="evenodd" clip-rule="evenodd" fill="#F28AAC" d="M372.9,146.9c4.2,0.9,8.3,1.9,12.5,2.6c0.3,1.8,0.3,1.8-1.4,1.8
	c-4.2,0-8.4,0-12.5,0c-1.1,0-1.3-0.4-1.1-1.3C370.8,148.6,371.6,147.5,372.9,146.9z"/>
<path fill-rule="evenodd" clip-rule="evenodd" fill="#F28AAC" d="M386.7,149.5c3.5-0.4,7-1.4,10.5-2.1c0.7-0.1,1.4-0.3,2-0.4
	c1.4,0.6,2.2,1.6,2.5,3.1c0.2,0.9,0,1.3-1.1,1.3c-4.2-0.1-8.3,0-12.5,0C386.4,151.3,386.4,151.3,386.7,149.5z"/>
<path fill-rule="evenodd" clip-rule="evenodd" fill="#DEB595" d="M391.4,37.7l0.4,8.9c1.1,1.6,10.9,1.6,10.9,1.6
	c1.5,0,2.3,3.9,1.2-1.1c1,4.4,1.8,8.8,2.7,13.3c0.8-2.7,1-5.6,1.2-8.4c0.8,0,1.3,0.6,2.1,0.4c0.1,2.5-1,4.9-1.3,7.3
	c-0.1,0.5-0.4,1-0.9,1c-1,0-1.2,0.6-1.4,1.3c-1.6,6.1-5.5,10-11.5,11.8c-1.4,0.4-2,1-1.6,2.4c-4.4,3.5-9.8,3.5-13.8,0
	c0.3-1.4-0.3-2-1.7-2.4c-6-1.8-9.9-5.7-11.6-11.8c-0.2-0.8-0.3-1.4-1.4-1.3c-0.4,0-0.9-0.4-0.9-0.8c-0.2-2.5-1.7-4.8-1.2-7.5
	c0.6-0.2,1.2-0.3,2-0.5c0.1,2.6,0.3,5,0.9,7.5c0.7-0.3,0.7-0.9,0.8-1.4c0.8-4,1.6-8.1,2.4-12.1L391.4,37.7z"/>
<path fill-rule="evenodd" clip-rule="evenodd" fill="#F06B9B" d="M379.5,76.3c4,3.5,9.5,3.5,13.8,0c0.1,0,0.3,0,0.4,0.1
	c0.1,0,0.2,0,0.4,0c0.6,0.1,1.3,0.2,1.9,0.3c-1.1,3.3-3.3,5.6-6.6,6.9c-1,0.4-1.7,0.3-2.2-0.8c-0.2-0.5-0.4-1-0.9-1.3
	c-0.5,0.3-0.6,0.8-0.8,1.2c-0.5,1.4-1.4,1.3-2.5,0.8c-3.2-1.3-5.2-3.6-6.4-6.8c0.7-0.1,1.3-0.2,2-0.3c0.1,0,0.2,0,0.3,0
	C379.2,76.3,379.4,76.3,379.5,76.3z"/>
<path fill-rule="evenodd" clip-rule="evenodd" fill="#DEB595" d="M379.1,76.3c-0.1,0-0.2,0-0.3,0C378.8,76.2,379,76.2,379.1,76.3z"
	/>
<path fill-rule="evenodd" clip-rule="evenodd" fill="#DEB595" d="M394.1,76.4c-0.1,0-0.2,0-0.4,0C393.9,76.2,394,76.2,394.1,76.4z"
	/>
<path fill-rule="evenodd" clip-rule="evenodd" fill="#0F1E28" d="M361.7,40.9c0,0,0,18.7-2.6,29.6h10"/>
<path fill-rule="evenodd" clip-rule="evenodd" fill="#0F1E28" d="M411.1,44c0,0,1,21.2,3.1,24.9H403c0,0,3.9-4.6,3.6-7.6l2-1v-8.3"
	/>
<polygon fill-rule="evenodd" clip-rule="evenodd" fill="#0F1E28" points="391.7,40.4 390.2,46.4 378.7,47.6 368.8,47.6 367.5,47 
	367.5,44.6 391.1,35.4 393.7,38.3 "/>
<line fill-rule="evenodd" clip-rule="evenodd" fill="none" stroke="#F06B9B" stroke-width="0.4861" stroke-linecap="round" stroke-miterlimit="10" x1="385.9" y1="83.8" x2="385.9" y2="93.9"/>
<circle fill-rule="evenodd" clip-rule="evenodd" fill="#232323" cx="387.6" cy="85.4" r="0.5"/>
<circle fill-rule="evenodd" clip-rule="evenodd" fill="#232323" cx="387.6" cy="91.6" r="0.5"/>
<circle fill-rule="evenodd" clip-rule="evenodd" fill="#232323" cx="387.6" cy="88.4" r="0.5"/>
<path fill="none" stroke="#1C1C1C" stroke-width="0.9722" stroke-linecap="round" stroke-linejoin="round" stroke-miterlimit="10" d="
	M394.7,64.6c0,0-7.6,9.9-16.7,0"/>
<path fill="#1F1F1F" d="M389.7,54.3c0,1.4,1.3,2.6,2.8,2.6c1.6,0,2.8-1.2,2.8-2.6c0-1.4-1.3-2.6-2.8-2.6
	C391,51.7,389.7,52.8,389.7,54.3"/>
<path fill="#1F1F1F" d="M377.3,54.3c0,1.4,1.3,2.6,2.8,2.6s2.8-1.2,2.8-2.6c0-1.4-1.3-2.6-2.8-2.6S377.3,52.8,377.3,54.3"/>
<path fill="none" stroke="#F28AAC" stroke-width="0.9722" stroke-miterlimit="10" d="M396.5,50.8l-8.4-0.4c0,0-1.4,10.5,6.3,9.1
	c0,0,3.9,0.3,4.2-5.9v-2.8H396.5z"/>
<path fill="none" stroke="#F28AAC" stroke-width="0.9722" stroke-miterlimit="10" d="M375.8,50.8l8.7-0.4c0,0,1.1,10.5-6.6,9.1
	c0,0-3.9,0.3-4.2-5.9v-2.8H375.8z"/>
<path opacity="0.8" fill="#5E3F26" d="M396.5,50.8l-8.6-0.4c0.3-2.2-1.7,10.6,6.5,9.1c0,0,3.9,0.3,4.2-5.9v-2.8H396.5z"/>
<path opacity="0.8" fill="#5E3F26" d="M375.8,50.8l8.7-0.4c0,0,1.1,10.5-6.6,9.1c0,0-3.9,0.3-4.2-5.9v-2.8H375.8z"/>
<line fill="#F28AAC" stroke="#F28AAC" stroke-width="0.9722" stroke-miterlimit="10" x1="373.4" y1="50.8" x2="367.4" y2="51.7"/>
<line fill-rule="evenodd" clip-rule="evenodd" fill="#F28AAC" stroke="#F28AAC" stroke-width="0.9722" stroke-miterlimit="10" x1="398.5" y1="50.8" x2="405.1" y2="51.7"/>
<line fill-rule="evenodd" clip-rule="evenodd" fill="#F28AAC" stroke="#F28AAC" stroke-width="0.9722" stroke-miterlimit="10" x1="384.5" y1="50.5" x2="387.9" y2="50.5"/>
<path fill-rule="evenodd" clip-rule="evenodd" fill="none" stroke="#E9F0C2" stroke-width="1.9445" stroke-miterlimit="10" d="
	M375.4,75.1c0,0-0.7,15.3,12.1,25.2"/>
<path fill="#AEADAD" d="M405.5,101.3c0,0,0,0.1,0,0.1c0,0,1.2,1.7,1.4,2.3c0,0,0.5,0.8,0.3,1.6l0.2,0.2l-0.8,2.8h-0.5
	c0,0,0.2,1.4,0.4,2c0,0,1.9,5.8,2.4,7.5c0,0,0.9,3.3,0.8,3.7c0,0-0.2,0.5-0.3,0.6c0,0,0.5,5.3,0.1,6.3c0,0-0.1,1.3-2.1,1.7
	c0,0-5.7,1.3-7,1.7c0,0-5.6,1.2-10.3,2.5c0,0-0.2,0.2-0.5-0.2l-1.1-1.7c0,0-3.1-0.9-3.6-3.1c0,0-0.6-1.2-0.9-1.5c0,0-1.6-1.8-1-4.2
	c0,0,0.7-3.4,0.9-4.5c0,0,1-6.7,1.5-7.3c0,0,1.5-5.6,1.2-7.1c0,0-0.2-1.5,0-1.8c0,0,0.1-0.3,0.3-0.2l0.2-0.5l-0.1-0.2l1.2-2.5l0.4,0
	c0,0,0.9-0.3,1.1-0.1c0,0,1.1,0.4,1.5,0.2l0,0c0,0,5,0.1,5.6,0.3c0,0,3.7,0.1,3.9,0.2c0,0,3.4,0,3.9,0c0,0,0.9,0.6,1.2,1.3"/>
<path fill="#888888" d="M391.1,103c0.1,0.3,0.2,1.2,0.3,1.5l0.2,0l0.1,0.1c0-0.2,0.1-1,0.1-1c0-0.5,0-1.4,0-1.4
	c-0.1,0-0.8-0.4-0.8-0.4c-0.2-0.3-0.6-0.8-0.6-0.8c-0.3-0.3-0.7-0.8-0.7-0.8l-1-0.2c0,0,1,1.1,1.8,2.6"/>
<polyline fill="#D2BA8B" points="407.4,105.5 391.8,104.8 391,108.1 406.6,108.3 "/>
<ellipse transform="matrix(0.8651 0.5016 -0.5016 0.8651 106.848 -183.8609)" fill="#404040" stroke="#070808" stroke-width="5.502800e-02" stroke-linecap="round" stroke-linejoin="round" stroke-miterlimit="10" cx="395.3" cy="106.7" rx="0.5" ry="0.7"/>
<ellipse transform="matrix(0.8651 0.5017 -0.5017 0.8651 108.1861 -188.3892)" fill="#404040" stroke="#070808" stroke-width="5.502800e-02" stroke-linecap="round" stroke-linejoin="round" stroke-miterlimit="10" cx="404.3" cy="106.9" rx="0.5" ry="0.6"/>
<polygon fill="#D2BA8B" stroke="#070808" stroke-width="5.502800e-02" stroke-linecap="round" stroke-linejoin="round" stroke-miterlimit="10" points="
	391,108.1 390.8,107.9 391.6,104.7 391.8,104.8 "/>
<polygon fill="#D2BA8B" stroke="#070808" stroke-width="5.502800e-02" stroke-linecap="round" stroke-linejoin="round" stroke-miterlimit="10" points="
	390.7,107.8 390.5,107.7 391.3,104.5 391.5,104.6 "/>
<path fill="none" stroke="#272626" stroke-width="5.502800e-02" stroke-linecap="round" stroke-linejoin="round" stroke-miterlimit="10" d="
	M391.3,104.5l0.2,0l0.1,0.1c0-0.2,0.1-1,0.1-1c0-0.5,0-1.4,0-1.4c-0.1,0-0.8-0.4-0.8-0.4c-0.2-0.3-0.6-0.8-0.6-0.8
	c-0.3-0.3-0.7-0.8-0.7-0.8l-1-0.2"/>
<path fill="none" stroke="#272626" stroke-width="5.502800e-02" stroke-linecap="round" stroke-linejoin="round" stroke-miterlimit="10" d="
	M390,100.6l-0.5-0.1c-0.2-0.1-0.3,0-0.3,0s-1.6,2.6-2,2.9c0,0-0.3,0.3-0.3,0.6c0,0-0.2,6.9-1.2,10.1c0,0-2.1,7.3-1.8,11.2
	c0,0,0,2.1,1,4.1"/>
<path fill="none" stroke="#272626" stroke-width="5.502800e-02" stroke-linecap="round" stroke-linejoin="round" stroke-miterlimit="10" d="
	M390.6,101.4l-1-0.2l-2,3.3c0,0-0.3,0.5,0,1.3c0,0,0.2,1.6-0.3,4c0,0-0.9,3.4-1,6.3c0,0-0.7,7-0.2,9.4c0,0,0.4,3.6,1.3,4.6"/>
<path fill="none" d="M390.1,133.3c0,0,2-6.4,2.5-7.1"/>
<path fill="none" d="M392.7,126.4c0,0-1.7-14-3.3-17.7l1-4.4c0,0,0.7-0.3,1.2,0"/>
<path fill="none" stroke="#272626" stroke-width="5.502800e-02" stroke-linecap="round" stroke-linejoin="round" stroke-miterlimit="10" d="
	M391.3,102l-1.1-0.2l-2,3.5c0,0-0.1,2-0.3,2.9c0,0-0.6,3.5-0.6,5.2c0,0,0.2,5,0.6,7.5c0,0,0.6,5.4,1.5,7"/>
<path fill="none" stroke="#272626" stroke-width="5.502800e-02" stroke-linecap="round" stroke-linejoin="round" stroke-miterlimit="10" d="
	M391.7,102.9l-1.3-0.3l-1.7,3.1c0,0-0.6,2.7-0.5,3.7l0.2,3.4c0,0,0,0.8,0.3,1.2c0,0,0.3,0.7,0.4,1.3c0,0,0.8,4.3,0.7,6.3
	c0,0,0.1,3.8,0.9,5.4c0,0,0.7,1.8,0.8,1.9"/>
<path fill="none" stroke="#272626" stroke-width="5.502800e-02" stroke-linecap="round" stroke-linejoin="round" stroke-miterlimit="10" d="
	M391.6,103.4l-1-0.2c0,0-0.5-0.2-0.6,0.7l-1,2.8c0,0-0.3,0.3-0.3,0.5c0,0,0.1,2.6,0.8,5"/>
<path fill="none" stroke="#070808" stroke-width="5.502800e-02" stroke-linecap="round" stroke-linejoin="round" stroke-miterlimit="10" d="
	M399.7,108"/>
<path fill="#AEADAD" stroke="#272626" stroke-width="5.502800e-02" stroke-linecap="round" stroke-linejoin="round" stroke-miterlimit="10" d="
	M400.3,108.1"/>
<path fill="none" stroke="#070808" stroke-width="5.502800e-02" stroke-linecap="round" stroke-linejoin="round" stroke-miterlimit="10" d="
	M401.5,106.9"/>
<path fill="none" stroke="#070808" stroke-width="5.502800e-02" stroke-linecap="round" stroke-linejoin="round" stroke-miterlimit="10" d="
	M401.2,106.3"/>
<path fill="#D2BA8B" d="M401.8,106.1"/>
<path fill="#D2BA8B" stroke="#070808" stroke-width="5.502800e-02" stroke-linecap="round" stroke-linejoin="round" stroke-miterlimit="10" d="
	M397.7,107.5"/>
<path fill="#EEEDC9" stroke="#070808" stroke-width="5.502800e-02" stroke-linecap="round" stroke-linejoin="round" stroke-miterlimit="10" d="
	M403.8,106.8c0,0,0.2,0.3-1.3,0c-0.3-1.1-2.7-0.7-2.7-0.7h0c-0.4-0.2-1-0.3-1.2-0.3c0,0-0.9-0.2-1.3,0.8c-1.7-0.1-2.3-0.3-2.3-0.3
	s-0.3,0.1-0.3,0.8c0,0,0,0.2,2.5,0.3c0,0,0,0.4,0.2,0.6c0,0,0,0.1,0,0.1c-0.3,1.1,0.7,2,0.1,4.3c0,0-0.6,2-0.7,3.4l0.9,0
	c0-0.8,0.8-3.6,0.8-3.6c0.4-1.4-0.1-2.5-0.1-2.5c-0.1-0.4-0.1-0.7-0.1-0.9c0.8,0.6,1.3-0.2,1.3-0.2s0.1-0.2,0.2-0.3
	c0.5,0.2,0.9,0.3,1.3,0.4c0,0.9-0.3,2.5,1.1,6.5l0.9-0.2c-0.3-0.7-0.7-1.4-0.9-3.4c-0.2-2-0.2-2.2-0.2-3.1c0.3-0.2,0.5-0.4,0.6-0.7
	c0.7,0,1.1,0.1,1.1,0.1c1.4,0,1-1,1-1v-0.1C404.7,106.6,404.4,106.1,403.8,106.8z"/>
<path fill="none" stroke="#070808" stroke-width="5.502800e-02" stroke-linecap="round" stroke-linejoin="round" stroke-miterlimit="10" d="
	M399.5,107.2c-1.2,0.2-1.6,0.2-2.5,0.2"/>
<path fill="none" stroke="#070808" stroke-width="5.502800e-02" stroke-linecap="round" stroke-linejoin="round" stroke-miterlimit="10" d="
	M397.3,106.6c0.4,0,1,0,1.5-0.1"/>
<path fill="none" stroke="#070808" stroke-width="5.502800e-02" stroke-linecap="round" stroke-linejoin="round" stroke-miterlimit="10" d="
	M402,108.4c-0.2,0.1-0.5,0.3-0.9,0.3"/>
<path fill="none" stroke="#070808" stroke-width="5.502800e-02" stroke-linecap="round" stroke-linejoin="round" stroke-miterlimit="10" d="
	M402.5,106.8c0.1,0.3,0.1,0.6,0,0.9"/>
<path fill="none" stroke="#070808" stroke-width="5.502800e-02" stroke-linecap="round" stroke-linejoin="round" stroke-miterlimit="10" d="
	M400.6,107.7c0.8,0.3,1,0,1,0c0.6-0.8-0.5-1.2-0.5-1.2s-0.6-0.2-1.2-0.4"/>
<path fill="none" stroke="#272626" stroke-width="5.502800e-02" stroke-linecap="round" stroke-linejoin="round" stroke-miterlimit="10" d="
	M400.9,107.8c-0.3-0.4-0.8,0.2-1.1,0.5"/>
<path fill="none" stroke="#070808" stroke-width="5.502800e-02" stroke-linecap="round" stroke-linejoin="round" stroke-miterlimit="10" d="
	M401.6,107.6c0,0-1.4-0.4-2.4-1c0,0-0.2-0.1-0.7-0.1"/>
<path fill="none" stroke="#070808" stroke-width="5.502800e-02" stroke-linecap="round" stroke-linejoin="round" stroke-miterlimit="10" d="
	M398.7,108.1c0,0,0.8-1.3,1.6-0.9"/>
<path fill="none" stroke="#070808" stroke-width="5.502800e-02" stroke-linecap="round" stroke-linejoin="round" stroke-miterlimit="10" d="
	M399.2,107.2c0,0-1.5,0-1.9,0.7"/>
<path fill="none" stroke="#272626" stroke-width="5.502800e-02" stroke-linecap="round" stroke-linejoin="round" stroke-miterlimit="10" d="
	M398.6,108c0,0-0.4,0.1-0.4,0.8"/>
<path fill="#D2BA8B" d="M402.5,113.3c0,0-0.9-0.1-1,0.6l1,2.2c0,0,0.8,0.2,1.1-0.4L402.5,113.3z"/>
<path fill="#D2BA8B" d="M398.1,113.5c0,0-0.6-0.6-1.2-0.1l-0.4,2.4c0,0,0.5,0.6,1.2,0.3L398.1,113.5z"/>
<polygon fill="#D2BA8B" stroke="#070808" stroke-width="5.502800e-02" stroke-miterlimit="10" points="386.8,102.1 387,102.3 
	388.2,99.9 388,99.7 "/>
<path fill="#D2BA8B" stroke="#070808" stroke-width="5.502800e-02" stroke-miterlimit="10" d="M388.4,99.6c-0.2,0-0.2,0.3-0.2,0.3
	l-0.2-0.2L388.4,99.6z"/>
<path fill="#AEADAD" stroke="#272626" stroke-width="0.1014" stroke-linecap="round" stroke-linejoin="round" stroke-miterlimit="10" d="
	M425.5,114.2"/>
<polyline fill="#A99777" points="391.6,104.7 407.2,105.3 407.4,105.4 391.8,104.8 391.6,104.7 "/>
<path fill="#888888" d="M387.1,114.2c0,0-0.4,10,1.7,15l1.5,3.4l0.4-1.1c0,0-1.9-4.2-2.5-7.6C388.2,124,387,115.6,387.1,114.2z"/>
<path fill="#888888" d="M388.1,111.2l0.2,2.2c0,0,0.8,1.7,0.9,2.9c0,0,0.4,3,0.5,4.8c0,0,0.1,2.7,0.2,3.5
	C390,124.7,388,112.3,388.1,111.2z"/>
<path fill="#888888" d="M388.9,100.3c0,0-1.8,2.7-1.8,3c0,0,1.6-2.2,1.9-2.8L388.9,100.3z"/>
<path fill="#888888" d="M389.5,101c0,0-1.8,2.7-1.8,3c0,0,1.6-2.2,1.9-2.8L389.5,101z"/>
<path fill="#888888" d="M389.9,101.6c0,0-1.6,2.8-1.6,3.1c0,0,1.4-2.3,1.8-2.9L389.9,101.6z"/>
<path fill="#888888" d="M390.2,102.3c0,0-1.5,2.5-1.4,2.8c0,0,1.3-2,1.6-2.6L390.2,102.3z"/>
<path fill="#888888" d="M409.4,122.1c0,0-1.3,4.3-1,7.1"/>
<path fill="#888888" d="M390.8,104.1c0,0-0.4-0.2-0.5,0.2l-0.6,2.9l0,0.1l0.6-3C390.3,104.3,390.6,104.2,390.8,104.1z"/>
<polygon fill="#888888" points="391.3,104.2 391,104.2 390.3,107.1 390.5,107.4 391.3,104.5 "/>
<path fill="#907F5E" d="M397.6,116.1c0,0.1-0.3,0.1-0.6,0.1c-0.3-0.1-0.5-0.2-0.5-0.3c0-0.1,0.3-0.1,0.6-0.1
	C397.5,115.8,397.7,116,397.6,116.1z"/>
<ellipse transform="matrix(0.9329 -0.3601 0.3601 0.9329 -14.666 152.9377)" fill="#907F5E" cx="403.1" cy="115.8" rx="0.5" ry="0.2"/>
<path fill="#545554" d="M161.8,37.1c1.3-5.8,2.9-11.3,7.7-13.8c7.2-3.8,21.5-4.3,28.6-0.2c4.9,2.8,6.6,8.2,7.4,14.2"/>
<path fill="#727372" d="M162,42.8c0,0-11.6-10.5,22.1-12c0,0,28-1.5,21,9.4C205.1,40.2,185.9,33.2,162,42.8z"/>
</svg>
