<?xml version="1.0" encoding="utf-8"?>
<!-- Generator: Adobe Illustrator 18.0.0, SVG Export Plug-In . SVG Version: 6.00 Build 0)  -->
<!DOCTYPE svg PUBLIC "-//W3C//DTD SVG 1.1//EN" "http://www.w3.org/Graphics/SVG/1.1/DTD/svg11.dtd">
<svg version="1.1" id="Layer_1" xmlns="http://www.w3.org/2000/svg" xmlns:xlink="http://www.w3.org/1999/xlink" x="0px" y="0px"
	 viewBox="0 0 193.5 187" enable-background="new 0 0 193.5 187" xml:space="preserve">
<path fill="none" stroke="#515252" stroke-miterlimit="10" d="M193.5,33.2c0,2.6-2.1,4.8-4.8,4.8H5.8C3.1,38,1,35.9,1,33.2V5.9
	c0-2.6,2.1-4.8,4.8-4.8h182.9c2.6,0,4.8,2.1,4.8,4.8V33.2z"/>
<path fill="#A2A2A3" d="M157.9,82.2V69.6H77.3v12.8l-3.5,3.5v23.5l87.7,3V85.8L157.9,82.2z M150.2,98.2l-9.9-13H96.1l-11.9,13v-19
	l66,0V98.2z"/>
<polygon fill="#FFFFFF" points="165.1,116.6 140.4,85.2 96.1,85.2 67.6,116.6 "/>
<polygon fill="#DBDAD9" points="165.1,116.6 140.4,85.2 96.1,85.2 67.6,116.6 "/>
<polyline fill="#FFFFFF" points="110.7,69.6 110.7,83.9 117.6,88.6 124,83.7 124,69.6 "/>
<polyline fill="none" stroke="#717070" stroke-width="2.769" stroke-linecap="round" stroke-linejoin="round" stroke-miterlimit="10" points="
	110.7,69.6 110.7,83.9 117.6,88.6 124,83.7 124,69.6 "/>
<polyline fill="#676767" points="70.8,137.2 70.8,154 67.6,157.4 67.4,165.7 88.9,165.7 93.6,159.7 138.9,159.8 143.6,165.8 
	165.1,165.8 165.1,157.8 162,154.3 162,137.6 "/>
<polygon fill="#A2A2A3" points="165.1,137.2 67.6,137.2 67.6,116.6 95.3,116.6 165.1,116.6 165.1,126.9 "/>
<path fill="#112029" d="M52.5,137.2c0,1.9,0,3.9,0,5.8c-2.8,0-5.5,0-8.3,0c-0.4,0-0.3-0.2-0.3-0.4v-5.5c0-0.2,0.1-0.5,0-0.7
	c-0.1-0.9-0.5-1.3-1.4-1.5c-0.6-0.1-1.1-0.1-1.7,0c-0.7,0.1-1.1,0.5-1.3,1.2c0,0.3-0.1,0.5-0.1,0.8c0,2,0,4.1,0,6.1h-8.6
	c0-2,0-4,0-5.9c0-0.2,0-0.3,0-0.5c0-6.6,0-13.2,0-19.8c0-0.7,0.1-1.2,0.6-1.8c2.1-2.9,2.8-6.2,2.8-9.7c0.5-0.1,1.1-0.3,1.7-0.2
	c0,0.2,0.1,0.5,0.1,0.7c0.1,1.4,0.6,2.6,1.8,3.5c1.2,1,2.6,1.1,4,1.2c0.5,0,1,0,1.5-0.2c1.1-0.3,2.1-0.7,2.8-1.6
	c1-1.1,1.2-2.4,1.3-3.7c0.5,0.1,1.1,0.2,1.6,0.3c0,0.6,0,1.1,0.1,1.7c0.1,1.1,0.2,2.1,0.5,3.1c0.4,1.8,1.1,3.5,2.3,4.9
	c0.5,0.6,0.6,1.2,0.6,2c0,4.2,0,8.4,0,12.6C52.5,132.2,52.5,134.7,52.5,137.2"/>
<path fill="#E0B495" d="M57.5,87c-0.1,0.6-0.3,1.3-0.4,2c-0.5-0.4-0.7-1-1-1.5c-1.1-2-1.8-4.1-2.2-6.3c-0.2-1-0.3-2-0.3-3
	c0-0.3,0-0.4-0.4-0.3c-2.7,0.8-2.1-7.4-4.9-6.9c-2.2,0.4-10.7,1.4-12.9,1.7c-1.2,0.2-4,1.4-5.2,1.5c-1.2,0.1-1.4,4.6-2.6,4.7
	c-2.3,0.1-1.4,2,0,2.1c0.3,0,1.6,0.4,1.5,0.7c-0.4,1.7-0.9,3.4-1.6,5c-0.3,0.8-0.7,1.6-1.3,2.3c-0.2-0.7-0.3-1.3-0.4-2
	c-1,0-1.3,0.4-1.4,1.4c0,0.7,1,1.7,1.2,2.4c0.2,0.8-0.3,1.3-0.3,2.2c0,0.5,0.5,0.9,1.1,0.8c0.3,0,0.4,0,0.4,0.3
	c0,0.1,0.1,0.3,0.1,0.4c0.7,2.6,1.9,4.8,4.1,6.6c1.5,1.2,3.3,2,5.1,2.5c0.2,0,0.4,0,0.4,0.2c0,0.4,0.1,0.8,0,1.1
	c0,0.2-0.4,0.1-0.6,0.2c-0.1,0-0.1,0.1-0.2,0.1c0,0.2,0.1,0.5,0.1,0.7c0.1,1.4,0.6,2.6,1.8,3.5c1.2,1,2.6,1.1,4,1.2
	c0.5,0,1,0,1.5-0.2c1.1-0.3,2.1-0.7,2.8-1.6c1-1.1,1.2-2.4,1.3-3.7c-0.1,0-0.2-0.1-0.4-0.1c-0.3,0-0.4-0.1-0.4-0.4
	c0-0.9,0-0.9,0.8-1.1c0.1,0,0.2-0.1,0.3-0.1c2.6-0.8,4.8-2.1,6.5-4.3c1.1-1.5,1.8-3.2,2.2-5c0.1-0.3,0.1-0.3,0.4-0.3
	c0.7,0.1,1.2-0.3,1.2-1c0-0.5-0.4-1.2-0.2-1.6c0.3-1,1.1-1.7,1.1-2.7C58.8,87.6,58.5,86.9,57.5,87z"/>
<path fill="#74431F" d="M57.5,87c-0.1,0.6-0.3,1.3-0.4,2c-0.5-0.4-0.7-1-1-1.5c-1.1-2-1.8-4.1-2.2-6.3c-0.2-1-0.3-2-0.3-3
	c0-0.3,0-0.4-0.4-0.3c-2.7,0.8-2.4-5.8-5.2-5.3C45.9,73,44,72.7,41.8,73c-1.2,0.2-3.4,2.6-4.6,2.8c-1.2,0.1-2.6-0.1-3.8-0.1
	c-0.5,0-1.7,0-2.1,0c-0.3,0-2,5.7-2.1,6c-0.4,1.7-0.9,3.4-1.6,5c-0.3,0.8-0.7,1.6-1.3,2.3c-0.2-0.7-0.3-1.3-0.4-2
	c-0.5-3.1-0.6-6.2,0.2-9.3c1.1-4.2,1.8-8.1,5.7-10c5.8-2.8,15-2.1,20.8,0.8c4,2,4.5,5.7,5.2,10.1c0.4,2.8,0.2,5.5-0.2,8.2
	C57.5,86.9,57.5,86.9,57.5,87"/>
<path fill="#E0B495" d="M79.8,116.1c-2.4-0.7-4.8-1.4-7.2-2c-4-1.2-6.3-1.3-10.4-2.5c-0.7-0.2-2.3-0.4-3.8-0.4
	c-1.9,0-3.3,0.1-4.8,0.9c-0.9,0.5-0.8,3.7-1.8,3.4c-0.6-0.1-2.9-5.3-2.7-4.8c-0.7-1.7-0.9-4.1-0.3-5.3c0.3-0.6,3.1,1.4,3.7,1.3
	c3-0.2,6.1,0,9.1,0.3c2.3,0.3,4.6,0.6,6.9,1.1c1.5,0.3,2.9,0.6,4.3,0.9c2.1,0.5,4.2,1,6.2,1.6c1.3,0.4,2.1,1.2,2.3,2.5
	c0.1,1.3-0.4,2.2-1.5,2.9C79.8,116.1,79.8,116.1,79.8,116.1"/>
<path fill="#E0B495" d="M34.2,105.4c0,3.5-0.7,6.8-2.8,9.7c-0.4,0.6-0.6,1.1-0.6,1.8c0,6.6,0,13.2,0,19.8c0,0.2,0,0.3,0,0.5
	c-1.3,1.3-2.8,1.5-4.2,0.4c-0.6-0.5-0.9-1.1-0.9-1.9c-0.1-2.1,0-4.2,0.1-6.4c0.1-2,0.2-4.1,0.4-6.1c0.5-4.7,0.6-8.7,2-13.2
	c0.4-1.3,1.8-2.9,3-3.5C32.2,105.9,33.2,105.5,34.2,105.4"/>
<path fill="#E0B495" d="M43.8,136.4c0.1,0.2,0,0.5,0,0.7v5.5c0,0.2,0,0.4,0.3,0.4c2.8,0,5.5,0,8.3,0c0,3.9,0,7.8,0,11.7
	c0,0.4,0,0.9,0,1.3c-0.2,0-0.4,0.1-0.6,0.1c-2.7,0.6-5.4,1.1-8.1,1.7c0-0.2,0-0.4,0-0.6c0-4.5,0-9,0-13.5c0-2.3,0-4.6,0-6.9
	C43.8,136.7,43.8,136.5,43.8,136.4"/>
<path fill="#E0B495" d="M30.8,143h8.6c0,5,0,9.9,0,14.9c-1.7-0.4-3.4-0.7-5.1-1.1c-1.2-0.2-2.4-0.5-3.5-0.8v-12.4
	C30.8,143.4,30.8,143.2,30.8,143"/>
<path fill="#2C3D52" d="M30.8,156c1.2,0.3,2.4,0.5,3.5,0.8c1.7,0.4,3.4,0.7,5.1,1.1c0.1,1.1,0.1,1.1-1,1.1c-3,0-5.9,0-8.9,0
	c-0.4,0-0.5-0.1-0.4-0.5C29.2,157.3,29.7,156.4,30.8,156"/>
<path fill="#2C3D52" d="M43.9,157.9c2.7-0.6,5.4-1.1,8.1-1.7c0.2,0,0.4-0.1,0.6-0.1c1.2,0.4,1.7,1.4,1.8,2.6c0,0.2,0,0.3-0.3,0.3
	c-3.3,0-6.5,0-9.8,0c-0.2,0-0.3-0.1-0.3-0.3C43.9,158.4,43.9,158.2,43.9,157.9"/>
<line fill="none" stroke="#717070" stroke-width="2.769" stroke-linecap="round" stroke-linejoin="round" stroke-miterlimit="10" x1="117.3" y1="76.4" x2="117.3" y2="79.8"/>
<line fill="none" stroke="#868787" stroke-width="2.769" stroke-linecap="round" stroke-linejoin="round" stroke-miterlimit="10" x1="93.5" y1="145.6" x2="93.5" y2="150.7"/>
<line fill="none" stroke="#868787" stroke-width="2.769" stroke-linecap="round" stroke-linejoin="round" stroke-miterlimit="10" x1="81.5" y1="145.6" x2="81.5" y2="150.7"/>
<line fill="none" stroke="#241F21" stroke-width="2.769" stroke-linecap="round" stroke-linejoin="round" stroke-miterlimit="10" x1="148.9" y1="146.8" x2="150.8" y2="144.9"/>
<line fill="none" stroke="#241F21" stroke-width="2.769" stroke-linecap="round" stroke-linejoin="round" stroke-miterlimit="10" x1="134.2" y1="146.8" x2="136" y2="144.9"/>
<line fill="none" stroke="#717070" stroke-width="2.769" stroke-linecap="round" stroke-linejoin="round" stroke-miterlimit="10" x1="117.6" y1="92.3" x2="117.6" y2="88.6"/>
<path fill="none" stroke="#717070" stroke-width="2.769" stroke-linecap="round" stroke-linejoin="round" stroke-miterlimit="10" d="
	M98.9,63.5c-4,0-7.3-3.3-7.3-7.3c0-4,3.3-7.3,7.3-7.3"/>
<path fill="#BBBDBF" stroke="#717070" stroke-width="2.769" stroke-linecap="round" stroke-linejoin="round" stroke-miterlimit="10" d="
	M126.7,64.4V60c0-2.6-2.1-4.8-4.8-4.8h-9.4c-2.6,0-4.8,2.1-4.8,4.8v4v5.6h19v-6.1"/>
<polyline fill="none" stroke="#717070" stroke-width="2.769" stroke-linecap="round" stroke-linejoin="round" stroke-miterlimit="10" points="
	99,48.9 117.6,48.9 117.6,55.2 "/>
<line fill="none" stroke="#717070" stroke-width="2.769" stroke-linecap="round" stroke-linejoin="round" stroke-miterlimit="10" x1="157.9" y1="92.3" x2="161.5" y2="92.3"/>
<line fill="none" stroke="#717070" stroke-width="2.769" stroke-linecap="round" stroke-linejoin="round" stroke-miterlimit="10" x1="73.7" y1="92.5" x2="76.9" y2="92.5"/>
<polyline fill="none" stroke="#717070" stroke-width="2.769" stroke-linecap="round" stroke-linejoin="round" stroke-miterlimit="10" points="
	151.2,98.2 151.2,69.6 151.2,63.5 101.2,63.5 99,63.5 "/>
<line fill="none" stroke="#868787" stroke-width="2.769" stroke-linecap="round" stroke-linejoin="round" stroke-miterlimit="10" x1="141.7" y1="126.9" x2="165.1" y2="126.9"/>
<circle fill="none" stroke="#868787" stroke-width="2.769" stroke-linecap="round" stroke-linejoin="round" stroke-miterlimit="10" cx="108.7" cy="126.9" r="3.7"/>
<circle fill="none" stroke="#868787" stroke-width="2.769" stroke-linecap="round" stroke-linejoin="round" stroke-miterlimit="10" cx="93.9" cy="126.9" r="3.7"/>
<circle fill="none" stroke="#868787" stroke-width="2.769" stroke-linecap="round" stroke-linejoin="round" stroke-miterlimit="10" cx="79.2" cy="126.9" r="3.7"/>
<polygon fill="#B07F4A" points="13.1,135.9 183.3,135.9 192.4,148.1 3.4,148.1 "/>
<rect x="18.5" y="148.2" fill="#946138" width="6.1" height="20.9"/>
<rect x="18.5" y="148.2" fill="none" width="6.1" height="20.9"/>
<rect x="168.8" y="148.2" fill="#946138" width="6.1" height="20.9"/>
<rect x="10.5" y="38" fill="#C99D67" width="6.1" height="146.7"/>
<rect x="179.4" y="38" fill="#C99D67" width="6.1" height="146.7"/>
<path fill="none" stroke="#1C1C1C" stroke-linecap="round" stroke-linejoin="round" stroke-miterlimit="10" d="M33.3,95.8
	c0,0,7.5,6.4,16.5,0"/>
<ellipse fill="#1E1E1E" cx="36.4" cy="86.4" rx="2.2" ry="2"/>
<ellipse fill="#1E1E1E" cx="46.1" cy="86.4" rx="2.2" ry="2"/>
<path fill="#F6B2CF" d="M25.2,116.5c0,0,4.4,1.3,5.3,2.6c0.1,0.1-0.2,13.1,0,10.7v0.3c0,0,11.4,3.5,22.4,0.1l0-14.8l8.7-1.6
	l-1.9-7.2c0,0-4.3-0.4-6.8-0.1c0,0-3-1.5-5.3-1.8c0,0-4.9,6.5-11.9,0.1c0,0-6,0.3-7.1,4.2L25.2,116.5z"/>
<polygon opacity="0.7" fill="#FFFFFF" stroke="#231F20" stroke-width="0.5" stroke-miterlimit="10" points="24.8,86.7 31.5,87.6 
	32.9,90.7 39.8,90.7 40.8,88.1 42.5,88.1 43.6,90.7 50.5,90.7 51.4,87.9 57.7,87.2 58,85.2 50.6,82.7 31.6,82.7 24.5,85.2 "/>
<polygon fill="none" stroke="#575757" stroke-width="0.5" stroke-miterlimit="10" points="24.8,86.7 31.6,87.6 32.9,90.7 39.8,90.7 
	40.8,88.1 42.5,88.1 43.6,90.7 50.5,90.7 51.4,87.9 57.7,87.2 58,85.2 50.7,82.7 31.6,82.7 24.5,85.2 "/>
<g>
	<path fill="#383939" d="M34.1,10.6h12.9v4.6h-7v3.5h5.6V23h-5.6v6.3h-5.9V10.6z"/>
	<path fill="#383939" d="M47.6,25.5c0-3.2,2.6-4.5,7.3-4.5h1.2v-0.2c0-1.2-0.2-2-1.6-2c-1.2,0-1.5,0.8-1.6,1.5h-4.8
		c0.2-3.3,2.8-5,6.7-5c4,0,6.4,1.6,6.4,5.2v8.8h-5v-1.6c-0.6,0.9-1.8,1.9-4,1.9C49.8,29.7,47.6,28.5,47.6,25.5z M56.1,24.5v-0.7H55
		c-1.7,0-2.4,0.3-2.4,1.3c0,0.7,0.5,1.1,1.4,1.1C55.3,26.2,56.1,25.6,56.1,24.5z"/>
	<path fill="#383939" d="M68.7,27.2v2.1h-5.2V9.7h5.2v7.9c0.8-1.3,2.1-2.4,4.2-2.4c3.1,0,5.7,2.3,5.7,7.1v0.2c0,4.8-2.6,7.1-5.8,7.1
		C70.9,29.7,69.4,28.7,68.7,27.2z M73.4,22.5v-0.2c0-2.2-0.9-3.2-2.4-3.2c-1.5,0-2.4,1.2-2.4,3.2v0.2c0,2.1,0.8,3.2,2.4,3.2
		C72.6,25.7,73.4,24.6,73.4,22.5z"/>
	<path fill="#383939" d="M86.5,10.6h2.1l6.6,16.1l6.6-16.1h2v18.7h-1.4V12.4l-7,16.9h-0.5l-7-16.9v16.9h-1.4V10.6z"/>
	<path fill="#383939" d="M107.5,25.6c0-3.2,3-4.1,6.4-4.1h2.8v-1.2c0-2.6-1-3.7-3.5-3.7c-2.1,0-3.5,0.9-3.8,2.9h-1.4
		c0.3-2.9,2.7-4.1,5.3-4.1c2.9,0,4.8,1.4,4.8,4.8v9h-1.4v-2.1c-0.9,1.3-2.3,2.3-4.6,2.3C109.4,29.5,107.5,28.2,107.5,25.6z
		 M116.8,24.9v-2.3H114c-2.8,0-5.1,0.6-5.1,3.1c0,1.8,1.1,2.8,3.3,2.8C114.7,28.4,116.8,26.9,116.8,24.9z"/>
	<path fill="#383939" d="M122.3,15.6h1.4v2.9c0.8-1.7,2.1-3,4.6-3.1v1.3c-2.6,0.1-4.6,1.3-4.6,5v7.6h-1.4V15.6z"/>
	<path fill="#383939" d="M131.4,9.1h1.4v13l6.7-6.4h1.6l-6.7,6.4l7.1,7.3h-1.7l-7-7.2v7.2h-1.4V9.1z"/>
	<path fill="#383939" d="M142.6,22.6v-0.2c0-4.1,2.6-7,6.3-7c3.3,0,6,2.1,6,6.7v0.5h-10.8c0.1,3.7,1.8,5.8,5,5.8
		c2.3,0,3.8-0.9,4.3-2.9h1.4c-0.6,2.6-2.7,4-5.7,4C145.2,29.5,142.6,26.7,142.6,22.6z M153.4,21.5c-0.1-3.3-1.9-4.9-4.6-4.9
		c-2.6,0-4.5,1.9-4.8,4.9H153.4z"/>
	<path fill="#383939" d="M158.7,26v-9.2h-2v-1.2h2v-3.1h1.4v3.1h3.6v1.2H160v9.1c0,1.6,0.8,2.4,2,2.4c0.7,0,1.3-0.1,1.7-0.3v1.2
		c-0.4,0.2-1,0.3-1.8,0.3C159.8,29.5,158.7,28.2,158.7,26z"/>
</g>
</svg>
