<?xml version="1.0" encoding="utf-8"?>
<!-- Generator: Adobe Illustrator 18.0.0, SVG Export Plug-In . SVG Version: 6.00 Build 0)  -->
<!DOCTYPE svg PUBLIC "-//W3C//DTD SVG 1.1//EN" "http://www.w3.org/Graphics/SVG/1.1/DTD/svg11.dtd">
<svg version="1.1" id="Layer_1" xmlns="http://www.w3.org/2000/svg" xmlns:xlink="http://www.w3.org/1999/xlink" x="0px" y="0px"
	 viewBox="0 0 193.5 183" enable-background="new 0 0 193.5 183" xml:space="preserve">
<g>
	<defs>
		<rect id="SVGID_1_" x="1" y="1" width="191.1" height="179"/>
	</defs>
	<clipPath id="SVGID_2_">
		<use xlink:href="#SVGID_1_"  overflow="visible"/>
	</clipPath>
	<path clip-path="url(#SVGID_2_)" fill="#616262" d="M66,168.8c0,6.2-1.1,11.2-2.5,11.2c-1.4,0-2.6-5-2.6-11.2
		c0-6.2,1.1-11.2,2.6-11.2C64.8,157.6,66,162.6,66,168.8"/>
	<path clip-path="url(#SVGID_2_)" fill="#616262" d="M179.5,168.8c0,6.2-1.1,11.2-2.6,11.2c-1.4,0-2.5-5-2.5-11.2
		c0-6.2,1.1-11.2,2.5-11.2C178.4,157.6,179.5,162.6,179.5,168.8"/>
	<path clip-path="url(#SVGID_2_)" fill="#616262" d="M172,165.5c0,4.6-0.8,8.3-1.9,8.3c-1,0-1.9-3.7-1.9-8.3c0-4.6,0.8-8.3,1.9-8.3
		C171.2,157.3,172,161,172,165.5"/>
	<path clip-path="url(#SVGID_2_)" fill="#616262" d="M72.8,165.5c0,4.6-0.8,8.3-1.9,8.3c-1,0-1.9-3.7-1.9-8.3c0-4.6,0.8-8.3,1.9-8.3
		C71.9,157.3,72.8,161,72.8,165.5"/>
</g>
<rect x="48.3" y="108.4" fill="#6CC2DE" width="143.7" height="57.2"/>
<path fill="#112029" d="M48.3,140.4c0,3,0,5.9,0,8.9c-4.2,0-8.4,0-12.6,0c-0.6,0-0.5-0.3-0.5-0.7v-8.4c0-0.4,0.1-0.7-0.1-1.1
	c-0.1-1.4-0.8-2-2.1-2.3c-0.9-0.1-1.7-0.1-2.6,0c-1.1,0.2-1.7,0.8-1.9,1.9c-0.1,0.4-0.1,0.8-0.1,1.2c0,3.1,0,6.2,0,9.3H15.3
	c0-3,0-6,0-9c0-0.3,0-0.5,0-0.8c0-10,0-20.1,0-30.1c0-1,0.2-1.8,0.9-2.7c3.2-4.3,4.3-9.4,4.3-14.7c0.8-0.2,1.6-0.5,2.5-0.4
	c-0.1,0.4,0.1,0.7,0.2,1.1c0.2,2.1,1,3.9,2.7,5.3c1.8,1.4,3.9,1.7,6.1,1.8c0.7,0,1.5-0.1,2.3-0.2c1.7-0.4,3.2-1.1,4.3-2.4
	c1.5-1.6,1.8-3.6,2-5.7c0.8,0.1,1.7,0.3,2.5,0.4c0,0.9,0.1,1.7,0.1,2.5c0.1,1.6,0.4,3.2,0.7,4.8c0.7,2.7,1.6,5.3,3.5,7.5
	c0.8,0.9,1,1.9,1,3.1c0,6.4,0,12.8,0,19.2C48.3,132.8,48.3,136.6,48.3,140.4"/>
<path fill="#E0B495" d="M55.9,64c-0.2,1-0.4,1.9-0.7,3c-0.7-0.7-1.1-1.5-1.5-2.3c-1.6-3-2.7-6.2-3.3-9.6c-0.2-1.5-0.4-3-0.4-4.5
	c0-0.4,0-0.6-0.5-0.4c-4.1,1.2-3.3-11.3-7.5-10.5c-3.4,0.6-16.3,2.1-19.7,2.6c-1.8,0.2-6.1,2.2-7.9,2.3c-1.8,0.2-2.1,7.1-3.9,7.1
	c-3.6,0.2-2.2,3,0,3.2c0.5,0.1,2.4,0.6,2.3,1c-0.6,2.6-1.4,5.1-2.4,7.6c-0.5,1.2-1.1,2.4-2,3.5c-0.4-1-0.5-2-0.6-3
	c-1.5,0-2,0.6-2.1,2.1c0,1.1,0.2,2.2,0.4,3.3C6.4,70.6,7,71.7,7,73.1c0,0.8,0.8,1.4,1.7,1.2c0.4-0.1,0.6,0,0.6,0.5
	c0,0.2,0.1,0.4,0.1,0.6c1,4,2.9,7.4,6.2,10c2.3,1.9,5,3,7.8,3.8c0.3,0.1,0.6,0,0.6,0.3c0,0.6,0.1,1.2,0,1.7
	c-0.1,0.3-0.6,0.1-0.9,0.3c-0.1,0.1-0.2,0.1-0.2,0.1c-0.1,0.4,0.1,0.7,0.2,1.1c0.2,2.1,1,3.9,2.7,5.3c1.8,1.4,3.9,1.7,6.1,1.8
	c0.7,0,1.5-0.1,2.3-0.2c1.7-0.4,3.2-1.1,4.3-2.4c1.5-1.6,1.8-3.6,2-5.7c-0.2,0-0.4-0.1-0.5-0.1c-0.5,0-0.6-0.2-0.6-0.7
	c0-1.4,0-1.4,1.3-1.7c0.1,0,0.3-0.1,0.4-0.1c4-1.2,7.3-3.2,9.9-6.6c1.7-2.3,2.7-4.8,3.3-7.6c0.1-0.4,0.2-0.5,0.6-0.4
	c1.1,0.2,1.8-0.5,1.8-1.6c0-0.7,0.2-1.3,0.4-2c0.5-1.5,0.9-3.1,0.9-4.7C57.9,64.9,57.3,63.9,55.9,64"/>
<path fill="#2C2B24" d="M55.9,64c-0.2,1-0.4,1.9-0.6,3c-0.7-0.7-1.1-1.5-1.5-2.3c-1.6-3-2.7-6.2-3.3-9.6c-0.2-1.5-0.4-3-0.4-4.5
	c0-0.4,0-0.6-0.5-0.4c-4.1,1.2-3.6-8.8-7.9-8c-3.4,0.6-6.2,0.2-9.7,0.6c-1.8,0.3-5.5,1-7.3,1.2c-1.8,0.2-3.6,2.8-5.4,2.9
	c-0.7,0-2.5,0.1-3.2,0c-0.5,0-3.1,8.7-3.2,9.2c-0.6,2.6-1.4,5.1-2.4,7.6c-0.5,1.2-1.1,2.4-2,3.5c-0.4-1-2.5,0-2.7-0.9
	C4.9,61.3,0,48.6,1.2,43.9c1.6-6.4,6.9-8.4,12.8-11.2c8.9-4.2,26.8-4.5,35.5,0c6,3.1,12.2,11.8,13.2,18.4c0.7,4.2-4.1,10.7-4.8,14.9
	C57.9,66.1,55.9,63.9,55.9,64"/>
<path fill="#E0B495" d="M20.4,92c0,5.3-1,10.4-4.3,14.7c-0.7,0.9-0.9,1.7-0.9,2.7c0,10,0,20.1,0,30.1c0,0.3,0,0.5,0,0.8
	c-1.9,2.1-4.3,2.3-6.3,0.5c-0.9-0.7-1.4-1.7-1.4-2.8c-0.1-3.2,0-6.4,0.2-9.7c0.1-3.1,0.4-6.2,0.7-9.3c0.7-7.2,1.9-14.3,4.1-21.2
	c0.6-2,1.7-3.4,3.5-4.3C17.4,92.8,18.9,92.2,20.4,92"/>
<path fill="#E0B495" d="M35.1,139.1c0.1,0.4,0.1,0.7,0.1,1.1v8.4c0,0.4,0,0.7,0.5,0.7c4.2,0,8.4,0,12.6,0c0,5.9,0,11.9,0,17.8
	c0,0.7,0,1.3,0,2c-0.3,0.1-0.6,0.2-0.9,0.2c-4.1,0.9-8.2,1.7-12.3,2.6c0-0.3,0-0.6,0-1c0-6.8,0-13.7,0-20.5c0-3.5,0-7,0-10.5
	C35.1,139.6,35.1,139.4,35.1,139.1"/>
<path fill="#E0B495" d="M15.3,149.3h13.1c0,7.5,0,15.1,0,22.6c-2.6-0.5-5.1-1.1-7.7-1.6c-1.8-0.4-3.6-0.8-5.4-1.2v-18.9
	C15.3,149.9,15.3,149.6,15.3,149.3"/>
<path fill="#2C3D52" d="M15.3,169.1c1.8,0.4,3.6,0.8,5.4,1.2c2.6,0.6,5.1,1.1,7.7,1.6c0.1,1.7,0.1,1.7-1.6,1.7c-4.5,0-9,0-13.5,0
	c-0.6,0-0.8-0.1-0.7-0.7C12.8,171.1,13.5,169.7,15.3,169.1"/>
<path fill="#2C3D52" d="M35.2,171.9c4.1-0.9,8.2-1.7,12.3-2.6c0.3-0.1,0.6-0.1,0.9-0.2c1.9,0.7,2.5,2.1,2.7,4c0,0.3,0,0.5-0.4,0.5
	c-5,0-10,0-14.9,0c-0.4,0-0.5-0.1-0.5-0.5C35.2,172.7,35.2,172.3,35.2,171.9"/>
<path fill="none" stroke="#1C1C1C" stroke-width="0.8768" stroke-linecap="round" stroke-linejoin="round" stroke-miterlimit="10" d="
	M19,77.5c0,0,11.4,9.8,25.1,0"/>
<path fill="#1F1F1F" d="M27.1,63.2c0,1.7-1.5,3.1-3.3,3.1c-1.8,0-3.3-1.4-3.3-3.1c0-1.7,1.5-3.1,3.3-3.1
	C25.6,60.1,27.1,61.5,27.1,63.2"/>
<path fill="#1F1F1F" d="M41.8,63.2c0,1.7-1.5,3.1-3.3,3.1c-1.8,0-3.3-1.4-3.3-3.1c0-1.7,1.5-3.1,3.3-3.1
	C40.3,60.1,41.8,61.5,41.8,63.2"/>
<path fill="#E0B495" d="M89.8,108.4c-3.7-1-7.3-2.1-11-3.1c-6.2-1.8-9.6-2-15.8-3.8c-1.1-0.3-3.4-0.7-5.7-0.6c-2.8,0-5,0.2-7.3,1.4
	c-1.4,0.8-1.2,5.6-2.8,5.2c-0.8-0.2-4.5-8-4.1-7.3c-1.1-2.7-1.4-6.2-0.4-8.1c0.5-0.9,4.7,2.1,5.7,2c4.6-0.3,9.3-0.1,13.9,0.4
	c3.5,0.4,7.1,1,10.6,1.6c2.2,0.4,4.4,0.9,6.6,1.4c3.2,0.7,6.4,1.5,9.5,2.4c2,0.6,3.2,1.8,3.4,3.8c0.2,2-0.6,3.4-2.3,4.4
	C89.9,108.2,89.8,108.3,89.8,108.4"/>
<path fill="#4A6CA2" d="M7.5,108.8c0,0,6.5,1.9,7.8,3.8c0.1,0.2-0.3,19.3,0,15.7v0.4c0,0,16.8,5.1,33,0.2l0-21.8l12.9-2.4l-2.8-10.6
	c0,0-6.3-0.6-10.1-0.1c0,0-4.4-2.2-7.8-2.7c0,0-7.3,9.5-17.6,0.1c0,0-8.8,0.4-10.5,6.1L7.5,108.8z"/>
<rect x="1" y="1" fill="none" width="191.1" height="179"/>
<rect x="55.3" y="112.1" fill="#4B87A5" width="64" height="16.1"/>
<g>
	<defs>
		<rect id="SVGID_3_" x="1" y="1" width="191.1" height="179"/>
	</defs>
	<clipPath id="SVGID_4_">
		<use xlink:href="#SVGID_3_"  overflow="visible"/>
	</clipPath>
	<path clip-path="url(#SVGID_4_)" fill="#FFFFFF" d="M89.6,120.1c0,1.3-1,2.3-2.3,2.3c-1.3,0-2.3-1-2.3-2.3c0-1.3,1-2.3,2.3-2.3
		C88.6,117.8,89.6,118.8,89.6,120.1"/>
</g>
<rect x="55.3" y="129.5" fill="#4B87A5" width="64" height="16"/>
<g>
	<defs>
		<rect id="SVGID_5_" x="1" y="1" width="191.1" height="179"/>
	</defs>
	<clipPath id="SVGID_6_">
		<use xlink:href="#SVGID_5_"  overflow="visible"/>
	</clipPath>
	<path clip-path="url(#SVGID_6_)" fill="#FFFFFF" d="M89.6,137.5c0,1.3-1,2.3-2.3,2.3c-1.3,0-2.3-1-2.3-2.3c0-1.3,1-2.3,2.3-2.3
		C88.6,135.2,89.6,136.2,89.6,137.5"/>
</g>
<rect x="55.3" y="147.2" fill="#4B87A5" width="64" height="16.1"/>
<g>
	<defs>
		<rect id="SVGID_7_" x="1" y="1" width="191.1" height="179"/>
	</defs>
	<clipPath id="SVGID_8_">
		<use xlink:href="#SVGID_7_"  overflow="visible"/>
	</clipPath>
	<path clip-path="url(#SVGID_8_)" fill="#FFFFFF" d="M89.6,155.2c0,1.3-1,2.3-2.3,2.3c-1.3,0-2.3-1-2.3-2.3c0-1.3,1-2.3,2.3-2.3
		C88.6,152.9,89.6,154,89.6,155.2"/>
</g>
<rect x="121.1" y="112.1" fill="#4B87A5" width="64" height="16.1"/>
<g>
	<defs>
		<rect id="SVGID_9_" x="1" y="1" width="191.1" height="179"/>
	</defs>
	<clipPath id="SVGID_10_">
		<use xlink:href="#SVGID_9_"  overflow="visible"/>
	</clipPath>
	<path clip-path="url(#SVGID_10_)" fill="#FFFFFF" d="M155.4,120.1c0,1.3-1,2.3-2.3,2.3c-1.3,0-2.3-1-2.3-2.3c0-1.3,1-2.3,2.3-2.3
		C154.4,117.8,155.4,118.8,155.4,120.1"/>
</g>
<rect x="121.1" y="129.5" fill="#4B87A5" width="64" height="16.1"/>
<g>
	<defs>
		<rect id="SVGID_11_" x="1" y="1" width="191.1" height="179"/>
	</defs>
	<clipPath id="SVGID_12_">
		<use xlink:href="#SVGID_11_"  overflow="visible"/>
	</clipPath>
	<path clip-path="url(#SVGID_12_)" fill="#FFFFFF" d="M155.4,137.5c0,1.3-1,2.3-2.3,2.3c-1.3,0-2.3-1-2.3-2.3c0-1.3,1-2.3,2.3-2.3
		C154.4,135.2,155.4,136.2,155.4,137.5"/>
</g>
<rect x="121.1" y="147.2" fill="#4B87A5" width="64" height="16.1"/>
<g>
	<defs>
		<rect id="SVGID_13_" x="1" y="1" width="191.1" height="179"/>
	</defs>
	<clipPath id="SVGID_14_">
		<use xlink:href="#SVGID_13_"  overflow="visible"/>
	</clipPath>
	<path clip-path="url(#SVGID_14_)" fill="#FFFFFF" d="M155.4,155.2c0,1.3-1,2.3-2.3,2.3c-1.3,0-2.3-1-2.3-2.3c0-1.3,1-2.3,2.3-2.3
		C154.4,152.9,155.4,154,155.4,155.2"/>
	<path clip-path="url(#SVGID_14_)" fill="#EC2224" d="M90.5,48.1c0,0,0-0.1-0.1-0.1c-1.2-2.6-2.5-5.1-3.9-7.6
		c-0.8-1.5-1.6-2.9-2.3-4.4c-0.5-1.1-1-2.3-1.4-3.5c-0.4-1.5-0.6-3-0.4-4.5c0.1-0.6,0.2-1.2,0.4-1.8c0.2-0.7,0.4-1.4,0.7-2.1
		c1.1-2.8,3.7-4.7,6.7-4.8c0.8,0,1.5,0,2.3,0.2c1.5,0.4,2.7,1.1,3.8,2.1c0.7,0.8,1.3,1.6,1.7,2.6c0.3,0.7,0.5,1.5,0.7,2.3
		c0,0,0,0.1,0,0.1c0,0,0.1,0,0.1-0.1c1-0.8,2.1-1.3,3.3-1.7c1.3-0.4,2.6-0.4,3.9-0.1c0.7,0.2,1.3,0.4,2,0.7c1.1,0.6,2,1.3,2.7,2.3
		c1.1,1.5,1.6,3.3,1.4,5.2c-0.1,0.8-0.3,1.5-0.6,2.3c-0.2,0.6-0.5,1.1-0.8,1.7c-0.8,1.6-1.8,3-3.3,4.1c-0.8,0.6-1.7,1.2-2.7,1.6
		c-1.1,0.5-2.2,1-3.4,1.4c-1.8,0.7-3.6,1.3-5.4,2C94.4,46.5,92.5,47.3,90.5,48.1C90.6,48,90.6,48,90.5,48.1"/>
	<path clip-path="url(#SVGID_14_)" fill="#EC2224" d="M71.7,56.8C71.7,56.8,71.7,56.7,71.7,56.8c-0.6-1.2-1.2-2.3-1.7-3.4
		c-0.3-0.6-0.7-1.3-1-2c-0.2-0.5-0.5-1-0.6-1.5c-0.2-0.7-0.3-1.3-0.2-2c0-0.3,0.1-0.5,0.2-0.8c0.1-0.3,0.2-0.6,0.3-0.9
		c0.5-1.2,1.6-2.1,3-2.1c0.3,0,0.7,0,1,0.1c0.6,0.2,1.2,0.5,1.7,1c0.3,0.3,0.6,0.7,0.8,1.1c0.1,0.3,0.2,0.7,0.3,1c0,0,0,0,0,0
		c0,0,0,0,0,0c0.4-0.3,0.9-0.6,1.5-0.7c0.6-0.2,1.1-0.2,1.7,0c0.3,0.1,0.6,0.2,0.9,0.3c0.5,0.3,0.9,0.6,1.2,1
		c0.5,0.7,0.7,1.5,0.6,2.3c0,0.4-0.1,0.7-0.2,1c-0.1,0.3-0.2,0.5-0.3,0.8c-0.4,0.7-0.8,1.3-1.5,1.8c-0.4,0.3-0.8,0.5-1.2,0.7
		c-0.5,0.2-1,0.4-1.5,0.6c-0.8,0.3-1.6,0.6-2.4,0.9C73.4,56.1,72.5,56.4,71.7,56.8C71.7,56.8,71.7,56.8,71.7,56.8"/>
	<path clip-path="url(#SVGID_14_)" fill="#EC2224" d="M59.2,24.1c0,0-0.1,0-0.1,0c-2.1-0.8-4.3-1.5-6.5-2.1
		c-1.3-0.4-2.5-0.8-3.8-1.2c-0.9-0.3-1.9-0.7-2.7-1.2c-1.1-0.6-2-1.4-2.8-2.3c-0.3-0.4-0.6-0.8-0.8-1.2c-0.3-0.5-0.6-1-0.8-1.6
		c-0.9-2.2-0.6-4.7,1.1-6.5c0.4-0.5,0.9-0.8,1.4-1.2c1-0.6,2.1-0.9,3.3-0.9c0.8,0,1.6,0.2,2.4,0.5c0.6,0.2,1.2,0.5,1.7,0.9
		c0,0,0,0,0.1,0c0,0,0-0.1,0-0.1c0.1-1,0.4-1.9,0.9-2.8c0.5-0.9,1.2-1.7,2.1-2.3c0.5-0.3,1-0.5,1.5-0.7c0.9-0.3,1.9-0.4,2.9-0.2
		c1.5,0.2,2.7,1,3.7,2.1c0.4,0.5,0.7,1,1,1.6c0.2,0.5,0.4,0.9,0.5,1.4c0.5,1.3,0.6,2.7,0.4,4.1c-0.1,0.8-0.3,1.6-0.6,2.4
		c-0.3,0.9-0.7,1.8-1.1,2.7c-0.6,1.4-1.3,2.8-1.9,4.2C60.5,21,59.8,22.5,59.2,24.1C59.2,24,59.2,24,59.2,24.1"/>
</g>
<rect x="15.3" y="147.8" fill="#112029" width="13.1" height="18.6"/>
<rect x="35.2" y="148.7" fill="#112029" width="13.1" height="18.4"/>
</svg>
